<?xml version="1.0" encoding="utf-8"?>
<!-- Generated by IcoMoon.io -->
<!DOCTYPE svg PUBLIC "-//W3C//DTD SVG 1.1//EN" "http://www.w3.org/Graphics/SVG/1.1/DTD/svg11.dtd">
<svg version="1.1" xmlns="http://www.w3.org/2000/svg" xmlns:xlink="http://www.w3.org/1999/xlink" width="64" height="64" viewBox="0 0 64 64">
<path d="M63.636 18.243l-17.879-17.879c-0.583-0.583-1.353-0.452-1.71 0.292l-2.397 4.994 16.7 16.7 4.994-2.397c0.744-0.357 0.875-1.126 0.292-1.71z" fill="#000000"></path>
<path d="M38.462 8.461l-16.462 1.372c-1.094 0.135-2.005 0.369-2.318 1.797-0 0.002-0.001 0.003-0.001 0.004-4.464 21.442-19.681 42.365-19.681 42.365l3.586 3.586 16.999-16.999c-0.375-0.783-0.585-1.66-0.585-2.587 0-3.314 2.686-6 6-6s6 2.686 6 6-2.686 6-6 6c-0.926 0-1.803-0.21-2.587-0.585l-16.999 16.999 3.586 3.586c0 0 20.924-15.217 42.365-19.681 0.002-0 0.003-0.001 0.004-0.001 1.428-0.313 1.662-1.224 1.797-2.318l1.372-16.462-17.077-17.077z" fill="#000000"></path>
</svg>
