<?xml version="1.0" encoding="utf-8"?>
<!-- Generated by IcoMoon.io -->
<!DOCTYPE svg PUBLIC "-//W3C//DTD SVG 1.1//EN" "http://www.w3.org/Graphics/SVG/1.1/DTD/svg11.dtd">
<svg version="1.1" xmlns="http://www.w3.org/2000/svg" xmlns:xlink="http://www.w3.org/1999/xlink" width="64" height="64" viewBox="0 0 64 64">
<path d="M24 0v6c4.593 0 9.044 0.898 13.232 2.669 4.048 1.712 7.685 4.165 10.809 7.289s5.577 6.761 7.289 10.809c1.771 4.188 2.669 8.64 2.669 13.232h6c0-22.091-17.909-40-40-40z" fill="#000000"></path>
<path d="M24 12v6c5.876 0 11.401 2.288 15.556 6.444s6.444 9.68 6.444 15.556h6c0-15.464-12.536-28-28-28z" fill="#000000"></path>
<path d="M30 24l-4 4-14 4-12 26 1.586 1.586 14.55-14.55c-0.088-0.33-0.136-0.678-0.136-1.036 0-2.209 1.791-4 4-4s4 1.791 4 4-1.791 4-4 4c-0.358 0-0.705-0.048-1.035-0.136l-14.55 14.55 1.586 1.586 26-12 4-14 4-4-10-10z" fill="#000000"></path>
</svg>
