<?xml version="1.0" encoding="utf-8"?>
<!-- Generated by IcoMoon.io -->
<!DOCTYPE svg PUBLIC "-//W3C//DTD SVG 1.1//EN" "http://www.w3.org/Graphics/SVG/1.1/DTD/svg11.dtd">
<svg version="1.1" xmlns="http://www.w3.org/2000/svg" xmlns:xlink="http://www.w3.org/1999/xlink" width="64" height="64" viewBox="0 0 64 64">
<path d="M61.657 2.343c-3.124-3.124-8.19-3.124-11.314 0l-10.757 10.757-7.586-7.586-8.485 8.485 6.652 6.652-29.507 29.507c-0.503 0.503-0.717 1.185-0.644 1.841h-0.015v10c0 1.105 0.895 2 2 2h10c0 0 0.166 0 0.25 0 0.576 0 1.152-0.22 1.591-0.659l29.507-29.507 6.652 6.652 8.485-8.485-7.586-7.586 10.757-10.757c3.124-3.124 3.124-8.19 0-11.314zM10.818 60h-6.818v-6.818l29.348-29.348 6.818 6.818-29.348 29.348z" fill="#000000"></path>
</svg>
