<?xml version="1.0" encoding="utf-8"?>
<!-- Generated by IcoMoon.io -->
<!DOCTYPE svg PUBLIC "-//W3C//DTD SVG 1.1//EN" "http://www.w3.org/Graphics/SVG/1.1/DTD/svg11.dtd">
<svg version="1.1" xmlns="http://www.w3.org/2000/svg" xmlns:xlink="http://www.w3.org/1999/xlink" width="64" height="64" viewBox="0 0 64 64">
<path d="M54.039 29.573c-4.11-11.465-12.819-21.759-22.039-29.573-9.22 7.813-17.929 18.108-22.039 29.573-2.542 7.090-2.793 14.785 0.787 21.587 4.115 7.821 12.415 12.84 21.253 12.84s17.137-5.019 21.252-12.84c3.579-6.802 3.328-14.498 0.787-21.587zM46.173 47.435c-2.738 5.203-8.301 8.565-14.173 8.565-3.445 0-6.783-1.159-9.507-3.166 0.828 0.108 1.665 0.166 2.507 0.166 7.339 0 14.292-4.201 17.713-10.703 2.805-5.331 2.561-10.866 1.493-15.271 0.91 1.759 1.682 3.512 2.303 5.246 1.413 3.941 2.502 9.771-0.336 15.163z" fill="#000000"></path>
</svg>
