<?xml version="1.0" encoding="utf-8"?>
<!-- Generated by IcoMoon.io -->
<!DOCTYPE svg PUBLIC "-//W3C//DTD SVG 1.1//EN" "http://www.w3.org/Graphics/SVG/1.1/DTD/svg11.dtd">
<svg version="1.1" xmlns="http://www.w3.org/2000/svg" xmlns:xlink="http://www.w3.org/1999/xlink" width="64" height="64" viewBox="0 0 64 64">
<path d="M64 36v-24h-12v-4c0-2.2-1.8-4-4-4h-44c-2.2 0-4 1.8-4 4v12c0 2.2 1.8 4 4 4h44c2.2 0 4-1.8 4-4v-4h8v16h-36v8h-2c-1.105 0-2 0.895-2 2v20c0 1.105 0.895 2 2 2h8c1.105 0 2-0.895 2-2v-20c0-1.105-0.895-2-2-2h-2v-4h36zM48 12h-44v-4h44v4z" fill="#000000"></path>
</svg>
