<?xml version="1.0" encoding="utf-8"?>
<!-- Generated by IcoMoon.io -->
<!DOCTYPE svg PUBLIC "-//W3C//DTD SVG 1.1//EN" "http://www.w3.org/Graphics/SVG/1.1/DTD/svg11.dtd">
<svg version="1.1" xmlns="http://www.w3.org/2000/svg" xmlns:xlink="http://www.w3.org/1999/xlink" width="72" height="64" viewBox="0 0 72 64">
<path d="M68 8h-4v-4c0-2.2-1.8-4-4-4h-56c-2.2 0-4 1.8-4 4v48c0 2.2 1.8 4 4 4h4v4c0 2.2 1.8 4 4 4h56c2.2 0 4-1.8 4-4v-48c0-2.2-1.8-4-4-4zM8 12v40h-3.993c-0.003-0.002-0.005-0.005-0.007-0.007v-47.986c0.002-0.003 0.005-0.005 0.007-0.007h55.986c0.002 0.002 0.005 0.005 0.007 0.007v3.993h-48c-2.2 0-4 1.8-4 4v0zM68 59.993c-0.002 0.002-0.005 0.005-0.007 0.007h-55.986c-0.002-0.002-0.005-0.005-0.007-0.007v-47.986c0.002-0.002 0.005-0.005 0.007-0.007h55.986c0.002 0.002 0.005 0.005 0.007 0.007v47.986z" fill="#000000"></path>
<path d="M60 22c0 3.314-2.686 6-6 6s-6-2.686-6-6 2.686-6 6-6 6 2.686 6 6z" fill="#000000"></path>
<path d="M64 56h-48v-8l14-24 16 20h4l14-12z" fill="#000000"></path>
</svg>
