<?xml version="1.0" encoding="utf-8"?>
<!-- Generated by IcoMoon.io -->
<!DOCTYPE svg PUBLIC "-//W3C//DTD SVG 1.1//EN" "http://www.w3.org/Graphics/SVG/1.1/DTD/svg11.dtd">
<svg version="1.1" xmlns="http://www.w3.org/2000/svg" xmlns:xlink="http://www.w3.org/1999/xlink" width="64" height="64" viewBox="0 0 64 64">
<path d="M18 36h-4v28h4c1.1 0 2-0.9 2-2v-24c0-1.1-0.9-2-2-2z" fill="#000000"></path>
<path d="M46 36c-1.1 0-2 0.9-2 2v24c0 1.1 0.9 2 2 2h4v-28h-4z" fill="#000000"></path>
<path d="M64 32c0-17.673-14.327-32-32-32s-32 14.327-32 32c0 3.838 0.677 7.518 1.916 10.928-1.217 2.075-1.916 4.492-1.916 7.072 0 7.053 5.215 12.887 12 13.857v-27.714c-1.995 0.285-3.854 0.99-5.485 2.024-0.337-1.67-0.515-3.398-0.515-5.167 0-14.359 11.641-26 26-26s26 11.641 26 26c0 1.77-0.177 3.498-0.514 5.169-1.631-1.034-3.491-1.74-5.486-2.026v27.715c6.784-0.971 12-6.805 12-13.857 0-2.58-0.699-4.996-1.916-7.071 1.239-3.41 1.916-7.091 1.916-10.929z" fill="#000000"></path>
</svg>
