<?xml version="1.0" encoding="utf-8"?>
<!-- Generated by IcoMoon.io -->
<!DOCTYPE svg PUBLIC "-//W3C//DTD SVG 1.1//EN" "http://www.w3.org/Graphics/SVG/1.1/DTD/svg11.dtd">
<svg version="1.1" xmlns="http://www.w3.org/2000/svg" xmlns:xlink="http://www.w3.org/1999/xlink" width="64" height="64" viewBox="0 0 64 64">
<path d="M54 12h-32c-5.5 0-10 4.5-10 10v32c0 5.5 4.5 10 10 10h32c5.5 0 10-4.5 10-10v-32c0-5.5-4.5-10-10-10zM26 56c-3.314 0-6-2.686-6-6s2.686-6 6-6 6 2.686 6 6-2.686 6-6 6zM26 32c-3.314 0-6-2.686-6-6s2.686-6 6-6 6 2.686 6 6-2.686 6-6 6zM38 44c-3.314 0-6-2.686-6-6s2.686-6 6-6 6 2.686 6 6-2.686 6-6 6zM50 56c-3.314 0-6-2.686-6-6s2.686-6 6-6 6 2.686 6 6-2.686 6-6 6zM50 32c-3.314 0-6-2.686-6-6s2.686-6 6-6 6 2.686 6 6-2.686 6-6 6zM51.797 8c-0.933-4.55-4.982-8-9.797-8h-32c-5.5 0-10 4.5-10 10v32c0 4.815 3.45 8.864 8 9.797v-39.797c0-2.2 1.8-4 4-4h39.797z" fill="#000000"></path>
</svg>
