<?xml version="1.0" encoding="utf-8"?>
<!-- Generated by IcoMoon.io -->
<!DOCTYPE svg PUBLIC "-//W3C//DTD SVG 1.1//EN" "http://www.w3.org/Graphics/SVG/1.1/DTD/svg11.dtd">
<svg version="1.1" xmlns="http://www.w3.org/2000/svg" xmlns:xlink="http://www.w3.org/1999/xlink" width="64" height="64" viewBox="0 0 64 64">
<path d="M64 26.828c0-12.558-3.675-22.746-8.218-22.827 0.018-0 0.036-0.002 0.054-0.002h-5.184c0 0-12.175 9.146-29.702 12.735-0.535 2.831-0.877 6.205-0.877 10.094s0.342 7.263 0.877 10.094c17.527 3.589 29.702 12.735 29.702 12.735h5.184c-0.018 0-0.036-0.002-0.054-0.002 4.544-0.081 8.218-10.269 8.218-22.826zM54.051 46.203c-0.586 0-1.221-0.609-1.547-0.972-0.789-0.879-1.55-2.248-2.199-3.958-1.453-3.827-2.254-8.957-2.254-14.445s0.801-10.618 2.254-14.445c0.65-1.71 1.41-3.079 2.199-3.958 0.326-0.363 0.96-0.972 1.547-0.972s1.221 0.609 1.547 0.972c0.79 0.879 1.55 2.247 2.199 3.958 1.454 3.827 2.254 8.957 2.254 14.445s-0.801 10.618-2.254 14.445c-0.649 1.711-1.41 3.079-2.199 3.958-0.325 0.363-0.96 0.972-1.547 0.972zM15.738 26.828c0-3.247 0.238-6.402 0.691-9.318-2.961 0.41-5.559 0.645-8.771 0.645-4.191 0-4.191 0-4.191 0l-3.467 5.918v5.511l3.466 5.918c0 0 0 0 4.191 0 3.212 0 5.811 0.236 8.771 0.645-0.452-2.916-0.691-6.072-0.691-9.319zM23.009 40.136l-8-1.532 5.115 20.096c0.265 1.040 1.296 1.565 2.293 1.166l7.41-2.966c0.997-0.398 1.395-1.498 0.887-2.443l-7.705-14.322zM54.051 34.296c-0.226 0-0.471-0.235-0.596-0.374-0.304-0.339-0.597-0.866-0.848-1.526-0.56-1.475-0.869-3.452-0.869-5.567s0.309-4.092 0.869-5.567c0.25-0.659 0.544-1.187 0.848-1.526 0.126-0.14 0.37-0.375 0.596-0.375s0.471 0.235 0.596 0.375c0.304 0.339 0.597 0.866 0.847 1.526 0.56 1.475 0.869 3.452 0.869 5.567s-0.309 4.092-0.869 5.567c-0.25 0.659-0.544 1.187-0.847 1.526-0.126 0.14-0.37 0.374-0.596 0.374z" fill="#000000"></path>
</svg>
