<?xml version="1.0" encoding="utf-8"?>
<!-- Generated by IcoMoon.io -->
<!DOCTYPE svg PUBLIC "-//W3C//DTD SVG 1.1//EN" "http://www.w3.org/Graphics/SVG/1.1/DTD/svg11.dtd">
<svg version="1.1" xmlns="http://www.w3.org/2000/svg" xmlns:xlink="http://www.w3.org/1999/xlink" width="80" height="64" viewBox="0 0 80 64">
<path d="M40 36c6.617 0 12.617 2.692 16.963 7.037l-5.654 5.654c-2.897-2.897-6.897-4.692-11.308-4.692s-8.411 1.794-11.308 4.692l-5.654-5.654c4.346-4.346 10.346-7.037 16.963-7.037zM11.716 31.716c7.555-7.555 17.6-11.716 28.284-11.716s20.729 4.161 28.284 11.716l-5.657 5.657c-6.044-6.044-14.080-9.373-22.627-9.373s-16.583 3.328-22.627 9.373l-5.657-5.657zM61.799 8.402c6.669 2.821 12.657 6.858 17.799 12v0l-5.657 5.657c-9.066-9.066-21.12-14.059-33.941-14.059s-24.875 4.993-33.941 14.059l-5.657-5.657c5.142-5.142 11.13-9.179 17.799-12 6.907-2.921 14.241-4.402 21.799-4.402s14.892 1.481 21.799 4.402zM36 56c0-2.209 1.791-4 4-4s4 1.791 4 4c0 2.209-1.791 4-4 4s-4-1.791-4-4z" fill="#000000"></path>
</svg>
