<?xml version="1.0" encoding="utf-8"?>
<!-- Generated by IcoMoon.io -->
<!DOCTYPE svg PUBLIC "-//W3C//DTD SVG 1.1//EN" "http://www.w3.org/Graphics/SVG/1.1/DTD/svg11.dtd">
<svg version="1.1" xmlns="http://www.w3.org/2000/svg" xmlns:xlink="http://www.w3.org/1999/xlink" width="64" height="64" viewBox="0 0 64 64">
<path d="M64 32c0-17.673-14.327-32-32-32s-32 14.327-32 32c0 13.753 8.677 25.479 20.855 30.004l-0.855 1.996h24l-0.855-1.996c12.178-4.525 20.855-16.251 20.855-30.004zM30.424 39.677c-1.425-0.612-2.424-2.027-2.424-3.677 0-2.209 1.791-4 4-4s4 1.791 4 4c0 1.649-0.999 3.065-2.424 3.677l-1.576-3.677-1.576 3.677zM33.642 39.831c3.631-0.757 6.358-3.975 6.358-7.831 0-4.418-3.582-8-8-8s-8 3.582-8 8c0 3.856 2.729 7.070 6.36 7.827l-4.664 10.883c-5.702-2.447-9.696-8.111-9.696-14.709 0-8.837 7.164-16.75 16-16.75s16 7.913 16 16.75c0 6.598-3.994 12.262-9.696 14.709l-4.662-10.879zM43.028 61.732l-4.62-10.78c7.903-2.671 13.592-10.147 13.592-18.951 0-11.046-8.954-20-20-20s-20 8.954-20 20c0 8.805 5.689 16.28 13.592 18.951l-4.62 10.78c-9.975-4.28-16.962-14.19-16.962-25.732 0-15.458 12.531-28.74 27.99-28.74s27.99 13.281 27.99 28.74c0 11.542-6.987 21.451-16.962 25.732z" fill="#000000"></path>
</svg>
