<?xml version="1.0" encoding="utf-8"?>
<!-- Generated by IcoMoon.io -->
<!DOCTYPE svg PUBLIC "-//W3C//DTD SVG 1.1//EN" "http://www.w3.org/Graphics/SVG/1.1/DTD/svg11.dtd">
<svg version="1.1" xmlns="http://www.w3.org/2000/svg" xmlns:xlink="http://www.w3.org/1999/xlink" width="64" height="64" viewBox="0 0 64 64">
<path d="M24 32c0-4.418 3.582-8 8-8s8 3.582 8 8c0 4.418-3.582 8-8 8s-8-3.582-8-8zM41.522 14.408c6.241 3.385 10.478 9.994 10.478 17.592s-4.237 14.207-10.478 17.592c2.754-4.383 4.478-10.642 4.478-17.592s-1.724-13.209-4.478-17.592zM18 32c0 6.95 1.724 13.209 4.478 17.592-6.241-3.385-10.478-9.994-10.478-17.592s4.238-14.207 10.478-17.592c-2.754 4.383-4.478 10.642-4.478 17.592zM6 32c0 10.744 3.4 20.386 8.791 26.983-8.894-5.684-14.791-15.645-14.791-26.983s5.897-21.298 14.791-26.983c-5.39 6.596-8.791 16.239-8.791 26.983zM49.209 5.018c8.894 5.684 14.791 15.644 14.791 26.983s-5.897 21.298-14.791 26.983c5.39-6.596 8.791-16.239 8.791-26.983s-3.4-20.387-8.791-26.983z" fill="#000000"></path>
</svg>
