<?xml version="1.0" encoding="utf-8"?>
<!-- Generated by IcoMoon.io -->
<!DOCTYPE svg PUBLIC "-//W3C//DTD SVG 1.1//EN" "http://www.w3.org/Graphics/SVG/1.1/DTD/svg11.dtd">
<svg version="1.1" xmlns="http://www.w3.org/2000/svg" xmlns:xlink="http://www.w3.org/1999/xlink" width="64" height="64" viewBox="0 0 64 64">
<path d="M56 8v52h-42c-3.314 0-6-2.686-6-6s2.686-6 6-6h38v-48h-40c-4.4 0-8 3.6-8 8v48c0 4.4 3.6 8 8 8h48v-56h-4z" fill="#000000"></path>
<path d="M14.004 52v0c-0.001 0-0.002 0-0.004 0-1.104 0-2 0.895-2 2s0.896 2 2 2c0.001 0 0.002-0 0.004-0v0h37.993v-4h-37.993z" fill="#000000"></path>
</svg>
