<?xml version="1.0" encoding="utf-8"?>
<!-- Generated by IcoMoon.io -->
<!DOCTYPE svg PUBLIC "-//W3C//DTD SVG 1.1//EN" "http://www.w3.org/Graphics/SVG/1.1/DTD/svg11.dtd">
<svg version="1.1" xmlns="http://www.w3.org/2000/svg" xmlns:xlink="http://www.w3.org/1999/xlink" width="72" height="64" viewBox="0 0 72 64">
<path d="M14 8h-12c-1.1 0-2 0.9-2 2v44c0 1.1 0.9 2 2 2h12c1.1 0 2-0.9 2-2v-44c0-1.1-0.9-2-2-2zM12 20h-8v-4h8v4z" fill="#000000"></path>
<path d="M34 8h-12c-1.1 0-2 0.9-2 2v44c0 1.1 0.9 2 2 2h12c1.1 0 2-0.9 2-2v-44c0-1.1-0.9-2-2-2zM32 20h-8v-4h8v4z" fill="#000000"></path>
<path d="M47.818 11.092l-10.716 5.4c-0.982 0.495-1.381 1.704-0.886 2.686l17.999 35.722c0.495 0.982 1.704 1.381 2.686 0.886l10.717-5.4c0.982-0.495 1.381-1.704 0.886-2.686l-17.999-35.722c-0.495-0.982-1.704-1.381-2.686-0.886z" fill="#000000"></path>
<path d="M58 54c0 1.105-0.895 2-2 2s-2-0.895-2-2c0-1.105 0.895-2 2-2s2 0.895 2 2z" fill="#000000"></path>
</svg>
