<?xml version="1.0" encoding="utf-8"?>
<!-- Generated by IcoMoon.io -->
<!DOCTYPE svg PUBLIC "-//W3C//DTD SVG 1.1//EN" "http://www.w3.org/Graphics/SVG/1.1/DTD/svg11.dtd">
<svg version="1.1" xmlns="http://www.w3.org/2000/svg" xmlns:xlink="http://www.w3.org/1999/xlink" width="64" height="64" viewBox="0 0 64 64">
<path d="M54 0h-48c-3.3 0-6 2.7-6 6v52c0 3.3 2.7 6 6 6h48c3.3 0 6-2.7 6-6v-52c0-3.3-2.7-6-6-6zM52 56h-44v-48h44v48zM16 36h28v4h-28zM16 44h28v4h-28zM20 18c0-3.314 2.686-6 6-6s6 2.686 6 6c0 3.314-2.686 6-6 6s-6-2.686-6-6zM30 24h-8c-3.3 0-6 1.8-6 4v4h20v-4c0-2.2-2.7-4-6-4z" fill="#000000"></path>
</svg>
