<?xml version="1.0" encoding="utf-8"?>
<!-- Generated by IcoMoon.io -->
<!DOCTYPE svg PUBLIC "-//W3C//DTD SVG 1.1//EN" "http://www.w3.org/Graphics/SVG/1.1/DTD/svg11.dtd">
<svg version="1.1" xmlns="http://www.w3.org/2000/svg" xmlns:xlink="http://www.w3.org/1999/xlink" width="64" height="64" viewBox="0 0 64 64">
<path d="M57.363 22.317c-1.388-1.893-3.323-4.106-5.449-6.232s-4.338-4.060-6.231-5.449c-3.223-2.364-4.787-2.637-5.683-2.637h-23c-2.757 0-5 2.243-5 5v46c0 2.757 2.243 5 5 5h38c2.757 0 5-2.243 5-5v-31c0-0.896-0.273-2.459-2.637-5.683zM49.086 18.914c1.919 1.919 3.425 3.65 4.536 5.086h-9.622v-9.622c1.436 1.111 3.167 2.617 5.086 4.536v0zM56 59c0 0.542-0.458 1-1 1h-38c-0.542 0-1-0.458-1-1v-46c0-0.542 0.458-1 1-1 0 0 22.997-0 23 0v14c0 1.105 0.895 2 2 2h14v31z" fill="#000000"></path>
<path d="M37.683 2.637c-3.223-2.364-4.787-2.637-5.683-2.637h-23c-2.757 0-5 2.243-5 5v46c0 2.414 1.72 4.435 4 4.899v-50.899c0-0.542 0.458-1 1-1h30.43c-0.603-0.495-1.189-0.954-1.747-1.363z" fill="#000000"></path>
</svg>
