<?xml version="1.0" encoding="utf-8"?>
<!-- Generated by IcoMoon.io -->
<!DOCTYPE svg PUBLIC "-//W3C//DTD SVG 1.1//EN" "http://www.w3.org/Graphics/SVG/1.1/DTD/svg11.dtd">
<svg version="1.1" xmlns="http://www.w3.org/2000/svg" xmlns:xlink="http://www.w3.org/1999/xlink" width="64" height="64" viewBox="0 0 64 64">
<path d="M57.363 14.317c-1.388-1.893-3.323-4.106-5.449-6.231s-4.338-4.060-6.231-5.449c-3.223-2.364-4.787-2.637-5.683-2.637h-31c-2.757 0-5 2.243-5 5v54c0 2.757 2.243 5 5 5h46c2.757 0 5-2.243 5-5v-39c0-0.896-0.273-2.459-2.637-5.683v0zM49.086 10.914c1.919 1.919 3.425 3.65 4.536 5.086h-9.622v-9.622c1.436 1.111 3.167 2.617 5.086 4.536v0zM56 59c0 0.542-0.458 1-1 1h-46c-0.542 0-1-0.458-1-1v-54c0-0.542 0.458-1 1-1 0 0 30.997-0 31 0v14c0 1.105 0.895 2 2 2h14v39z" fill="#000000"></path>
<path d="M47.268 24.453c-0.463-0.38-1.073-0.532-1.66-0.415l-20 4c-0.935 0.187-1.608 1.008-1.608 1.961v14.805c-1.177-0.511-2.542-0.805-4-0.805-4.418 0-8 2.686-8 6s3.582 6 8 6 8-2.686 8-6v-14.36l16-3.2v8.365c-1.177-0.511-2.542-0.805-4-0.805-4.418 0-8 2.686-8 6s3.582 6 8 6 8-2.686 8-6v-20c0-0.599-0.269-1.167-0.732-1.547z" fill="#000000"></path>
</svg>
