<?xml version="1.0" encoding="utf-8"?>
<!-- Generated by IcoMoon.io -->
<!DOCTYPE svg PUBLIC "-//W3C//DTD SVG 1.1//EN" "http://www.w3.org/Graphics/SVG/1.1/DTD/svg11.dtd">
<svg version="1.1" xmlns="http://www.w3.org/2000/svg" xmlns:xlink="http://www.w3.org/1999/xlink" width="64" height="64" viewBox="0 0 64 64">
<path d="M57.363 14.317c-1.388-1.893-3.323-4.106-5.449-6.231s-4.338-4.060-6.231-5.449c-3.223-2.364-4.787-2.637-5.683-2.637h-31c-2.757 0-5 2.243-5 5v54c0 2.757 2.243 5 5 5h46c2.757 0 5-2.243 5-5v-39c0-0.896-0.273-2.459-2.637-5.683v0 0zM49.086 10.914c1.919 1.919 3.425 3.65 4.536 5.086h-9.622v-9.622c1.436 1.111 3.167 2.617 5.086 4.536v0 0zM56 59c0 0.542-0.458 1-1 1h-46c-0.542 0-1-0.458-1-1v-54c0-0.542 0.458-1 1-1 0 0 30.997-0 31 0v14c0 1.105 0.895 2 2 2h14v39z" fill="#000000"></path>
<path d="M16 4h8v4h-8v-4z" fill="#000000"></path>
<path d="M24 8h8v4h-8v-4z" fill="#000000"></path>
<path d="M16 12h8v4h-8v-4z" fill="#000000"></path>
<path d="M24 16h8v4h-8v-4z" fill="#000000"></path>
<path d="M16 20h8v4h-8v-4z" fill="#000000"></path>
<path d="M24 24h8v4h-8v-4z" fill="#000000"></path>
<path d="M16 28h8v4h-8v-4z" fill="#000000"></path>
<path d="M24 32h8v4h-8v-4z" fill="#000000"></path>
<path d="M16 53c0 1.65 1.35 3 3 3h10c1.65 0 3-1.35 3-3v-10c0-1.65-1.35-3-3-3h-5v-4h-8v17zM28 48v4h-8v-4h8z" fill="#000000"></path>
</svg>
