<?xml version="1.0" encoding="utf-8"?>
<!-- Generated by IcoMoon.io -->
<!DOCTYPE svg PUBLIC "-//W3C//DTD SVG 1.1//EN" "http://www.w3.org/Graphics/SVG/1.1/DTD/svg11.dtd">
<svg version="1.1" xmlns="http://www.w3.org/2000/svg" xmlns:xlink="http://www.w3.org/1999/xlink" width="64" height="64" viewBox="0 0 64 64">
<path d="M44 8h-8v-4c0-2.2-1.8-4-4-4h-8c-2.2 0-4 1.8-4 4v4h-8v8h32v-8zM32 8h-8v-3.993c0.002-0.002 0.005-0.005 0.007-0.007h7.985c0.003 0.002 0.005 0.005 0.007 0.007v3.993zM52 20v-10c0-1.1-0.9-2-2-2h-4v4h2v8h-12l-12 12v16h-16v-36h2v-4h-4c-1.1 0-2 0.9-2 2v40c0 1.1 0.9 2 2 2h18v12h40v-44h-12zM36 25.657v6.343h-6.343l6.343-6.343zM60 60h-32v-24h12v-12h20v36z" fill="#000000"></path>
</svg>
