<?xml version="1.0" encoding="utf-8"?>
<!-- Generated by IcoMoon.io -->
<!DOCTYPE svg PUBLIC "-//W3C//DTD SVG 1.1//EN" "http://www.w3.org/Graphics/SVG/1.1/DTD/svg11.dtd">
<svg version="1.1" xmlns="http://www.w3.org/2000/svg" xmlns:xlink="http://www.w3.org/1999/xlink" width="64" height="64" viewBox="0 0 64 64">
<path d="M61 0h-24c-1.65 0-3.955 0.955-5.121 2.121l-29.757 29.757c-1.167 1.167-1.167 3.076 0 4.243l25.757 25.757c1.167 1.167 3.076 1.167 4.243 0l29.757-29.757c1.167-1.167 2.121-3.471 2.121-5.121v-24c0-1.65-1.35-3-3-3zM46 24c-3.314 0-6-2.686-6-6s2.686-6 6-6 6 2.686 6 6-2.686 6-6 6z" fill="#000000"></path>
</svg>
