<?xml version="1.0" encoding="utf-8"?>
<!-- Generated by IcoMoon.io -->
<!DOCTYPE svg PUBLIC "-//W3C//DTD SVG 1.1//EN" "http://www.w3.org/Graphics/SVG/1.1/DTD/svg11.dtd">
<svg version="1.1" xmlns="http://www.w3.org/2000/svg" xmlns:xlink="http://www.w3.org/1999/xlink" width="64" height="64" viewBox="0 0 64 64">
<path d="M0 8h8v40h-8zM12 8h4v40h-4zM20 8h4v40h-4zM32 8h4v40h-4zM48 8h4v40h-4zM60 8h4v40h-4zM40 8h2v40h-2zM28 8h2v40h-2zM54 8h2v40h-2zM0 52h4v4h-4zM12 52h4v4h-4zM20 52h4v4h-4zM40 52h4v4h-4zM60 52h4v4h-4zM48 52h8v4h-8zM28 52h8v4h-8z" fill="#000000"></path>
</svg>
