<?xml version="1.0" encoding="utf-8"?>
<!-- Generated by IcoMoon.io -->
<!DOCTYPE svg PUBLIC "-//W3C//DTD SVG 1.1//EN" "http://www.w3.org/Graphics/SVG/1.1/DTD/svg11.dtd">
<svg version="1.1" xmlns="http://www.w3.org/2000/svg" xmlns:xlink="http://www.w3.org/1999/xlink" width="64" height="64" viewBox="0 0 64 64">
<path d="M20 4h-16v16h16v-16zM24 0v0 24h-24v-24h24zM8 8h8v8h-8zM60 4h-16v16h16v-16zM64 0v0 24h-24v-24h24zM48 8h8v8h-8zM20 44h-16v16h16v-16zM24 40v0 24h-24v-24h24zM8 48h8v8h-8zM28 0h4v4h-4zM32 4h4v4h-4zM28 8h4v4h-4zM32 12h4v4h-4zM28 16h4v4h-4zM32 20h4v4h-4zM28 24h4v4h-4zM28 32h4v4h-4zM32 36h4v4h-4zM28 40h4v4h-4zM32 44h4v4h-4zM28 48h4v4h-4zM32 52h4v4h-4zM28 56h4v4h-4zM32 60h4v4h-4zM60 32h4v4h-4zM4 32h4v4h-4zM8 28h4v4h-4zM0 28h4v4h-4zM16 28h4v4h-4zM20 32h4v4h-4zM24 28h4v4h-4zM36 32h4v4h-4zM40 28h4v4h-4zM44 32h4v4h-4zM48 28h4v4h-4zM52 32h4v4h-4zM56 28h4v4h-4zM60 40h4v4h-4zM36 40h4v4h-4zM40 36h4v4h-4zM44 40h4v4h-4zM52 40h4v4h-4zM56 36h4v4h-4zM60 48h4v4h-4zM36 48h4v4h-4zM40 44h4v4h-4zM48 44h4v4h-4zM52 48h4v4h-4zM56 44h4v4h-4zM60 56h4v4h-4zM40 52h4v4h-4zM44 56h4v4h-4zM48 52h4v4h-4zM52 56h4v4h-4zM40 60h4v4h-4zM48 60h4v4h-4zM56 60h4v4h-4z" fill="#000000"></path>
</svg>
