<?xml version="1.0" encoding="utf-8"?>
<!-- Generated by IcoMoon.io -->
<!DOCTYPE svg PUBLIC "-//W3C//DTD SVG 1.1//EN" "http://www.w3.org/Graphics/SVG/1.1/DTD/svg11.dtd">
<svg version="1.1" xmlns="http://www.w3.org/2000/svg" xmlns:xlink="http://www.w3.org/1999/xlink" width="64" height="64" viewBox="0 0 64 64">
<path d="M36 20l8 8-16 16-8-8zM62.595 18.594l-4.595-4.595-2.001 2.001c-1.024 1.024-2.438 1.657-4 1.657-3.124 0-5.657-2.533-5.657-5.657 0-1.563 0.634-2.977 1.658-4.001l1.999-1.999-4.595-4.595c-1.873-1.873-4.938-1.873-6.811 0l-37.19 37.19c-1.873 1.873-1.873 4.938 0 6.811l4.595 4.595 1.998-1.998c1.024-1.025 2.439-1.66 4.003-1.66 3.124 0 5.657 2.533 5.657 5.657 0 1.563-0.634 2.977-1.658 4.001l-1.999 1.999 4.595 4.595c1.873 1.873 4.938 1.873 6.811 0l37.19-37.19c1.873-1.873 1.873-4.939 0-6.811zM28 52l-16-16 24-24 16 16-24 24z" fill="#000000"></path>
</svg>
