<?xml version="1.0" encoding="utf-8"?>
<!-- Generated by IcoMoon.io -->
<!DOCTYPE svg PUBLIC "-//W3C//DTD SVG 1.1//EN" "http://www.w3.org/Graphics/SVG/1.1/DTD/svg11.dtd">
<svg version="1.1" xmlns="http://www.w3.org/2000/svg" xmlns:xlink="http://www.w3.org/1999/xlink" width="64" height="64" viewBox="0 0 64 64">
<path d="M30 4c-16.569 0-30 13.431-30 30s13.431 30 30 30c16.569 0 30-13.431 30-30s-13.431-30-30-30zM30 58c-13.255 0-24-10.745-24-24s10.745-24 24-24c13.255 0 24 10.745 24 24s-10.745 24-24 24zM32 32v-8h8v-4h-8v-4h-4v4h-8v16h8v8h-8v4h8v4h4v-4h8l-0-16h-8zM28 32h-4v-8h4v8zM36 44h-4v-8h4v8z" fill="#000000"></path>
</svg>
