<?xml version="1.0" encoding="utf-8"?>
<!-- Generated by IcoMoon.io -->
<!DOCTYPE svg PUBLIC "-//W3C//DTD SVG 1.1//EN" "http://www.w3.org/Graphics/SVG/1.1/DTD/svg11.dtd">
<svg version="1.1" xmlns="http://www.w3.org/2000/svg" xmlns:xlink="http://www.w3.org/1999/xlink" width="64" height="64" viewBox="0 0 64 64">
<path d="M30 4c-16.569 0-30 13.431-30 30s13.431 30 30 30c16.569 0 30-13.431 30-30s-13.431-30-30-30zM30 58c-13.255 0-24-10.745-24-24s10.745-24 24-24c13.255 0 24 10.745 24 24s-10.745 24-24 24z" fill="#000000"></path>
<path d="M41.926 40.271c-0.954-0.555-2.179-0.232-2.734 0.723-1.078 1.854-3.068 3.006-5.192 3.006h-8c-2.607 0-4.83-1.672-5.656-4h9.656c1.105 0 2-0.895 2-2s-0.895-2-2-2h-10v-4h10c1.105 0 2-0.895 2-2s-0.895-2-2-2h-9.656c0.826-2.328 3.049-4 5.656-4h8c2.124 0 4.114 1.152 5.192 3.006 0.556 0.955 1.78 1.279 2.734 0.723s1.279-1.78 0.723-2.735c-1.792-3.081-5.106-4.994-8.65-4.994h-8c-4.829 0-8.87 3.441-9.799 8h-2.201c-1.104 0-2 0.895-2 2s0.896 2 2 2h2v4h-2c-1.104 0-2 0.895-2 2s0.896 2 2 2h2.201c0.929 4.559 4.97 8 9.799 8h8c3.543 0 6.858-1.914 8.65-4.994 0.556-0.955 0.232-2.179-0.723-2.734z" fill="#000000"></path>
</svg>
