<?xml version="1.0" encoding="utf-8"?>
<!-- Generated by IcoMoon.io -->
<!DOCTYPE svg PUBLIC "-//W3C//DTD SVG 1.1//EN" "http://www.w3.org/Graphics/SVG/1.1/DTD/svg11.dtd">
<svg version="1.1" xmlns="http://www.w3.org/2000/svg" xmlns:xlink="http://www.w3.org/1999/xlink" width="64" height="64" viewBox="0 0 64 64">
<path d="M30 4c-16.569 0-30 13.431-30 30s13.431 30 30 30c16.569 0 30-13.431 30-30s-13.431-30-30-30zM30 58c-13.255 0-24-10.745-24-24s10.745-24 24-24c13.255 0 24 10.745 24 24s-10.745 24-24 24z" fill="#000000"></path>
<path d="M38 44h-14v-8h6c1.105 0 2-0.895 2-2s-0.895-2-2-2h-6v-2c0-3.308 2.692-6 6-6 2.136 0 4.128 1.15 5.199 3.002 0.553 0.956 1.777 1.283 2.733 0.73s1.283-1.776 0.73-2.733c-1.784-3.084-5.102-4.999-8.661-4.999-5.514 0-10 4.486-10 10v2h-2c-1.105 0-2 0.895-2 2s0.895 2 2 2h2v12h18c1.105 0 2-0.895 2-2s-0.895-2-2-2z" fill="#000000"></path>
</svg>
