<?xml version="1.0" encoding="utf-8"?>
<!-- Generated by IcoMoon.io -->
<!DOCTYPE svg PUBLIC "-//W3C//DTD SVG 1.1//EN" "http://www.w3.org/Graphics/SVG/1.1/DTD/svg11.dtd">
<svg version="1.1" xmlns="http://www.w3.org/2000/svg" xmlns:xlink="http://www.w3.org/1999/xlink" width="64" height="64" viewBox="0 0 64 64">
<path d="M30 4c-16.569 0-30 13.431-30 30s13.431 30 30 30c16.569 0 30-13.431 30-30s-13.431-30-30-30zM30 58c-13.255 0-24-10.745-24-24s10.745-24 24-24c13.255 0 24 10.745 24 24s-10.745 24-24 24z" fill="#000000"></path>
<path d="M38 36c1.105 0 2-0.895 2-2s-0.895-2-2-2h-4.263l5.927-8.891c0.613-0.919 0.364-2.161-0.555-2.773s-2.161-0.364-2.773 0.555l-6.336 9.504-6.336-9.504c-0.613-0.919-1.855-1.168-2.773-0.555s-1.167 1.855-0.555 2.773l5.927 8.891h-4.263c-1.105 0-2 0.895-2 2s0.895 2 2 2h6v4h-6c-1.105 0-2 0.895-2 2s0.895 2 2 2h6v6c0 1.105 0.895 2 2 2s2-0.895 2-2v-6h6c1.105 0 2-0.895 2-2s-0.895-2-2-2h-6v-4h6z" fill="#000000"></path>
</svg>
