<?xml version="1.0" encoding="utf-8"?>
<!-- Generated by IcoMoon.io -->
<!DOCTYPE svg PUBLIC "-//W3C//DTD SVG 1.1//EN" "http://www.w3.org/Graphics/SVG/1.1/DTD/svg11.dtd">
<svg version="1.1" xmlns="http://www.w3.org/2000/svg" xmlns:xlink="http://www.w3.org/1999/xlink" width="64" height="64" viewBox="0 0 64 64">
<path d="M58 8h-52c-3.3 0-6 2.7-6 6v36c0 3.3 2.7 6 6 6h52c3.3 0 6-2.7 6-6v-36c0-3.3-2.7-6-6-6zM6 12h52c1.084 0 2 0.916 2 2v6h-56v-6c0-1.084 0.916-2 2-2zM58 52h-52c-1.084 0-2-0.916-2-2v-18h56v18c0 1.084-0.916 2-2 2zM8 40h4v8h-4zM16 40h4v8h-4zM24 40h4v8h-4z" fill="#000000"></path>
</svg>
