<?xml version="1.0" encoding="utf-8"?>
<!-- Generated by IcoMoon.io -->
<!DOCTYPE svg PUBLIC "-//W3C//DTD SVG 1.1//EN" "http://www.w3.org/Graphics/SVG/1.1/DTD/svg11.dtd">
<svg version="1.1" xmlns="http://www.w3.org/2000/svg" xmlns:xlink="http://www.w3.org/1999/xlink" width="64" height="64" viewBox="0 0 64 64">
<path d="M24 4h-20c-2.2 0-4 1.8-4 4v20c0 2.2 1.8 4 4 4h20c2.2 0 4-1.8 4-4v-20c0-2.2-1.8-4-4-4zM24 20h-20v-4h20v4zM56 4h-20c-2.2 0-4 1.8-4 4v52c0 2.2 1.8 4 4 4h20c2.2 0 4-1.8 4-4v-52c0-2.2-1.8-4-4-4zM56 40h-20v-4h20v4zM56 28h-20v-4h20v4zM24 36h-20c-2.2 0-4 1.8-4 4v20c0 2.2 1.8 4 4 4h20c2.2 0 4-1.8 4-4v-20c0-2.2-1.8-4-4-4zM24 52h-8v8h-4v-8h-8v-4h8v-8h4v8h8v4z" fill="#000000"></path>
</svg>
