<?xml version="1.0" encoding="utf-8"?>
<!-- Generated by IcoMoon.io -->
<!DOCTYPE svg PUBLIC "-//W3C//DTD SVG 1.1//EN" "http://www.w3.org/Graphics/SVG/1.1/DTD/svg11.dtd">
<svg version="1.1" xmlns="http://www.w3.org/2000/svg" xmlns:xlink="http://www.w3.org/1999/xlink" width="64" height="64" viewBox="0 0 64 64">
<path d="M32 0c-17.673 0-32 14.327-32 32s14.327 32 32 32 32-14.327 32-32-14.327-32-32-32zM20 32c0-6.628 5.372-12 12-12s12 5.372 12 12-5.373 12-12 12-12-5.373-12-12zM57.874 42.717v0l-11.089-4.593c0.782-1.886 1.215-3.955 1.215-6.124s-0.433-4.238-1.215-6.124l11.089-4.593c1.369 3.301 2.126 6.921 2.126 10.717s-0.757 7.416-2.126 10.717v0zM42.717 6.126v0 0l-4.593 11.089c-1.886-0.782-3.955-1.215-6.124-1.215s-4.238 0.433-6.124 1.215l-4.593-11.089c3.301-1.369 6.921-2.126 10.717-2.126s7.416 0.757 10.717 2.126zM6.126 21.283l11.089 4.593c-0.782 1.887-1.215 3.955-1.215 6.124s0.433 4.238 1.215 6.124l-11.089 4.593c-1.369-3.301-2.126-6.921-2.126-10.717s0.757-7.416 2.126-10.717zM21.283 57.874l4.593-11.089c1.887 0.782 3.955 1.215 6.124 1.215s4.238-0.433 6.124-1.215l4.593 11.089c-3.301 1.369-6.921 2.126-10.717 2.126s-7.416-0.757-10.717-2.126z" fill="#000000"></path>
</svg>
