<?xml version="1.0" encoding="utf-8"?>
<!-- Generated by IcoMoon.io -->
<!DOCTYPE svg PUBLIC "-//W3C//DTD SVG 1.1//EN" "http://www.w3.org/Graphics/SVG/1.1/DTD/svg11.dtd">
<svg version="1.1" xmlns="http://www.w3.org/2000/svg" xmlns:xlink="http://www.w3.org/1999/xlink" width="64" height="64" viewBox="0 0 64 64">
<path d="M63.586 36c0.5 3.468 0.826 8.212-0.729 10.028-2.571 3.003-18.857 3.003-18.857-3.003 0-3.025 2.678-5.008 0.107-8.011-2.529-2.954-7.064-3.002-12.107-3.003-5.043 0.001-9.578 0.049-12.107 3.003-2.571 3.003 0.107 4.986 0.107 8.011 0 6.005-16.286 6.005-18.857 3.003-1.555-1.816-1.229-6.56-0.729-10.028 0.385-2.315 1.358-4.812 4.472-8 0-0 0-0 0-0 4.671-4.359 11.74-7.921 26.864-7.998v-0.002c0.084 0 0.166 0.001 0.25 0.001s0.166-0.001 0.25-0.001v0.002c15.124 0.077 22.193 3.639 26.864 7.998 0 0 0 0 0 0 3.114 3.187 4.087 5.685 4.472 8z" fill="#000000"></path>
</svg>
