<?xml version="1.0" encoding="utf-8"?>
<!-- Generated by IcoMoon.io -->
<!DOCTYPE svg PUBLIC "-//W3C//DTD SVG 1.1//EN" "http://www.w3.org/Graphics/SVG/1.1/DTD/svg11.dtd">
<svg version="1.1" xmlns="http://www.w3.org/2000/svg" xmlns:xlink="http://www.w3.org/1999/xlink" width="64" height="64" viewBox="0 0 64 64">
<path d="M12 0v64h48v-64h-48zM36 16.021c4.407 0 7.979 3.573 7.979 7.979s-3.572 7.979-7.979 7.979-7.979-3.573-7.979-7.979 3.573-7.979 7.979-7.979v0zM48 48h-24v-4c0-4.419 3.582-8 8-8v0h8c4.419 0 8 3.581 8 8v4z" fill="#000000"></path>
<path d="M4 4h6v12h-6v-12z" fill="#000000"></path>
<path d="M4 20h6v12h-6v-12z" fill="#000000"></path>
<path d="M4 36h6v12h-6v-12z" fill="#000000"></path>
<path d="M4 52h6v12h-6v-12z" fill="#000000"></path>
</svg>
