<?xml version="1.0" encoding="utf-8"?>
<!-- Generated by IcoMoon.io -->
<!DOCTYPE svg PUBLIC "-//W3C//DTD SVG 1.1//EN" "http://www.w3.org/Graphics/SVG/1.1/DTD/svg11.dtd">
<svg version="1.1" xmlns="http://www.w3.org/2000/svg" xmlns:xlink="http://www.w3.org/1999/xlink" width="64" height="64" viewBox="0 0 64 64">
<path d="M58 8h-52c-3.3 0-6 2.7-6 6v40c0 3.3 2.7 6 6 6h52c3.3 0 6-2.7 6-6v-40c0-3.3-2.7-6-6-6zM24.921 34.398l-16.921 13.181v-31.353l16.921 18.172zM11.024 16h41.953l-20.976 15.75-20.976-15.75zM25.581 35.106l6.419 6.894 6.419-6.894 13.16 16.894h-39.158l13.16-16.894zM39.079 34.398l16.921-18.172v31.353l-16.921-13.181z" fill="#000000"></path>
</svg>
