<?xml version="1.0" encoding="utf-8"?>
<!-- Generated by IcoMoon.io -->
<!DOCTYPE svg PUBLIC "-//W3C//DTD SVG 1.1//EN" "http://www.w3.org/Graphics/SVG/1.1/DTD/svg11.dtd">
<svg version="1.1" xmlns="http://www.w3.org/2000/svg" xmlns:xlink="http://www.w3.org/1999/xlink" width="64" height="64" viewBox="0 0 64 64">
<path d="M34.001 64c-0.144 0-0.289-0.016-0.434-0.048-0.916-0.203-1.567-1.015-1.567-1.953v-30h-30c-0.938 0-1.75-0.651-1.952-1.567s0.257-1.849 1.107-2.245l60-28c0.762-0.355 1.665-0.197 2.26 0.398s0.754 1.498 0.398 2.26l-28 60c-0.334 0.715-1.048 1.154-1.812 1.154zM11.015 28h22.985c1.105 0 2 0.895 2 2v22.985l21.862-46.847-46.847 21.862z" fill="#000000"></path>
</svg>
