<?xml version="1.0" encoding="utf-8"?>
<!-- Generated by IcoMoon.io -->
<!DOCTYPE svg PUBLIC "-//W3C//DTD SVG 1.1//EN" "http://www.w3.org/Graphics/SVG/1.1/DTD/svg11.dtd">
<svg version="1.1" xmlns="http://www.w3.org/2000/svg" xmlns:xlink="http://www.w3.org/1999/xlink" width="68" height="64" viewBox="0 0 68 64">
<path d="M40 4c15.464 0 28 12.536 28 28s-12.536 28-28 28v-6c5.877 0 11.401-2.288 15.556-6.444s6.444-9.68 6.444-15.556c0-5.876-2.288-11.401-6.444-15.556s-9.68-6.444-15.556-6.444c-5.876 0-11.401 2.288-15.556 6.444-3.196 3.196-5.286 7.203-6.082 11.556h11.638l-14 16-14-16h10.286c1.941-13.569 13.609-24 27.714-24zM52 28v8h-16v-20h8v12z" fill="#000000"></path>
</svg>
