<?xml version="1.0" encoding="utf-8"?>
<!-- Generated by IcoMoon.io -->
<!DOCTYPE svg PUBLIC "-//W3C//DTD SVG 1.1//EN" "http://www.w3.org/Graphics/SVG/1.1/DTD/svg11.dtd">
<svg version="1.1" xmlns="http://www.w3.org/2000/svg" xmlns:xlink="http://www.w3.org/1999/xlink" width="64" height="64" viewBox="0 0 64 64">
<path d="M32 8c-15.464 0-28 12.536-28 28s12.536 28 28 28 28-12.536 28-28-12.536-28-28-28zM32 58.5c-12.427 0-22.5-10.074-22.5-22.5s10.073-22.5 22.5-22.5c12.426 0 22.5 10.073 22.5 22.5s-10.074 22.5-22.5 22.5zM58.424 17.948c1.003-1.753 1.576-3.784 1.576-5.948 0-6.628-5.373-12-12-12-3.864 0-7.3 1.826-9.495 4.662 8.243 1.702 15.325 6.575 19.919 13.286v0zM25.495 4.662c-2.195-2.836-5.631-4.662-9.495-4.662-6.628 0-12 5.372-12 12 0 2.165 0.573 4.195 1.576 5.948 4.594-6.711 11.676-11.584 19.919-13.286z" fill="#000000"></path>
<path d="M32 36v-16h-4v20h16v-4z" fill="#000000"></path>
</svg>
