<?xml version="1.0" encoding="utf-8"?>
<!-- Generated by IcoMoon.io -->
<!DOCTYPE svg PUBLIC "-//W3C//DTD SVG 1.1//EN" "http://www.w3.org/Graphics/SVG/1.1/DTD/svg11.dtd">
<svg version="1.1" xmlns="http://www.w3.org/2000/svg" xmlns:xlink="http://www.w3.org/1999/xlink" width="64" height="64" viewBox="0 0 64 64">
<path d="M64.094 50c0-18-16-14-16-28 0-1.16-0.112-2.151-0.316-2.995-1.052-7.064-5.76-12.732-11.861-14.46 0.054-0.247 0.083-0.502 0.083-0.763 0-2.080-1.8-3.781-4-3.781s-4 1.702-4 3.781c0 0.261 0.029 0.516 0.082 0.763-6.842 1.937-11.932 8.831-12.078 17.090-0.003 0.12-0.004 0.241-0.004 0.365 0 14-16 10-16 28 0 4.764 10.662 8.75 24.936 9.755 1.345 2.525 4.003 4.245 7.064 4.245s5.719-1.72 7.064-4.245c14.274-1.005 24.936-4.991 24.936-9.755 0-0.014-0.002-0.029-0.002-0.043l0.096 0.043zM51.64 53.381c-3.389 0.904-7.385 1.555-11.673 1.916-0.356-4.089-3.786-7.297-7.967-7.297s-7.611 3.208-7.967 7.297c-4.288-0.361-8.284-1.011-11.673-1.916-4.664-1.245-6.894-2.637-7.71-3.381 0.816-0.744 3.046-2.136 7.71-3.381 5.423-1.447 12.398-2.244 19.64-2.244s14.217 0.797 19.64 2.244c4.664 1.245 6.894 2.637 7.71 3.381-0.816 0.744-3.046 2.136-7.71 3.381z" fill="#000000"></path>
</svg>
