<?xml version="1.0" encoding="utf-8"?>
<!-- Generated by IcoMoon.io -->
<!DOCTYPE svg PUBLIC "-//W3C//DTD SVG 1.1//EN" "http://www.w3.org/Graphics/SVG/1.1/DTD/svg11.dtd">
<svg version="1.1" xmlns="http://www.w3.org/2000/svg" xmlns:xlink="http://www.w3.org/1999/xlink" width="64" height="64" viewBox="0 0 64 64">
<path d="M32 12.076v-4.076h8v-4c0-2.209-1.791-4-4-4h-12c-2.209 0-4 1.791-4 4v4h8v4.076c-13.425 1.021-24 12.238-24 25.924 0 14.359 11.641 26 26 26s26-11.641 26-26c0-13.687-10.575-24.903-24-25.924zM44.142 52.142c-3.778 3.777-8.8 5.858-14.142 5.858s-10.365-2.080-14.142-5.858c-3.777-3.777-5.858-8.8-5.858-14.142s2.080-10.365 5.858-14.142c3.628-3.627 8.403-5.689 13.507-5.847l-1.355 19.626c-0.116 1.643 0.779 2.363 1.99 2.363s2.106-0.719 1.99-2.363l-1.355-19.626c5.104 0.158 9.88 2.22 13.507 5.847 3.778 3.777 5.858 8.8 5.858 14.142s-2.080 10.365-5.858 14.142z" fill="#000000"></path>
</svg>
