<?xml version="1.0" encoding="utf-8"?>
<!-- Generated by IcoMoon.io -->
<!DOCTYPE svg PUBLIC "-//W3C//DTD SVG 1.1//EN" "http://www.w3.org/Graphics/SVG/1.1/DTD/svg11.dtd">
<svg version="1.1" xmlns="http://www.w3.org/2000/svg" xmlns:xlink="http://www.w3.org/1999/xlink" width="64" height="64" viewBox="0 0 64 64">
<path d="M20 24h8v8h-8zM32 24h8v8h-8zM44 24h8v8h-8zM8 48h8v8h-8zM20 48h8v8h-8zM32 48h8v8h-8zM20 36h8v8h-8zM32 36h8v8h-8zM44 36h8v8h-8zM8 36h8v8h-8zM52 0v4h-8v-4h-28v4h-8v-4h-8v64h60v-64h-8zM56 60h-52v-44h52v44z" fill="#000000"></path>
</svg>
