<?xml version="1.0" encoding="utf-8"?>
<!-- Generated by IcoMoon.io -->
<!DOCTYPE svg PUBLIC "-//W3C//DTD SVG 1.1//EN" "http://www.w3.org/Graphics/SVG/1.1/DTD/svg11.dtd">
<svg version="1.1" xmlns="http://www.w3.org/2000/svg" xmlns:xlink="http://www.w3.org/1999/xlink" width="64" height="64" viewBox="0 0 64 64">
<path d="M16 4h32v8h-32v-8z" fill="#000000"></path>
<path d="M60 16h-56c-2.2 0-4 1.8-4 4v20c0 2.2 1.8 4 4 4h12v16h32v-16h12c2.2 0 4-1.8 4-4v-20c0-2.2-1.8-4-4-4zM8 28c-2.209 0-4-1.791-4-4s1.791-4 4-4 4 1.791 4 4-1.791 4-4 4zM44 56h-24v-20h24v20z" fill="#000000"></path>
</svg>
