<?xml version="1.0" encoding="utf-8"?>
<!-- Generated by IcoMoon.io -->
<!DOCTYPE svg PUBLIC "-//W3C//DTD SVG 1.1//EN" "http://www.w3.org/Graphics/SVG/1.1/DTD/svg11.dtd">
<svg version="1.1" xmlns="http://www.w3.org/2000/svg" xmlns:xlink="http://www.w3.org/1999/xlink" width="72" height="64" viewBox="0 0 72 64">
<path d="M68 8h-64c-2.2 0-4 1.8-4 4v40c0 2.2 1.8 4 4 4h64c2.2 0 4-1.8 4-4v-40c0-2.2-1.8-4-4-4zM40 16h8v8h-8v-8zM52 28v8h-8v-8h8zM28 16h8v8h-8v-8zM40 28v8h-8v-8h8zM16 16h8v8h-8v-8zM28 28v8h-8v-8h8zM8 16h4v8h-4v-8zM8 28h8v8h-8v-8zM12 48h-4v-8h4v8zM48 48h-32v-8h32v8zM64 48h-12v-8h12v8zM64 36h-8v-8h8v8zM64 24h-12v-8h12v8z" fill="#000000"></path>
</svg>
