<?xml version="1.0" encoding="utf-8"?>
<!-- Generated by IcoMoon.io -->
<!DOCTYPE svg PUBLIC "-//W3C//DTD SVG 1.1//EN" "http://www.w3.org/Graphics/SVG/1.1/DTD/svg11.dtd">
<svg version="1.1" xmlns="http://www.w3.org/2000/svg" xmlns:xlink="http://www.w3.org/1999/xlink" width="64" height="64" viewBox="0 0 64 64">
<path d="M46 0h-28c-3.3 0-6 2.7-6 6v52c0 3.3 2.7 6 6 6h28c3.3 0 6-2.7 6-6v-52c0-3.3-2.7-6-6-6zM24 3h16v2h-16v-2zM32 60c-2.209 0-4-1.791-4-4s1.791-4 4-4 4 1.791 4 4-1.791 4-4 4zM48 48h-32v-40h32v40z" fill="#000000"></path>
</svg>
