<?xml version="1.0" encoding="utf-8"?>
<!-- Generated by IcoMoon.io -->
<!DOCTYPE svg PUBLIC "-//W3C//DTD SVG 1.1//EN" "http://www.w3.org/Graphics/SVG/1.1/DTD/svg11.dtd">
<svg version="1.1" xmlns="http://www.w3.org/2000/svg" xmlns:xlink="http://www.w3.org/1999/xlink" width="16" height="16" viewBox="0 0 16 16">
<path fill="#000000" d="M15.909 4.561l-4.47-4.47c-0.146-0.146-0.338-0.113-0.427 0.073l-0.599 1.248 4.175 4.175 1.248-0.599c0.186-0.089 0.219-0.282 0.073-0.427z"></path>
<path fill="#000000" d="M9.615 2.115l-4.115 0.343c-0.273 0.034-0.501 0.092-0.58 0.449-0 0-0 0.001-0 0.001-1.116 5.36-4.92 10.591-4.92 10.591l0.896 0.896 4.25-4.25c-0.094-0.196-0.146-0.415-0.146-0.647 0-0.828 0.672-1.5 1.5-1.5s1.5 0.672 1.5 1.5-0.672 1.5-1.5 1.5c-0.232 0-0.451-0.053-0.647-0.146l-4.25 4.25 0.896 0.896c0 0 5.231-3.804 10.591-4.92 0-0 0.001-0 0.001-0 0.357-0.078 0.415-0.306 0.449-0.58l0.343-4.115-4.269-4.269z"></path>
</svg>
