<?xml version="1.0" encoding="utf-8"?>
<!-- Generated by IcoMoon.io -->
<!DOCTYPE svg PUBLIC "-//W3C//DTD SVG 1.1//EN" "http://www.w3.org/Graphics/SVG/1.1/DTD/svg11.dtd">
<svg version="1.1" xmlns="http://www.w3.org/2000/svg" xmlns:xlink="http://www.w3.org/1999/xlink" width="64" height="64" viewBox="0 0 64 64">
<path d="M61.324 18.007c-5.55-0.798-11.461-1.376-17.63-1.701l10.306-10.306-4-4-14.035 14.035c-1.313-0.023-2.635-0.035-3.965-0.035v0l-16-16-4 4 12.137 12.137c-7.558 0.265-14.771 0.908-21.462 1.869-1.721 6.733-2.676 14.172-2.676 21.993s0.955 15.26 2.675 21.993c8.978 1.291 18.896 2.007 29.325 2.007s20.347-0.716 29.324-2.007c1.721-6.733 2.676-14.172 2.676-21.993s-0.955-15.26-2.676-21.993zM53.993 54.662c-6.733 0.86-14.172 1.338-21.993 1.338s-15.26-0.477-21.993-1.338c-1.29-4.489-2.007-9.448-2.007-14.662s0.716-10.174 2.007-14.662c6.733-0.86 14.172-1.338 21.993-1.338s15.26 0.477 21.993 1.338c1.291 4.489 2.007 9.448 2.007 14.662s-0.716 10.174-2.007 14.662z" fill="#000000"></path>
</svg>
