<?xml version="1.0" encoding="utf-8"?>
<!-- Generated by IcoMoon.io -->
<!DOCTYPE svg PUBLIC "-//W3C//DTD SVG 1.1//EN" "http://www.w3.org/Graphics/SVG/1.1/DTD/svg11.dtd">
<svg version="1.1" xmlns="http://www.w3.org/2000/svg" xmlns:xlink="http://www.w3.org/1999/xlink" width="64" height="64" viewBox="0 0 64 64">
<path d="M63.562 40.751l-16-20c-0.38-0.474-0.954-0.751-1.562-0.751h-28c-0.608 0-1.182 0.276-1.562 0.751l-16 20c-0.284 0.355-0.438 0.795-0.438 1.249v18c0 2.209 1.791 4 4 4h56c2.209 0 4-1.791 4-4v-18c0-0.454-0.154-0.895-0.438-1.249zM60 44h-14l-8 8h-12l-8-8h-14v-1.298l14.961-18.701h26.078l14.961 18.701v1.298z" fill="#000000"></path>
<path d="M46 32h-28c-1.105 0-2-0.895-2-2s0.895-2 2-2h28c1.105 0 2 0.895 2 2s-0.895 2-2 2z" fill="#000000"></path>
<path d="M50 40h-36c-1.104 0-2-0.895-2-2s0.896-2 2-2h36c1.105 0 2 0.895 2 2s-0.895 2-2 2z" fill="#000000"></path>
</svg>
