<?xml version="1.0" encoding="utf-8"?>
<!-- Generated by IcoMoon.io -->
<!DOCTYPE svg PUBLIC "-//W3C//DTD SVG 1.1//EN" "http://www.w3.org/Graphics/SVG/1.1/DTD/svg11.dtd">
<svg version="1.1" xmlns="http://www.w3.org/2000/svg" xmlns:xlink="http://www.w3.org/1999/xlink" width="16" height="16" viewBox="0 0 16 16">
<path fill="#000000" d="M6 0v1.5c1.148 0 2.261 0.225 3.308 0.667 1.012 0.428 1.921 1.041 2.702 1.822s1.394 1.69 1.822 2.702c0.443 1.047 0.667 2.16 0.667 3.308h1.5c0-5.523-4.477-10-10-10z"></path>
<path fill="#000000" d="M6 3v1.5c1.469 0 2.85 0.572 3.889 1.611s1.611 2.42 1.611 3.889h1.5c0-3.866-3.134-7-7-7z"></path>
<path fill="#000000" d="M7.5 6l-1 1-3.5 1-3 6.5 0.396 0.396 3.638-3.638c-0.022-0.083-0.034-0.169-0.034-0.259 0-0.552 0.448-1 1-1s1 0.448 1 1-0.448 1-1 1c-0.090 0-0.176-0.012-0.259-0.034l-3.638 3.638 0.396 0.396 6.5-3 1-3.5 1-1-2.5-2.5z"></path>
</svg>
