<?xml version="1.0" encoding="utf-8"?>
<!-- Generated by IcoMoon.io -->
<!DOCTYPE svg PUBLIC "-//W3C//DTD SVG 1.1//EN" "http://www.w3.org/Graphics/SVG/1.1/DTD/svg11.dtd">
<svg version="1.1" xmlns="http://www.w3.org/2000/svg" xmlns:xlink="http://www.w3.org/1999/xlink" width="72" height="64" viewBox="0 0 72 64">
<path d="M68 56.323c0 2.844 1.627 5.307 4 6.511v0.996c-0.664 0.091-1.342 0.139-2.031 0.139-4.251 0-8.084-1.783-10.795-4.642-1.639 0.436-3.375 0.672-5.174 0.672-9.941 0-18-7.163-18-16s8.059-16 18-16c9.941 0 18 7.163 18 16 0 3.459-1.235 6.662-3.335 9.279-0.427 0.926-0.665 1.957-0.665 3.044zM32 0c17.404 0 31.562 11.288 31.99 25.345-3.074-1.37-6.474-2.095-9.99-2.095-5.972 0-11.614 2.090-15.884 5.886-4.428 3.936-6.866 9.215-6.866 14.864 0 2.792 0.596 5.493 1.733 7.987-0.327 0.008-0.654 0.013-0.983 0.013-1.697 0-3.363-0.108-4.989-0.315-6.874 6.874-15.078 8.106-23.011 8.287v-1.682c4.284-2.099 8-5.921 8-10.29 0-0.61-0.047-1.208-0.135-1.794-7.237-4.767-11.865-12.047-11.865-20.206 0-14.359 14.327-26 32-26z" fill="#000000"></path>
</svg>
