<?xml version="1.0" encoding="utf-8"?>
<!-- Generated by IcoMoon.io -->
<!DOCTYPE svg PUBLIC "-//W3C//DTD SVG 1.1//EN" "http://www.w3.org/Graphics/SVG/1.1/DTD/svg11.dtd">
<svg version="1.1" xmlns="http://www.w3.org/2000/svg" xmlns:xlink="http://www.w3.org/1999/xlink" width="64" height="64" viewBox="0 0 64 64">
<path d="M32 12c-3.433 0-6.749 0.541-9.856 1.609-2.919 1.003-5.519 2.421-7.727 4.215-4.138 3.362-6.417 7.686-6.417 12.176 0 2.519 0.699 4.961 2.078 7.26 1.422 2.37 3.561 4.537 6.187 6.266 1.897 1.249 3.174 3.247 3.511 5.493 0.113 0.749 0.183 1.505 0.211 2.258 0.467-0.387 0.922-0.803 1.367-1.248 1.51-1.51 3.549-2.343 5.656-2.343 0.335 0 0.673 0.021 1.010 0.064 1.311 0.167 2.65 0.251 3.98 0.251 3.433 0 6.749-0.541 9.856-1.609 2.919-1.003 5.519-2.422 7.727-4.215 4.138-3.362 6.417-7.687 6.417-12.176s-2.279-8.813-6.417-12.176c-2.208-1.794-4.807-3.212-7.727-4.215-3.107-1.067-6.422-1.609-9.856-1.609zM32 4v0c17.673 0 32 11.641 32 26s-14.327 26-32 26c-1.697 0-3.363-0.108-4.989-0.315-6.874 6.874-15.078 8.106-23.011 8.287v-1.682c4.284-2.099 8-5.921 8-10.29 0-0.61-0.047-1.208-0.135-1.794-7.237-4.767-11.865-12.047-11.865-20.206 0-14.359 14.327-26 32-26z" fill="#000000"></path>
</svg>
