<?xml version="1.0" encoding="utf-8"?>
<!-- Generated by IcoMoon.io -->
<!DOCTYPE svg PUBLIC "-//W3C//DTD SVG 1.1//EN" "http://www.w3.org/Graphics/SVG/1.1/DTD/svg11.dtd">
<svg version="1.1" xmlns="http://www.w3.org/2000/svg" xmlns:xlink="http://www.w3.org/1999/xlink" width="72" height="64" viewBox="0 0 72 64">
<path d="M68 56.323c0 2.844 1.627 5.307 4 6.511v0.996c-0.664 0.091-1.342 0.139-2.031 0.139-4.251 0-8.084-1.783-10.795-4.642-1.639 0.436-3.375 0.672-5.174 0.672-9.941 0-18-7.163-18-16s8.059-16 18-16c9.941 0 18 7.163 18 16 0 3.459-1.235 6.662-3.335 9.279-0.427 0.926-0.665 1.957-0.665 3.044zM14.417 13.824c-4.138 3.362-6.417 7.687-6.417 12.176 0 2.519 0.699 4.961 2.078 7.259 1.422 2.37 3.561 4.537 6.187 6.266 1.897 1.249 3.174 3.247 3.511 5.493 0.113 0.749 0.183 1.505 0.211 2.258 0.467-0.387 0.922-0.803 1.367-1.248 1.51-1.51 3.549-2.343 5.656-2.343 0.335 0 0.673 0.021 1.010 0.064 1.309 0.166 2.646 0.251 3.975 0.251v8c-1.695-0-3.36-0.109-4.984-0.315-6.874 6.874-15.078 8.106-23.011 8.287v-1.682c4.284-2.099 8-5.921 8-10.29 0-0.61-0.047-1.208-0.135-1.794-7.237-4.767-11.865-12.047-11.865-20.206 0-14.359 14.327-26 32-26 17.404 0 31.562 11.288 31.99 25.345-2.569-1.145-5.365-1.839-8.266-2.036-0.721-3.504-2.838-6.801-6.141-9.485-2.208-1.794-4.807-3.212-7.727-4.215-3.107-1.067-6.422-1.609-9.856-1.609s-6.749 0.541-9.856 1.609c-2.919 1.003-5.519 2.421-7.727 4.215z" fill="#000000"></path>
</svg>
