<?xml version="1.0" encoding="utf-8"?>
<!-- Generated by IcoMoon.io -->
<!DOCTYPE svg PUBLIC "-//W3C//DTD SVG 1.1//EN" "http://www.w3.org/Graphics/SVG/1.1/DTD/svg11.dtd">
<svg version="1.1" xmlns="http://www.w3.org/2000/svg" xmlns:xlink="http://www.w3.org/1999/xlink" width="72" height="64" viewBox="0 0 72 64">
<path d="M30 8c-3.167 0-6.224 0.497-9.087 1.477-2.683 0.918-5.070 2.215-7.094 3.853-3.753 3.037-5.819 6.925-5.819 10.948 0 2.249 0.629 4.434 1.87 6.494 1.293 2.146 3.244 4.112 5.641 5.685 1.902 1.248 3.183 3.247 3.523 5.497 0.056 0.374 0.102 0.75 0.136 1.127 0.17-0.157 0.339-0.32 0.507-0.487 1.509-1.502 3.543-2.332 5.645-2.332 0.334 0 0.67 0.021 1.006 0.064 1.21 0.153 2.445 0.231 3.672 0.231 3.167 0 6.224-0.497 9.087-1.477 2.683-0.918 5.070-2.215 7.094-3.853 3.753-3.037 5.819-6.925 5.819-10.948s-2.067-7.911-5.819-10.948c-2.024-1.638-4.411-2.934-7.094-3.853-2.863-0.98-5.92-1.477-9.087-1.477zM30 0v0c16.569 0 30 10.87 30 24.278s-13.431 24.278-30 24.278c-1.591 0-3.153-0.101-4.677-0.294-6.444 6.418-13.886 7.569-21.323 7.738v-1.571c4.016-1.96 7.25-5.529 7.25-9.608 0-0.569-0.044-1.128-0.127-1.675-6.785-4.451-11.123-11.249-11.123-18.868 0-13.408 13.431-24.278 30-24.278zM62.25 54.418c0 3.496 2.27 6.556 5.75 8.236v1.346c-6.445-0.145-12.362-1.131-17.946-6.633-1.321 0.166-2.675 0.252-4.054 0.252-5.967 0-11.463-1.61-15.851-4.315 9.042-0.032 17.579-2.928 24.052-8.167 3.263-2.641 5.837-5.739 7.651-9.209 1.923-3.679 2.898-7.599 2.898-11.65 0-0.653-0.028-1.302-0.079-1.948 4.536 3.746 7.329 8.851 7.329 14.48 0 6.53-3.76 12.358-9.64 16.173-0.071 0.468-0.11 0.947-0.11 1.435z" fill="#000000"></path>
</svg>
