<?xml version="1.0" encoding="utf-8"?>
<!-- Generated by IcoMoon.io -->
<!DOCTYPE svg PUBLIC "-//W3C//DTD SVG 1.1//EN" "http://www.w3.org/Graphics/SVG/1.1/DTD/svg11.dtd">
<svg version="1.1" xmlns="http://www.w3.org/2000/svg" xmlns:xlink="http://www.w3.org/1999/xlink" width="72" height="64" viewBox="0 0 72 64">
<path d="M48 48.163v-3.299c4.406-2.483 8-8.673 8-14.864 0-9.941 0-18-12-18s-12 8.059-12 18c0 6.191 3.594 12.382 8 14.864v3.299c-13.569 1.109-24 7.776-24 15.837h56c0-8.060-10.431-14.727-24-15.837z" fill="#000000"></path>
<path d="M20.45 49.708c3.457-2.259 7.755-3.977 12.487-5.026-0.941-1.111-1.794-2.351-2.531-3.689-1.901-3.452-2.906-7.254-2.906-10.993 0-5.378 0-10.457 1.913-14.61 1.857-4.032 5.196-6.531 9.951-7.468-1.057-4.78-3.871-7.922-11.364-7.922-12 0-12 8.059-12 18 0 6.191 3.594 12.382 8 14.864v3.299c-13.569 1.109-24 7.776-24 15.837h17.438c0.907-0.807 1.912-1.573 3.012-2.292z" fill="#000000"></path>
</svg>
