<?xml version="1.0" encoding="utf-8"?>
<!-- Generated by IcoMoon.io -->
<!DOCTYPE svg PUBLIC "-//W3C//DTD SVG 1.1//EN" "http://www.w3.org/Graphics/SVG/1.1/DTD/svg11.dtd">
<svg version="1.1" xmlns="http://www.w3.org/2000/svg" xmlns:xlink="http://www.w3.org/1999/xlink" width="64" height="64" viewBox="0 0 64 64">
<path d="M24 46c0-9.452 5.992-17.53 14.377-20.637 1.017-2.284 1.623-4.823 1.623-7.363 0-9.941 0-18-12-18s-12 8.059-12 18c0 6.191 3.594 12.382 8 14.864v3.299c-13.569 1.109-24 7.776-24 15.837h24.832c-0.541-1.908-0.832-3.921-0.832-6z" fill="#000000"></path>
<path d="M46 28c-9.941 0-18 8.059-18 18s8.059 18 18 18c9.941 0 18-8.059 18-18s-8.059-18-18-18zM56 48h-20v-4h20v4z" fill="#000000"></path>
</svg>
