<?xml version="1.0" encoding="utf-8"?>
<!-- Generated by IcoMoon.io -->
<!DOCTYPE svg PUBLIC "-//W3C//DTD SVG 1.1//EN" "http://www.w3.org/Graphics/SVG/1.1/DTD/svg11.dtd">
<svg version="1.1" xmlns="http://www.w3.org/2000/svg" xmlns:xlink="http://www.w3.org/1999/xlink" width="64" height="64" viewBox="0 0 64 64">
<path d="M50 40c-7.732 0-14-6.268-14-14s6.268-14 14-14 14 6.268 14 14l0.063 2c0 15.464-12.536 28-28 28v-8c5.342 0 10.365-2.080 14.142-5.858 0.727-0.727 1.391-1.501 1.989-2.314-0.715 0.112-1.447 0.172-2.194 0.172zM14 40c-7.732 0-14-6.268-14-14s6.268-14 14-14 14 6.268 14 14l0.063 2c0 15.464-12.536 28-28 28v-8c5.342 0 10.365-2.080 14.142-5.858 0.727-0.727 1.391-1.501 1.989-2.314-0.715 0.112-1.447 0.172-2.194 0.172z" fill="#000000"></path>
</svg>
