<?xml version="1.0" encoding="utf-8"?>
<!-- Generated by IcoMoon.io -->
<!DOCTYPE svg PUBLIC "-//W3C//DTD SVG 1.1//EN" "http://www.w3.org/Graphics/SVG/1.1/DTD/svg11.dtd">
<svg version="1.1" xmlns="http://www.w3.org/2000/svg" xmlns:xlink="http://www.w3.org/1999/xlink" width="64" height="64" viewBox="0 0 64 64">
<path d="M45.562 32c8.61-5.458 14.438-15.95 14.438-28 0-1.355-0.075-2.69-0.217-4h-55.565c-0.143 1.31-0.218 2.645-0.218 4 0 12.050 5.828 22.542 14.438 28-8.61 5.458-14.438 15.95-14.438 28 0 1.355 0.074 2.69 0.217 4h55.565c0.143-1.31 0.217-2.645 0.217-4 0-12.050-5.828-22.542-14.438-28zM10 60c0-11.682 5.010-21.588 14-24.857v-6.287c-8.99-3.268-14-13.175-14-24.857v0h44c0 11.682-5.010 21.588-14 24.857v6.287c8.99 3.268 14 13.175 14 24.857h-44zM38.727 41.85c-4.478-2.54-4.725-5.835-4.727-7.835v-4.014c0-2 0.238-5.307 4.734-7.854 2.407-1.398 4.488-3.522 6.066-6.146h-25.599c1.579 2.627 3.663 4.753 6.073 6.15 4.478 2.54 4.725 5.835 4.727 7.835v4.014c0 1.999-0.238 5.307-4.734 7.854-4.539 2.636-7.921 7.855-8.943 14.146h31.354c-1.023-6.294-4.408-11.516-8.951-14.15z" fill="#000000"></path>
</svg>
