<?xml version="1.0" encoding="utf-8"?>
<!-- Generated by IcoMoon.io -->
<!DOCTYPE svg PUBLIC "-//W3C//DTD SVG 1.1//EN" "http://www.w3.org/Graphics/SVG/1.1/DTD/svg11.dtd">
<svg version="1.1" xmlns="http://www.w3.org/2000/svg" xmlns:xlink="http://www.w3.org/1999/xlink" width="64" height="64" viewBox="0 0 64 64">
<path d="M24 8c0-4.418 3.582-8 8-8s8 3.582 8 8c0 4.418-3.582 8-8 8s-8-3.582-8-8zM40.971 15.029c0-4.418 3.582-8 8-8s8 3.582 8 8c0 4.418-3.582 8-8 8s-8-3.582-8-8zM52 32c0-2.209 1.791-4 4-4s4 1.791 4 4c0 2.209-1.791 4-4 4s-4-1.791-4-4zM44.971 48.971c0-2.209 1.791-4 4-4s4 1.791 4 4c0 2.209-1.791 4-4 4s-4-1.791-4-4zM28 56c0 0 0 0 0 0 0-2.209 1.791-4 4-4s4 1.791 4 4c0 0 0 0 0 0 0 2.209-1.791 4-4 4s-4-1.791-4-4zM11.030 48.971c0 0 0 0 0 0 0-2.209 1.791-4 4-4s4 1.791 4 4c0 0 0 0 0 0 0 2.209-1.791 4-4 4s-4-1.791-4-4zM9.030 15.029c0 0 0 0 0 0 0-3.314 2.686-6 6-6s6 2.686 6 6c0 0 0 0 0 0 0 3.314-2.686 6-6 6s-6-2.686-6-6zM3.5 32c0-2.485 2.015-4.5 4.5-4.5s4.5 2.015 4.5 4.5c0 2.485-2.015 4.5-4.5 4.5s-4.5-2.015-4.5-4.5z" fill="#000000"></path>
</svg>
