<?xml version="1.0" encoding="utf-8"?>
<!-- Generated by IcoMoon.io -->
<!DOCTYPE svg PUBLIC "-//W3C//DTD SVG 1.1//EN" "http://www.w3.org/Graphics/SVG/1.1/DTD/svg11.dtd">
<svg version="1.1" xmlns="http://www.w3.org/2000/svg" xmlns:xlink="http://www.w3.org/1999/xlink" width="64" height="64" viewBox="0 0 64 64">
<path d="M32 18.944c-2.060 0-3.73-1.67-3.73-3.73v-11.191c0-2.060 1.67-3.73 3.73-3.73s3.73 1.67 3.73 3.73v11.191c0 2.060-1.67 3.73-3.73 3.73z" fill="#000000"></path>
<path d="M32 62.31c-1.288 0-2.331-1.044-2.331-2.331v-11.191c0-1.288 1.044-2.331 2.331-2.331s2.331 1.044 2.331 2.331v11.191c0 1.288-1.044 2.331-2.331 2.331z" fill="#000000"></path>
<path d="M23.61 20.96c-1.209 0-2.384-0.627-3.032-1.749l-5.596-9.692c-0.966-1.673-0.393-3.812 1.28-4.777s3.812-0.393 4.777 1.28l5.596 9.692c0.966 1.673 0.393 3.812-1.28 4.777-0.551 0.318-1.152 0.469-1.745 0.469z" fill="#000000"></path>
<path d="M45.991 58.328c-0.725 0-1.43-0.376-1.819-1.050l-5.596-9.692c-0.579-1.004-0.236-2.287 0.768-2.867s2.287-0.236 2.867 0.768l5.596 9.692c0.579 1.004 0.236 2.287-0.768 2.867-0.33 0.191-0.691 0.281-1.047 0.281z" fill="#000000"></path>
<path d="M17.459 26.871c-0.554 0-1.115-0.141-1.629-0.438l-9.692-5.596c-1.561-0.901-2.096-2.898-1.195-4.459s2.898-2.096 4.459-1.195l9.692 5.596c1.561 0.901 2.096 2.898 1.195 4.459-0.604 1.047-1.702 1.633-2.83 1.633z" fill="#000000"></path>
<path d="M56.228 47.855c-0.316 0-0.637-0.081-0.931-0.25l-9.692-5.596c-0.892-0.515-1.198-1.656-0.683-2.548s1.656-1.198 2.548-0.683l9.692 5.596c0.892 0.515 1.198 1.656 0.683 2.548-0.346 0.598-0.973 0.933-1.617 0.933z" fill="#000000"></path>
<path d="M15.213 35.031h-11.191c-1.674 0-3.031-1.357-3.031-3.031s1.357-3.031 3.031-3.031h11.191c1.674 0 3.031 1.357 3.031 3.031s-1.357 3.031-3.031 3.031z" fill="#000000"></path>
<path d="M59.978 33.865c-0 0 0 0 0 0h-11.191c-1.030-0-1.865-0.835-1.865-1.865s0.835-1.865 1.865-1.865c0 0 0 0 0 0h11.191c1.030 0 1.865 0.835 1.865 1.865s-0.835 1.865-1.865 1.865z" fill="#000000"></path>
<path d="M7.773 48.787c-0.967 0-1.907-0.502-2.426-1.399-0.773-1.338-0.314-3.049 1.024-3.822l9.692-5.596c1.338-0.773 3.049-0.314 3.822 1.024s0.314 3.049-1.024 3.822l-9.692 5.596c-0.441 0.254-0.922 0.375-1.396 0.375z" fill="#000000"></path>
<path d="M46.539 25.472c-0.645 0-1.272-0.334-1.617-0.933-0.515-0.892-0.209-2.033 0.683-2.548l9.692-5.596c0.892-0.515 2.033-0.209 2.548 0.683s0.209 2.033-0.683 2.548l-9.692 5.596c-0.294 0.17-0.614 0.25-0.931 0.25z" fill="#000000"></path>
<path d="M18.009 58.795c-0.435 0-0.876-0.111-1.28-0.344-1.227-0.708-1.647-2.277-0.939-3.503l5.596-9.692c0.708-1.227 2.277-1.647 3.503-0.939s1.647 2.277 0.939 3.503l-5.596 9.692c-0.475 0.823-1.337 1.283-2.223 1.283z" fill="#000000"></path>
<path d="M40.392 19.328c-0.316 0-0.637-0.081-0.931-0.25-0.892-0.515-1.198-1.656-0.683-2.548l5.596-9.692c0.515-0.892 1.656-1.198 2.548-0.683s1.198 1.656 0.683 2.548l-5.596 9.692c-0.346 0.598-0.972 0.933-1.617 0.933z" fill="#000000"></path>
</svg>
