<?xml version="1.0" encoding="utf-8"?>
<!-- Generated by IcoMoon.io -->
<!DOCTYPE svg PUBLIC "-//W3C//DTD SVG 1.1//EN" "http://www.w3.org/Graphics/SVG/1.1/DTD/svg11.dtd">
<svg version="1.1" xmlns="http://www.w3.org/2000/svg" xmlns:xlink="http://www.w3.org/1999/xlink" width="64" height="64" viewBox="0 0 64 64">
<path d="M12 32c0-0.761 0.044-1.512 0.127-2.251l-11.561-3.756c-0.37 1.946-0.566 3.954-0.566 6.008 0 9.202 3.885 17.495 10.103 23.333l7.143-9.831c-3.258-3.558-5.246-8.297-5.246-13.502zM52 32c0 5.204-1.988 9.944-5.246 13.502l7.143 9.831c6.218-5.838 10.103-14.131 10.103-23.333 0-2.054-0.196-4.062-0.566-6.008l-11.561 3.756c0.083 0.739 0.127 1.49 0.127 2.251zM36 12.4c5.746 1.166 10.596 4.796 13.403 9.739l11.561-3.756c-4.575-9.714-13.89-16.754-24.964-18.135v12.152zM14.597 22.14c2.807-4.943 7.657-8.573 13.403-9.739v-12.152c-11.074 1.381-20.389 8.421-24.964 18.135l11.561 3.756zM40.285 50.208c-2.524 1.151-5.33 1.792-8.285 1.792s-5.76-0.642-8.285-1.792l-7.143 9.832c4.575 2.523 9.834 3.96 15.428 3.96s10.852-1.437 15.428-3.96l-7.143-9.832z" fill="#000000"></path>
</svg>
