<?xml version="1.0" encoding="utf-8"?>
<!-- Generated by IcoMoon.io -->
<!DOCTYPE svg PUBLIC "-//W3C//DTD SVG 1.1//EN" "http://www.w3.org/Graphics/SVG/1.1/DTD/svg11.dtd">
<svg version="1.1" xmlns="http://www.w3.org/2000/svg" xmlns:xlink="http://www.w3.org/1999/xlink" width="64" height="64" viewBox="0 0 64 64">
<path d="M24 8c0-4.418 3.582-8 8-8s8 3.582 8 8c0 4.418-3.582 8-8 8s-8-3.582-8-8zM49.437 32c0 0 0 0 0 0 0-3.625 2.938-6.563 6.563-6.563s6.563 2.938 6.563 6.563c0 0 0 0 0 0 0 3.625-2.938 6.563-6.563 6.563s-6.563-2.938-6.563-6.563zM43.026 48.971c0-3.283 2.661-5.944 5.944-5.944s5.944 2.661 5.944 5.944c0 3.283-2.661 5.944-5.944 5.944s-5.944-2.661-5.944-5.944zM26.616 56c0-2.973 2.41-5.384 5.384-5.384s5.384 2.41 5.384 5.384c0 2.973-2.41 5.384-5.384 5.384s-5.384-2.41-5.384-5.384zM10.153 48.971c0-2.693 2.183-4.876 4.876-4.876s4.876 2.183 4.876 4.876c0 2.693-2.183 4.876-4.876 4.876s-4.876-2.183-4.876-4.876zM3.584 32c0-2.439 1.977-4.416 4.416-4.416s4.416 1.977 4.416 4.416c0 2.439-1.977 4.416-4.416 4.416s-4.416-1.977-4.416-4.416zM11.030 15.030c0 0 0 0 0 0 0-2.209 1.791-4 4-4s4 1.791 4 4c0 0 0 0 0 0 0 2.209-1.791 4-4 4s-4-1.791-4-4zM56.217 15.030c0 4.001-3.244 7.246-7.246 7.246s-7.246-3.244-7.246-7.246c0-4.002 3.245-7.246 7.246-7.246s7.246 3.244 7.246 7.246z" fill="#000000"></path>
</svg>
