<?xml version="1.0" encoding="utf-8"?>
<!-- Generated by IcoMoon.io -->
<!DOCTYPE svg PUBLIC "-//W3C//DTD SVG 1.1//EN" "http://www.w3.org/Graphics/SVG/1.1/DTD/svg11.dtd">
<svg version="1.1" xmlns="http://www.w3.org/2000/svg" xmlns:xlink="http://www.w3.org/1999/xlink" width="64" height="64" viewBox="0 0 64 64">
<path d="M32 64c-8.547 0-16.583-3.329-22.628-9.373s-9.373-14.080-9.373-22.628c0-6.052 1.699-11.946 4.913-17.043 3.125-4.956 7.542-8.961 12.772-11.581l2.688 5.364c-4.252 2.13-7.843 5.387-10.384 9.417-2.609 4.138-3.988 8.925-3.988 13.843 0 14.336 11.664 26 26 26s26-11.664 26-26c0-4.918-1.379-9.705-3.988-13.843-2.541-4.030-6.132-7.287-10.384-9.417l2.688-5.364c5.231 2.62 9.647 6.625 12.772 11.581 3.214 5.097 4.913 10.991 4.913 17.043 0 8.547-3.329 16.583-9.373 22.628s-14.080 9.373-22.628 9.373z" fill="#000000"></path>
</svg>
