<?xml version="1.0" encoding="utf-8"?>
<!-- Generated by IcoMoon.io -->
<!DOCTYPE svg PUBLIC "-//W3C//DTD SVG 1.1//EN" "http://www.w3.org/Graphics/SVG/1.1/DTD/svg11.dtd">
<svg version="1.1" xmlns="http://www.w3.org/2000/svg" xmlns:xlink="http://www.w3.org/1999/xlink" width="64" height="64" viewBox="0 0 64 64">
<path d="M32 0c-17.422 0-31.591 13.923-31.991 31.248 0.37-15.116 11.864-27.248 25.991-27.248 14.359 0 26 12.536 26 28 0 3.314 2.686 6 6 6s6-2.686 6-6c0-17.673-14.327-32-32-32zM32 64c17.422 0 31.591-13.923 31.99-31.248-0.37 15.117-11.864 27.248-25.99 27.248-14.359 0-26-12.536-26-28 0-3.314-2.686-6-6-6s-6 2.686-6 6c0 17.673 14.327 32 32 32z" fill="#000000"></path>
</svg>
