<?xml version="1.0" encoding="utf-8"?>
<!-- Generated by IcoMoon.io -->
<!DOCTYPE svg PUBLIC "-//W3C//DTD SVG 1.1//EN" "http://www.w3.org/Graphics/SVG/1.1/DTD/svg11.dtd">
<svg version="1.1" xmlns="http://www.w3.org/2000/svg" xmlns:xlink="http://www.w3.org/1999/xlink" width="64" height="64" viewBox="0 0 64 64">
<path d="M0.003 32.101l-0.001 0c0 0 0.001 0.006 0.002 0.014 0.007 0.242 0.034 0.48 0.083 0.709 0.013 0.109 0.027 0.229 0.042 0.361 0.014 0.118 0.029 0.245 0.045 0.38 0.023 0.16 0.048 0.331 0.074 0.511 0.053 0.359 0.112 0.758 0.182 1.185 0.084 0.403 0.175 0.838 0.273 1.304 0.044 0.232 0.111 0.469 0.174 0.713s0.13 0.493 0.198 0.75c0.035 0.128 0.065 0.258 0.107 0.388s0.083 0.261 0.124 0.394c0.084 0.265 0.17 0.535 0.258 0.812 0.022 0.069 0.044 0.138 0.067 0.208 0.026 0.069 0.051 0.138 0.077 0.207 0.052 0.139 0.104 0.279 0.156 0.42 0.106 0.281 0.214 0.567 0.324 0.859 0.123 0.285 0.248 0.576 0.375 0.871 0.064 0.147 0.128 0.295 0.192 0.444s0.142 0.294 0.213 0.442c0.145 0.295 0.292 0.593 0.441 0.896 0.154 0.299 0.325 0.594 0.49 0.895 0.083 0.15 0.168 0.3 0.252 0.452 0.085 0.151 0.181 0.297 0.272 0.446 0.184 0.296 0.371 0.595 0.558 0.897 0.79 1.181 1.667 2.348 2.638 3.455 0.982 1.099 2.045 2.141 3.168 3.1 1.136 0.946 2.329 1.806 3.545 2.57 1.225 0.752 2.478 1.395 3.711 1.947 0.313 0.127 0.623 0.254 0.93 0.379 0.154 0.061 0.304 0.127 0.459 0.182 0.154 0.054 0.308 0.108 0.461 0.162 0.306 0.105 0.605 0.217 0.905 0.312 0.302 0.089 0.6 0.178 0.895 0.265 0.147 0.042 0.291 0.089 0.438 0.126s0.292 0.071 0.437 0.106c0.288 0.070 0.571 0.138 0.85 0.206 0.281 0.054 0.558 0.108 0.829 0.16 0.135 0.026 0.269 0.051 0.402 0.076 0.066 0.013 0.132 0.025 0.198 0.037 0.066 0.009 0.132 0.018 0.198 0.028 0.262 0.036 0.518 0.072 0.769 0.107 0.125 0.017 0.248 0.034 0.37 0.051s0.244 0.024 0.363 0.036c0.239 0.021 0.471 0.041 0.698 0.061s0.444 0.043 0.658 0.046c0.014 0.001 0.028 0.001 0.043 0.002 0.038 2.176 1.813 3.928 3.998 3.928 0.034 0 0.067-0.002 0.101-0.003v0.001c0 0 0.006-0.001 0.014-0.002 0.242-0.007 0.48-0.034 0.709-0.083 0.109-0.013 0.229-0.027 0.361-0.042 0.118-0.014 0.245-0.029 0.38-0.045 0.16-0.023 0.331-0.048 0.511-0.075 0.359-0.053 0.758-0.112 1.185-0.182 0.403-0.084 0.838-0.175 1.304-0.273 0.232-0.044 0.469-0.111 0.713-0.174 0.243-0.064 0.493-0.13 0.75-0.198 0.128-0.035 0.258-0.065 0.388-0.107s0.261-0.082 0.394-0.124c0.264-0.084 0.535-0.17 0.812-0.258 0.069-0.022 0.138-0.044 0.208-0.067 0.069-0.025 0.138-0.051 0.207-0.077 0.139-0.051 0.279-0.104 0.42-0.156 0.281-0.106 0.567-0.214 0.859-0.324 0.285-0.123 0.576-0.248 0.871-0.375 0.147-0.064 0.295-0.128 0.444-0.192s0.294-0.142 0.442-0.213c0.295-0.145 0.593-0.292 0.896-0.441 0.299-0.154 0.595-0.325 0.895-0.49 0.15-0.084 0.3-0.167 0.452-0.252s0.297-0.181 0.446-0.272c0.296-0.184 0.595-0.371 0.897-0.559 1.181-0.79 2.348-1.667 3.455-2.638 1.098-0.982 2.141-2.045 3.1-3.168 0.946-1.136 1.806-2.329 2.569-3.545 0.752-1.225 1.395-2.478 1.946-3.711 0.128-0.313 0.254-0.623 0.379-0.93 0.061-0.154 0.127-0.304 0.182-0.458s0.108-0.308 0.162-0.461c0.105-0.306 0.217-0.605 0.312-0.905 0.090-0.302 0.178-0.6 0.265-0.894 0.042-0.147 0.089-0.291 0.126-0.438s0.071-0.292 0.106-0.437c0.070-0.288 0.139-0.571 0.206-0.85 0.054-0.281 0.108-0.558 0.16-0.83 0.026-0.135 0.051-0.269 0.076-0.402 0.013-0.066 0.025-0.132 0.037-0.198 0.009-0.066 0.019-0.132 0.028-0.198 0.036-0.262 0.072-0.518 0.107-0.769 0.017-0.125 0.034-0.248 0.051-0.37s0.023-0.244 0.035-0.363c0.021-0.239 0.041-0.472 0.061-0.698s0.043-0.444 0.046-0.658c0.001-0.033 0.002-0.065 0.004-0.098 2.202-0.009 3.983-1.796 3.983-4 0-0.034-0.002-0.067-0.003-0.101h0.001c0 0-0.001-0.006-0.002-0.014-0.007-0.242-0.034-0.48-0.083-0.709-0.013-0.109-0.027-0.229-0.042-0.361-0.014-0.118-0.029-0.245-0.045-0.38-0.023-0.16-0.048-0.331-0.074-0.511-0.053-0.359-0.112-0.758-0.182-1.185-0.084-0.403-0.175-0.838-0.273-1.304-0.044-0.233-0.111-0.469-0.174-0.713s-0.13-0.493-0.197-0.75c-0.035-0.128-0.065-0.258-0.107-0.388s-0.083-0.261-0.124-0.394c-0.084-0.265-0.17-0.535-0.258-0.812-0.022-0.069-0.044-0.138-0.066-0.208-0.026-0.069-0.051-0.138-0.077-0.207-0.052-0.139-0.104-0.278-0.156-0.42-0.106-0.281-0.214-0.567-0.324-0.859-0.123-0.286-0.248-0.576-0.375-0.871-0.064-0.147-0.128-0.295-0.192-0.444s-0.142-0.294-0.213-0.442c-0.145-0.295-0.292-0.593-0.441-0.896-0.154-0.299-0.325-0.595-0.49-0.895-0.084-0.15-0.167-0.3-0.252-0.452-0.086-0.151-0.181-0.297-0.272-0.446-0.184-0.296-0.371-0.595-0.558-0.897-0.79-1.181-1.667-2.348-2.638-3.455-0.982-1.098-2.045-2.141-3.168-3.1-1.136-0.946-2.329-1.806-3.545-2.569-1.225-0.752-2.478-1.395-3.711-1.946-0.313-0.128-0.623-0.254-0.93-0.379-0.154-0.061-0.304-0.127-0.459-0.182-0.154-0.054-0.308-0.108-0.461-0.162-0.306-0.105-0.605-0.217-0.905-0.312-0.302-0.090-0.6-0.178-0.895-0.265-0.147-0.042-0.291-0.089-0.438-0.126s-0.292-0.071-0.437-0.106c-0.288-0.070-0.571-0.138-0.85-0.206-0.281-0.054-0.558-0.107-0.829-0.16-0.135-0.026-0.269-0.051-0.402-0.076-0.066-0.013-0.132-0.025-0.198-0.037-0.066-0.009-0.132-0.019-0.198-0.028-0.262-0.037-0.518-0.072-0.769-0.107-0.125-0.017-0.248-0.034-0.37-0.051s-0.244-0.024-0.363-0.036c-0.239-0.021-0.471-0.042-0.698-0.061s-0.444-0.043-0.658-0.046c-0.053-0.002-0.105-0.004-0.157-0.006-0.041-2.174-1.814-3.924-3.998-3.924-0.034 0-0.067 0.002-0.101 0.003l-0-0.001c0 0-0.006 0.001-0.014 0.002-0.242 0.007-0.48 0.034-0.709 0.083-0.109 0.013-0.229 0.027-0.361 0.042-0.118 0.014-0.244 0.029-0.38 0.045-0.16 0.023-0.331 0.048-0.511 0.074-0.359 0.053-0.758 0.112-1.185 0.182-0.403 0.084-0.838 0.175-1.304 0.273-0.232 0.044-0.469 0.111-0.713 0.174-0.243 0.064-0.493 0.13-0.75 0.198-0.128 0.035-0.258 0.065-0.388 0.107s-0.261 0.082-0.394 0.124c-0.265 0.084-0.535 0.17-0.812 0.258-0.069 0.022-0.138 0.044-0.208 0.067-0.069 0.025-0.138 0.051-0.207 0.077-0.139 0.052-0.279 0.104-0.42 0.156-0.281 0.106-0.567 0.214-0.859 0.324-0.285 0.123-0.576 0.248-0.871 0.375-0.147 0.064-0.295 0.128-0.444 0.192s-0.294 0.142-0.442 0.213c-0.295 0.145-0.593 0.292-0.896 0.441-0.299 0.154-0.595 0.325-0.895 0.49-0.15 0.083-0.3 0.167-0.452 0.252s-0.297 0.181-0.446 0.272c-0.296 0.184-0.595 0.371-0.897 0.559-1.181 0.79-2.348 1.667-3.455 2.638-1.098 0.982-2.14 2.045-3.1 3.168-0.946 1.136-1.806 2.329-2.569 3.546-0.752 1.225-1.395 2.478-1.946 3.711-0.128 0.313-0.254 0.623-0.379 0.93-0.061 0.154-0.127 0.304-0.182 0.458-0.054 0.154-0.108 0.308-0.162 0.461-0.105 0.306-0.217 0.605-0.312 0.905-0.090 0.302-0.178 0.6-0.265 0.894-0.042 0.147-0.089 0.291-0.126 0.438-0.036 0.147-0.071 0.292-0.106 0.437-0.070 0.288-0.138 0.571-0.206 0.85-0.054 0.281-0.107 0.558-0.16 0.829-0.026 0.135-0.051 0.269-0.076 0.402-0.013 0.066-0.025 0.132-0.037 0.198-0.009 0.066-0.019 0.132-0.028 0.198-0.036 0.262-0.072 0.518-0.107 0.769-0.017 0.125-0.034 0.248-0.051 0.37s-0.023 0.244-0.035 0.363c-0.021 0.239-0.042 0.472-0.061 0.698s-0.043 0.444-0.046 0.658c-0.001 0.034-0.002 0.067-0.004 0.101-2.148 0.070-3.869 1.831-3.869 3.997 0 0.034 0.002 0.067 0.003 0.101zM4.595 28.044c0.003-0.012 0.005-0.024 0.008-0.036 0.040-0.203 0.102-0.409 0.16-0.621s0.118-0.43 0.18-0.653c0.032-0.111 0.058-0.225 0.097-0.338 0.037-0.113 0.075-0.227 0.113-0.342 0.076-0.23 0.154-0.466 0.234-0.706 0.020-0.060 0.040-0.12 0.060-0.181 0.023-0.060 0.046-0.12 0.070-0.18 0.047-0.12 0.094-0.242 0.141-0.364 0.095-0.244 0.192-0.493 0.29-0.746 0.111-0.247 0.223-0.499 0.337-0.755 0.057-0.127 0.114-0.256 0.172-0.385s0.127-0.255 0.191-0.383c0.129-0.255 0.261-0.514 0.393-0.776 0.138-0.259 0.291-0.514 0.437-0.774 0.074-0.13 0.148-0.26 0.223-0.391s0.162-0.256 0.242-0.385c0.163-0.256 0.328-0.515 0.495-0.775 0.702-1.019 1.477-2.025 2.333-2.977 0.867-0.944 1.803-1.838 2.787-2.659 0.998-0.808 2.043-1.541 3.105-2.189 1.071-0.637 2.163-1.177 3.233-1.641 0.272-0.106 0.541-0.211 0.808-0.316 0.134-0.051 0.264-0.107 0.398-0.153 0.134-0.045 0.267-0.089 0.4-0.133 0.266-0.087 0.524-0.181 0.784-0.259 0.262-0.073 0.52-0.146 0.774-0.217 0.127-0.034 0.252-0.074 0.378-0.104s0.253-0.057 0.378-0.085c0.249-0.057 0.494-0.113 0.734-0.168 0.243-0.043 0.482-0.085 0.716-0.126 0.117-0.021 0.232-0.041 0.347-0.061 0.057-0.010 0.114-0.020 0.171-0.030 0.057-0.007 0.114-0.014 0.171-0.021 0.226-0.028 0.447-0.055 0.663-0.082 0.108-0.014 0.214-0.027 0.319-0.040s0.21-0.017 0.313-0.026c0.206-0.015 0.406-0.029 0.601-0.044s0.382-0.033 0.566-0.032c0.366-0.008 0.707-0.016 1.024-0.023 0.291 0.011 0.559 0.020 0.801 0.029 0.12 0.003 0.233 0.007 0.34 0.010 0.133 0.008 0.257 0.016 0.372 0.024 0.133 0.009 0.254 0.017 0.364 0.024 0.203 0.032 0.412 0.049 0.624 0.049 0.029 0 0.058-0.002 0.087-0.002 0.008 0 0.014 0.001 0.014 0.001v-0.001c1.946-0.049 3.547-1.486 3.847-3.36 0.034 0.008 0.066 0.015 0.101 0.022 0.203 0.040 0.409 0.102 0.621 0.16s0.43 0.118 0.653 0.18c0.111 0.032 0.225 0.058 0.338 0.097 0.113 0.037 0.227 0.075 0.342 0.113 0.23 0.076 0.465 0.154 0.706 0.234 0.060 0.020 0.12 0.040 0.181 0.060 0.060 0.023 0.12 0.046 0.18 0.069 0.12 0.047 0.242 0.094 0.364 0.141 0.244 0.095 0.493 0.192 0.746 0.29 0.248 0.111 0.499 0.223 0.755 0.337 0.127 0.057 0.255 0.114 0.385 0.172s0.255 0.127 0.383 0.191c0.255 0.129 0.514 0.261 0.776 0.393 0.259 0.138 0.514 0.291 0.775 0.437 0.13 0.074 0.26 0.148 0.391 0.223s0.256 0.162 0.385 0.242c0.256 0.164 0.514 0.329 0.775 0.495 1.019 0.702 2.025 1.477 2.977 2.333 0.944 0.867 1.838 1.803 2.659 2.787 0.808 0.998 1.541 2.043 2.189 3.105 0.637 1.071 1.178 2.163 1.641 3.233 0.106 0.272 0.211 0.541 0.316 0.808 0.051 0.134 0.107 0.264 0.153 0.398 0.045 0.134 0.089 0.267 0.133 0.4 0.087 0.266 0.181 0.524 0.259 0.784 0.073 0.262 0.146 0.52 0.217 0.774 0.034 0.127 0.074 0.252 0.104 0.378s0.057 0.253 0.086 0.378c0.057 0.249 0.113 0.494 0.168 0.734 0.043 0.243 0.085 0.482 0.127 0.716 0.021 0.117 0.041 0.232 0.061 0.347 0.010 0.057 0.020 0.114 0.030 0.171 0.007 0.057 0.014 0.114 0.021 0.171 0.028 0.226 0.055 0.447 0.082 0.663 0.014 0.108 0.027 0.214 0.040 0.319s0.017 0.21 0.026 0.313c0.015 0.206 0.029 0.406 0.044 0.601s0.033 0.382 0.032 0.566c0.008 0.366 0.016 0.707 0.023 1.024-0.011 0.291-0.020 0.559-0.029 0.801-0.003 0.12-0.007 0.233-0.010 0.34-0.008 0.133-0.016 0.257-0.024 0.372-0.009 0.133-0.017 0.254-0.024 0.364-0.031 0.203-0.048 0.412-0.048 0.624 0 0.029 0.002 0.058 0.002 0.087-0.001 0.008-0.001 0.014-0.001 0.014h0.001c0.048 1.923 1.452 3.508 3.293 3.836-0.004 0.019-0.008 0.036-0.012 0.055-0.040 0.203-0.102 0.409-0.16 0.621s-0.118 0.43-0.18 0.653c-0.032 0.111-0.058 0.225-0.097 0.338-0.037 0.113-0.075 0.227-0.113 0.342-0.076 0.23-0.154 0.466-0.233 0.706-0.020 0.060-0.040 0.12-0.060 0.181-0.023 0.060-0.046 0.12-0.070 0.18-0.047 0.12-0.094 0.242-0.141 0.364-0.095 0.244-0.192 0.493-0.29 0.746-0.111 0.248-0.223 0.499-0.337 0.755-0.057 0.127-0.114 0.256-0.172 0.385s-0.127 0.255-0.191 0.383c-0.129 0.255-0.261 0.514-0.393 0.776-0.138 0.259-0.291 0.514-0.437 0.775-0.074 0.13-0.148 0.26-0.223 0.391s-0.162 0.256-0.242 0.385c-0.163 0.256-0.328 0.514-0.495 0.775-0.702 1.019-1.477 2.025-2.333 2.977-0.867 0.944-1.803 1.838-2.787 2.659-0.998 0.808-2.043 1.541-3.105 2.189-1.071 0.637-2.163 1.177-3.233 1.641-0.272 0.106-0.541 0.211-0.808 0.316-0.133 0.051-0.264 0.107-0.398 0.153-0.134 0.045-0.267 0.089-0.4 0.133-0.266 0.087-0.524 0.181-0.784 0.259-0.261 0.073-0.52 0.146-0.775 0.217-0.127 0.034-0.252 0.074-0.378 0.104s-0.253 0.057-0.378 0.086c-0.249 0.057-0.493 0.113-0.734 0.168-0.243 0.043-0.482 0.085-0.716 0.126-0.117 0.021-0.232 0.041-0.347 0.061-0.057 0.010-0.114 0.020-0.17 0.030-0.057 0.007-0.114 0.014-0.171 0.021-0.226 0.028-0.447 0.055-0.663 0.082-0.108 0.014-0.214 0.027-0.319 0.040s-0.21 0.017-0.313 0.026c-0.206 0.015-0.406 0.029-0.601 0.044s-0.382 0.033-0.566 0.032c-0.365 0.008-0.708 0.016-1.024 0.023-0.291-0.011-0.559-0.020-0.801-0.029-0.12-0.003-0.233-0.007-0.34-0.010-0.133-0.008-0.257-0.016-0.372-0.024-0.133-0.009-0.254-0.017-0.364-0.024-0.203-0.032-0.412-0.049-0.624-0.049-0.029 0-0.058 0.002-0.087 0.002-0.008-0.001-0.014-0.001-0.014-0.001v0.001c-1.938 0.048-3.533 1.474-3.843 3.335-0.2-0.040-0.403-0.101-0.612-0.158-0.212-0.058-0.43-0.118-0.653-0.18-0.111-0.032-0.225-0.059-0.338-0.097s-0.227-0.075-0.342-0.113-0.465-0.154-0.706-0.234c-0.060-0.020-0.12-0.039-0.181-0.060-0.060-0.023-0.12-0.046-0.18-0.070-0.12-0.047-0.242-0.094-0.364-0.141-0.244-0.095-0.493-0.192-0.746-0.291-0.247-0.111-0.499-0.223-0.755-0.337-0.127-0.057-0.256-0.114-0.385-0.172s-0.255-0.127-0.383-0.191c-0.255-0.129-0.514-0.261-0.776-0.394-0.259-0.138-0.514-0.291-0.775-0.437-0.13-0.074-0.26-0.148-0.391-0.223s-0.256-0.162-0.385-0.242c-0.256-0.163-0.514-0.328-0.775-0.495-1.018-0.702-2.025-1.477-2.977-2.333-0.944-0.867-1.838-1.803-2.659-2.787-0.808-0.998-1.54-2.043-2.189-3.105-0.637-1.071-1.178-2.163-1.641-3.233-0.106-0.272-0.211-0.541-0.316-0.808-0.051-0.133-0.107-0.264-0.153-0.398-0.045-0.134-0.089-0.268-0.133-0.4-0.087-0.266-0.181-0.524-0.259-0.784-0.073-0.261-0.146-0.52-0.217-0.775-0.034-0.127-0.074-0.252-0.104-0.378s-0.057-0.253-0.085-0.378c-0.057-0.249-0.113-0.494-0.168-0.734-0.043-0.243-0.085-0.482-0.127-0.716-0.021-0.117-0.041-0.232-0.061-0.347-0.010-0.057-0.020-0.114-0.030-0.171-0.007-0.057-0.014-0.114-0.021-0.171-0.028-0.226-0.055-0.447-0.082-0.663-0.014-0.108-0.027-0.214-0.040-0.319s-0.017-0.21-0.026-0.313c-0.015-0.206-0.029-0.406-0.044-0.601s-0.033-0.382-0.032-0.566c-0.008-0.365-0.016-0.708-0.023-1.024 0.011-0.291 0.020-0.559 0.029-0.801 0.003-0.12 0.007-0.233 0.010-0.34 0.008-0.133 0.016-0.257 0.024-0.372 0.009-0.133 0.017-0.254 0.024-0.364 0.031-0.204 0.048-0.412 0.048-0.625 0-0.029-0.002-0.058-0.002-0.087 0-0.008 0.001-0.014 0.001-0.014h-0.001c-0.049-1.961-1.508-3.572-3.402-3.855z" fill="#000000"></path>
</svg>
