<?xml version="1.0" encoding="utf-8"?>
<!-- Generated by IcoMoon.io -->
<!DOCTYPE svg PUBLIC "-//W3C//DTD SVG 1.1//EN" "http://www.w3.org/Graphics/SVG/1.1/DTD/svg11.dtd">
<svg version="1.1" xmlns="http://www.w3.org/2000/svg" xmlns:xlink="http://www.w3.org/1999/xlink" width="64" height="64" viewBox="0 0 64 64">
<path d="M64 24h-24l8.971-8.971c-4.533-4.533-10.56-7.029-16.971-7.029s-12.438 2.497-16.971 7.029c-4.533 4.533-7.029 10.56-7.029 16.971s2.496 12.438 7.029 16.971c4.533 4.533 10.56 7.029 16.971 7.029s12.438-2.496 16.971-7.029c0.379-0.378 0.741-0.768 1.091-1.167l6.020 5.268c-5.865 6.698-14.479 10.929-24.081 10.929-17.673 0-32-14.327-32-32s14.327-32 32-32c8.837 0 16.836 3.583 22.626 9.374l9.374-9.374v24z" fill="#000000"></path>
</svg>
