<?xml version="1.0" encoding="utf-8"?>
<!-- Generated by IcoMoon.io -->
<!DOCTYPE svg PUBLIC "-//W3C//DTD SVG 1.1//EN" "http://www.w3.org/Graphics/SVG/1.1/DTD/svg11.dtd">
<svg version="1.1" xmlns="http://www.w3.org/2000/svg" xmlns:xlink="http://www.w3.org/1999/xlink" width="64" height="64" viewBox="0 0 64 64">
<path d="M4 0h24v4h-24zM36 0h24v4h-24zM59.5 20h-3.5v-16h-16v16h-16v-16h-16v16h-3.5c-2.475 0-4.5 2.025-4.5 4.5v35c0 2.475 2.025 4.5 4.5 4.5h19c2.475 0 4.5-2.025 4.5-4.5v-23.5h8v23.5c0 2.475 2.025 4.5 4.5 4.5h19c2.475 0 4.5-2.025 4.5-4.5v-35c0-2.475-2.025-4.5-4.5-4.5zM21.75 60h-15.5c-1.237 0-2.25-0.9-2.25-2s1.013-2 2.25-2h15.5c1.238 0 2.25 0.9 2.25 2s-1.012 2-2.25 2zM34 32h-4c-1.1 0-2-0.9-2-2s0.9-2 2-2h4c1.1 0 2 0.9 2 2s-0.9 2-2 2zM57.75 60h-15.5c-1.237 0-2.25-0.9-2.25-2s1.013-2 2.25-2h15.5c1.237 0 2.25 0.9 2.25 2s-1.013 2-2.25 2z" fill="#000000"></path>
</svg>
