<?xml version="1.0" encoding="utf-8"?>
<!-- Generated by IcoMoon.io -->
<!DOCTYPE svg PUBLIC "-//W3C//DTD SVG 1.1//EN" "http://www.w3.org/Graphics/SVG/1.1/DTD/svg11.dtd">
<svg version="1.1" xmlns="http://www.w3.org/2000/svg" xmlns:xlink="http://www.w3.org/1999/xlink" width="64" height="64" viewBox="0 0 64 64">
<path d="M44 0c-11.046 0-20 8.954-20 20 0 1.252 0.116 2.476 0.336 3.664l-24.336 24.336v12c0 2.209 1.791 4 4 4h4v-4h8v-8h8v-8h8l5.19-5.19c2.126 0.77 4.419 1.19 6.81 1.19 11.046 0 20-8.954 20-20s-8.954-20-20-20zM49.992 20.008c-3.314 0-6-2.686-6-6s2.686-6 6-6 6 2.686 6 6-2.686 6-6 6z" fill="#000000"></path>
</svg>
