<?xml version="1.0" encoding="utf-8"?>
<!-- Generated by IcoMoon.io -->
<!DOCTYPE svg PUBLIC "-//W3C//DTD SVG 1.1//EN" "http://www.w3.org/Graphics/SVG/1.1/DTD/svg11.dtd">
<svg version="1.1" xmlns="http://www.w3.org/2000/svg" xmlns:xlink="http://www.w3.org/1999/xlink" width="64" height="64" viewBox="0 0 64 64">
<path d="M62.633 19.64l-6.319-6.319c-1.55-1.55-4.086-4.085-5.635-5.635l-6.319-6.319c-1.55-1.55-4.31-1.823-6.133-0.607l-17.277 11.518c-1.823 1.216-2.514 3.814-1.534 5.774l4.405 8.811c0.135 0.269 0.29 0.556 0.462 0.854l-22.283 22.283-2 14h12v-4h8v-8h8v-8h8v-4.449c0.4 0.238 0.783 0.451 1.137 0.628l8.811 4.406c1.96 0.98 4.559 0.29 5.774-1.534l11.518-17.277c1.216-1.823 0.942-4.583-0.607-6.133zM9.414 53.414l-2.828-2.828 19.473-19.473 2.828 2.828-19.473 19.473zM57.314 26.485l-2.828 2.828c-0.778 0.778-2.050 0.778-2.828 0l-16.971-16.971c-0.778-0.778-0.778-2.051 0-2.828l2.828-2.829c0.778-0.778 2.050-0.778 2.828 0l16.971 16.971c0.778 0.778 0.778 2.051 0 2.828z" fill="#000000"></path>
</svg>
