<?xml version="1.0" encoding="utf-8"?>
<!-- Generated by IcoMoon.io -->
<!DOCTYPE svg PUBLIC "-//W3C//DTD SVG 1.1//EN" "http://www.w3.org/Graphics/SVG/1.1/DTD/svg11.dtd">
<svg version="1.1" xmlns="http://www.w3.org/2000/svg" xmlns:xlink="http://www.w3.org/1999/xlink" width="64" height="64" viewBox="0 0 64 64">
<path d="M37 28h-1v-12c0-6.617-5.383-12-12-12h-8c-6.617 0-12 5.383-12 12v12h-1c-1.65 0-3 1.35-3 3v30c0 1.65 1.35 3 3 3h34c1.65 0 3-1.35 3-3v-30c0-1.65-1.35-3-3-3zM12 16c0-2.206 1.794-4 4-4h8c2.206 0 4 1.794 4 4v12h-16v-12z" fill="#000000"></path>
</svg>
