<?xml version="1.0" encoding="utf-8"?>
<!-- Generated by IcoMoon.io -->
<!DOCTYPE svg PUBLIC "-//W3C//DTD SVG 1.1//EN" "http://www.w3.org/Graphics/SVG/1.1/DTD/svg11.dtd">
<svg version="1.1" xmlns="http://www.w3.org/2000/svg" xmlns:xlink="http://www.w3.org/1999/xlink" width="64" height="64" viewBox="0 0 64 64">
<path d="M56 28h1c1.65 0 3-1.35 3-3v-10c0-1.65-1.35-3-3-3h-1v-12h-8v12h-1c-1.65 0-3 1.35-3 3v10c0 1.65 1.35 3 3 3h1v36h8v-36zM48 16h8v8h-8v-8zM37 52c1.65 0 3-1.35 3-3v-10c0-1.65-1.35-3-3-3h-1v-36h-8v36h-1c-1.65 0-3 1.35-3 3v10c0 1.65 1.35 3 3 3h1v12h8v-12h1zM28 40h8v8h-8v-8zM17 28c1.65 0 3-1.35 3-3v-10c0-1.65-1.35-3-3-3h-1v-12h-8v12h-1c-1.65 0-3 1.35-3 3v10c0 1.65 1.35 3 3 3h1v36h8v-36h1zM8 16h8v8h-8v-8z" fill="#000000"></path>
</svg>
