<?xml version="1.0" encoding="utf-8"?>
<!-- Generated by IcoMoon.io -->
<!DOCTYPE svg PUBLIC "-//W3C//DTD SVG 1.1//EN" "http://www.w3.org/Graphics/SVG/1.1/DTD/svg11.dtd">
<svg version="1.1" xmlns="http://www.w3.org/2000/svg" xmlns:xlink="http://www.w3.org/1999/xlink" width="64" height="64" viewBox="0 0 64 64">
<path d="M22.733 45.128l2.581-3.614-2.828-2.828-3.614 2.581c-0.67-0.375-1.388-0.673-2.142-0.887l-0.73-4.38h-4l-0.73 4.38c-0.754 0.214-1.472 0.512-2.142 0.887l-3.614-2.581-2.829 2.828 2.581 3.614c-0.375 0.67-0.673 1.388-0.887 2.142l-4.38 0.73v4l4.38 0.73c0.214 0.754 0.512 1.471 0.887 2.142l-2.581 3.614 2.828 2.828 3.614-2.581c0.67 0.375 1.388 0.673 2.142 0.887l0.73 4.38h4l0.73-4.38c0.754-0.214 1.471-0.512 2.142-0.887l3.614 2.581 2.828-2.828-2.581-3.614c0.375-0.67 0.673-1.388 0.887-2.142l4.381-0.73v-4l-4.38-0.73c-0.214-0.754-0.512-1.471-0.887-2.142zM14 54c-2.209 0-4-1.791-4-4s1.791-4 4-4 4 1.791 4 4-1.791 4-4 4zM64 24v-4l-4.211-0.766c-0.078-0.503-0.177-0.999-0.295-1.487l3.597-2.319-1.531-3.696-4.184 0.904c-0.263-0.432-0.545-0.851-0.843-1.258l2.438-3.521-2.828-2.828-3.521 2.438c-0.407-0.298-0.826-0.58-1.258-0.843l0.904-4.184-3.696-1.531-2.319 3.597c-0.488-0.118-0.984-0.218-1.487-0.295l-0.766-4.211h-4l-0.766 4.211c-0.503 0.078-0.998 0.177-1.487 0.295l-2.319-3.597-3.695 1.531 0.904 4.184c-0.432 0.263-0.851 0.545-1.258 0.843l-3.521-2.438-2.828 2.828 2.438 3.521c-0.298 0.407-0.58 0.826-0.843 1.258l-4.184-0.904-1.531 3.696 3.597 2.319c-0.118 0.488-0.218 0.984-0.295 1.487l-4.212 0.766v4l4.211 0.766c0.078 0.503 0.177 0.999 0.295 1.487l-3.597 2.319 1.531 3.696 4.184-0.904c0.264 0.432 0.546 0.851 0.843 1.258l-2.438 3.521 2.828 2.828 3.521-2.438c0.407 0.298 0.826 0.58 1.258 0.843l-0.904 4.184 3.695 1.531 2.319-3.597c0.488 0.118 0.984 0.218 1.487 0.295l0.766 4.212h4l0.766-4.211c0.503-0.078 0.998-0.177 1.487-0.295l2.319 3.597 3.696-1.531-0.904-4.184c0.432-0.264 0.851-0.545 1.258-0.843l3.521 2.438 2.828-2.828-2.438-3.521c0.298-0.407 0.58-0.826 0.843-1.258l4.184 0.904 1.531-3.696-3.597-2.319c0.118-0.488 0.218-0.984 0.295-1.487l4.211-0.766zM42 30.7c-4.805 0-8.7-3.895-8.7-8.7s3.895-8.7 8.7-8.7 8.7 3.895 8.7 8.7c0 4.805-3.895 8.7-8.7 8.7z" fill="#000000"></path>
</svg>
