<?xml version="1.0" encoding="utf-8"?>
<!-- Generated by IcoMoon.io -->
<!DOCTYPE svg PUBLIC "-//W3C//DTD SVG 1.1//EN" "http://www.w3.org/Graphics/SVG/1.1/DTD/svg11.dtd">
<svg version="1.1" xmlns="http://www.w3.org/2000/svg" xmlns:xlink="http://www.w3.org/1999/xlink" width="64" height="64" viewBox="0 0 64 64">
<path d="M16 12l-8-8h-4v4l8 8zM20 0h4v8h-4zM36 20h8v4h-8zM40 8v-4h-4l-8 8 4 4zM0 20h8v4h-8zM20 36h4v8h-4zM4 36v4h4l8-8-4-4zM63.125 55.125l-39.757-39.757c-1.167-1.167-3.076-1.167-4.243 0l-3.757 3.757c-1.167 1.167-1.167 3.076 0 4.243l39.757 39.757c1.167 1.167 3.076 1.167 4.243 0l3.757-3.757c1.167-1.167 1.167-3.076 0-4.243zM30 34l-12-12 4-4 12 12-4 4z" fill="#000000"></path>
</svg>
