<?xml version="1.0" encoding="utf-8"?>
<!-- Generated by IcoMoon.io -->
<!DOCTYPE svg PUBLIC "-//W3C//DTD SVG 1.1//EN" "http://www.w3.org/Graphics/SVG/1.1/DTD/svg11.dtd">
<svg version="1.1" xmlns="http://www.w3.org/2000/svg" xmlns:xlink="http://www.w3.org/1999/xlink" width="64" height="64" viewBox="0 0 64 64">
<path d="M56 16h-12v-8c0-2.2-1.8-4-4-4h-16c-2.2 0-4 1.8-4 4v8h-12c-4.4 0-8 3.6-8 8v32c0 4.4 3.6 8 8 8h48c4.4 0 8-3.6 8-8v-32c0-4.4-3.6-8-8-8zM24 8h16v8h-16v-8zM48 44h-12v12h-8v-12h-12v-8h12v-12h8v12h12v8z" fill="#000000"></path>
</svg>
