<?xml version="1.0" encoding="utf-8"?>
<!-- Generated by IcoMoon.io -->
<!DOCTYPE svg PUBLIC "-//W3C//DTD SVG 1.1//EN" "http://www.w3.org/Graphics/SVG/1.1/DTD/svg11.dtd">
<svg version="1.1" xmlns="http://www.w3.org/2000/svg" xmlns:xlink="http://www.w3.org/1999/xlink" width="64" height="64" viewBox="0 0 64 64">
<path d="M64 36v-4h-12.081c-0.366-4.543-1.987-8.689-4.479-12.016h10.121l4.379-17.515-3.881-0.97-3.621 14.485h-10.918c-0.056-0.043-0.112-0.086-0.169-0.129 0.419-1.219 0.648-2.526 0.648-3.887 0-6.61-5.372-11.969-12-11.969s-12 5.359-12 11.969c0 1.361 0.228 2.668 0.648 3.887-0.056 0.043-0.113 0.085-0.169 0.129h-10.918l-3.621-14.485-3.881 0.97 4.379 17.515h10.121c-2.493 3.326-4.113 7.473-4.479 12.015h-12.081v4h12.086c0.238 2.854 0.969 5.551 2.102 7.984h-7.75l-4.379 17.515 3.881 0.97 3.621-14.485h7.022c3.668 4.877 9.212 7.984 15.416 7.984s11.748-3.107 15.416-7.984h7.022l3.621 14.485 3.881-0.97-4.379-17.515h-7.749c1.133-2.434 1.865-5.13 2.102-7.984h12.086z" fill="#000000"></path>
</svg>
