<?xml version="1.0" encoding="utf-8"?>
<!-- Generated by IcoMoon.io -->
<!DOCTYPE svg PUBLIC "-//W3C//DTD SVG 1.1//EN" "http://www.w3.org/Graphics/SVG/1.1/DTD/svg11.dtd">
<svg version="1.1" xmlns="http://www.w3.org/2000/svg" xmlns:xlink="http://www.w3.org/1999/xlink" width="64" height="64" viewBox="0 0 64 64">
<path d="M8 56h56v8h-64v-64h8zM18 52c-3.314 0-6-2.686-6-6s2.686-6 6-6c0.177 0 0.351 0.009 0.524 0.024l6.45-10.749c-0.615-0.942-0.974-2.066-0.974-3.275 0-3.314 2.686-6 6-6s6 2.686 6 6c0 1.209-0.359 2.333-0.974 3.275l6.45 10.749c0.173-0.015 0.347-0.024 0.524-0.024 0.133 0 0.266 0.006 0.397 0.014l10.647-18.633c-0.658-0.963-1.044-2.127-1.044-3.382 0-3.314 2.686-6 6-6s6 2.686 6 6c0 3.314-2.686 6-6 6-0.134 0-0.266-0.006-0.397-0.015l-10.647 18.633c0.658 0.963 1.044 2.127 1.044 3.382 0 3.314-2.686 6-6 6s-6-2.686-6-6c0-1.209 0.359-2.333 0.974-3.275l-6.449-10.749c-0.173 0.015-0.348 0.024-0.524 0.024s-0.351-0.009-0.524-0.024l-6.45 10.749c0.615 0.942 0.974 2.066 0.974 3.275 0 3.314-2.686 6-6 6z" fill="#000000"></path>
</svg>
