<?xml version="1.0" encoding="utf-8"?>
<!-- Generated by IcoMoon.io -->
<!DOCTYPE svg PUBLIC "-//W3C//DTD SVG 1.1//EN" "http://www.w3.org/Graphics/SVG/1.1/DTD/svg11.dtd">
<svg version="1.1" xmlns="http://www.w3.org/2000/svg" xmlns:xlink="http://www.w3.org/1999/xlink" width="64" height="64" viewBox="0 0 64 64">
<path d="M18 24h-12c-1.1 0-2 0.9-2 2v36c0 1.1 0.9 2 2 2h12c1.1 0 2-0.9 2-2v-36c0-1.1-0.9-2-2-2zM18 60h-12v-16h12v16zM38 16h-12c-1.1 0-2 0.9-2 2v44c0 1.1 0.9 2 2 2h12c1.1 0 2-0.9 2-2v-44c0-1.1-0.9-2-2-2zM38 60h-12v-20h12v20zM58 8h-12c-1.1 0-2 0.9-2 2v52c0 1.1 0.9 2 2 2h12c1.1 0 2-0.9 2-2v-52c0-1.1-0.9-2-2-2zM58 60h-12v-24h12v24z" fill="#000000"></path>
</svg>
