<?xml version="1.0" encoding="utf-8"?>
<!-- Generated by IcoMoon.io -->
<!DOCTYPE svg PUBLIC "-//W3C//DTD SVG 1.1//EN" "http://www.w3.org/Graphics/SVG/1.1/DTD/svg11.dtd">
<svg version="1.1" xmlns="http://www.w3.org/2000/svg" xmlns:xlink="http://www.w3.org/1999/xlink" width="64" height="64" viewBox="0 0 64 64">
<path d="M48.22 20c1.133-0.805 2.22-1.701 3.215-2.697 2.088-2.088 3.484-4.656 3.932-7.233 0.491-2.824-0.23-5.446-1.977-7.194-1.394-1.394-3.282-2.13-5.46-2.13-3.102 0-6.37 1.489-8.966 4.085-4.155 4.155-6.577 9.89-7.88 13.983-0.965-4.113-2.888-9.665-6.626-13.404-2.006-2.006-4.57-3.036-6.99-3.036-1.978 0-3.861 0.688-5.266 2.093-3.124 3.124-2.702 8.612 0.943 12.257 1.3 1.3 2.819 2.379 4.42 3.276h-13.564v16h4v28h48v-28h4v-16h-11.78zM42.145 8.014c1.733-1.733 3.895-2.767 5.784-2.767 0.669 0 1.607 0.141 2.278 0.812 1.627 1.627 0.713 5.394-1.955 8.062-2.747 2.747-6.441 4.636-9.652 5.879h-3.167c1.16-3.597 3.254-8.528 6.712-11.986zM14.621 10.056c-0.044-0.57-0.003-1.64 0.762-2.406 0.64-0.64 1.487-0.775 2.084-0.775v0c1.329 0 2.717 0.626 3.808 1.718 2.117 2.117 3.86 5.486 5.042 9.742 0.032 0.115 0.063 0.229 0.093 0.343-0.113-0.030-0.228-0.061-0.343-0.093-4.256-1.181-7.625-2.925-9.742-5.042-0.989-0.989-1.611-2.26-1.705-3.487zM28 60h-16v-26h16v26zM28 32h-20v-8h20v8zM52 60h-16v-26h16v26zM56 32h-20v-8h20v8z" fill="#000000"></path>
</svg>
