<?xml version="1.0" encoding="utf-8"?>
<!-- Generated by IcoMoon.io -->
<!DOCTYPE svg PUBLIC "-//W3C//DTD SVG 1.1//EN" "http://www.w3.org/Graphics/SVG/1.1/DTD/svg11.dtd">
<svg version="1.1" xmlns="http://www.w3.org/2000/svg" xmlns:xlink="http://www.w3.org/1999/xlink" width="64" height="64" viewBox="0 0 64 64">
<path d="M48.611 1.054c-0.349-0.649-1.025-1.054-1.762-1.054h-29.699c-0.736 0-1.413 0.405-1.762 1.054-2.217 4.126-3.389 8.949-3.389 13.947 0 6.588 2.023 12.802 5.697 17.496 2.839 3.628 6.405 6.034 10.303 7.011v20.493h-6c-1.105 0-2 0.895-2 2s0.895 2 2 2h20c1.105 0 2-0.895 2-2s-0.895-2-2-2h-6v-20.493c3.898-0.977 7.464-3.383 10.303-7.011 3.674-4.694 5.697-10.908 5.697-17.496 0-4.997-1.172-9.82-3.389-13.947zM18.381 4h27.238c1.561 3.306 2.381 7.084 2.381 11 0 0.335-0.007 0.668-0.019 1h-31.963c-0.012-0.332-0.018-0.665-0.018-1-0-3.916 0.82-7.694 2.381-11z" fill="#000000"></path>
</svg>
