<?xml version="1.0" encoding="utf-8"?>
<!-- Generated by IcoMoon.io -->
<!DOCTYPE svg PUBLIC "-//W3C//DTD SVG 1.1//EN" "http://www.w3.org/Graphics/SVG/1.1/DTD/svg11.dtd">
<svg version="1.1" xmlns="http://www.w3.org/2000/svg" xmlns:xlink="http://www.w3.org/1999/xlink" width="64" height="64" viewBox="0 0 64 64">
<path d="M55.573 11.236c0.473-0.602 0.561-1.421 0.226-2.11s-1.033-1.126-1.799-1.126h-44c-0.766 0-1.464 0.437-1.799 1.126s-0.247 1.508 0.226 2.11l19.573 24.911v23.854h-6c-1.105 0-2 0.895-2 2s0.895 2 2 2h20c1.105 0 2-0.895 2-2s-0.895-2-2-2h-6v-23.854l19.573-24.911zM49.885 12l-6.286 8h-23.199l-6.286-8h35.77z" fill="#000000"></path>
</svg>
