<?xml version="1.0" encoding="utf-8"?>
<!-- Generated by IcoMoon.io -->
<!DOCTYPE svg PUBLIC "-//W3C//DTD SVG 1.1//EN" "http://www.w3.org/Graphics/SVG/1.1/DTD/svg11.dtd">
<svg version="1.1" xmlns="http://www.w3.org/2000/svg" xmlns:xlink="http://www.w3.org/1999/xlink" width="64" height="64" viewBox="0 0 64 64">
<path d="M60 20h-12v-6c0-5.523-10.745-10-24-10s-24 4.477-24 10v40c0 5.523 10.745 10 24 10s24-4.477 24-10v-6h12c2.209 0 4-1.791 4-4v-20c0-2.209-1.791-4-4-4zM11.004 16.15c-2.312-0.762-3.713-1.578-4.463-2.15 0.75-0.572 2.151-1.388 4.463-2.15 3.621-1.193 8.237-1.85 12.996-1.85s9.375 0.657 12.996 1.85c2.312 0.762 3.713 1.578 4.463 2.15-0.75 0.572-2.151 1.388-4.463 2.15-3.621 1.193-8.237 1.85-12.996 1.85s-9.375-0.657-12.996-1.85zM56 40h-8v-12h8v12z" fill="#000000"></path>
</svg>
