<?xml version="1.0" encoding="utf-8"?>
<!-- Generated by IcoMoon.io -->
<!DOCTYPE svg PUBLIC "-//W3C//DTD SVG 1.1//EN" "http://www.w3.org/Graphics/SVG/1.1/DTD/svg11.dtd">
<svg version="1.1" xmlns="http://www.w3.org/2000/svg" xmlns:xlink="http://www.w3.org/1999/xlink" width="64" height="64" viewBox="0 0 64 64">
<path d="M14 0c-6.628 0-12 6.268-12 14 0 6.62 3.939 12.167 9.232 13.625l-1.987 32.383c-0.135 2.196 1.555 3.992 3.755 3.992h2c2.2 0 3.89-1.797 3.755-3.992l-1.987-32.383c5.293-1.458 9.232-7.005 9.232-13.625 0-7.732-5.372-14-12-14zM54.333 0l-3.333 20h-2.5l-1.667-20h-1.667l-1.667 20h-2.5l-3.333-20h-1.667v26c0 1.105 0.895 2 2 2h5.209l-1.964 32.008c-0.135 2.196 1.555 3.992 3.755 3.992h2c2.2 0 3.89-1.797 3.755-3.992l-1.964-32.008h5.209c1.105 0 2-0.895 2-2v-26h-1.667z" fill="#000000"></path>
</svg>
