<?xml version="1.0" encoding="utf-8"?>
<!-- Generated by IcoMoon.io -->
<!DOCTYPE svg PUBLIC "-//W3C//DTD SVG 1.1//EN" "http://www.w3.org/Graphics/SVG/1.1/DTD/svg11.dtd">
<svg version="1.1" xmlns="http://www.w3.org/2000/svg" xmlns:xlink="http://www.w3.org/1999/xlink" width="64" height="64" viewBox="0 0 64 64">
<path d="M63.208 8.406c-6.922-5.245-17.574-8.377-28.494-8.377-13.508 0-24.514 4.716-30.198 12.939-2.669 3.862-4.146 8.435-4.388 13.592-0.216 4.592 0.555 9.67 2.293 15.134 5.93-17.774 22.489-31.694 41.579-31.694 0 0-17.864 4.702-29.095 19.262-0.007 0.009-0.156 0.193-0.413 0.544-2.255 3.017-4.221 6.448-5.692 10.333-2.492 5.927-4.799 14.059-4.799 23.861h8c0 0-1.214-7.639 0.898-16.424 3.493 0.472 6.616 0.707 9.428 0.707 7.355 0 12.586-1.591 16.462-5.008 3.473-3.061 5.387-7.174 7.414-11.529 3.095-6.651 6.603-14.188 16.791-20.009 0.583-0.333 0.96-0.937 1.004-1.607s-0.252-1.317-0.788-1.723z" fill="#000000"></path>
</svg>
