<?xml version="1.0" encoding="utf-8"?>
<!-- Generated by IcoMoon.io -->
<!DOCTYPE svg PUBLIC "-//W3C//DTD SVG 1.1//EN" "http://www.w3.org/Graphics/SVG/1.1/DTD/svg11.dtd">
<svg version="1.1" xmlns="http://www.w3.org/2000/svg" xmlns:xlink="http://www.w3.org/1999/xlink" width="64" height="64" viewBox="0 0 64 64">
<path d="M32 4c17.673 0 32 14.327 32 32 0 12.050-6.661 22.542-16.501 28h-30.999c-9.839-5.458-16.5-15.95-16.5-28 0-17.673 14.327-32 32-32zM50.12 54.12c4.84-4.84 7.505-11.275 7.505-18.12h-5.625v-4h5.315c-0.438-2.812-1.337-5.509-2.66-8h-6.655v-4h4.018c-0.59-0.735-1.222-1.444-1.898-2.12-2.889-2.889-6.346-5.002-10.12-6.237v4.357h-4v-5.315c-1.311-0.204-2.648-0.31-4-0.31s-2.689 0.106-4 0.31v5.315h-4v-4.357c-3.773 1.235-7.231 3.348-10.12 6.237-0.676 0.676-1.308 1.384-1.898 2.12h4.018v4h-6.655c-1.323 2.491-2.222 5.188-2.66 8h5.315v4h-5.625c0 6.845 2.665 13.28 7.505 18.12 0.669 0.669 1.37 1.295 2.098 1.88h12.022l2.286-32h3.428l2.286 32h12.022c0.727-0.585 1.428-1.211 2.097-1.88z" fill="#000000"></path>
</svg>
