<?xml version="1.0" encoding="utf-8"?>
<!-- Generated by IcoMoon.io -->
<!DOCTYPE svg PUBLIC "-//W3C//DTD SVG 1.1//EN" "http://www.w3.org/Graphics/SVG/1.1/DTD/svg11.dtd">
<svg version="1.1" xmlns="http://www.w3.org/2000/svg" xmlns:xlink="http://www.w3.org/1999/xlink" width="64" height="64" viewBox="0 0 64 64">
<path d="M32 0c-17.673 0-32 14.327-32 32s14.327 32 32 32 32-14.327 32-32-14.327-32-32-32zM18.927 52.135c0.694-1.914 1.073-3.98 1.073-6.135 0-7.772-4.926-14.393-11.825-16.913 0.638-5.308 3.016-10.219 6.855-14.058 4.533-4.533 10.56-7.029 16.971-7.029s12.438 2.497 16.971 7.029c3.839 3.839 6.217 8.75 6.855 14.058-6.9 2.52-11.826 9.141-11.826 16.913 0 2.154 0.379 4.22 1.073 6.134-3.857 2.515-8.361 3.866-13.073 3.866s-9.216-1.35-13.073-3.865zM34.485 40.062c0.867 0.218 1.515 1.005 1.515 1.938v4c0 1.1-0.9 2-2 2h-4c-1.1 0-2-0.9-2-2v-4c0-0.933 0.648-1.719 1.515-1.938l1.485-28.062h2l1.485 28.062z" fill="#000000"></path>
</svg>
