<?xml version="1.0" encoding="utf-8"?>
<!-- Generated by IcoMoon.io -->
<!DOCTYPE svg PUBLIC "-//W3C//DTD SVG 1.1//EN" "http://www.w3.org/Graphics/SVG/1.1/DTD/svg11.dtd">
<svg version="1.1" xmlns="http://www.w3.org/2000/svg" xmlns:xlink="http://www.w3.org/1999/xlink" width="64" height="64" viewBox="0 0 64 64">
<path d="M63.136 57.234l-34.29-31.216 1.596-1.6c1.306-1.31 2.012-3.002 2.12-4.726 0.063-0.028 0.125-0.057 0.185-0.090l6.437-4.025c0.871-1.024 0.807-2.642-0.143-3.594l-11.195-11.226c-0.949-0.952-2.562-1.016-3.584-0.143l-4.015 6.454c-0.033 0.060-0.062 0.123-0.090 0.186-1.719 0.109-3.406 0.816-4.712 2.125l-6.089 6.106c-1.306 1.31-2.011 3.002-2.12 4.725-0.063 0.028-0.125 0.057-0.185 0.090l-6.437 4.025c-0.871 1.024-0.807 2.642 0.142 3.593l11.195 11.225c0.95 0.952 2.562 1.016 3.584 0.143l4.014-6.454c0.033-0.060 0.062-0.123 0.090-0.185 1.719-0.109 3.407-0.816 4.712-2.125l1.768-1.773 31.133 34.382c0.902 0.996 2.294 1.157 3.092 0.357l3.147-3.156c0.798-0.8 0.637-2.196-0.357-3.101z" fill="#000000"></path>
</svg>
