<?xml version="1.0" encoding="utf-8"?>
<!-- Generated by IcoMoon.io -->
<!DOCTYPE svg PUBLIC "-//W3C//DTD SVG 1.1//EN" "http://www.w3.org/Graphics/SVG/1.1/DTD/svg11.dtd">
<svg version="1.1" xmlns="http://www.w3.org/2000/svg" xmlns:xlink="http://www.w3.org/1999/xlink" width="64" height="64" viewBox="0 0 64 64">
<path d="M20.063 64c-4.265-8.876-1.994-13.961 1.284-18.753 3.59-5.247 4.515-10.442 4.515-10.442s2.822 3.669 1.693 9.407c4.986-5.55 5.926-14.392 5.174-17.779 11.27 7.876 16.086 24.928 9.595 37.567 34.523-19.533 8.587-48.761 4.072-52.053 1.505 3.292 1.791 8.866-1.25 11.57-5.147-19.517-17.873-23.517-17.873-23.517 1.505 10.065-5.456 21.072-12.168 29.296-0.236-4.014-0.486-6.783-2.597-10.624-0.474 7.291-6.046 13.234-7.555 20.539-2.044 9.893 1.531 17.136 15.109 24.789z" fill="#000000"></path>
</svg>
