<?xml version="1.0" encoding="utf-8"?>
<!-- Generated by IcoMoon.io -->
<!DOCTYPE svg PUBLIC "-//W3C//DTD SVG 1.1//EN" "http://www.w3.org/Graphics/SVG/1.1/DTD/svg11.dtd">
<svg version="1.1" xmlns="http://www.w3.org/2000/svg" xmlns:xlink="http://www.w3.org/1999/xlink" width="64" height="64" viewBox="0 0 64 64">
<path d="M56 0h-16l4 36c0 6.627-5.373 12-12 12s-12-5.373-12-12l4-36h-16l-4 36c0 15.464 12.536 28 28 28s28-12.536 28-28l-4-36zM48.617 52.617c-4.439 4.438-10.34 6.883-16.617 6.883s-12.178-2.444-16.617-6.883c-4.382-4.382-6.821-10.191-6.882-16.378l2.256-20.301h6.945l-2.201 19.813v0.249c0 4.407 1.716 8.551 4.833 11.667s7.26 4.833 11.667 4.833 8.551-1.716 11.667-4.833c3.117-3.116 4.833-7.26 4.833-11.667v-0.249l-0.028-0.248-2.174-19.566h6.945l2.256 20.301c-0.061 6.188-2.5 11.996-6.882 16.379z" fill="#000000"></path>
</svg>
