<?xml version="1.0" encoding="utf-8"?>
<!-- Generated by IcoMoon.io -->
<!DOCTYPE svg PUBLIC "-//W3C//DTD SVG 1.1//EN" "http://www.w3.org/Graphics/SVG/1.1/DTD/svg11.dtd">
<svg version="1.1" xmlns="http://www.w3.org/2000/svg" xmlns:xlink="http://www.w3.org/1999/xlink" width="64" height="64" viewBox="0 0 64 64">
<path d="M8 20v40c0 2.2 1.8 4 4 4h36c2.2 0 4-1.8 4-4v-40h-44zM20 56h-4v-28h4v28zM28 56h-4v-28h4v28zM36 56h-4v-28h4v28zM44 56h-4v-28h4v28z" fill="#000000"></path>
<path d="M53 8h-13v-5c0-1.65-1.35-3-3-3h-14c-1.65 0-3 1.35-3 3v5h-13c-1.65 0-3 1.35-3 3v5h52v-5c0-1.65-1.35-3-3-3zM36 8h-12v-3.95h12v3.95z" fill="#000000"></path>
</svg>
