<?xml version="1.0" encoding="utf-8"?>
<!-- Generated by IcoMoon.io -->
<!DOCTYPE svg PUBLIC "-//W3C//DTD SVG 1.1//EN" "http://www.w3.org/Graphics/SVG/1.1/DTD/svg11.dtd">
<svg version="1.1" xmlns="http://www.w3.org/2000/svg" xmlns:xlink="http://www.w3.org/1999/xlink" width="64" height="64" viewBox="0 0 64 64">
<path d="M60 16h-16v-4c0-2.2-1.8-4-4-4h-16c-2.2 0-4 1.8-4 4v4h-16c-2.2 0-4 1.8-4 4v36c0 2.2 1.8 4 4 4h56c2.2 0 4-1.8 4-4v-36c0-2.2-1.8-4-4-4zM24 12.007c0.002-0.002 0.005-0.005 0.007-0.007h15.986c0.003 0.002 0.005 0.005 0.007 0.007v3.993h-16v-3.993zM60 32h-8v6c0 1.1-0.9 2-2 2h-4c-1.1 0-2-0.9-2-2v-6h-24v6c0 1.1-0.9 2-2 2h-4c-1.1 0-2-0.9-2-2v-6h-8v-4h56v4z" fill="#000000"></path>
</svg>
