<?xml version="1.0" encoding="utf-8"?>
<!-- Generated by IcoMoon.io -->
<!DOCTYPE svg PUBLIC "-//W3C//DTD SVG 1.1//EN" "http://www.w3.org/Graphics/SVG/1.1/DTD/svg11.dtd">
<svg version="1.1" xmlns="http://www.w3.org/2000/svg" xmlns:xlink="http://www.w3.org/1999/xlink" width="64" height="64" viewBox="0 0 64 64">
<path d="M64 36l-8-16h-12v-8c0-2.2-1.8-4-4-4h-36c-2.2 0-4 1.8-4 4v32l4 4h5.073c-0.681 1.177-1.073 2.542-1.073 4 0 4.418 3.582 8 8 8s8-3.582 8-8c0-1.458-0.392-2.823-1.073-4h22.146c-0.681 1.177-1.073 2.542-1.073 4 0 4.418 3.582 8 8 8s8-3.582 8-8c0-1.458-0.392-2.823-1.073-4h5.073v-12zM44 36v-12h8.292l6 12h-14.292z" fill="#000000"></path>
</svg>
