<?xml version="1.0" encoding="utf-8"?>
<!-- Generated by IcoMoon.io -->
<!DOCTYPE svg PUBLIC "-//W3C//DTD SVG 1.1//EN" "http://www.w3.org/Graphics/SVG/1.1/DTD/svg11.dtd">
<svg version="1.1" xmlns="http://www.w3.org/2000/svg" xmlns:xlink="http://www.w3.org/1999/xlink" width="64" height="64" viewBox="0 0 64 64">
<path d="M64 28h-6.308c-1.727-11.14-10.552-19.965-21.692-21.692v-6.308h-8v6.308c-11.14 1.727-19.965 10.552-21.692 21.692h-6.308v8h6.308c1.727 11.14 10.552 19.965 21.692 21.692v6.308h8v-6.308c11.14-1.727 19.965-10.552 21.692-21.692h6.308v-8zM49.551 28h-6.235c-1.205-3.409-3.907-6.111-7.316-7.316v-6.235c6.72 1.531 12.021 6.832 13.551 13.551zM32 36c-2.209 0-4-1.791-4-4s1.791-4 4-4c2.209 0 4 1.791 4 4s-1.791 4-4 4zM28 14.449v6.235c-3.409 1.205-6.111 3.907-7.316 7.316h-6.235c1.531-6.72 6.832-12.021 13.551-13.551zM14.449 36h6.235c1.205 3.409 3.907 6.111 7.316 7.316v6.235c-6.72-1.531-12.021-6.832-13.551-13.551zM36 49.551v-6.235c3.409-1.205 6.111-3.907 7.316-7.316h6.235c-1.531 6.72-6.832 12.021-13.551 13.551z" fill="#000000"></path>
</svg>
