<?xml version="1.0" encoding="utf-8"?>
<!-- Generated by IcoMoon.io -->
<!DOCTYPE svg PUBLIC "-//W3C//DTD SVG 1.1//EN" "http://www.w3.org/Graphics/SVG/1.1/DTD/svg11.dtd">
<svg version="1.1" xmlns="http://www.w3.org/2000/svg" xmlns:xlink="http://www.w3.org/1999/xlink" width="64" height="64" viewBox="0 0 64 64">
<path d="M40 9.162v8.497c2.263 0.988 4.344 2.401 6.142 4.199 3.778 3.777 5.858 8.8 5.858 14.142s-2.080 10.365-5.858 14.142c-3.777 3.777-8.8 5.858-14.142 5.858s-10.365-2.080-14.142-5.858c-3.777-3.777-5.858-8.8-5.858-14.142s2.080-10.365 5.858-14.142c1.798-1.798 3.879-3.211 6.142-4.199v-8.497c-11.566 3.443-20 14.155-20 26.838 0 15.464 12.536 28 28 28s28-12.536 28-28c0-12.684-8.434-23.396-20-26.838zM28 0h8v32h-8z" fill="#000000"></path>
</svg>
