<?xml version="1.0" encoding="utf-8"?>
<!-- Generated by IcoMoon.io -->
<!DOCTYPE svg PUBLIC "-//W3C//DTD SVG 1.1//EN" "http://www.w3.org/Graphics/SVG/1.1/DTD/svg11.dtd">
<svg version="1.1" xmlns="http://www.w3.org/2000/svg" xmlns:xlink="http://www.w3.org/1999/xlink" width="64" height="64" viewBox="0 0 64 64">
<path d="M64 17.656l-5.657-5.656-11.172 11.172-6.344-6.344 11.172-11.172-5.656-5.656-11.172 11.172-7.172-7.172-5.414 5.414 32 32 5.414-5.414-7.172-7.172 11.172-11.172z" fill="#000000"></path>
<path d="M49.627 42.112l-27.739-27.739c-5.989 7.181-12.783 18.278-8.087 27.826l-8.265 8.266c-1.944 1.945-1.944 5.127 0 7.071l0.929 0.929c1.945 1.945 5.127 1.945 7.071 0l8.265-8.265c9.548 4.696 20.645-2.098 27.827-8.087z" fill="#000000"></path>
</svg>
