<?xml version="1.0" encoding="utf-8"?>
<!-- Generated by IcoMoon.io -->
<!DOCTYPE svg PUBLIC "-//W3C//DTD SVG 1.1//EN" "http://www.w3.org/Graphics/SVG/1.1/DTD/svg11.dtd">
<svg version="1.1" xmlns="http://www.w3.org/2000/svg" xmlns:xlink="http://www.w3.org/1999/xlink" width="64" height="64" viewBox="0 0 64 64">
<path d="M58 8h-18c0-4.418-3.582-8-8-8s-8 3.582-8 8h-18c-1.104 0-2 0.896-2 2v52c0 1.105 0.896 2 2 2h52c1.105 0 2-0.895 2-2v-52c0-1.104-0.895-2-2-2zM32 4c2.209 0 4 1.791 4 4s-1.791 4-4 4c-2.209 0-4-1.791-4-4s1.791-4 4-4zM56 60h-48v-48h8v6c0 1.105 0.895 2 2 2h28c1.105 0 2-0.895 2-2v-6h8v48z" fill="#000000"></path>
<path d="M28 53.657l-12.828-14.828 3.657-3.657 9.172 7.172 17.171-15.172 3.657 3.657z" fill="#000000"></path>
</svg>
