<?xml version="1.0" encoding="utf-8"?>
<!-- Generated by IcoMoon.io -->
<!DOCTYPE svg PUBLIC "-//W3C//DTD SVG 1.1//EN" "http://www.w3.org/Graphics/SVG/1.1/DTD/svg11.dtd">
<svg version="1.1" xmlns="http://www.w3.org/2000/svg" xmlns:xlink="http://www.w3.org/1999/xlink" width="64" height="64" viewBox="0 0 64 64">
<path d="M61 48h-1v-13c0-3.86-3.14-7-7-7h-17v-8h1c1.65 0 3-1.35 3-3v-10c0-1.65-1.35-3-3-3h-10c-1.65 0-3 1.35-3 3v10c0 1.65 1.35 3 3 3h1v8h-17c-3.86 0-7 3.14-7 7v13h-1c-1.65 0-3 1.35-3 3v10c0 1.65 1.35 3 3 3h10c1.65 0 3-1.35 3-3v-10c0-1.65-1.35-3-3-3h-1v-12h16v12h-1c-1.65 0-3 1.35-3 3v10c0 1.65 1.35 3 3 3h10c1.65 0 3-1.35 3-3v-10c0-1.65-1.35-3-3-3h-1v-12h16v12h-1c-1.65 0-3 1.35-3 3v10c0 1.65 1.35 3 3 3h10c1.65 0 3-1.35 3-3v-10c0-1.65-1.35-3-3-3zM12 60h-8v-8h8v8zM36 60h-8v-8h8v8zM28 16v-8h8v8h-8zM60 60h-8v-8h8v8z" fill="#000000"></path>
</svg>
