<?xml version="1.0" encoding="utf-8"?>
<!-- Generated by IcoMoon.io -->
<!DOCTYPE svg PUBLIC "-//W3C//DTD SVG 1.1//EN" "http://www.w3.org/Graphics/SVG/1.1/DTD/svg11.dtd">
<svg version="1.1" xmlns="http://www.w3.org/2000/svg" xmlns:xlink="http://www.w3.org/1999/xlink" width="64" height="64" viewBox="0 0 64 64">
<path d="M64 41.096c0-5.131-3.542-9.431-8.312-10.593-0.203-8.044-6.779-14.504-14.866-14.504-4.737 0-8.954 2.218-11.678 5.671-1.528-1.975-3.918-3.247-6.607-3.247-4.613 0-8.353 3.742-8.353 8.358 0 0.402 0.030 0.797 0.085 1.185-0.701-0.127-1.423-0.196-2.161-0.196-6.687-0-12.108 5.424-12.108 12.115s5.421 12.115 12.108 12.115l41.016-0.001c6.009-0.011 10.876-4.888 10.876-10.903z" fill="#000000"></path>
</svg>
