<?xml version="1.0" encoding="utf-8"?>
<!-- Generated by IcoMoon.io -->
<!DOCTYPE svg PUBLIC "-//W3C//DTD SVG 1.1//EN" "http://www.w3.org/Graphics/SVG/1.1/DTD/svg11.dtd">
<svg version="1.1" xmlns="http://www.w3.org/2000/svg" xmlns:xlink="http://www.w3.org/1999/xlink" width="64" height="64" viewBox="0 0 64 64">
<path d="M55.767 32.156c0.153-0.694 0.233-1.415 0.233-2.156 0-5.523-4.477-10-10-10-0.889 0-1.751 0.117-2.571 0.334-1.55-4.835-6.081-8.335-11.429-8.335-5.459 0-10.066 3.646-11.52 8.636-1.421-0.414-2.925-0.636-4.48-0.636-8.836 0-16 7.163-16 16s7.163 16 16 16h38c5.523 0 10-4.477 10-10 0-4.92-3.553-9.010-8.233-9.844zM26 48l-10-10 4-4 6 6 14-14 4 4-18 18z" fill="#000000"></path>
</svg>
