<?xml version="1.0" encoding="utf-8"?>
<!-- Generated by IcoMoon.io -->
<!DOCTYPE svg PUBLIC "-//W3C//DTD SVG 1.1//EN" "http://www.w3.org/Graphics/SVG/1.1/DTD/svg11.dtd">
<svg version="1.1" xmlns="http://www.w3.org/2000/svg" xmlns:xlink="http://www.w3.org/1999/xlink" width="64" height="64" viewBox="0 0 64 64">
<path d="M30 4c-16.569 0-30 13.431-30 30s13.431 30 30 30c16.569 0 30-13.431 30-30s-13.431-30-30-30zM46.974 44c0.536-2.528 0.875-5.212 0.985-8h7.965c-0.209 2.762-0.852 5.445-1.917 8h-7.033zM13.026 24c-0.536 2.528-0.875 5.212-0.985 8h-7.965c0.208-2.762 0.851-5.445 1.917-8h7.033zM42.877 24c0.601 2.56 0.962 5.241 1.080 8h-11.957v-8h10.877zM32 20v-11.709c0.912 0.265 1.815 0.711 2.702 1.336 1.661 1.171 3.251 2.976 4.596 5.218 0.93 1.55 1.734 3.276 2.406 5.155h-9.704zM20.702 14.845c1.346-2.242 2.935-4.047 4.596-5.218 0.886-0.625 1.79-1.070 2.702-1.336v11.709h-9.704c0.672-1.879 1.476-3.605 2.406-5.155zM28 24v8h-11.957c0.117-2.759 0.479-5.44 1.080-8h10.877zM5.993 44c-1.066-2.555-1.709-5.238-1.917-8h7.965c0.11 2.788 0.449 5.472 0.985 8h-7.033zM16.043 36h11.957v8h-10.877c-0.601-2.56-0.962-5.241-1.080-8zM28 48v11.709c-0.912-0.265-1.815-0.711-2.702-1.336-1.662-1.171-3.251-2.976-4.596-5.218-0.93-1.55-1.734-3.276-2.406-5.155h9.704zM39.298 53.155c-1.346 2.242-2.935 4.047-4.596 5.218-0.886 0.625-1.79 1.070-2.702 1.336v-11.709h9.704c-0.672 1.879-1.476 3.605-2.406 5.155zM32 44v-8h11.957c-0.117 2.759-0.479 5.44-1.080 8h-10.877zM47.959 32c-0.11-2.788-0.449-5.472-0.985-8h7.033c1.066 2.555 1.709 5.238 1.917 8h-7.965zM51.916 20h-5.994c-1.165-3.673-2.773-6.893-4.707-9.464 2.659 1.271 5.066 2.976 7.17 5.079 1.343 1.342 2.523 2.809 3.531 4.385zM11.615 15.615c2.104-2.104 4.511-3.808 7.17-5.079-1.934 2.571-3.542 5.792-4.707 9.464h-5.994c1.009-1.576 2.189-3.042 3.531-4.385zM8.084 48h5.994c1.165 3.673 2.774 6.893 4.707 9.464-2.659-1.271-5.066-2.976-7.17-5.080-1.342-1.342-2.523-2.809-3.531-4.385zM48.385 52.385c-2.103 2.104-4.511 3.808-7.17 5.080 1.934-2.571 3.542-5.792 4.707-9.464h5.994c-1.009 1.576-2.189 3.042-3.531 4.385z" fill="#000000"></path>
</svg>
