<?xml version="1.0" encoding="utf-8"?>
<!-- Generated by IcoMoon.io -->
<!DOCTYPE svg PUBLIC "-//W3C//DTD SVG 1.1//EN" "http://www.w3.org/Graphics/SVG/1.1/DTD/svg11.dtd">
<svg version="1.1" xmlns="http://www.w3.org/2000/svg" xmlns:xlink="http://www.w3.org/1999/xlink" width="64" height="64" viewBox="0 0 64 64">
<path d="M32 0c-17.673 0-32 14.327-32 32s14.327 32 32 32 32-14.327 32-32-14.327-32-32-32zM32 60c-3.935 0-7.68-0.813-11.077-2.278l14.572-16.393c0.325-0.366 0.505-0.839 0.505-1.329v-6c0-1.105-0.895-2-2-2-7.062 0-14.513-7.341-14.586-7.414-0.375-0.375-0.884-0.586-1.414-0.586h-8c-1.104 0-2 0.895-2 2v12c0 0.758 0.428 1.45 1.106 1.789l6.894 3.447v11.743c-7.253-5.060-12-13.465-12-22.979 0-4.295 0.968-8.363 2.696-12h7.304c0.53 0 1.039-0.211 1.414-0.586l8-8c0.375-0.375 0.586-0.884 0.586-1.414v-4.838c2.535-0.755 5.22-1.162 8-1.162 4.4 0 8.563 1.016 12.268 2.825-0.259 0.219-0.511 0.448-0.753 0.69-2.267 2.267-3.515 5.28-3.515 8.485s1.248 6.219 3.515 8.485c2.277 2.277 5.326 3.517 8.477 3.516 0.198 0 0.396-0.005 0.595-0.015 0.863 3.238 2.422 11.666-0.525 23.271-0.028 0.109-0.044 0.218-0.053 0.327-5.083 5.193-12.169 8.416-20.009 8.416z" fill="#000000"></path>
</svg>
