<?xml version="1.0" encoding="utf-8"?>
<!-- Generated by IcoMoon.io -->
<!DOCTYPE svg PUBLIC "-//W3C//DTD SVG 1.1//EN" "http://www.w3.org/Graphics/SVG/1.1/DTD/svg11.dtd">
<svg version="1.1" xmlns="http://www.w3.org/2000/svg" xmlns:xlink="http://www.w3.org/1999/xlink" width="64" height="64" viewBox="0 0 64 64">
<path d="M27.515 39.735c-0.832 0-1.663-0.317-2.298-0.952-5.946-5.946-5.946-15.621 0-21.567l12-12c2.88-2.88 6.71-4.467 10.783-4.467s7.903 1.586 10.784 4.466c5.946 5.946 5.946 15.621 0 21.567l-5.485 5.485c-1.269 1.269-3.327 1.269-4.596 0s-1.269-3.327 0-4.596l5.485-5.485c3.412-3.412 3.412-8.963 0-12.374-1.653-1.653-3.85-2.563-6.187-2.563s-4.535 0.91-6.187 2.563l-12 12c-3.412 3.412-3.412 8.963 0 12.374 1.269 1.269 1.269 3.327 0 4.596-0.634 0.635-1.466 0.952-2.298 0.952z" fill="#000000"></path>
<path d="M16 63.25c-4.073 0-7.903-1.586-10.783-4.466-5.946-5.946-5.946-15.621 0-21.567l5.485-5.485c1.269-1.269 3.327-1.269 4.596 0s1.269 3.327 0 4.596l-5.485 5.485c-3.412 3.412-3.412 8.963 0 12.374 1.652 1.653 3.85 2.563 6.187 2.563s4.535-0.91 6.187-2.563l12-12c3.412-3.412 3.412-8.963 0-12.374-1.269-1.269-1.269-3.327 0-4.596s3.327-1.269 4.596 0c5.946 5.946 5.946 15.621 0 21.567l-12 12c-2.881 2.88-6.71 4.467-10.784 4.467z" fill="#000000"></path>
</svg>
