<?xml version="1.0" encoding="utf-8"?>
<!-- Generated by IcoMoon.io -->
<!DOCTYPE svg PUBLIC "-//W3C//DTD SVG 1.1//EN" "http://www.w3.org/Graphics/SVG/1.1/DTD/svg11.dtd">
<svg version="1.1" xmlns="http://www.w3.org/2000/svg" xmlns:xlink="http://www.w3.org/1999/xlink" width="64" height="64" viewBox="0 0 64 64">
<path d="M0 0h8v64h-8v-64z" fill="#000000"></path>
<path d="M52 40.188c5.164 0 9.661-1.249 12-3.094v-32c-2.339 1.845-6.836 3.094-12 3.094s-9.661-1.249-12-3.094v32c2.339 1.845 6.836 3.094 12 3.094z" fill="#000000"></path>
<path d="M38 2.033c-2.932-1.246-7.22-2.033-12-2.033-6.025 0-11.271 1.249-14 3.094v32c2.729-1.845 7.975-3.094 14-3.094 4.78 0 9.068 0.787 12 2.033v-32z" fill="#000000"></path>
</svg>
