<?xml version="1.0" encoding="utf-8"?>
<!-- Generated by IcoMoon.io -->
<!DOCTYPE svg PUBLIC "-//W3C//DTD SVG 1.1//EN" "http://www.w3.org/Graphics/SVG/1.1/DTD/svg11.dtd">
<svg version="1.1" xmlns="http://www.w3.org/2000/svg" xmlns:xlink="http://www.w3.org/1999/xlink" width="64" height="64" viewBox="0 0 64 64">
<path d="M41.614 20.441l-4.059-4.058-20.301 20.296c-3.363 3.362-3.363 8.816 0 12.178s8.816 3.362 12.18 0l24.361-24.357c5.607-5.604 5.607-14.691 0-20.295-5.604-5.606-14.694-5.606-20.299 0l-25.577 25.574c-0.018 0.019-0.038 0.036-0.055 0.053-7.819 7.818-7.819 20.491 0 28.307 7.816 7.816 20.492 7.816 28.312 0 0.017-0.017 0.032-0.035 0.051-0.055l0.002 0.002 17.458-17.456-4.062-4.057-17.458 17.454c-0.019 0.017-0.035 0.036-0.053 0.053-5.567 5.566-14.624 5.566-20.192 0-5.566-5.565-5.566-14.62 0-20.186 0.019-0.019 0.038-0.036 0.056-0.053l-0.003-0.004 25.58-25.573c3.357-3.359 8.822-3.359 12.18 0 3.357 3.358 3.357 8.822 0 12.177l-24.361 24.356c-1.121 1.12-2.941 1.12-4.061 0-1.118-1.118-1.118-2.94 0-4.057l20.3-20.299z" fill="#000000"></path>
</svg>
