<?xml version="1.0" encoding="utf-8"?>
<!-- Generated by IcoMoon.io -->
<!DOCTYPE svg PUBLIC "-//W3C//DTD SVG 1.1//EN" "http://www.w3.org/Graphics/SVG/1.1/DTD/svg11.dtd">
<svg version="1.1" xmlns="http://www.w3.org/2000/svg" xmlns:xlink="http://www.w3.org/1999/xlink" width="64" height="64" viewBox="0 0 64 64">
<path d="M32 12c-13.957 0-26.055 8.128-32 20 5.945 11.872 18.043 20 32 20s26.055-8.128 32-20c-5.945-11.872-18.043-20-32-20zM47.778 22.607c3.76 2.398 6.946 5.611 9.34 9.393-2.393 3.783-5.58 6.995-9.34 9.394-4.725 3.014-10.181 4.606-15.778 4.606s-11.054-1.593-15.778-4.606c-3.76-2.398-6.946-5.611-9.339-9.394 2.393-3.783 5.58-6.995 9.34-9.393 0.245-0.156 0.492-0.308 0.741-0.456-0.622 1.708-0.963 3.551-0.963 5.475 0 8.836 7.163 16 16 16s16-7.164 16-16c0-1.923-0.341-3.767-0.963-5.475 0.249 0.149 0.496 0.3 0.741 0.456v0zM32 26c0 3.314-2.686 6-6 6s-6-2.686-6-6 2.686-6 6-6 6 2.686 6 6z" fill="#000000"></path>
</svg>
