<?xml version="1.0" encoding="utf-8"?>
<!-- Generated by IcoMoon.io -->
<!DOCTYPE svg PUBLIC "-//W3C//DTD SVG 1.1//EN" "http://www.w3.org/Graphics/SVG/1.1/DTD/svg11.dtd">
<svg version="1.1" xmlns="http://www.w3.org/2000/svg" xmlns:xlink="http://www.w3.org/1999/xlink" width="64" height="64" viewBox="0 0 64 64">
<path d="M64 8h-8v-8h-8v8h-8v8h8v8h8v-8h8z" fill="#000000"></path>
<path d="M53.991 27.877c1.152 1.28 2.2 2.658 3.126 4.123-2.393 3.783-5.58 6.995-9.34 9.394-4.725 3.014-10.181 4.606-15.778 4.606s-11.054-1.593-15.778-4.606c-3.76-2.398-6.946-5.611-9.339-9.394 2.393-3.783 5.58-6.995 9.34-9.393 0.245-0.156 0.492-0.308 0.741-0.456-0.623 1.708-0.963 3.551-0.963 5.475 0 8.836 7.164 16 16 16s16-7.164 16-16c0-0.043-0.001-0.086-0.002-0.13-6.83-1.759-11.894-7.914-11.996-15.269-1.314-0.149-2.65-0.226-4.003-0.226-13.957 0-26.055 8.128-32 20 5.945 11.872 18.043 20 32 20s26.055-8.128 32-20c-1.102-2.202-2.417-4.275-3.916-6.191-1.83 1.074-3.892 1.794-6.093 2.068zM26 20c3.314 0 6 2.686 6 6s-2.686 6-6 6-6-2.686-6-6 2.686-6 6-6z" fill="#000000"></path>
</svg>
