<?xml version="1.0" encoding="utf-8"?>
<!-- Generated by IcoMoon.io -->
<!DOCTYPE svg PUBLIC "-//W3C//DTD SVG 1.1//EN" "http://www.w3.org/Graphics/SVG/1.1/DTD/svg11.dtd">
<svg version="1.1" xmlns="http://www.w3.org/2000/svg" xmlns:xlink="http://www.w3.org/1999/xlink" width="64" height="64" viewBox="0 0 64 64">
<path d="M59.121 0.879c-1.172-1.171-3.071-1.171-4.243 0l-12.635 12.635c-3.246-0.985-6.684-1.514-10.243-1.514-13.957 0-26.055 8.128-32 20 2.57 5.133 6.29 9.565 10.814 12.944l-9.935 9.935c-1.172 1.172-1.172 3.071 0 4.243 0.586 0.586 1.353 0.879 2.121 0.879s1.535-0.293 2.121-0.879l54-54c1.172-1.172 1.172-3.071 0-4.243zM26 20c2.64 0 4.88 1.706 5.683 4.075l-7.608 7.608c-2.369-0.802-4.075-3.043-4.075-5.683 0-3.314 2.686-6 6-6zM6.882 32c2.393-3.783 5.58-6.995 9.34-9.393 0.245-0.156 0.492-0.308 0.741-0.456-0.623 1.708-0.963 3.551-0.963 5.475 0 3.431 1.080 6.609 2.919 9.214l-3.808 3.808c-3.278-2.303-6.075-5.243-8.229-8.646z" fill="#000000"></path>
<path d="M48 27.625c0-1.698-0.266-3.333-0.756-4.869l-20.113 20.113c1.535 0.49 3.171 0.756 4.869 0.756 8.836 0 16-7.164 16-16z" fill="#000000"></path>
<path d="M51.877 18.123l-4.335 4.335c0.079 0.049 0.158 0.098 0.237 0.148 3.76 2.398 6.946 5.611 9.34 9.393-2.393 3.783-5.58 6.995-9.34 9.394-4.725 3.014-10.181 4.606-15.778 4.606-2.416 0-4.806-0.297-7.123-0.877l-4.806 4.806c3.732 1.341 7.747 2.072 11.928 2.072 13.957 0 26.055-8.128 32-20-2.814-5.62-7.007-10.4-12.123-13.877z" fill="#000000"></path>
</svg>
