<?xml version="1.0" encoding="utf-8"?>
<!-- Generated by IcoMoon.io -->
<!DOCTYPE svg PUBLIC "-//W3C//DTD SVG 1.1//EN" "http://www.w3.org/Graphics/SVG/1.1/DTD/svg11.dtd">
<svg version="1.1" xmlns="http://www.w3.org/2000/svg" xmlns:xlink="http://www.w3.org/1999/xlink" width="64" height="64" viewBox="0 0 64 64">
<path d="M32 16c-8.837 0-16 7.163-16 16s7.163 16 16 16 16-7.163 16-16-7.163-16-16-16zM32 42v-20c5.514 0 10 4.486 10 10s-4.486 10-10 10zM32 52c2.209 0 4 1.791 4 4v4c0 2.209-1.791 4-4 4s-4-1.791-4-4v-4c0-2.209 1.791-4 4-4zM32 12c-2.209 0-4-1.791-4-4v-4c0-2.209 1.791-4 4-4s4 1.791 4 4v4c0 2.209-1.791 4-4 4zM60 28c2.209 0 4 1.791 4 4s-1.791 4-4 4h-4c-2.209 0-4-1.791-4-4s1.791-4 4-4h4zM12 32c0 2.209-1.791 4-4 4h-4c-2.209 0-4-1.791-4-4s1.791-4 4-4h4c2.209 0 4 1.791 4 4zM51.799 46.142l2.828 2.828c1.562 1.562 1.562 4.095 0 5.657s-4.095 1.562-5.657 0l-2.828-2.828c-1.562-1.562-1.562-4.095 0-5.657s4.095-1.562 5.657 0zM12.201 17.858l-2.829-2.829c-1.562-1.562-1.562-4.095 0-5.657s4.095-1.562 5.657 0l2.828 2.829c1.562 1.562 1.562 4.095 0 5.657s-4.095 1.562-5.657 0zM51.799 17.858c-1.562 1.562-4.095 1.562-5.657 0s-1.562-4.095 0-5.657l2.828-2.828c1.562-1.562 4.095-1.562 5.657 0s1.562 4.095 0 5.657l-2.828 2.828zM12.201 46.142c1.562-1.562 4.095-1.562 5.657 0s1.562 4.095 0 5.657l-2.828 2.828c-1.562 1.562-4.095 1.562-5.657 0s-1.562-4.095 0-5.657l2.829-2.828z" fill="#000000"></path>
</svg>
