<?xml version="1.0" encoding="utf-8"?>
<!-- Generated by IcoMoon.io -->
<!DOCTYPE svg PUBLIC "-//W3C//DTD SVG 1.1//EN" "http://www.w3.org/Graphics/SVG/1.1/DTD/svg11.dtd">
<svg version="1.1" xmlns="http://www.w3.org/2000/svg" xmlns:xlink="http://www.w3.org/1999/xlink" width="64" height="64" viewBox="0 0 64 64">
<path d="M36 6c0 3.314-2.686 6-6 6s-6-2.686-6-6c0-3.314 2.686-6 6-6s6 2.686 6 6z" fill="#000000"></path>
<path d="M44.938 32l3.063-2.219-8.33-12.882c-0.37-0.561-0.997-0.899-1.67-0.899h-16c-0.672 0-1.3 0.338-1.67 0.899l-8.33 12.882 3.063 2.219 6.915-8.975 2.404 5.609-8.381 15.366h7.667l1.333 20h4v-20h2v20h4l1.333-20h7.667l-8.382-15.366 2.404-5.609 6.915 8.975z" fill="#000000"></path>
</svg>
