<?xml version="1.0" encoding="utf-8"?>
<!-- Generated by IcoMoon.io -->
<!DOCTYPE svg PUBLIC "-//W3C//DTD SVG 1.1//EN" "http://www.w3.org/Graphics/SVG/1.1/DTD/svg11.dtd">
<svg version="1.1" xmlns="http://www.w3.org/2000/svg" xmlns:xlink="http://www.w3.org/1999/xlink" width="64" height="64" viewBox="0 0 64 64">
<path d="M32 64c17.673 0 32-14.327 32-32s-14.327-32-32-32-32 14.327-32 32 14.327 32 32 32zM32 6c14.359 0 26 11.641 26 26s-11.641 26-26 26-26-11.641-26-26 11.641-26 26-26zM32 37.422c7.247 0 14.139-1.925 20-5.307-0.911 11.152-9.57 19.885-20 19.885s-19.089-8.742-20-19.894c5.861 3.382 12.753 5.316 20 5.316zM16 22c0-3.314 1.791-6 4-6s4 2.686 4 6c0 3.314-1.791 6-4 6s-4-2.686-4-6zM40 22c0-3.314 1.791-6 4-6s4 2.686 4 6c0 3.314-1.791 6-4 6s-4-2.686-4-6z" fill="#000000"></path>
</svg>
