<?xml version="1.0" encoding="utf-8"?>
<!-- Generated by IcoMoon.io -->
<!DOCTYPE svg PUBLIC "-//W3C//DTD SVG 1.1//EN" "http://www.w3.org/Graphics/SVG/1.1/DTD/svg11.dtd">
<svg version="1.1" xmlns="http://www.w3.org/2000/svg" xmlns:xlink="http://www.w3.org/1999/xlink" width="64" height="64" viewBox="0 0 64 64">
<path d="M32 0c-17.673 0-32 14.327-32 32s14.327 32 32 32 32-14.327 32-32-14.327-32-32-32zM44 16c2.209 0 4 2.686 4 6s-1.791 6-4 6-4-2.686-4-6 1.791-6 4-6zM20 16c2.209 0 4 2.686 4 6s-1.791 6-4 6-4-2.686-4-6 1.791-6 4-6zM32 56c-10.429 0-19.089-8.742-20-19.894 5.861 3.382 12.753 5.316 20 5.316s14.139-1.925 20-5.307c-0.911 11.152-9.57 19.885-20 19.885z" fill="#000000"></path>
</svg>
