<?xml version="1.0" encoding="utf-8"?>
<!-- Generated by IcoMoon.io -->
<!DOCTYPE svg PUBLIC "-//W3C//DTD SVG 1.1//EN" "http://www.w3.org/Graphics/SVG/1.1/DTD/svg11.dtd">
<svg version="1.1" xmlns="http://www.w3.org/2000/svg" xmlns:xlink="http://www.w3.org/1999/xlink" width="64" height="64" viewBox="0 0 64 64">
<path d="M32 64c17.673 0 32-14.327 32-32s-14.327-32-32-32-32 14.327-32 32 14.327 32 32 32zM32 6c14.359 0 26 11.641 26 26s-11.641 26-26 26-26-11.641-26-26 11.641-26 26-26zM33.921 44.439c8.766-1.732 15.569-5.721 18.028-11.037-1.353 10.497-10.095 18.598-20.678 18.598-7.453 0-13.991-4.018-17.681-10.059 4.401 3.441 12.158 4.113 20.331 2.498zM40 22c0-3.314 1.791-6 4-6s4 2.686 4 6c0 3.314-1.791 6-4 6s-4-2.686-4-6zM22 23.219c-2.612 0-4.833 0.979-5.657 2.344-0.221-0.367-0.343-2.011-0.343-2.422 0-1.942 2.686-3.516 6-3.516s6 1.574 6 3.516c0 0.411-0.122 2.055-0.343 2.422-0.824-1.365-3.045-2.344-5.657-2.344z" fill="#000000"></path>
</svg>
