<?xml version="1.0" encoding="utf-8"?>
<!-- Generated by IcoMoon.io -->
<!DOCTYPE svg PUBLIC "-//W3C//DTD SVG 1.1//EN" "http://www.w3.org/Graphics/SVG/1.1/DTD/svg11.dtd">
<svg version="1.1" xmlns="http://www.w3.org/2000/svg" xmlns:xlink="http://www.w3.org/1999/xlink" width="64" height="64" viewBox="0 0 64 64">
<path d="M32 0c-17.673 0-32 14.327-32 32s14.327 32 32 32c17.673 0 32-14.327 32-32s-14.327-32-32-32zM44 16c2.209 0 4 2.686 4 6s-1.791 6-4 6-4-2.686-4-6 1.791-6 4-6zM22 19.504c3.728 0 6.375 1.396 6.375 3.58 0 0.462 0.238 2.687-0.011 3.1-0.927-1.536-3.426-2.637-6.364-2.637s-5.438 1.101-6.364 2.637c-0.249-0.413-0.011-2.637-0.011-3.1 0-2.184 2.647-3.58 6.375-3.58zM31.271 52c-7.453 0-13.991-4.017-17.681-10.059 4.401 3.441 12.158 4.113 20.331 2.499 8.766-1.732 15.569-5.721 18.028-11.037-1.353 10.498-10.095 18.598-20.678 18.598z" fill="#000000"></path>
</svg>
