<?xml version="1.0" encoding="utf-8"?>
<!-- Generated by IcoMoon.io -->
<!DOCTYPE svg PUBLIC "-//W3C//DTD SVG 1.1//EN" "http://www.w3.org/Graphics/SVG/1.1/DTD/svg11.dtd">
<svg version="1.1" xmlns="http://www.w3.org/2000/svg" xmlns:xlink="http://www.w3.org/1999/xlink" width="64" height="64" viewBox="0 0 64 64">
<path d="M32 64c17.673 0 32-14.327 32-32s-14.327-32-32-32-32 14.327-32 32 14.327 32 32 32zM32 6c14.359 0 26 11.641 26 26s-11.641 26-26 26-26-11.641-26-26 11.641-26 26-26zM12 32v4c0 8.8 7.2 16 16 16h8c8.8 0 16-7.2 16-16v-4h-40zM24 47.312c-1.659-0.591-3.183-1.551-4.471-2.84-2.275-2.275-3.529-5.284-3.529-8.471h8v11.312zM36 48h-8v-12h8v12zM44.471 44.471c-1.289 1.289-2.813 2.249-4.471 2.84v-11.312h8c0 3.188-1.253 6.196-3.529 8.471zM14.085 24c0 0 0 0 0 0 0.611 0 1.132-0.441 1.233-1.043 0.385-2.293 2.354-3.957 4.683-3.957s4.298 1.664 4.683 3.957c0.101 0.602 0.622 1.043 1.233 1.043s1.132-0.441 1.233-1.043c0.068-0.402 0.102-0.808 0.102-1.207 0-3.998-3.252-7.25-7.25-7.25s-7.25 3.252-7.25 7.25c0 0.399 0.034 0.805 0.102 1.207 0.101 0.602 0.623 1.043 1.233 1.043zM38.084 24c0 0 0 0 0 0 0.611 0 1.132-0.441 1.233-1.043 0.385-2.293 2.354-3.957 4.683-3.957s4.298 1.664 4.683 3.957c0.101 0.602 0.622 1.043 1.233 1.043s1.132-0.441 1.233-1.043c0.068-0.402 0.102-0.808 0.102-1.207 0-3.998-3.252-7.25-7.25-7.25s-7.25 3.252-7.25 7.25c0 0.399 0.034 0.805 0.102 1.207 0.102 0.602 0.623 1.043 1.233 1.043z" fill="#000000"></path>
</svg>
