<?xml version="1.0" encoding="utf-8"?>
<!-- Generated by IcoMoon.io -->
<!DOCTYPE svg PUBLIC "-//W3C//DTD SVG 1.1//EN" "http://www.w3.org/Graphics/SVG/1.1/DTD/svg11.dtd">
<svg version="1.1" xmlns="http://www.w3.org/2000/svg" xmlns:xlink="http://www.w3.org/1999/xlink" width="64" height="64" viewBox="0 0 64 64">
<path d="M32 0c-17.673 0-32 14.327-32 32s14.327 32 32 32c17.673 0 32-14.327 32-32s-14.327-32-32-32zM44 14.75c3.998 0 7.25 3.252 7.25 7.25 0 0.399-0.034 0.805-0.102 1.207-0.101 0.602-0.622 1.043-1.233 1.043s-1.132-0.441-1.233-1.043c-0.385-2.293-2.354-3.332-4.683-3.332s-4.298 1.039-4.683 3.332c-0.101 0.602-0.622 1.043-1.233 1.043-0 0 0 0-0 0-0.61 0-1.132-0.441-1.233-1.043-0.068-0.402-0.102-0.808-0.102-1.207 0-3.998 3.252-7.25 7.25-7.25zM20 14.75c3.998 0 7.25 3.252 7.25 7.25 0 0.399-0.034 0.805-0.102 1.207-0.101 0.602-0.622 1.043-1.233 1.043s-1.132-0.441-1.233-1.043c-0.385-2.293-2.354-3.332-4.683-3.332s-4.298 1.039-4.683 3.332c-0.101 0.602-0.622 1.043-1.233 1.043 0 0 0 0 0 0-0.61 0-1.132-0.441-1.233-1.043-0.068-0.402-0.102-0.808-0.102-1.207 0-3.998 3.252-7.25 7.25-7.25zM12 36h12v15.49c-6.881-1.788-12-8.070-12-15.49zM28 52v-16h8v16h-8zM40 51.49v-15.49h12c0 7.42-5.119 13.703-12 15.49z" fill="#000000"></path>
</svg>
