<?xml version="1.0" encoding="utf-8"?>
<!-- Generated by IcoMoon.io -->
<!DOCTYPE svg PUBLIC "-//W3C//DTD SVG 1.1//EN" "http://www.w3.org/Graphics/SVG/1.1/DTD/svg11.dtd">
<svg version="1.1" xmlns="http://www.w3.org/2000/svg" xmlns:xlink="http://www.w3.org/1999/xlink" width="64" height="64" viewBox="0 0 64 64">
<path d="M32 64c17.673 0 32-14.327 32-32s-14.327-32-32-32-32 14.327-32 32 14.327 32 32 32zM32 6c14.359 0 26 11.641 26 26s-11.641 26-26 26-26-11.641-26-26 11.641-26 26-26zM50 16c1.1 0 2 0.9 2 2v6c0 2.2-1.8 4-4 4h-8c-2.2 0-4-1.8-4-4h-8c0 2.2-1.8 4-4 4h-8c-2.2 0-4-1.8-4-4v-6c0-1.1 0.9-2 2-2h12c1.1 0 2 0.9 2 2v2h8v-2c0-1.1 0.9-2 2-2h12zM32 48c5.825 0 10.923-3.114 13.722-7.767l3.43 2.058c-3.498 5.817-9.87 9.709-17.152 9.709-3.029 0-5.899-0.675-8.471-1.88l2.073-3.455c1.96 0.857 4.123 1.335 6.399 1.335z" fill="#000000"></path>
</svg>
