<?xml version="1.0" encoding="utf-8"?>
<!-- Generated by IcoMoon.io -->
<!DOCTYPE svg PUBLIC "-//W3C//DTD SVG 1.1//EN" "http://www.w3.org/Graphics/SVG/1.1/DTD/svg11.dtd">
<svg version="1.1" xmlns="http://www.w3.org/2000/svg" xmlns:xlink="http://www.w3.org/1999/xlink" width="64" height="64" viewBox="0 0 64 64">
<path d="M32 0c-17.673 0-32 14.327-32 32s14.327 32 32 32c17.673 0 32-14.327 32-32s-14.327-32-32-32zM32 52c-3.029 0-5.899-0.675-8.471-1.88l2.073-3.455c1.96 0.857 4.123 1.335 6.399 1.335 5.826 0 10.923-3.114 13.721-7.767l3.43 2.058c-3.498 5.817-9.87 9.709-17.151 9.709zM52 24c0 2.2-1.8 4-4 4h-8c-2.2 0-4-1.8-4-4h-8c0 2.2-1.8 4-4 4h-8c-2.2 0-4-1.8-4-4v-6c0-1.1 0.9-2 2-2h12c1.1 0 2 0.9 2 2v2h8v-2c0-1.1 0.9-2 2-2h12c1.1 0 2 0.9 2 2v6z" fill="#000000"></path>
</svg>
