<?xml version="1.0" encoding="utf-8"?>
<!-- Generated by IcoMoon.io -->
<!DOCTYPE svg PUBLIC "-//W3C//DTD SVG 1.1//EN" "http://www.w3.org/Graphics/SVG/1.1/DTD/svg11.dtd">
<svg version="1.1" xmlns="http://www.w3.org/2000/svg" xmlns:xlink="http://www.w3.org/1999/xlink" width="64" height="64" viewBox="0 0 64 64">
<path d="M40 28c-2.209 0-4-1.791-4-4 0-0.073 0.002-0.146 0.006-0.218 0.127-2.966 2.826-4.934 5.099-6.071 2.171-1.086 4.319-1.629 4.409-1.651 1.072-0.268 2.157 0.384 2.425 1.455s-0.384 2.157-1.455 2.425c-1.102 0.278-2.408 0.758-3.559 1.334 0.666 0.714 1.073 1.672 1.073 2.725 0 2.209-1.791 4-4 4zM17.515 19.94c-1.072-0.268-1.723-1.354-1.455-2.425s1.354-1.723 2.425-1.455c0.090 0.023 2.238 0.566 4.409 1.651 2.274 1.137 4.973 3.105 5.099 6.071 0.004 0.072 0.006 0.145 0.006 0.218 0 2.209-1.791 4-4 4s-4-1.791-4-4c0-1.053 0.408-2.011 1.073-2.725-1.151-0.577-2.457-1.056-3.558-1.334zM32 46c5.097 0 9.558-2.724 12.006-6.796l5.145 3.087c-3.498 5.817-9.87 9.709-17.152 9.709s-13.654-3.892-17.152-9.709l5.145-3.087c2.448 4.072 6.909 6.796 12.006 6.796zM64 4c0-2.845-0.595-5.55-1.666-8-2.099 4.802-6.028 8.621-10.906 10.574-5.387-4.122-12.121-6.574-19.428-6.574s-14.041 2.451-19.428 6.574c-4.878-1.953-8.807-5.771-10.906-10.574-1.071 2.45-1.666 5.155-1.666 8 0 4.598 1.553 8.833 4.162 12.211-2.648 4.659-4.162 10.047-4.162 15.789 0 17.673 14.327 32 32 32s32-14.327 32-32c0-5.742-1.514-11.13-4.162-15.789 2.609-3.378 4.162-7.613 4.162-12.211zM32 58c-14.359 0-26-11.641-26-26s11.641-26 26-26 26 11.641 26 26-11.641 26-26 26z" fill="#000000"></path>
</svg>
