<?xml version="1.0" encoding="utf-8"?>
<!-- Generated by IcoMoon.io -->
<!DOCTYPE svg PUBLIC "-//W3C//DTD SVG 1.1//EN" "http://www.w3.org/Graphics/SVG/1.1/DTD/svg11.dtd">
<svg version="1.1" xmlns="http://www.w3.org/2000/svg" xmlns:xlink="http://www.w3.org/1999/xlink" width="64" height="64" viewBox="0 0 64 64">
<path d="M32 64c17.673 0 32-14.327 32-32s-14.327-32-32-32-32 14.327-32 32 14.327 32 32 32zM32 6c14.359 0 26 11.641 26 26s-11.641 26-26 26-26-11.641-26-26 11.641-26 26-26zM16 20c0-2.209 1.791-4 4-4s4 1.791 4 4c0 2.209-1.791 4-4 4s-4-1.791-4-4zM40 20c0-2.209 1.791-4 4-4s4 1.791 4 4c0 2.209-1.791 4-4 4s-4-1.791-4-4zM45.382 40h4.054c0.578 4.532-2.028 9.033-6.497 10.66-5.181 1.886-10.931-0.795-12.818-5.976-1.132-3.109-4.582-4.718-7.691-3.586-2.848 1.037-4.435 4.019-3.812 6.901h-4.054c-0.578-4.532 2.028-9.033 6.497-10.66 5.181-1.886 10.931 0.795 12.818 5.976 1.132 3.109 4.582 4.718 7.69 3.586 2.848-1.036 4.435-4.019 3.812-6.901z" fill="#000000"></path>
</svg>
