<?xml version="1.0" encoding="utf-8"?>
<!-- Generated by IcoMoon.io -->
<!DOCTYPE svg PUBLIC "-//W3C//DTD SVG 1.1//EN" "http://www.w3.org/Graphics/SVG/1.1/DTD/svg11.dtd">
<svg version="1.1" xmlns="http://www.w3.org/2000/svg" xmlns:xlink="http://www.w3.org/1999/xlink" width="64" height="64" viewBox="0 0 64 64">
<path d="M32 0c-17.673 0-32 14.327-32 32s14.327 32 32 32c17.673 0 32-14.327 32-32s-14.327-32-32-32zM44 16c2.209 0 4 1.791 4 4s-1.791 4-4 4-4-1.791-4-4c0-2.209 1.791-4 4-4zM20 16c2.209 0 4 1.791 4 4s-1.791 4-4 4-4-1.791-4-4c0-2.209 1.791-4 4-4zM42.938 50.66c-5.181 1.886-10.931-0.794-12.818-5.976-1.132-3.109-4.582-4.717-7.691-3.586-2.848 1.037-4.435 4.019-3.812 6.901h-4.054c-0.578-4.532 2.028-9.033 6.497-10.66 5.181-1.886 10.931 0.794 12.818 5.976 1.132 3.109 4.582 4.717 7.69 3.586 2.848-1.036 4.435-4.018 3.812-6.901h4.054c0.578 4.532-2.028 9.033-6.498 10.66z" fill="#000000"></path>
</svg>
