<?xml version="1.0" encoding="utf-8"?>
<!-- Generated by IcoMoon.io -->
<!DOCTYPE svg PUBLIC "-//W3C//DTD SVG 1.1//EN" "http://www.w3.org/Graphics/SVG/1.1/DTD/svg11.dtd">
<svg version="1.1" xmlns="http://www.w3.org/2000/svg" xmlns:xlink="http://www.w3.org/1999/xlink" width="64" height="64" viewBox="0 0 64 64">
<path d="M32 0c-17.673 0-32 14.327-32 32s14.327 32 32 32c17.673 0 32-14.327 32-32s-14.327-32-32-32zM40 48h-16v-4h16v4zM44 16c2.209 0 4 1.791 4 4s-1.791 4-4 4-4-1.791-4-4c0-2.209 1.791-4 4-4zM20 16c2.209 0 4 1.791 4 4s-1.791 4-4 4-4-1.791-4-4c0-2.209 1.791-4 4-4z" fill="#000000"></path>
</svg>
