<?xml version="1.0" encoding="utf-8"?>
<!-- Generated by IcoMoon.io -->
<!DOCTYPE svg PUBLIC "-//W3C//DTD SVG 1.1//EN" "http://www.w3.org/Graphics/SVG/1.1/DTD/svg11.dtd">
<svg version="1.1" xmlns="http://www.w3.org/2000/svg" xmlns:xlink="http://www.w3.org/1999/xlink" width="64" height="64" viewBox="0 0 64 64">
<path d="M32 64c17.673 0 32-14.327 32-32s-14.327-32-32-32-32 14.327-32 32 14.327 32 32 32zM32 6c14.359 0 26 11.641 26 26s-11.641 26-26 26-26-11.641-26-26 11.641-26 26-26zM16 20c0-2.209 1.791-4 4-4s4 1.791 4 4-1.791 4-4 4-4-1.791-4-4zM40 20c0-2.209 1.791-4 4-4s4 1.791 4 4-1.791 4-4 4-4-1.791-4-4z" fill="#000000"></path>
<path d="M42.243 33.757c-2.343-2.343-6.142-2.343-8.485 0s-2.343 6.142 0 8.485c0.075 0.075 0.152 0.148 0.23 0.218 5.408 4.907 18.013-0.115 18.013-6.461-3.875 2.5-6.903 0.612-9.757-2.243z" fill="#000000"></path>
<path d="M21.757 33.757c2.343-2.343 6.142-2.343 8.485 0s2.343 6.142 0 8.485c-0.075 0.075-0.152 0.148-0.23 0.218-5.408 4.907-18.012-0.115-18.012-6.461 3.875 2.5 6.903 0.612 9.757-2.243z" fill="#000000"></path>
</svg>
