<?xml version="1.0" encoding="utf-8"?>
<!-- Generated by IcoMoon.io -->
<!DOCTYPE svg PUBLIC "-//W3C//DTD SVG 1.1//EN" "http://www.w3.org/Graphics/SVG/1.1/DTD/svg11.dtd">
<svg version="1.1" xmlns="http://www.w3.org/2000/svg" xmlns:xlink="http://www.w3.org/1999/xlink" width="64" height="64" viewBox="0 0 64 64">
<path d="M32 0c-17.673 0-32 14.327-32 32s14.327 32 32 32 32-14.327 32-32-14.327-32-32-32zM44 16c2.209 0 4 1.791 4 4s-1.791 4-4 4-4-1.791-4-4 1.791-4 4-4zM20 16c2.209 0 4 1.791 4 4s-1.791 4-4 4-4-1.791-4-4 1.791-4 4-4zM33.987 42.461c-0.078-0.070-0.155-0.143-0.23-0.218-1.171-1.171-1.757-2.706-1.757-4.242-0 1.535-0.586 3.070-1.757 4.242-0.075 0.075-0.152 0.148-0.23 0.218-5.408 4.907-18.012-0.115-18.012-6.461 3.875 2.5 6.903 0.612 9.757-2.243 2.343-2.343 6.142-2.343 8.485 0 1.171 1.171 1.757 2.706 1.757 4.242 0-1.535 0.586-3.070 1.757-4.242 2.343-2.343 6.142-2.343 8.485 0 2.854 2.854 5.882 4.743 9.757 2.243 0 6.346-12.605 11.368-18.013 6.461z" fill="#000000"></path>
</svg>
