<?xml version="1.0" encoding="utf-8"?>
<!-- Generated by IcoMoon.io -->
<!DOCTYPE svg PUBLIC "-//W3C//DTD SVG 1.1//EN" "http://www.w3.org/Graphics/SVG/1.1/DTD/svg11.dtd">
<svg version="1.1" xmlns="http://www.w3.org/2000/svg" xmlns:xlink="http://www.w3.org/1999/xlink" width="64" height="64" viewBox="0 0 64 64">
<path d="M32 64c17.673 0 32-14.327 32-32s-14.327-32-32-32-32 14.327-32 32 14.327 32 32 32zM32 6c14.359 0 26 11.641 26 26s-11.641 26-26 26-26-11.641-26-26 11.641-26 26-26z" fill="#000000"></path>
<path d="M40 42c0 5.523-3.582 10-8 10s-8-4.477-8-10c0-5.523 3.582-10 8-10s8 4.477 8 10z" fill="#000000"></path>
<path d="M26 21.25c-0.512 0-1.024-0.195-1.414-0.586-1.208-1.208-3.963-1.208-5.172 0-0.781 0.781-2.047 0.781-2.828 0s-0.781-2.047 0-2.828c2.783-2.783 8.045-2.783 10.828 0 0.781 0.781 0.781 2.047 0 2.828-0.39 0.391-0.902 0.586-1.414 0.586z" fill="#000000"></path>
<path d="M46 21.25c-0.512 0-1.024-0.195-1.414-0.586-1.208-1.208-3.963-1.208-5.172 0-0.781 0.781-2.047 0.781-2.828 0s-0.781-2.047 0-2.828c2.783-2.783 8.045-2.783 10.828 0 0.781 0.781 0.781 2.047 0 2.828-0.391 0.391-0.902 0.586-1.414 0.586z" fill="#000000"></path>
</svg>
