<?xml version="1.0" encoding="utf-8"?>
<!-- Generated by IcoMoon.io -->
<!DOCTYPE svg PUBLIC "-//W3C//DTD SVG 1.1//EN" "http://www.w3.org/Graphics/SVG/1.1/DTD/svg11.dtd">
<svg version="1.1" xmlns="http://www.w3.org/2000/svg" xmlns:xlink="http://www.w3.org/1999/xlink" width="64" height="64" viewBox="0 0 64 64">
<path d="M32 0c-17.673 0-32 14.327-32 32s14.327 32 32 32 32-14.327 32-32-14.327-32-32-32zM19.414 20.664c-0.781 0.781-2.047 0.781-2.828 0s-0.781-2.047 0-2.828c2.783-2.783 8.045-2.783 10.828 0 0.781 0.781 0.781 2.047 0 2.828-0.39 0.391-0.902 0.586-1.414 0.586s-1.024-0.195-1.414-0.586c-1.208-1.208-3.963-1.208-5.172 0zM32 52c-4.418 0-8-4.477-8-10s3.582-10 8-10 8 4.477 8 10-3.582 10-8 10zM47.414 20.664c-0.391 0.391-0.902 0.586-1.414 0.586s-1.024-0.195-1.414-0.586c-1.208-1.208-3.963-1.208-5.172 0-0.781 0.781-2.047 0.781-2.828 0s-0.781-2.047 0-2.828c2.783-2.783 8.045-2.783 10.828 0 0.781 0.781 0.781 2.047 0 2.828z" fill="#000000"></path>
</svg>
