<?xml version="1.0" encoding="utf-8"?>
<!-- Generated by IcoMoon.io -->
<!DOCTYPE svg PUBLIC "-//W3C//DTD SVG 1.1//EN" "http://www.w3.org/Graphics/SVG/1.1/DTD/svg11.dtd">
<svg version="1.1" xmlns="http://www.w3.org/2000/svg" xmlns:xlink="http://www.w3.org/1999/xlink" width="64" height="64" viewBox="0 0 64 64">
<path d="M22.895 17.711c-2.171-1.086-4.319-1.629-4.409-1.651-1.072-0.268-2.157 0.384-2.425 1.455s0.384 2.157 1.455 2.425c1.102 0.278 2.408 0.758 3.558 1.334-0.666 0.714-1.073 1.672-1.073 2.725 0 2.209 1.791 4 4 4s4-1.791 4-4c0-0.073-0.002-0.146-0.006-0.218-0.127-2.966-2.826-4.934-5.099-6.071z" fill="#000000"></path>
<path d="M32 0c-17.673 0-32 14.327-32 32s14.327 32 32 32 32-14.327 32-32-14.327-32-32-32zM14.781 51.479c0.669 0.333 1.422 0.521 2.219 0.521h30c0.797 0 1.55-0.188 2.219-0.521-4.586 4.057-10.614 6.521-17.219 6.521s-12.633-2.464-17.219-6.521zM16 47v-6c0-0.542 0.458-1 1-1h7v8h-7c-0.542 0-1-0.458-1-1zM28 48v-8h8v8h-8zM40 48v-8h7c0.542 0 1 0.458 1 1v6c0 0.542-0.458 1-1 1h-7zM51.479 49.219c0.333-0.669 0.521-1.422 0.521-2.219v-6c0-2.757-2.243-5-5-5h-30c-2.757 0-5 2.243-5 5v6c0 0.797 0.188 1.55 0.521 2.219-4.057-4.586-6.521-10.614-6.521-17.219 0-14.359 11.641-26 26-26s26 11.641 26 26c0 6.605-2.464 12.633-6.521 17.219z" fill="#000000"></path>
<path d="M45.515 16.060c-0.090 0.023-2.238 0.566-4.409 1.651-2.274 1.137-4.972 3.105-5.099 6.071-0.004 0.072-0.006 0.145-0.006 0.218 0 2.209 1.791 4 4 4s4-1.791 4-4c0-1.053-0.408-2.011-1.073-2.725 1.151-0.577 2.457-1.056 3.559-1.334 1.071-0.268 1.723-1.354 1.455-2.425s-1.354-1.723-2.425-1.455z" fill="#000000"></path>
</svg>
