<?xml version="1.0" encoding="utf-8"?>
<!-- Generated by IcoMoon.io -->
<!DOCTYPE svg PUBLIC "-//W3C//DTD SVG 1.1//EN" "http://www.w3.org/Graphics/SVG/1.1/DTD/svg11.dtd">
<svg version="1.1" xmlns="http://www.w3.org/2000/svg" xmlns:xlink="http://www.w3.org/1999/xlink" width="64" height="64" viewBox="0 0 64 64">
<path d="M16 41v6c0 0.542 0.458 1 1 1h7v-8h-7c-0.542 0-1 0.458-1 1z" fill="#000000"></path>
<path d="M28 40h8v8h-8v-8z" fill="#000000"></path>
<path d="M47 40h-7v8h7c0.542 0 1-0.458 1-1v-6c0-0.542-0.458-1-1-1z" fill="#000000"></path>
<path d="M32 0c-17.673 0-32 14.327-32 32s14.327 32 32 32 32-14.327 32-32-14.327-32-32-32zM36.006 23.782c0.127-2.966 2.826-4.934 5.099-6.071 2.171-1.086 4.319-1.629 4.409-1.651 1.072-0.268 2.157 0.384 2.425 1.455s-0.384 2.157-1.455 2.425c-1.102 0.278-2.408 0.758-3.559 1.334 0.666 0.714 1.073 1.672 1.073 2.725 0 2.209-1.791 4-4 4s-4-1.791-4-4c0-0.073 0.002-0.146 0.006-0.218zM16.060 17.515c0.268-1.072 1.354-1.723 2.425-1.455 0.090 0.023 2.238 0.566 4.409 1.651 2.274 1.137 4.973 3.105 5.099 6.071 0.004 0.072 0.006 0.145 0.006 0.218 0 2.209-1.791 4-4 4s-4-1.791-4-4c0-1.053 0.408-2.011 1.073-2.725-1.151-0.577-2.457-1.056-3.558-1.334-1.071-0.268-1.723-1.354-1.455-2.425zM52 47c0 2.757-2.243 5-5 5h-30c-2.757 0-5-2.243-5-5v-6c0-2.757 2.243-5 5-5h30c2.757 0 5 2.243 5 5v6z" fill="#000000"></path>
</svg>
