<?xml version="1.0" encoding="utf-8"?>
<!-- Generated by IcoMoon.io -->
<!DOCTYPE svg PUBLIC "-//W3C//DTD SVG 1.1//EN" "http://www.w3.org/Graphics/SVG/1.1/DTD/svg11.dtd">
<svg version="1.1" xmlns="http://www.w3.org/2000/svg" xmlns:xlink="http://www.w3.org/1999/xlink" width="64" height="64" viewBox="0 0 64 64">
<path d="M32 64c17.673 0 32-14.327 32-32s-14.327-32-32-32-32 14.327-32 32 14.327 32 32 32zM32 6c14.359 0 26 11.641 26 26s-11.641 26-26 26-26-11.641-26-26 11.641-26 26-26z" fill="#000000"></path>
<path d="M50 24h-8c-1.105 0-2-0.895-2-2s0.895-2 2-2h8c1.105 0 2 0.895 2 2s-0.895 2-2 2z" fill="#000000"></path>
<path d="M22 24h-8c-1.104 0-2-0.895-2-2s0.896-2 2-2h8c1.105 0 2 0.895 2 2s-0.895 2-2 2z" fill="#000000"></path>
<path d="M38 53.5c-0.512 0-1.024-0.195-1.414-0.586-0.286-0.286-1.839-0.914-4.586-0.914s-4.299 0.628-4.586 0.914c-0.781 0.781-2.047 0.781-2.828 0s-0.781-2.047 0-2.828c1.883-1.883 5.812-2.086 7.414-2.086s5.532 0.203 7.414 2.086c0.781 0.781 0.781 2.047 0 2.828-0.391 0.391-0.902 0.586-1.414 0.586z" fill="#000000"></path>
<path d="M46 36c-1.105 0-2-0.895-2-2v-4c0-1.105 0.895-2 2-2s2 0.895 2 2v4c0 1.105-0.895 2-2 2z" fill="#000000"></path>
<path d="M46 48c-1.105 0-2-0.895-2-2v-4c0-1.105 0.895-2 2-2s2 0.895 2 2v4c0 1.105-0.895 2-2 2z" fill="#000000"></path>
<path d="M18 36c-1.105 0-2-0.895-2-2v-4c0-1.105 0.895-2 2-2s2 0.895 2 2v4c0 1.105-0.895 2-2 2z" fill="#000000"></path>
<path d="M18 48c-1.105 0-2-0.895-2-2v-4c0-1.105 0.895-2 2-2s2 0.895 2 2v4c0 1.105-0.895 2-2 2z" fill="#000000"></path>
</svg>
