<?xml version="1.0" encoding="utf-8"?>
<!-- Generated by IcoMoon.io -->
<!DOCTYPE svg PUBLIC "-//W3C//DTD SVG 1.1//EN" "http://www.w3.org/Graphics/SVG/1.1/DTD/svg11.dtd">
<svg version="1.1" xmlns="http://www.w3.org/2000/svg" xmlns:xlink="http://www.w3.org/1999/xlink" width="64" height="64" viewBox="0 0 64 64">
<path d="M60 38v-10c0-3.308-2.692-6-6-6-1.069 0-2.074 0.281-2.944 0.773-1.067-1.666-2.935-2.773-5.056-2.773-1.535 0-2.938 0.58-4 1.532-1.062-0.952-2.465-1.532-4-1.532-0.701 0-1.374 0.121-2 0.343v-14.343c0-3.308-2.692-6-6-6s-6 2.692-6 6v24.667l-11.001-5.865c-0.909-0.525-1.945-0.802-2.999-0.802-3.308 0-6 2.692-6 6 0 1.648 0.654 3.185 1.843 4.327 0.016 0.015 0.031 0.029 0.047 0.044l14.948 13.63h-2.838c-1.105 0-2 0.895-2 2v12c0 1.105 0.895 2 2 2h40c1.105 0 2-0.895 2-2v-12c0-1.105-0.895-2-2-2h-2.764l4.553-9.106c0.139-0.278 0.211-0.584 0.211-0.894zM56 54c0 1.105-0.895 2-2 2s-2-0.895-2-2 0.895-2 2-2 2 0.895 2 2zM56 37.528l-5.236 10.472h-23.989l-18.176-16.573c-0.386-0.379-0.599-0.885-0.599-1.427 0-1.103 0.897-2 2-2 0.341 0 0.663 0.082 0.958 0.243 0.033 0.020 0.067 0.040 0.101 0.058l14 7.463c0.62 0.331 1.368 0.312 1.97-0.050s0.971-1.012 0.971-1.715v-28c0-1.103 0.897-2 2-2s2 0.897 2 2v20c0 1.105 0.895 2 2 2s2-0.895 2-2c0-1.103 0.897-2 2-2s2 0.897 2 2c0 1.105 0.895 2 2 2s2-0.895 2-2c0-1.103 0.897-2 2-2s2 0.897 2 2v2c0 1.105 0.895 2 2 2s2-0.895 2-2c0-1.103 0.897-2 2-2s2 0.897 2 2v9.528z" fill="#000000"></path>
</svg>
