<?xml version="1.0" encoding="utf-8"?>
<!-- Generated by IcoMoon.io -->
<!DOCTYPE svg PUBLIC "-//W3C//DTD SVG 1.1//EN" "http://www.w3.org/Graphics/SVG/1.1/DTD/svg11.dtd">
<svg version="1.1" xmlns="http://www.w3.org/2000/svg" xmlns:xlink="http://www.w3.org/1999/xlink" width="64" height="64" viewBox="0 0 64 64">
<path d="M26 60h10c3.308 0 6-2.692 6-6 0-1.069-0.281-2.074-0.773-2.944 1.666-1.067 2.773-2.935 2.773-5.056 0-1.535-0.58-2.938-1.532-4 0.952-1.062 1.532-2.465 1.532-4 0-0.701-0.121-1.374-0.343-2h14.343c3.308 0 6-2.692 6-6s-2.692-6-6-6h-24.667l5.865-11.001c0.525-0.909 0.803-1.945 0.803-2.999 0-3.308-2.692-6-6-6-1.648 0-3.185 0.654-4.327 1.843-0.015 0.016-0.029 0.031-0.044 0.047l-13.63 14.948v-2.838c0-1.105-0.895-2-2-2h-12c-1.105 0-2 0.895-2 2v40c0 1.105 0.895 2 2 2h12c1.105 0 2-0.895 2-2v-2.764l9.106 4.553c0.278 0.139 0.584 0.211 0.894 0.211zM10 56c-1.105 0-2-0.895-2-2s0.895-2 2-2 2 0.895 2 2-0.895 2-2 2zM26.472 56l-10.472-5.236v-23.989l16.573-18.176c0.379-0.386 0.885-0.599 1.427-0.599 1.103 0 2 0.897 2 2 0 0.341-0.082 0.663-0.243 0.958-0.020 0.033-0.039 0.067-0.058 0.101l-7.464 14c-0.331 0.62-0.312 1.368 0.050 1.97s1.012 0.971 1.715 0.971h28c1.103 0 2 0.897 2 2s-0.897 2-2 2h-20c-1.105 0-2 0.895-2 2s0.895 2 2 2c1.103 0 2 0.897 2 2s-0.897 2-2 2c-1.105 0-2 0.895-2 2s0.895 2 2 2c1.103 0 2 0.897 2 2s-0.897 2-2 2h-2c-1.105 0-2 0.895-2 2s0.895 2 2 2c1.103 0 2 0.897 2 2s-0.897 2-2 2h-9.528z" fill="#000000"></path>
</svg>
