<?xml version="1.0" encoding="utf-8"?>
<!-- Generated by IcoMoon.io -->
<!DOCTYPE svg PUBLIC "-//W3C//DTD SVG 1.1//EN" "http://www.w3.org/Graphics/SVG/1.1/DTD/svg11.dtd">
<svg version="1.1" xmlns="http://www.w3.org/2000/svg" xmlns:xlink="http://www.w3.org/1999/xlink" width="64" height="64" viewBox="0 0 64 64">
<path d="M28 44h8v8h-8zM44 16c2.209 0 4 1.791 4 4v12l-12 8h-8v-4l12-8v-4h-20v-8h24zM32 6c-6.945 0-13.474 2.704-18.385 7.615s-7.615 11.44-7.615 18.385c0 6.945 2.704 13.474 7.615 18.385s11.44 7.615 18.385 7.615c6.945 0 13.474-2.705 18.385-7.615s7.615-11.44 7.615-18.385c0-6.945-2.705-13.474-7.615-18.385s-11.44-7.615-18.385-7.615zM32 0v0c17.673 0 32 14.327 32 32s-14.327 32-32 32c-17.673 0-32-14.327-32-32s14.327-32 32-32z" fill="#000000"></path>
</svg>
