<?xml version="1.0" encoding="utf-8"?>
<!-- Generated by IcoMoon.io -->
<!DOCTYPE svg PUBLIC "-//W3C//DTD SVG 1.1//EN" "http://www.w3.org/Graphics/SVG/1.1/DTD/svg11.dtd">
<svg version="1.1" xmlns="http://www.w3.org/2000/svg" xmlns:xlink="http://www.w3.org/1999/xlink" width="64" height="64" viewBox="0 0 64 64">
<path d="M62 24h-22v-22c0-1.105-0.895-2-2-2h-12c-1.105 0-2 0.895-2 2v22h-22c-1.105 0-2 0.895-2 2v12c0 1.105 0.895 2 2 2h22v22c0 1.105 0.895 2 2 2h12c1.105 0 2-0.895 2-2v-22h22c1.105 0 2-0.895 2-2v-12c0-1.105-0.895-2-2-2z" fill="#000000"></path>
</svg>
