<?xml version="1.0" encoding="utf-8"?>
<!-- Generated by IcoMoon.io -->
<!DOCTYPE svg PUBLIC "-//W3C//DTD SVG 1.1//EN" "http://www.w3.org/Graphics/SVG/1.1/DTD/svg11.dtd">
<svg version="1.1" xmlns="http://www.w3.org/2000/svg" xmlns:xlink="http://www.w3.org/1999/xlink" width="64" height="64" viewBox="0 0 64 64">
<path d="M54.627 9.373c-6.044-6.044-14.080-9.373-22.628-9.373s-16.583 3.329-22.628 9.373c-6.044 6.044-9.373 14.080-9.373 22.627s3.329 16.583 9.373 22.627c6.044 6.044 14.080 9.373 22.628 9.373s16.583-3.329 22.628-9.373c6.044-6.044 9.373-14.080 9.373-22.628s-3.329-16.583-9.373-22.628zM56 32c0 5.176-1.647 9.974-4.444 13.899l-33.454-33.454c3.925-2.797 8.723-4.444 13.899-4.444 13.234 0 24 10.766 24 24zM8 32c0-5.176 1.647-9.974 4.444-13.899l33.454 33.454c-3.925 2.797-8.723 4.444-13.899 4.444-13.234 0-24-10.766-24-24z" fill="#000000"></path>
</svg>
