<?xml version="1.0" encoding="utf-8"?>
<!-- Generated by IcoMoon.io -->
<!DOCTYPE svg PUBLIC "-//W3C//DTD SVG 1.1//EN" "http://www.w3.org/Graphics/SVG/1.1/DTD/svg11.dtd">
<svg version="1.1" xmlns="http://www.w3.org/2000/svg" xmlns:xlink="http://www.w3.org/1999/xlink" width="64" height="64" viewBox="0 0 64 64">
<path d="M8 16h8v12h4v-24c0-2.2-1.8-4-4-4h-8c-2.2 0-4 1.8-4 4v24h4v-12zM8 4h8v8h-8v-8zM60 4v-4h-12c-2.2 0-4 1.8-4 4v20c0 2.2 1.8 4 4 4h12v-4h-12v-20h12zM40 10v-6c0-2.2-1.8-4-4-4h-12v28h12c2.2 0 4-1.8 4-4v-6c0-2.2-0.55-4-2.75-4 2.2 0 2.75-1.8 2.75-4zM36 24h-8v-8h8v8zM36 12h-8v-8h8v8zM52 36l-26 28-14-18 5.125-4.375 8.875 9.25 22-18.875z" fill="#000000"></path>
</svg>
