<?xml version="1.0" encoding="utf-8"?>
<!-- Generated by IcoMoon.io -->
<!DOCTYPE svg PUBLIC "-//W3C//DTD SVG 1.1//EN" "http://www.w3.org/Graphics/SVG/1.1/DTD/svg11.dtd">
<svg version="1.1" xmlns="http://www.w3.org/2000/svg" xmlns:xlink="http://www.w3.org/1999/xlink" width="68" height="64" viewBox="0 0 68 64">
<path d="M55.627 57.627c-0.768 0-1.535-0.293-2.121-0.879-1.172-1.172-1.172-3.071 0-4.243 5.477-5.478 8.494-12.76 8.494-20.506s-3.017-15.029-8.494-20.506c-1.172-1.172-1.172-3.071 0-4.243s3.071-1.171 4.243 0c6.611 6.611 10.251 15.4 10.251 24.749s-3.641 18.138-10.251 24.749c-0.586 0.586-1.353 0.879-2.121 0.879zM44.971 51.971c-0.768 0-1.535-0.293-2.121-0.879-1.172-1.172-1.172-3.071 0-4.243 8.188-8.188 8.188-21.511 0-29.698-1.172-1.172-1.172-3.071 0-4.243s3.071-1.171 4.243 0c5.1 5.099 7.908 11.88 7.908 19.092s-2.809 13.992-7.908 19.092c-0.586 0.586-1.353 0.879-2.121 0.879v0zM34.314 46.314c-0.768 0-1.535-0.293-2.121-0.879-1.172-1.172-1.172-3.071 0-4.242 5.069-5.069 5.069-13.316 0-18.385-1.172-1.172-1.172-3.071 0-4.243s3.071-1.172 4.243 0c7.408 7.408 7.408 19.462 0 26.87-0.586 0.586-1.353 0.878-2.121 0.878z" fill="#000000"></path>
<path d="M26 60c-0.52 0-1.032-0.203-1.415-0.586l-15.414-15.414h-7.172c-1.105 0-2-0.895-2-2v-20c0-1.105 0.895-2 2-2h7.172l15.414-15.414c0.572-0.572 1.432-0.743 2.18-0.434s1.235 1.039 1.235 1.848v52c0 0.809-0.487 1.538-1.235 1.848-0.247 0.102-0.507 0.152-0.765 0.152z" fill="#000000"></path>
</svg>
