<?xml version="1.0" encoding="utf-8"?>
<!-- Generated by IcoMoon.io -->
<!DOCTYPE svg PUBLIC "-//W3C//DTD SVG 1.1//EN" "http://www.w3.org/Graphics/SVG/1.1/DTD/svg11.dtd">
<svg version="1.1" xmlns="http://www.w3.org/2000/svg" xmlns:xlink="http://www.w3.org/1999/xlink" width="64" height="64" viewBox="0 0 64 64">
<path d="M64 36h-12v12h-8v-12h-12v-8h12v-12h8v12h12v8z" fill="#000000"></path>
<path d="M26 60c-0.52 0-1.032-0.203-1.415-0.586l-15.414-15.414h-7.172c-1.105 0-2-0.895-2-2v-20c0-1.105 0.895-2 2-2h7.172l15.414-15.414c0.572-0.572 1.432-0.743 2.18-0.434s1.235 1.039 1.235 1.848v52c0 0.809-0.487 1.538-1.235 1.848-0.247 0.102-0.507 0.152-0.765 0.152z" fill="#000000"></path>
</svg>
