<?xml version="1.0" encoding="utf-8"?>
<!-- Generated by IcoMoon.io -->
<!DOCTYPE svg PUBLIC "-//W3C//DTD SVG 1.1//EN" "http://www.w3.org/Graphics/SVG/1.1/DTD/svg11.dtd">
<svg version="1.1" xmlns="http://www.w3.org/2000/svg" xmlns:xlink="http://www.w3.org/1999/xlink" width="64" height="64" viewBox="0 0 64 64">
<path d="M55.605 10.395c-5.851-6.388-14.26-10.395-23.605-10.395-17.673 0-32 14.327-32 32h6c0-14.359 11.641-26 26-26 7.689 0 14.596 3.339 19.356 8.644l-9.356 9.356h22v-22l-8.395 8.395z" fill="#000000"></path>
<path d="M58 32c0 14.359-11.641 26-26 26-7.689 0-14.596-3.339-19.356-8.644l9.356-9.356h-22v22l8.395-8.395c5.851 6.389 14.26 10.395 23.605 10.395 17.673 0 32-14.327 32-32h-6z" fill="#000000"></path>
</svg>
