<?xml version="1.0" encoding="utf-8"?>
<!-- Generated by IcoMoon.io -->
<!DOCTYPE svg PUBLIC "-//W3C//DTD SVG 1.1//EN" "http://www.w3.org/Graphics/SVG/1.1/DTD/svg11.dtd">
<svg version="1.1" xmlns="http://www.w3.org/2000/svg" xmlns:xlink="http://www.w3.org/1999/xlink" width="64" height="64" viewBox="0 0 64 64">
<path d="M48.999 47.001c-4.007 0-7.773-1.56-10.606-4.393l-6.393-6.393-6.392 6.392c-2.833 2.834-6.6 4.394-10.607 4.394s-7.774-1.56-10.608-4.394c-2.833-2.833-4.394-6.6-4.394-10.607s1.56-7.774 4.394-10.607c2.833-2.833 6.601-4.393 10.607-4.393s7.774 1.56 10.607 4.393l6.392 6.392 6.392-6.392c2.833-2.833 6.6-4.394 10.607-4.394s7.774 1.56 10.607 4.394c2.834 2.833 4.394 6.6 4.394 10.607s-1.56 7.774-4.394 10.607c-2.833 2.834-6.6 4.394-10.607 4.394zM42.608 38.393c1.708 1.707 3.977 2.647 6.392 2.647s4.685-0.94 6.392-2.648c1.707-1.708 2.648-3.978 2.648-6.392s-0.94-4.685-2.648-6.392c-1.708-1.707-3.977-2.648-6.392-2.648s-4.685 0.94-6.392 2.648l-6.392 6.392 6.392 6.393zM15.001 22.96c-2.415 0-4.685 0.94-6.392 2.648s-2.648 3.977-2.648 6.392c0 2.414 0.94 4.685 2.648 6.392s3.978 2.648 6.392 2.648c2.415 0 4.685-0.94 6.392-2.648l6.392-6.392-6.392-6.392c-1.707-1.707-3.977-2.648-6.392-2.648v0z" fill="#000000"></path>
</svg>
