<?xml version="1.0" encoding="utf-8"?>
<!-- Generated by IcoMoon.io -->
<!DOCTYPE svg PUBLIC "-//W3C//DTD SVG 1.1//EN" "http://www.w3.org/Graphics/SVG/1.1/DTD/svg11.dtd">
<svg version="1.1" xmlns="http://www.w3.org/2000/svg" xmlns:xlink="http://www.w3.org/1999/xlink" width="64" height="64" viewBox="0 0 64 64">
<path d="M48 44h-6.343l-10-10 10-10h6.343v10l14-14-14-14v10h-8c-1.061 0-2.078 0.422-2.828 1.172l-11.172 11.172-11.172-11.172c-0.75-0.75-1.768-1.172-2.828-1.172h-12v8h10.343l10 10-10 10h-10.343v8h12c1.061 0 2.078-0.421 2.828-1.172l11.172-11.172 11.172 11.172c0.75 0.75 1.767 1.172 2.828 1.172h8v10l14-14-14-14v10z" fill="#000000"></path>
</svg>
