<?xml version="1.0" encoding="utf-8"?>
<!-- Generated by IcoMoon.io -->
<!DOCTYPE svg PUBLIC "-//W3C//DTD SVG 1.1//EN" "http://www.w3.org/Graphics/SVG/1.1/DTD/svg11.dtd">
<svg version="1.1" xmlns="http://www.w3.org/2000/svg" xmlns:xlink="http://www.w3.org/1999/xlink" width="64" height="64" viewBox="0 0 64 64">
<path d="M54.828 49.172l-33.172-33.172h14.343c2.209 0 4-1.791 4-4s-1.791-4-4-4h-24c-1.618 0-3.076 0.975-3.695 2.469-0.205 0.495-0.303 1.015-0.302 1.531h-0.002v24c0 2.209 1.791 4 4 4s4-1.791 4-4v-14.343l33.172 33.172c0.781 0.781 1.805 1.172 2.828 1.172s2.047-0.391 2.828-1.172c1.562-1.562 1.562-4.095 0-5.657z" fill="#000000"></path>
</svg>
