<?xml version="1.0" encoding="utf-8"?>
<!-- Generated by IcoMoon.io -->
<!DOCTYPE svg PUBLIC "-//W3C//DTD SVG 1.1//EN" "http://www.w3.org/Graphics/SVG/1.1/DTD/svg11.dtd">
<svg version="1.1" xmlns="http://www.w3.org/2000/svg" xmlns:xlink="http://www.w3.org/1999/xlink" width="64" height="64" viewBox="0 0 64 64">
<path d="M14.828 54.828l33.172-33.172v14.343c0 2.209 1.791 4 4 4s4-1.791 4-4v-24c0-1.618-0.975-3.076-2.469-3.695-0.495-0.205-1.015-0.303-1.531-0.302v-0.002h-24c-2.209 0-4 1.791-4 4s1.791 4 4 4h14.343l-33.172 33.172c-0.781 0.781-1.172 1.805-1.172 2.828s0.391 2.047 1.172 2.828c1.562 1.562 4.095 1.562 5.657 0z" fill="#000000"></path>
</svg>
