<?xml version="1.0" encoding="utf-8"?>
<!-- Generated by IcoMoon.io -->
<!DOCTYPE svg PUBLIC "-//W3C//DTD SVG 1.1//EN" "http://www.w3.org/Graphics/SVG/1.1/DTD/svg11.dtd">
<svg version="1.1" xmlns="http://www.w3.org/2000/svg" xmlns:xlink="http://www.w3.org/1999/xlink" width="64" height="64" viewBox="0 0 64 64">
<path d="M9.172 14.828l33.171 33.172h-14.343c-2.209 0-4 1.791-4 4s1.791 4 4 4h24c1.618 0 3.076-0.975 3.695-2.469 0.205-0.495 0.303-1.015 0.302-1.531h0.002v-24c0-2.209-1.791-4-4-4s-4 1.791-4 4v14.343l-33.172-33.172c-0.781-0.781-1.805-1.172-2.828-1.172s-2.047 0.391-2.828 1.172c-1.562 1.562-1.562 4.095 0 5.657z" fill="#000000"></path>
</svg>
