<?xml version="1.0" encoding="utf-8"?>
<!-- Generated by IcoMoon.io -->
<!DOCTYPE svg PUBLIC "-//W3C//DTD SVG 1.1//EN" "http://www.w3.org/Graphics/SVG/1.1/DTD/svg11.dtd">
<svg version="1.1" xmlns="http://www.w3.org/2000/svg" xmlns:xlink="http://www.w3.org/1999/xlink" width="64" height="64" viewBox="0 0 64 64">
<path d="M44 32v24h4v-24h10l-12-12-12 12z" fill="#000000"></path>
<path d="M4 12h6v4h-6v-4z" fill="#000000"></path>
<path d="M12 12h6v4h-6v-4z" fill="#000000"></path>
<path d="M20 12h4v6h-4v-6z" fill="#000000"></path>
<path d="M4 26h4v6h-4v-6z" fill="#000000"></path>
<path d="M10 28h6v4h-6v-4z" fill="#000000"></path>
<path d="M18 28h6v4h-6v-4z" fill="#000000"></path>
<path d="M4 18h4v6h-4v-6z" fill="#000000"></path>
<path d="M20 20h4v6h-4v-6z" fill="#000000"></path>
<path d="M20 44v12h-12v-12h12zM24 40h-20v20h20v-20z" fill="#000000"></path>
</svg>
