<?xml version="1.0" encoding="utf-8"?>
<!-- Generated by IcoMoon.io -->
<!DOCTYPE svg PUBLIC "-//W3C//DTD SVG 1.1//EN" "http://www.w3.org/Graphics/SVG/1.1/DTD/svg11.dtd">
<svg version="1.1" xmlns="http://www.w3.org/2000/svg" xmlns:xlink="http://www.w3.org/1999/xlink" width="64" height="64" viewBox="0 0 64 64">
<path d="M20 48v-48h-8v48h-10l14 14 14-14h-10z" fill="#000000"></path>
<path d="M58 64h-16c-0.737 0-1.415-0.406-1.763-1.056s-0.31-1.439 0.099-2.053l13.927-20.891h-12.263c-1.105 0-2-0.895-2-2s0.895-2 2-2h16c0.737 0 1.415 0.406 1.763 1.056s0.31 1.439-0.099 2.053l-13.927 20.891h12.263c1.105 0 2 0.895 2 2s-0.895 2-2 2z" fill="#000000"></path>
<path d="M63.789 25.105l-12-24c-0.339-0.678-1.031-1.106-1.789-1.106s-1.45 0.428-1.789 1.106l-12 24c-0.494 0.988-0.093 2.189 0.894 2.683 0.287 0.143 0.592 0.212 0.893 0.212 0.733 0 1.44-0.405 1.79-1.106l3.447-6.894h13.528l3.447 6.894c0.494 0.988 1.695 1.388 2.683 0.894s1.389-1.695 0.895-2.683zM45.236 16l4.764-9.528 4.764 9.528h-9.528z" fill="#000000"></path>
</svg>
