<?xml version="1.0" encoding="utf-8"?>
<!-- Generated by IcoMoon.io -->
<!DOCTYPE svg PUBLIC "-//W3C//DTD SVG 1.1//EN" "http://www.w3.org/Graphics/SVG/1.1/DTD/svg11.dtd">
<svg version="1.1" xmlns="http://www.w3.org/2000/svg" xmlns:xlink="http://www.w3.org/1999/xlink" width="64" height="64" viewBox="0 0 64 64">
<path d="M46 56c-5.514 0-10-4.486-10-10v-6h-8v6c0 5.514-4.486 10-10 10s-10-4.486-10-10 4.486-10 10-10h6v-8h-6c-5.514 0-10-4.486-10-10s4.486-10 10-10 10 4.486 10 10v6h8v-6c0-5.514 4.486-10 10-10s10 4.486 10 10-4.486 10-10 10h-6v8h6c5.514 0 10 4.486 10 10s-4.486 10-10 10zM40 40v6c0 3.308 2.692 6 6 6s6-2.692 6-6-2.692-6-6-6h-6zM18 40c-3.308 0-6 2.692-6 6s2.692 6 6 6 6-2.692 6-6v-6h-6zM28 36h8v-8h-8v8zM40 24h6c3.308 0 6-2.692 6-6s-2.692-6-6-6-6 2.692-6 6v6zM18 12c-3.308 0-6 2.692-6 6s2.692 6 6 6h6v-6c0-3.308-2.692-6-6-6z" fill="#000000"></path>
</svg>
