<?xml version="1.0" encoding="utf-8"?>
<!-- Generated by IcoMoon.io -->
<!DOCTYPE svg PUBLIC "-//W3C//DTD SVG 1.1//EN" "http://www.w3.org/Graphics/SVG/1.1/DTD/svg11.dtd">
<svg version="1.1" xmlns="http://www.w3.org/2000/svg" xmlns:xlink="http://www.w3.org/1999/xlink" width="64" height="64" viewBox="0 0 64 64">
<path d="M42 56h-20c-1.105 0-2-0.895-2-2v-22h-8c-0.809 0-1.538-0.487-1.848-1.235s-0.138-1.608 0.434-2.18l20-20c0.781-0.781 2.047-0.781 2.828 0l20 20c0.572 0.572 0.743 1.432 0.434 2.18s-1.039 1.235-1.848 1.235h-8v22c0 1.105-0.895 2-2 2zM24 52h16v-22c0-1.105 0.895-2 2-2h5.172l-15.172-15.172-15.172 15.172h5.172c1.105 0 2 0.895 2 2v22z" fill="#000000"></path>
</svg>
