<?xml version="1.0" encoding="utf-8"?>
<!-- Generated by IcoMoon.io -->
<!DOCTYPE svg PUBLIC "-//W3C//DTD SVG 1.1//EN" "http://www.w3.org/Graphics/SVG/1.1/DTD/svg11.dtd">
<svg version="1.1" xmlns="http://www.w3.org/2000/svg" xmlns:xlink="http://www.w3.org/1999/xlink" width="64" height="64" viewBox="0 0 64 64">
<path d="M58 52h-16c-0.79 0-1.507-0.465-1.828-1.188l-15.472-34.812h-18.7c-1.104 0-2-0.896-2-2s0.896-2 2-2h20c0.79 0 1.507 0.466 1.828 1.188l15.472 34.812h14.7c1.105 0 2 0.895 2 2s-0.895 2-2 2z" fill="#000000"></path>
<path d="M58 16h-20c-1.105 0-2-0.896-2-2s0.895-2 2-2h20c1.105 0 2 0.896 2 2s-0.895 2-2 2z" fill="#000000"></path>
</svg>
