<?xml version="1.0" encoding="utf-8"?>
<!-- Generated by IcoMoon.io -->
<!DOCTYPE svg PUBLIC "-//W3C//DTD SVG 1.1//EN" "http://www.w3.org/Graphics/SVG/1.1/DTD/svg11.dtd">
<svg version="1.1" xmlns="http://www.w3.org/2000/svg" xmlns:xlink="http://www.w3.org/1999/xlink" width="64" height="64" viewBox="0 0 64 64">
<path d="M20 8h-8c-2.2 0-4 1.8-4 4v8c0 2.2 1.8 4 4 4h8c2.2 0 4-1.8 4-4v-8c0-2.2-1.8-4-4-4z" fill="#000000"></path>
<path d="M44 24h8c2.2 0 4-1.8 4-4v-8c0-2.2-1.8-4-4-4h-8c-2.2 0-4 1.8-4 4v8c0 2.2 1.8 4 4 4zM44 12h8v8h-8v-8z" fill="#000000"></path>
<path d="M20 40h-8c-2.2 0-4 1.8-4 4v8c0 2.2 1.8 4 4 4h8c2.2 0 4-1.8 4-4v-8c0-2.2-1.8-4-4-4zM20 52h-8v-8h8v8z" fill="#000000"></path>
<path d="M52 40h-8c-2.2 0-4 1.8-4 4v8c0 2.2 1.8 4 4 4h8c2.2 0 4-1.8 4-4v-8c0-2.2-1.8-4-4-4z" fill="#000000"></path>
<path d="M56 32h-4c-5.342 0-10.365-2.080-14.142-5.858s-5.858-8.8-5.858-14.142v-4c0-4.4-3.6-8-8-8h-16c-4.4 0-8 3.6-8 8v16c0 4.4 3.6 8 8 8h4c5.342 0 10.365 2.080 14.142 5.858s5.858 8.8 5.858 14.142v4c0 4.4 3.6 8 8 8h16c4.4 0 8-3.6 8-8v-16c0-4.4-3.6-8-8-8zM60 56c0 1.060-0.419 2.062-1.178 2.822s-1.762 1.178-2.822 1.178h-16c-1.060 0-2.062-0.419-2.822-1.178s-1.178-1.762-1.178-2.822v-4c0-13.255-10.745-24-24-24h-4c-1.060 0-2.062-0.419-2.822-1.178s-1.178-1.762-1.178-2.822v-16c0-1.060 0.418-2.062 1.178-2.822s1.762-1.178 2.822-1.178h16c1.060 0 2.062 0.418 2.822 1.178s1.178 1.762 1.178 2.822v4c0 13.255 10.745 24 24 24h4c1.060 0 2.062 0.419 2.822 1.178s1.178 1.762 1.178 2.822v16z" fill="#000000"></path>
</svg>
