<?xml version="1.0" encoding="utf-8"?>
<!-- Generated by IcoMoon.io -->
<!DOCTYPE svg PUBLIC "-//W3C//DTD SVG 1.1//EN" "http://www.w3.org/Graphics/SVG/1.1/DTD/svg11.dtd">
<svg version="1.1" xmlns="http://www.w3.org/2000/svg" xmlns:xlink="http://www.w3.org/1999/xlink" width="64" height="64" viewBox="0 0 64 64">
<path d="M57.114 42.481c-4.168-6.513-11.317-9.379-15.969-6.402-0.402 0.257-0.771 0.55-1.109 0.874l-4.966-7.766 11.466-17.998c0.938-1.733 1.285-3.797 0.829-5.873-0.436-1.984-1.532-3.652-3.006-4.827l-0.767-0.488-13.592 21.257-13.592-21.257-0.767 0.488c-1.474 1.174-2.571 2.842-3.006 4.827-0.456 2.076-0.109 4.14 0.829 5.873l11.466 17.998-4.966 7.766c-0.338-0.324-0.707-0.617-1.109-0.874-4.652-2.977-11.802-0.111-15.969 6.402s-3.775 14.205 0.877 17.182c4.652 2.977 11.802 0.111 15.969-6.402l10.268-16.117 10.268 16.117c4.168 6.513 11.317 9.379 15.969 6.402s5.044-10.67 0.877-17.182zM14.678 50.027c-1.876 2.931-4.283 4.358-5.911 4.715-0 0-0 0-0 0-0.531 0.117-1.268 0.188-1.77-0.133-0.556-0.356-0.925-1.297-0.987-2.517-0.101-1.978 0.603-4.302 1.931-6.377 1.876-2.932 4.283-4.358 5.91-4.715 0.531-0.117 1.269-0.188 1.771 0.133 0.556 0.356 0.925 1.297 0.987 2.517 0.101 1.978-0.602 4.303-1.93 6.377zM30 32c-1.105 0-2-0.895-2-2s0.895-2 2-2 2 0.895 2 2-0.895 2-2 2zM53.991 52.092c-0.062 1.221-0.431 2.161-0.987 2.517-0.502 0.321-1.24 0.25-1.77 0.133 0 0 0 0-0 0-1.627-0.357-4.035-1.784-5.911-4.715-1.328-2.075-2.031-4.399-1.93-6.377 0.062-1.22 0.431-2.161 0.987-2.517 0.502-0.321 1.24-0.249 1.771-0.133 1.627 0.357 4.034 1.784 5.91 4.715 1.328 2.075 2.031 4.399 1.931 6.377z" fill="#000000"></path>
</svg>
