<?xml version="1.0" encoding="utf-8"?>
<!-- Generated by IcoMoon.io -->
<!DOCTYPE svg PUBLIC "-//W3C//DTD SVG 1.1//EN" "http://www.w3.org/Graphics/SVG/1.1/DTD/svg11.dtd">
<svg version="1.1" xmlns="http://www.w3.org/2000/svg" xmlns:xlink="http://www.w3.org/1999/xlink" width="64" height="64" viewBox="0 0 64 64">
<path d="M32 0c-17.673 0-32 4.477-32 10v6l24 24v20c0 2.209 3.582 4 8 4s8-1.791 8-4v-20l24-24v-6c0-5.523-14.327-10-32-10zM5.899 8.677c1.497-0.854 3.599-1.664 6.080-2.343 5.496-1.505 12.607-2.333 20.021-2.333s14.525 0.829 20.021 2.333c2.481 0.679 4.583 1.489 6.080 2.343 0.987 0.563 1.52 1.039 1.769 1.323-0.248 0.284-0.782 0.761-1.769 1.323-1.497 0.854-3.599 1.664-6.080 2.343-5.496 1.505-12.607 2.334-20.021 2.334s-14.525-0.829-20.021-2.334c-2.481-0.679-4.583-1.489-6.080-2.343-0.987-0.563-1.52-1.039-1.769-1.323 0.248-0.284 0.782-0.761 1.769-1.323z" fill="#000000"></path>
</svg>
