<?xml version="1.0" encoding="utf-8"?>
<!-- Generated by IcoMoon.io -->
<!DOCTYPE svg PUBLIC "-//W3C//DTD SVG 1.1//EN" "http://www.w3.org/Graphics/SVG/1.1/DTD/svg11.dtd">
<svg version="1.1" xmlns="http://www.w3.org/2000/svg" xmlns:xlink="http://www.w3.org/1999/xlink" width="64" height="64" viewBox="0 0 64 64">
<path d="M49.975 1.013c-5.658 0-9.289-1.013-15.115-1.013-18.83 0-27.612 10.724-27.612 21.617 0 6.417 3.040 8.529 9.035 8.529-0.422-0.929-1.182-1.942-1.182-6.502 0-12.751 4.813-16.466 10.977-16.719 0 0-5.057 49.586-19.736 55.534v1.542h19.787l6.752-32h12.365l2.755-8h-13.432l3.246-15.387c3.715 0.76 7.346 1.52 10.471 1.52 3.884 0 7.431-1.182 9.373-10.133-2.364 0.76-4.898 1.013-7.684 1.013z" fill="#000000"></path>
</svg>
