<?xml version="1.0" encoding="utf-8"?>
<!-- Generated by IcoMoon.io -->
<!DOCTYPE svg PUBLIC "-//W3C//DTD SVG 1.1//EN" "http://www.w3.org/Graphics/SVG/1.1/DTD/svg11.dtd">
<svg version="1.1" xmlns="http://www.w3.org/2000/svg" xmlns:xlink="http://www.w3.org/1999/xlink" width="64" height="64" viewBox="0 0 64 64">
<path d="M48 54.489c0-0.002 0-0.005 0-0.007l-0.022-27.285-7.968 0.387h-15.746v-1.343c0-5.096 0.363-10.186 1.078-12.17 0.494-1.372 1.412-2.609 2.731-3.677 1.289-1.044 2.574-1.573 3.819-1.573 1.048 0 1.919 0.18 2.588 0.535 0.939 0.535 1.857 1.435 2.729 2.676 2.309 3.281 3.249 4.153 3.756 4.523 0.863 0.631 1.907 0.951 3.104 0.951 1.167 0 2.185-0.436 3.027-1.295 0.836-0.852 1.259-1.918 1.259-3.167 0-1.341-0.557-2.763-1.656-4.226-1.074-1.431-2.732-2.609-4.927-3.502-2.145-0.873-4.559-1.315-7.174-1.315-3.795 0-7.251 0.912-10.272 2.712-3.026 1.802-5.347 4.309-6.898 7.452-1.437 2.913-1.333 8.419-1.421 13.419h-7.858v4.463h7.85v20.292c0 4.479-1.369 5.688-1.889 6.333-0.715 0.888-2.034 1.819-3.778 1.819h-2.416v3.51h24.083v-3.511h-0.419c-5.697 0-7.314-0.614-7.314-7.553 0-0.001 0-0.002 0-0.003l-0.002-20.888h8.763c4.65 0 5.718 0.215 5.962 0.308 0.294 0.112 0.675 0.302 0.818 0.572 0.054 0.105 0.325 1.563 0.325 5.186v15.667c0 3.653-0.445 4.868-0.716 5.275-0.578 0.887-1.276 1.379-3.416 1.431v3.516h18.351v-3.49c-5.726 0-6.351-0.614-6.351-6.021z" fill="#000000"></path>
</svg>
