<?xml version="1.0" encoding="utf-8"?>
<!-- Generated by IcoMoon.io -->
<!DOCTYPE svg PUBLIC "-//W3C//DTD SVG 1.1//EN" "http://www.w3.org/Graphics/SVG/1.1/DTD/svg11.dtd">
<svg version="1.1" xmlns="http://www.w3.org/2000/svg" xmlns:xlink="http://www.w3.org/1999/xlink" width="64" height="64" viewBox="0 0 64 64">
<path d="M53.458 57.341c-0.733 0-5.226-0.825-5.501-1.834-0.642-2.476-0.734-5.135-0.734-8.16v-33.811c0-5.043 1.009-7.977 1.009-7.977-0.092-0.458-0.55-1.467-1.1-1.467h-0.275c-0.275 0-3.484 2.017-6.418 2.017-2.384-0-3.868-2.109-6.619-2.109-11.569 0-16.996 9.394-16.996 22.689v0.692c0 0.275-0.183 0.55-0.459 0.55h-3.759c-0.459 0-1.375 2.567-1.375 3.759 0 0.367 0.092 0.55 0.275 0.55h4.86c0.275 0 0.459 0.367 0.459 0.642 0 8.16-0.092 16.206-0.092 16.206 0 1.284-0.092 4.126-0.642 6.418-0.275 1.009-4.493 1.834-5.593 1.834-0.458 0-0.458 2.201 0 2.659 3.759-0.183 6.235-0.458 9.994-0.458 3.484 0 6.143 0.275 9.811 0.458 0.183-0.55 0.183-2.659-0.275-2.659-0.733 0-5.226-0.825-5.501-1.834-0.642-2.476-0.642-5.135-0.734-8.16v-14.556c0-0.275 0.275-0.55 0.55-0.55h9.444c0.642-1.284 1.1-2.842 1.1-3.668 0-0.55 0-0.642-0.459-0.642h-10.178c-0.183 0-0.459-0.275-0.459-0.458v-3.301c0-8.161 3.343-15.346 8.936-15.346 3.961 0 7.417 2.566 7.417 12.37 0 0 0 0.001 0 0.001 0.013 0.252 0.020 0.456 0.020 0.591v27.301c0 1.284-0.092 4.126-0.642 6.418-0.275 1.009-4.493 1.834-5.593 1.834-0.459 0-0.459 2.201 0 2.659 3.759-0.183 6.235-0.458 9.995-0.458 3.484 0 6.143 0.275 9.811 0.458 0.183-0.55 0.183-2.659-0.275-2.659z" fill="#000000"></path>
</svg>
