<?xml version="1.0" encoding="utf-8"?>
<!-- Generated by IcoMoon.io -->
<!DOCTYPE svg PUBLIC "-//W3C//DTD SVG 1.1//EN" "http://www.w3.org/Graphics/SVG/1.1/DTD/svg11.dtd">
<svg version="1.1" xmlns="http://www.w3.org/2000/svg" xmlns:xlink="http://www.w3.org/1999/xlink" width="64" height="64" viewBox="0 0 64 64">
<path d="M44.242 30.291c2.344-2.784 3.758-6.375 3.758-10.291 0-8.822-7.178-16-16-16h-20v56h24c8.822 0 16-7.178 16-16 0-5.81-3.112-10.906-7.758-13.709zM24 12h6.344c3.498 0 6.344 3.589 6.344 8s-2.846 8-6.344 8h-6.344v-16zM33.938 52h-9.938v-16h9.938c3.653 0 6.625 3.589 6.625 8s-2.972 8-6.625 8z" fill="#000000"></path>
</svg>
