<?xml version="1.0" encoding="utf-8"?>
<!-- Generated by IcoMoon.io -->
<!DOCTYPE svg PUBLIC "-//W3C//DTD SVG 1.1//EN" "http://www.w3.org/Graphics/SVG/1.1/DTD/svg11.dtd">
<svg version="1.1" xmlns="http://www.w3.org/2000/svg" xmlns:xlink="http://www.w3.org/1999/xlink" width="64" height="64" viewBox="0 0 64 64">
<path d="M44 56h16l4-8v16h-24v-13.388c8.194-3.53 14-12.323 14-22.612 0-13.402-9.85-23.892-22-23.892s-22 10.489-22 23.892c0 10.289 5.805 19.081 14 22.612v13.388h-24v-16l4 8h16v-2.037c-11.727-4.154-20-14.213-20-25.963 0-15.464 14.327-28 32-28s32 12.536 32 28c0 11.75-8.273 21.809-20 25.963v2.037z" fill="#000000"></path>
</svg>
