<?xml version="1.0" encoding="utf-8"?>
<!-- Generated by IcoMoon.io -->
<!DOCTYPE svg PUBLIC "-//W3C//DTD SVG 1.1//EN" "http://www.w3.org/Graphics/SVG/1.1/DTD/svg11.dtd">
<svg version="1.1" xmlns="http://www.w3.org/2000/svg" xmlns:xlink="http://www.w3.org/1999/xlink" width="64" height="64" viewBox="0 0 64 64">
<path d="M12.126 52l3.6-12h16.548l3.6 12h7.102l-12-40h-13.952l-12 40h7.102zM21.726 20h4.548l3.6 12h-11.748l3.6-12zM64 12l-10 16-10-16h20z" fill="#000000"></path>
<path d="M54 52h-4c-1.103 0-2-0.897-2-2s0.897-2 2-2h8c1.105 0 2-0.895 2-2s-0.895-2-2-2h-8c-3.309 0-6 2.692-6 6 0 1.535 0.581 2.938 1.533 4 1.099 1.227 2.694 2 4.467 2h4c1.103 0 2 0.897 2 2s-0.897 2-2 2h-8c-1.105 0-2 0.895-2 2s0.895 2 2 2h8c3.309 0 6-2.692 6-6 0-1.535-0.581-2.938-1.533-4-1.099-1.227-2.694-2-4.467-2z" fill="#000000"></path>
</svg>
