<?xml version="1.0" encoding="utf-8"?>
<!-- Generated by IcoMoon.io -->
<!DOCTYPE svg PUBLIC "-//W3C//DTD SVG 1.1//EN" "http://www.w3.org/Graphics/SVG/1.1/DTD/svg11.dtd">
<svg version="1.1" xmlns="http://www.w3.org/2000/svg" xmlns:xlink="http://www.w3.org/1999/xlink" width="64" height="64" viewBox="0 0 64 64">
<path d="M24 12h8v4h-8zM36 12h8v4h-8zM56 12v16h-12v-4h8v-8h-4v-4zM20 24h8v4h-8zM32 24h8v4h-8zM12 16v8h4v4h-8v-16h12v4zM24 36h8v4h-8zM36 36h8v4h-8zM56 36v16h-12v-4h8v-8h-4v-4zM20 48h8v4h-8zM32 48h8v4h-8zM12 40v8h4v4h-8v-16h12v4zM60 4h-56v56h56v-56zM64 0v0 64h-64v-64h64z" fill="#000000"></path>
</svg>
