<?xml version="1.0" encoding="utf-8"?>
<!-- Generated by IcoMoon.io -->
<!DOCTYPE svg PUBLIC "-//W3C//DTD SVG 1.1//EN" "http://www.w3.org/Graphics/SVG/1.1/DTD/svg11.dtd">
<svg version="1.1" xmlns="http://www.w3.org/2000/svg" xmlns:xlink="http://www.w3.org/1999/xlink" width="64" height="64" viewBox="0 0 64 64">
<path d="M54 44c-2.822 0-5.37 1.171-7.188 3.052l-26.938-13.469c0.082-0.516 0.126-1.044 0.126-1.583s-0.044-1.067-0.126-1.583l26.938-13.469c1.818 1.881 4.366 3.052 7.188 3.052 5.523 0 10-4.477 10-10s-4.477-10-10-10-10 4.477-10 10c0 0.539 0.044 1.067 0.126 1.583l-26.938 13.469c-1.818-1.881-4.366-3.052-7.188-3.052-5.523 0-10 4.477-10 10s4.477 10 10 10c2.822 0 5.37-1.171 7.188-3.052l26.938 13.469c-0.082 0.516-0.126 1.044-0.126 1.583 0 5.523 4.477 10 10 10s10-4.477 10-10c0-5.523-4.477-10-10-10z" fill="#000000"></path>
</svg>
