<?xml version="1.0" encoding="utf-8"?>
<!-- Generated by IcoMoon.io -->
<!DOCTYPE svg PUBLIC "-//W3C//DTD SVG 1.1//EN" "http://www.w3.org/Graphics/SVG/1.1/DTD/svg11.dtd">
<svg version="1.1" xmlns="http://www.w3.org/2000/svg" xmlns:xlink="http://www.w3.org/1999/xlink" width="64" height="64" viewBox="0 0 64 64">
<path d="M53.334 0h-42.666c-5.867 0-10.668 4.801-10.668 10.668v42.664c0 5.871 4.801 10.668 10.668 10.668h42.666c5.867 0 10.666-4.797 10.666-10.668v-42.664c0-5.867-4.799-10.668-10.666-10.668zM53.334 8c0.499 0 0.972 0.146 1.376 0.396l-22.71 18.775-22.71-18.775c0.405-0.251 0.878-0.397 1.377-0.397h42.666zM10.668 56c-0.12 0-0.239-0.009-0.355-0.026l14.102-19.56-1.828-1.828-14.586 14.586v-38.196l24 29.025 24-29.025v38.196l-14.586-14.586-1.828 1.828 14.102 19.561c-0.116 0.016-0.234 0.025-0.354 0.025h-42.666z" fill="#000000"></path>
</svg>
