<?xml version="1.0" encoding="utf-8"?>
<!-- Generated by IcoMoon.io -->
<!DOCTYPE svg PUBLIC "-//W3C//DTD SVG 1.1//EN" "http://www.w3.org/Graphics/SVG/1.1/DTD/svg11.dtd">
<svg version="1.1" xmlns="http://www.w3.org/2000/svg" xmlns:xlink="http://www.w3.org/1999/xlink" width="64" height="64" viewBox="0 0 64 64">
<path d="M53.334 0h-42.666c-5.867 0-10.668 4.801-10.668 10.668v42.664c0 5.871 4.801 10.668 10.668 10.668h42.666c5.867 0 10.666-4.797 10.666-10.668v-42.664c0-5.867-4.799-10.668-10.666-10.668zM11.414 55.414l-4.829-4.828 16-16 1.828 1.828-13 19zM9.586 12.414l1.829-1.829 20.586 16.586 20.586-16.586 1.828 1.829-22.414 26.414-22.414-26.414zM52.586 55.414l-13-19 1.828-1.828 16 16-4.828 4.828z" fill="#000000"></path>
</svg>
