<?xml version="1.0" encoding="utf-8"?>
<!-- Generated by IcoMoon.io -->
<!DOCTYPE svg PUBLIC "-//W3C//DTD SVG 1.1//EN" "http://www.w3.org/Graphics/SVG/1.1/DTD/svg11.dtd">
<svg version="1.1" xmlns="http://www.w3.org/2000/svg" xmlns:xlink="http://www.w3.org/1999/xlink" width="64" height="64" viewBox="0 0 64 64">
<path d="M32 0c-17.673 0-32 14.327-32 32s14.327 32 32 32 32-14.327 32-32-14.327-32-32-32zM16 16h32c0.571 0 1.125 0.123 1.634 0.354l-17.634 20.573-17.634-20.573c0.509-0.231 1.063-0.354 1.634-0.354zM12 44v-24c0-0.084 0.004-0.167 0.009-0.25l11.729 13.684-11.6 11.6c-0.090-0.334-0.138-0.68-0.138-1.034zM48 48h-32c-0.353 0-0.7-0.048-1.034-0.138l11.382-11.382 5.651 6.594 5.651-6.593 11.382 11.383c-0.334 0.090-0.68 0.138-1.034 0.138zM52 44c0 0.353-0.048 0.7-0.138 1.034l-11.6-11.6 11.729-13.684c0.005 0.083 0.009 0.166 0.009 0.25v24z" fill="#000000"></path>
</svg>
