<?xml version="1.0" encoding="utf-8"?>
<!-- Generated by IcoMoon.io -->
<!DOCTYPE svg PUBLIC "-//W3C//DTD SVG 1.1//EN" "http://www.w3.org/Graphics/SVG/1.1/DTD/svg11.dtd">
<svg version="1.1" xmlns="http://www.w3.org/2000/svg" xmlns:xlink="http://www.w3.org/1999/xlink" width="64" height="64" viewBox="0 0 64 64">
<path d="M49.346 4c0 0-12.56 0-16.746 0-7.508 0-14.573 5.688-14.573 12.276 0 6.733 5.118 12.167 12.755 12.167 0.531 0 1.047-0.011 1.553-0.047-0.495 0.949-0.85 2.018-0.85 3.128 0 1.871 1.007 3.388 2.279 4.627-0.962 0-1.89 0.028-2.903 0.028-9.299-0-16.456 5.922-16.456 12.064 0 6.049 7.846 9.832 17.146 9.832 10.602 0 16.457-6.015 16.457-12.064 0-4.85-1.431-7.755-5.855-10.883-1.514-1.071-4.408-3.677-4.408-5.209 0-1.795 0.512-2.679 3.214-4.79 2.77-2.164 4.73-5.206 4.73-8.745 0-4.213-1.876-8.319-5.398-9.673h5.31l3.748-2.709zM43.497 44.966c0.133 0.561 0.205 1.138 0.205 1.727 0 4.888-3.149 8.707-12.186 8.707-6.428 0-11.070-4.069-11.070-8.956 0-4.79 5.758-8.778 12.185-8.708 1.5 0.016 2.898 0.257 4.167 0.668 3.489 2.427 5.992 3.797 6.698 6.563zM33.205 26.736c-4.315-0.129-8.415-4.827-9.16-10.491-0.745-5.667 2.148-10.003 6.462-9.874 4.313 0.13 8.415 4.676 9.16 10.341 0.744 5.666-2.149 10.154-6.462 10.024z" fill="#000000"></path>
</svg>
