<?xml version="1.0" encoding="utf-8"?>
<!-- Generated by IcoMoon.io -->
<!DOCTYPE svg PUBLIC "-//W3C//DTD SVG 1.1//EN" "http://www.w3.org/Graphics/SVG/1.1/DTD/svg11.dtd">
<svg version="1.1" xmlns="http://www.w3.org/2000/svg" xmlns:xlink="http://www.w3.org/1999/xlink" width="64" height="64" viewBox="0 0 64 64">
<path d="M0.050 54.354c-0.015-0.158-0.028-0.317-0.036-0.477 0.008 0.16 0.021 0.319 0.036 0.477zM14.744 35.322c5.751 0.171 9.608-5.794 8.616-13.325-0.993-7.53-6.462-13.573-12.213-13.745-5.752-0.171-9.609 5.593-8.616 13.125 0.993 7.529 6.46 13.773 12.212 13.945zM64 16v-5.332c0-5.867-4.799-10.668-10.666-10.668h-42.666c-5.767 0-10.501 4.639-10.66 10.37 3.648-3.212 8.708-5.895 13.93-5.895 5.582 0 22.328 0 22.328 0l-4.997 4.226h-7.079c4.696 1.8 7.197 7.258 7.197 12.858 0 4.703-2.613 8.747-6.305 11.623-3.603 2.806-4.286 3.982-4.286 6.367 0 2.036 3.859 5.5 5.877 6.924 5.899 4.159 7.807 8.020 7.807 14.466 0 1.027-0.128 2.052-0.379 3.060h19.234c5.867 0 10.666-4.797 10.666-10.668v-33.332h-12v12h-4v-12h-12v-4h12v-12h4v12h12zM11.618 47.871c1.351 0 2.589-0.037 3.871-0.037-1.697-1.646-3.039-3.663-3.039-6.149 0-1.475 0.473-2.896 1.133-4.157-0.674 0.048-1.362 0.062-2.070 0.062-4.647 0-8.594-1.505-11.513-3.991v4.203l0 12.608c3.34-1.586 7.306-2.539 11.617-2.539zM0.214 55.454c-0.070-0.341-0.123-0.688-0.159-1.040 0.036 0.352 0.089 0.699 0.159 1.040zM28.466 59.553c-0.941-3.675-4.278-5.498-8.93-8.723-1.692-0.546-3.556-0.867-5.556-0.888-5.601-0.060-10.819 2.184-13.764 5.523 0.995 4.857 5.315 8.535 10.452 8.535h17.903c0.113-0.696 0.169-1.414 0.169-2.152 0-0.783-0.096-1.55-0.273-2.295z" fill="#000000"></path>
</svg>
