<?xml version="1.0" encoding="utf-8"?>
<!-- Generated by IcoMoon.io -->
<!DOCTYPE svg PUBLIC "-//W3C//DTD SVG 1.1//EN" "http://www.w3.org/Graphics/SVG/1.1/DTD/svg11.dtd">
<svg version="1.1" xmlns="http://www.w3.org/2000/svg" xmlns:xlink="http://www.w3.org/1999/xlink" width="64" height="64" viewBox="0 0 64 64">
<path d="M27.313 51.135c0 4.692-2.899 8.4-11.11 8.698-4.811-2.737-8.843-6.684-11.682-11.429 1.481-3.656 6.106-6.44 11.395-6.382 1.501 0.016 2.901 0.257 4.172 0.669 3.494 2.429 6.313 3.947 7.020 6.715 0.132 0.56 0.205 1.138 0.205 1.728zM32 0c-9.246 0-17.575 3.923-23.417 10.194 2.308-1.278 5.034-2.040 7.931-2.040 4.192 0 16.027 0 16.027 0l-3.581 3.759h-4.207c2.968 1.701 4.547 5.203 4.547 9.063 0 3.543-1.963 6.399-4.736 8.566-2.705 2.113-3.218 2.998-3.218 4.796 0 1.534 3.233 3.819 4.719 4.934 5.176 3.882 6.224 6.324 6.224 11.179 0 4.92-4.309 9.819-11.617 11.484 3.522 1.334 7.339 2.066 11.328 2.066 17.673 0 32-14.327 32-32s-14.327-32-32-32zM48 24v8h-4v-8h-8v-4h8v-8h4v8h8v4h-8zM22.86 21.217c0.745 5.674-1.74 9.324-6.058 9.196-4.32-0.13-8.425-4.093-9.171-9.765-0.745-5.674 2.151-10.016 6.471-9.887 4.318 0.13 8.014 4.784 8.759 10.457zM13.805 40.129c-4.668 0-8.633 1.611-11.428 3.992-1.531-3.739-2.378-7.831-2.378-12.121 0-3.548 0.579-6.96 1.645-10.15 0.461 6.215 4.835 11.012 12.061 11.012 0.532 0 1.048-0.028 1.555-0.064-0.497 0.952-0.851 2.012-0.851 3.124 0 1.873 1.030 2.942 2.304 4.181-0.963 0-1.892 0.026-2.907 0.026z" fill="#000000"></path>
</svg>
