<?xml version="1.0" encoding="utf-8"?>
<!-- Generated by IcoMoon.io -->
<!DOCTYPE svg PUBLIC "-//W3C//DTD SVG 1.1//EN" "http://www.w3.org/Graphics/SVG/1.1/DTD/svg11.dtd">
<svg version="1.1" xmlns="http://www.w3.org/2000/svg" xmlns:xlink="http://www.w3.org/1999/xlink" width="64" height="64" viewBox="0 0 64 64">
<path d="M32 0c-17.673 0-32 14.327-32 32s14.327 32 32 32 32-14.327 32-32-14.327-32-32-32zM51.54 36.85c-2.3 8.92-10.335 15.15-19.539 15.15s-17.241-6.23-19.541-15.151c-0.389-1.51 0.522-3.055 2.032-3.445 0.232-0.060 0.47-0.090 0.709-0.090 1.289 0 2.414 0.873 2.737 2.123 1.657 6.422 7.44 10.907 14.063 10.907s12.406-4.485 14.063-10.907c0.322-1.25 1.447-2.124 2.735-2.124 0.239 0 0.478 0.031 0.711 0.091 0.731 0.188 1.345 0.651 1.729 1.303s0.491 1.412 0.301 2.144z" fill="#000000"></path>
</svg>
