<?xml version="1.0" encoding="utf-8"?>
<!-- Generated by IcoMoon.io -->
<!DOCTYPE svg PUBLIC "-//W3C//DTD SVG 1.1//EN" "http://www.w3.org/Graphics/SVG/1.1/DTD/svg11.dtd">
<svg version="1.1" xmlns="http://www.w3.org/2000/svg" xmlns:xlink="http://www.w3.org/1999/xlink" width="64" height="64" viewBox="0 0 64 64">
<path d="M53.375 0h-42.75c-5.844 0-10.625 4.781-10.625 10.625v42.75c0 5.844 4.781 10.625 10.625 10.625h42.75c5.844 0 10.625-4.781 10.625-10.625v-42.75c0-5.844-4.781-10.625-10.625-10.625zM20.488 28h23.025c0.437 1.254 0.675 2.599 0.675 4 0 6.72-5.467 12.188-12.188 12.188s-12.188-5.467-12.188-12.188c0-1.401 0.238-2.746 0.675-4zM56 28.003v23.997c0 2.2-1.8 4-4 4h-40c-2.2 0-4-1.8-4-4v-24h6.257c-0.29 1.288-0.444 2.626-0.444 4 0 10.029 8.159 18.188 18.188 18.188s18.188-8.159 18.188-18.188c0-1.374-0.154-2.712-0.444-4l6.257 0.003zM56 14c0 1.1-0.9 2-2 2h-4c-1.1 0-2-0.9-2-2v-4c0-1.1 0.9-2 2-2h4c1.1 0 2 0.9 2 2v4z" fill="#000000"></path>
</svg>
