<?xml version="1.0" encoding="utf-8"?>
<!-- Generated by IcoMoon.io -->
<!DOCTYPE svg PUBLIC "-//W3C//DTD SVG 1.1//EN" "http://www.w3.org/Graphics/SVG/1.1/DTD/svg11.dtd">
<svg version="1.1" xmlns="http://www.w3.org/2000/svg" xmlns:xlink="http://www.w3.org/1999/xlink" width="64" height="64" viewBox="0 0 64 64">
<path d="M64 12.151c-2.355 1.044-4.885 1.75-7.541 2.067 2.711-1.625 4.793-4.198 5.773-7.264-2.537 1.505-5.347 2.597-8.338 3.186-2.395-2.552-5.808-4.146-9.584-4.146-7.251 0-13.13 5.879-13.13 13.13 0 1.029 0.116 2.031 0.34 2.992-10.912-0.548-20.588-5.775-27.064-13.719-1.13 1.939-1.778 4.195-1.778 6.601 0 4.556 2.318 8.575 5.841 10.929-2.152-0.068-4.177-0.659-5.947-1.642-0.001 0.055-0.001 0.11-0.001 0.165 0 6.362 4.526 11.668 10.533 12.875-1.102 0.3-2.262 0.461-3.459 0.461-0.846 0-1.669-0.083-2.47-0.236 1.671 5.216 6.52 9.013 12.266 9.118-4.494 3.522-10.155 5.621-16.307 5.621-1.060 0-2.105-0.062-3.132-0.184 5.811 3.726 12.713 5.9 20.128 5.9 24.151 0 37.358-20.008 37.358-37.359 0-0.569-0.013-1.136-0.038-1.699 2.566-1.851 4.792-4.164 6.552-6.797z" fill="#000000"></path>
</svg>
