<?xml version="1.0" encoding="utf-8"?>
<!-- Generated by IcoMoon.io -->
<!DOCTYPE svg PUBLIC "-//W3C//DTD SVG 1.1//EN" "http://www.w3.org/Graphics/SVG/1.1/DTD/svg11.dtd">
<svg version="1.1" xmlns="http://www.w3.org/2000/svg" xmlns:xlink="http://www.w3.org/1999/xlink" width="64" height="64" viewBox="0 0 64 64">
<path d="M53.334 0h-42.666c-5.867 0-10.668 4.801-10.668 10.668v42.664c0 5.871 4.801 10.668 10.668 10.668h42.666c5.867 0 10.666-4.797 10.666-10.668v-42.664c0-5.867-4.799-10.668-10.666-10.668zM47.905 23.843c0.016 0.352 0.024 0.706 0.024 1.062 0 10.844-8.254 23.349-23.349 23.349-4.634 0-8.948-1.359-12.58-3.687 0.642 0.076 1.295 0.115 1.958 0.115 3.845 0 7.383-1.312 10.192-3.513-3.591-0.066-6.622-2.439-7.666-5.699 0.501 0.096 1.015 0.148 1.544 0.148 0.748 0 1.474-0.101 2.162-0.288-3.754-0.754-6.583-4.071-6.583-8.047 0-0.035 0-0.069 0.001-0.103 1.106 0.615 2.372 0.984 3.717 1.026-2.202-1.472-3.651-3.983-3.651-6.831 0-1.504 0.405-2.914 1.111-4.126 4.048 4.965 10.094 8.232 16.915 8.574-0.14-0.601-0.212-1.227-0.212-1.87 0-4.532 3.675-8.206 8.206-8.206 2.36 0 4.493 0.997 5.99 2.591 1.869-0.368 3.626-1.051 5.211-1.991-0.613 1.916-1.914 3.525-3.608 4.54 1.66-0.198 3.242-0.639 4.713-1.292-1.1 1.645-2.491 3.091-4.095 4.248z" fill="#000000"></path>
</svg>
