<?xml version="1.0" encoding="utf-8"?>
<!-- Generated by IcoMoon.io -->
<!DOCTYPE svg PUBLIC "-//W3C//DTD SVG 1.1//EN" "http://www.w3.org/Graphics/SVG/1.1/DTD/svg11.dtd">
<svg version="1.1" xmlns="http://www.w3.org/2000/svg" xmlns:xlink="http://www.w3.org/1999/xlink" width="64" height="64" viewBox="0 0 64 64">
<path d="M8.518 46.933c-4.7 0-8.518 3.833-8.518 8.505 0 4.697 3.819 8.488 8.518 8.488 4.717 0 8.531-3.791 8.531-8.488-0-4.671-3.814-8.505-8.531-8.505zM0.010 21.746v12.266c7.987 0 15.497 3.123 21.154 8.782 5.649 5.645 8.768 13.19 8.768 21.206h12.32c-0-23.301-18.955-42.254-42.241-42.254zM0.024 0v12.272c28.486 0 51.672 23.208 51.672 51.728h12.303c0-35.279-28.703-64-63.976-64z" fill="#000000"></path>
</svg>
