<?xml version="1.0" encoding="utf-8"?>
<!-- Generated by IcoMoon.io -->
<!DOCTYPE svg PUBLIC "-//W3C//DTD SVG 1.1//EN" "http://www.w3.org/Graphics/SVG/1.1/DTD/svg11.dtd">
<svg version="1.1" xmlns="http://www.w3.org/2000/svg" xmlns:xlink="http://www.w3.org/1999/xlink" width="64" height="64" viewBox="0 0 64 64">
<path d="M53.334 0h-42.666c-5.867 0-10.668 4.801-10.668 10.668v42.664c0 5.871 4.801 10.668 10.668 10.668h42.666c5.867 0 10.666-4.797 10.666-10.668v-42.664c0-5.867-4.799-10.668-10.666-10.668zM17.434 51.953c-2.998 0-5.434-2.418-5.434-5.414 0-2.98 2.436-5.426 5.434-5.426 3.010 0 5.441 2.446 5.441 5.426-0 2.996-2.431 5.414-5.441 5.414zM31.092 52c0-5.113-1.988-9.926-5.591-13.528-3.607-3.609-8.398-5.602-13.494-5.602v-7.824c14.853 0 26.945 12.090 26.945 26.953l-7.86 0zM44.977 52c0-18.191-14.791-32.996-32.961-32.996v-7.828c22.5 0 40.809 18.32 40.809 40.825l-7.848-0z" fill="#000000"></path>
</svg>
