<?xml version="1.0" encoding="utf-8"?>
<!-- Generated by IcoMoon.io -->
<!DOCTYPE svg PUBLIC "-//W3C//DTD SVG 1.1//EN" "http://www.w3.org/Graphics/SVG/1.1/DTD/svg11.dtd">
<svg version="1.1" xmlns="http://www.w3.org/2000/svg" xmlns:xlink="http://www.w3.org/1999/xlink" width="64" height="64" viewBox="0 0 64 64">
<path d="M32 0c-17.673 0-32 14.327-32 32s14.327 32 32 32 32-14.327 32-32-14.327-32-32-32zM20 48c-2.209 0-4-1.791-4-4s1.791-4 4-4 4 1.791 4 4-1.791 4-4 4zM31 48c0-8.271-6.729-15-15-15v-6c11.579 0 21 9.421 21 21h-6zM43 48c0-7.212-2.809-13.992-7.908-19.092s-11.88-7.908-19.092-7.908v-6c8.815 0 17.102 3.433 23.335 9.666s9.665 14.52 9.665 23.334h-6z" fill="#000000"></path>
</svg>
