<?xml version="1.0" encoding="utf-8"?>
<!-- Generated by IcoMoon.io -->
<!DOCTYPE svg PUBLIC "-//W3C//DTD SVG 1.1//EN" "http://www.w3.org/Graphics/SVG/1.1/DTD/svg11.dtd">
<svg version="1.1" xmlns="http://www.w3.org/2000/svg" xmlns:xlink="http://www.w3.org/1999/xlink" width="64" height="64" viewBox="0 0 64 64">
<path d="M52 8h-40c-6.6 0-12 5.4-12 12v24c0 6.6 5.4 12 12 12h40c6.6 0 12-5.4 12-12v-24c0-6.6-5.4-12-12-12zM60 44c0 2.124-0.836 4.129-2.353 5.647s-3.523 2.353-5.647 2.353h-40c-2.124 0-4.129-0.836-5.646-2.353s-2.354-3.523-2.354-5.647v-24c0-2.124 0.836-4.129 2.354-5.646s3.523-2.354 5.646-2.354h40c2.124 0 4.129 0.836 5.647 2.354s2.353 3.523 2.353 5.646v24zM24 48l20-16-20-16z" fill="#000000"></path>
</svg>
