<?xml version="1.0" encoding="utf-8"?>
<!-- Generated by IcoMoon.io -->
<!DOCTYPE svg PUBLIC "-//W3C//DTD SVG 1.1//EN" "http://www.w3.org/Graphics/SVG/1.1/DTD/svg11.dtd">
<svg version="1.1" xmlns="http://www.w3.org/2000/svg" xmlns:xlink="http://www.w3.org/1999/xlink" width="64" height="64" viewBox="0 0 64 64">
<path d="M0 19.273l2.6 3.409c0 0 5.361-4.226 7.148-2.113s8.608 27.622 10.886 32.328c1.988 4.127 7.47 9.582 13.482 5.686 6.008-3.896 25.99-20.955 29.567-41.101 3.574-20.139-24.045-15.92-26.971 1.626 7.312-4.39 11.215 1.784 7.473 8.773-3.735 6.983-7.148 11.537-8.934 11.537-1.784 0-3.156-4.673-5.199-12.84-2.112-8.444-2.099-23.654-10.882-21.929-8.282 1.626-19.168 14.624-19.168 14.624z" fill="#000000"></path>
</svg>
