<?xml version="1.0" encoding="utf-8"?>
<!-- Generated by IcoMoon.io -->
<!DOCTYPE svg PUBLIC "-//W3C//DTD SVG 1.1//EN" "http://www.w3.org/Graphics/SVG/1.1/DTD/svg11.dtd">
<svg version="1.1" xmlns="http://www.w3.org/2000/svg" xmlns:xlink="http://www.w3.org/1999/xlink" width="64" height="64" viewBox="0 0 64 64">
<path d="M53.332 0h-42.664c-5.867 0-10.668 4.801-10.668 10.668v42.664c0 5.871 4.801 10.668 10.668 10.668h42.664c5.867 0 10.668-4.797 10.668-10.668v-42.664c0-5.867-4.801-10.668-10.668-10.668zM50.804 27.383c-2.122 11.956-13.982 22.081-17.549 24.394-3.568 2.313-6.822-0.926-8.002-3.375-1.351-2.794-5.401-17.934-6.46-19.189-1.060-1.252-4.242 1.255-4.242 1.255l-1.543-2.023c0 0 6.461-7.715 11.377-8.68 5.213-1.023 5.205 8.004 6.459 13.015 1.212 4.848 2.027 7.622 3.086 7.622 1.061 0 3.086-2.704 5.303-6.848 2.221-4.148-0.096-7.813-4.436-5.206 1.737-10.416 18.129-12.92 16.007-0.966z" fill="#000000"></path>
</svg>
