<?xml version="1.0" encoding="utf-8"?>
<!-- Generated by IcoMoon.io -->
<!DOCTYPE svg PUBLIC "-//W3C//DTD SVG 1.1//EN" "http://www.w3.org/Graphics/SVG/1.1/DTD/svg11.dtd">
<svg version="1.1" xmlns="http://www.w3.org/2000/svg" xmlns:xlink="http://www.w3.org/1999/xlink" width="64" height="64" viewBox="0 0 64 64">
<path d="M53.25 0h-42.5c-5.912 0-10.75 4.838-10.75 10.75v42.5c0 5.913 4.838 10.75 10.75 10.75h42.5c5.913 0 10.75-4.837 10.75-10.75v-42.5c0-5.912-4.837-10.75-10.75-10.75zM52.729 50.479c-7.083 2.333-20.917 6.875-23.5 7.521s-5.25 1.729-6.75-2.604c0 0-12.75-37.667-13.917-41s-2.303-5.343 0.333-6.396c6.086-2.431 12.417-5.531 13.583-2 1.044 3.159 12.167 38 12.167 38s13.083-4.604 16.667-5.604 4.813-1.667 5.75 3.25 2.75 6.5-4.333 8.833z" fill="#000000"></path>
</svg>
