<?xml version="1.0" encoding="utf-8"?>
<!-- Generated by IcoMoon.io -->
<!DOCTYPE svg PUBLIC "-//W3C//DTD SVG 1.1//EN" "http://www.w3.org/Graphics/SVG/1.1/DTD/svg11.dtd">
<svg version="1.1" xmlns="http://www.w3.org/2000/svg" xmlns:xlink="http://www.w3.org/1999/xlink" width="64" height="64" viewBox="0 0 64 64">
<path d="M50 26c-4.411 0-8 3.589-8 8s3.589 8 8 8c4.411 0 8-3.589 8-8s-3.589-8-8-8zM50 20v0c7.732 0 14 6.268 14 14s-6.268 14-14 14-14-6.268-14-14c0-7.732 6.268-14 14-14zM0 34c0-7.732 6.268-14 14-14s14 6.268 14 14c0 7.732-6.268 14-14 14s-14-6.268-14-14z" fill="#000000"></path>
</svg>
