<?xml version="1.0" encoding="utf-8"?>
<!-- Generated by IcoMoon.io -->
<!DOCTYPE svg PUBLIC "-//W3C//DTD SVG 1.1//EN" "http://www.w3.org/Graphics/SVG/1.1/DTD/svg11.dtd">
<svg version="1.1" xmlns="http://www.w3.org/2000/svg" xmlns:xlink="http://www.w3.org/1999/xlink" width="64" height="64" viewBox="0 0 64 64">
<path d="M44 24.641l-22.779-22.779c3.368-1.205 6.996-1.863 10.779-1.863 4.244 0 8.294 0.828 12 2.329v22.313zM48 44v-39.718c9.565 5.533 16 15.874 16 27.718 0 4.244-0.828 8.294-2.328 12h-13.672zM20 48h39.718c-5.533 9.565-15.874 16-27.718 16-4.244 0-8.294-0.828-12-2.328v-13.672zM26.641 14l-25.705 25.705c-0.61-2.468-0.936-5.048-0.936-7.705 0-12.086 6.702-22.606 16.591-28.050l10.050 10.050zM16 31.359v28.359c-5.912-3.42-10.627-8.678-13.367-14.992l13.367-13.367z" fill="#000000"></path>
</svg>
