<?xml version="1.0" encoding="utf-8"?>
<!-- Generated by IcoMoon.io -->
<!DOCTYPE svg PUBLIC "-//W3C//DTD SVG 1.1//EN" "http://www.w3.org/Graphics/SVG/1.1/DTD/svg11.dtd">
<svg version="1.1" xmlns="http://www.w3.org/2000/svg" xmlns:xlink="http://www.w3.org/1999/xlink" width="64" height="64" viewBox="0 0 64 64">
<path d="M53.336 0h-42.668c-5.867 0-10.668 4.801-10.668 10.668v42.664c0 5.871 4.801 10.668 10.668 10.668h42.667c5.867 0 10.665-4.797 10.665-10.669v-42.664c0-5.867-4.797-10.668-10.664-10.668zM32 4c4.295 0 8.363 0.968 12 2.696v17.945l-19.597-19.597c2.416-0.68 4.964-1.044 7.597-1.044zM4 32c0-10.993 6.336-20.505 15.555-25.087l7.087 7.087-22.311 22.311c-0.217-1.405-0.33-2.845-0.33-4.311zM16 54.979c-4.668-3.256-8.298-7.897-10.292-13.328l10.292-10.292v23.62zM32 60c-4.295 0-8.363-0.968-12-2.696v-9.304h34.979c-5.060 7.253-13.464 12-22.979 12zM57.304 44h-9.304v-34.979c7.253 5.060 12 13.464 12 22.979 0 4.295-0.968 8.363-2.696 12z" fill="#000000"></path>
</svg>
