<?xml version="1.0" encoding="utf-8"?>
<!-- Generated by IcoMoon.io -->
<!DOCTYPE svg PUBLIC "-//W3C//DTD SVG 1.1//EN" "http://www.w3.org/Graphics/SVG/1.1/DTD/svg11.dtd">
<svg version="1.1" xmlns="http://www.w3.org/2000/svg" xmlns:xlink="http://www.w3.org/1999/xlink" width="64" height="64" viewBox="0 0 64 64">
<path d="M32 64c-17.645 0-32-14.355-32-32s14.355-32 32-32c17.645 0 32 14.355 32 32s-14.355 32-32 32zM58.987 36.38c-0.935-0.295-8.46-2.539-17.026-1.169 3.575 9.824 5.030 17.825 5.31 19.488 6.132-4.146 10.497-10.714 11.716-18.319zM42.677 57.202c-0.407-2.398-1.994-10.756-5.831-20.727-0.060 0.020-0.12 0.040-0.18 0.061-15.417 5.372-20.951 16.063-21.443 17.069 4.634 3.614 10.459 5.77 16.777 5.77 3.786 0 7.395-0.774 10.677-2.172zM11.694 50.317c0.619-1.060 8.121-13.48 22.217-18.037 0.356-0.115 0.715-0.223 1.077-0.325-0.686-1.553-1.434-3.107-2.216-4.639-13.65 4.085-26.895 3.914-28.091 3.89-0.008 0.278-0.014 0.556-0.014 0.835 0 7.020 2.661 13.43 7.027 18.276zM5.245 26.444c1.222 0.016 12.484 0.065 25.269-3.33-4.529-8.051-9.413-14.819-10.134-15.807-7.647 3.607-13.363 10.656-15.135 19.138zM25.595 5.469c0.756 1.011 5.72 7.772 10.199 16.001 9.719-3.643 13.834-9.173 14.325-9.873-4.827-4.282-11.174-6.888-18.119-6.888-2.206 0-4.35 0.264-6.405 0.76zM53.158 14.757c-0.576 0.78-5.157 6.651-15.263 10.777 0.636 1.302 1.246 2.626 1.813 3.959 0.201 0.473 0.397 0.943 0.589 1.411 9.095-1.144 18.131 0.689 19.033 0.88-0.060-6.451-2.366-12.376-6.172-17.027z" fill="#000000"></path>
</svg>
