<?xml version="1.0" encoding="utf-8"?>
<!-- Generated by IcoMoon.io -->
<!DOCTYPE svg PUBLIC "-//W3C//DTD SVG 1.1//EN" "http://www.w3.org/Graphics/SVG/1.1/DTD/svg11.dtd">
<svg version="1.1" xmlns="http://www.w3.org/2000/svg" xmlns:xlink="http://www.w3.org/1999/xlink" width="64" height="64" viewBox="0 0 64 64">
<path d="M47.854 14.147c-0.43 0.613-4.030 5.452-12.535 8.639-3.919-7.2-8.263-13.116-8.924-14.001 1.799-0.434 3.675-0.665 5.605-0.665 6.077 0 11.63 2.279 15.854 6.027zM33.672 32.245c-12.334 3.987-18.898 14.855-19.44 15.783-3.82-4.24-6.148-9.849-6.148-15.991 0-0.245 0.005-0.488 0.012-0.731 1.046 0.021 12.636 0.171 24.58-3.404 0.684 1.34 1.339 2.7 1.939 4.059-0.316 0.089-0.631 0.184-0.943 0.284zM32 0c-17.673 0-32 14.327-32 32s14.327 32 32 32 32-14.327 32-32-14.327-32-32-32zM32 60c-15.439 0-28-12.561-28-28s12.561-28 28-28c15.44 0 28 12.561 28 28s-12.56 28-28 28zM38.745 29.806c-0.497-1.166-1.030-2.325-1.587-3.464 8.843-3.61 12.851-8.748 13.355-9.43 3.331 4.070 5.348 9.253 5.401 14.898-0.789-0.167-8.696-1.77-16.654-0.77-0.168-0.41-0.339-0.821-0.515-1.234zM30.699 24.224c-11.187 2.971-21.041 2.928-22.11 2.914 1.551-7.421 6.552-13.589 13.243-16.745 0.631 0.865 4.904 6.787 8.867 13.832zM36.083 35.969c0.053-0.018 0.105-0.035 0.158-0.053 3.358 8.725 4.746 16.038 5.102 18.137-2.872 1.223-6.029 1.901-9.342 1.901-5.529 0-10.625-1.886-14.68-5.049 0.43-0.88 5.273-10.235 18.762-14.935zM40.717 34.81c7.495-1.2 14.079 0.764 14.898 1.023-1.066 6.655-4.886 12.402-10.251 16.029-0.245-1.455-1.518-8.456-4.646-17.052z" fill="#000000"></path>
</svg>
