<?xml version="1.0" encoding="utf-8"?>
<!-- Generated by IcoMoon.io -->
<!DOCTYPE svg PUBLIC "-//W3C//DTD SVG 1.1//EN" "http://www.w3.org/Graphics/SVG/1.1/DTD/svg11.dtd">
<svg version="1.1" xmlns="http://www.w3.org/2000/svg" xmlns:xlink="http://www.w3.org/1999/xlink" width="64" height="64" viewBox="0 0 64 64">
<path d="M35.116 25.438c-2.44-0.143-5.255 0.003-8.516 0.559l7.521 13.555 29.879-8.204c-0.322-0.766-0.793-1.514-1.416-2.237-3.092-3.58-9.796-6.773-17.1-8.214l0-0.002c-7.165-1.68-14.925-1.609-22.872-0.409-0.287 0.043-0.572 0.089-0.855 0.137l-2.642-4.893c-2.571 0.343-4.988 0.878-7.225 1.592l2.516 5.262c-4.11 1.592-7.483 3.86-9.916 6.59-4.013 4.566-5.599 10.307-3.672 15.897 0.388 1.128 0.912 2.197 1.558 3.2l29.879-8.206-8.297-15.366c0.285-0.055 0.575-0.11 0.87-0.164 13.418-2.394 20.756 1.304 24.776 5.239l-10.222 2.478-4.266-6.815zM10.92 39.149c-0.922-4.209-0.188-8.908 5.65-12.037l4.571 9.559-10.221 2.478z" fill="#000000"></path>
</svg>
