<?xml version="1.0" encoding="utf-8"?>
<!-- Generated by IcoMoon.io -->
<!DOCTYPE svg PUBLIC "-//W3C//DTD SVG 1.1//EN" "http://www.w3.org/Graphics/SVG/1.1/DTD/svg11.dtd">
<svg version="1.1" xmlns="http://www.w3.org/2000/svg" xmlns:xlink="http://www.w3.org/1999/xlink" width="64" height="64" viewBox="0 0 64 64">
<path d="M53.25 0h-42.5c-5.912 0-10.75 4.838-10.75 10.75v42.5c0 5.913 4.838 10.75 10.75 10.75h42.5c5.913 0 10.75-4.837 10.75-10.75v-42.5c0-5.912-4.837-10.75-10.75-10.75zM60 48h-24v-14.75c0 0 4.396 0.063 6.75 2.5v4.25h9.651c-0.739-2.368-2.317-4.694-4.571-6.666-3.874-3.389-10.2-5.084-15.83-5.084v19.75h-28v-6c0-2.712 0.916-5.409 2.648-7.797 1.537-2.12 3.679-3.989 6.366-5.557 3.152-1.839 6.91-3.169 10.986-3.924v-8.722h8v8c9.188 0 13.851 1.65 18.986 4.645 2.687 1.568 4.829 3.437 6.366 5.557 1.732 2.389 2.648 5.085 2.648 7.797v6zM12.474 40c0.739-2.368 2.317-4.694 4.571-6.666 1.971-1.725 4.351-3.074 6.955-3.985v10.651h-11.526z" fill="#000000"></path>
</svg>
