<?xml version="1.0" encoding="utf-8"?>
<!-- Generated by IcoMoon.io -->
<!DOCTYPE svg PUBLIC "-//W3C//DTD SVG 1.1//EN" "http://www.w3.org/Graphics/SVG/1.1/DTD/svg11.dtd">
<svg version="1.1" xmlns="http://www.w3.org/2000/svg" xmlns:xlink="http://www.w3.org/1999/xlink" width="64" height="64" viewBox="0 0 64 64">
<path d="M44 18c0-3.314 2.686-6 6-6s6 2.686 6 6c0 3.314-2.686 6-6 6s-6-2.686-6-6zM59.9 8.101c-5.467-5.467-14.332-5.467-19.799 0-2.224 2.224-3.543 5.009-3.958 7.899v0l-12.793 19.389c-1.719 0.088-3.424 0.526-4.998 1.313l-9.868-7.714c-2.284-1.786-5.584-1.381-7.37 0.903s-1.381 5.584 0.903 7.37l9.746 7.618c-1.060 4.174 0.042 8.784 3.308 12.050 4.932 4.931 12.927 4.931 17.858 0 3.029-3.029 4.197-7.214 3.505-11.135l15.566-13.937c2.891-0.415 5.676-1.734 7.9-3.958 5.467-5.467 5.467-14.332 0-19.799zM24 56.419c-4.649 0-8.419-3.769-8.419-8.419 0-0.044 0.003-0.088 0.003-0.133l4.182 3.269c0.96 0.75 2.099 1.114 3.23 1.114 1.56 0 3.105-0.693 4.14-2.017 1.786-2.284 1.381-5.584-0.903-7.37l-3.969-3.102c0.56-0.117 1.14-0.18 1.735-0.18 4.649 0 8.419 3.769 8.419 8.419s-3.769 8.419-8.419 8.419zM50 28c-5.523 0-10-4.477-10-10s4.477-10 10-10 10 4.477 10 10-4.477 10-10 10z" fill="#000000"></path>
</svg>
