<?xml version="1.0" encoding="utf-8"?>
<!-- Generated by IcoMoon.io -->
<!DOCTYPE svg PUBLIC "-//W3C//DTD SVG 1.1//EN" "http://www.w3.org/Graphics/SVG/1.1/DTD/svg11.dtd">
<svg version="1.1" xmlns="http://www.w3.org/2000/svg" xmlns:xlink="http://www.w3.org/1999/xlink" width="64" height="64" viewBox="0 0 64 64">
<path d="M18.995 52.251c1.697 0 3.362-0.821 4.373-2.338 1.608-2.413 0.956-5.672-1.456-7.281l-4.13-2.753c0.707-0.193 1.45-0.297 2.217-0.297 4.649 0 8.419 3.769 8.419 8.419s-3.769 8.419-8.419 8.419c-4.525 0-8.215-3.571-8.409-8.048l4.497 2.998c0.895 0.597 1.907 0.882 2.907 0.882zM53.334 0c5.867 0 10.666 4.801 10.666 10.668v42.664c0 5.871-4.799 10.668-10.666 10.668h-42.666c-5.867 0-10.668-4.797-10.668-10.668v-12.689l7.583 5.056c-0.728 3.948 0.434 8.177 3.487 11.231 4.931 4.931 12.927 4.931 17.858 0 3.029-3.029 4.197-7.214 3.505-11.135l15.566-13.937c2.891-0.415 5.676-1.734 7.9-3.958 5.467-5.467 5.467-14.332 0-19.799s-14.332-5.467-19.799 0c-2.224 2.224-3.543 5.009-3.958 7.899v0l-12.793 19.389c-1.991 0.102-3.961 0.673-5.733 1.712l-13.617-9.078v-17.356c0-5.867 4.801-10.668 10.668-10.668h42.666zM56 18c0-5.523-4.477-10-10-10s-10 4.477-10 10 4.477 10 10 10 10-4.477 10-10zM40 18c0-3.314 2.686-6 6-6s6 2.686 6 6-2.686 6-6 6-6-2.686-6-6z" fill="#000000"></path>
</svg>
