<?xml version="1.0" encoding="utf-8"?>
<!-- Generated by IcoMoon.io -->
<!DOCTYPE svg PUBLIC "-//W3C//DTD SVG 1.1//EN" "http://www.w3.org/Graphics/SVG/1.1/DTD/svg11.dtd">
<svg version="1.1" xmlns="http://www.w3.org/2000/svg" xmlns:xlink="http://www.w3.org/1999/xlink" width="64" height="64" viewBox="0 0 64 64">
<path d="M21.929 51.774c-3.767-0.941-5.866-3.936-5.873-8.379-0.002-1.42 0.101-2.101 0.455-3.015 0.869-2.24 3.171-3.929 6.198-4.551 1.507-0.309 1.971-0.642 1.971-1.411 0-0.241 0.18-0.96 0.399-1.597 0.996-2.894 2.839-5.307 4.809-6.294 2.062-1.033 3.103-1.266 5.597-1.253 3.542 0.019 5.309 0.787 7.781 3.383l1.359 1.428 1.218-0.421c5.894-2.040 11.769 1.432 12.243 7.235l0.13 1.587 1.161 0.416c3.315 1.188 4.872 3.681 4.59 7.347-0.185 2.397-1.306 4.311-3.081 5.261l-0.835 0.447-18.551 0.036c-14.256 0.028-18.788-0.023-19.571-0.219v0zM6.451 49.123c-2.261-0.568-4.657-2.678-5.78-5.092-0.637-1.369-0.671-1.571-0.671-3.992 0-2.304 0.054-2.674 0.562-3.818 1.069-2.411 3.118-4.154 5.689-4.838 0.543-0.145 1.053-0.375 1.133-0.512s0.17-0.885 0.199-1.662c0.179-4.825 3.174-9.076 7.357-10.441 2.26-0.738 5.223-0.806 7.681 0.233 0.779 0.33 0.692 0.4 2.34-1.884 0.975-1.351 2.819-2.781 4.431-3.636 1.74-0.924 3.55-1.349 5.713-1.343 6.048 0.016 11.26 4.014 13.188 10.115 0.616 1.95 0.585 2.495-0.141 2.511-0.317 0.007-1.225 0.192-2.018 0.41l-1.442 0.397-1.316-1.391c-3.71-3.921-9.765-4.768-14.912-2.087-2.056 1.071-3.709 2.609-4.957 4.613-0.89 1.429-2.024 4.094-2.024 4.756 0 0.469-0.36 0.704-1.896 1.236-4.756 1.648-7.532 5.455-7.53 10.326 0.001 1.773 0.433 3.942 1.033 5.185 0.226 0.468 0.352 0.914 0.28 0.99-0.184 0.194-6.101 0.129-6.918-0.077v0z" fill="#000000"></path>
</svg>
