<?xml version="1.0" encoding="utf-8"?>
<!-- Generated by IcoMoon.io -->
<!DOCTYPE svg PUBLIC "-//W3C//DTD SVG 1.1//EN" "http://www.w3.org/Graphics/SVG/1.1/DTD/svg11.dtd">
<svg version="1.1" xmlns="http://www.w3.org/2000/svg" xmlns:xlink="http://www.w3.org/1999/xlink" width="64" height="64" viewBox="0 0 64 64">
<path d="M32 51.993c-1.197 0-2.394-0.62-3.634-1.859-0.488-0.488-0.488-1.28 0-1.768s1.28-0.488 1.768 0c0.763 0.763 1.373 1.134 1.866 1.134s1.103-0.371 1.866-1.134c0.488-0.488 1.279-0.488 1.768 0s0.488 1.28 0 1.768c-1.24 1.239-2.437 1.859-3.634 1.859zM0 32.843c0 3.118 0.267 5.945 0.8 8.48s1.283 4.734 2.25 6.596c0.967 1.862 2.189 3.494 3.667 4.896s3.083 2.557 4.817 3.466c1.733 0.908 3.717 1.644 5.95 2.204s4.505 0.953 6.817 1.178 4.856 0.337 7.633 0.337c2.778 0 5.328-0.112 7.65-0.336s4.6-0.617 6.833-1.178c2.233-0.561 4.222-1.296 5.967-2.204s3.361-2.064 4.85-3.466c1.489-1.402 2.717-3.034 3.683-4.896s1.722-4.061 2.267-6.596c0.544-2.535 0.817-5.362 0.817-8.48 0-5.586-1.733-10.398-5.2-14.436 0.2-0.538 0.372-1.155 0.517-1.851s0.283-1.677 0.416-2.944c0.134-1.268 0.084-2.732-0.15-4.391s-0.672-3.354-1.317-5.081l-0.5-0.101c-0.333-0.067-0.878-0.045-1.633 0.067s-1.639 0.314-2.65 0.606c-1.011 0.292-2.317 0.869-3.917 1.733s-3.289 1.957-5.067 3.281c-3.022-0.92-7.189-1.882-12.5-1.882s-9.489 0.962-12.533 1.882c-1.778-1.324-3.472-2.412-5.083-3.264s-2.9-1.436-3.867-1.75c-0.967-0.314-1.861-0.516-2.683-0.606s-1.35-0.118-1.583-0.084c-0.233 0.034-0.405 0.073-0.517 0.118-0.645 1.728-1.089 3.421-1.333 5.082s-0.3 3.118-0.167 4.375c0.133 1.256 0.278 2.244 0.433 2.961s0.333 1.335 0.533 1.851c-3.467 4.016-5.2 8.828-5.2 14.436zM8.534 39.963c0-3.626 1.333-6.915 4-9.866 0.8-0.9 1.728-1.582 2.783-2.044s2.256-0.725 3.6-0.788 2.628-0.050 3.85 0.038c1.222 0.088 2.733 0.206 4.533 0.356s3.355 0.225 4.667 0.225c1.311 0 2.867-0.075 4.666-0.225s3.311-0.269 4.534-0.356c1.222-0.087 2.506-0.1 3.85-0.038s2.55 0.325 3.617 0.788c1.067 0.462 2 1.144 2.8 2.044 2.666 2.951 4 6.24 4 9.866 0 2.126-0.222 4.020-0.667 5.683s-1.006 3.057-1.683 4.183c-0.678 1.126-1.628 2.076-2.85 2.851s-2.406 1.376-3.55 1.801c-1.145 0.425-2.622 0.757-4.433 0.994s-3.433 0.381-4.867 0.431c-1.433 0.050-3.239 0.075-5.416 0.075s-3.978-0.025-5.4-0.075c-1.422-0.050-3.039-0.194-4.85-0.431s-3.289-0.569-4.433-0.994c-1.144-0.425-2.328-1.025-3.55-1.801s-2.172-1.726-2.85-2.851c-0.678-1.125-1.239-2.519-1.683-4.183s-0.667-3.558-0.667-5.683zM16 38c0-3.314 1.791-6 4-6s4 2.686 4 6c0 3.314-1.791 6-4 6s-4-2.686-4-6zM40 38c0-3.314 1.791-6 4-6s4 2.686 4 6c0 3.314-1.791 6-4 6s-4-2.686-4-6z" fill="#000000"></path>
</svg>
