<?xml version="1.0" encoding="utf-8"?>
<!-- Generated by IcoMoon.io -->
<!DOCTYPE svg PUBLIC "-//W3C//DTD SVG 1.1//EN" "http://www.w3.org/Graphics/SVG/1.1/DTD/svg11.dtd">
<svg version="1.1" xmlns="http://www.w3.org/2000/svg" xmlns:xlink="http://www.w3.org/1999/xlink" width="64" height="64" viewBox="0 0 64 64">
<path d="M32 0c-17.673 0-32 14.327-32 32s14.327 32 32 32 32-14.327 32-32-14.327-32-32-32zM51.004 51.004c-2.47 2.47-5.344 4.408-8.544 5.762-0.813 0.344-1.638 0.645-2.475 0.906v-4.796c0-2.521-0.865-4.375-2.594-5.563 1.083-0.104 2.078-0.25 2.984-0.438s1.865-0.458 2.875-0.813 1.917-0.776 2.719-1.266 1.573-1.125 2.313-1.906 1.359-1.667 1.859-2.656 0.896-2.177 1.188-3.563 0.438-2.912 0.438-4.578c0-3.229-1.052-5.979-3.156-8.25 0.958-2.5 0.854-5.219-0.313-8.156l-0.781-0.094c-0.542-0.063-1.516 0.167-2.922 0.688s-2.984 1.375-4.734 2.563c-2.479-0.688-5.052-1.031-7.719-1.031-2.688 0-5.25 0.344-7.688 1.031-1.104-0.75-2.151-1.37-3.141-1.859s-1.781-0.823-2.375-1-1.146-0.287-1.656-0.328-0.838-0.052-0.984-0.031-0.25 0.042-0.313 0.063c-1.167 2.958-1.271 5.677-0.313 8.156-2.104 2.271-3.156 5.021-3.156 8.25 0 1.667 0.146 3.193 0.438 4.578s0.688 2.573 1.188 3.563 1.12 1.875 1.859 2.656 1.51 1.417 2.313 1.906 1.708 0.911 2.719 1.266 1.969 0.625 2.875 0.813 1.901 0.333 2.984 0.438c-1.708 1.167-2.563 3.021-2.563 5.563v4.889c-0.944-0.281-1.874-0.613-2.788-0.999-3.2-1.353-6.074-3.292-8.544-5.762s-4.408-5.345-5.762-8.544c-1.4-3.31-2.11-6.829-2.11-10.459s0.71-7.149 2.11-10.459c1.353-3.2 3.292-6.074 5.762-8.544s5.344-4.408 8.544-5.762c3.31-1.4 6.829-2.11 10.459-2.11s7.149 0.71 10.459 2.11c3.2 1.353 6.074 3.292 8.544 5.762s4.408 5.345 5.762 8.544c1.4 3.31 2.11 6.829 2.11 10.459s-0.71 7.149-2.11 10.459c-1.353 3.2-3.292 6.074-5.762 8.544z" fill="#000000"></path>
</svg>
