<?xml version="1.0" encoding="utf-8"?>
<!-- Generated by IcoMoon.io -->
<!DOCTYPE svg PUBLIC "-//W3C//DTD SVG 1.1//EN" "http://www.w3.org/Graphics/SVG/1.1/DTD/svg11.dtd">
<svg version="1.1" xmlns="http://www.w3.org/2000/svg" xmlns:xlink="http://www.w3.org/1999/xlink" width="64" height="64" viewBox="0 0 64 64">
<path d="M14.705 15.545c-3.175 0-5.905 1.050-8.193 3.151-2.38 2.241-3.571 5.041-3.571 8.402 0 2.241 0.648 4.341 1.956 6.302 1.167 1.82 2.386 2.988 3.986 3.502v0.14c-1.6 0.653-2.31 2.287-2.31 4.901 0 2.008 0.711 3.501 2.31 4.482v0.14c-4.416 1.447-6.437 4.131-6.437 8.052 0 3.408 1.484 5.906 4.379 7.492 2.287 1.261 5.224 1.891 8.772 1.891 8.636 0 12.963-3.618 12.963-10.854 0-4.528-3.333-7.305-10.008-8.332-1.54-0.233-2.705-0.794-3.499-1.681-0.607-0.607-0.909-1.214-0.909-1.82 0-1.727 0.935-2.731 2.801-3.011 2.847-0.42 5.171-1.739 6.968-3.956s2.696-4.82 2.696-7.807c0-0.934-0.282-1.937-0.655-3.011 1.214-0.28 2.066-0.537 2.706-0.771v-7.212c-2.816 1.12-5.437 1.68-7.678 1.68-1.961-1.12-3.989-1.68-6.276-1.68zM15.475 50.486c3.921 0 5.882 1.19 5.882 3.571 0 2.521-1.797 3.781-5.392 3.781-4.108 0-6.162-1.214-6.162-3.641-0-2.474 1.89-3.711 5.672-3.711zM14.985 32c-2.941 0-4.412-1.61-4.412-4.832 0-3.454 1.471-5.182 4.412-5.182 1.4 0 2.497 0.537 3.291 1.61 0.654 0.981 0.981 2.148 0.981 3.501 0 3.267-1.424 4.902-4.271 4.902zM36.274 0c-1.353 0-2.509 0.513-3.466 1.54s-1.436 2.264-1.436 3.711c0 1.401 0.479 2.614 1.436 3.641s2.112 1.54 3.466 1.54c1.307 0 2.439-0.513 3.396-1.54s1.435-2.24 1.435-3.641c0-1.447-0.478-2.684-1.435-3.711s-2.089-1.54-3.396-1.54zM40.196 16h-7.913c0.093 0.896-0.040 2.253-0.040 4.446v21.777c0 2.241 0.133 4.048 0.040 4.752h7.913c-0.094-1.023-0.337-2.792-0.337-5.172v-21.497c-0-2.054 0.243-3.41 0.337-4.306zM57.646 40.263c-2.054 0-3.068-1.564-3.068-4.692v-12.915h3.117c0.56 0 1.065-0.031 1.695 0.015s0.885 0.016 1.205 0.016v-6.687h-6.016v-2.976c0-1.12 0.176-2.144 0.316-2.784h-8.122c0.14 0.64 0.127 1.617 0.127 2.924v2.835h-3.52v6.687c0.96-0.14 1.818-0.21 2.425-0.21l1.095 0.070v12.674c0 3.921 0.497 6.792 1.477 8.612 1.308 2.428 3.601 3.641 7.008 3.641 2.428 0 4.57-0.467 6.17-1.401v-7.002c-1.28 0.794-2.461 1.191-3.908 1.191z" fill="#000000"></path>
</svg>
