<?xml version="1.0" encoding="utf-8"?>
<!-- Generated by IcoMoon.io -->
<!DOCTYPE svg PUBLIC "-//W3C//DTD SVG 1.1//EN" "http://www.w3.org/Graphics/SVG/1.1/DTD/svg11.dtd">
<svg version="1.1" xmlns="http://www.w3.org/2000/svg" xmlns:xlink="http://www.w3.org/1999/xlink" width="64" height="64" viewBox="0 0 64 64">
<path d="M8 32c0 9.252 5.52 17.248 13.527 21.036l-11.449-30.549c-1.332 2.907-2.078 6.124-2.078 9.513zM48.202 30.82c0-2.89-1.066-4.89-1.978-6.446-1.216-1.926-2.358-3.556-2.358-5.482 0-2.148 1.673-4.149 4.030-4.149 0.106 0 0.208 0.013 0.311 0.019-4.27-3.811-9.959-6.137-16.207-6.137-8.385 0-15.762 4.19-20.053 10.536 0.563 0.018 1.094 0.028 1.544 0.028 2.51 0 6.396-0.297 6.396-0.297 1.293-0.074 1.446 1.777 0.154 1.926 0 0-1.301 0.148-2.747 0.222l8.74 25.319 5.253-15.341-3.739-9.978c-1.293-0.074-2.517-0.222-2.517-0.222-1.294-0.075-1.142-2 0.152-1.926 0 0 3.962 0.297 6.321 0.297 2.509 0 6.397-0.297 6.397-0.297 1.294-0.074 1.446 1.777 0.153 1.926 0 0-1.302 0.148-2.747 0.222l8.674 25.126 2.395-7.79c1.036-3.234 1.826-5.556 1.826-7.556zM32.421 34.044l-7.202 20.379c2.151 0.616 4.425 0.952 6.78 0.952 2.795 0 5.475-0.47 7.97-1.325-0.064-0.1-0.123-0.206-0.172-0.322l-7.377-19.684zM53.060 20.786c0.103 0.744 0.162 1.543 0.162 2.404 0 2.371-0.456 5.037-1.825 8.372l-7.33 20.642c7.135-4.052 11.934-11.581 11.934-20.204 0-4.064-1.066-7.885-2.94-11.214zM32 0c-17.673 0-32 14.327-32 32s14.327 32 32 32 32-14.327 32-32-14.327-32-32-32zM32 60c-15.464 0-28-12.536-28-28s12.536-28 28-28 28 12.536 28 28-12.536 28-28 28z" fill="#000000"></path>
</svg>
