<?xml version="1.0" encoding="utf-8"?>
<!-- Generated by IcoMoon.io -->
<!DOCTYPE svg PUBLIC "-//W3C//DTD SVG 1.1//EN" "http://www.w3.org/Graphics/SVG/1.1/DTD/svg11.dtd">
<svg version="1.1" xmlns="http://www.w3.org/2000/svg" xmlns:xlink="http://www.w3.org/1999/xlink" width="64" height="64" viewBox="0 0 64 64">
<path d="M32.421 34.044l7.377 19.684c0.049 0.116 0.108 0.222 0.172 0.322-2.495 0.855-5.175 1.325-7.97 1.325-2.356 0-4.63-0.336-6.78-0.952l7.202-20.379zM56 32c0 8.623-4.798 16.152-11.934 20.204l7.33-20.642c1.37-3.335 1.825-6.001 1.825-8.372 0-0.861-0.059-1.659-0.162-2.404 1.874 3.329 2.94 7.149 2.94 11.214zM8 32c0-3.389 0.746-6.606 2.078-9.513l11.449 30.549c-8.007-3.788-13.527-11.785-13.527-21.036zM11.948 19.16c4.291-6.345 11.668-10.536 20.053-10.536 6.248 0 11.937 2.327 16.207 6.137-0.103-0.006-0.204-0.019-0.311-0.019-2.358 0-4.030 2-4.030 4.149 0 1.926 1.141 3.556 2.358 5.482 0.913 1.557 1.978 3.557 1.978 6.446 0 2-0.79 4.322-1.826 7.556l-2.395 7.79-8.674-25.126c1.445-0.074 2.747-0.222 2.747-0.222 1.293-0.149 1.141-2-0.153-1.926 0 0-3.888 0.297-6.397 0.297-2.358 0-6.321-0.297-6.321-0.297-1.294-0.074-1.446 1.852-0.152 1.926 0 0 1.224 0.148 2.517 0.222l3.739 9.978-5.253 15.341-8.74-25.319c1.446-0.074 2.747-0.222 2.747-0.222 1.292-0.149 1.14-2-0.154-1.926 0 0-3.887 0.297-6.396 0.297-0.45 0-0.981-0.011-1.544-0.028zM53.25 0h-42.5c-5.912 0-10.75 4.838-10.75 10.75v42.5c0 5.913 4.838 10.75 10.75 10.75h42.5c5.913 0 10.75-4.837 10.75-10.75v-42.5c0-5.912-4.837-10.75-10.75-10.75zM60 32c0 15.464-12.536 28-28 28s-28-12.536-28-28 12.536-28 28-28 28 12.536 28 28z" fill="#000000"></path>
</svg>
