<?xml version="1.0" encoding="utf-8"?>
<!-- Generated by IcoMoon.io -->
<!DOCTYPE svg PUBLIC "-//W3C//DTD SVG 1.1//EN" "http://www.w3.org/Graphics/SVG/1.1/DTD/svg11.dtd">
<svg version="1.1" xmlns="http://www.w3.org/2000/svg" xmlns:xlink="http://www.w3.org/1999/xlink" width="64" height="64" viewBox="0 0 64 64">
<path d="M16.625 17.292c2.052-2.053 5.375-2.053 7.425-0.002l0.489 0.492 6.319-6.322-0.492-0.492c-3.602-3.606-8.657-4.867-13.276-3.783-0.662-4.074-4.193-7.183-8.448-7.185-4.728 0-8.56 3.84-8.561 8.572 0 4.084 2.849 7.5 6.666 8.364-1.446 4.841-0.265 10.302 3.553 14.124l14.239 14.244 6.312-6.326-14.238-14.243c-2.043-2.045-2.046-5.383 0.012-7.443zM63.919 8.572c0.001-4.735-3.832-8.572-8.562-8.572-4.327 0-7.905 3.215-8.48 7.39-4.817-1.417-10.236-0.218-14.040 3.588l-14.24 14.244 6.319 6.323 14.235-14.241c2.059-2.060 5.374-2.057 7.418-0.012 2.050 2.052 2.050 5.382-0.002 7.435l-0.487 0.49 6.313 6.328 0.491-0.495c3.779-3.785 4.98-9.172 3.601-13.977 4.197-0.552 7.434-4.148 7.434-8.5zM56.642 46.941c1.131-4.654-0.123-9.77-3.757-13.406l-14.218-14.249-6.319 6.32 14.22 14.251c2.059 2.062 2.054 5.381 0.011 7.428-2.050 2.051-5.375 2.051-7.427-0.002l-0.485-0.487-6.312 6.328 0.483 0.483c3.845 3.85 9.351 5.027 14.21 3.53 0.789 3.918 4.246 6.863 8.391 6.863 4.725 0 8.56-3.834 8.56-8.57 0-4.325-3.199-7.904-7.358-8.488zM38.272 33.043l-14.221 14.249c-2.044 2.048-5.377 2.052-7.434-0.008-2.051-2.056-2.052-5.381-0.003-7.436l0.488-0.486-6.318-6.32-0.483 0.482c-3.672 3.675-4.91 8.865-3.716 13.561-3.775 0.891-6.585 4.29-6.585 8.343-0.001 4.734 3.833 8.57 8.561 8.57 4.069-0.002 7.474-2.839 8.346-6.649 4.669 1.16 9.812-0.081 13.459-3.735l14.218-14.248-6.313-6.326z" fill="#000000"></path>
</svg>
