<?xml version="1.0" encoding="utf-8"?>
<!-- Generated by IcoMoon.io -->
<!DOCTYPE svg PUBLIC "-//W3C//DTD SVG 1.1//EN" "http://www.w3.org/Graphics/SVG/1.1/DTD/svg11.dtd">
<svg version="1.1" xmlns="http://www.w3.org/2000/svg" xmlns:xlink="http://www.w3.org/1999/xlink" width="64" height="64" viewBox="0 0 64 64">
<path d="M59.862 24h-3.588c-2.198 0-4.124-1.859-4.274-4v0c0-11.417-9.204-20-20.699-20h-10.489c-11.488 0-20.803 9.25-20.812 20.667v22.675c0 11.416 9.323 20.659 20.811 20.659h22.401c11.497 0 20.787-9.243 20.787-20.659v-14.649c0-2.281-1.84-4.693-4.138-4.693zM20 16h12c2.2 0 4 1.8 4 4s-1.8 4-4 4h-12c-2.2 0-4-1.8-4-4s1.8-4 4-4zM44 48h-24c-2.2 0-4-1.8-4-4s1.8-4 4-4h24c2.2 0 4 1.8 4 4s-1.8 4-4 4z" fill="#000000"></path>
</svg>
