<?xml version="1.0" encoding="utf-8"?>
<!-- Generated by IcoMoon.io -->
<!DOCTYPE svg PUBLIC "-//W3C//DTD SVG 1.1//EN" "http://www.w3.org/Graphics/SVG/1.1/DTD/svg11.dtd">
<svg version="1.1" xmlns="http://www.w3.org/2000/svg" xmlns:xlink="http://www.w3.org/1999/xlink" width="64" height="64" viewBox="0 0 64 64">
<path d="M53.334 0h-42.669c-5.89 0-10.666 4.776-10.666 10.668v42.665c0 5.892 4.775 10.668 10.666 10.668h42.669c5.891 0 10.666-4.776 10.666-10.668l0-42.665c0-5.891-4.775-10.668-10.666-10.668zM56 40.506c0 8.562-6.968 15.494-15.59 15.494h-16.801c-8.616 0-15.609-6.932-15.609-15.494v-17.006c0.006-8.563 6.992-15.5 15.609-15.5h7.867c8.622 0 15.525 6.438 15.525 15 0.113 1.606 1.558 3 3.206 3h2.691c1.723 0 3.103 1.808 3.103 3.52v10.987zM44 40c0 2.2-1.8 4-4 4h-16c-2.2 0-4-1.8-4-4v0c0-2.2 1.8-4 4-4h16c2.2 0 4 1.8 4 4v0zM36 24c0 2.2-1.8 4-4 4h-8c-2.2 0-4-1.8-4-4v0c0-2.2 1.8-4 4-4h8c2.2 0 4 1.8 4 4v0z" fill="#000000"></path>
</svg>
