<?xml version="1.0" encoding="utf-8"?>
<!-- Generated by IcoMoon.io -->
<!DOCTYPE svg PUBLIC "-//W3C//DTD SVG 1.1//EN" "http://www.w3.org/Graphics/SVG/1.1/DTD/svg11.dtd">
<svg version="1.1" xmlns="http://www.w3.org/2000/svg" xmlns:xlink="http://www.w3.org/1999/xlink" width="64" height="64" viewBox="0 0 64 64">
<path d="M36.002 28l-0 14.636c0 3.714-0.048 5.853 0.346 6.906 0.391 1.047 1.37 2.134 2.437 2.763 1.418 0.849 3.034 1.273 4.857 1.273 3.241 0 5.155-0.428 8.359-2.534v9.621c-2.731 1.285-5.117 2.037-7.333 2.558-2.219 0.515-4.616 0.775-7.191 0.775-2.927 0-4.654-0.368-6.901-1.103-2.247-0.742-4.166-1.8-5.751-3.159-1.591-1.37-2.689-2.825-3.303-4.364s-0.92-3.776-0.92-6.703v-22.444h-8.589v-9.063c2.513-0.815 5.323-1.987 7.111-3.509 1.797-1.528 3.235-3.357 4.319-5.497 1.087-2.134 1.834-4.857 2.242-8.157h10.318l-0 16h15.998v12h-15.998z" fill="#000000"></path>
</svg>
