<?xml version="1.0" encoding="utf-8"?>
<!-- Generated by IcoMoon.io -->
<!DOCTYPE svg PUBLIC "-//W3C//DTD SVG 1.1//EN" "http://www.w3.org/Graphics/SVG/1.1/DTD/svg11.dtd">
<svg version="1.1" xmlns="http://www.w3.org/2000/svg" xmlns:xlink="http://www.w3.org/1999/xlink" width="64" height="64" viewBox="0 0 64 64">
<path d="M53.336 0h-42.668c-5.867 0-10.668 4.801-10.668 10.668v42.664c0 5.871 4.801 10.668 10.668 10.668h42.668c5.867 0 10.664-4.797 10.664-10.668v-42.664c-0.001-5.867-4.797-10.668-10.664-10.668zM45.732 51.543c-1.885 0.887-3.596 1.512-5.125 1.871-1.531 0.356-3.185 0.535-4.963 0.535-2.020 0-3.211-0.254-4.762-0.762-1.55-0.512-2.875-1.242-3.969-2.179-1.097-0.946-1.855-1.95-2.279-3.012s-0.635-2.606-0.635-4.625v-15.488h-6v-6.254c1.734-0.563 3.746-1.371 4.98-2.422 1.24-1.055 2.232-2.316 2.98-3.793 0.75-1.473 1.266-3.352 1.547-5.629h6.281v10.215h10.211v7.883h-10.211v11.324c0 2.563-0.033 4.039 0.239 4.766 0.27 0.722 0.945 1.472 1.681 1.906 0.978 0.586 2.094 0.879 3.352 0.879 2.237 0 4.461-0.727 6.672-2.18v6.965z" fill="#000000"></path>
</svg>
