<?xml version="1.0" encoding="utf-8"?>
<!-- Generated by IcoMoon.io -->
<!DOCTYPE svg PUBLIC "-//W3C//DTD SVG 1.1//EN" "http://www.w3.org/Graphics/SVG/1.1/DTD/svg11.dtd">
<svg version="1.1" xmlns="http://www.w3.org/2000/svg" xmlns:xlink="http://www.w3.org/1999/xlink" width="64" height="64" viewBox="0 0 64 64">
<path d="M53 40l-0.929-26.001c-0.039-1.099 0.829-1.999 1.929-1.999h8c1.1 0 1.842 0.886 1.648 1.969l-4.648 26.031zM60 48.5c0 1.925-1.575 3.5-3.5 3.5h-1c-1.925 0-3.5-1.575-3.5-3.5v-1c0-1.925 1.575-3.5 3.5-3.5h1c1.925 0 3.5 1.575 3.5 3.5v1zM24 12c-13.255 0-24 8.954-24 20s10.745 20 24 20 24-8.954 24-20c0-11.046-10.745-20-24-20zM40 28h-4.641l-7.359 7.359v4.641h6v4h-16v-4h6v-4.641l-11.359-11.359h-2.629v-4h11.975v4h-2.629l6.641 6.641 2-2v-4.641h12v4z" fill="#000000"></path>
</svg>
