<?xml version="1.0" encoding="utf-8"?>
<!-- Generated by IcoMoon.io -->
<!DOCTYPE svg PUBLIC "-//W3C//DTD SVG 1.1//EN" "http://www.w3.org/Graphics/SVG/1.1/DTD/svg11.dtd">
<svg version="1.1" xmlns="http://www.w3.org/2000/svg" xmlns:xlink="http://www.w3.org/1999/xlink" width="64" height="64" viewBox="0 0 64 64">
<path d="M35.478 46.057c-5.122 2.382-9.885 2.357-13.084 2.126-3.816-0.276-6.885-1.32-8.234-2.233-0.831-0.563-1.961-0.345-2.524 0.486s-0.345 1.962 0.486 2.524c2.169 1.468 6.004 2.56 10.010 2.849 0.679 0.049 1.425 0.080 2.228 0.080 3.486 0 7.914-0.332 12.651-2.536 0.91-0.424 1.305-1.505 0.882-2.415s-1.505-1.304-2.415-0.882zM55.684 43.364c0.174-15.793 1.798-45.638-28.436-43.226-29.85 2.403-21.935 33.935-22.38 44.497-0.394 5.587-2.249 12.416-4.869 19.365h8.069c0.829-2.945 1.439-5.858 1.702-8.634 0.486 0.339 1.007 0.667 1.562 0.981 0.904 0.532 1.68 1.24 2.502 1.99 1.921 1.751 4.099 3.736 8.357 3.984 0.286 0.016 0.573 0.025 0.855 0.025 4.306 0 7.251-1.885 9.617-3.399 1.134-0.726 2.114-1.352 3.035-1.653 2.619-0.82 4.908-2.144 6.619-3.828 0.267-0.263 0.515-0.534 0.748-0.809 0.953 3.492 2.257 7.422 3.706 11.344h17.228c-4.136-6.389-8.402-12.648-8.316-20.636zM7.757 34.772c0-0.001 0-0.002-0-0.003-0.297-5.154 2.169-9.489 5.508-9.684s6.285 3.827 6.582 8.981c0 0.001 0 0.002 0 0.003 0.016 0.278 0.023 0.553 0.023 0.825-1.058 0.266-2.012 0.652-2.867 1.102-0.003-0.038-0.006-0.076-0.009-0.114 0-0.001 0-0.001 0-0.002-0.286-2.926-1.848-5.135-3.491-4.935s-2.742 2.734-2.457 5.66c0 0.001 0 0.001 0 0.002 0.124 1.276 0.492 2.415 1.003 3.278-0.127 0.1-0.486 0.363-0.9 0.666-0.311 0.227-0.689 0.504-1.145 0.839-1.243-1.631-2.094-3.974-2.246-6.618zM41.579 47.511c-0.119 2.724-3.682 5.287-6.974 6.315l-0.019 0.006c-1.369 0.444-2.589 1.225-3.881 2.052-2.171 1.389-4.415 2.825-7.658 2.825-0.213 0-0.431-0.007-0.645-0.019-2.97-0.174-4.359-1.44-6.117-3.042-0.928-0.845-1.887-1.72-3.123-2.445l-0.027-0.015c-2.669-1.507-4.326-3.38-4.432-5.012-0.053-0.811 0.309-1.514 1.074-2.087 1.665-1.248 2.78-2.064 3.518-2.604 0.819-0.599 1.067-0.78 1.25-0.954 0.131-0.124 0.273-0.262 0.425-0.41 1.528-1.486 4.085-3.973 8.009-3.973 2.4 0 5.056 0.925 7.886 2.744 1.333 0.867 2.493 1.268 3.961 1.775 1.010 0.349 2.154 0.744 3.687 1.4l0.025 0.010c1.43 0.588 3.118 1.66 3.041 3.433zM40.79 41.113c-0.275-0.138-0.561-0.27-0.859-0.393-1.382-0.591-2.489-0.992-3.408-1.312 0.507-0.993 0.822-2.233 0.852-3.578 0-0.001 0-0.001 0-0.002 0.070-3.273-1.581-5.931-3.687-5.936s-3.872 2.645-3.942 5.918c0 0.001 0 0.001 0 0.002-0.002 0.107-0.003 0.214-0.001 0.319-1.298-0.597-2.574-1.031-3.823-1.297-0.006-0.123-0.013-0.246-0.015-0.37 0-0.001 0-0.002 0-0.003-0.121-5.963 3.538-10.899 8.172-11.025s8.489 4.606 8.611 10.569c0 0.001 0 0.002 0 0.003 0.055 2.697-0.666 5.179-1.898 7.105z" fill="#000000"></path>
</svg>
