<?xml version="1.0" encoding="utf-8"?>
<!-- Generated by IcoMoon.io -->
<!DOCTYPE svg PUBLIC "-//W3C//DTD SVG 1.1//EN" "http://www.w3.org/Graphics/SVG/1.1/DTD/svg11.dtd">
<svg version="1.1" xmlns="http://www.w3.org/2000/svg" xmlns:xlink="http://www.w3.org/1999/xlink" width="64" height="64" viewBox="0 0 64 64">
<path d="M49.469 34.006c-0.081-8.105 6.61-11.992 6.909-12.185-3.76-5.501-9.616-6.255-11.703-6.342-4.984-0.505-9.725 2.934-12.254 2.934-2.523 0-6.426-2.86-10.559-2.784-5.432 0.081-10.441 3.159-13.238 8.024-5.644 9.794-1.445 24.303 4.056 32.245 2.688 3.888 5.893 8.255 10.102 8.099 4.053-0.162 5.585-2.622 10.485-2.622s6.277 2.622 10.566 2.542c4.361-0.081 7.124-3.962 9.793-7.862 3.087-4.511 4.358-8.877 4.433-9.102-0.097-0.044-8.504-3.265-8.588-12.946zM41.41 10.22c2.234-2.71 3.741-6.47 3.33-10.22-3.217 0.131-7.117 2.143-9.426 4.847-2.071 2.398-3.884 6.227-3.398 9.902 3.592 0.28 7.258-1.825 9.494-4.529z" fill="#000000"></path>
</svg>
