<?xml version="1.0" encoding="utf-8"?>
<!-- Generated by IcoMoon.io -->
<!DOCTYPE svg PUBLIC "-//W3C//DTD SVG 1.1//EN" "http://www.w3.org/Graphics/SVG/1.1/DTD/svg11.dtd">
<svg version="1.1" xmlns="http://www.w3.org/2000/svg" xmlns:xlink="http://www.w3.org/1999/xlink" width="64" height="64" viewBox="0 0 64 64">
<path d="M35.577 48.641c-0-0.003-0-0.005-0-0.008 0 0.003 0 0.005 0 0.008z" fill="#000000"></path>
<path d="M35.662 50.909c-0.001-0.015-0.001-0.029-0.002-0.044 0.001 0.015 0.001 0.029 0.002 0.044z" fill="#000000"></path>
<path d="M35.613 49.77c-0-0.011-0.001-0.022-0.001-0.033 0.001 0.011 0.001 0.022 0.001 0.033z" fill="#000000"></path>
<path d="M60 0h-56c-2.2 0-4 1.8-4 4v56c0 2.2 1.8 4 4 4h30.864c0.003 0 0.005 0 0.008 0s0.005-0 0.008-0h25.119c2.2 0 4-1.8 4-4v-56c0-2.2-1.8-4-4-4zM12 14c0-1.104 0.896-2 2-2s2 0.896 2 2v4c0 1.105-0.896 2-2 2s-2-0.895-2-2v-4zM60 60h-23.441c-0.419-2.63-0.682-5.342-0.837-7.975 0 0.007 0.001 0.014 0.001 0.022-1.231 0.134-2.474 0.204-3.723 0.204-8.353 0-16.399-3.041-22.655-8.563-0.932-0.822-1.020-2.244-0.198-3.176s2.244-1.020 3.176-0.198c5.434 4.795 12.422 7.437 19.677 7.437 1.193 0 2.378-0.073 3.551-0.214-0.137-7.387 0.43-13.245 0.439-13.338 0.056-0.562-0.128-1.122-0.507-1.541s-0.918-0.658-1.483-0.658h-5.948c0.087-2.163 0.318-5.863 0.935-10.012 1.179-7.922 3.25-14.111 6.009-17.988h25.004v56z" fill="#000000"></path>
<path d="M50 20c-1.105 0-2-0.895-2-2v-4c0-1.104 0.895-2 2-2s2 0.896 2 2v4c0 1.105-0.895 2-2 2z" fill="#000000"></path>
<path d="M33.781 52.202c-0.228 0.012-0.456 0.021-0.685 0.028 0.229-0.007 0.457-0.017 0.685-0.028z" fill="#000000"></path>
<path d="M32 52.25c0.293 0 0.586-0.005 0.878-0.012-0.292 0.008-0.585 0.012-0.878 0.012z" fill="#000000"></path>
<path d="M33.692 47.7c0.049-0.003 0.098-0.005 0.147-0.008-0.049 0.003-0.098 0.005-0.147 0.008z" fill="#000000"></path>
<path d="M32.818 47.737c0.067-0.002 0.134-0.005 0.201-0.007-0.067 0.002-0.134 0.005-0.201 0.007z" fill="#000000"></path>
<path d="M54.853 40.511c-0.822-0.932-2.244-1.020-3.176-0.198-4.54 4.007-10.166 6.508-16.126 7.223 0.027 1.455 0.081 2.968 0.172 4.51 6.997-0.763 13.612-3.663 18.932-8.359 0.932-0.822 1.020-2.244 0.198-3.176z" fill="#000000"></path>
<path d="M35.719 52.047c-0.288 0.031-0.576 0.059-0.865 0.083 0.289-0.024 0.578-0.051 0.865-0.083z" fill="#000000"></path>
<path d="M34.718 52.14c-0.244 0.020-0.489 0.036-0.734 0.050 0.245-0.014 0.49-0.031 0.734-0.050z" fill="#000000"></path>
</svg>
