<?xml version="1.0" encoding="utf-8"?>
<!-- Generated by IcoMoon.io -->
<!DOCTYPE svg PUBLIC "-//W3C//DTD SVG 1.1//EN" "http://www.w3.org/Graphics/SVG/1.1/DTD/svg11.dtd">
<svg version="1.1" xmlns="http://www.w3.org/2000/svg" xmlns:xlink="http://www.w3.org/1999/xlink" width="64" height="64" viewBox="0 0 64 64">
<path d="M56 24c-2.2 0-4 1.8-4 4v16c0 2.2 1.8 4 4 4s4-1.8 4-4v-16c0-2.2-1.8-4-4-4zM8 24c-2.2 0-4 1.8-4 4v16c0 2.2 1.8 4 4 4s4-1.8 4-4v-16c0-2.2-1.8-4-4-4zM14 46c0 3.314 2.686 6 6 6v0 8c0 2.2 1.8 4 4 4s4-1.8 4-4v-8h8v8c0 2.2 1.8 4 4 4s4-1.8 4-4v-8c3.314 0 6-2.686 6-6v-22h-36v22z" fill="#000000"></path>
<path d="M49.889 20c-0.607-5.493-3.688-10.237-8.101-13.103l2.002-4.003c0.494-0.988 0.093-2.189-0.894-2.683s-2.189-0.093-2.683 0.894l-2.009 4.018-0.522-0.207c-1.785-0.594-3.695-0.916-5.68-0.916s-3.895 0.322-5.681 0.916l-0.522 0.207-2.009-4.018c-0.494-0.988-1.695-1.388-2.683-0.894s-1.388 1.695-0.895 2.683l2.001 4.003c-4.413 2.866-7.494 7.61-8.101 13.103v2h35.889v-2h-0.111zM26 16c-1.105 0-2-0.896-2-2 0-1.103 0.893-1.997 1.996-2 0.002 0 0.004 0 0.006 0s0.002-0 0.003-0c1.102 0.003 1.995 0.897 1.995 2 0 1.104-0.895 2-2 2zM38 16c-1.105 0-2-0.896-2-2 0-1.103 0.893-1.997 1.995-2 0.001 0 0.002 0 0.003 0 0.002 0 0.004-0 0.006-0 1.102 0.002 1.996 0.897 1.996 2 0 1.104-0.895 2-2 2z" fill="#000000"></path>
</svg>
