<?xml version="1.0" encoding="utf-8"?>
<!-- Generated by IcoMoon.io -->
<!DOCTYPE svg PUBLIC "-//W3C//DTD SVG 1.1//EN" "http://www.w3.org/Graphics/SVG/1.1/DTD/svg11.dtd">
<svg version="1.1" xmlns="http://www.w3.org/2000/svg" xmlns:xlink="http://www.w3.org/1999/xlink" width="64" height="64" viewBox="0 0 64 64">
<path d="M25.764 31.995c-2.982-1.532-5.88-2.31-8.617-2.31-0.372 0-0.747 0.011-1.122 0.044-3.492 0.289-6.683 1.21-8.734 1.927-0.544 0.2-1.102 0.411-1.677 0.644l-5.614 19.462c3.856-1.427 7.268-2.121 10.392-2.121 5.053 0 8.72 1.888 11.75 3.831 1.435-4.87 4.878-16.631 5.905-20.145-0.747-0.455-1.505-0.911-2.282-1.332zM33.022 36.942l-5.653 19.634c1.677 0.961 7.319 4.003 11.638 4.003 3.487 0 7.391-0.894 11.927-2.737l5.397-18.873c-3.664 1.183-7.18 1.782-10.466 1.782-5.997 0-10.195-1.944-12.843-3.809zM18.301 23.049c4.82 0.050 8.384 1.888 11.338 3.781l5.797-19.834c-1.222-0.7-4.425-2.443-6.741-3.038-1.524-0.355-3.126-0.538-4.825-0.538-3.237 0.061-6.774 0.872-10.806 2.488l-5.527 19.412c4.051-1.527 7.54-2.271 10.755-2.271 0.003 0 0.009 0 0.009 0zM64 12.383c-3.676 1.427-7.263 2.154-10.689 2.154-5.73 0-9.956-1.988-12.693-3.898l-5.747 19.89c3.859 2.482 8.018 3.742 12.383 3.742 3.559 0 7.246-0.855 10.966-2.543l-0.011-0.139 0.233-0.055 5.559-19.151z" fill="#000000"></path>
</svg>
