<?xml version="1.0" encoding="utf-8"?>
<!-- Generated by IcoMoon.io -->
<!DOCTYPE svg PUBLIC "-//W3C//DTD SVG 1.1//EN" "http://www.w3.org/Graphics/SVG/1.1/DTD/svg11.dtd">
<svg version="1.1" xmlns="http://www.w3.org/2000/svg" xmlns:xlink="http://www.w3.org/1999/xlink" width="64" height="64" viewBox="0 0 64 64">
<path d="M53.336 0h-42.668c-5.867 0-10.668 4.8-10.668 10.668v29.332l1-4h2l1 4-1 4h-2l-1-4v13.331c0 5.871 4.801 10.668 10.668 10.668h42.668c5.867 0 10.664-4.797 10.664-10.668v-13.263c0 4.38-3.693 7.931-8.249 7.931-0.147 0-22.847-0.011-22.868-0.013-0.493-0.048-0.883-0.452-0.883-0.937v-25.17c0-0.462 0.164-0.701 0.786-0.932 1.602-0.596 3.408-0.948 5.27-0.948 7.607 0 13.843 5.606 14.5 12.754 0.982-0.396 2.061-0.616 3.191-0.616 4.557 0 8.253 3.551 8.253 7.931v-29.401c0-5.867-4.797-10.668-10.664-10.668zM11 48h-2l-1-8 1-8h2l1 8-1 8zM19 48h-2l-1-10.172 1-9.828h2l1 10-1 10zM27 48h-2l-1-14.014 1-13.986h2l1 13.986-1 14.014z" fill="#000000"></path>
</svg>
