<?xml version="1.0" encoding="utf-8"?>
<!-- Generated by IcoMoon.io -->
<!DOCTYPE svg PUBLIC "-//W3C//DTD SVG 1.1//EN" "http://www.w3.org/Graphics/SVG/1.1/DTD/svg11.dtd">
<svg version="1.1" xmlns="http://www.w3.org/2000/svg" xmlns:xlink="http://www.w3.org/1999/xlink" width="64" height="64" viewBox="0 0 64 64">
<path d="M60.957 36.121c0.176-1.3 0.277-2.622 0.277-3.967 0-16.144-13.159-29.234-29.388-29.234-1.613 0-3.194 0.132-4.733 0.385-2.759-1.798-6.043-2.846-9.576-2.846-9.69 0-17.536 7.851-17.536 17.538 0 3.525 1.037 6.799 2.824 9.549-0.241 1.502-0.364 3.040-0.364 4.607 0 16.147 13.152 29.235 29.386 29.235 1.832 0 3.616-0.178 5.35-0.492 2.694 1.671 5.867 2.644 9.268 2.644 9.688 0 17.536-7.853 17.536-17.539-0-3.662-1.12-7.066-3.043-9.88zM34.593 53.7c-9.338 0.486-13.708-1.58-17.711-5.336-4.471-4.196-2.675-8.982 0.968-9.225 3.64-0.243 5.826 4.127 7.769 5.342 1.941 1.211 9.324 3.97 13.224-0.489 4.247-4.854-2.824-7.365-8.007-8.125-7.4-1.096-16.744-5.099-16.017-12.988 0.727-7.884 6.698-11.927 12.981-12.497 8.010-0.727 13.224 1.213 17.348 4.732 4.769 4.066 2.188 8.612-0.85 8.978-3.026 0.364-6.425-6.688-13.099-6.794-6.878-0.108-11.527 7.158-3.036 9.223 8.496 2.063 17.594 2.911 20.87 10.677 3.279 7.767-5.094 16.016-14.44 16.502z" fill="#000000"></path>
</svg>
