<?xml version="1.0" encoding="utf-8"?>
<!-- Generated by IcoMoon.io -->
<!DOCTYPE svg PUBLIC "-//W3C//DTD SVG 1.1//EN" "http://www.w3.org/Graphics/SVG/1.1/DTD/svg11.dtd">
<svg version="1.1" xmlns="http://www.w3.org/2000/svg" xmlns:xlink="http://www.w3.org/1999/xlink" width="64" height="64" viewBox="0 0 64 64">
<path d="M16 40c0-2.209 1.791-4 4-4s4 1.791 4 4c0 2.209-1.791 4-4 4s-4-1.791-4-4zM40 40c0-2.209 1.791-4 4-4s4 1.791 4 4c0 2.209-1.791 4-4 4s-4-1.791-4-4zM40.194 48.549c1.030-0.812 2.523-0.635 3.335 0.396s0.635 2.524-0.396 3.335c-2.868 2.26-7.239 3.72-11.134 3.72s-8.265-1.46-11.134-3.72c-1.030-0.812-1.207-2.305-0.396-3.336s2.305-1.207 3.335-0.396c1.651 1.301 4.92 2.701 8.194 2.701s6.543-1.4 8.194-2.701zM64 32c0-4.418-3.582-8-8-8-3.007 0-5.624 1.661-6.991 4.114-4.112-2.25-9.122-3.703-14.58-4.038l4.774-10.72 9.137 2.637c0.822 2.334 3.045 4.007 5.66 4.007 3.314 0 6-2.686 6-6s-2.686-6-6-6c-2.285 0-4.271 1.278-5.285 3.157l-10.182-2.939c-1.139-0.329-2.346 0.233-2.828 1.316l-6.486 14.564c-5.321 0.375-10.204 1.814-14.227 4.015-1.367-2.453-3.985-4.113-6.993-4.113-4.418 0-8 3.582-8 8 0 3.27 1.963 6.078 4.773 7.319-0.504 1.502-0.773 3.069-0.773 4.681 0 11.046 12.536 20 28 20s28-8.954 28-20c0-1.612-0.269-3.179-0.773-4.68 2.811-1.241 4.773-4.050 4.773-7.32zM54 11.75c1.243 0 2.25 1.007 2.25 2.25s-1.007 2.25-2.25 2.25-2.25-1.007-2.25-2.25 1.007-2.25 2.25-2.25zM4 32c0-2.206 1.794-4 4-4 1.594 0 2.973 0.938 3.615 2.29-2.091 1.585-3.823 3.414-5.104 5.421-1.47-0.592-2.511-2.032-2.511-3.712zM32 59.25c-12.841 0-23.25-6.828-23.25-15.25s10.409-15.25 23.25-15.25c12.841 0 23.25 6.828 23.25 15.25s-10.409 15.25-23.25 15.25zM57.489 35.712c-1.281-2.007-3.014-3.836-5.104-5.421 0.642-1.353 2.021-2.29 3.615-2.29 2.206 0 4 1.794 4 4 0 1.679-1.041 3.12-2.511 3.712z" fill="#000000"></path>
</svg>
