<?xml version="1.0" encoding="utf-8"?>
<!-- Generated by IcoMoon.io -->
<!DOCTYPE svg PUBLIC "-//W3C//DTD SVG 1.1//EN" "http://www.w3.org/Graphics/SVG/1.1/DTD/svg11.dtd">
<svg version="1.1" xmlns="http://www.w3.org/2000/svg" xmlns:xlink="http://www.w3.org/1999/xlink" width="64" height="64" viewBox="0 0 64 64">
<path d="M24 24h11.069v5.674h0.158c1.54-2.762 5.31-5.674 10.928-5.674 11.684 0 13.845 7.273 13.845 16.733v19.267h-11.538v-17.080c0-4.074-0.083-9.314-6.002-9.314-6.009 0-6.926 4.437-6.926 9.018v17.376h-11.534v-36z" fill="#000000"></path>
<path d="M4 24h12v36h-12v-36z" fill="#000000"></path>
<path d="M16 14c0 3.314-2.686 6-6 6s-6-2.686-6-6c0-3.314 2.686-6 6-6s6 2.686 6 6z" fill="#000000"></path>
</svg>
