<?xml version="1.0" encoding="utf-8"?>
<!-- Generated by IcoMoon.io -->
<!DOCTYPE svg PUBLIC "-//W3C//DTD SVG 1.1//EN" "http://www.w3.org/Graphics/SVG/1.1/DTD/svg11.dtd">
<svg version="1.1" xmlns="http://www.w3.org/2000/svg" xmlns:xlink="http://www.w3.org/1999/xlink" width="64" height="64" viewBox="0 0 64 64">
<path d="M51.224 50.852c-6.667-0.026-10.219-3.286-12.687-9.031l-0.706-1.568-6.086-13.875c-2.018-4.912-7.026-8.23-12.677-8.23-7.646 0-13.849 6.203-13.849 13.855s6.203 13.854 13.849 13.854c5.334 0 9.971-3.016 12.286-7.438l2.461 5.677c-3.494 4.261-8.805 6.974-14.747 6.974-10.532 0-19.068-8.531-19.068-19.068 0-10.532 8.536-19.073 19.068-19.073 7.948 0 14.365 4.245 17.625 11.766 0.247 0.584 3.447 8.068 6.239 14.437 1.729 3.943 3.204 6.557 7.985 6.719 4.698 0.161 7.922-2.698 7.922-6.313 0-3.531-2.459-4.38-6.609-5.76-7.461-2.458-11.313-4.927-11.313-10.844 0-5.771 3.927-9.62 10.307-9.62 4.156 0 7.157 1.849 9.235 5.537l-4.078 2.083c-1.537-2.151-3.232-3-5.386-3-2.995 0-5.133 2.084-5.133 4.854 0 3.933 3.518 4.526 8.438 6.141 6.622 2.156 9.7 4.62 9.7 10.771 0 6.459-5.542 11.162-12.776 11.151z" fill="#000000"></path>
</svg>
