<?xml version="1.0" encoding="utf-8"?>
<!-- Generated by IcoMoon.io -->
<!DOCTYPE svg PUBLIC "-//W3C//DTD SVG 1.1//EN" "http://www.w3.org/Graphics/SVG/1.1/DTD/svg11.dtd">
<svg version="1.1" xmlns="http://www.w3.org/2000/svg" xmlns:xlink="http://www.w3.org/1999/xlink" width="64" height="64" viewBox="0 0 64 64">
<path d="M53.25 0h-42.5c-5.912 0-10.75 4.838-10.75 10.75v42.5c0 5.913 4.838 10.75 10.75 10.75h42.5c5.913 0 10.75-4.837 10.75-10.75v-42.5c0-5.912-4.837-10.75-10.75-10.75zM46.657 47.556c-11.097 0-14.946-5.004-16.998-11.225l-2.053-6.415c-1.54-4.683-3.336-8.339-8.98-8.339-3.914 0-7.89 2.822-7.89 10.712 0 6.158 3.143 10.007 7.57 10.007 5.003 0 8.339-3.721 8.339-3.721l2.053 5.581c0 0-3.465 3.4-10.712 3.4-8.981 0-13.984-5.26-13.984-15.010 0-10.135 5.004-16.101 14.433-16.101 8.532 0 12.83 3.079 15.523 11.418l2.117 6.414c1.54 4.683 4.233 8.083 10.712 8.083 4.362 0 6.671-0.962 6.671-3.336 0-1.861-1.090-3.208-4.361-3.977l-4.362-1.026c-5.323-1.283-7.44-4.041-7.44-8.403 0-6.992 5.645-9.173 11.418-9.173 6.543 0 10.52 2.373 11.033 8.146l-6.415 0.77c-0.257-2.758-1.925-3.913-5.003-3.913-2.823 0-4.554 1.283-4.554 3.464 0 1.924 0.834 3.079 3.656 3.721l4.105 0.898c5.517 1.283 8.468 3.978 8.468 9.173-0 6.415-5.389 8.852-13.343 8.852z" fill="#000000"></path>
</svg>
