<?xml version="1.0" encoding="utf-8"?>
<!-- Generated by IcoMoon.io -->
<!DOCTYPE svg PUBLIC "-//W3C//DTD SVG 1.1//EN" "http://www.w3.org/Graphics/SVG/1.1/DTD/svg11.dtd">
<svg version="1.1" xmlns="http://www.w3.org/2000/svg" xmlns:xlink="http://www.w3.org/1999/xlink" width="64" height="64" viewBox="0 0 64 64">
<path d="M53.336 0h-42.668c-5.867 0-10.668 4.801-10.668 10.668v42.664c0 5.871 4.801 10.668 10.668 10.668h42.668c5.867 0 10.664-4.797 10.664-10.668v-42.664c0-5.867-4.797-10.668-10.664-10.668zM60 53.332c0 1.771-0.696 3.443-1.961 4.707s-2.934 1.961-4.703 1.961h-21.336v-28h-28v-21.332c0-1.769 0.697-3.441 1.962-4.706s2.936-1.962 4.706-1.962h21.332v28h28v21.332z" fill="#000000"></path>
</svg>
