<?xml version="1.0" encoding="utf-8"?>
<!-- Generated by IcoMoon.io -->
<!DOCTYPE svg PUBLIC "-//W3C//DTD SVG 1.1//EN" "http://www.w3.org/Graphics/SVG/1.1/DTD/svg11.dtd">
<svg version="1.1" xmlns="http://www.w3.org/2000/svg" xmlns:xlink="http://www.w3.org/1999/xlink" width="64" height="64" viewBox="0 0 64 64">
<path d="M53.25 0h-42.5c-5.912 0-10.75 4.838-10.75 10.75v42.5c0 5.913 4.838 10.75 10.75 10.75h42.5c5.913 0 10.75-4.837 10.75-10.75v-42.5c0-5.912-4.837-10.75-10.75-10.75zM32 20c-2.206 0-4 1.794-4 4v16c0 6.617-5.383 12-12 12s-12-5.383-12-12v-8h8v8c0 2.206 1.794 4 4 4s4-1.794 4-4v-16c0-6.617 5.383-12 12-12s12 5.383 12 11.125v3.875l-5.125 1.5-2.875-1.5v-3.875c0-1.331-1.794-3.125-4-3.125zM60 40c0 6.617-5.383 12-12 12s-12-5.383-12-12.875v-7.75l2.875 1.5 5.125-1.5v7.75c0 3.081 1.794 4.875 4 4.875s4-1.794 4-4v-8h8v8z" fill="#000000"></path>
</svg>
