<?xml version="1.0" encoding="utf-8"?>
<!-- Generated by IcoMoon.io -->
<!DOCTYPE svg PUBLIC "-//W3C//DTD SVG 1.1//EN" "http://www.w3.org/Graphics/SVG/1.1/DTD/svg11.dtd">
<svg version="1.1" xmlns="http://www.w3.org/2000/svg" xmlns:xlink="http://www.w3.org/1999/xlink" width="64" height="64" viewBox="0 0 64 64">
<path d="M53.334 0h-42.669c-5.891 0-10.665 4.776-10.665 10.668v42.664c0 5.892 4.775 10.668 10.665 10.668h42.669c5.891 0 10.666-4.776 10.666-10.668v-42.664c0-5.892-4.775-10.668-10.666-10.668zM35.831 50.252c-3.243 0-6.291-1.685-7.334-3.675 0 0-1.605 6.11-1.994 7.607-0.723 2.779-2.673 6.264-3.977 8.389l-2.187-0.775c-0.28-2.532-0.532-6.415 0.111-9.18 0.581-2.497 3.753-15.906 3.753-15.906s-0.957-1.916-0.957-4.75c0-4.449 2.579-7.771 5.79-7.771 2.73 0 4.049 2.050 4.049 4.508 0 2.745-1.748 6.85-2.65 10.654-0.754 3.186 1.597 5.784 4.738 5.784 5.688 0 10.060-5.998 10.060-14.654 0-7.662-5.505-13.019-13.367-13.019-9.105 0-14.449 6.83-14.449 13.887 0 2.75 1.059 5.7 2.381 7.303 0.261 0.317 0.299 0.595 0.222 0.917-0.243 1.011-0.783 3.185-0.889 3.63-0.14 0.586-0.464 0.71-1.070 0.428-3.997-1.861-6.495-7.704-6.495-12.397 0-10.094 7.334-19.365 21.143-19.365 11.101 0 19.727 7.91 19.727 18.482 0 11.028-6.953 19.904-16.605 19.904z" fill="#000000"></path>
</svg>
