<?xml version="1.0" encoding="utf-8"?>
<!-- Generated by IcoMoon.io -->
<!DOCTYPE svg PUBLIC "-//W3C//DTD SVG 1.1//EN" "http://www.w3.org/Graphics/SVG/1.1/DTD/svg11.dtd">
<svg version="1.1" xmlns="http://www.w3.org/2000/svg" xmlns:xlink="http://www.w3.org/1999/xlink" width="64" height="64" viewBox="0 0 64 64">
<path d="M53.334 0h-42.666c-5.867 0-10.668 4.801-10.668 10.668v42.664c0 5.871 4.801 10.668 10.668 10.668h42.666c5.867 0 10.666-4.797 10.666-10.668v-42.664c0-5.867-4.799-10.668-10.666-10.668zM19.486 41.674h-6.954c-0.419 0-0.732-0.188-0.909-0.474-0.183-0.297-0.193-0.683 0-1.067l7.389-13.039c0.008-0.014 0.008-0.024 0-0.040l-4.702-8.14c-0.194-0.387-0.223-0.77-0.040-1.067 0.177-0.288 0.529-0.435 0.948-0.435h6.954c1.067 0 1.59 0.687 1.936 1.304 0 0 4.753 8.291 4.781 8.337-0.282 0.496-7.507 13.276-7.507 13.276-0.355 0.641-0.857 1.343-1.897 1.343zM52.37 9.409l-15.397 27.224c-0.009 0.014-0.009 0.032 0 0.046l9.804 17.912c0.194 0.386 0.199 0.778 0.014 1.075-0.177 0.286-0.504 0.444-0.923 0.444h-6.946c-1.065 0-1.598-0.708-1.943-1.325 0 0-9.856-18.081-9.881-18.128 0.493-0.873 15.475-27.44 15.475-27.44 0.373-0.67 0.823-1.325 1.862-1.325h7.025c0.419 0 0.748 0.158 0.925 0.444 0.183 0.297 0.178 0.689-0.014 1.073z" fill="#000000"></path>
</svg>
