<?xml version="1.0" encoding="utf-8"?>
<!-- Generated by IcoMoon.io -->
<!DOCTYPE svg PUBLIC "-//W3C//DTD SVG 1.1//EN" "http://www.w3.org/Graphics/SVG/1.1/DTD/svg11.dtd">
<svg version="1.1" xmlns="http://www.w3.org/2000/svg" xmlns:xlink="http://www.w3.org/1999/xlink" width="64" height="64" viewBox="0 0 64 64">
<path d="M32 0c-17.673 0-32 14.327-32 32s14.327 32 32 32 32-14.327 32-32-14.327-32-32-32zM21.593 40.025h-5.783c-0.348 0-0.609-0.156-0.756-0.393-0.152-0.247-0.16-0.567 0-0.885l6.145-10.817c0.006-0.012 0.006-0.020 0-0.033l-3.91-6.752c-0.162-0.321-0.185-0.638-0.033-0.885 0.147-0.239 0.44-0.361 0.789-0.361h5.783c0.887 0 1.322 0.57 1.611 1.082 0 0 3.953 6.878 3.976 6.916-0.234 0.412-6.244 11.014-6.244 11.014-0.296 0.532-0.712 1.114-1.577 1.114zM48.941 13.259l-12.805 22.584c-0.008 0.012-0.008 0.027 0 0.038l8.154 14.859c0.162 0.32 0.166 0.645 0.012 0.892-0.147 0.237-0.419 0.368-0.768 0.368h-5.777c-0.886 0-1.329-0.587-1.615-1.099 0 0-8.197-14.999-8.218-15.038 0.41-0.724 12.87-22.764 12.87-22.764 0.31-0.556 0.685-1.099 1.548-1.099h5.843c0.349 0 0.622 0.131 0.769 0.368 0.153 0.247 0.148 0.572-0.012 0.89z" fill="#000000"></path>
</svg>
