<?xml version="1.0" encoding="utf-8"?>
<!-- Generated by IcoMoon.io -->
<!DOCTYPE svg PUBLIC "-//W3C//DTD SVG 1.1//EN" "http://www.w3.org/Graphics/SVG/1.1/DTD/svg11.dtd">
<svg version="1.1" xmlns="http://www.w3.org/2000/svg" xmlns:xlink="http://www.w3.org/1999/xlink" width="64" height="64" viewBox="0 0 64 64">
<path d="M22.973 0c-15.21 0-22.973 8.76-22.973 25.116v0 34.315l14.899-14.914v-17.431c0-6.776 1.796-11.088 7.82-12.056v0c2.104-0.412 6.484-0.267 9.269-0.267v0 10.35c0 0.094 0.013 0.263 0.037 0.349v0c0.117 0.419 0.496 0.726 0.945 0.727v0c0.254 0 0.492-0.131 0.737-0.373v0l25.82-25.811-36.555-0.004zM49.101 19.484v17.431c0 6.776-1.796 11.088-7.82 12.056v0c-2.105 0.411-6.485 0.267-9.27 0.267v0-10.35c0-0.094-0.013-0.263-0.037-0.349v0c-0.116-0.419-0.495-0.726-0.945-0.727v0c-0.254-0.001-0.492 0.132-0.737 0.373v0l-25.82 25.81 36.555 0.004c15.21 0 22.973-8.761 22.973-25.116v0-34.314l-14.899 14.914z" fill="#000000"></path>
</svg>
