<?xml version="1.0" encoding="utf-8"?>
<!-- Generated by IcoMoon.io -->
<!DOCTYPE svg PUBLIC "-//W3C//DTD SVG 1.1//EN" "http://www.w3.org/Graphics/SVG/1.1/DTD/svg11.dtd">
<svg version="1.1" xmlns="http://www.w3.org/2000/svg" xmlns:xlink="http://www.w3.org/1999/xlink" width="64" height="64" viewBox="0 0 64 64">
<path d="M53.223 5.631c-0.754-1.025-1.95-1.631-3.223-1.631h-38c-2.209 0-4 1.791-4 4v48c0 1.618 0.975 3.076 2.469 3.696 0.495 0.205 1.015 0.305 1.53 0.305 1.041 0 2.064-0.407 2.829-1.172l14.828-14.828h10.343c1.749 0 3.296-1.137 3.818-2.807l10-32c0.38-1.215 0.159-2.537-0.595-3.563zM42.059 20h-14.059c-2.209 0-4 1.791-4 4s1.791 4 4 4h11.559l-2.5 8h-9.059c-1.061 0-2.078 0.421-2.828 1.172l-9.172 9.172v-34.343h28.559l-2.5 8z" fill="#000000"></path>
</svg>
