<?xml version="1.0" encoding="utf-8"?>
<!-- Generated by IcoMoon.io -->
<!DOCTYPE svg PUBLIC "-//W3C//DTD SVG 1.1//EN" "http://www.w3.org/Graphics/SVG/1.1/DTD/svg11.dtd">
<svg version="1.1" xmlns="http://www.w3.org/2000/svg" xmlns:xlink="http://www.w3.org/1999/xlink" width="64" height="64" viewBox="0 0 64 64">
<path d="M55.040 8.173c1.606 0.786 3.006 1.905 4.031 3.28 2.159 2.894 2.765 6.836 1.802 11.717-0.972 4.939-3.151 9.108-6.323 12.128-0.58 0.606-1.201 1.172-1.863 1.693-3.397 2.675-7.687 4.089-12.407 4.089h-15.004l-4.035 18.92h-8.277l0.63-2.894h2.883l4.035-18.92h11.767c11.266 0 20.684-6.942 23.204-18.746 2.858-13.365-6.725-19.44-14.963-19.44h-28.080l-12.441 57.106h9.502l-1.502 6.894h16.479l4.035-18.92h11.767c11.266 0 20.684-6.942 23.204-18.746 2.107-9.855-2.55-15.746-8.445-18.16zM26.396 11.63h8.071c4.037 0 6.725 3.471 5.549 7.81-1.008 4.34-5.212 7.811-9.415 7.811h-7.735l3.53-15.621z" fill="#000000"></path>
</svg>
