<?xml version="1.0" encoding="utf-8"?>
<!-- Generated by IcoMoon.io -->
<!DOCTYPE svg PUBLIC "-//W3C//DTD SVG 1.1//EN" "http://www.w3.org/Graphics/SVG/1.1/DTD/svg11.dtd">
<svg version="1.1" xmlns="http://www.w3.org/2000/svg" xmlns:xlink="http://www.w3.org/1999/xlink" width="64" height="64" viewBox="0 0 64 64">
<path d="M40.521 4c1.771 0 3.557 0.363 5.167 1.049 1.693 0.722 3.083 1.745 4.132 3.042 2.1 2.596 2.69 6.133 1.753 10.514-1.019 4.774-3.4 8.748-6.885 11.492-3.397 2.675-7.687 4.089-12.407 4.089h-15.004l-4.035 18.921h-8.277l10.698-49.106h24.858zM17.862 31.251h12.74c2.965 0 5.968-1.136 8.457-3.198 2.426-2.010 4.142-4.72 4.837-7.637 0.869-3.283 0.289-6.572-1.595-9.035-1.824-2.384-4.679-3.751-7.834-3.751h-11.268l-5.338 23.621zM40.521 0h-28.080l-12.441 57.106h9.502l-1.502 6.894h16.479l4.035-18.92h11.767c11.266 0 20.684-6.942 23.204-18.746 2.107-9.855-2.55-15.746-8.445-18.16 1.606 0.786 3.006 1.905 4.031 3.28 2.159 2.894 2.765 6.836 1.802 11.717-0.972 4.939-3.151 9.108-6.323 12.128-0.58 0.606-1.201 1.172-1.863 1.693-3.397 2.675-7.687 4.089-12.407 4.089h-15.004l-4.035 18.92h-8.277l0.63-2.894h2.883l4.035-18.92h11.767c11.266 0 20.684-6.942 23.204-18.746 2.858-13.365-6.725-19.44-14.963-19.44v0zM22.866 27.251l3.53-15.621h8.071c4.037 0 6.725 3.471 5.549 7.81-1.008 4.34-5.212 7.811-9.415 7.811h-7.735z" fill="#000000"></path>
</svg>
