<?xml version="1.0" encoding="utf-8"?>
<!-- Generated by IcoMoon.io -->
<!DOCTYPE svg PUBLIC "-//W3C//DTD SVG 1.1//EN" "http://www.w3.org/Graphics/SVG/1.1/DTD/svg11.dtd">
<svg version="1.1" xmlns="http://www.w3.org/2000/svg" xmlns:xlink="http://www.w3.org/1999/xlink" width="64" height="64" viewBox="0 0 64 64">
<path d="M38.055 40.842c-1.080 1.089-0.167 3.071-0.167 3.071l8.131 13.576c0 0 1.335 1.79 2.492 1.79 1.162 0 2.31-0.954 2.31-0.954l6.428-9.188c0 0 0.648-1.159 0.662-2.175 0.023-1.444-2.153-1.84-2.153-1.84l-15.218-4.887c-0 0-1.491-0.395-2.484 0.607zM37.283 33.999c0.779 1.321 2.927 0.936 2.927 0.936l15.184-4.438c0 0 2.069-0.842 2.364-1.964 0.29-1.122-0.341-2.476-0.341-2.476l-7.256-8.547c0 0-0.629-1.081-1.934-1.189-1.438-0.122-2.324 1.619-2.324 1.619l-8.579 13.501c0 0-0.758 1.345-0.041 2.559zM30.11 28.735c1.788-0.44 2.072-3.038 2.072-3.038l-0.121-21.617c0 0-0.27-2.667-1.468-3.389-1.879-1.14-2.436-0.545-2.975-0.465l-12.606 4.684c0 0-1.235 0.409-1.878 1.439-0.918 1.46 0.933 3.596 0.933 3.596l13.103 17.86c0 0 1.293 1.337 2.94 0.93zM26.997 37.484c0.045-1.667-2.002-2.669-2.002-2.669l-13.55-6.845c0 0-2.008-0.828-2.983-0.251-0.747 0.441-1.409 1.24-1.473 1.946l-0.883 10.863c0 0-0.132 1.882 0.356 2.739 0.691 1.215 2.964 0.369 2.964 0.369l15.819-3.496c0.614-0.413 1.692-0.45 1.752-2.655zM30.93 43.346c-1.358-0.697-2.983 0.747-2.983 0.747l-10.592 11.66c0 0-1.322 1.783-0.986 2.878 0.317 1.026 0.841 1.536 1.582 1.895l10.637 3.358c0 0 1.29 0.268 2.266-0.015 1.386-0.402 1.131-2.572 1.131-2.572l0.24-15.788c-0 0-0.054-1.521-1.297-2.164z" fill="#000000"></path>
</svg>
