<?xml version="1.0" encoding="utf-8"?>
<!-- Generated by IcoMoon.io -->
<!DOCTYPE svg PUBLIC "-//W3C//DTD SVG 1.1//EN" "http://www.w3.org/Graphics/SVG/1.1/DTD/svg11.dtd">
<svg version="1.1" xmlns="http://www.w3.org/2000/svg" xmlns:xlink="http://www.w3.org/1999/xlink" width="64" height="64" viewBox="0 0 64 64">
<path d="M52.626 36.843c-0.853-0.84-2.745-1.285-5.623-1.323-1.949-0.022-4.294 0.15-6.761 0.495-1.105-0.637-2.243-1.331-3.137-2.166-2.404-2.245-4.41-5.361-5.661-8.787 0.081-0.32 0.151-0.601 0.215-0.888 0 0 1.354-7.691 0.996-10.292-0.050-0.357-0.080-0.46-0.175-0.737l-0.118-0.302c-0.368-0.85-1.090-1.75-2.223-1.7l-0.682-0.021c-1.263 0-2.291 0.646-2.562 1.611-0.821 3.027 0.026 7.556 1.561 13.421l-0.393 0.955c-1.099 2.68-2.477 5.379-3.692 7.76l-0.158 0.31c-1.279 2.502-2.439 4.627-3.491 6.426l-1.086 0.574c-0.079 0.042-1.94 1.026-2.377 1.29-3.704 2.211-6.158 4.721-6.565 6.714-0.13 0.636-0.033 1.449 0.626 1.826l1.050 0.529c0.456 0.228 0.936 0.344 1.428 0.344 2.638 0 5.7-3.286 9.919-10.648 4.871-1.586 10.416-2.904 15.276-3.631 3.704 2.086 8.259 3.534 11.134 3.534 0.511 0 0.951-0.049 1.308-0.143 0.551-0.146 1.016-0.461 1.3-0.887 0.558-0.84 0.671-1.996 0.52-3.18-0.045-0.351-0.326-0.786-0.629-1.083zM13.228 50.878c0.481-1.315 2.385-3.915 5.2-6.222 0.177-0.144 0.613-0.552 1.012-0.931-2.944 4.695-4.915 6.567-6.213 7.154zM29.902 12.48c0.848 0 1.33 2.137 1.37 4.141s-0.429 3.41-1.010 4.451c-0.481-1.541-0.714-3.969-0.714-5.556 0 0-0.035-3.035 0.354-3.035v0zM24.928 39.843c0.591-1.057 1.205-2.172 1.833-3.355 1.531-2.895 2.497-5.16 3.217-7.022 1.432 2.605 3.215 4.82 5.312 6.594 0.262 0.221 0.539 0.444 0.83 0.666-4.263 0.843-7.948 1.869-11.192 3.116v0zM51.806 39.603c-0.26 0.162-1.003 0.256-1.482 0.256-1.544 0-3.455-0.706-6.133-1.854 1.029-0.076 1.973-0.115 2.819-0.115 1.549 0 2.008-0.007 3.522 0.38s1.534 1.171 1.274 1.333v0z" fill="#000000"></path>
<path d="M57.363 14.317c-1.388-1.893-3.323-4.106-5.449-6.231s-4.338-4.060-6.231-5.449c-3.223-2.364-4.787-2.637-5.683-2.637h-31c-2.757 0-5 2.243-5 5v54c0 2.757 2.243 5 5 5h46c2.757 0 5-2.243 5-5v-39c0-0.896-0.273-2.459-2.637-5.683v0zM49.086 10.914c1.919 1.919 3.425 3.65 4.536 5.086h-9.622v-9.622c1.436 1.111 3.167 2.617 5.086 4.536v0zM56 59c0 0.542-0.458 1-1 1h-46c-0.542 0-1-0.458-1-1v-54c0-0.542 0.458-1 1-1 0 0 30.997-0 31 0v14c0 1.105 0.895 2 2 2h14v39z" fill="#000000"></path>
</svg>
