<?xml version="1.0" encoding="utf-8"?>
<!-- Generated by IcoMoon.io -->
<!DOCTYPE svg PUBLIC "-//W3C//DTD SVG 1.1//EN" "http://www.w3.org/Graphics/SVG/1.1/DTD/svg11.dtd">
<svg version="1.1" xmlns="http://www.w3.org/2000/svg" xmlns:xlink="http://www.w3.org/1999/xlink" width="64" height="64" viewBox="0 0 64 64">
<path d="M43.139 29.48c-3.792-1.791-8.623-2.151-12.177 0.378 4.321-0.413 9.060 0.302 12.194 3.57 3-3.442 7.757-4.088 12.060-3.733-3.593-2.384-8.326-2.064-12.077-0.215v0zM41.603 37.859c-4.273-0.099-8.402 1.448-11.944 3.757-6.698-2.849-15.171-2.32-20.875 2.436 1.646-0.058 3.25-0.465 4.878-0.675 5.949-0.593 12.287 0.884 16.782 4.989 1.861-2.721 4.478-4.89 7.478-6.245 3.942-1.907 8.385-2.105 12.676-2.157-2.605-1.791-5.913-2.122-8.996-2.105z" fill="#000000"></path>
<path d="M57.363 14.317c-1.388-1.893-3.323-4.106-5.449-6.231s-4.338-4.060-6.231-5.449c-3.223-2.364-4.787-2.637-5.683-2.637h-31c-2.757 0-5 2.243-5 5v54c0 2.757 2.243 5 5 5h46c2.757 0 5-2.243 5-5v-39c0-0.896-0.273-2.459-2.637-5.683v0zM49.086 10.914c1.919 1.919 3.425 3.65 4.536 5.086h-9.622v-9.622c1.436 1.111 3.167 2.617 5.086 4.536v0zM56 59c0 0.542-0.458 1-1 1h-46c-0.542 0-1-0.458-1-1v-54c0-0.542 0.458-1 1-1 0 0 30.997-0 31 0v14c0 1.105 0.895 2 2 2h14v39z" fill="#000000"></path>
</svg>
