<?xml version="1.0" encoding="utf-8"?>
<!-- Generated by IcoMoon.io -->
<!DOCTYPE svg PUBLIC "-//W3C//DTD SVG 1.1//EN" "http://www.w3.org/Graphics/SVG/1.1/DTD/svg11.dtd">
<svg version="1.1" xmlns="http://www.w3.org/2000/svg" xmlns:xlink="http://www.w3.org/1999/xlink" width="64" height="64" viewBox="0 0 64 64">
<path d="M39.986 29.743h2.763l-3.188 14.136-4.145-19.876h-6.659l-4.82 19.876-3.614-19.876h-6.962l7.068 31.992h6.802l4.768-18.919 4.266 18.919h6.271l8.102-31.992h-10.653v5.739z" fill="#000000"></path>
<path d="M57.363 14.317c-1.388-1.893-3.323-4.106-5.449-6.231s-4.338-4.060-6.231-5.449c-3.223-2.364-4.787-2.637-5.683-2.637h-31c-2.757 0-5 2.243-5 5v54c0 2.757 2.243 5 5 5h46c2.757 0 5-2.243 5-5v-39c0-0.896-0.273-2.459-2.637-5.683v0zM49.086 10.914c1.919 1.919 3.425 3.65 4.536 5.086h-9.622v-9.622c1.436 1.111 3.167 2.617 5.086 4.536v0zM56 59c0 0.542-0.458 1-1 1h-46c-0.542 0-1-0.458-1-1v-54c0-0.542 0.458-1 1-1 0 0 30.997-0 31 0v14c0 1.105 0.895 2 2 2h14v39z" fill="#000000"></path>
</svg>
