<?xml version="1.0" encoding="utf-8"?>
<!-- Generated by IcoMoon.io -->
<!DOCTYPE svg PUBLIC "-//W3C//DTD SVG 1.1//EN" "http://www.w3.org/Graphics/SVG/1.1/DTD/svg11.dtd">
<svg version="1.1" xmlns="http://www.w3.org/2000/svg" xmlns:xlink="http://www.w3.org/1999/xlink" width="64" height="64" viewBox="0 0 64 64">
<path d="M33.414 1.414c-0.778-0.778-2.314-1.414-3.414-1.414h-24c-1.1 0-2 0.9-2 2v60c0 1.1 0.9 2 2 2h48c1.1 0 2-0.9 2-2v-36c0-1.1-0.636-2.636-1.414-3.414l-21.172-21.172zM52 60h-44v-56h21.947c0.182 0.030 0.526 0.172 0.676 0.28l21.097 21.097c0.108 0.15 0.25 0.493 0.28 0.676v33.947zM54 0h-12c-1.1 0-1.364 0.636-0.586 1.414l13.172 13.172c0.778 0.778 1.414 0.514 1.414-0.586v-12c0-1.1-0.9-2-2-2z" fill="#000000"></path>
</svg>
