<?xml version="1.0" encoding="utf-8"?>
<!-- Generated by IcoMoon.io -->
<!DOCTYPE svg PUBLIC "-//W3C//DTD SVG 1.1//EN" "http://www.w3.org/Graphics/SVG/1.1/DTD/svg11.dtd">
<svg version="1.1" xmlns="http://www.w3.org/2000/svg" xmlns:xlink="http://www.w3.org/1999/xlink" width="64" height="64" viewBox="0 0 64 64">
<path d="M62.793 29.15l-27.944-27.942c-1.609-1.61-4.218-1.61-5.829 0l-6.493 6.492 4.886 4.886c0.783-0.375 1.66-0.585 2.587-0.585 3.314 0 6 2.686 6 6 0 0.926-0.21 1.803-0.585 2.587l7.998 7.998c0.783-0.375 1.66-0.585 2.587-0.585 3.314 0 6 2.686 6 6s-2.686 6-6 6-6-2.686-6-6c0-0.926 0.21-1.803 0.585-2.587l-7.998-7.998c-0.19 0.091-0.386 0.171-0.587 0.242v16.685c2.33 0.824 4 3.045 4 5.657 0 3.314-2.686 6-6 6s-6-2.686-6-6c0-2.612 1.67-4.833 4-5.657v-16.686c-2.33-0.824-4-3.045-4-5.657 0-0.926 0.21-1.803 0.585-2.587l-4.886-4.886-18.493 18.492c-1.609 1.611-1.609 4.221 0 5.83l27.945 27.943c1.609 1.609 4.218 1.609 5.829 0l27.813-27.813c1.61-1.61 1.61-4.221-0-5.831z" fill="#000000"></path>
</svg>
