<?xml version="1.0" encoding="utf-8"?>
<!-- Generated by IcoMoon.io -->
<!DOCTYPE svg PUBLIC "-//W3C//DTD SVG 1.1//EN" "http://www.w3.org/Graphics/SVG/1.1/DTD/svg11.dtd">
<svg version="1.1" xmlns="http://www.w3.org/2000/svg" xmlns:xlink="http://www.w3.org/1999/xlink" width="64" height="64" viewBox="0 0 64 64">
<path d="M58 26c-1.777 0-3.372 0.773-4.471 2h-11.872l8.395-8.395c1.645 0.091 3.319-0.491 4.576-1.747 2.343-2.343 2.343-6.142 0-8.485s-6.142-2.343-8.485 0c-1.256 1.256-1.838 2.931-1.747 4.576l-8.395 8.395v-11.872c1.227-1.099 2-2.694 2-4.471 0-3.314-2.686-6-6-6s-6 2.686-6 6c0 1.777 0.773 3.372 2 4.471v11.872l-8.395-8.395c0.091-1.645-0.491-3.319-1.747-4.576-2.343-2.343-6.142-2.343-8.485 0s-2.343 6.142 0 8.485c1.256 1.256 2.931 1.838 4.576 1.747l8.395 8.395h-11.872c-1.099-1.227-2.694-2-4.471-2-3.314 0-6 2.686-6 6s2.686 6 6 6c1.777 0 3.372-0.773 4.471-2h11.872l-8.395 8.395c-1.645-0.091-3.319 0.491-4.576 1.747-2.343 2.343-2.343 6.142 0 8.485s6.142 2.343 8.485 0c1.256-1.256 1.838-2.931 1.747-4.576l8.395-8.395v11.872c-1.227 1.099-2 2.694-2 4.471 0 3.314 2.686 6 6 6s6-2.686 6-6c0-1.777-0.773-3.372-2-4.471v-11.872l8.395 8.395c-0.091 1.645 0.491 3.319 1.747 4.576 2.343 2.343 6.142 2.343 8.485 0s2.343-6.142 0-8.485c-1.256-1.256-2.931-1.838-4.576-1.747l-8.395-8.395h11.872c1.099 1.227 2.694 2 4.471 2 3.314 0 6-2.686 6-6s-2.686-6-6-6z" fill="#000000"></path>
</svg>
