<?xml version="1.0" encoding="utf-8"?>
<!-- Generated by IcoMoon.io -->
<!DOCTYPE svg PUBLIC "-//W3C//DTD SVG 1.1//EN" "http://www.w3.org/Graphics/SVG/1.1/DTD/svg11.dtd">
<svg version="1.1" xmlns="http://www.w3.org/2000/svg" xmlns:xlink="http://www.w3.org/1999/xlink" width="64" height="64" viewBox="0 0 64 64">
<path d="M59.109 23.003l-28-18.667c-0.672-0.448-1.547-0.448-2.219 0l-28 18.667c-0.556 0.371-0.891 0.995-0.891 1.664v18.667c0 0.669 0.334 1.293 0.891 1.664l28 18.667c0.336 0.224 0.723 0.336 1.109 0.336s0.773-0.112 1.109-0.336l28-18.667c0.556-0.371 0.891-0.995 0.891-1.664v-18.667c0-0.669-0.334-1.293-0.891-1.664zM30 40.93l-10.395-6.93 10.395-6.93 10.395 6.93-10.395 6.93zM32 23.596v-13.859l22.394 14.93-10.394 6.93-12-8zM28 23.596l-12 8-10.395-6.93 22.395-14.93v13.859zM12.395 34l-8.395 5.596v-11.193l8.395 5.596zM16 36.404l12 8v13.859l-22.395-14.93 10.395-6.93zM32 44.404l12-8 10.395 6.93-22.395 14.93v-13.859zM47.605 34l8.395-5.596v11.193l-8.395-5.596z" fill="#000000"></path>
</svg>
