<?xml version="1.0" encoding="utf-8"?>
<!-- Generated by IcoMoon.io -->
<!DOCTYPE svg PUBLIC "-//W3C//DTD SVG 1.1//EN" "http://www.w3.org/Graphics/SVG/1.1/DTD/svg11.dtd">
<svg version="1.1" xmlns="http://www.w3.org/2000/svg" xmlns:xlink="http://www.w3.org/1999/xlink" width="64" height="64" viewBox="0 0 64 64">
<path d="M16.142 27.909l-9.158-15.863c5.864-7.341 14.89-12.046 25.016-12.046 11.715 0 21.957 6.296 27.533 15.688h-26.111c-0.469-0.041-0.943-0.063-1.423-0.063-7.617 0-14.036 5.228-15.858 12.284zM43.457 20.313h18.341c1.421 3.621 2.202 7.563 2.202 11.688 0 17.552-14.131 31.8-31.637 31.995l13.087-22.667c1.843-2.649 2.925-5.864 2.925-9.328 0-4.573-1.885-8.714-4.918-11.688zM20.375 32c0-6.41 5.215-11.625 11.625-11.625s11.625 5.215 11.625 11.625c0 6.41-5.215 11.625-11.625 11.625s-11.625-5.215-11.625-11.625zM36.386 47.778l-9.161 15.867c-15.408-2.305-27.225-15.595-27.225-31.645 0-5.701 1.493-11.053 4.106-15.689l13.064 22.628c2.617 5.569 8.28 9.436 14.83 9.436 1.519 0 2.99-0.209 4.386-0.597z" fill="#000000"></path>
</svg>
