<?xml version="1.0" encoding="utf-8"?>
<!-- Generated by IcoMoon.io -->
<!DOCTYPE svg PUBLIC "-//W3C//DTD SVG 1.1//EN" "http://www.w3.org/Graphics/SVG/1.1/DTD/svg11.dtd">
<svg version="1.1" xmlns="http://www.w3.org/2000/svg" xmlns:xlink="http://www.w3.org/1999/xlink" width="64" height="64" viewBox="0 0 64 64">
<path d="M63.908 20.884l-0.741 4.755c0 0-1.060-8.803-2.358-12.095-1.99-5.043-2.876-5.003-2.882-4.995 1.333 3.388 1.091 5.208 1.091 5.208s-2.362-6.437-8.607-8.486c-6.918-2.268-10.661-1.648-11.093-1.53-0.066-0.001-0.129-0.001-0.189-0.001 0.051 0.004 0.101 0.009 0.152 0.013-0.002 0.001-0.006 0.003-0.005 0.003 0.028 0.034 7.644 1.331 8.995 3.187 0 0-3.235 0-6.455 0.928-0.145 0.042 11.845 1.498 14.297 13.48 0 0-1.314-2.742-2.94-3.208 1.069 3.252 0.795 9.424-0.224 12.491-0.131 0.395-0.265-1.705-2.27-2.609 0.642 4.603-0.038 11.904-3.232 13.914-0.249 0.157 2.002-7.207 0.453-4.36-8.919 13.675-19.463 6.311-24.203 3.069 2.429 0.529 7.041-0.082 9.082-1.601 0.003-0.002 0.005-0.004 0.007-0.005 2.217-1.516 3.529-2.623 4.708-2.361 1.18 0.263 1.965-0.92 1.049-1.971-0.917-1.052-3.145-2.499-6.158-1.71-2.125 0.556-4.758 2.908-8.778 0.527-3.085-1.828-3.376-3.347-3.403-4.398 0.076-0.373 0.172-0.721 0.286-1.039 0.355-0.992 1.432-1.291 2.031-1.527 1.016 0.174 1.891 0.491 2.811 0.963 0.012-0.306 0.016-0.712-0.001-1.172 0.088-0.175 0.034-0.703-0.108-1.349-0.081-0.644-0.214-1.311-0.422-1.918 0.001-0 0.001-0.001 0.002-0.001 0.003-0.001 0.007-0.003 0.010-0.004 0.005-0.003 0.009-0.007 0.013-0.012 0.001-0.001 0.002-0.002 0.003-0.003 0.005-0.008 0.010-0.017 0.012-0.029 0.064-0.289 0.751-0.845 1.607-1.444 0.767-0.536 1.669-1.106 2.379-1.547 0.629-0.39 1.108-0.68 1.209-0.756 0.039-0.029 0.085-0.063 0.135-0.102 0.009-0.007 0.019-0.015 0.028-0.022 0.006-0.005 0.012-0.009 0.018-0.014 0.338-0.269 0.843-0.778 0.949-1.849 0-0.003 0.001-0.005 0.001-0.008 0.003-0.032 0.006-0.063 0.008-0.096 0.002-0.023 0.003-0.045 0.005-0.069 0.001-0.018 0.002-0.035 0.003-0.053 0.002-0.042 0.003-0.085 0.004-0.129 0-0.003 0-0.005 0-0.007 0.001-0.104-0-0.212-0.006-0.325-0.003-0.063-0.008-0.121-0.019-0.173-0-0.003-0.001-0.006-0.002-0.009-0.001-0.005-0.002-0.010-0.004-0.015-0.002-0.009-0.005-0.018-0.008-0.027-0-0.001-0.001-0.002-0.001-0.003-0.003-0.010-0.007-0.020-0.011-0.029-0-0-0-0.001-0-0.001-0.11-0.257-0.52-0.354-2.215-0.382-0.002-0-0.003-0-0.005-0v0c-0.692-0.012-1.596-0.012-2.781-0.007-2.078 0.008-3.227-2.031-3.593-2.821 0.503-2.779 1.955-4.759 4.341-6.102 0.045-0.025 0.036-0.046-0.017-0.061 0.466-0.282-5.64-0.008-8.449 3.565-2.493-0.62-4.666-0.578-6.538-0.138-0.36-0.010-0.808-0.055-1.34-0.166-1.245-1.129-3.028-3.213-3.123-5.7 0 0-0.006 0.005-0.016 0.013-0.001-0.024-0.003-0.048-0.005-0.071 0 0-3.795 2.917-3.227 10.868-0.001 0.127-0.004 0.249-0.008 0.367-1.027 1.393-1.537 2.564-1.575 2.822-0.91 1.853-1.833 4.641-2.585 8.874 0 0 0.525-1.667 1.58-3.554-0.776 2.376-1.385 6.072-1.027 11.616 0 0 0.095-1.229 0.43-3 0.262 3.438 1.407 7.683 4.304 12.674 5.559 9.582 14.104 14.421 23.549 15.163 1.677 0.138 3.378 0.142 5.089 0.012 0.157-0.011 0.315-0.023 0.472-0.036 1.935-0.136 3.883-0.428 5.827-0.898 26.573-6.425 23.684-38.512 23.684-38.512z" fill="#000000"></path>
</svg>
