<?xml version="1.0" encoding="utf-8"?>
<!-- Generated by IcoMoon.io -->
<!DOCTYPE svg PUBLIC "-//W3C//DTD SVG 1.1//EN" "http://www.w3.org/Graphics/SVG/1.1/DTD/svg11.dtd">
<svg version="1.1" xmlns="http://www.w3.org/2000/svg" xmlns:xlink="http://www.w3.org/1999/xlink" width="64" height="64" viewBox="0 0 64 64">
<path d="M45.888 39.302h14.753c0.114-1.023 0.159-2.069 0.159-3.137 0-5.014-1.346-9.717-3.695-13.767 2.43-6.457 2.343-11.937-0.91-15.212-3.093-3.080-11.393-2.58-20.776 1.575-0.694-0.053-1.395-0.079-2.102-0.079-12.878 0-23.683 8.862-26.669 20.803 4.040-5.172 8.29-8.922 13.967-11.653-0.516 0.484-3.528 3.478-4.035 3.985-14.972 14.967-19.693 34.519-14.613 39.6 3.862 3.861 10.86 3.209 18.898-0.728 3.738 1.904 7.969 2.977 12.451 2.977 12.071 0 22.3-7.77 26.006-18.59h-14.867c-2.046 3.774-6.047 6.343-10.639 6.343s-8.593-2.569-10.639-6.343c-0.909-1.705-1.432-3.66-1.432-5.729v-0.045h24.141zM21.769 32.050c0.341-6.069 5.387-10.912 11.548-10.912s11.207 4.842 11.548 10.912h-23.096zM56.060 10.238c2.095 2.117 2.043 6.013 0.251 10.876-3.071-4.682-7.532-8.371-12.8-10.477 5.632-2.415 10.213-2.735 12.549-0.399zM5.843 60.453c-2.674-2.675-1.868-8.289 1.577-15.052 2.144 6.017 6.322 11.068 11.709 14.322-5.964 2.707-10.846 3.167-13.285 0.73z" fill="#000000"></path>
</svg>
