<?xml version="1.0" encoding="utf-8"?>
<!-- Generated by IcoMoon.io -->
<!DOCTYPE svg PUBLIC "-//W3C//DTD SVG 1.1//EN" "http://www.w3.org/Graphics/SVG/1.1/DTD/svg11.dtd">
<svg version="1.1" xmlns="http://www.w3.org/2000/svg" xmlns:xlink="http://www.w3.org/1999/xlink" width="64" height="64" viewBox="0 0 64 64">
<path d="M32 4c-1.504 0-2.982 0.112-4.427 0.326-0.019-0.049-0.039-0.097-0.061-0.144 0.802-0.625 1.222-1.489 1.040-2.347-0.233-1.098-1.4-1.835-2.902-1.835-0.324 0-0.654 0.035-0.98 0.104-1.886 0.401-3.134 1.789-2.843 3.16 0.177 0.834 0.893 1.459 1.885 1.712-0.002 0.061-0.001 0.122 0.003 0.183-12.539 3.596-21.715 15.146-21.715 28.84 0 16.569 13.431 30 30 30s30-13.431 30-30c0-16.569-13.431-30-30-30zM22.805 3.057c-0.169-0.795 0.78-1.699 2.072-1.974 0.258-0.055 0.518-0.083 0.772-0.083 1.002 0 1.793 0.429 1.924 1.043 0.1 0.469-0.192 0.976-0.712 1.369-0.44-0.31-1.001-0.445-1.569-0.325-0.565 0.12-1.022 0.469-1.297 0.928-0.637-0.153-1.094-0.505-1.191-0.959zM48.087 50.087c-2.748 2.748-6.076 4.705-9.707 5.76l-2.65-4.298-0.672 4.997c-1.006 0.135-2.027 0.204-3.058 0.204-6.077 0-11.79-2.367-16.087-6.663-2.748-2.748-4.705-6.076-5.76-9.707l4.298-2.65-4.998-0.672c-0.134-1.006-0.204-2.027-0.204-3.058 0-6.077 2.366-11.79 6.663-16.087 2.748-2.748 6.076-4.705 9.707-5.76l2.65 4.298 0.672-4.997c1.006-0.134 2.026-0.204 3.058-0.204 6.077 0 11.79 2.366 16.087 6.663 2.748 2.748 4.705 6.076 5.76 9.707l-4.298 2.65 4.998 0.672c0.135 1.006 0.204 2.026 0.204 3.058 0 6.077-2.367 11.79-6.663 16.087zM47.556 18.444l-12.311 9.357c-0.915-0.479-1.93-0.754-2.963-0.795l-3.192-6.699-0.192 7.416c-0.83 0.409-1.569 0.979-2.18 1.684l-3.943-1.398 2.881 3.034c-0.396 0.845-0.617 1.752-0.652 2.677l-6.697 3.192 7.421 0.192c0.024 0.048 0.048 0.095 0.073 0.143l-9.357 12.311 12.311-9.357c0.915 0.478 1.93 0.754 2.963 0.795l3.193 6.699 0.192-7.416c0.83-0.409 1.569-0.979 2.18-1.684l3.943 1.398-2.881-3.034c0.396-0.845 0.617-1.752 0.652-2.676l6.697-3.192-7.421-0.192c-0.024-0.048-0.048-0.095-0.073-0.142l9.356-12.311zM32.006 27.783v0zM30.753 28.131c0.42-0.089 0.84-0.132 1.253-0.132 0.259 0 0.516 0.017 0.768 0.050l0.006 0.002-0.001-0.001c0.546 0.072 1.074 0.219 1.571 0.431l-4.472 3.398-3.399 4.472c-0.148-0.35-0.267-0.718-0.349-1.103-0.689-3.241 1.38-6.427 4.621-7.116zM35.133 39.118v0 0c-0.566 0.346-1.199 0.605-1.885 0.751-0.42 0.089-0.84 0.132-1.253 0.132-0.259 0-0.516-0.017-0.769-0.050l-0.004-0.001c-0.546-0.071-1.073-0.219-1.571-0.431l4.472-3.398 3.399-4.472c0.148 0.35 0.267 0.718 0.349 1.103 0.543 2.555-0.629 5.075-2.736 6.365z" fill="#000000"></path>
</svg>
