<?xml version="1.0" encoding="utf-8"?>
<!-- Generated by IcoMoon.io -->
<!DOCTYPE svg PUBLIC "-//W3C//DTD SVG 1.1//EN" "http://www.w3.org/Graphics/SVG/1.1/DTD/svg11.dtd">
<svg version="1.1" xmlns="http://www.w3.org/2000/svg" xmlns:xlink="http://www.w3.org/1999/xlink" width="16" height="16" viewBox="0 0 16 16">
<path fill="#000000" d="M6 1h-5c-0.55 0-1 0.45-1 1v5c0 0.55 0.45 1 1 1h5c0.55 0 1-0.45 1-1v-5c0-0.55-0.45-1-1-1zM6 5h-5v-1h5v1zM14 1h-5c-0.55 0-1 0.45-1 1v13c0 0.55 0.45 1 1 1h5c0.55 0 1-0.45 1-1v-13c0-0.55-0.45-1-1-1zM14 10h-5v-1h5v1zM14 7h-5v-1h5v1zM6 9h-5c-0.55 0-1 0.45-1 1v5c0 0.55 0.45 1 1 1h5c0.55 0 1-0.45 1-1v-5c0-0.55-0.45-1-1-1zM6 13h-2v2h-1v-2h-2v-1h2v-2h1v2h2v1z"></path>
</svg>
