<?xml version="1.0" encoding="utf-8"?>
<!-- Generated by IcoMoon.io -->
<!DOCTYPE svg PUBLIC "-//W3C//DTD SVG 1.1//EN" "http://www.w3.org/Graphics/SVG/1.1/DTD/svg11.dtd">
<svg version="1.1" xmlns="http://www.w3.org/2000/svg" xmlns:xlink="http://www.w3.org/1999/xlink" width="16" height="16" viewBox="0 0 16 16">
<path fill="#000000" d="M3 0v16h12v-16h-12zM9 4.005c1.102 0 1.995 0.893 1.995 1.995s-0.893 1.995-1.995 1.995-1.995-0.893-1.995-1.995 0.893-1.995 1.995-1.995v0zM12 12h-6v-1c0-1.105 0.895-2 2-2v0h2c1.105 0 2 0.895 2 2v1z"></path>
<path fill="#000000" d="M1 1h1.5v3h-1.5v-3z"></path>
<path fill="#000000" d="M1 5h1.5v3h-1.5v-3z"></path>
<path fill="#000000" d="M1 9h1.5v3h-1.5v-3z"></path>
<path fill="#000000" d="M1 13h1.5v3h-1.5v-3z"></path>
</svg>
