<?xml version="1.0" encoding="utf-8"?>
<!-- Generated by IcoMoon.io -->
<!DOCTYPE svg PUBLIC "-//W3C//DTD SVG 1.1//EN" "http://www.w3.org/Graphics/SVG/1.1/DTD/svg11.dtd">
<svg version="1.1" xmlns="http://www.w3.org/2000/svg" xmlns:xlink="http://www.w3.org/1999/xlink" width="16" height="16" viewBox="0 0 16 16">
<path fill="#000000" d="M6 2c0-1.105 0.895-2 2-2s2 0.895 2 2c0 1.105-0.895 2-2 2s-2-0.895-2-2zM10.243 3.757c0-1.105 0.895-2 2-2s2 0.895 2 2c0 1.105-0.895 2-2 2s-2-0.895-2-2zM13 8c0-0.552 0.448-1 1-1s1 0.448 1 1c0 0.552-0.448 1-1 1s-1-0.448-1-1zM11.243 12.243c0-0.552 0.448-1 1-1s1 0.448 1 1c0 0.552-0.448 1-1 1s-1-0.448-1-1zM7 14c0 0 0 0 0 0 0-0.552 0.448-1 1-1s1 0.448 1 1c0 0 0 0 0 0 0 0.552-0.448 1-1 1s-1-0.448-1-1zM2.757 12.243c0 0 0 0 0 0 0-0.552 0.448-1 1-1s1 0.448 1 1c0 0 0 0 0 0 0 0.552-0.448 1-1 1s-1-0.448-1-1zM2.257 3.757c0 0 0 0 0 0 0-0.828 0.672-1.5 1.5-1.5s1.5 0.672 1.5 1.5c0 0 0 0 0 0 0 0.828-0.672 1.5-1.5 1.5s-1.5-0.672-1.5-1.5zM0.875 8c0-0.621 0.504-1.125 1.125-1.125s1.125 0.504 1.125 1.125c0 0.621-0.504 1.125-1.125 1.125s-1.125-0.504-1.125-1.125z"></path>
</svg>
