<?xml version="1.0" encoding="utf-8"?>
<!-- Generated by IcoMoon.io -->
<!DOCTYPE svg PUBLIC "-//W3C//DTD SVG 1.1//EN" "http://www.w3.org/Graphics/SVG/1.1/DTD/svg11.dtd">
<svg version="1.1" xmlns="http://www.w3.org/2000/svg" xmlns:xlink="http://www.w3.org/1999/xlink" width="16" height="16" viewBox="0 0 16 16">
<path fill="#000000" d="M4.5 6h-3c-0.275 0-0.5 0.225-0.5 0.5v9c0 0.275 0.225 0.5 0.5 0.5h3c0.275 0 0.5-0.225 0.5-0.5v-9c0-0.275-0.225-0.5-0.5-0.5zM4.5 15h-3v-4h3v4zM9.5 4h-3c-0.275 0-0.5 0.225-0.5 0.5v11c0 0.275 0.225 0.5 0.5 0.5h3c0.275 0 0.5-0.225 0.5-0.5v-11c0-0.275-0.225-0.5-0.5-0.5zM9.5 15h-3v-5h3v5zM14.5 2h-3c-0.275 0-0.5 0.225-0.5 0.5v13c0 0.275 0.225 0.5 0.5 0.5h3c0.275 0 0.5-0.225 0.5-0.5v-13c0-0.275-0.225-0.5-0.5-0.5zM14.5 15h-3v-6h3v6z"></path>
</svg>
