<?xml version="1.0" encoding="utf-8"?>
<!-- Generated by IcoMoon.io -->
<!DOCTYPE svg PUBLIC "-//W3C//DTD SVG 1.1//EN" "http://www.w3.org/Graphics/SVG/1.1/DTD/svg11.dtd">
<svg version="1.1" xmlns="http://www.w3.org/2000/svg" xmlns:xlink="http://www.w3.org/1999/xlink" width="16" height="16" viewBox="0 0 16 16">
<path fill="#000000" d="M13.893 2.809c0.118-0.151 0.14-0.355 0.057-0.527s-0.258-0.281-0.45-0.281h-11c-0.191 0-0.366 0.109-0.45 0.281s-0.062 0.377 0.057 0.527l4.893 6.228v5.963h-1.5c-0.276 0-0.5 0.224-0.5 0.5s0.224 0.5 0.5 0.5h5c0.276 0 0.5-0.224 0.5-0.5s-0.224-0.5-0.5-0.5h-1.5v-5.963l4.893-6.228zM12.471 3l-1.571 2h-5.8l-1.571-2h8.943z"></path>
</svg>
