<?xml version="1.0" encoding="utf-8"?>
<!-- Generated by IcoMoon.io -->
<!DOCTYPE svg PUBLIC "-//W3C//DTD SVG 1.1//EN" "http://www.w3.org/Graphics/SVG/1.1/DTD/svg11.dtd">
<svg version="1.1" xmlns="http://www.w3.org/2000/svg" xmlns:xlink="http://www.w3.org/1999/xlink" width="16" height="16" viewBox="0 0 16 16">
<path fill="#000000" d="M10 2.29v2.124c0.566 0.247 1.086 0.6 1.536 1.050 0.944 0.944 1.464 2.2 1.464 3.536s-0.52 2.591-1.464 3.536c-0.944 0.944-2.2 1.464-3.536 1.464s-2.591-0.52-3.536-1.464c-0.944-0.944-1.464-2.2-1.464-3.536s0.52-2.591 1.464-3.536c0.45-0.45 0.97-0.803 1.536-1.050v-2.124c-2.891 0.861-5 3.539-5 6.71 0 3.866 3.134 7 7 7s7-3.134 7-7c0-3.171-2.109-5.849-5-6.71zM7 0h2v8h-2z"></path>
</svg>
