<?xml version="1.0" encoding="utf-8"?>
<!-- Generated by IcoMoon.io -->
<!DOCTYPE svg PUBLIC "-//W3C//DTD SVG 1.1//EN" "http://www.w3.org/Graphics/SVG/1.1/DTD/svg11.dtd">
<svg version="1.1" xmlns="http://www.w3.org/2000/svg" xmlns:xlink="http://www.w3.org/1999/xlink" width="16" height="16" viewBox="0 0 16 16">
<path fill="#000000" d="M8 16c4.418 0 8-3.582 8-8s-3.582-8-8-8-8 3.582-8 8 3.582 8 8 8zM8 1.5c3.59 0 6.5 2.91 6.5 6.5s-2.91 6.5-6.5 6.5-6.5-2.91-6.5-6.5 2.91-6.5 6.5-6.5zM8 9.356c1.812 0 3.535-0.481 5-1.327-0.228 2.788-2.393 4.971-5 4.971s-4.772-2.186-5-4.973c1.465 0.845 3.188 1.329 5 1.329zM4 5.5c0-0.828 0.448-1.5 1-1.5s1 0.672 1 1.5c0 0.828-0.448 1.5-1 1.5s-1-0.672-1-1.5zM10 5.5c0-0.828 0.448-1.5 1-1.5s1 0.672 1 1.5c0 0.828-0.448 1.5-1 1.5s-1-0.672-1-1.5z"></path>
</svg>
