<?xml version="1.0" encoding="utf-8"?>
<!-- Generated by IcoMoon.io -->
<!DOCTYPE svg PUBLIC "-//W3C//DTD SVG 1.1//EN" "http://www.w3.org/Graphics/SVG/1.1/DTD/svg11.dtd">
<svg version="1.1" xmlns="http://www.w3.org/2000/svg" xmlns:xlink="http://www.w3.org/1999/xlink" width="16" height="16" viewBox="0 0 16 16">
<path fill="#000000" d="M8 16c4.418 0 8-3.582 8-8s-3.582-8-8-8-8 3.582-8 8 3.582 8 8 8zM8 1.5c3.59 0 6.5 2.91 6.5 6.5s-2.91 6.5-6.5 6.5-6.5-2.91-6.5-6.5 2.91-6.5 6.5-6.5zM4 5c0-0.552 0.448-1 1-1s1 0.448 1 1-0.448 1-1 1-1-0.448-1-1zM10 5c0-0.552 0.448-1 1-1s1 0.448 1 1-0.448 1-1 1-1-0.448-1-1z"></path>
<path fill="#000000" d="M10.561 8.439c-0.586-0.586-1.536-0.586-2.121 0s-0.586 1.536 0 2.121c0.019 0.019 0.038 0.037 0.058 0.055 1.352 1.227 4.503-0.029 4.503-1.615-0.969 0.625-1.726 0.153-2.439-0.561z"></path>
<path fill="#000000" d="M5.439 8.439c0.586-0.586 1.536-0.586 2.121 0s0.586 1.536 0 2.121c-0.019 0.019-0.038 0.037-0.058 0.055-1.352 1.227-4.503-0.029-4.503-1.615 0.969 0.625 1.726 0.153 2.439-0.561z"></path>
</svg>
