<?xml version="1.0" encoding="utf-8"?>
<!-- Generated by IcoMoon.io -->
<!DOCTYPE svg PUBLIC "-//W3C//DTD SVG 1.1//EN" "http://www.w3.org/Graphics/SVG/1.1/DTD/svg11.dtd">
<svg version="1.1" xmlns="http://www.w3.org/2000/svg" xmlns:xlink="http://www.w3.org/1999/xlink" width="16" height="16" viewBox="0 0 16 16">
<path fill="#000000" d="M8 0c-4.418 0-8 3.582-8 8s3.582 8 8 8 8-3.582 8-8-3.582-8-8-8zM4.854 5.166c-0.195 0.195-0.512 0.195-0.707 0s-0.195-0.512 0-0.707c0.696-0.696 2.011-0.696 2.707 0 0.195 0.195 0.195 0.512 0 0.707-0.098 0.098-0.226 0.146-0.354 0.146s-0.256-0.049-0.354-0.146c-0.302-0.302-0.991-0.302-1.293 0zM8 13c-1.105 0-2-1.119-2-2.5s0.895-2.5 2-2.5 2 1.119 2 2.5-0.895 2.5-2 2.5zM11.854 5.166c-0.098 0.098-0.226 0.146-0.354 0.146s-0.256-0.049-0.354-0.146c-0.302-0.302-0.991-0.302-1.293 0-0.195 0.195-0.512 0.195-0.707 0s-0.195-0.512 0-0.707c0.696-0.696 2.011-0.696 2.707 0 0.195 0.195 0.195 0.512 0 0.707z"></path>
</svg>
