<?xml version="1.0" encoding="utf-8"?>
<!-- Generated by IcoMoon.io -->
<!DOCTYPE svg PUBLIC "-//W3C//DTD SVG 1.1//EN" "http://www.w3.org/Graphics/SVG/1.1/DTD/svg11.dtd">
<svg version="1.1" xmlns="http://www.w3.org/2000/svg" xmlns:xlink="http://www.w3.org/1999/xlink" width="16" height="16" viewBox="0 0 16 16">
<path fill="#000000" d="M12 11h-1.586l-2.5-2.5 2.5-2.5h1.586v2.5l3.5-3.5-3.5-3.5v2.5h-2c-0.265 0-0.52 0.105-0.707 0.293l-2.793 2.793-2.793-2.793c-0.188-0.188-0.442-0.293-0.707-0.293h-3v2h2.586l2.5 2.5-2.5 2.5h-2.586v2h3c0.265 0 0.52-0.105 0.707-0.293l2.793-2.793 2.793 2.793c0.188 0.188 0.442 0.293 0.707 0.293h2v2.5l3.5-3.5-3.5-3.5v2.5z"></path>
</svg>
