<?xml version="1.0" encoding="utf-8"?>
<!-- Generated by IcoMoon.io -->
<!DOCTYPE svg PUBLIC "-//W3C//DTD SVG 1.1//EN" "http://www.w3.org/Graphics/SVG/1.1/DTD/svg11.dtd">
<svg version="1.1" xmlns="http://www.w3.org/2000/svg" xmlns:xlink="http://www.w3.org/1999/xlink" width="16" height="16" viewBox="0 0 16 16">
<path fill="#000000" d="M5 12v-12h-2v12h-2.5l3.5 3.5 3.5-3.5h-2.5z"></path>
<path fill="#000000" d="M13.5 7c-0.276 0-0.5-0.224-0.5-0.5v-5.5h-0.5c-0.276 0-0.5-0.224-0.5-0.5s0.224-0.5 0.5-0.5h1c0.276 0 0.5 0.224 0.5 0.5v6c0 0.276-0.224 0.5-0.5 0.5z"></path>
<path fill="#000000" d="M14.5 9h-3c-0.276 0-0.5 0.224-0.5 0.5v3c0 0.276 0.224 0.5 0.5 0.5h2.5v2h-2.5c-0.276 0-0.5 0.224-0.5 0.5s0.224 0.5 0.5 0.5h3c0.276 0 0.5-0.224 0.5-0.5v-6c0-0.276-0.224-0.5-0.5-0.5zM12 10h2v2h-2v-2z"></path>
</svg>
