<?xml version="1.0" encoding="utf-8"?>
<!-- Generated by IcoMoon.io -->
<!DOCTYPE svg PUBLIC "-//W3C//DTD SVG 1.1//EN" "http://www.w3.org/Graphics/SVG/1.1/DTD/svg11.dtd">
<svg version="1.1" xmlns="http://www.w3.org/2000/svg" xmlns:xlink="http://www.w3.org/1999/xlink" width="16" height="16" viewBox="0 0 16 16">
<path fill="#000000" d="M12.494 0.253c-1.414 0-2.322-0.253-3.779-0.253-4.708 0-6.903 2.681-6.903 5.404 0 1.604 0.76 2.132 2.259 2.132-0.106-0.232-0.296-0.486-0.296-1.626 0-3.188 1.203-4.117 2.744-4.18 0 0-1.264 12.396-4.934 13.883v0.385h4.947l1.688-8h3.091l0.689-2h-3.358l0.812-3.847c0.929 0.19 1.837 0.38 2.618 0.38 0.971 0 1.858-0.296 2.343-2.533-0.591 0.19-1.224 0.253-1.921 0.253z"></path>
</svg>
