<?xml version="1.0" encoding="utf-8"?>
<!-- Generated by IcoMoon.io -->
<!DOCTYPE svg PUBLIC "-//W3C//DTD SVG 1.1//EN" "http://www.w3.org/Graphics/SVG/1.1/DTD/svg11.dtd">
<svg version="1.1" xmlns="http://www.w3.org/2000/svg" xmlns:xlink="http://www.w3.org/1999/xlink" width="16" height="16" viewBox="0 0 16 16">
<path fill="#000000" d="M6 3h2v1h-2zM9 3h2v1h-2zM14 3v4h-3v-1h2v-2h-1v-1zM5 6h2v1h-2zM8 6h2v1h-2zM3 4v2h1v1h-2v-4h3v1zM6 9h2v1h-2zM9 9h2v1h-2zM14 9v4h-3v-1h2v-2h-1v-1zM5 12h2v1h-2zM8 12h2v1h-2zM3 10v2h1v1h-2v-4h3v1zM15 1h-14v14h14v-14zM16 0v0 16h-16v-16h16z"></path>
</svg>
