<?xml version="1.0" encoding="utf-8"?>
<!-- Generated by IcoMoon.io -->
<!DOCTYPE svg PUBLIC "-//W3C//DTD SVG 1.1//EN" "http://www.w3.org/Graphics/SVG/1.1/DTD/svg11.dtd">
<svg version="1.1" xmlns="http://www.w3.org/2000/svg" xmlns:xlink="http://www.w3.org/1999/xlink" width="16" height="16" viewBox="0 0 16 16">
<path fill="#000000" d="M14.966 6h-0.897c-0.549 0-1.031-0.465-1.069-1v0c0-2.854-2.301-5-5.175-5h-2.622c-2.872 0-5.201 2.313-5.203 5.167v5.669c0 2.854 2.331 5.165 5.203 5.165h5.6c2.874 0 5.197-2.311 5.197-5.165v-3.662c0-0.57-0.46-1.173-1.034-1.173zM5 4h3c0.55 0 1 0.45 1 1s-0.45 1-1 1h-3c-0.55 0-1-0.45-1-1s0.45-1 1-1zM11 12h-6c-0.55 0-1-0.45-1-1s0.45-1 1-1h6c0.55 0 1 0.45 1 1s-0.45 1-1 1z"></path>
</svg>
