<?xml version="1.0" encoding="utf-8"?>
<!-- Generated by IcoMoon.io -->
<!DOCTYPE svg PUBLIC "-//W3C//DTD SVG 1.1//EN" "http://www.w3.org/Graphics/SVG/1.1/DTD/svg11.dtd">
<svg version="1.1" xmlns="http://www.w3.org/2000/svg" xmlns:xlink="http://www.w3.org/1999/xlink" width="16" height="16" viewBox="0 0 16 16">
<path fill="#000000" d="M8.878 9.203v0c1.759-3.088 4.666-8.125 5.463-9.203-0.35 0.234-0.887 0.353-1.381 0.466l-0.747-0.466c-0.6 1.119-2.813 4.734-4.222 7.050-1.428-2.366-3.119-5.097-4.222-7.050-0.875 0.188-1.237 0.197-2.109 0v0 0c0 0 0 0 0 0v0c1.731 2.606 4.503 7.572 5.447 9.203v0l-0.128 6.797 1.013-0.466v-0.012l1.012 0.478-0.125-6.797z"></path>
</svg>
