<?xml version="1.0" encoding="utf-8"?>
<!-- Generator: Adobe Illustrator 15.0.0, SVG Export Plug-In . SVG Version: 6.00 Build 0)  -->
<!DOCTYPE svg PUBLIC "-//W3C//DTD SVG 1.1//EN" "http://www.w3.org/Graphics/SVG/1.1/DTD/svg11.dtd">
<svg version="1.1" id="Layer_1" xmlns="http://www.w3.org/2000/svg" xmlns:xlink="http://www.w3.org/1999/xlink" x="0px" y="0px"
	 width="512px" height="512px" viewBox="0 0 512 512" enable-background="new 0 0 512 512" xml:space="preserve">
<g id="Grid_1_">
	<g id="Layer_1_1_">
		<g id="Grid">
			<g>
				<rect x="0" fill="none" stroke="#A9CCDB" stroke-miterlimit="10" width="512" height="512"/>
				<line fill="none" stroke="#A9CCDB" stroke-miterlimit="10" x1="0" y1="480" x2="512" y2="480"/>
				<line fill="none" stroke="#A9CCDB" stroke-miterlimit="10" x1="0" y1="448" x2="512" y2="448"/>
				<line fill="none" stroke="#A9CCDB" stroke-miterlimit="10" x1="0" y1="416" x2="512" y2="416"/>
				<line fill="none" stroke="#A9CCDB" stroke-miterlimit="10" x1="0" y1="384" x2="512" y2="384"/>
				<line fill="none" stroke="#A9CCDB" stroke-miterlimit="10" x1="0" y1="352" x2="512" y2="352"/>
				<line fill="none" stroke="#A9CCDB" stroke-miterlimit="10" x1="0" y1="320" x2="512" y2="320"/>
				<line fill="none" stroke="#A9CCDB" stroke-miterlimit="10" x1="0" y1="288" x2="512" y2="288"/>
				<line fill="none" stroke="#A9CCDB" stroke-miterlimit="10" x1="0" y1="256" x2="512" y2="256"/>
				<line fill="none" stroke="#A9CCDB" stroke-miterlimit="10" x1="0" y1="224" x2="512" y2="224"/>
				<line fill="none" stroke="#A9CCDB" stroke-miterlimit="10" x1="0" y1="192" x2="512" y2="192"/>
				<line fill="none" stroke="#A9CCDB" stroke-miterlimit="10" x1="0" y1="160" x2="512" y2="160"/>
				<line fill="none" stroke="#A9CCDB" stroke-miterlimit="10" x1="0" y1="128" x2="512" y2="128"/>
				<line fill="none" stroke="#A9CCDB" stroke-miterlimit="10" x1="0" y1="96" x2="512" y2="96"/>
				<line fill="none" stroke="#A9CCDB" stroke-miterlimit="10" x1="0" y1="64" x2="512" y2="64"/>
				<line fill="none" stroke="#A9CCDB" stroke-miterlimit="10" x1="0" y1="32" x2="512" y2="32"/>
				<line fill="none" stroke="#A9CCDB" stroke-miterlimit="10" x1="480" y1="0" x2="480" y2="512"/>
				<line fill="none" stroke="#A9CCDB" stroke-miterlimit="10" x1="448" y1="0" x2="448" y2="512"/>
				<line fill="none" stroke="#A9CCDB" stroke-miterlimit="10" x1="416" y1="0" x2="416" y2="512"/>
				<line fill="none" stroke="#A9CCDB" stroke-miterlimit="10" x1="384" y1="0" x2="384" y2="512"/>
				<line fill="none" stroke="#A9CCDB" stroke-miterlimit="10" x1="352" y1="0" x2="352" y2="512"/>
				<line fill="none" stroke="#A9CCDB" stroke-miterlimit="10" x1="320" y1="0" x2="320" y2="512"/>
				<line fill="none" stroke="#A9CCDB" stroke-miterlimit="10" x1="288" y1="0" x2="288" y2="512"/>
				<line fill="none" stroke="#A9CCDB" stroke-miterlimit="10" x1="256" y1="0" x2="256" y2="512"/>
				<line fill="none" stroke="#A9CCDB" stroke-miterlimit="10" x1="224" y1="0" x2="224" y2="512"/>
				<line fill="none" stroke="#A9CCDB" stroke-miterlimit="10" x1="192" y1="0" x2="192" y2="512"/>
				<line fill="none" stroke="#A9CCDB" stroke-miterlimit="10" x1="160" y1="0" x2="160" y2="512"/>
				<line fill="none" stroke="#A9CCDB" stroke-miterlimit="10" x1="128" y1="0" x2="128" y2="512"/>
				<line fill="none" stroke="#A9CCDB" stroke-miterlimit="10" x1="96" y1="0" x2="96" y2="512"/>
				<line fill="none" stroke="#A9CCDB" stroke-miterlimit="10" x1="64" y1="0" x2="64" y2="512"/>
				<line fill="none" stroke="#A9CCDB" stroke-miterlimit="10" x1="32" y1="0" x2="32" y2="512"/>
			</g>
		</g>
	</g>
</g>
<g>
	<path d="M454.655,352.762c-62.828,26.668-131.154,39.521-193.27,39.521c-92.1,0-181.261-25.24-253.37-67.197
		c-6.297-3.691-11,2.771-5.753,7.521c66.818,60.353,155.136,96.638,253.243,96.638c69.969,0,151.232-22.052,207.298-63.375
		C472.084,358.977,464.147,348.73,454.655,352.762z"/>
	<path d="M510.049,320.969c-6.129-7.559-58.711-14.068-90.756,8.484c-4.956,3.443-4.113,8.23,1.387,7.561
		c18.059-2.145,58.291-6.973,65.431,2.186c7.188,9.195-7.978,47.033-14.738,63.918c-2.059,5.122,2.353,7.182,6.973,3.316
		C508.45,381.277,516.182,328.572,510.049,320.969z"/>
	<path d="M269.739,174.456c-24.436,2.787-56.403,4.565-79.298,14.646c-26.394,11.39-44.96,34.698-44.96,68.923
		c0,43.832,27.641,65.717,63.109,65.717c30.011,0,46.381-7.061,69.511-30.666c7.71,11.094,10.203,16.492,24.197,28.115
		c3.146,1.658,7.179,1.479,9.965-1.01l0.119,0.117c8.423-7.475,23.726-20.814,32.32-27.996c3.442-2.848,2.851-7.408,0.119-11.209
		c-7.709-10.678-15.895-19.334-15.895-39.086v-65.715c0-27.818,1.959-53.383-18.566-72.54
		c-16.188-15.537-42.998-20.997-63.519-20.997c-40.095,0-84.874,14.948-94.307,64.533c-0.948,5.276,2.847,8.063,6.286,8.837
		l40.928,4.39c3.795-0.18,6.583-3.916,7.296-7.711c3.499-17.082,17.853-25.326,33.925-25.326c8.66,0,18.502,3.203,23.667,10.975
		c5.869,8.658,5.1,20.521,5.1,30.546L269.739,174.456L269.739,174.456z M261.851,262.117c-6.702,11.863-17.322,19.158-29.18,19.158
		c-16.192,0-25.622-12.338-25.622-30.548c0-35.938,32.204-42.464,62.689-42.464v9.133
		C269.739,233.827,270.156,247.527,261.851,262.117z"/>
</g>
</svg>
