<?xml version="1.0" encoding="utf-8"?> <!-- Generator: IcoMoon --> <!DOCTYPE svg PUBLIC "-//W3C//DTD SVG 1.1//EN" "http://www.w3.org/Graphics/SVG/1.1/DTD/svg11.dtd"> <svg width="512" height="512" viewBox="0 0 512 512" data-tags="android, os, mobile" fill="#000000"><g class="svgGrid" id="svgGrid"><line stroke-width="1" stroke="#B35047" x1="32" x2="32" y1="0" y2="512"></line><line stroke-width="1" stroke="#B35047" x1="64" x2="64" y1="0" y2="512"></line><line stroke-width="1" stroke="#B35047" x1="96" x2="96" y1="0" y2="512"></line><line stroke-width="1" stroke="#B35047" x1="128" x2="128" y1="0" y2="512"></line><line stroke-width="1" stroke="#B35047" x1="160" x2="160" y1="0" y2="512"></line><line stroke-width="1" stroke="#B35047" x1="192" x2="192" y1="0" y2="512"></line><line stroke-width="1" stroke="#B35047" x1="224" x2="224" y1="0" y2="512"></line><line stroke-width="1" stroke="#B35047" x1="256" x2="256" y1="0" y2="512"></line><line stroke-width="1" stroke="#B35047" x1="288" x2="288" y1="0" y2="512"></line><line stroke-width="1" stroke="#B35047" x1="320" x2="320" y1="0" y2="512"></line><line stroke-width="1" stroke="#B35047" x1="352" x2="352" y1="0" y2="512"></line><line stroke-width="1" stroke="#B35047" x1="384" x2="384" y1="0" y2="512"></line><line stroke-width="1" stroke="#B35047" x1="416" x2="416" y1="0" y2="512"></line><line stroke-width="1" stroke="#B35047" x1="448" x2="448" y1="0" y2="512"></line><line stroke-width="1" stroke="#B35047" x1="480" x2="480" y1="0" y2="512"></line><line stroke-width="1" stroke="#B35047" x1="0" x2="512" y1="32" y2="32"></line><line stroke-width="1" stroke="#B35047" x1="0" x2="512" y1="64" y2="64"></line><line stroke-width="1" stroke="#B35047" x1="0" x2="512" y1="96" y2="96"></line><line stroke-width="1" stroke="#B35047" x1="0" x2="512" y1="128" y2="128"></line><line stroke-width="1" stroke="#B35047" x1="0" x2="512" y1="160" y2="160"></line><line stroke-width="1" stroke="#B35047" x1="0" x2="512" y1="192" y2="192"></line><line stroke-width="1" stroke="#B35047" x1="0" x2="512" y1="224" y2="224"></line><line stroke-width="1" stroke="#B35047" x1="0" x2="512" y1="256" y2="256"></line><line stroke-width="1" stroke="#B35047" x1="0" x2="512" y1="288" y2="288"></line><line stroke-width="1" stroke="#B35047" x1="0" x2="512" y1="320" y2="320"></line><line stroke-width="1" stroke="#B35047" x1="0" x2="512" y1="352" y2="352"></line><line stroke-width="1" stroke="#B35047" x1="0" x2="512" y1="384" y2="384"></line><line stroke-width="1" stroke="#B35047" x1="0" x2="512" y1="416" y2="416"></line><line stroke-width="1" stroke="#B35047" x1="0" x2="512" y1="448" y2="448"></line><line stroke-width="1" stroke="#B35047" x1="0" x2="512" y1="480" y2="480"></line><rect x="0" y="0" width="512" height="512" fill="none" stroke-width="1" stroke="#B35047"></rect></g><path d="M 432.00,160.00c-17.60,0.00-32.00,14.40-32.00,32.00l0.00,128.00 c0.00,17.60, 14.40,32.00, 32.00,32.00s 32.00-14.40, 32.00-32.00L 464.00,192.00 C 464.00,174.40, 449.60,160.00, 432.00,160.00zM 48.00,160.00c-17.60,0.00-32.00,14.40-32.00,32.00l0.00,128.00 c0.00,17.60, 14.40,32.00, 32.00,32.00s 32.00-14.40, 32.00-32.00L 80.00,192.00 C 80.00,174.40, 65.599,160.00, 48.00,160.00zM 96.00,368.00c0.00,26.51, 21.49,48.00, 48.00,48.00l 16.00,0.00 l0.00,64.00 c0.00,17.60, 14.40,32.00, 32.00,32.00s 32.00-14.40, 32.00-32.00l0.00-64.00 l 32.00,0.00 l0.00,64.00 c0.00,17.60, 14.401,32.00, 32.00,32.00s 32.00-14.40, 32.00-32.00 l0.00-64.00 l 16.00,0.00 c 26.51,0.00, 48.00-21.49, 48.00-48.00L 384.00,192.00 L 96.00,192.00 L 96.00,368.00 zM 299.299,44.747l 20.252-38.903c 1.016-1.951, 0.25-4.379-1.701-5.395s-4.379-0.25-5.395,1.701l-20.559,39.493 C 275.797,35.419, 258.299,32.00, 240.00,32.00c-18.298,0.00-35.796,3.419-51.898,9.643L 167.544,2.151c-1.016-1.951-3.443-2.717-5.395-1.701 s-2.717,3.443-1.701,5.395l 20.25,38.904c-45.315,20.509-78.12,63.792-83.81,115.252l 286.22,0.00 C 377.42,108.539, 344.615,65.257, 299.299,44.747z M 176.00,135.20c-12.813,0.00-23.20-10.387-23.20-23.20c0.00-12.813, 10.387-23.20, 23.20-23.20 s 23.20,10.387, 23.20,23.20C 199.199,124.813, 188.813,135.20, 176.00,135.20z M 304.00,135.20c-12.813,0.00-23.201-10.387-23.201-23.20 c0.00-12.813, 10.389-23.20, 23.201-23.20s 23.199,10.387, 23.199,23.20C 327.199,124.813, 316.813,135.20, 304.00,135.20z" ></path></svg>