<?xml version="1.0" encoding="utf-8"?> <!-- Generator: IcoMoon --> <!DOCTYPE svg PUBLIC "-//W3C//DTD SVG 1.1//EN" "http://www.w3.org/Graphics/SVG/1.1/DTD/svg11.dtd"> <svg width="512" height="512" viewBox="0 0 512 512" data-tags="basket, cart, ecommerce, shopping, products, purchase, buy, store" fill="#000000"><g class="svgGrid" id="svgGrid"><line stroke-width="1" stroke="#B35047" x1="32" x2="32" y1="0" y2="512"></line><line stroke-width="1" stroke="#B35047" x1="64" x2="64" y1="0" y2="512"></line><line stroke-width="1" stroke="#B35047" x1="96" x2="96" y1="0" y2="512"></line><line stroke-width="1" stroke="#B35047" x1="128" x2="128" y1="0" y2="512"></line><line stroke-width="1" stroke="#B35047" x1="160" x2="160" y1="0" y2="512"></line><line stroke-width="1" stroke="#B35047" x1="192" x2="192" y1="0" y2="512"></line><line stroke-width="1" stroke="#B35047" x1="224" x2="224" y1="0" y2="512"></line><line stroke-width="1" stroke="#B35047" x1="256" x2="256" y1="0" y2="512"></line><line stroke-width="1" stroke="#B35047" x1="288" x2="288" y1="0" y2="512"></line><line stroke-width="1" stroke="#B35047" x1="320" x2="320" y1="0" y2="512"></line><line stroke-width="1" stroke="#B35047" x1="352" x2="352" y1="0" y2="512"></line><line stroke-width="1" stroke="#B35047" x1="384" x2="384" y1="0" y2="512"></line><line stroke-width="1" stroke="#B35047" x1="416" x2="416" y1="0" y2="512"></line><line stroke-width="1" stroke="#B35047" x1="448" x2="448" y1="0" y2="512"></line><line stroke-width="1" stroke="#B35047" x1="480" x2="480" y1="0" y2="512"></line><line stroke-width="1" stroke="#B35047" x1="0" x2="512" y1="32" y2="32"></line><line stroke-width="1" stroke="#B35047" x1="0" x2="512" y1="64" y2="64"></line><line stroke-width="1" stroke="#B35047" x1="0" x2="512" y1="96" y2="96"></line><line stroke-width="1" stroke="#B35047" x1="0" x2="512" y1="128" y2="128"></line><line stroke-width="1" stroke="#B35047" x1="0" x2="512" y1="160" y2="160"></line><line stroke-width="1" stroke="#B35047" x1="0" x2="512" y1="192" y2="192"></line><line stroke-width="1" stroke="#B35047" x1="0" x2="512" y1="224" y2="224"></line><line stroke-width="1" stroke="#B35047" x1="0" x2="512" y1="256" y2="256"></line><line stroke-width="1" stroke="#B35047" x1="0" x2="512" y1="288" y2="288"></line><line stroke-width="1" stroke="#B35047" x1="0" x2="512" y1="320" y2="320"></line><line stroke-width="1" stroke="#B35047" x1="0" x2="512" y1="352" y2="352"></line><line stroke-width="1" stroke="#B35047" x1="0" x2="512" y1="384" y2="384"></line><line stroke-width="1" stroke="#B35047" x1="0" x2="512" y1="416" y2="416"></line><line stroke-width="1" stroke="#B35047" x1="0" x2="512" y1="448" y2="448"></line><line stroke-width="1" stroke="#B35047" x1="0" x2="512" y1="480" y2="480"></line><rect x="0" y="0" width="512" height="512" fill="none" stroke-width="1" stroke="#B35047"></rect></g><path d="M 406.494,192.00L 317.573,76.235C 319.134,72.465, 320.00,68.334, 320.00,64.00c0.00-17.673-14.326-32.00-32.00-32.00c-17.673,0.00-32.00,14.327-32.00,32.00 s 14.327,32.00, 32.00,32.00c 1.421,0.00, 2.816-0.102, 4.188-0.282L 366.144,192.00L 145.857,192.00 l 73.956-96.282C 221.184,95.898, 222.58,96.00, 224.00,96.00 c 17.673,0.00, 32.00-14.327, 32.00-32.00s-14.327-32.00-32.00-32.00s-32.00,14.327-32.00,32.00c0.00,4.334, 0.866,8.465, 2.427,12.234L 105.506,192.00L0.00,192.00 l0.00,64.00 l 32.00,0.00 l 32.00,256.00l 384.00,0.00 l 32.00-256.00l 32.00,0.00 l0.00-64.00 L 406.494,192.00 z M 160.00,448.00L 96.00,448.00 l0.00-64.00 l 64.00,0.00 L 160.00,448.00 z M 160.00,320.00L 96.00,320.00 l0.00-64.00 l 64.00,0.00 L 160.00,320.00 z M 288.00,448.00l-64.00,0.00 l0.00-64.00 l 64.00,0.00 L 288.00,448.00 z M 288.00,320.00l-64.00,0.00 l0.00-64.00 l 64.00,0.00 L 288.00,320.00 z M 416.00,448.00l-64.00,0.00 l0.00-64.00 l 64.00,0.00 L 416.00,448.00 z M 416.00,320.00l-64.00,0.00 l0.00-64.00 l 64.00,0.00 L 416.00,320.00 z" ></path></svg>