<?xml version="1.0" encoding="utf-8"?> <!-- Generator: IcoMoon.io --> <!DOCTYPE svg PUBLIC "-//W3C//DTD SVG 1.1//EN" "http://www.w3.org/Graphics/SVG/1.1/DTD/svg11.dtd"> <svg width="512" height="512" viewBox="0 0 512 512" xmlns="http://www.w3.org/2000/svg" xmlns:xlink="http://www.w3.org/1999/xlink" fill="#000000"><g class="svgGrid" id="svgGrid"><line stroke-width="1" stroke="#B35047" x1="32" x2="32" y1="0" y2="512"></line><line stroke-width="1" stroke="#B35047" x1="64" x2="64" y1="0" y2="512"></line><line stroke-width="1" stroke="#B35047" x1="96" x2="96" y1="0" y2="512"></line><line stroke-width="1" stroke="#B35047" x1="128" x2="128" y1="0" y2="512"></line><line stroke-width="1" stroke="#B35047" x1="160" x2="160" y1="0" y2="512"></line><line stroke-width="1" stroke="#B35047" x1="192" x2="192" y1="0" y2="512"></line><line stroke-width="1" stroke="#B35047" x1="224" x2="224" y1="0" y2="512"></line><line stroke-width="1" stroke="#B35047" x1="256" x2="256" y1="0" y2="512"></line><line stroke-width="1" stroke="#B35047" x1="288" x2="288" y1="0" y2="512"></line><line stroke-width="1" stroke="#B35047" x1="320" x2="320" y1="0" y2="512"></line><line stroke-width="1" stroke="#B35047" x1="352" x2="352" y1="0" y2="512"></line><line stroke-width="1" stroke="#B35047" x1="384" x2="384" y1="0" y2="512"></line><line stroke-width="1" stroke="#B35047" x1="416" x2="416" y1="0" y2="512"></line><line stroke-width="1" stroke="#B35047" x1="448" x2="448" y1="0" y2="512"></line><line stroke-width="1" stroke="#B35047" x1="480" x2="480" y1="0" y2="512"></line><line stroke-width="1" stroke="#B35047" x1="0" x2="512" y1="32" y2="32"></line><line stroke-width="1" stroke="#B35047" x1="0" x2="512" y1="64" y2="64"></line><line stroke-width="1" stroke="#B35047" x1="0" x2="512" y1="96" y2="96"></line><line stroke-width="1" stroke="#B35047" x1="0" x2="512" y1="128" y2="128"></line><line stroke-width="1" stroke="#B35047" x1="0" x2="512" y1="160" y2="160"></line><line stroke-width="1" stroke="#B35047" x1="0" x2="512" y1="192" y2="192"></line><line stroke-width="1" stroke="#B35047" x1="0" x2="512" y1="224" y2="224"></line><line stroke-width="1" stroke="#B35047" x1="0" x2="512" y1="256" y2="256"></line><line stroke-width="1" stroke="#B35047" x1="0" x2="512" y1="288" y2="288"></line><line stroke-width="1" stroke="#B35047" x1="0" x2="512" y1="320" y2="320"></line><line stroke-width="1" stroke="#B35047" x1="0" x2="512" y1="352" y2="352"></line><line stroke-width="1" stroke="#B35047" x1="0" x2="512" y1="384" y2="384"></line><line stroke-width="1" stroke="#B35047" x1="0" x2="512" y1="416" y2="416"></line><line stroke-width="1" stroke="#B35047" x1="0" x2="512" y1="448" y2="448"></line><line stroke-width="1" stroke="#B35047" x1="0" x2="512" y1="480" y2="480"></line><rect x="0" y="0" width="512" height="512" fill="none" stroke-width="1" stroke="#B35047"></rect></g><path d="M 512.75,400.00c0.00-144.00-128.00-112.00-128.00-224.00c0.00-9.28-0.894-17.21-2.524-23.964c-8.415-56.509-46.078-101.86-94.886-115.68 c 0.433-1.974, 0.66-4.016, 0.66-6.105C 288.00,13.612, 273.60,0.00, 256.00,0.00c-17.60,0.00-32.00,13.612-32.00,30.25c0.00,2.09, 0.228,4.132, 0.66,6.105 c-54.735,15.499-95.457,70.649-96.627,136.721c-0.02,0.96-0.033,1.932-0.033,2.923C 128.00,288.00,0.00,256.00,0.00,400.00 c0.00,38.113, 85.295,69.998, 199.485,78.04C 210.247,498.242, 231.513,512.00, 256.00,512.00s 45.754-13.758, 56.515-33.96 C 426.705,469.998, 512.00,438.113, 512.00,400.00c0.00-0.114-0.013-0.228-0.014-0.341L 512.75,400.00z M 413.123,427.048 c-27.115,7.235-59.079,12.438-93.384,15.324C 316.887,409.663, 289.448,384.00, 256.00,384.00s-60.887,25.663-63.739,58.372 c-34.304-2.886-66.269-8.089-93.384-15.324C 61.562,417.091, 43.722,405.953, 37.193,400.00c 6.529-5.953, 24.369-17.091, 61.684-27.048 C 142.263,361.376, 198.063,355.00, 256.00,355.00s 113.737,6.376, 157.123,17.952c 37.315,9.957, 55.155,21.095, 61.684,27.048 C 468.278,405.953, 450.438,417.091, 413.123,427.048z" ></path></svg>