<?xml version="1.0" encoding="utf-8"?> <!-- Generator: IcoMoon.io --> <!DOCTYPE svg PUBLIC "-//W3C//DTD SVG 1.1//EN" "http://www.w3.org/Graphics/SVG/1.1/DTD/svg11.dtd"> <svg width="512" height="512" viewBox="0 0 512 512" xmlns="http://www.w3.org/2000/svg" xmlns:xlink="http://www.w3.org/1999/xlink" fill="#000000"><g class="svgGrid" id="svgGrid"><line stroke-width="1" stroke="#B35047" x1="32" x2="32" y1="0" y2="512"></line><line stroke-width="1" stroke="#B35047" x1="64" x2="64" y1="0" y2="512"></line><line stroke-width="1" stroke="#B35047" x1="96" x2="96" y1="0" y2="512"></line><line stroke-width="1" stroke="#B35047" x1="128" x2="128" y1="0" y2="512"></line><line stroke-width="1" stroke="#B35047" x1="160" x2="160" y1="0" y2="512"></line><line stroke-width="1" stroke="#B35047" x1="192" x2="192" y1="0" y2="512"></line><line stroke-width="1" stroke="#B35047" x1="224" x2="224" y1="0" y2="512"></line><line stroke-width="1" stroke="#B35047" x1="256" x2="256" y1="0" y2="512"></line><line stroke-width="1" stroke="#B35047" x1="288" x2="288" y1="0" y2="512"></line><line stroke-width="1" stroke="#B35047" x1="320" x2="320" y1="0" y2="512"></line><line stroke-width="1" stroke="#B35047" x1="352" x2="352" y1="0" y2="512"></line><line stroke-width="1" stroke="#B35047" x1="384" x2="384" y1="0" y2="512"></line><line stroke-width="1" stroke="#B35047" x1="416" x2="416" y1="0" y2="512"></line><line stroke-width="1" stroke="#B35047" x1="448" x2="448" y1="0" y2="512"></line><line stroke-width="1" stroke="#B35047" x1="480" x2="480" y1="0" y2="512"></line><line stroke-width="1" stroke="#B35047" x1="0" x2="512" y1="32" y2="32"></line><line stroke-width="1" stroke="#B35047" x1="0" x2="512" y1="64" y2="64"></line><line stroke-width="1" stroke="#B35047" x1="0" x2="512" y1="96" y2="96"></line><line stroke-width="1" stroke="#B35047" x1="0" x2="512" y1="128" y2="128"></line><line stroke-width="1" stroke="#B35047" x1="0" x2="512" y1="160" y2="160"></line><line stroke-width="1" stroke="#B35047" x1="0" x2="512" y1="192" y2="192"></line><line stroke-width="1" stroke="#B35047" x1="0" x2="512" y1="224" y2="224"></line><line stroke-width="1" stroke="#B35047" x1="0" x2="512" y1="256" y2="256"></line><line stroke-width="1" stroke="#B35047" x1="0" x2="512" y1="288" y2="288"></line><line stroke-width="1" stroke="#B35047" x1="0" x2="512" y1="320" y2="320"></line><line stroke-width="1" stroke="#B35047" x1="0" x2="512" y1="352" y2="352"></line><line stroke-width="1" stroke="#B35047" x1="0" x2="512" y1="384" y2="384"></line><line stroke-width="1" stroke="#B35047" x1="0" x2="512" y1="416" y2="416"></line><line stroke-width="1" stroke="#B35047" x1="0" x2="512" y1="448" y2="448"></line><line stroke-width="1" stroke="#B35047" x1="0" x2="512" y1="480" y2="480"></line><rect x="0" y="0" width="512" height="512" fill="none" stroke-width="1" stroke="#B35047"></rect></g><path d="M 32.00,0.00L 224.00,0.00L 224.00,32.00L 32.00,32.00zM 288.00,0.00L 480.00,0.00L 480.00,32.00L 288.00,32.00zM 476.00,160.00l-28.00,0.00 L 448.00,32.00 L 320.00,32.00 l0.00,128.00 L 192.00,160.00 L 192.00,32.00 L 64.00,32.00 l0.00,128.00 L 36.00,160.00 c-19.80,0.00-36.00,16.20-36.00,36.00l0.00,280.00 c0.00,19.80, 16.20,36.00, 36.00,36.00l 152.00,0.00 c 19.80,0.00, 36.00-16.20, 36.00-36.00L 224.00,288.00 l 64.00,0.00 l0.00,188.00 c0.00,19.80, 16.20,36.00, 36.00,36.00l 152.00,0.00 c 19.80,0.00, 36.00-16.20, 36.00-36.00L 512.00,196.00 C 512.00,176.20, 495.80,160.00, 476.00,160.00z M 174.00,480.00L 50.00,480.00 c-9.90,0.00-18.00-7.20-18.00-16.00 s 8.10-16.00, 18.00-16.00l 124.00,0.00 c 9.90,0.00, 18.00,7.20, 18.00,16.00S 183.90,480.00, 174.00,480.00z M 272.00,256.00l-32.00,0.00 c-8.80,0.00-16.00-7.20-16.00-16.00s 7.20-16.00, 16.00-16.00l 32.00,0.00 c 8.80,0.00, 16.00,7.20, 16.00,16.00 S 280.80,256.00, 272.00,256.00z M 462.00,480.00L 338.00,480.00 c-9.90,0.00-18.00-7.20-18.00-16.00s 8.10-16.00, 18.00-16.00l 124.00,0.00 c 9.90,0.00, 18.00,7.20, 18.00,16.00S 471.90,480.00, 462.00,480.00z" ></path></svg>