<?xml version="1.0" encoding="utf-8"?> <!-- Generator: IcoMoon.io --> <!DOCTYPE svg PUBLIC "-//W3C//DTD SVG 1.1//EN" "http://www.w3.org/Graphics/SVG/1.1/DTD/svg11.dtd"> <svg width="512" height="512" viewBox="0 0 512 512" xmlns="http://www.w3.org/2000/svg" xmlns:xlink="http://www.w3.org/1999/xlink" fill="#000000"><g class="svgGrid" id="svgGrid"><line stroke-width="1" stroke="#B35047" x1="32" x2="32" y1="0" y2="512"></line><line stroke-width="1" stroke="#B35047" x1="64" x2="64" y1="0" y2="512"></line><line stroke-width="1" stroke="#B35047" x1="96" x2="96" y1="0" y2="512"></line><line stroke-width="1" stroke="#B35047" x1="128" x2="128" y1="0" y2="512"></line><line stroke-width="1" stroke="#B35047" x1="160" x2="160" y1="0" y2="512"></line><line stroke-width="1" stroke="#B35047" x1="192" x2="192" y1="0" y2="512"></line><line stroke-width="1" stroke="#B35047" x1="224" x2="224" y1="0" y2="512"></line><line stroke-width="1" stroke="#B35047" x1="256" x2="256" y1="0" y2="512"></line><line stroke-width="1" stroke="#B35047" x1="288" x2="288" y1="0" y2="512"></line><line stroke-width="1" stroke="#B35047" x1="320" x2="320" y1="0" y2="512"></line><line stroke-width="1" stroke="#B35047" x1="352" x2="352" y1="0" y2="512"></line><line stroke-width="1" stroke="#B35047" x1="384" x2="384" y1="0" y2="512"></line><line stroke-width="1" stroke="#B35047" x1="416" x2="416" y1="0" y2="512"></line><line stroke-width="1" stroke="#B35047" x1="448" x2="448" y1="0" y2="512"></line><line stroke-width="1" stroke="#B35047" x1="480" x2="480" y1="0" y2="512"></line><line stroke-width="1" stroke="#B35047" x1="0" x2="512" y1="32" y2="32"></line><line stroke-width="1" stroke="#B35047" x1="0" x2="512" y1="64" y2="64"></line><line stroke-width="1" stroke="#B35047" x1="0" x2="512" y1="96" y2="96"></line><line stroke-width="1" stroke="#B35047" x1="0" x2="512" y1="128" y2="128"></line><line stroke-width="1" stroke="#B35047" x1="0" x2="512" y1="160" y2="160"></line><line stroke-width="1" stroke="#B35047" x1="0" x2="512" y1="192" y2="192"></line><line stroke-width="1" stroke="#B35047" x1="0" x2="512" y1="224" y2="224"></line><line stroke-width="1" stroke="#B35047" x1="0" x2="512" y1="256" y2="256"></line><line stroke-width="1" stroke="#B35047" x1="0" x2="512" y1="288" y2="288"></line><line stroke-width="1" stroke="#B35047" x1="0" x2="512" y1="320" y2="320"></line><line stroke-width="1" stroke="#B35047" x1="0" x2="512" y1="352" y2="352"></line><line stroke-width="1" stroke="#B35047" x1="0" x2="512" y1="384" y2="384"></line><line stroke-width="1" stroke="#B35047" x1="0" x2="512" y1="416" y2="416"></line><line stroke-width="1" stroke="#B35047" x1="0" x2="512" y1="448" y2="448"></line><line stroke-width="1" stroke="#B35047" x1="0" x2="512" y1="480" y2="480"></line><rect x="0" y="0" width="512" height="512" fill="none" stroke-width="1" stroke="#B35047"></rect></g><path d="M 426.674,0.00L 85.325,0.00 C 38.202,0.00,0.00,38.209,0.00,85.341l0.00,341.318 C0.00,473.792, 38.202,512.00, 85.325,512.00l 341.348,0.00 c 47.125,0.00, 85.324-38.208, 85.324-85.341L 512.00,85.341C 512.00,38.209, 473.798,0.00, 426.674,0.00z M 448.00,324.049 C 448.00,392.544, 392.257,448.00, 323.278,448.00L 188.869,448.00 C 119.941,448.00, 64.00,392.544, 64.00,324.049L 64.00,188.00 c 0.048-68.50, 55.94-124.00, 124.869-124.00l 62.934,0.00 C 320.779,64.00, 376.002,115.50, 376.00,184.00c 0.901,12.847, 12.461,24.00, 25.646,24.00l 0.448,0.00 l 21.078,0.00 C 436.959,208.00, 448.00,222.467, 448.00,236.156L 448.00,324.049 zM 352.00,320.00c0.00,17.60-14.40,32.00-32.00,32.00L 192.00,352.00 c-17.60,0.00-32.00-14.40-32.00-32.00l0.00,0.00c0.00-17.60, 14.40-32.00, 32.00-32.00l 128.00,0.00 C 337.60,288.00, 352.00,302.40, 352.00,320.00 L 352.00,320.00zM 288.00,192.00c0.00,17.60-14.40,32.00-32.00,32.00l-64.00,0.00 c-17.60,0.00-32.00-14.40-32.00-32.00l0.00,0.00c0.00-17.60, 14.40-32.00, 32.00-32.00l 64.00,0.00 C 273.60,160.00, 288.00,174.40, 288.00,192.00L 288.00,192.00 z" ></path></svg>