<?xml version="1.0" encoding="utf-8"?> <!-- Generator: IcoMoon.io --> <!DOCTYPE svg PUBLIC "-//W3C//DTD SVG 1.1//EN" "http://www.w3.org/Graphics/SVG/1.1/DTD/svg11.dtd"> <svg width="512" height="512" viewBox="0 0 512 512" xmlns="http://www.w3.org/2000/svg" xmlns:xlink="http://www.w3.org/1999/xlink" fill="#000000"><g class="svgGrid" id="svgGrid"><line stroke-width="1" stroke="#B35047" x1="32" x2="32" y1="0" y2="512"></line><line stroke-width="1" stroke="#B35047" x1="64" x2="64" y1="0" y2="512"></line><line stroke-width="1" stroke="#B35047" x1="96" x2="96" y1="0" y2="512"></line><line stroke-width="1" stroke="#B35047" x1="128" x2="128" y1="0" y2="512"></line><line stroke-width="1" stroke="#B35047" x1="160" x2="160" y1="0" y2="512"></line><line stroke-width="1" stroke="#B35047" x1="192" x2="192" y1="0" y2="512"></line><line stroke-width="1" stroke="#B35047" x1="224" x2="224" y1="0" y2="512"></line><line stroke-width="1" stroke="#B35047" x1="256" x2="256" y1="0" y2="512"></line><line stroke-width="1" stroke="#B35047" x1="288" x2="288" y1="0" y2="512"></line><line stroke-width="1" stroke="#B35047" x1="320" x2="320" y1="0" y2="512"></line><line stroke-width="1" stroke="#B35047" x1="352" x2="352" y1="0" y2="512"></line><line stroke-width="1" stroke="#B35047" x1="384" x2="384" y1="0" y2="512"></line><line stroke-width="1" stroke="#B35047" x1="416" x2="416" y1="0" y2="512"></line><line stroke-width="1" stroke="#B35047" x1="448" x2="448" y1="0" y2="512"></line><line stroke-width="1" stroke="#B35047" x1="480" x2="480" y1="0" y2="512"></line><line stroke-width="1" stroke="#B35047" x1="0" x2="512" y1="32" y2="32"></line><line stroke-width="1" stroke="#B35047" x1="0" x2="512" y1="64" y2="64"></line><line stroke-width="1" stroke="#B35047" x1="0" x2="512" y1="96" y2="96"></line><line stroke-width="1" stroke="#B35047" x1="0" x2="512" y1="128" y2="128"></line><line stroke-width="1" stroke="#B35047" x1="0" x2="512" y1="160" y2="160"></line><line stroke-width="1" stroke="#B35047" x1="0" x2="512" y1="192" y2="192"></line><line stroke-width="1" stroke="#B35047" x1="0" x2="512" y1="224" y2="224"></line><line stroke-width="1" stroke="#B35047" x1="0" x2="512" y1="256" y2="256"></line><line stroke-width="1" stroke="#B35047" x1="0" x2="512" y1="288" y2="288"></line><line stroke-width="1" stroke="#B35047" x1="0" x2="512" y1="320" y2="320"></line><line stroke-width="1" stroke="#B35047" x1="0" x2="512" y1="352" y2="352"></line><line stroke-width="1" stroke="#B35047" x1="0" x2="512" y1="384" y2="384"></line><line stroke-width="1" stroke="#B35047" x1="0" x2="512" y1="416" y2="416"></line><line stroke-width="1" stroke="#B35047" x1="0" x2="512" y1="448" y2="448"></line><line stroke-width="1" stroke="#B35047" x1="0" x2="512" y1="480" y2="480"></line><rect x="0" y="0" width="512" height="512" fill="none" stroke-width="1" stroke="#B35047"></rect></g><path d="M 256.00,211.00 C 231.187,211.00 211.00,231.187 211.00,256.00 C 211.00,280.813 231.187,301.00 256.00,301.00 C 280.813,301.00 301.00,280.813 301.00,256.00 C 301.00,231.187 280.813,211.00 256.00,211.00 Z M 256.00,160.00 L 256.00,160.00 C 309.02,160.00 352.00,202.98 352.00,256.00 C 352.00,309.02 309.02,352.00 256.00,352.00 C 202.98,352.00 160.00,309.02 160.00,256.00 C 160.00,202.98 202.98,160.00 256.00,160.00 ZM 438.627,393.373 C 451.125,405.87 451.124,426.131 438.627,438.627 C 426.13,451.125 405.87,451.125 393.373,438.627 L 361.373,406.627 C 348.875,394.13 348.875,373.87 361.373,361.373 C 373.869,348.876 394.13,348.875 406.627,361.373 L 438.627,393.373 ZM 150.627,105.373 C 163.125,117.87 163.124,138.131 150.627,150.627 C 138.13,163.125 117.87,163.125 105.373,150.627 L 73.373,118.627 C 60.875,106.13 60.875,85.87 73.373,73.373 C 85.869,60.876 106.13,60.875 118.627,73.373 L 150.627,105.373 ZM 393.372,73.373 C 405.869,60.875 426.13,60.876 438.626,73.373 C 451.124,85.87 451.124,106.13 438.627,118.627 L 406.627,150.627 C 394.129,163.125 373.869,163.125 361.373,150.627 C 348.875,138.131 348.875,117.87 361.373,105.373 L 393.372,73.373 ZM 105.373,361.373 C 117.87,348.875 138.13,348.876 150.627,361.373 C 163.125,373.87 163.125,394.13 150.627,406.627 L 118.627,438.627 C 106.13,451.125 85.87,451.125 73.373,438.627 C 60.876,426.131 60.875,405.87 73.373,393.373 L 105.373,361.373 ZM 256.00,32.00 C 273.673,32.00 288.00,46.327 288.00,64.00 L 288.00,96.00 C 288.00,113.673 273.673,128.00 256.00,128.00 C 238.327,128.00 224.00,113.673 224.00,96.00 L 224.00,64.00 C 224.00,46.327 238.327,32.00 256.00,32.00 ZM 256.00,384.00 C 273.673,384.00 288.00,398.326 288.00,416.00 L 288.00,448.00 C 288.00,465.674 273.673,480.00 256.00,480.00 C 238.327,480.00 224.00,465.674 224.00,448.00 L 224.00,416.00 C 224.00,398.326 238.327,384.00 256.00,384.00 ZM 32.00,256.00 C 32.00,238.327 46.327,224.00 64.00,224.00 L 96.00,224.00 C 113.673,224.00 128.00,238.327 128.00,256.00 C 128.00,273.674 113.673,288.00 96.00,288.00 L 64.00,288.00 C 46.327,288.00 32.00,273.674 32.00,256.00 ZM 384.00,256.00 C 384.00,238.327 398.326,224.00 416.00,224.00 L 448.00,224.00 C 465.674,224.00 480.00,238.327 480.00,256.00 C 480.00,273.673 465.674,288.00 448.00,288.00 L 416.00,288.00 C 398.326,288.00 384.00,273.673 384.00,256.00 Z" ></path></svg>