<?xml version="1.0" encoding="utf-8"?> <!-- Generator: IcoMoon --> <!DOCTYPE svg PUBLIC "-//W3C//DTD SVG 1.1//EN" "http://www.w3.org/Graphics/SVG/1.1/DTD/svg11.dtd"> <svg width="512" height="512" viewBox="0 0 512 512" data-tags="broadcast, podcast, stream, live, wifi" fill="#000000"><g class="svgGrid" id="svgGrid"><line stroke-width="1" stroke="#B35047" x1="32" x2="32" y1="0" y2="512"></line><line stroke-width="1" stroke="#B35047" x1="64" x2="64" y1="0" y2="512"></line><line stroke-width="1" stroke="#B35047" x1="96" x2="96" y1="0" y2="512"></line><line stroke-width="1" stroke="#B35047" x1="128" x2="128" y1="0" y2="512"></line><line stroke-width="1" stroke="#B35047" x1="160" x2="160" y1="0" y2="512"></line><line stroke-width="1" stroke="#B35047" x1="192" x2="192" y1="0" y2="512"></line><line stroke-width="1" stroke="#B35047" x1="224" x2="224" y1="0" y2="512"></line><line stroke-width="1" stroke="#B35047" x1="256" x2="256" y1="0" y2="512"></line><line stroke-width="1" stroke="#B35047" x1="288" x2="288" y1="0" y2="512"></line><line stroke-width="1" stroke="#B35047" x1="320" x2="320" y1="0" y2="512"></line><line stroke-width="1" stroke="#B35047" x1="352" x2="352" y1="0" y2="512"></line><line stroke-width="1" stroke="#B35047" x1="384" x2="384" y1="0" y2="512"></line><line stroke-width="1" stroke="#B35047" x1="416" x2="416" y1="0" y2="512"></line><line stroke-width="1" stroke="#B35047" x1="448" x2="448" y1="0" y2="512"></line><line stroke-width="1" stroke="#B35047" x1="480" x2="480" y1="0" y2="512"></line><line stroke-width="1" stroke="#B35047" x1="0" x2="512" y1="32" y2="32"></line><line stroke-width="1" stroke="#B35047" x1="0" x2="512" y1="64" y2="64"></line><line stroke-width="1" stroke="#B35047" x1="0" x2="512" y1="96" y2="96"></line><line stroke-width="1" stroke="#B35047" x1="0" x2="512" y1="128" y2="128"></line><line stroke-width="1" stroke="#B35047" x1="0" x2="512" y1="160" y2="160"></line><line stroke-width="1" stroke="#B35047" x1="0" x2="512" y1="192" y2="192"></line><line stroke-width="1" stroke="#B35047" x1="0" x2="512" y1="224" y2="224"></line><line stroke-width="1" stroke="#B35047" x1="0" x2="512" y1="256" y2="256"></line><line stroke-width="1" stroke="#B35047" x1="0" x2="512" y1="288" y2="288"></line><line stroke-width="1" stroke="#B35047" x1="0" x2="512" y1="320" y2="320"></line><line stroke-width="1" stroke="#B35047" x1="0" x2="512" y1="352" y2="352"></line><line stroke-width="1" stroke="#B35047" x1="0" x2="512" y1="384" y2="384"></line><line stroke-width="1" stroke="#B35047" x1="0" x2="512" y1="416" y2="416"></line><line stroke-width="1" stroke="#B35047" x1="0" x2="512" y1="448" y2="448"></line><line stroke-width="1" stroke="#B35047" x1="0" x2="512" y1="480" y2="480"></line><rect x="0" y="0" width="512" height="512" fill="none" stroke-width="1" stroke="#B35047"></rect></g><path d="M 224.00,192.00L 96.00,512.00l 48.596,0.00 L 256.00,414.521L 367.406,512.00L 416.00,512.00 L 288.00,192.00L 224.00,192.00 z M 149.024,465.605l 42.871-107.179l 39.81,34.833 L 149.024,465.605z M 362.978,465.604l-82.68-72.344l 39.809-34.833L 362.978,465.604z M 256.00,372.00l-51.507-45.068L 245.665,224.00l 20.67,0.00 l 41.173,102.932L 256.00,372.00zM 366.871,64.001C 377.764,82.828, 384.00,104.686, 384.00,128.00s-6.236,45.172-17.129,63.999l 27.72,16.00 C 408.204,184.465, 416.00,157.144, 416.00,128.00s-7.796-56.465-21.409-79.999L 366.871,64.001zM 145.128,191.999C 134.238,173.172, 128.00,151.314, 128.00,128.00s 6.236-45.172, 17.128-63.999L 117.41,48.002 C 103.796,71.536, 96.00,98.856, 96.00,128.00s 7.796,56.464, 21.41,79.999L 145.128,191.999zM 34.252,0.00C 12.47,37.655,0.00,81.371,0.00,128.00s 12.47,90.345, 34.252,127.999l 27.719-16.00C 42.911,207.052, 32.00,168.801, 32.00,128.00 S 42.911,48.948, 61.971,16.00L 34.252,0.00zM 512.00,128.00c0.00-46.63-12.47-90.346-34.253-128.00l0.00,0.00L 450.03,16.00C 469.09,48.948, 480.00,87.199, 480.00,128.00s-10.91,79.053-29.971,112.00 l 27.718,16.00l0.00,0.00C 499.531,218.346, 512.00,174.63, 512.00,128.00zM 224.00,128.00A32.00,32.00 10080.00 1,0 288.00,128A32.00,32.00 10080.00 1,0 224.00,128z" ></path></svg>