<?xml version="1.0" encoding="utf-8"?> <!-- Generator: IcoMoon.io --> <!DOCTYPE svg PUBLIC "-//W3C//DTD SVG 1.1//EN" "http://www.w3.org/Graphics/SVG/1.1/DTD/svg11.dtd"> <svg width="576" height="512" viewBox="0 0 576 512" xmlns="http://www.w3.org/2000/svg" xmlns:xlink="http://www.w3.org/1999/xlink" fill="#000000"><g class="svgGrid" id="svgGrid"><line stroke-width="1" stroke="#B35047" x1="32" x2="32" y1="0" y2="512"></line><line stroke-width="1" stroke="#B35047" x1="64" x2="64" y1="0" y2="512"></line><line stroke-width="1" stroke="#B35047" x1="96" x2="96" y1="0" y2="512"></line><line stroke-width="1" stroke="#B35047" x1="128" x2="128" y1="0" y2="512"></line><line stroke-width="1" stroke="#B35047" x1="160" x2="160" y1="0" y2="512"></line><line stroke-width="1" stroke="#B35047" x1="192" x2="192" y1="0" y2="512"></line><line stroke-width="1" stroke="#B35047" x1="224" x2="224" y1="0" y2="512"></line><line stroke-width="1" stroke="#B35047" x1="256" x2="256" y1="0" y2="512"></line><line stroke-width="1" stroke="#B35047" x1="288" x2="288" y1="0" y2="512"></line><line stroke-width="1" stroke="#B35047" x1="320" x2="320" y1="0" y2="512"></line><line stroke-width="1" stroke="#B35047" x1="352" x2="352" y1="0" y2="512"></line><line stroke-width="1" stroke="#B35047" x1="384" x2="384" y1="0" y2="512"></line><line stroke-width="1" stroke="#B35047" x1="416" x2="416" y1="0" y2="512"></line><line stroke-width="1" stroke="#B35047" x1="448" x2="448" y1="0" y2="512"></line><line stroke-width="1" stroke="#B35047" x1="480" x2="480" y1="0" y2="512"></line><line stroke-width="1" stroke="#B35047" x1="0" x2="512" y1="32" y2="32"></line><line stroke-width="1" stroke="#B35047" x1="0" x2="512" y1="64" y2="64"></line><line stroke-width="1" stroke="#B35047" x1="0" x2="512" y1="96" y2="96"></line><line stroke-width="1" stroke="#B35047" x1="0" x2="512" y1="128" y2="128"></line><line stroke-width="1" stroke="#B35047" x1="0" x2="512" y1="160" y2="160"></line><line stroke-width="1" stroke="#B35047" x1="0" x2="512" y1="192" y2="192"></line><line stroke-width="1" stroke="#B35047" x1="0" x2="512" y1="224" y2="224"></line><line stroke-width="1" stroke="#B35047" x1="0" x2="512" y1="256" y2="256"></line><line stroke-width="1" stroke="#B35047" x1="0" x2="512" y1="288" y2="288"></line><line stroke-width="1" stroke="#B35047" x1="0" x2="512" y1="320" y2="320"></line><line stroke-width="1" stroke="#B35047" x1="0" x2="512" y1="352" y2="352"></line><line stroke-width="1" stroke="#B35047" x1="0" x2="512" y1="384" y2="384"></line><line stroke-width="1" stroke="#B35047" x1="0" x2="512" y1="416" y2="416"></line><line stroke-width="1" stroke="#B35047" x1="0" x2="512" y1="448" y2="448"></line><line stroke-width="1" stroke="#B35047" x1="0" x2="512" y1="480" y2="480"></line><rect x="0" y="0" width="512" height="512" fill="none" stroke-width="1" stroke="#B35047"></rect></g><path d="M 240.00,64.00 C 214.667,64.00 190.209,67.975 167.307,75.814 C 145.845,83.161 126.75,93.532 110.556,106.637 C 80.534,130.932 64.00,162.038 64.00,194.224 C 64.00,212.219 69.033,229.698 78.96,246.173 C 89.303,263.343 104.909,279.07 124.09,291.652 C 139.31,301.636 149.558,317.628 152.271,335.627 C 152.722,338.622 153.086,341.63 153.361,344.643 C 154.722,343.383 156.073,342.086 157.418,340.746 C 169.487,328.726 185.762,322.09 202.579,322.09 C 205.253,322.09 207.938,322.258 210.626,322.599 C 220.306,323.825 230.188,324.447 240.00,324.447 C 265.333,324.447 289.79,320.473 312.692,312.633 C 334.155,305.287 353.25,294.916 369.444,281.811 C 399.467,257.516 416.00,226.41 416.00,194.224 C 416.00,162.038 399.467,130.933 369.444,106.637 C 353.25,93.531 334.155,83.161 312.692,75.814 C 289.79,67.975 265.333,64.00 240.00,64.00 Z M 240.00,0.00 L 240.00,0.00 C 372.548,0.00 480.00,86.957 480.00,194.224 C 480.00,301.491 372.548,388.448 240.00,388.448 C 227.271,388.448 214.777,387.638 202.583,386.093 C 151.03,437.44 91.497,446.647 32.00,448.00 L 32.00,435.433 C 64.126,419.756 90.00,391.20 90.00,358.566 C 90.00,354.013 89.644,349.542 88.985,345.169 C 34.706,309.562 0.00,255.175 0.00,194.224 C 0.00,86.957 107.452,0.00 240.00,0.00 ZM 498.00,435.343 C 498.00,463.314 516.157,487.792 544.00,501.229 L 544.00,512.00 C 492.437,510.841 445.107,502.949 400.429,458.937 C 389.859,460.262 379.032,460.957 368.00,460.957 C 320.265,460.957 276.296,448.078 241.193,426.437 C 313.53,426.184 381.823,403.01 433.61,361.101 C 459.714,339.975 480.307,315.188 494.817,287.427 C 510.20,257.994 518.00,226.636 518.00,194.224 C 518.00,189.00 517.775,183.806 517.371,178.64 C 553.656,208.607 576.00,249.451 576.00,294.478 C 576.00,346.722 545.921,393.339 498.88,423.86 C 498.309,427.608 498.00,431.44 498.00,435.343 Z" ></path></svg>