<?xml version="1.0" encoding="utf-8"?> <!-- Generator: IcoMoon.io --> <!DOCTYPE svg PUBLIC "-//W3C//DTD SVG 1.1//EN" "http://www.w3.org/Graphics/SVG/1.1/DTD/svg11.dtd"> <svg width="512" height="512" viewBox="0 0 512 512" xmlns="http://www.w3.org/2000/svg" xmlns:xlink="http://www.w3.org/1999/xlink" fill="#000000"><g class="svgGrid" id="svgGrid"><line stroke-width="1" stroke="#B35047" x1="32" x2="32" y1="0" y2="512"></line><line stroke-width="1" stroke="#B35047" x1="64" x2="64" y1="0" y2="512"></line><line stroke-width="1" stroke="#B35047" x1="96" x2="96" y1="0" y2="512"></line><line stroke-width="1" stroke="#B35047" x1="128" x2="128" y1="0" y2="512"></line><line stroke-width="1" stroke="#B35047" x1="160" x2="160" y1="0" y2="512"></line><line stroke-width="1" stroke="#B35047" x1="192" x2="192" y1="0" y2="512"></line><line stroke-width="1" stroke="#B35047" x1="224" x2="224" y1="0" y2="512"></line><line stroke-width="1" stroke="#B35047" x1="256" x2="256" y1="0" y2="512"></line><line stroke-width="1" stroke="#B35047" x1="288" x2="288" y1="0" y2="512"></line><line stroke-width="1" stroke="#B35047" x1="320" x2="320" y1="0" y2="512"></line><line stroke-width="1" stroke="#B35047" x1="352" x2="352" y1="0" y2="512"></line><line stroke-width="1" stroke="#B35047" x1="384" x2="384" y1="0" y2="512"></line><line stroke-width="1" stroke="#B35047" x1="416" x2="416" y1="0" y2="512"></line><line stroke-width="1" stroke="#B35047" x1="448" x2="448" y1="0" y2="512"></line><line stroke-width="1" stroke="#B35047" x1="480" x2="480" y1="0" y2="512"></line><line stroke-width="1" stroke="#B35047" x1="0" x2="512" y1="32" y2="32"></line><line stroke-width="1" stroke="#B35047" x1="0" x2="512" y1="64" y2="64"></line><line stroke-width="1" stroke="#B35047" x1="0" x2="512" y1="96" y2="96"></line><line stroke-width="1" stroke="#B35047" x1="0" x2="512" y1="128" y2="128"></line><line stroke-width="1" stroke="#B35047" x1="0" x2="512" y1="160" y2="160"></line><line stroke-width="1" stroke="#B35047" x1="0" x2="512" y1="192" y2="192"></line><line stroke-width="1" stroke="#B35047" x1="0" x2="512" y1="224" y2="224"></line><line stroke-width="1" stroke="#B35047" x1="0" x2="512" y1="256" y2="256"></line><line stroke-width="1" stroke="#B35047" x1="0" x2="512" y1="288" y2="288"></line><line stroke-width="1" stroke="#B35047" x1="0" x2="512" y1="320" y2="320"></line><line stroke-width="1" stroke="#B35047" x1="0" x2="512" y1="352" y2="352"></line><line stroke-width="1" stroke="#B35047" x1="0" x2="512" y1="384" y2="384"></line><line stroke-width="1" stroke="#B35047" x1="0" x2="512" y1="416" y2="416"></line><line stroke-width="1" stroke="#B35047" x1="0" x2="512" y1="448" y2="448"></line><line stroke-width="1" stroke="#B35047" x1="0" x2="512" y1="480" y2="480"></line><rect x="0" y="0" width="512" height="512" fill="none" stroke-width="1" stroke="#B35047"></rect></g><path d="M 512.00,214.628c0.00-100.463-29.396-181.969-65.741-182.613c 0.146-0.003, 0.289-0.015, 0.436-0.015l-41.471,0.00 c0.00,0.00-97.40,73.168-237.615,101.877c-4.28,22.646-7.015,49.637-7.015,80.751c0.00,31.114, 2.733,58.104, 7.015,80.75 c 140.214,28.709, 237.615,101.878, 237.615,101.878l 41.471,0.00 c-0.146,0.00-0.289-0.012-0.436-0.016C 482.607,396.596, 512.00,315.091, 512.00,214.628 z M 432.412,369.626c-4.691,0.00-9.766-4.871-12.373-7.774c-6.315-7.032-12.396-17.98-17.594-31.664 c-11.628-30.616-18.033-71.655-18.033-115.562c0.00-43.905, 6.405-84.945, 18.033-115.561c 5.197-13.684, 11.281-24.633, 17.594-31.664 c 2.607-2.906, 7.682-7.776, 12.373-7.776c 4.69,0.00, 9.768,4.872, 12.372,7.776c 6.317,7.032, 12.398,17.979, 17.594,31.664 c 11.629,30.615, 18.034,71.656, 18.034,115.561c0.00,43.902-6.405,84.944-18.034,115.562c-5.195,13.684-11.281,24.632-17.594,31.664 C 442.18,364.755, 437.104,369.626, 432.412,369.626z M 125.906,214.628c0.00-25.975, 1.905-51.215, 5.526-74.547 c-23.686,3.277-44.471,5.162-70.17,5.162c-33.529,0.00-33.529,0.00-33.529,0.00L0.00,192.586l0.00,44.085 l 27.73,47.343c0.00,0.00,0.00,0.00, 33.53,0.00 c 25.699,0.00, 46.484,1.887, 70.17,5.162C 127.812,265.844, 125.906,240.603, 125.906,214.628z M 184.075,321.086l-63.999-12.255 l 40.921,160.772c 2.118,8.317, 10.372,12.519, 18.343,9.327l 59.278-23.726c 7.972-3.188, 11.164-11.982, 7.098-19.542L 184.075,321.086zM 432.412,274.365c-1.809,0.00-3.764-1.877-4.769-2.996c-2.435-2.71-4.778-6.93-6.781-12.204 c-4.481-11.80-6.95-27.617-6.95-44.539c0.00-16.922, 2.469-32.739, 6.95-44.539c 2.003-5.274, 4.348-9.494, 6.781-12.204 c 1.005-1.12, 2.96-2.997, 4.769-2.997c 1.808,0.00, 3.765,1.878, 4.769,2.997c 2.435,2.71, 4.778,6.929, 6.78,12.204 c 4.482,11.799, 6.951,27.617, 6.951,44.539c0.00,16.921-2.469,32.739-6.951,44.539c-2.002,5.274-4.348,9.494-6.78,12.204 C 436.177,272.488, 434.221,274.365, 432.412,274.365z" ></path></svg>