<?xml version="1.0" encoding="utf-8"?> <!-- Generator: IcoMoon --> <!DOCTYPE svg PUBLIC "-//W3C//DTD SVG 1.1//EN" "http://www.w3.org/Graphics/SVG/1.1/DTD/svg11.dtd"> <svg width="512" height="512" viewBox="0 0 512 512" data-tags="cancel, close, quit, remove, error, cross" fill="#000000"><g class="svgGrid" id="svgGrid"><line stroke-width="1" stroke="#B35047" x1="32" x2="32" y1="0" y2="512"></line><line stroke-width="1" stroke="#B35047" x1="64" x2="64" y1="0" y2="512"></line><line stroke-width="1" stroke="#B35047" x1="96" x2="96" y1="0" y2="512"></line><line stroke-width="1" stroke="#B35047" x1="128" x2="128" y1="0" y2="512"></line><line stroke-width="1" stroke="#B35047" x1="160" x2="160" y1="0" y2="512"></line><line stroke-width="1" stroke="#B35047" x1="192" x2="192" y1="0" y2="512"></line><line stroke-width="1" stroke="#B35047" x1="224" x2="224" y1="0" y2="512"></line><line stroke-width="1" stroke="#B35047" x1="256" x2="256" y1="0" y2="512"></line><line stroke-width="1" stroke="#B35047" x1="288" x2="288" y1="0" y2="512"></line><line stroke-width="1" stroke="#B35047" x1="320" x2="320" y1="0" y2="512"></line><line stroke-width="1" stroke="#B35047" x1="352" x2="352" y1="0" y2="512"></line><line stroke-width="1" stroke="#B35047" x1="384" x2="384" y1="0" y2="512"></line><line stroke-width="1" stroke="#B35047" x1="416" x2="416" y1="0" y2="512"></line><line stroke-width="1" stroke="#B35047" x1="448" x2="448" y1="0" y2="512"></line><line stroke-width="1" stroke="#B35047" x1="480" x2="480" y1="0" y2="512"></line><line stroke-width="1" stroke="#B35047" x1="0" x2="512" y1="32" y2="32"></line><line stroke-width="1" stroke="#B35047" x1="0" x2="512" y1="64" y2="64"></line><line stroke-width="1" stroke="#B35047" x1="0" x2="512" y1="96" y2="96"></line><line stroke-width="1" stroke="#B35047" x1="0" x2="512" y1="128" y2="128"></line><line stroke-width="1" stroke="#B35047" x1="0" x2="512" y1="160" y2="160"></line><line stroke-width="1" stroke="#B35047" x1="0" x2="512" y1="192" y2="192"></line><line stroke-width="1" stroke="#B35047" x1="0" x2="512" y1="224" y2="224"></line><line stroke-width="1" stroke="#B35047" x1="0" x2="512" y1="256" y2="256"></line><line stroke-width="1" stroke="#B35047" x1="0" x2="512" y1="288" y2="288"></line><line stroke-width="1" stroke="#B35047" x1="0" x2="512" y1="320" y2="320"></line><line stroke-width="1" stroke="#B35047" x1="0" x2="512" y1="352" y2="352"></line><line stroke-width="1" stroke="#B35047" x1="0" x2="512" y1="384" y2="384"></line><line stroke-width="1" stroke="#B35047" x1="0" x2="512" y1="416" y2="416"></line><line stroke-width="1" stroke="#B35047" x1="0" x2="512" y1="448" y2="448"></line><line stroke-width="1" stroke="#B35047" x1="0" x2="512" y1="480" y2="480"></line><rect x="0" y="0" width="512" height="512" fill="none" stroke-width="1" stroke="#B35047"></rect></g><path d="M 507.331,411.33c-0.002-0.002-0.004-0.004-0.006-0.005L 352.003,256.00l 155.322-155.325c 0.002-0.002, 0.004-0.003, 0.006-0.005 c 1.672-1.673, 2.881-3.627, 3.656-5.708c 2.123-5.688, 0.912-12.341-3.662-16.915L 433.952,4.674c-4.574-4.573-11.225-5.783-16.914-3.66 c-2.08,0.775-4.035,1.984-5.709,3.655c0.00,0.002-0.002,0.003-0.004,0.005L 256.001,160.00L 100.677,4.675 c-0.002-0.002-0.003-0.003-0.005-0.005c-1.673-1.671-3.627-2.88-5.707-3.655c-5.69-2.124-12.341-0.913-16.915,3.66L 4.676,78.049 c-4.574,4.574-5.784,11.226-3.661,16.914c 0.776,2.08, 1.985,4.036, 3.656,5.708c 0.002,0.001, 0.003,0.003, 0.005,0.005L 160.001,256.00 L 4.676,411.326c-0.001,0.002-0.003,0.003-0.004,0.005c-1.671,1.673-2.88,3.627-3.657,5.707c-2.124,5.688-0.913,12.341, 3.661,16.915 l 73.374,73.373c 4.575,4.574, 11.226,5.784, 16.915,3.661c 2.08-0.776, 4.035-1.985, 5.708-3.656c 0.001-0.002, 0.003-0.003, 0.005-0.005 l 155.324-155.325l 155.324,155.325c 0.002,0.001, 0.004,0.003, 0.006,0.004c 1.674,1.672, 3.627,2.881, 5.707,3.657 c 5.689,2.123, 12.342,0.913, 16.914-3.661l 73.373-73.374c 4.574-4.574, 5.785-11.227, 3.662-16.915 C 510.212,414.957, 509.003,413.003, 507.331,411.33z" ></path></svg>