<?xml version="1.0" encoding="utf-8"?> <!-- Generator: IcoMoon --> <!DOCTYPE svg PUBLIC "-//W3C//DTD SVG 1.1//EN" "http://www.w3.org/Graphics/SVG/1.1/DTD/svg11.dtd"> <svg width="512" height="512" viewBox="0 0 512 512" data-tags="coffee, cup, drink, break, tea" fill="#000000"><g class="svgGrid" id="svgGrid"><line stroke-width="1" stroke="#B35047" x1="32" x2="32" y1="0" y2="512"></line><line stroke-width="1" stroke="#B35047" x1="64" x2="64" y1="0" y2="512"></line><line stroke-width="1" stroke="#B35047" x1="96" x2="96" y1="0" y2="512"></line><line stroke-width="1" stroke="#B35047" x1="128" x2="128" y1="0" y2="512"></line><line stroke-width="1" stroke="#B35047" x1="160" x2="160" y1="0" y2="512"></line><line stroke-width="1" stroke="#B35047" x1="192" x2="192" y1="0" y2="512"></line><line stroke-width="1" stroke="#B35047" x1="224" x2="224" y1="0" y2="512"></line><line stroke-width="1" stroke="#B35047" x1="256" x2="256" y1="0" y2="512"></line><line stroke-width="1" stroke="#B35047" x1="288" x2="288" y1="0" y2="512"></line><line stroke-width="1" stroke="#B35047" x1="320" x2="320" y1="0" y2="512"></line><line stroke-width="1" stroke="#B35047" x1="352" x2="352" y1="0" y2="512"></line><line stroke-width="1" stroke="#B35047" x1="384" x2="384" y1="0" y2="512"></line><line stroke-width="1" stroke="#B35047" x1="416" x2="416" y1="0" y2="512"></line><line stroke-width="1" stroke="#B35047" x1="448" x2="448" y1="0" y2="512"></line><line stroke-width="1" stroke="#B35047" x1="480" x2="480" y1="0" y2="512"></line><line stroke-width="1" stroke="#B35047" x1="0" x2="512" y1="32" y2="32"></line><line stroke-width="1" stroke="#B35047" x1="0" x2="512" y1="64" y2="64"></line><line stroke-width="1" stroke="#B35047" x1="0" x2="512" y1="96" y2="96"></line><line stroke-width="1" stroke="#B35047" x1="0" x2="512" y1="128" y2="128"></line><line stroke-width="1" stroke="#B35047" x1="0" x2="512" y1="160" y2="160"></line><line stroke-width="1" stroke="#B35047" x1="0" x2="512" y1="192" y2="192"></line><line stroke-width="1" stroke="#B35047" x1="0" x2="512" y1="224" y2="224"></line><line stroke-width="1" stroke="#B35047" x1="0" x2="512" y1="256" y2="256"></line><line stroke-width="1" stroke="#B35047" x1="0" x2="512" y1="288" y2="288"></line><line stroke-width="1" stroke="#B35047" x1="0" x2="512" y1="320" y2="320"></line><line stroke-width="1" stroke="#B35047" x1="0" x2="512" y1="352" y2="352"></line><line stroke-width="1" stroke="#B35047" x1="0" x2="512" y1="384" y2="384"></line><line stroke-width="1" stroke="#B35047" x1="0" x2="512" y1="416" y2="416"></line><line stroke-width="1" stroke="#B35047" x1="0" x2="512" y1="448" y2="448"></line><line stroke-width="1" stroke="#B35047" x1="0" x2="512" y1="480" y2="480"></line><rect x="0" y="0" width="512" height="512" fill="none" stroke-width="1" stroke="#B35047"></rect></g><path d="M 423.555,221.188c 0.033-2.533, 0.049-5.076, 0.049-7.626c0.00-30.532-93.227-55.284-208.225-55.284 c-114.997,0.00-208.223,24.752-208.223,55.284C 7.156,378.385, 73.546,512.00, 215.379,512.00c 83.413,0.00, 140.723-46.225, 173.788-117.818 c 3.338,0.27, 6.699,0.457, 10.119,0.457c 58.297,0.00, 105.559-39.356, 105.559-87.904C 504.844,265.143, 470.153,230.321, 423.555,221.188z M 349.141,235.972c-36.689,8.652-84.195,13.417-133.762,13.417c-49.565,0.00-97.07-4.765-133.76-13.417 c-35.822-8.448-50.376-18.136-54.252-22.411c 3.876-4.275, 18.431-13.961, 54.252-22.409c 36.688-8.653, 84.193-13.419, 133.76-13.419 c 49.565,0.00, 97.071,4.767, 133.762,13.419c 35.822,8.448, 50.377,18.134, 54.254,22.409C 399.518,217.836, 384.963,227.523, 349.141,235.972 z M 398.268,372.213c 12.537-33.865, 20.355-72.30, 23.60-113.514c 30.50,6.246, 48.42,28.615, 48.42,51.395 C 470.285,339.477, 448.723,368.814, 398.268,372.213zM 255.689,126.078C 283.881,83.461, 206.377,37.648, 259.908,0.00c-44.528,2.943-52.161,30.188-40.935,51.461 C 229.63,71.652, 255.649,85.732, 255.689,126.078zM 233.163,154.501c 12.646-35.708-59.269-64.515-19.554-105.806c-37.209,10.992-36.253,41.592-20.227,58.701 C 204.951,119.75, 225.905,125.482, 233.163,154.501z" ></path></svg>