<?xml version="1.0" encoding="utf-8"?> <!-- Generator: IcoMoon --> <!DOCTYPE svg PUBLIC "-//W3C//DTD SVG 1.1//EN" "http://www.w3.org/Graphics/SVG/1.1/DTD/svg11.dtd"> <svg width="512" height="512" viewBox="0 0 512 512" data-tags="dribbble, social" fill="#000000"><g class="svgGrid" id="svgGrid"><line stroke-width="1" stroke="#B35047" x1="32" x2="32" y1="0" y2="512"></line><line stroke-width="1" stroke="#B35047" x1="64" x2="64" y1="0" y2="512"></line><line stroke-width="1" stroke="#B35047" x1="96" x2="96" y1="0" y2="512"></line><line stroke-width="1" stroke="#B35047" x1="128" x2="128" y1="0" y2="512"></line><line stroke-width="1" stroke="#B35047" x1="160" x2="160" y1="0" y2="512"></line><line stroke-width="1" stroke="#B35047" x1="192" x2="192" y1="0" y2="512"></line><line stroke-width="1" stroke="#B35047" x1="224" x2="224" y1="0" y2="512"></line><line stroke-width="1" stroke="#B35047" x1="256" x2="256" y1="0" y2="512"></line><line stroke-width="1" stroke="#B35047" x1="288" x2="288" y1="0" y2="512"></line><line stroke-width="1" stroke="#B35047" x1="320" x2="320" y1="0" y2="512"></line><line stroke-width="1" stroke="#B35047" x1="352" x2="352" y1="0" y2="512"></line><line stroke-width="1" stroke="#B35047" x1="384" x2="384" y1="0" y2="512"></line><line stroke-width="1" stroke="#B35047" x1="416" x2="416" y1="0" y2="512"></line><line stroke-width="1" stroke="#B35047" x1="448" x2="448" y1="0" y2="512"></line><line stroke-width="1" stroke="#B35047" x1="480" x2="480" y1="0" y2="512"></line><line stroke-width="1" stroke="#B35047" x1="0" x2="512" y1="32" y2="32"></line><line stroke-width="1" stroke="#B35047" x1="0" x2="512" y1="64" y2="64"></line><line stroke-width="1" stroke="#B35047" x1="0" x2="512" y1="96" y2="96"></line><line stroke-width="1" stroke="#B35047" x1="0" x2="512" y1="128" y2="128"></line><line stroke-width="1" stroke="#B35047" x1="0" x2="512" y1="160" y2="160"></line><line stroke-width="1" stroke="#B35047" x1="0" x2="512" y1="192" y2="192"></line><line stroke-width="1" stroke="#B35047" x1="0" x2="512" y1="224" y2="224"></line><line stroke-width="1" stroke="#B35047" x1="0" x2="512" y1="256" y2="256"></line><line stroke-width="1" stroke="#B35047" x1="0" x2="512" y1="288" y2="288"></line><line stroke-width="1" stroke="#B35047" x1="0" x2="512" y1="320" y2="320"></line><line stroke-width="1" stroke="#B35047" x1="0" x2="512" y1="352" y2="352"></line><line stroke-width="1" stroke="#B35047" x1="0" x2="512" y1="384" y2="384"></line><line stroke-width="1" stroke="#B35047" x1="0" x2="512" y1="416" y2="416"></line><line stroke-width="1" stroke="#B35047" x1="0" x2="512" y1="448" y2="448"></line><line stroke-width="1" stroke="#B35047" x1="0" x2="512" y1="480" y2="480"></line><rect x="0" y="0" width="512" height="512" fill="none" stroke-width="1" stroke="#B35047"></rect></g><path d="M 152.278,389.297c 28.653,22.332, 64.579,35.743, 103.712,35.743c 21.402,0.00, 41.787-4.127, 60.635-11.382 c-8.112-47.492-19.275-90.176-33.648-129.563C 229.194,300.237, 187.377,334.768, 152.278,389.297zM 271.331,254.644c-4.345-10.217-8.846-20.301-13.688-30.118c-47.104,14.194-102.88,21.633-170.351,24.745 c-0.092,2.245-0.343,4.458-0.343,6.737c0.00,41.818, 15.272,80.023, 40.435,109.545C 170.295,302.65, 218.591,269.886, 271.331,254.644zM 366.373,128.144c-29.621-25.592-68.147-41.184-110.381-41.184c-14.815,0.00-29.105,2.096-42.804,5.674 c 23.486,25.859, 44.871,57.31, 63.787,93.384C 309.858,172.44, 340.037,153.753, 366.373,128.144zM 179.875,105.214c-44.88,22.697-78.278,64.714-89.107,115.217c 53.241-2.346, 105.22-8.27, 152.86-22.664 C 225.486,165.351, 204.185,134.901, 179.875,105.214zM 316.069,276.74c 13.148,37.49, 24.151,77.877, 32.814,120.426c 40.193-26.506, 68.431-69.653, 74.782-119.676 C 383.473,272.216, 347.83,271.834, 316.069,276.74zM 426.672,0.00L 85.343,0.00 C 38.406,0.00,0.00,38.405,0.00,85.345l0.00,341.311 C0.00,473.625, 38.406,512.00, 85.343,512.00l 341.33,0.00 C 473.612,512.00, 512.00,473.626, 512.00,426.655L 512.00,85.345 C 512.002,38.405, 473.612,0.00, 426.672,0.00z M 256.00,460.80 c-113.109,0.00-204.80-91.688-204.80-204.792C 51.20,142.904, 142.892,51.20, 256.00,51.20c 113.10,0.00, 204.80,91.705, 204.80,204.808 C 460.80,369.111, 369.10,460.80, 256.00,460.80zM 290.373,213.06c 5.102,11.016, 9.92,22.481, 14.582,34.179c 37.95-5.875, 77.941-4.577, 119.687-0.299 c-1.968-37.058-15.731-70.972-37.801-97.929C 359.254,176.966, 327.764,197.783, 290.373,213.06z" ></path></svg>