<?xml version="1.0" encoding="utf-8"?> <!-- Generator: IcoMoon --> <!DOCTYPE svg PUBLIC "-//W3C//DTD SVG 1.1//EN" "http://www.w3.org/Graphics/SVG/1.1/DTD/svg11.dtd"> <svg width="512" height="512" viewBox="0 0 512 512" data-tags="dribbble, social" fill="#000000"><g class="svgGrid" id="svgGrid"><line stroke-width="1" stroke="#B35047" x1="32" x2="32" y1="0" y2="512"></line><line stroke-width="1" stroke="#B35047" x1="64" x2="64" y1="0" y2="512"></line><line stroke-width="1" stroke="#B35047" x1="96" x2="96" y1="0" y2="512"></line><line stroke-width="1" stroke="#B35047" x1="128" x2="128" y1="0" y2="512"></line><line stroke-width="1" stroke="#B35047" x1="160" x2="160" y1="0" y2="512"></line><line stroke-width="1" stroke="#B35047" x1="192" x2="192" y1="0" y2="512"></line><line stroke-width="1" stroke="#B35047" x1="224" x2="224" y1="0" y2="512"></line><line stroke-width="1" stroke="#B35047" x1="256" x2="256" y1="0" y2="512"></line><line stroke-width="1" stroke="#B35047" x1="288" x2="288" y1="0" y2="512"></line><line stroke-width="1" stroke="#B35047" x1="320" x2="320" y1="0" y2="512"></line><line stroke-width="1" stroke="#B35047" x1="352" x2="352" y1="0" y2="512"></line><line stroke-width="1" stroke="#B35047" x1="384" x2="384" y1="0" y2="512"></line><line stroke-width="1" stroke="#B35047" x1="416" x2="416" y1="0" y2="512"></line><line stroke-width="1" stroke="#B35047" x1="448" x2="448" y1="0" y2="512"></line><line stroke-width="1" stroke="#B35047" x1="480" x2="480" y1="0" y2="512"></line><line stroke-width="1" stroke="#B35047" x1="0" x2="512" y1="32" y2="32"></line><line stroke-width="1" stroke="#B35047" x1="0" x2="512" y1="64" y2="64"></line><line stroke-width="1" stroke="#B35047" x1="0" x2="512" y1="96" y2="96"></line><line stroke-width="1" stroke="#B35047" x1="0" x2="512" y1="128" y2="128"></line><line stroke-width="1" stroke="#B35047" x1="0" x2="512" y1="160" y2="160"></line><line stroke-width="1" stroke="#B35047" x1="0" x2="512" y1="192" y2="192"></line><line stroke-width="1" stroke="#B35047" x1="0" x2="512" y1="224" y2="224"></line><line stroke-width="1" stroke="#B35047" x1="0" x2="512" y1="256" y2="256"></line><line stroke-width="1" stroke="#B35047" x1="0" x2="512" y1="288" y2="288"></line><line stroke-width="1" stroke="#B35047" x1="0" x2="512" y1="320" y2="320"></line><line stroke-width="1" stroke="#B35047" x1="0" x2="512" y1="352" y2="352"></line><line stroke-width="1" stroke="#B35047" x1="0" x2="512" y1="384" y2="384"></line><line stroke-width="1" stroke="#B35047" x1="0" x2="512" y1="416" y2="416"></line><line stroke-width="1" stroke="#B35047" x1="0" x2="512" y1="448" y2="448"></line><line stroke-width="1" stroke="#B35047" x1="0" x2="512" y1="480" y2="480"></line><rect x="0" y="0" width="512" height="512" fill="none" stroke-width="1" stroke="#B35047"></rect></g><path d="M 373.271,120.152C 341.80,92.96, 300.865,76.395, 255.992,76.395c-15.742,0.00-30.925,2.227-45.48,6.029 c 24.955,27.475, 47.676,60.892, 67.773,99.221C 313.223,167.217, 345.289,147.362, 373.271,120.152zM 175.117,95.79c-47.685,24.116-83.171,68.758-94.676,122.418c 56.568-2.493, 111.796-8.787, 162.414-24.081 C 223.578,159.686, 200.945,127.332, 175.117,95.79zM 308.016,246.691c 40.321-6.242, 82.812-4.863, 127.166-0.318c-2.09-39.375-16.715-75.408-40.164-104.049 c-29.31,29.702-62.77,51.82-102.496,68.052C 297.941,222.081, 303.061,234.263, 308.016,246.691zM 272.29,254.56c-4.616-10.855-9.399-21.57-14.544-32.001c-50.048,15.082-109.311,22.985-180.997,26.291 c-0.10,2.385-0.366,4.737-0.366,7.158c0.00,44.431, 16.227,85.025, 42.961,116.392C 164.938,305.565, 216.253,270.754, 272.29,254.56zM 256.00,0.00C 114.615,0.00,0.00,114.615,0.00,256.00s 114.615,256.00, 256.00,256.00s 256.00-114.615, 256.00-256.00S 397.385,0.00, 256.00,0.00z M 256.00,473.60 c-120.179,0.00-217.60-97.418-217.60-217.591S 135.823,38.40, 256.00,38.40c 120.168,0.00, 217.60,97.436, 217.60,217.608 C 473.60,376.18, 376.168,473.60, 256.00,473.60zM 319.822,278.036c 13.971,39.833, 25.66,82.745, 34.865,127.952c 42.706-28.162, 72.707-74.006, 79.456-127.154 C 391.439,273.229, 353.568,272.823, 319.822,278.036zM 145.794,397.628c 30.444,23.728, 68.615,37.977, 110.195,37.977c 22.74,0.00, 44.398-4.384, 64.425-12.093 c-8.621-50.46-20.481-95.812-35.752-137.66C 227.517,303.002, 183.087,339.689, 145.794,397.628z" ></path></svg>