<?xml version="1.0" encoding="utf-8"?> <!-- Generator: IcoMoon.io --> <!DOCTYPE svg PUBLIC "-//W3C//DTD SVG 1.1//EN" "http://www.w3.org/Graphics/SVG/1.1/DTD/svg11.dtd"> <svg width="512" height="512" viewBox="0 0 512 512" xmlns="http://www.w3.org/2000/svg" xmlns:xlink="http://www.w3.org/1999/xlink" fill="#000000"><g class="svgGrid" id="svgGrid"><line stroke-width="1" stroke="#B35047" x1="32" x2="32" y1="0" y2="512"></line><line stroke-width="1" stroke="#B35047" x1="64" x2="64" y1="0" y2="512"></line><line stroke-width="1" stroke="#B35047" x1="96" x2="96" y1="0" y2="512"></line><line stroke-width="1" stroke="#B35047" x1="128" x2="128" y1="0" y2="512"></line><line stroke-width="1" stroke="#B35047" x1="160" x2="160" y1="0" y2="512"></line><line stroke-width="1" stroke="#B35047" x1="192" x2="192" y1="0" y2="512"></line><line stroke-width="1" stroke="#B35047" x1="224" x2="224" y1="0" y2="512"></line><line stroke-width="1" stroke="#B35047" x1="256" x2="256" y1="0" y2="512"></line><line stroke-width="1" stroke="#B35047" x1="288" x2="288" y1="0" y2="512"></line><line stroke-width="1" stroke="#B35047" x1="320" x2="320" y1="0" y2="512"></line><line stroke-width="1" stroke="#B35047" x1="352" x2="352" y1="0" y2="512"></line><line stroke-width="1" stroke="#B35047" x1="384" x2="384" y1="0" y2="512"></line><line stroke-width="1" stroke="#B35047" x1="416" x2="416" y1="0" y2="512"></line><line stroke-width="1" stroke="#B35047" x1="448" x2="448" y1="0" y2="512"></line><line stroke-width="1" stroke="#B35047" x1="480" x2="480" y1="0" y2="512"></line><line stroke-width="1" stroke="#B35047" x1="0" x2="512" y1="32" y2="32"></line><line stroke-width="1" stroke="#B35047" x1="0" x2="512" y1="64" y2="64"></line><line stroke-width="1" stroke="#B35047" x1="0" x2="512" y1="96" y2="96"></line><line stroke-width="1" stroke="#B35047" x1="0" x2="512" y1="128" y2="128"></line><line stroke-width="1" stroke="#B35047" x1="0" x2="512" y1="160" y2="160"></line><line stroke-width="1" stroke="#B35047" x1="0" x2="512" y1="192" y2="192"></line><line stroke-width="1" stroke="#B35047" x1="0" x2="512" y1="224" y2="224"></line><line stroke-width="1" stroke="#B35047" x1="0" x2="512" y1="256" y2="256"></line><line stroke-width="1" stroke="#B35047" x1="0" x2="512" y1="288" y2="288"></line><line stroke-width="1" stroke="#B35047" x1="0" x2="512" y1="320" y2="320"></line><line stroke-width="1" stroke="#B35047" x1="0" x2="512" y1="352" y2="352"></line><line stroke-width="1" stroke="#B35047" x1="0" x2="512" y1="384" y2="384"></line><line stroke-width="1" stroke="#B35047" x1="0" x2="512" y1="416" y2="416"></line><line stroke-width="1" stroke="#B35047" x1="0" x2="512" y1="448" y2="448"></line><line stroke-width="1" stroke="#B35047" x1="0" x2="512" y1="480" y2="480"></line><rect x="0" y="0" width="512" height="512" fill="none" stroke-width="1" stroke="#B35047"></rect></g><path d="M 256.001,512.00C 114.841,512.00,0.00,397.159,0.00,256.00S 114.841,0.00, 256.001,0.00 C 397.162,0.00, 512.00,114.841, 512.00,256.00S 397.162,512.00, 256.001,512.00z M 471.899,291.043c-7.481-2.36-67.682-20.316-136.205-9.349 c 28.602,78.593, 40.239,142.604, 42.479,155.904C 427.23,404.43, 462.152,351.885, 471.899,291.043z M 341.416,457.619 c-3.253-19.185-15.949-86.045-46.649-165.82c-0.48,0.164-0.961,0.32-1.44,0.486c-123.335,42.979-167.608,128.508-171.543,136.552 c 37.075,28.912, 83.668,46.16, 134.218,46.16C 286.292,474.997, 315.161,468.802, 341.416,457.619z M 93.549,402.539 c 4.954-8.48, 64.965-107.842, 177.738-144.297c 2.852-0.92, 5.724-1.785, 8.618-2.60c-5.49-12.422-11.47-24.857-17.728-37.108 c-109.199,32.68-215.162,31.315-224.73,31.118c-0.066,2.221-0.111,4.445-0.111,6.683C 37.336,312.495, 58.626,363.772, 93.549,402.539z M 41.956,211.548c 9.779,0.13, 99.868,0.521, 202.151-26.641c-36.23-64.406-75.306-118.555-81.071-126.46 C 101.862,87.301, 56.135,143.695, 41.956,211.548z M 204.759,43.75c 6.044,8.092, 45.759,62.174, 81.59,128.007 c 77.754-29.142, 110.67-73.385, 114.604-78.987c-38.615-34.259-89.391-55.10-144.951-55.10C 238.357,37.67, 221.202,39.786, 204.759,43.75z M 425.261,118.056c-4.608,6.237-41.252,53.209-122.101,86.217c 5.089,10.416, 9.967,21.009, 14.508,31.672 c 1.608,3.78, 3.177,7.542, 4.709,11.285c 72.759-9.149, 145.052,5.514, 152.263,7.039C 474.156,202.657, 455.715,155.264, 425.261,118.056z" ></path></svg>