<?xml version="1.0" encoding="utf-8"?> <!-- Generator: IcoMoon.io --> <!DOCTYPE svg PUBLIC "-//W3C//DTD SVG 1.1//EN" "http://www.w3.org/Graphics/SVG/1.1/DTD/svg11.dtd"> <svg width="512" height="512" viewBox="0 0 512 512" xmlns="http://www.w3.org/2000/svg" xmlns:xlink="http://www.w3.org/1999/xlink" fill="#000000"><g class="svgGrid" id="svgGrid"><line stroke-width="1" stroke="#B35047" x1="32" x2="32" y1="0" y2="512"></line><line stroke-width="1" stroke="#B35047" x1="64" x2="64" y1="0" y2="512"></line><line stroke-width="1" stroke="#B35047" x1="96" x2="96" y1="0" y2="512"></line><line stroke-width="1" stroke="#B35047" x1="128" x2="128" y1="0" y2="512"></line><line stroke-width="1" stroke="#B35047" x1="160" x2="160" y1="0" y2="512"></line><line stroke-width="1" stroke="#B35047" x1="192" x2="192" y1="0" y2="512"></line><line stroke-width="1" stroke="#B35047" x1="224" x2="224" y1="0" y2="512"></line><line stroke-width="1" stroke="#B35047" x1="256" x2="256" y1="0" y2="512"></line><line stroke-width="1" stroke="#B35047" x1="288" x2="288" y1="0" y2="512"></line><line stroke-width="1" stroke="#B35047" x1="320" x2="320" y1="0" y2="512"></line><line stroke-width="1" stroke="#B35047" x1="352" x2="352" y1="0" y2="512"></line><line stroke-width="1" stroke="#B35047" x1="384" x2="384" y1="0" y2="512"></line><line stroke-width="1" stroke="#B35047" x1="416" x2="416" y1="0" y2="512"></line><line stroke-width="1" stroke="#B35047" x1="448" x2="448" y1="0" y2="512"></line><line stroke-width="1" stroke="#B35047" x1="480" x2="480" y1="0" y2="512"></line><line stroke-width="1" stroke="#B35047" x1="0" x2="512" y1="32" y2="32"></line><line stroke-width="1" stroke="#B35047" x1="0" x2="512" y1="64" y2="64"></line><line stroke-width="1" stroke="#B35047" x1="0" x2="512" y1="96" y2="96"></line><line stroke-width="1" stroke="#B35047" x1="0" x2="512" y1="128" y2="128"></line><line stroke-width="1" stroke="#B35047" x1="0" x2="512" y1="160" y2="160"></line><line stroke-width="1" stroke="#B35047" x1="0" x2="512" y1="192" y2="192"></line><line stroke-width="1" stroke="#B35047" x1="0" x2="512" y1="224" y2="224"></line><line stroke-width="1" stroke="#B35047" x1="0" x2="512" y1="256" y2="256"></line><line stroke-width="1" stroke="#B35047" x1="0" x2="512" y1="288" y2="288"></line><line stroke-width="1" stroke="#B35047" x1="0" x2="512" y1="320" y2="320"></line><line stroke-width="1" stroke="#B35047" x1="0" x2="512" y1="352" y2="352"></line><line stroke-width="1" stroke="#B35047" x1="0" x2="512" y1="384" y2="384"></line><line stroke-width="1" stroke="#B35047" x1="0" x2="512" y1="416" y2="416"></line><line stroke-width="1" stroke="#B35047" x1="0" x2="512" y1="448" y2="448"></line><line stroke-width="1" stroke="#B35047" x1="0" x2="512" y1="480" y2="480"></line><rect x="0" y="0" width="512" height="512" fill="none" stroke-width="1" stroke="#B35047"></rect></g><path d="M 447.97,316.751c-0.006-0.353-0.015-0.701-0.021-1.053c-0.016-0.714-0.035-1.427-0.059-2.14C 442.875,155.734, 256.00,0.00, 256.00,0.00 S 69.123,155.734, 64.11,313.561c-0.022,0.715-0.044,1.426-0.06,2.141c-0.007,0.352-0.015,0.701-0.021,1.053 c-0.018,1.08-0.028,2.162-0.028,3.248c0.00,1.184, 0.014,2.361, 0.035,3.539c 0.002,0.098, 0.003,0.195, 0.007,0.293 C 66.082,428.101, 151.241,512.00, 256.00,512.00c 104.758,0.00, 189.916-83.899, 191.959-188.168c 0.002-0.098, 0.004-0.196, 0.005-0.293 c 0.021-1.178, 0.036-2.357, 0.036-3.539C 448.00,318.914, 447.988,317.832, 447.97,316.751z M 383.975,322.37l-0.004,0.203 c-0.659,33.643-14.266,65.167-38.313,88.774C 321.587,434.983, 289.743,448.00, 256.00,448.00c-6.231,0.00-12.397-0.447-18.462-1.319 c 69.528-41.423, 116.108-117.352, 116.108-204.161c0.00-9.728-0.59-19.317-1.726-28.74c 20.136,36.97, 31.032,71.40, 32.001,101.813 l 0.002,0.072c 0.016,0.474, 0.026,0.946, 0.039,1.422l 0.014,0.724C 383.99,318.539, 384.00,319.27, 384.00,320.00 C 384.00,320.792, 383.99,321.581, 383.975,322.37z" ></path></svg>