<?xml version="1.0" encoding="utf-8"?> <!-- Generator: IcoMoon.io --> <!DOCTYPE svg PUBLIC "-//W3C//DTD SVG 1.1//EN" "http://www.w3.org/Graphics/SVG/1.1/DTD/svg11.dtd"> <svg width="512" height="512" viewBox="0 0 512 512" xmlns="http://www.w3.org/2000/svg" xmlns:xlink="http://www.w3.org/1999/xlink" fill="#000000"><g class="svgGrid" id="svgGrid"><line stroke-width="1" stroke="#B35047" x1="32" x2="32" y1="0" y2="512"></line><line stroke-width="1" stroke="#B35047" x1="64" x2="64" y1="0" y2="512"></line><line stroke-width="1" stroke="#B35047" x1="96" x2="96" y1="0" y2="512"></line><line stroke-width="1" stroke="#B35047" x1="128" x2="128" y1="0" y2="512"></line><line stroke-width="1" stroke="#B35047" x1="160" x2="160" y1="0" y2="512"></line><line stroke-width="1" stroke="#B35047" x1="192" x2="192" y1="0" y2="512"></line><line stroke-width="1" stroke="#B35047" x1="224" x2="224" y1="0" y2="512"></line><line stroke-width="1" stroke="#B35047" x1="256" x2="256" y1="0" y2="512"></line><line stroke-width="1" stroke="#B35047" x1="288" x2="288" y1="0" y2="512"></line><line stroke-width="1" stroke="#B35047" x1="320" x2="320" y1="0" y2="512"></line><line stroke-width="1" stroke="#B35047" x1="352" x2="352" y1="0" y2="512"></line><line stroke-width="1" stroke="#B35047" x1="384" x2="384" y1="0" y2="512"></line><line stroke-width="1" stroke="#B35047" x1="416" x2="416" y1="0" y2="512"></line><line stroke-width="1" stroke="#B35047" x1="448" x2="448" y1="0" y2="512"></line><line stroke-width="1" stroke="#B35047" x1="480" x2="480" y1="0" y2="512"></line><line stroke-width="1" stroke="#B35047" x1="0" x2="512" y1="32" y2="32"></line><line stroke-width="1" stroke="#B35047" x1="0" x2="512" y1="64" y2="64"></line><line stroke-width="1" stroke="#B35047" x1="0" x2="512" y1="96" y2="96"></line><line stroke-width="1" stroke="#B35047" x1="0" x2="512" y1="128" y2="128"></line><line stroke-width="1" stroke="#B35047" x1="0" x2="512" y1="160" y2="160"></line><line stroke-width="1" stroke="#B35047" x1="0" x2="512" y1="192" y2="192"></line><line stroke-width="1" stroke="#B35047" x1="0" x2="512" y1="224" y2="224"></line><line stroke-width="1" stroke="#B35047" x1="0" x2="512" y1="256" y2="256"></line><line stroke-width="1" stroke="#B35047" x1="0" x2="512" y1="288" y2="288"></line><line stroke-width="1" stroke="#B35047" x1="0" x2="512" y1="320" y2="320"></line><line stroke-width="1" stroke="#B35047" x1="0" x2="512" y1="352" y2="352"></line><line stroke-width="1" stroke="#B35047" x1="0" x2="512" y1="384" y2="384"></line><line stroke-width="1" stroke="#B35047" x1="0" x2="512" y1="416" y2="416"></line><line stroke-width="1" stroke="#B35047" x1="0" x2="512" y1="448" y2="448"></line><line stroke-width="1" stroke="#B35047" x1="0" x2="512" y1="480" y2="480"></line><rect x="0" y="0" width="512" height="512" fill="none" stroke-width="1" stroke="#B35047"></rect></g><path d="M 437.02,74.981 C 485.371,123.333 512.00,187.621 512.00,256.001 C 512.00,324.381 485.371,388.668 437.02,437.02 C 388.667,485.371 324.38,512.00 256.00,512.00 C 187.62,512.00 123.333,485.371 74.98,437.02 C 26.629,388.668 0.00,324.381 0.00,256.001 C 0.00,187.621 26.627,123.333 74.98,74.981 C 123.333,26.629 187.62,0.00 256.00,0.00 C 324.38,0.00 388.667,26.629 437.02,74.981 Z M 414.392,414.393 C 445.921,382.863 466.885,343.589 475.528,300.862 C 468.791,310.78 462.347,314.459 458.356,292.259 C 454.246,256.064 421.002,279.185 400.098,266.329 C 378.096,281.158 328.645,237.498 337.049,286.741 C 350.016,308.952 407.053,257.016 378.623,304.012 C 360.486,336.82 312.302,409.478 318.57,447.141 C 319.361,502.013 262.503,458.583 242.913,440.381 C 229.735,403.921 238.422,340.194 203.964,322.338 C 166.563,320.714 134.462,317.315 119.967,275.503 C 111.244,245.589 129.249,201.056 161.306,194.181 C 208.231,164.698 224.993,228.708 269.001,229.898 C 282.665,215.601 319.909,211.055 322.997,195.023 C 294.122,189.928 359.631,170.744 320.233,159.832 C 298.498,162.388 284.494,182.369 296.049,199.311 C 253.93,209.132 252.581,138.359 212.094,160.682 C 211.065,195.977 145.983,172.125 189.576,164.968 C 204.554,158.424 165.146,139.46 186.436,142.906 C 196.894,142.338 232.102,130.00 222.574,121.705 C 242.179,109.535 258.654,150.85 277.843,120.764 C 291.697,97.631 272.033,93.36 254.668,105.086 C 244.878,94.124 271.953,70.448 295.834,60.217 C 303.793,56.807 311.395,54.949 317.207,55.475 C 329.236,69.371 351.482,71.778 352.646,53.804 C 322.855,39.537 290.008,32.00 256.00,32.00 C 207.189,32.00 160.765,47.512 122.346,76.195 C 132.671,80.925 138.532,86.814 128.585,94.343 C 120.857,117.37 89.50,148.281 61.973,143.905 C 47.68,168.553 38.267,195.708 34.243,224.169 C 57.299,231.797 62.615,246.894 57.661,251.944 C 45.913,262.188 38.693,276.709 34.973,292.605 C 42.478,338.523 64.059,380.843 97.608,414.393 C 139.916,456.70 196.167,480.00 256.00,480.00 C 315.832,480.00 372.084,456.70 414.392,414.393 Z" ></path></svg>