<?xml version="1.0" encoding="utf-8"?> <!-- Generator: IcoMoon --> <!DOCTYPE svg PUBLIC "-//W3C//DTD SVG 1.1//EN" "http://www.w3.org/Graphics/SVG/1.1/DTD/svg11.dtd"> <svg width="512" height="512" viewBox="0 0 512 512" data-tags="equalizer, control, options, settings, dashboard" fill="#000000"><g class="svgGrid" id="svgGrid"><line stroke-width="1" stroke="#B35047" x1="32" x2="32" y1="0" y2="512"></line><line stroke-width="1" stroke="#B35047" x1="64" x2="64" y1="0" y2="512"></line><line stroke-width="1" stroke="#B35047" x1="96" x2="96" y1="0" y2="512"></line><line stroke-width="1" stroke="#B35047" x1="128" x2="128" y1="0" y2="512"></line><line stroke-width="1" stroke="#B35047" x1="160" x2="160" y1="0" y2="512"></line><line stroke-width="1" stroke="#B35047" x1="192" x2="192" y1="0" y2="512"></line><line stroke-width="1" stroke="#B35047" x1="224" x2="224" y1="0" y2="512"></line><line stroke-width="1" stroke="#B35047" x1="256" x2="256" y1="0" y2="512"></line><line stroke-width="1" stroke="#B35047" x1="288" x2="288" y1="0" y2="512"></line><line stroke-width="1" stroke="#B35047" x1="320" x2="320" y1="0" y2="512"></line><line stroke-width="1" stroke="#B35047" x1="352" x2="352" y1="0" y2="512"></line><line stroke-width="1" stroke="#B35047" x1="384" x2="384" y1="0" y2="512"></line><line stroke-width="1" stroke="#B35047" x1="416" x2="416" y1="0" y2="512"></line><line stroke-width="1" stroke="#B35047" x1="448" x2="448" y1="0" y2="512"></line><line stroke-width="1" stroke="#B35047" x1="480" x2="480" y1="0" y2="512"></line><line stroke-width="1" stroke="#B35047" x1="0" x2="512" y1="32" y2="32"></line><line stroke-width="1" stroke="#B35047" x1="0" x2="512" y1="64" y2="64"></line><line stroke-width="1" stroke="#B35047" x1="0" x2="512" y1="96" y2="96"></line><line stroke-width="1" stroke="#B35047" x1="0" x2="512" y1="128" y2="128"></line><line stroke-width="1" stroke="#B35047" x1="0" x2="512" y1="160" y2="160"></line><line stroke-width="1" stroke="#B35047" x1="0" x2="512" y1="192" y2="192"></line><line stroke-width="1" stroke="#B35047" x1="0" x2="512" y1="224" y2="224"></line><line stroke-width="1" stroke="#B35047" x1="0" x2="512" y1="256" y2="256"></line><line stroke-width="1" stroke="#B35047" x1="0" x2="512" y1="288" y2="288"></line><line stroke-width="1" stroke="#B35047" x1="0" x2="512" y1="320" y2="320"></line><line stroke-width="1" stroke="#B35047" x1="0" x2="512" y1="352" y2="352"></line><line stroke-width="1" stroke="#B35047" x1="0" x2="512" y1="384" y2="384"></line><line stroke-width="1" stroke="#B35047" x1="0" x2="512" y1="416" y2="416"></line><line stroke-width="1" stroke="#B35047" x1="0" x2="512" y1="448" y2="448"></line><line stroke-width="1" stroke="#B35047" x1="0" x2="512" y1="480" y2="480"></line><rect x="0" y="0" width="512" height="512" fill="none" stroke-width="1" stroke="#B35047"></rect></g><path d="M 144.00,160.00L 80.00,160.00 c-8.80,0.00-16.00,7.20-16.00,16.00l0.00,32.00 c0.00,8.80, 7.20,16.00, 16.00,16.00l 64.00,0.00 c 8.80,0.00, 16.00-7.20, 16.00-16.00l0.00-32.00 C 160.00,167.20, 152.80,160.00, 144.00,160.00zM 96.00,64.00L 128.00,64.00L 128.00,144.00L 96.00,144.00zM 96.00,240.00L 128.00,240.00L 128.00,448.00L 96.00,448.00zM 272.00,288.00l-64.00,0.00 c-8.80,0.00-16.00,7.20-16.00,16.00l0.00,32.00 c0.00,8.80, 7.20,16.00, 16.00,16.00l 64.00,0.00 c 8.801,0.00, 16.00-7.20, 16.00-16.00l0.00-32.00 C 288.00,295.20, 280.801,288.00, 272.00,288.00zM 224.001,64.00L 256.001,64.00L 256.001,272.00L 224.001,272.00zM 224.001,368.00L 256.001,368.00L 256.001,448.00L 224.001,448.00zM 400.00,192.00l-64.00,0.00 c-8.799,0.00-16.00,7.20-16.00,16.00l0.00,32.00 c0.00,8.80, 7.201,16.00, 16.00,16.00l 64.00,0.00 c 8.801,0.00, 16.00-7.20, 16.00-16.00l0.00-32.00 C 416.00,199.20, 408.801,192.00, 400.00,192.00zM 352.00,64.00L 384.00,64.00L 384.00,176.00L 352.00,176.00zM 352.00,272.00L 384.00,272.00L 384.00,448.00L 352.00,448.00zM 440.00,0.00L 40.00,0.00 C 17.944,0.00,0.00,17.944,0.00,40.00l0.00,432.00 c0.00,22.056, 17.944,40.00, 40.00,40.00l 400.00,0.00 c 22.056,0.00, 40.00-17.944, 40.00-40.00L 480.00,40.00 C 480.00,17.944, 462.056,0.00, 440.00,0.00z M 448.00,472.00c0.00,4.40-3.60,8.00-8.00,8.00L 40.00,480.00 c-4.40,0.00-8.00-3.60-8.00-8.00L 32.00,40.00 c0.00-4.40, 3.60-8.00, 8.00-8.00l 400.00,0.00 c 4.40,0.00, 8.00,3.60, 8.00,8.00L 448.00,472.00 z" ></path></svg>