<?xml version="1.0" encoding="utf-8"?> <!-- Generator: IcoMoon.io --> <!DOCTYPE svg PUBLIC "-//W3C//DTD SVG 1.1//EN" "http://www.w3.org/Graphics/SVG/1.1/DTD/svg11.dtd"> <svg width="512" height="512" viewBox="0 0 512 512" xmlns="http://www.w3.org/2000/svg" xmlns:xlink="http://www.w3.org/1999/xlink" fill="#000000"><g class="svgGrid" id="svgGrid"><line stroke-width="1" stroke="#B35047" x1="32" x2="32" y1="0" y2="512"></line><line stroke-width="1" stroke="#B35047" x1="64" x2="64" y1="0" y2="512"></line><line stroke-width="1" stroke="#B35047" x1="96" x2="96" y1="0" y2="512"></line><line stroke-width="1" stroke="#B35047" x1="128" x2="128" y1="0" y2="512"></line><line stroke-width="1" stroke="#B35047" x1="160" x2="160" y1="0" y2="512"></line><line stroke-width="1" stroke="#B35047" x1="192" x2="192" y1="0" y2="512"></line><line stroke-width="1" stroke="#B35047" x1="224" x2="224" y1="0" y2="512"></line><line stroke-width="1" stroke="#B35047" x1="256" x2="256" y1="0" y2="512"></line><line stroke-width="1" stroke="#B35047" x1="288" x2="288" y1="0" y2="512"></line><line stroke-width="1" stroke="#B35047" x1="320" x2="320" y1="0" y2="512"></line><line stroke-width="1" stroke="#B35047" x1="352" x2="352" y1="0" y2="512"></line><line stroke-width="1" stroke="#B35047" x1="384" x2="384" y1="0" y2="512"></line><line stroke-width="1" stroke="#B35047" x1="416" x2="416" y1="0" y2="512"></line><line stroke-width="1" stroke="#B35047" x1="448" x2="448" y1="0" y2="512"></line><line stroke-width="1" stroke="#B35047" x1="480" x2="480" y1="0" y2="512"></line><line stroke-width="1" stroke="#B35047" x1="0" x2="512" y1="32" y2="32"></line><line stroke-width="1" stroke="#B35047" x1="0" x2="512" y1="64" y2="64"></line><line stroke-width="1" stroke="#B35047" x1="0" x2="512" y1="96" y2="96"></line><line stroke-width="1" stroke="#B35047" x1="0" x2="512" y1="128" y2="128"></line><line stroke-width="1" stroke="#B35047" x1="0" x2="512" y1="160" y2="160"></line><line stroke-width="1" stroke="#B35047" x1="0" x2="512" y1="192" y2="192"></line><line stroke-width="1" stroke="#B35047" x1="0" x2="512" y1="224" y2="224"></line><line stroke-width="1" stroke="#B35047" x1="0" x2="512" y1="256" y2="256"></line><line stroke-width="1" stroke="#B35047" x1="0" x2="512" y1="288" y2="288"></line><line stroke-width="1" stroke="#B35047" x1="0" x2="512" y1="320" y2="320"></line><line stroke-width="1" stroke="#B35047" x1="0" x2="512" y1="352" y2="352"></line><line stroke-width="1" stroke="#B35047" x1="0" x2="512" y1="384" y2="384"></line><line stroke-width="1" stroke="#B35047" x1="0" x2="512" y1="416" y2="416"></line><line stroke-width="1" stroke="#B35047" x1="0" x2="512" y1="448" y2="448"></line><line stroke-width="1" stroke="#B35047" x1="0" x2="512" y1="480" y2="480"></line><rect x="0" y="0" width="512" height="512" fill="none" stroke-width="1" stroke="#B35047"></rect></g><path d="M 512.00,32.00c0.00-22.758-4.762-44.40-13.326-64.00c-16.788,38.418-48.224,68.966-87.247,84.589C 368.33,19.609, 314.459,0.00, 256.00,0.00 S 143.67,19.609, 100.573,52.589C 61.549,36.966, 30.114,6.418, 13.326-32.00C 4.762-12.40,0.00,9.242,0.00,32.00c0.00,36.787, 12.425,70.664, 33.294,97.689 C 12.109,166.96,0.00,210.064,0.00,256.00c0.00,141.385, 114.615,256.00, 256.00,256.00s 256.00-114.615, 256.00-256.00c0.00-45.936-12.109-89.04-33.294-126.311 C 499.575,102.664, 512.00,68.787, 512.00,32.00z M 288.047,190.258c 1.016-23.727, 22.605-39.474, 40.796-48.569 c 17.371-8.686, 34.552-13.03, 35.274-13.211c 8.573-2.144, 17.26,3.069, 19.403,11.642c 2.143,8.573-3.069,17.259-11.642,19.403 c-8.812,2.225-19.261,6.06-28.468,10.675c 5.324,5.715, 8.587,13.376, 8.587,21.803c0.00,17.673-14.327,32.00-32.00,32.00s-32.00-14.327-32.00-32.00 C 287.998,191.416, 288.016,190.835, 288.047,190.258z M 128.479,140.12c 2.144-8.573, 10.83-13.786, 19.403-11.642 c 0.723,0.181, 17.903,4.526, 35.274,13.211c 18.19,9.096, 39.78,24.842, 40.796,48.569c 0.031,0.577, 0.049,1.157, 0.049,1.742 c0.00,17.673-14.327,32.00-32.00,32.00s-32.00-14.327-32.00-32.00c0.00-8.427, 3.263-16.088, 8.587-21.803c-9.207-4.615-19.655-8.45-28.468-10.675 C 131.549,157.379, 126.337,148.692, 128.479,140.12z M 256.00,416.00c-58.255,0.00-109.232-31.137-137.213-77.672l 41.164-24.698 C 179.538,346.204, 215.222,368.00, 256.00,368.00c 40.777,0.00, 76.462-21.796, 96.049-54.37l 41.164,24.698C 365.232,384.863, 314.255,416.00, 256.00,416.00z" ></path></svg>