<?xml version="1.0" encoding="utf-8"?> <!-- Generator: IcoMoon --> <!DOCTYPE svg PUBLIC "-//W3C//DTD SVG 1.1//EN" "http://www.w3.org/Graphics/SVG/1.1/DTD/svg11.dtd"> <svg width="512" height="512" viewBox="0 0 512 512" data-tags="eye, views, vision" fill="#000000"><g class="svgGrid" id="svgGrid"><line stroke-width="1" stroke="#B35047" x1="32" x2="32" y1="0" y2="512"></line><line stroke-width="1" stroke="#B35047" x1="64" x2="64" y1="0" y2="512"></line><line stroke-width="1" stroke="#B35047" x1="96" x2="96" y1="0" y2="512"></line><line stroke-width="1" stroke="#B35047" x1="128" x2="128" y1="0" y2="512"></line><line stroke-width="1" stroke="#B35047" x1="160" x2="160" y1="0" y2="512"></line><line stroke-width="1" stroke="#B35047" x1="192" x2="192" y1="0" y2="512"></line><line stroke-width="1" stroke="#B35047" x1="224" x2="224" y1="0" y2="512"></line><line stroke-width="1" stroke="#B35047" x1="256" x2="256" y1="0" y2="512"></line><line stroke-width="1" stroke="#B35047" x1="288" x2="288" y1="0" y2="512"></line><line stroke-width="1" stroke="#B35047" x1="320" x2="320" y1="0" y2="512"></line><line stroke-width="1" stroke="#B35047" x1="352" x2="352" y1="0" y2="512"></line><line stroke-width="1" stroke="#B35047" x1="384" x2="384" y1="0" y2="512"></line><line stroke-width="1" stroke="#B35047" x1="416" x2="416" y1="0" y2="512"></line><line stroke-width="1" stroke="#B35047" x1="448" x2="448" y1="0" y2="512"></line><line stroke-width="1" stroke="#B35047" x1="480" x2="480" y1="0" y2="512"></line><line stroke-width="1" stroke="#B35047" x1="0" x2="512" y1="32" y2="32"></line><line stroke-width="1" stroke="#B35047" x1="0" x2="512" y1="64" y2="64"></line><line stroke-width="1" stroke="#B35047" x1="0" x2="512" y1="96" y2="96"></line><line stroke-width="1" stroke="#B35047" x1="0" x2="512" y1="128" y2="128"></line><line stroke-width="1" stroke="#B35047" x1="0" x2="512" y1="160" y2="160"></line><line stroke-width="1" stroke="#B35047" x1="0" x2="512" y1="192" y2="192"></line><line stroke-width="1" stroke="#B35047" x1="0" x2="512" y1="224" y2="224"></line><line stroke-width="1" stroke="#B35047" x1="0" x2="512" y1="256" y2="256"></line><line stroke-width="1" stroke="#B35047" x1="0" x2="512" y1="288" y2="288"></line><line stroke-width="1" stroke="#B35047" x1="0" x2="512" y1="320" y2="320"></line><line stroke-width="1" stroke="#B35047" x1="0" x2="512" y1="352" y2="352"></line><line stroke-width="1" stroke="#B35047" x1="0" x2="512" y1="384" y2="384"></line><line stroke-width="1" stroke="#B35047" x1="0" x2="512" y1="416" y2="416"></line><line stroke-width="1" stroke="#B35047" x1="0" x2="512" y1="448" y2="448"></line><line stroke-width="1" stroke="#B35047" x1="0" x2="512" y1="480" y2="480"></line><rect x="0" y="0" width="512" height="512" fill="none" stroke-width="1" stroke="#B35047"></rect></g><path d="M 256.00,96.00C 144.341,96.00, 47.559,161.021,0.00,256.00c 47.559,94.979, 144.341,160.00, 256.00,160.00c 111.657,0.00, 208.439-65.021, 256.00-160.00 C 464.442,161.021, 367.657,96.00, 256.00,96.00z M 256.00,302.189c-25.51,0.00-46.189-20.682-46.189-46.189s 20.681-46.189, 46.189-46.189 s 46.188,20.681, 46.188,46.189C 302.19,281.51, 281.509,302.189, 256.00,302.189z M 121.171,344.639 C 86.304,322.398, 57.231,291.963, 36.35,256.00c 20.88-35.963, 49.953-66.397, 84.821-88.639c 19.81-12.635, 41.182-22.406, 63.521-29.043 c 11.229-3.334, 22.684-5.862, 34.281-7.586C 164.881,146.698, 125.40,196.734, 125.40,256.00c0.00,59.266, 39.481,109.303, 93.575,125.268 c-11.60-1.723-23.052-4.25-34.282-7.586C 162.353,367.045, 140.981,357.273, 121.171,344.639z M 390.827,344.639 c-19.811,12.637-41.183,22.406-63.521,29.043c-11.229,3.336-22.685,5.862-34.28,7.586C 347.117,365.303, 386.60,315.266, 386.60,256.00 c0.00-59.266-39.481-109.303-93.574-125.268c 11.598,1.724, 23.051,4.252, 34.28,7.586c 22.341,6.637, 43.713,16.408, 63.521,29.043 c 34.868,22.24, 63.94,52.676, 84.822,88.639C 454.769,291.963, 425.697,322.396, 390.827,344.639z" ></path></svg>