<?xml version="1.0" encoding="utf-8"?> <!-- Generator: IcoMoon.io --> <!DOCTYPE svg PUBLIC "-//W3C//DTD SVG 1.1//EN" "http://www.w3.org/Graphics/SVG/1.1/DTD/svg11.dtd"> <svg width="512" height="512" viewBox="0 0 512 512" xmlns="http://www.w3.org/2000/svg" xmlns:xlink="http://www.w3.org/1999/xlink" fill="#000000"><g class="svgGrid" id="svgGrid"><line stroke-width="1" stroke="#B35047" x1="32" x2="32" y1="0" y2="512"></line><line stroke-width="1" stroke="#B35047" x1="64" x2="64" y1="0" y2="512"></line><line stroke-width="1" stroke="#B35047" x1="96" x2="96" y1="0" y2="512"></line><line stroke-width="1" stroke="#B35047" x1="128" x2="128" y1="0" y2="512"></line><line stroke-width="1" stroke="#B35047" x1="160" x2="160" y1="0" y2="512"></line><line stroke-width="1" stroke="#B35047" x1="192" x2="192" y1="0" y2="512"></line><line stroke-width="1" stroke="#B35047" x1="224" x2="224" y1="0" y2="512"></line><line stroke-width="1" stroke="#B35047" x1="256" x2="256" y1="0" y2="512"></line><line stroke-width="1" stroke="#B35047" x1="288" x2="288" y1="0" y2="512"></line><line stroke-width="1" stroke="#B35047" x1="320" x2="320" y1="0" y2="512"></line><line stroke-width="1" stroke="#B35047" x1="352" x2="352" y1="0" y2="512"></line><line stroke-width="1" stroke="#B35047" x1="384" x2="384" y1="0" y2="512"></line><line stroke-width="1" stroke="#B35047" x1="416" x2="416" y1="0" y2="512"></line><line stroke-width="1" stroke="#B35047" x1="448" x2="448" y1="0" y2="512"></line><line stroke-width="1" stroke="#B35047" x1="480" x2="480" y1="0" y2="512"></line><line stroke-width="1" stroke="#B35047" x1="0" x2="512" y1="32" y2="32"></line><line stroke-width="1" stroke="#B35047" x1="0" x2="512" y1="64" y2="64"></line><line stroke-width="1" stroke="#B35047" x1="0" x2="512" y1="96" y2="96"></line><line stroke-width="1" stroke="#B35047" x1="0" x2="512" y1="128" y2="128"></line><line stroke-width="1" stroke="#B35047" x1="0" x2="512" y1="160" y2="160"></line><line stroke-width="1" stroke="#B35047" x1="0" x2="512" y1="192" y2="192"></line><line stroke-width="1" stroke="#B35047" x1="0" x2="512" y1="224" y2="224"></line><line stroke-width="1" stroke="#B35047" x1="0" x2="512" y1="256" y2="256"></line><line stroke-width="1" stroke="#B35047" x1="0" x2="512" y1="288" y2="288"></line><line stroke-width="1" stroke="#B35047" x1="0" x2="512" y1="320" y2="320"></line><line stroke-width="1" stroke="#B35047" x1="0" x2="512" y1="352" y2="352"></line><line stroke-width="1" stroke="#B35047" x1="0" x2="512" y1="384" y2="384"></line><line stroke-width="1" stroke="#B35047" x1="0" x2="512" y1="416" y2="416"></line><line stroke-width="1" stroke="#B35047" x1="0" x2="512" y1="448" y2="448"></line><line stroke-width="1" stroke="#B35047" x1="0" x2="512" y1="480" y2="480"></line><rect x="0" y="0" width="512" height="512" fill="none" stroke-width="1" stroke="#B35047"></rect></g><path d="M 419.661,148.208 C 458.483,175.723 490.346,212.754 512.00,256.00 C 464.439,350.979 367.657,416.00 256.00,416.00 C 224.717,416.00 194.604,410.894 166.411,401.458 L 205.389,362.48 C 221.918,366.13 238.875,368.00 256.00,368.00 C 300.779,368.00 344.427,355.257 382.223,331.148 C 412.304,311.96 437.795,286.26 456.941,255.999 C 438.415,226.716 413.934,201.724 385.116,182.752 L 419.661,148.208 ZM 256.00,349.00 C 244.638,349.00 233.624,347.512 223.136,344.733 L 379.729,188.141 C 382.51,198.627 384.00,209.638 384.00,221.00 C 384.00,291.692 326.692,349.00 256.00,349.00 ZM 480.00,0.00l-26.869,0.00 L 343.325,109.806C 315.787,100.844, 286.448,96.00, 256.00,96.00C 144.341,96.00, 47.559,161.021,0.00,256.00 c 21.329,42.596, 52.564,79.154, 90.597,106.534L0.00,453.131L0.00,480.00 l 26.869,0.00 L 480.00,26.869L 480.00,0.00 z M 208.00,157.00c 24.022,0.00, 43.923,17.647, 47.446,40.685 l-54.762,54.762C 177.647,248.923, 160.00,229.022, 160.00,205.00C 160.00,178.49, 181.49,157.00, 208.00,157.00z M 55.058,256.00 c 19.146-30.262, 44.637-55.962, 74.717-75.148c 1.959-1.25, 3.938-2.461, 5.929-3.65C 130.725,190.866, 128.00,205.613, 128.00,221.00 c0.00,29.262, 9.825,56.224, 26.349,77.781l-29.275,29.275C 97.038,309.235, 73.197,284.67, 55.058,256.00z" ></path></svg>