<?xml version="1.0" encoding="utf-8"?> <!-- Generator: IcoMoon.io --> <!DOCTYPE svg PUBLIC "-//W3C//DTD SVG 1.1//EN" "http://www.w3.org/Graphics/SVG/1.1/DTD/svg11.dtd"> <svg width="512" height="512" viewBox="0 0 512 512" xmlns="http://www.w3.org/2000/svg" xmlns:xlink="http://www.w3.org/1999/xlink" fill="#000000"><g class="svgGrid" id="svgGrid"><line stroke-width="1" stroke="#B35047" x1="32" x2="32" y1="0" y2="512"></line><line stroke-width="1" stroke="#B35047" x1="64" x2="64" y1="0" y2="512"></line><line stroke-width="1" stroke="#B35047" x1="96" x2="96" y1="0" y2="512"></line><line stroke-width="1" stroke="#B35047" x1="128" x2="128" y1="0" y2="512"></line><line stroke-width="1" stroke="#B35047" x1="160" x2="160" y1="0" y2="512"></line><line stroke-width="1" stroke="#B35047" x1="192" x2="192" y1="0" y2="512"></line><line stroke-width="1" stroke="#B35047" x1="224" x2="224" y1="0" y2="512"></line><line stroke-width="1" stroke="#B35047" x1="256" x2="256" y1="0" y2="512"></line><line stroke-width="1" stroke="#B35047" x1="288" x2="288" y1="0" y2="512"></line><line stroke-width="1" stroke="#B35047" x1="320" x2="320" y1="0" y2="512"></line><line stroke-width="1" stroke="#B35047" x1="352" x2="352" y1="0" y2="512"></line><line stroke-width="1" stroke="#B35047" x1="384" x2="384" y1="0" y2="512"></line><line stroke-width="1" stroke="#B35047" x1="416" x2="416" y1="0" y2="512"></line><line stroke-width="1" stroke="#B35047" x1="448" x2="448" y1="0" y2="512"></line><line stroke-width="1" stroke="#B35047" x1="480" x2="480" y1="0" y2="512"></line><line stroke-width="1" stroke="#B35047" x1="0" x2="512" y1="32" y2="32"></line><line stroke-width="1" stroke="#B35047" x1="0" x2="512" y1="64" y2="64"></line><line stroke-width="1" stroke="#B35047" x1="0" x2="512" y1="96" y2="96"></line><line stroke-width="1" stroke="#B35047" x1="0" x2="512" y1="128" y2="128"></line><line stroke-width="1" stroke="#B35047" x1="0" x2="512" y1="160" y2="160"></line><line stroke-width="1" stroke="#B35047" x1="0" x2="512" y1="192" y2="192"></line><line stroke-width="1" stroke="#B35047" x1="0" x2="512" y1="224" y2="224"></line><line stroke-width="1" stroke="#B35047" x1="0" x2="512" y1="256" y2="256"></line><line stroke-width="1" stroke="#B35047" x1="0" x2="512" y1="288" y2="288"></line><line stroke-width="1" stroke="#B35047" x1="0" x2="512" y1="320" y2="320"></line><line stroke-width="1" stroke="#B35047" x1="0" x2="512" y1="352" y2="352"></line><line stroke-width="1" stroke="#B35047" x1="0" x2="512" y1="384" y2="384"></line><line stroke-width="1" stroke="#B35047" x1="0" x2="512" y1="416" y2="416"></line><line stroke-width="1" stroke="#B35047" x1="0" x2="512" y1="448" y2="448"></line><line stroke-width="1" stroke="#B35047" x1="0" x2="512" y1="480" y2="480"></line><rect x="0" y="0" width="512" height="512" fill="none" stroke-width="1" stroke="#B35047"></rect></g><path d="M 256.00,160.00C 151.316,160.00, 58.378,210.278,0.00,288.00c 58.378,77.723, 151.316,128.00, 256.00,128.00c 104.684,0.00, 197.622-50.277, 256.00-128.00 C 453.622,210.278, 360.684,160.00, 256.00,160.00z M 224.00,224.00c 17.673,0.00, 32.00,14.327, 32.00,32.00s-14.327,32.00-32.00,32.00s-32.00-14.327-32.00-32.00S 206.327,224.00, 224.00,224.00z M 386.808,352.648c-19.824,10.129-40.826,17.931-62.423,23.188C 302.141,381.254, 279.134,384.00, 256.00,384.00 c-23.133,0.00-46.141-2.746-68.384-8.162c-21.597-5.259-42.599-13.061-62.423-23.188c-31.51-16.101-60.111-38.205-83.82-64.649 c 23.709-26.444, 52.31-48.55, 83.82-64.649c 16.168-8.261, 33.121-14.973, 50.541-20.02C 165.79,218.453, 160.00,236.549, 160.00,256.00 c0.00,53.02, 42.981,96.00, 96.00,96.00c 53.019,0.00, 96.00-42.98, 96.00-96.00c0.00-19.451-5.791-37.547-15.733-52.67c 17.419,5.048, 34.372,11.76, 50.541,20.021 c 31.511,16.099, 60.109,38.204, 83.819,64.649C 446.917,314.443, 418.318,336.55, 386.808,352.648z M 430.459,121.861 C 376.099,94.084, 317.403,80.00, 256.00,80.00c-61.403,0.00-120.099,14.084-174.459,41.861C 52.155,136.877, 24.675,155.813,0.00,177.899l0.00,54.603 c 27.669-29.283, 60.347-53.877, 96.097-72.145C 145.907,134.905, 199.706,122.00, 256.00,122.00s 110.093,12.905, 159.902,38.358 c 35.751,18.268, 68.429,42.862, 96.098,72.145L 512.00,177.90 C 487.325,155.813, 459.846,136.877, 430.459,121.861z" ></path></svg>