<?xml version="1.0" encoding="utf-8"?>
<!-- Generator: Adobe Illustrator 15.0.0, SVG Export Plug-In . SVG Version: 6.00 Build 0)  -->
<!DOCTYPE svg PUBLIC "-//W3C//DTD SVG 1.1//EN" "http://www.w3.org/Graphics/SVG/1.1/DTD/svg11.dtd">
<svg version="1.1" id="Layer_1" xmlns="http://www.w3.org/2000/svg" xmlns:xlink="http://www.w3.org/1999/xlink" x="0px" y="0px"
	 width="512px" height="512px" viewBox="0 0 512 512" enable-background="new 0 0 512 512" xml:space="preserve">
<g id="Grid_1_">
	<g id="Layer_1_1_">
		<g id="Grid">
			<g>
				<rect x="0" fill="none" stroke="#A9CCDB" stroke-miterlimit="10" width="512" height="512"/>
				<line fill="none" stroke="#A9CCDB" stroke-miterlimit="10" x1="0" y1="480" x2="512" y2="480"/>
				<line fill="none" stroke="#A9CCDB" stroke-miterlimit="10" x1="0" y1="448" x2="512" y2="448"/>
				<line fill="none" stroke="#A9CCDB" stroke-miterlimit="10" x1="0" y1="416" x2="512" y2="416"/>
				<line fill="none" stroke="#A9CCDB" stroke-miterlimit="10" x1="0" y1="384" x2="512" y2="384"/>
				<line fill="none" stroke="#A9CCDB" stroke-miterlimit="10" x1="0" y1="352" x2="512" y2="352"/>
				<line fill="none" stroke="#A9CCDB" stroke-miterlimit="10" x1="0" y1="320" x2="512" y2="320"/>
				<line fill="none" stroke="#A9CCDB" stroke-miterlimit="10" x1="0" y1="288" x2="512" y2="288"/>
				<line fill="none" stroke="#A9CCDB" stroke-miterlimit="10" x1="0" y1="256" x2="512" y2="256"/>
				<line fill="none" stroke="#A9CCDB" stroke-miterlimit="10" x1="0" y1="224" x2="512" y2="224"/>
				<line fill="none" stroke="#A9CCDB" stroke-miterlimit="10" x1="0" y1="192" x2="512" y2="192"/>
				<line fill="none" stroke="#A9CCDB" stroke-miterlimit="10" x1="0" y1="160" x2="512" y2="160"/>
				<line fill="none" stroke="#A9CCDB" stroke-miterlimit="10" x1="0" y1="128" x2="512" y2="128"/>
				<line fill="none" stroke="#A9CCDB" stroke-miterlimit="10" x1="0" y1="96" x2="512" y2="96"/>
				<line fill="none" stroke="#A9CCDB" stroke-miterlimit="10" x1="0" y1="64" x2="512" y2="64"/>
				<line fill="none" stroke="#A9CCDB" stroke-miterlimit="10" x1="0" y1="32" x2="512" y2="32"/>
				<line fill="none" stroke="#A9CCDB" stroke-miterlimit="10" x1="480" y1="0" x2="480" y2="512"/>
				<line fill="none" stroke="#A9CCDB" stroke-miterlimit="10" x1="448" y1="0" x2="448" y2="512"/>
				<line fill="none" stroke="#A9CCDB" stroke-miterlimit="10" x1="416" y1="0" x2="416" y2="512"/>
				<line fill="none" stroke="#A9CCDB" stroke-miterlimit="10" x1="384" y1="0" x2="384" y2="512"/>
				<line fill="none" stroke="#A9CCDB" stroke-miterlimit="10" x1="352" y1="0" x2="352" y2="512"/>
				<line fill="none" stroke="#A9CCDB" stroke-miterlimit="10" x1="320" y1="0" x2="320" y2="512"/>
				<line fill="none" stroke="#A9CCDB" stroke-miterlimit="10" x1="288" y1="0" x2="288" y2="512"/>
				<line fill="none" stroke="#A9CCDB" stroke-miterlimit="10" x1="256" y1="0" x2="256" y2="512"/>
				<line fill="none" stroke="#A9CCDB" stroke-miterlimit="10" x1="224" y1="0" x2="224" y2="512"/>
				<line fill="none" stroke="#A9CCDB" stroke-miterlimit="10" x1="192" y1="0" x2="192" y2="512"/>
				<line fill="none" stroke="#A9CCDB" stroke-miterlimit="10" x1="160" y1="0" x2="160" y2="512"/>
				<line fill="none" stroke="#A9CCDB" stroke-miterlimit="10" x1="128" y1="0" x2="128" y2="512"/>
				<line fill="none" stroke="#A9CCDB" stroke-miterlimit="10" x1="96" y1="0" x2="96" y2="512"/>
				<line fill="none" stroke="#A9CCDB" stroke-miterlimit="10" x1="64" y1="0" x2="64" y2="512"/>
				<line fill="none" stroke="#A9CCDB" stroke-miterlimit="10" x1="32" y1="0" x2="32" y2="512"/>
			</g>
		</g>
	</g>
</g>
<g>
	<path d="M449.735,105.438l-75.173-87.703C365.751,7.458,349.533,0,336,0H80C62.355,0,48,14.355,48,32v448c0,17.645,14.354,32,32,32
		h352c17.645,0,32-14.355,32-32V144C464,131.298,458,115.08,449.735,105.438z M352,20.367c4.142,2.112,7.88,4.826,10.412,7.781
		l75.175,87.704c2.649,3.092,5.069,7.469,6.913,12.148H352V20.367z M448,480c0,8.8-7.2,16-16,16H80c-8.8,0-16-7.2-16-16V32
		c0-8.8,7.2-16,16-16h256v128h112V480z"/>
	<path d="M294.112,273.713c-19.817-18.503-36.43-44.212-46.739-73.019c0.707-2.758,1.386-5.453,2-8.177
		c2.869-12.896,4.924-55.508,4.924-55.508s-8.151,32.012-9.435,36.842c-0.824,3.064-1.863,6.335-3.042,9.739
		c-6.251-21.983-9.433-43.311-9.433-59.468c0-4.574,0.39-13.445,1.688-20.473c0.627-5.014,2.459-7.619,4.341-8.877
		c3.731,0.906,7.895,6.623,12.252,16.191c3.743,8.27,3.511,17.853,3.511,23.782c0,0,4.014-14.584,3.086-23.262
		c-0.563-5.211-5.525-18.861-16.062-18.349h-0.86l-4.689-0.172c-7.694,0-14.893,3.719-16.633,9.934
		c-6.466,23.838,0.771,60.678,12.84,106.604l-3.653,8.879c-9.238,22.521-20.782,44.946-30.941,64.856
		c-41.931,82.047-74.548,126.311-96.297,129.41l-0.093-0.895c-0.473-10.232,18.426-36.631,44.027-57.609
		c2.668-2.166,14.055-13.186,14.055-13.186s-15.38,8.131-18.833,10.221c-32.077,19.154-48.047,38.338-50.649,51.072
		c-0.771,3.783-0.262,8.43,3.074,10.338l8.208,4.125c22.328,11.182,49.771-18.203,86.276-82.178
		c37.147-12.186,83.491-23.666,125.69-29.881c37.77,21.582,81.094,31.857,97.738,27.416c3.166-0.838,6.506-3.318,8.207-5.611
		c1.334-2.109,3.19-10.549,3.19-10.549s-3.125,4.279-5.701,5.535c-10.541,4.975-43.797-3.322-77.932-20.023
		c29.514-3.141,54.107-3.27,67.25,0.93c16.686,5.326,16.686,10.797,16.463,11.906c0.223-0.918,0.98-4.578,0.891-6.137
		c-0.38-4-1.605-7.572-4.632-10.529c-6.18-6.086-21.438-9.162-42.223-9.436c-15.668-0.174-34.447,1.203-54.844,4.117
		C311.79,286.906,301.924,281.018,294.112,273.713z M190.386,326.686c6.319-11.23,13.166-23.459,20.169-36.648
		c13.558-25.639,21.776-45.43,28.689-64.054c10.899,21.924,25.938,42.757,45.665,59.456c4.396,3.723,9.069,7.242,13.882,10.564
		C262.974,302.664,225.346,312.039,190.386,326.686z"/>
</g>
</svg>
