<?xml version="1.0" encoding="utf-8"?> <!-- Generator: IcoMoon --> <!DOCTYPE svg PUBLIC "-//W3C//DTD SVG 1.1//EN" "http://www.w3.org/Graphics/SVG/1.1/DTD/svg11.dtd"> <svg width="512" height="512" viewBox="0 0 512 512" data-tags="file-openoffice, file, format, openoffice, open office" fill="#000000"><g class="svgGrid" id="svgGrid"><line stroke-width="1" stroke="#B35047" x1="32" x2="32" y1="0" y2="512"></line><line stroke-width="1" stroke="#B35047" x1="64" x2="64" y1="0" y2="512"></line><line stroke-width="1" stroke="#B35047" x1="96" x2="96" y1="0" y2="512"></line><line stroke-width="1" stroke="#B35047" x1="128" x2="128" y1="0" y2="512"></line><line stroke-width="1" stroke="#B35047" x1="160" x2="160" y1="0" y2="512"></line><line stroke-width="1" stroke="#B35047" x1="192" x2="192" y1="0" y2="512"></line><line stroke-width="1" stroke="#B35047" x1="224" x2="224" y1="0" y2="512"></line><line stroke-width="1" stroke="#B35047" x1="256" x2="256" y1="0" y2="512"></line><line stroke-width="1" stroke="#B35047" x1="288" x2="288" y1="0" y2="512"></line><line stroke-width="1" stroke="#B35047" x1="320" x2="320" y1="0" y2="512"></line><line stroke-width="1" stroke="#B35047" x1="352" x2="352" y1="0" y2="512"></line><line stroke-width="1" stroke="#B35047" x1="384" x2="384" y1="0" y2="512"></line><line stroke-width="1" stroke="#B35047" x1="416" x2="416" y1="0" y2="512"></line><line stroke-width="1" stroke="#B35047" x1="448" x2="448" y1="0" y2="512"></line><line stroke-width="1" stroke="#B35047" x1="480" x2="480" y1="0" y2="512"></line><line stroke-width="1" stroke="#B35047" x1="0" x2="512" y1="32" y2="32"></line><line stroke-width="1" stroke="#B35047" x1="0" x2="512" y1="64" y2="64"></line><line stroke-width="1" stroke="#B35047" x1="0" x2="512" y1="96" y2="96"></line><line stroke-width="1" stroke="#B35047" x1="0" x2="512" y1="128" y2="128"></line><line stroke-width="1" stroke="#B35047" x1="0" x2="512" y1="160" y2="160"></line><line stroke-width="1" stroke="#B35047" x1="0" x2="512" y1="192" y2="192"></line><line stroke-width="1" stroke="#B35047" x1="0" x2="512" y1="224" y2="224"></line><line stroke-width="1" stroke="#B35047" x1="0" x2="512" y1="256" y2="256"></line><line stroke-width="1" stroke="#B35047" x1="0" x2="512" y1="288" y2="288"></line><line stroke-width="1" stroke="#B35047" x1="0" x2="512" y1="320" y2="320"></line><line stroke-width="1" stroke="#B35047" x1="0" x2="512" y1="352" y2="352"></line><line stroke-width="1" stroke="#B35047" x1="0" x2="512" y1="384" y2="384"></line><line stroke-width="1" stroke="#B35047" x1="0" x2="512" y1="416" y2="416"></line><line stroke-width="1" stroke="#B35047" x1="0" x2="512" y1="448" y2="448"></line><line stroke-width="1" stroke="#B35047" x1="0" x2="512" y1="480" y2="480"></line><rect x="0" y="0" width="512" height="512" fill="none" stroke-width="1" stroke="#B35047"></rect></g><path d="M 345.11,235.841c-30.334-14.326-68.986-17.21-97.417,3.024c 34.57-3.302, 72.479,2.419, 97.553,28.562 c 24.00-27.54, 62.057-32.703, 96.479-29.866C 412.981,218.489, 375.115,221.049, 345.11,235.841zM 332.824,302.875c-34.189-0.789-67.217,11.586-95.55,30.052c-53.588-22.794-121.368-18.562-167.001,19.491 c 13.165-0.467, 26.003-3.723, 39.028-5.396c 47.591-4.744, 98.294,7.071, 134.256,39.912c 14.886-21.771, 35.822-39.121, 59.826-49.961 c 31.537-15.26, 67.08-16.842, 101.41-17.26C 383.949,305.389, 357.485,302.736, 332.824,302.875zM 451.716,99.715l-71.432-71.431C 364.728,12.728, 334.00,0.00, 312.00,0.00L 72.00,0.00 C 50.00,0.00, 32.00,18.00, 32.00,40.00l0.00,432.00 c0.00,22.00, 18.00,40.00, 40.00,40.00l 368.00,0.00 c 22.00,0.00, 40.00-18.00, 40.00-40.00L 480.00,168.00 C 480.00,146.00, 467.272,115.271, 451.716,99.715z M 429.089,122.343c 1.565,1.565, 3.125,3.487, 4.64,5.657L 352.00,128.00 L 352.00,46.272 c 2.17,1.515, 4.092,3.075, 5.657,4.64L 429.089,122.343z M 448.00,472.00c0.00,4.336-3.664,8.00-8.00,8.00L 72.00,480.00 c-4.336,0.00-8.00-3.664-8.00-8.00L 64.00,40.00 c0.00-4.336, 3.664-8.00, 8.00-8.00l 240.00,0.00 c 2.416,0.00, 5.127,0.305, 8.00,0.852L 320.00,160.00 l 127.148,0.00 c 0.547,2.873, 0.852,5.583, 0.852,8.00L 448.00,472.00 z" ></path></svg>