<?xml version="1.0" encoding="utf-8"?> <!-- Generator: IcoMoon --> <!DOCTYPE svg PUBLIC "-//W3C//DTD SVG 1.1//EN" "http://www.w3.org/Graphics/SVG/1.1/DTD/svg11.dtd"> <svg width="512" height="512" viewBox="0 0 512 512" data-tags="firefox, browser, internet" fill="#000000"><g class="svgGrid" id="svgGrid"><line stroke-width="1" stroke="#B35047" x1="32" x2="32" y1="0" y2="512"></line><line stroke-width="1" stroke="#B35047" x1="64" x2="64" y1="0" y2="512"></line><line stroke-width="1" stroke="#B35047" x1="96" x2="96" y1="0" y2="512"></line><line stroke-width="1" stroke="#B35047" x1="128" x2="128" y1="0" y2="512"></line><line stroke-width="1" stroke="#B35047" x1="160" x2="160" y1="0" y2="512"></line><line stroke-width="1" stroke="#B35047" x1="192" x2="192" y1="0" y2="512"></line><line stroke-width="1" stroke="#B35047" x1="224" x2="224" y1="0" y2="512"></line><line stroke-width="1" stroke="#B35047" x1="256" x2="256" y1="0" y2="512"></line><line stroke-width="1" stroke="#B35047" x1="288" x2="288" y1="0" y2="512"></line><line stroke-width="1" stroke="#B35047" x1="320" x2="320" y1="0" y2="512"></line><line stroke-width="1" stroke="#B35047" x1="352" x2="352" y1="0" y2="512"></line><line stroke-width="1" stroke="#B35047" x1="384" x2="384" y1="0" y2="512"></line><line stroke-width="1" stroke="#B35047" x1="416" x2="416" y1="0" y2="512"></line><line stroke-width="1" stroke="#B35047" x1="448" x2="448" y1="0" y2="512"></line><line stroke-width="1" stroke="#B35047" x1="480" x2="480" y1="0" y2="512"></line><line stroke-width="1" stroke="#B35047" x1="0" x2="512" y1="32" y2="32"></line><line stroke-width="1" stroke="#B35047" x1="0" x2="512" y1="64" y2="64"></line><line stroke-width="1" stroke="#B35047" x1="0" x2="512" y1="96" y2="96"></line><line stroke-width="1" stroke="#B35047" x1="0" x2="512" y1="128" y2="128"></line><line stroke-width="1" stroke="#B35047" x1="0" x2="512" y1="160" y2="160"></line><line stroke-width="1" stroke="#B35047" x1="0" x2="512" y1="192" y2="192"></line><line stroke-width="1" stroke="#B35047" x1="0" x2="512" y1="224" y2="224"></line><line stroke-width="1" stroke="#B35047" x1="0" x2="512" y1="256" y2="256"></line><line stroke-width="1" stroke="#B35047" x1="0" x2="512" y1="288" y2="288"></line><line stroke-width="1" stroke="#B35047" x1="0" x2="512" y1="320" y2="320"></line><line stroke-width="1" stroke="#B35047" x1="0" x2="512" y1="352" y2="352"></line><line stroke-width="1" stroke="#B35047" x1="0" x2="512" y1="384" y2="384"></line><line stroke-width="1" stroke="#B35047" x1="0" x2="512" y1="416" y2="416"></line><line stroke-width="1" stroke="#B35047" x1="0" x2="512" y1="448" y2="448"></line><line stroke-width="1" stroke="#B35047" x1="0" x2="512" y1="480" y2="480"></line><rect x="0" y="0" width="512" height="512" fill="none" stroke-width="1" stroke="#B35047"></rect></g><path d="M 511.263,167.07l-5.93,38.04c0.00,0.00-8.477-70.428-18.866-96.757c-15.923-40.344-23.007-40.02-23.054-39.961 c 10.665,27.102, 8.731,41.662, 8.731,41.662s-18.896-51.499-68.856-67.884c-55.343-18.141-85.285-13.182-88.744-12.243 c-0.525-0.004-1.032-0.005-1.515-0.005c 0.409,0.031, 0.806,0.073, 1.213,0.106c-0.017,0.01-0.045,0.021-0.041,0.026 c 0.225,0.274, 61.153,10.651, 71.958,25.498c0.00,0.00-25.88,0.00-51.636,7.421c-1.164,0.333, 94.762,11.982, 114.373,107.837 c0.00,0.00-10.515-21.938-23.52-25.664c 8.553,26.018, 6.357,75.388-1.788,99.925c-1.048,3.156-2.12-13.641-18.164-20.875 c 5.14,36.823-0.308,95.228-25.854,111.316c-1.991,1.252, 16.015-57.655, 3.621-34.881c-71.354,109.401-155.702,50.486-193.624,24.555 c 19.433,4.231, 56.327-0.659, 72.657-12.806c 0.021-0.015, 0.039-0.028, 0.059-0.043c 17.734-12.126, 28.236-20.982, 37.667-18.886 c 9.437,2.107, 15.719-7.363, 8.39-15.765c-7.338-8.419-25.157-19.989-49.262-13.683c-17.00,4.452-38.067,23.261-70.224,4.216 c-24.682-14.625-27.006-26.773-27.225-35.188c 0.609-2.983, 1.377-5.768, 2.288-8.312c 2.841-7.935, 11.456-10.329, 16.247-12.219 c 8.128,1.396, 15.131,3.931, 22.484,7.703c 0.095-2.447, 0.126-5.695-0.009-9.38c 0.705-1.401, 0.269-5.626-0.861-10.79 c-0.651-5.154-1.71-10.487-3.376-15.346c 0.006-0.001, 0.01-0.005, 0.015-0.007c 0.028-0.009, 0.054-0.02, 0.078-0.035 c 0.039-0.022, 0.073-0.056, 0.104-0.095c 0.006-0.01, 0.015-0.017, 0.022-0.026c 0.041-0.062, 0.077-0.136, 0.099-0.233 c 0.51-2.309, 6.011-6.762, 12.859-11.55c 6.136-4.29, 13.351-8.848, 19.034-12.376c 5.03-3.124, 8.86-5.441, 9.673-6.049 c 0.309-0.233, 0.679-0.506, 1.082-0.818c 0.075-0.058, 0.15-0.116, 0.227-0.177c 0.047-0.037, 0.095-0.074, 0.143-0.113 c 2.705-2.154, 6.742-6.224, 7.589-14.789c 0.002-0.021, 0.005-0.04, 0.006-0.061c 0.025-0.252, 0.046-0.507, 0.065-0.767 c 0.014-0.181, 0.025-0.363, 0.036-0.548c 0.007-0.142, 0.016-0.283, 0.022-0.428c 0.015-0.337, 0.025-0.682, 0.03-1.032 c0.00-0.02, 0.001-0.038, 0.002-0.058c 0.011-0.829-0.003-1.693-0.052-2.601c-0.027-0.507-0.063-0.965-0.149-1.381 c-0.004-0.022-0.009-0.046-0.014-0.068c-0.009-0.041-0.018-0.082-0.029-0.122c-0.018-0.073-0.038-0.146-0.061-0.215 c-0.003-0.009-0.005-0.016-0.008-0.023c-0.026-0.08-0.056-0.157-0.087-0.232c-0.002-0.003-0.002-0.005-0.003-0.008 c-0.877-2.054-4.16-2.829-17.721-3.059c-0.013-0.001-0.025-0.001-0.038-0.001l0.00,0.00c-5.533-0.094-12.769-0.097-22.251-0.059 c-16.625,0.067-25.814-16.252-28.747-22.566c 4.02-22.23, 15.638-38.071, 34.725-48.813c 0.361-0.203, 0.29-0.371-0.137-0.489 c 3.732-2.257-45.123-0.062-67.593,28.518c-19.944-4.957-37.327-4.623-52.308-1.107c-2.877-0.081-6.462-0.44-10.717-1.326 c-9.962-9.028-24.224-25.701-24.988-45.604c0.00,0.00-0.046,0.036-0.126,0.102c-0.01-0.191-0.028-0.38-0.036-0.571 c0.00,0.00-30.358,23.332-25.814,86.941c-0.011,1.018-0.032,1.993-0.06,2.937c-8.216,11.144-12.293,20.51-12.596,22.578 C 13.398,163.178, 6.011,185.483,0.00,219.346c0.00,0.00, 4.204-13.333, 12.642-28.433c-6.206,19.011-11.082,48.578-8.218,92.928 c0.00,0.00, 0.757-9.833, 3.437-23.997c 2.093,27.505, 11.259,61.462, 34.429,101.394c 44.474,76.66, 112.835,115.37, 188.396,121.308 c 13.418,1.106, 27.025,1.132, 40.712,0.093c 1.258-0.089, 2.516-0.182, 3.775-0.287c 15.482-1.087, 31.067-3.426, 46.619-7.183 C 534.378,423.77, 511.263,167.07, 511.263,167.07z" ></path></svg>