<?xml version="1.0" encoding="utf-8"?> <!-- Generator: IcoMoon.io --> <!DOCTYPE svg PUBLIC "-//W3C//DTD SVG 1.1//EN" "http://www.w3.org/Graphics/SVG/1.1/DTD/svg11.dtd"> <svg width="512" height="512" viewBox="0 0 512 512" xmlns="http://www.w3.org/2000/svg" xmlns:xlink="http://www.w3.org/1999/xlink" fill="#000000"><g class="svgGrid" id="svgGrid"><line stroke-width="1" stroke="#B35047" x1="32" x2="32" y1="0" y2="512"></line><line stroke-width="1" stroke="#B35047" x1="64" x2="64" y1="0" y2="512"></line><line stroke-width="1" stroke="#B35047" x1="96" x2="96" y1="0" y2="512"></line><line stroke-width="1" stroke="#B35047" x1="128" x2="128" y1="0" y2="512"></line><line stroke-width="1" stroke="#B35047" x1="160" x2="160" y1="0" y2="512"></line><line stroke-width="1" stroke="#B35047" x1="192" x2="192" y1="0" y2="512"></line><line stroke-width="1" stroke="#B35047" x1="224" x2="224" y1="0" y2="512"></line><line stroke-width="1" stroke="#B35047" x1="256" x2="256" y1="0" y2="512"></line><line stroke-width="1" stroke="#B35047" x1="288" x2="288" y1="0" y2="512"></line><line stroke-width="1" stroke="#B35047" x1="320" x2="320" y1="0" y2="512"></line><line stroke-width="1" stroke="#B35047" x1="352" x2="352" y1="0" y2="512"></line><line stroke-width="1" stroke="#B35047" x1="384" x2="384" y1="0" y2="512"></line><line stroke-width="1" stroke="#B35047" x1="416" x2="416" y1="0" y2="512"></line><line stroke-width="1" stroke="#B35047" x1="448" x2="448" y1="0" y2="512"></line><line stroke-width="1" stroke="#B35047" x1="480" x2="480" y1="0" y2="512"></line><line stroke-width="1" stroke="#B35047" x1="0" x2="512" y1="32" y2="32"></line><line stroke-width="1" stroke="#B35047" x1="0" x2="512" y1="64" y2="64"></line><line stroke-width="1" stroke="#B35047" x1="0" x2="512" y1="96" y2="96"></line><line stroke-width="1" stroke="#B35047" x1="0" x2="512" y1="128" y2="128"></line><line stroke-width="1" stroke="#B35047" x1="0" x2="512" y1="160" y2="160"></line><line stroke-width="1" stroke="#B35047" x1="0" x2="512" y1="192" y2="192"></line><line stroke-width="1" stroke="#B35047" x1="0" x2="512" y1="224" y2="224"></line><line stroke-width="1" stroke="#B35047" x1="0" x2="512" y1="256" y2="256"></line><line stroke-width="1" stroke="#B35047" x1="0" x2="512" y1="288" y2="288"></line><line stroke-width="1" stroke="#B35047" x1="0" x2="512" y1="320" y2="320"></line><line stroke-width="1" stroke="#B35047" x1="0" x2="512" y1="352" y2="352"></line><line stroke-width="1" stroke="#B35047" x1="0" x2="512" y1="384" y2="384"></line><line stroke-width="1" stroke="#B35047" x1="0" x2="512" y1="416" y2="416"></line><line stroke-width="1" stroke="#B35047" x1="0" x2="512" y1="448" y2="448"></line><line stroke-width="1" stroke="#B35047" x1="0" x2="512" y1="480" y2="480"></line><rect x="0" y="0" width="512" height="512" fill="none" stroke-width="1" stroke="#B35047"></rect></g><path d="M 432.00,0.00c-44.186,0.00-80.00,35.816-80.00,80.00l0.00,240.00 l 64.00,0.00 l0.00,192.00 l 96.00,0.00 L 512.00,80.00 C 512.00,35.816, 476.183,0.00, 432.00,0.00zM 208.00,0.00c-8.838,0.00-16.00,7.164-16.00,16.00l0.00,112.00 c0.00,4.418-7.164,8.00-16.00,8.00c-8.838,0.00-16.00-3.582-16.00-8.00L 160.00,16.00 c0.00-8.836-7.164-16.00-16.00-16.00 c-8.837,0.00-16.00,7.164-16.00,16.00l0.00,112.00 c0.00,4.418-7.164,8.00-16.00,8.00c-8.837,0.00-16.00-3.582-16.00-8.00L 96.00,16.00 c0.00-8.836-7.164-16.00-16.00-16.00c-8.837,0.00-16.00,7.164-16.00,16.00l0.00,112.00 c0.00,4.418-7.164,8.00-16.00,8.00s-16.00-3.582-16.00-8.00L 32.00,16.00 c0.00-8.836-7.164-16.00-16.00-16.00S0.00,7.164,0.00,16.00l0.00,112.00 l0.00,32.00 c0.00,14.159, 12.529,22.055, 26.502,32.00 C 44.107,204.532, 64.00,220.318, 64.00,256.00l0.00,256.00 l 96.00,0.00 L 160.00,256.00 c0.00-35.682, 19.893-51.468, 37.496-64.00C 211.469,182.055, 224.00,174.159, 224.00,160.00l0.00-32.00 L 224.00,16.00 C 224.00,7.164, 216.837,0.00, 208.00,0.00z" ></path></svg>