<?xml version="1.0" encoding="utf-8"?> <!-- Generator: IcoMoon --> <!DOCTYPE svg PUBLIC "-//W3C//DTD SVG 1.1//EN" "http://www.w3.org/Graphics/SVG/1.1/DTD/svg11.dtd"> <svg width="512" height="512" viewBox="0 0 512 512" data-tags="foursquare, social, _new" fill="#000000"><g class="svgGrid" id="svgGrid"><line stroke-width="1" stroke="#B35047" x1="32" x2="32" y1="0" y2="512"></line><line stroke-width="1" stroke="#B35047" x1="64" x2="64" y1="0" y2="512"></line><line stroke-width="1" stroke="#B35047" x1="96" x2="96" y1="0" y2="512"></line><line stroke-width="1" stroke="#B35047" x1="128" x2="128" y1="0" y2="512"></line><line stroke-width="1" stroke="#B35047" x1="160" x2="160" y1="0" y2="512"></line><line stroke-width="1" stroke="#B35047" x1="192" x2="192" y1="0" y2="512"></line><line stroke-width="1" stroke="#B35047" x1="224" x2="224" y1="0" y2="512"></line><line stroke-width="1" stroke="#B35047" x1="256" x2="256" y1="0" y2="512"></line><line stroke-width="1" stroke="#B35047" x1="288" x2="288" y1="0" y2="512"></line><line stroke-width="1" stroke="#B35047" x1="320" x2="320" y1="0" y2="512"></line><line stroke-width="1" stroke="#B35047" x1="352" x2="352" y1="0" y2="512"></line><line stroke-width="1" stroke="#B35047" x1="384" x2="384" y1="0" y2="512"></line><line stroke-width="1" stroke="#B35047" x1="416" x2="416" y1="0" y2="512"></line><line stroke-width="1" stroke="#B35047" x1="448" x2="448" y1="0" y2="512"></line><line stroke-width="1" stroke="#B35047" x1="480" x2="480" y1="0" y2="512"></line><line stroke-width="1" stroke="#B35047" x1="0" x2="512" y1="32" y2="32"></line><line stroke-width="1" stroke="#B35047" x1="0" x2="512" y1="64" y2="64"></line><line stroke-width="1" stroke="#B35047" x1="0" x2="512" y1="96" y2="96"></line><line stroke-width="1" stroke="#B35047" x1="0" x2="512" y1="128" y2="128"></line><line stroke-width="1" stroke="#B35047" x1="0" x2="512" y1="160" y2="160"></line><line stroke-width="1" stroke="#B35047" x1="0" x2="512" y1="192" y2="192"></line><line stroke-width="1" stroke="#B35047" x1="0" x2="512" y1="224" y2="224"></line><line stroke-width="1" stroke="#B35047" x1="0" x2="512" y1="256" y2="256"></line><line stroke-width="1" stroke="#B35047" x1="0" x2="512" y1="288" y2="288"></line><line stroke-width="1" stroke="#B35047" x1="0" x2="512" y1="320" y2="320"></line><line stroke-width="1" stroke="#B35047" x1="0" x2="512" y1="352" y2="352"></line><line stroke-width="1" stroke="#B35047" x1="0" x2="512" y1="384" y2="384"></line><line stroke-width="1" stroke="#B35047" x1="0" x2="512" y1="416" y2="416"></line><line stroke-width="1" stroke="#B35047" x1="0" x2="512" y1="448" y2="448"></line><line stroke-width="1" stroke="#B35047" x1="0" x2="512" y1="480" y2="480"></line><rect x="0" y="0" width="512" height="512" fill="none" stroke-width="1" stroke="#B35047"></rect></g><path d="M 511.845,0.00l-56.539,0.00 L 331.505,169.948l-49.022-49.025c-6.903-6.904-16.085-10.706-25.853-10.706 c-9.766,0.00-18.948,3.801-25.858,10.706l-22.257,22.258c-1.249-1.702-2.545-3.382-3.939-5.012 c-30.324-35.439-83.635-39.604-119.074-9.271c-35.443,30.319-39.593,83.625-9.268,119.07c 6.955,8.134, 15.131,14.599, 24.015,19.397 c 0.18,9.12, 3.729,18.187, 10.669,25.132L 230.77,412.337c 6.907,6.91, 16.091,10.717, 25.86,10.717c 9.771,0.00, 18.953-3.808, 25.853-10.715 l 119.849-119.841c 6.91-6.908, 10.717-16.092, 10.717-25.86s-3.807-18.953-10.715-25.858l-13.789-13.79l 123.301-104.045L 511.846,0.00 z M 247.739,137.896c 2.375-2.373, 5.532-3.68, 8.891-3.68c 3.357,0.00, 6.512,1.306, 8.882,3.676l 51.688,51.691l-56.18,77.121 c-5.547,6.188-10.435,2.932-12.363,0.633c-0.662-0.779-13.843-18.037-30.887-40.391c 8.462-19.37, 9.378-41.408, 2.428-61.509 L 247.739,137.896z M 385.364,257.752c 2.375,2.374, 3.684,5.529, 3.684,8.886s-1.309,6.512-3.686,8.888L 265.507,395.373 c-2.37,2.373-5.522,3.681-8.877,3.681c-3.356,0.00-6.512-1.309-8.888-3.686l-118.63-118.619c 13.809,1.857, 28.036,0.313, 41.323-4.74 l 79.585,64.009c0.00,0.00, 4.353,4.04, 9.158,0.137l 110.959-93.631L 385.364,257.752z" ></path></svg>