<?xml version="1.0" encoding="utf-8"?> <!-- Generator: IcoMoon.io --> <!DOCTYPE svg PUBLIC "-//W3C//DTD SVG 1.1//EN" "http://www.w3.org/Graphics/SVG/1.1/DTD/svg11.dtd"> <svg width="512" height="512" viewBox="0 0 512 512" xmlns="http://www.w3.org/2000/svg" xmlns:xlink="http://www.w3.org/1999/xlink" fill="#000000"><g class="svgGrid" id="svgGrid"><line stroke-width="1" stroke="#B35047" x1="32" x2="32" y1="0" y2="512"></line><line stroke-width="1" stroke="#B35047" x1="64" x2="64" y1="0" y2="512"></line><line stroke-width="1" stroke="#B35047" x1="96" x2="96" y1="0" y2="512"></line><line stroke-width="1" stroke="#B35047" x1="128" x2="128" y1="0" y2="512"></line><line stroke-width="1" stroke="#B35047" x1="160" x2="160" y1="0" y2="512"></line><line stroke-width="1" stroke="#B35047" x1="192" x2="192" y1="0" y2="512"></line><line stroke-width="1" stroke="#B35047" x1="224" x2="224" y1="0" y2="512"></line><line stroke-width="1" stroke="#B35047" x1="256" x2="256" y1="0" y2="512"></line><line stroke-width="1" stroke="#B35047" x1="288" x2="288" y1="0" y2="512"></line><line stroke-width="1" stroke="#B35047" x1="320" x2="320" y1="0" y2="512"></line><line stroke-width="1" stroke="#B35047" x1="352" x2="352" y1="0" y2="512"></line><line stroke-width="1" stroke="#B35047" x1="384" x2="384" y1="0" y2="512"></line><line stroke-width="1" stroke="#B35047" x1="416" x2="416" y1="0" y2="512"></line><line stroke-width="1" stroke="#B35047" x1="448" x2="448" y1="0" y2="512"></line><line stroke-width="1" stroke="#B35047" x1="480" x2="480" y1="0" y2="512"></line><line stroke-width="1" stroke="#B35047" x1="0" x2="512" y1="32" y2="32"></line><line stroke-width="1" stroke="#B35047" x1="0" x2="512" y1="64" y2="64"></line><line stroke-width="1" stroke="#B35047" x1="0" x2="512" y1="96" y2="96"></line><line stroke-width="1" stroke="#B35047" x1="0" x2="512" y1="128" y2="128"></line><line stroke-width="1" stroke="#B35047" x1="0" x2="512" y1="160" y2="160"></line><line stroke-width="1" stroke="#B35047" x1="0" x2="512" y1="192" y2="192"></line><line stroke-width="1" stroke="#B35047" x1="0" x2="512" y1="224" y2="224"></line><line stroke-width="1" stroke="#B35047" x1="0" x2="512" y1="256" y2="256"></line><line stroke-width="1" stroke="#B35047" x1="0" x2="512" y1="288" y2="288"></line><line stroke-width="1" stroke="#B35047" x1="0" x2="512" y1="320" y2="320"></line><line stroke-width="1" stroke="#B35047" x1="0" x2="512" y1="352" y2="352"></line><line stroke-width="1" stroke="#B35047" x1="0" x2="512" y1="384" y2="384"></line><line stroke-width="1" stroke="#B35047" x1="0" x2="512" y1="416" y2="416"></line><line stroke-width="1" stroke="#B35047" x1="0" x2="512" y1="448" y2="448"></line><line stroke-width="1" stroke="#B35047" x1="0" x2="512" y1="480" y2="480"></line><rect x="0" y="0" width="512" height="512" fill="none" stroke-width="1" stroke="#B35047"></rect></g><path d="M 426.671,0.00L 85.343,0.00 C 38.406,0.00,0.00,38.405,0.00,85.345l0.00,341.311 C0.00,473.625, 38.406,512.00, 85.343,512.00l 341.328,0.00 C 473.609,512.00, 512.00,473.625, 512.00,426.655L 512.00,85.345 C 512.00,38.405, 473.609,0.00, 426.671,0.00z M 469.967,469.971 C 458.341,481.597, 442.965,488.00, 426.671,488.00L 85.343,488.00 c-16.294,0.00-31.674-6.403-43.304-18.031C 30.406,458.339, 24.00,442.957, 24.00,426.656 L 24.00,85.345 c0.00-16.292, 6.407-31.671, 18.041-43.305C 53.674,30.407, 69.053,24.00, 85.343,24.00l 341.328,0.00 c 3.549,0.00, 7.05,0.322, 10.483,0.918 l-105.649,145.03l-49.022-49.025c-6.903-6.904-16.085-10.706-25.853-10.706c-9.766,0.00-18.948,3.801-25.858,10.706l-22.257,22.258 c-1.249-1.702-2.545-3.382-3.939-5.012c-30.324-35.439-83.635-39.604-119.074-9.271c-35.443,30.319-39.593,83.625-9.268,119.07 c 6.955,8.134, 15.131,14.599, 24.015,19.397c 0.18,9.12, 3.729,18.187, 10.669,25.132L 230.77,412.337 c 6.907,6.91, 16.091,10.717, 25.86,10.717c 9.771,0.00, 18.953-3.808, 25.853-10.715l 119.849-119.841c 6.91-6.908, 10.717-16.092, 10.717-25.86 s-3.807-18.953-10.715-25.858l-13.789-13.79L 488.00,139.519l0.00,287.137 C 488.00,442.959, 481.596,458.342, 469.967,469.971z M 220.198,165.438 l 27.541-27.542c 2.375-2.373, 5.532-3.68, 8.891-3.68c 3.357,0.00, 6.512,1.306, 8.882,3.676l 51.688,51.691l-56.18,77.121 c-5.547,6.188-10.435,2.932-12.363,0.633c-0.662-0.779-13.843-18.037-30.887-40.391 C 226.232,207.577, 227.148,185.539, 220.198,165.438z M 250.02,336.018c0.00,0.00, 4.353,4.04, 9.158,0.137l 110.959-93.631l 15.228,15.229 c 2.375,2.374, 3.684,5.529, 3.684,8.886s-1.309,6.512-3.686,8.888L 265.507,395.373c-2.37,2.373-5.522,3.681-8.877,3.681 c-3.356,0.00-6.512-1.309-8.888-3.686l-118.63-118.619c 13.809,1.857, 28.036,0.313, 41.323-4.74L 250.02,336.018z" ></path></svg>