<?xml version="1.0" encoding="utf-8"?> <!-- Generator: IcoMoon.io --> <!DOCTYPE svg PUBLIC "-//W3C//DTD SVG 1.1//EN" "http://www.w3.org/Graphics/SVG/1.1/DTD/svg11.dtd"> <svg width="512" height="512" viewBox="0 0 512 512" xmlns="http://www.w3.org/2000/svg" xmlns:xlink="http://www.w3.org/1999/xlink" fill="#000000"><g class="svgGrid" id="svgGrid"><line stroke-width="1" stroke="#B35047" x1="32" x2="32" y1="0" y2="512"></line><line stroke-width="1" stroke="#B35047" x1="64" x2="64" y1="0" y2="512"></line><line stroke-width="1" stroke="#B35047" x1="96" x2="96" y1="0" y2="512"></line><line stroke-width="1" stroke="#B35047" x1="128" x2="128" y1="0" y2="512"></line><line stroke-width="1" stroke="#B35047" x1="160" x2="160" y1="0" y2="512"></line><line stroke-width="1" stroke="#B35047" x1="192" x2="192" y1="0" y2="512"></line><line stroke-width="1" stroke="#B35047" x1="224" x2="224" y1="0" y2="512"></line><line stroke-width="1" stroke="#B35047" x1="256" x2="256" y1="0" y2="512"></line><line stroke-width="1" stroke="#B35047" x1="288" x2="288" y1="0" y2="512"></line><line stroke-width="1" stroke="#B35047" x1="320" x2="320" y1="0" y2="512"></line><line stroke-width="1" stroke="#B35047" x1="352" x2="352" y1="0" y2="512"></line><line stroke-width="1" stroke="#B35047" x1="384" x2="384" y1="0" y2="512"></line><line stroke-width="1" stroke="#B35047" x1="416" x2="416" y1="0" y2="512"></line><line stroke-width="1" stroke="#B35047" x1="448" x2="448" y1="0" y2="512"></line><line stroke-width="1" stroke="#B35047" x1="480" x2="480" y1="0" y2="512"></line><line stroke-width="1" stroke="#B35047" x1="0" x2="512" y1="32" y2="32"></line><line stroke-width="1" stroke="#B35047" x1="0" x2="512" y1="64" y2="64"></line><line stroke-width="1" stroke="#B35047" x1="0" x2="512" y1="96" y2="96"></line><line stroke-width="1" stroke="#B35047" x1="0" x2="512" y1="128" y2="128"></line><line stroke-width="1" stroke="#B35047" x1="0" x2="512" y1="160" y2="160"></line><line stroke-width="1" stroke="#B35047" x1="0" x2="512" y1="192" y2="192"></line><line stroke-width="1" stroke="#B35047" x1="0" x2="512" y1="224" y2="224"></line><line stroke-width="1" stroke="#B35047" x1="0" x2="512" y1="256" y2="256"></line><line stroke-width="1" stroke="#B35047" x1="0" x2="512" y1="288" y2="288"></line><line stroke-width="1" stroke="#B35047" x1="0" x2="512" y1="320" y2="320"></line><line stroke-width="1" stroke="#B35047" x1="0" x2="512" y1="352" y2="352"></line><line stroke-width="1" stroke="#B35047" x1="0" x2="512" y1="384" y2="384"></line><line stroke-width="1" stroke="#B35047" x1="0" x2="512" y1="416" y2="416"></line><line stroke-width="1" stroke="#B35047" x1="0" x2="512" y1="448" y2="448"></line><line stroke-width="1" stroke="#B35047" x1="0" x2="512" y1="480" y2="480"></line><rect x="0" y="0" width="512" height="512" fill="none" stroke-width="1" stroke="#B35047"></rect></g><path d="M 385.758,160.00c 9.063-6.44, 17.756-13.608, 25.722-21.574c 16.701-16.701, 27.873-37.25, 31.456-57.861 c 3.929-22.593-1.836-43.57-15.815-57.55c-11.15-11.149-26.255-17.043-43.682-17.043c-24.816,0.00-50.961,11.912-71.73,32.681 c-33.238,33.238-52.613,79.119-63.038,111.861c-7.72-32.901-23.103-77.322-53.009-107.229C 179.615,27.239, 159.105,19.00, 139.739,19.00 c-15.827,0.00-30.89,5.502-42.13,16.743c-24.993,24.994-21.616,68.893, 7.543,98.052c 10.396,10.396, 22.549,19.031, 35.36,26.206L 32.00,160.001 l0.00,128.00 l 32.00,0.00 l0.00,224.00 l 384.00,0.00 L 448.00,288.00 l 32.00,0.00 L 480.00,160.00 L 385.758,160.00 z M 337.163,64.109c 13.862-13.862, 31.161-22.137, 46.275-22.137c 5.35,0.00, 12.854,1.127, 18.225,6.499 c 13.015,13.014, 5.706,43.154-15.64,64.499c-21.973,21.973-51.53,37.084-77.216,47.03l-25.336,0.00 C 292.755,131.226, 309.50,91.772, 337.163,64.109z M 116.967,80.445c-0.351-4.56-0.025-13.124, 6.098-19.247 C 128.187,56.076, 134.959,55.00, 139.739,55.00l0.00,0.00 c 10.629,0.00, 21.734,5.008, 30.466,13.74c 16.936,16.936, 30.883,43.886, 40.334,77.938 c 0.255,0.92, 0.504,1.835, 0.748,2.743c-0.908-0.243-1.823-0.492-2.743-0.748c-34.052-9.452-61.001-23.399-77.937-40.335 C 122.693,100.425, 117.722,90.258, 116.967,80.445z M 224.00,480.00L 96.00,480.00 L 96.00,272.00 l 128.00,0.00 L 224.00,480.00 z M 224.00,256.00L 64.00,256.00 l0.00-64.00 l 160.00,0.00 L 224.00,256.00 z M 416.00,480.00L 288.00,480.00 L 288.00,272.00 l 128.00,0.00 L 416.00,480.00 z M 448.00,256.00L 288.00,256.00 l0.00-64.00 l 160.00,0.00 L 448.00,256.00 z" ></path></svg>