<?xml version="1.0" encoding="utf-8"?>
<!-- Generator: Adobe Illustrator 15.0.0, SVG Export Plug-In . SVG Version: 6.00 Build 0)  -->
<!DOCTYPE svg PUBLIC "-//W3C//DTD SVG 1.1//EN" "http://www.w3.org/Graphics/SVG/1.1/DTD/svg11.dtd">
<svg version="1.1" id="Layer_1" xmlns="http://www.w3.org/2000/svg" xmlns:xlink="http://www.w3.org/1999/xlink" x="0px" y="0px"
	 width="512px" height="512px" viewBox="0 0 512 512" enable-background="new 0 0 512 512" xml:space="preserve">
<g id="Grid_1_">
	<g id="Layer_1_1_">
		<g id="Grid">
			<g>
				<rect x="0" fill="none" stroke="#A9CCDB" stroke-miterlimit="10" width="512" height="512"/>
				<line fill="none" stroke="#A9CCDB" stroke-miterlimit="10" x1="0" y1="480" x2="512" y2="480"/>
				<line fill="none" stroke="#A9CCDB" stroke-miterlimit="10" x1="0" y1="448" x2="512" y2="448"/>
				<line fill="none" stroke="#A9CCDB" stroke-miterlimit="10" x1="0" y1="416" x2="512" y2="416"/>
				<line fill="none" stroke="#A9CCDB" stroke-miterlimit="10" x1="0" y1="384" x2="512" y2="384"/>
				<line fill="none" stroke="#A9CCDB" stroke-miterlimit="10" x1="0" y1="352" x2="512" y2="352"/>
				<line fill="none" stroke="#A9CCDB" stroke-miterlimit="10" x1="0" y1="320" x2="512" y2="320"/>
				<line fill="none" stroke="#A9CCDB" stroke-miterlimit="10" x1="0" y1="288" x2="512" y2="288"/>
				<line fill="none" stroke="#A9CCDB" stroke-miterlimit="10" x1="0" y1="256" x2="512" y2="256"/>
				<line fill="none" stroke="#A9CCDB" stroke-miterlimit="10" x1="0" y1="224" x2="512" y2="224"/>
				<line fill="none" stroke="#A9CCDB" stroke-miterlimit="10" x1="0" y1="192" x2="512" y2="192"/>
				<line fill="none" stroke="#A9CCDB" stroke-miterlimit="10" x1="0" y1="160" x2="512" y2="160"/>
				<line fill="none" stroke="#A9CCDB" stroke-miterlimit="10" x1="0" y1="128" x2="512" y2="128"/>
				<line fill="none" stroke="#A9CCDB" stroke-miterlimit="10" x1="0" y1="96" x2="512" y2="96"/>
				<line fill="none" stroke="#A9CCDB" stroke-miterlimit="10" x1="0" y1="64" x2="512" y2="64"/>
				<line fill="none" stroke="#A9CCDB" stroke-miterlimit="10" x1="0" y1="32" x2="512" y2="32"/>
				<line fill="none" stroke="#A9CCDB" stroke-miterlimit="10" x1="480" y1="0" x2="480" y2="512"/>
				<line fill="none" stroke="#A9CCDB" stroke-miterlimit="10" x1="448" y1="0" x2="448" y2="512"/>
				<line fill="none" stroke="#A9CCDB" stroke-miterlimit="10" x1="416" y1="0" x2="416" y2="512"/>
				<line fill="none" stroke="#A9CCDB" stroke-miterlimit="10" x1="384" y1="0" x2="384" y2="512"/>
				<line fill="none" stroke="#A9CCDB" stroke-miterlimit="10" x1="352" y1="0" x2="352" y2="512"/>
				<line fill="none" stroke="#A9CCDB" stroke-miterlimit="10" x1="320" y1="0" x2="320" y2="512"/>
				<line fill="none" stroke="#A9CCDB" stroke-miterlimit="10" x1="288" y1="0" x2="288" y2="512"/>
				<line fill="none" stroke="#A9CCDB" stroke-miterlimit="10" x1="256" y1="0" x2="256" y2="512"/>
				<line fill="none" stroke="#A9CCDB" stroke-miterlimit="10" x1="224" y1="0" x2="224" y2="512"/>
				<line fill="none" stroke="#A9CCDB" stroke-miterlimit="10" x1="192" y1="0" x2="192" y2="512"/>
				<line fill="none" stroke="#A9CCDB" stroke-miterlimit="10" x1="160" y1="0" x2="160" y2="512"/>
				<line fill="none" stroke="#A9CCDB" stroke-miterlimit="10" x1="128" y1="0" x2="128" y2="512"/>
				<line fill="none" stroke="#A9CCDB" stroke-miterlimit="10" x1="96" y1="0" x2="96" y2="512"/>
				<line fill="none" stroke="#A9CCDB" stroke-miterlimit="10" x1="64" y1="0" x2="64" y2="512"/>
				<line fill="none" stroke="#A9CCDB" stroke-miterlimit="10" x1="32" y1="0" x2="32" y2="512"/>
			</g>
		</g>
	</g>
</g>
<g>
	<g>
		<path d="M424.598,77.953c3.946-12.739,9.222-41.029-5.26-77.244c0,0-25.548-8.113-83.339,30.565
			c-22.645-5.656-46.731-8.453-70.859-8.453c-26.547,0-53.372,3.383-78.393,10.244c-59.63-40.683-85.956-32.348-85.956-32.348
			C83.604,43.69,94.228,75.508,97.46,83.411c-20.196,21.797-32.528,49.623-32.528,83.738c0,25.757,2.933,48.86,10.097,68.943
			l7.532,17.061c20.129,37.527,59.824,61.766,130.437,69.377c-10.022,6.729-20.245,18.18-24.389,37.556
			c-13.66,6.533-56.891,22.479-82.833-22.14c0,0-14.521-26.551-42.312-28.627c0,0-26.96-0.414-1.863,16.801
			c0,0,18.04,8.501,30.488,40.443c0,0,16.236,54.492,94.59,37.008v56.28c0,0-1.655,19.907-19.906,26.54
			c0,0-10.781,7.473,0.835,11.609c0,0,50.589,4.149,50.589-37.318v-61.371c0,0-2.007-24.338,9.952-32.802v100.806
			c0,0-0.827,24.056-13.267,33.176c0,0-8.301,14.923,9.947,10.785c0,0,34.833-4.979,36.493-45.615l0.789-102.014h8.373
			l0.796,102.014c1.658,40.636,36.491,45.615,36.491,45.615c18.24,4.138,9.949-10.785,9.949-10.785
			c-12.441-9.125-13.268-33.176-13.268-33.176V367.38c11.948,9.312,9.949,31.933,9.949,31.933v61.369
			c0,41.471,50.592,37.316,50.592,37.316c11.605-4.139,0.832-11.604,0.832-11.604c-18.249-6.634-19.905-26.542-19.905-26.542
			v-80.442c0-31.371-13.209-47.989-26.131-56.755c75.307-7.469,111.444-31.782,128.094-69.564l5.946-16.865
			c5.583-20.118,7.262-43.271,7.262-69.088C461.092,130.114,447.181,100.493,424.598,77.953z M264.535,308.643
			c-82.092,0-148.627-12.355-148.627-91.684c0-18.991,9.354-36.625,25.371-51.259c26.725-24.389,71.947-11.475,123.253-11.475
			c51.078-0.008,96.148-13.053,122.906,11.168l0.01,0.008c16.219,14.696,25.706,32.441,25.706,51.559
			C413.156,306.229,346.615,308.643,264.535,308.643z"/>
		<path d="M184.177,176.994c-17.079,0-30.924,19.924-30.924,44.506c0,24.589,13.846,44.52,30.924,44.52s30.922-19.931,30.922-44.52
			C215.099,196.918,201.254,177.012,184.177,176.994z"/>
		<path d="M350.095,176.994c-17.078,0-30.921,19.924-30.921,44.506c0,24.589,13.843,44.52,30.921,44.52
			c17.079,0,30.922-19.931,30.922-44.52C381.018,196.918,367.175,177.012,350.095,176.994z"/>
	</g>
</g>
</svg>
