<?xml version="1.0" encoding="utf-8"?>
<!-- Generator: Adobe Illustrator 16.0.0, SVG Export Plug-In . SVG Version: 6.00 Build 0)  -->
<!DOCTYPE svg PUBLIC "-//W3C//DTD SVG 1.1//EN" "http://www.w3.org/Graphics/SVG/1.1/DTD/svg11.dtd">
<svg version="1.1" id="Layer_1" xmlns="http://www.w3.org/2000/svg" xmlns:xlink="http://www.w3.org/1999/xlink" x="0px" y="0px"
	 width="512px" height="512px" viewBox="0 0 512 512" enable-background="new 0 0 512 512" xml:space="preserve">
<g id="Grid_1_">
	<g id="Layer_1_1_">
		<g id="Grid">
			<g>
				<rect fill="none" stroke="#A9CCDB" stroke-miterlimit="10" width="512" height="512"/>
				<line fill="none" stroke="#A9CCDB" stroke-miterlimit="10" x1="0" y1="480" x2="512" y2="480"/>
				<line fill="none" stroke="#A9CCDB" stroke-miterlimit="10" x1="0" y1="448" x2="512" y2="448"/>
				<line fill="none" stroke="#A9CCDB" stroke-miterlimit="10" x1="0" y1="416" x2="512" y2="416"/>
				<line fill="none" stroke="#A9CCDB" stroke-miterlimit="10" x1="0" y1="384" x2="512" y2="384"/>
				<line fill="none" stroke="#A9CCDB" stroke-miterlimit="10" x1="0" y1="352" x2="512" y2="352"/>
				<line fill="none" stroke="#A9CCDB" stroke-miterlimit="10" x1="0" y1="320" x2="512" y2="320"/>
				<line fill="none" stroke="#A9CCDB" stroke-miterlimit="10" x1="0" y1="288" x2="512" y2="288"/>
				<line fill="none" stroke="#A9CCDB" stroke-miterlimit="10" x1="0" y1="256" x2="512" y2="256"/>
				<line fill="none" stroke="#A9CCDB" stroke-miterlimit="10" x1="0" y1="224" x2="512" y2="224"/>
				<line fill="none" stroke="#A9CCDB" stroke-miterlimit="10" x1="0" y1="192" x2="512" y2="192"/>
				<line fill="none" stroke="#A9CCDB" stroke-miterlimit="10" x1="0" y1="160" x2="512" y2="160"/>
				<line fill="none" stroke="#A9CCDB" stroke-miterlimit="10" x1="0" y1="128" x2="512" y2="128"/>
				<line fill="none" stroke="#A9CCDB" stroke-miterlimit="10" x1="0" y1="96" x2="512" y2="96"/>
				<line fill="none" stroke="#A9CCDB" stroke-miterlimit="10" x1="0" y1="64" x2="512" y2="64"/>
				<line fill="none" stroke="#A9CCDB" stroke-miterlimit="10" x1="0" y1="32" x2="512" y2="32"/>
				<line fill="none" stroke="#A9CCDB" stroke-miterlimit="10" x1="480" y1="0" x2="480" y2="512"/>
				<line fill="none" stroke="#A9CCDB" stroke-miterlimit="10" x1="448" y1="0" x2="448" y2="512"/>
				<line fill="none" stroke="#A9CCDB" stroke-miterlimit="10" x1="416" y1="0" x2="416" y2="512"/>
				<line fill="none" stroke="#A9CCDB" stroke-miterlimit="10" x1="384" y1="0" x2="384" y2="512"/>
				<line fill="none" stroke="#A9CCDB" stroke-miterlimit="10" x1="352" y1="0" x2="352" y2="512"/>
				<line fill="none" stroke="#A9CCDB" stroke-miterlimit="10" x1="320" y1="0" x2="320" y2="512"/>
				<line fill="none" stroke="#A9CCDB" stroke-miterlimit="10" x1="288" y1="0" x2="288" y2="512"/>
				<line fill="none" stroke="#A9CCDB" stroke-miterlimit="10" x1="256" y1="0" x2="256" y2="512"/>
				<line fill="none" stroke="#A9CCDB" stroke-miterlimit="10" x1="224" y1="0" x2="224" y2="512"/>
				<line fill="none" stroke="#A9CCDB" stroke-miterlimit="10" x1="192" y1="0" x2="192" y2="512"/>
				<line fill="none" stroke="#A9CCDB" stroke-miterlimit="10" x1="160" y1="0" x2="160" y2="512"/>
				<line fill="none" stroke="#A9CCDB" stroke-miterlimit="10" x1="128" y1="0" x2="128" y2="512"/>
				<line fill="none" stroke="#A9CCDB" stroke-miterlimit="10" x1="96" y1="0" x2="96" y2="512"/>
				<line fill="none" stroke="#A9CCDB" stroke-miterlimit="10" x1="64" y1="0" x2="64" y2="512"/>
				<line fill="none" stroke="#A9CCDB" stroke-miterlimit="10" x1="32" y1="0" x2="32" y2="512"/>
			</g>
		</g>
	</g>
</g>
<path d="M0,262.684c0-44.445,13.867-82.578,41.6-114.4c-1.6-4.089-3.022-8.978-4.267-14.667c-1.245-5.688-2.4-13.511-3.467-23.467
	c-1.067-9.955-0.622-21.511,1.333-34.666c1.956-13.156,5.511-26.578,10.667-40.267c0.889-0.356,2.267-0.667,4.133-0.934
	s6.089-0.045,12.667,0.667c6.578,0.711,13.733,2.311,21.467,4.8c7.733,2.488,18.044,7.11,30.934,13.866
	c12.889,6.756,26.444,15.378,40.667,25.867C180.089,72.194,213.511,68.55,256,68.55c42.489,0,75.822,3.645,100,10.934
	c14.222-10.489,27.733-19.156,40.533-26c12.8-6.845,23.245-11.423,31.334-13.733c8.088-2.312,15.155-3.911,21.199-4.8
	c6.045-0.89,10.4-1.067,13.067-0.534l4,0.801c5.155,13.688,8.666,27.11,10.533,40.267c1.866,13.155,2.267,24.755,1.199,34.8
	c-1.066,10.044-2.178,17.822-3.333,23.333c-1.155,5.512-2.533,10.4-4.133,14.667c27.733,32,41.6,70.133,41.6,114.4
	c0,24.711-2.178,47.111-6.533,67.2c-4.355,20.088-10.4,37.511-18.134,52.267c-7.733,14.755-17.555,27.688-29.467,38.8
	c-11.911,11.111-24.844,20.267-38.8,27.467c-13.955,7.199-29.866,13.021-47.733,17.467c-17.866,4.444-36.089,7.555-54.666,9.333
	c-18.578,1.777-38.978,2.667-61.2,2.667c-22.222,0-42.578-0.89-61.067-2.667c-18.489-1.778-36.667-4.889-54.533-9.333
	c-17.867-4.445-33.733-10.268-47.6-17.467c-13.867-7.2-26.711-16.355-38.533-27.467s-21.6-24.045-29.333-38.8
	c-7.733-14.756-13.733-32.179-18-52.267C2.133,309.795,0,287.395,0,262.684z M68.267,329.884c0,15.11,1.778,28.577,5.333,40.399
	c3.555,11.822,8.044,21.733,13.467,29.733c5.422,8,13.022,14.756,22.8,20.267c9.778,5.512,19.245,9.778,28.4,12.8
	c9.156,3.022,20.978,5.378,35.467,7.067c14.489,1.688,27.422,2.711,38.8,3.066s25.778,0.533,43.2,0.533
	c17.422,0,31.866-0.178,43.333-0.533s24.444-1.378,38.934-3.066c14.489-1.689,26.312-4.045,35.467-7.067
	c9.155-3.021,18.622-7.288,28.4-12.8c9.777-5.511,17.377-12.267,22.8-20.267c5.422-8,9.911-17.911,13.467-29.733
	c3.555-11.822,5.333-25.289,5.333-40.399c0-25.778-10.667-49.156-32-70.134c-6.4-6.4-13.867-11.245-22.4-14.533
	c-8.533-3.289-18.178-5.156-28.933-5.601c-10.756-0.444-21.022-0.355-30.801,0.267c-9.777,0.622-21.866,1.467-36.267,2.533
	c-14.4,1.067-26.844,1.601-37.333,1.601c-10.489,0-22.934-0.533-37.333-1.601c-14.4-1.066-26.489-1.911-36.267-2.533
	s-20.044-0.711-30.8-0.267c-10.756,0.444-20.355,2.312-28.8,5.601c-8.444,3.288-15.867,8.133-22.267,14.533
	C78.933,280.728,68.267,304.105,68.267,329.884z M136.267,323.75c0-11.911,2.489-22,7.467-30.267s11.022-12.4,18.133-12.4
	s13.155,4.134,18.133,12.4s7.467,18.355,7.467,30.267c0,11.733-2.489,21.778-7.467,30.134s-11.022,12.533-18.133,12.533
	s-13.155-4.178-18.133-12.533S136.267,335.483,136.267,323.75z M221.867,399.217c-0.355-1.422-0.267-2.8,0.267-4.134
	c0.533-1.333,1.422-2.178,2.667-2.533c3.022-1.244,4.978-0.178,5.867,3.2c1.956,6.045,5.245,10.934,9.867,14.667s9.689,5.6,15.2,5.6
	c5.511,0,10.577-1.866,15.2-5.6c4.622-3.733,7.911-8.622,9.866-14.667c0.89-3.378,2.845-4.444,5.866-3.2
	c1.245,0.355,2.134,1.2,2.667,2.533c0.533,1.334,0.622,2.712,0.267,4.134c-2.488,8.178-6.844,14.8-13.066,19.866
	c-6.223,5.067-13.155,7.601-20.8,7.601s-14.578-2.533-20.8-7.601C228.711,414.017,224.355,407.395,221.867,399.217z M238.4,366.95
	c0-2.312,1.689-4.312,5.067-6c3.378-1.689,7.378-2.533,12-2.533s8.622,0.844,12,2.533c3.378,1.688,5.066,3.688,5.066,6
	c0,2.311-1.688,4.311-5.066,6c-3.378,1.688-7.378,2.533-12,2.533s-8.622-0.845-12-2.533C240.089,371.261,238.4,369.261,238.4,366.95
	z M323.467,323.75c0-11.911,2.488-22,7.467-30.267c4.978-8.267,11.021-12.4,18.133-12.4s13.155,4.134,18.134,12.4
	c4.978,8.267,7.467,18.355,7.467,30.267c0,11.733-2.489,21.778-7.467,30.134c-4.979,8.355-11.022,12.533-18.134,12.533
	s-13.155-4.178-18.133-12.533C325.955,345.528,323.467,335.483,323.467,323.75z"/>
</svg>
