<?xml version="1.0" encoding="utf-8"?>
<!-- Generator: Adobe Illustrator 16.0.0, SVG Export Plug-In . SVG Version: 6.00 Build 0)  -->
<!DOCTYPE svg PUBLIC "-//W3C//DTD SVG 1.1//EN" "http://www.w3.org/Graphics/SVG/1.1/DTD/svg11.dtd">
<svg version="1.1" id="Layer_1" xmlns="http://www.w3.org/2000/svg" xmlns:xlink="http://www.w3.org/1999/xlink" x="0px" y="0px"
	 width="512px" height="512px" viewBox="0 0 512 512" enable-background="new 0 0 512 512" xml:space="preserve">
<g id="Grid_1_">
	<g id="Layer_1_1_">
		<g id="Grid">
			<g>
				<rect fill="none" stroke="#A9CCDB" stroke-miterlimit="10" width="512" height="512"/>
				<line fill="none" stroke="#A9CCDB" stroke-miterlimit="10" x1="0" y1="480" x2="512" y2="480"/>
				<line fill="none" stroke="#A9CCDB" stroke-miterlimit="10" x1="0" y1="448" x2="512" y2="448"/>
				<line fill="none" stroke="#A9CCDB" stroke-miterlimit="10" x1="0" y1="416" x2="512" y2="416"/>
				<line fill="none" stroke="#A9CCDB" stroke-miterlimit="10" x1="0" y1="384" x2="512" y2="384"/>
				<line fill="none" stroke="#A9CCDB" stroke-miterlimit="10" x1="0" y1="352" x2="512" y2="352"/>
				<line fill="none" stroke="#A9CCDB" stroke-miterlimit="10" x1="0" y1="320" x2="512" y2="320"/>
				<line fill="none" stroke="#A9CCDB" stroke-miterlimit="10" x1="0" y1="288" x2="512" y2="288"/>
				<line fill="none" stroke="#A9CCDB" stroke-miterlimit="10" x1="0" y1="256" x2="512" y2="256"/>
				<line fill="none" stroke="#A9CCDB" stroke-miterlimit="10" x1="0" y1="224" x2="512" y2="224"/>
				<line fill="none" stroke="#A9CCDB" stroke-miterlimit="10" x1="0" y1="192" x2="512" y2="192"/>
				<line fill="none" stroke="#A9CCDB" stroke-miterlimit="10" x1="0" y1="160" x2="512" y2="160"/>
				<line fill="none" stroke="#A9CCDB" stroke-miterlimit="10" x1="0" y1="128" x2="512" y2="128"/>
				<line fill="none" stroke="#A9CCDB" stroke-miterlimit="10" x1="0" y1="96" x2="512" y2="96"/>
				<line fill="none" stroke="#A9CCDB" stroke-miterlimit="10" x1="0" y1="64" x2="512" y2="64"/>
				<line fill="none" stroke="#A9CCDB" stroke-miterlimit="10" x1="0" y1="32" x2="512" y2="32"/>
				<line fill="none" stroke="#A9CCDB" stroke-miterlimit="10" x1="480" y1="0" x2="480" y2="512"/>
				<line fill="none" stroke="#A9CCDB" stroke-miterlimit="10" x1="448" y1="0" x2="448" y2="512"/>
				<line fill="none" stroke="#A9CCDB" stroke-miterlimit="10" x1="416" y1="0" x2="416" y2="512"/>
				<line fill="none" stroke="#A9CCDB" stroke-miterlimit="10" x1="384" y1="0" x2="384" y2="512"/>
				<line fill="none" stroke="#A9CCDB" stroke-miterlimit="10" x1="352" y1="0" x2="352" y2="512"/>
				<line fill="none" stroke="#A9CCDB" stroke-miterlimit="10" x1="320" y1="0" x2="320" y2="512"/>
				<line fill="none" stroke="#A9CCDB" stroke-miterlimit="10" x1="288" y1="0" x2="288" y2="512"/>
				<line fill="none" stroke="#A9CCDB" stroke-miterlimit="10" x1="256" y1="0" x2="256" y2="512"/>
				<line fill="none" stroke="#A9CCDB" stroke-miterlimit="10" x1="224" y1="0" x2="224" y2="512"/>
				<line fill="none" stroke="#A9CCDB" stroke-miterlimit="10" x1="192" y1="0" x2="192" y2="512"/>
				<line fill="none" stroke="#A9CCDB" stroke-miterlimit="10" x1="160" y1="0" x2="160" y2="512"/>
				<line fill="none" stroke="#A9CCDB" stroke-miterlimit="10" x1="128" y1="0" x2="128" y2="512"/>
				<line fill="none" stroke="#A9CCDB" stroke-miterlimit="10" x1="96" y1="0" x2="96" y2="512"/>
				<line fill="none" stroke="#A9CCDB" stroke-miterlimit="10" x1="64" y1="0" x2="64" y2="512"/>
				<line fill="none" stroke="#A9CCDB" stroke-miterlimit="10" x1="32" y1="0" x2="32" y2="512"/>
			</g>
		</g>
	</g>
</g>
<path d="M0,278.205c0-41.395,13.854-77.197,41.561-107.408c-1.502-4.006-2.879-8.554-4.131-13.645
	c-1.251-5.091-2.42-12.352-3.505-21.782s-0.667-20.321,1.252-32.673s5.466-24.953,10.64-37.806c1.001-0.333,2.379-0.626,4.131-0.876
	s5.967-0.042,12.644,0.626c6.676,0.668,13.854,2.128,21.531,4.382c7.678,2.253,17.985,6.593,30.92,13.019
	s26.497,14.479,40.685,24.16c24.369-6.676,57.751-10.015,100.147-10.015c42.562,0,76.028,3.339,100.396,10.015
	c14.188-9.681,27.666-17.734,40.435-24.16s23.201-10.766,31.296-13.019c8.095-2.254,15.189-3.756,21.281-4.507
	s10.474-0.876,13.145-0.376l3.755,0.751c5.175,12.853,8.722,25.454,10.641,37.806c1.92,12.352,2.337,23.242,1.252,32.673
	s-2.253,16.691-3.505,21.782s-2.629,9.639-4.131,13.645C498.146,201.008,512,236.811,512,278.205c0,23.2-2.17,44.189-6.51,62.967
	s-10.39,35.093-18.151,48.946s-17.609,26.039-29.543,36.554c-11.935,10.516-24.87,19.111-38.808,25.788
	c-13.937,6.677-29.835,12.101-47.694,16.273s-36.053,7.094-54.58,8.764c-18.527,1.669-38.974,2.503-61.34,2.503
	c-22.199,0-42.562-0.834-61.089-2.503c-18.527-1.67-36.679-4.591-54.455-8.764c-17.776-4.173-33.591-9.597-47.444-16.273
	s-26.706-15.272-38.556-25.788c-11.851-10.515-21.615-22.7-29.293-36.554c-7.678-13.854-13.687-30.169-18.026-48.946
	C2.17,322.395,0,301.405,0,278.205z M62.842,341.047c0,14.354,1.794,27.081,5.383,38.181c3.588,11.1,8.179,20.405,13.77,27.916
	s13.353,13.896,23.284,19.153s19.612,9.305,29.042,12.143c9.431,2.837,21.532,5.049,36.303,6.635s27.958,2.546,39.558,2.879
	c11.6,0.334,26.33,0.501,44.189,0.501c17.86,0,32.589-0.167,44.19-0.501c11.6-0.333,24.786-1.293,39.558-2.879
	s26.873-3.798,36.304-6.635c9.431-2.838,19.111-6.885,29.042-12.143c9.932-5.258,17.692-11.643,23.284-19.153
	s10.182-16.816,13.771-27.916c3.588-11.1,5.383-23.826,5.383-38.181c0-24.369-10.933-46.401-32.798-66.097
	c-6.51-6.01-14.104-10.558-22.783-13.646c-8.68-3.088-18.486-4.84-29.419-5.258c-10.933-0.417-21.406-0.334-31.421,0.251
	c-10.015,0.584-22.366,1.377-37.054,2.378c-14.688,1.002-27.374,1.502-38.056,1.502s-23.368-0.5-38.056-1.502
	c-14.688-1.001-27.04-1.794-37.054-2.378c-10.015-0.585-20.488-0.668-31.421-0.251c-10.933,0.418-20.739,2.17-29.418,5.258
	c-8.679,3.088-16.274,7.636-22.783,13.646C73.775,294.979,62.842,317.012,62.842,341.047z M135.699,345.303
	c0-15.689,3.755-29.126,11.267-40.309c7.511-11.184,16.607-16.774,27.29-16.774c10.682,0,19.737,5.55,27.165,16.649
	c7.428,11.099,11.142,24.577,11.142,40.434s-3.714,29.335-11.142,40.435s-16.482,16.649-27.165,16.649
	c-10.683,0-19.779-5.592-27.29-16.774C139.454,374.429,135.699,360.993,135.699,345.303z M296.685,345.303
	c0-15.689,3.756-29.126,11.267-40.309c7.511-11.184,16.524-16.774,27.039-16.774c10.683,0,19.779,5.591,27.29,16.774
	c7.512,11.183,11.267,24.619,11.267,40.309c0,15.69-3.755,29.126-11.267,40.31c-7.511,11.183-16.607,16.774-27.29,16.774
	c-10.515,0-19.528-5.592-27.039-16.774C300.44,374.429,296.685,360.993,296.685,345.303z"/>
</svg>
