<?xml version="1.0" encoding="utf-8"?> <!-- Generator: IcoMoon.io --> <!DOCTYPE svg PUBLIC "-//W3C//DTD SVG 1.1//EN" "http://www.w3.org/Graphics/SVG/1.1/DTD/svg11.dtd"> <svg width="512" height="512" viewBox="0 0 512 512" xmlns="http://www.w3.org/2000/svg" xmlns:xlink="http://www.w3.org/1999/xlink" fill="#000000"><g class="svgGrid" id="svgGrid"><line stroke-width="1" stroke="#B35047" x1="32" x2="32" y1="0" y2="512"></line><line stroke-width="1" stroke="#B35047" x1="64" x2="64" y1="0" y2="512"></line><line stroke-width="1" stroke="#B35047" x1="96" x2="96" y1="0" y2="512"></line><line stroke-width="1" stroke="#B35047" x1="128" x2="128" y1="0" y2="512"></line><line stroke-width="1" stroke="#B35047" x1="160" x2="160" y1="0" y2="512"></line><line stroke-width="1" stroke="#B35047" x1="192" x2="192" y1="0" y2="512"></line><line stroke-width="1" stroke="#B35047" x1="224" x2="224" y1="0" y2="512"></line><line stroke-width="1" stroke="#B35047" x1="256" x2="256" y1="0" y2="512"></line><line stroke-width="1" stroke="#B35047" x1="288" x2="288" y1="0" y2="512"></line><line stroke-width="1" stroke="#B35047" x1="320" x2="320" y1="0" y2="512"></line><line stroke-width="1" stroke="#B35047" x1="352" x2="352" y1="0" y2="512"></line><line stroke-width="1" stroke="#B35047" x1="384" x2="384" y1="0" y2="512"></line><line stroke-width="1" stroke="#B35047" x1="416" x2="416" y1="0" y2="512"></line><line stroke-width="1" stroke="#B35047" x1="448" x2="448" y1="0" y2="512"></line><line stroke-width="1" stroke="#B35047" x1="480" x2="480" y1="0" y2="512"></line><line stroke-width="1" stroke="#B35047" x1="0" x2="512" y1="32" y2="32"></line><line stroke-width="1" stroke="#B35047" x1="0" x2="512" y1="64" y2="64"></line><line stroke-width="1" stroke="#B35047" x1="0" x2="512" y1="96" y2="96"></line><line stroke-width="1" stroke="#B35047" x1="0" x2="512" y1="128" y2="128"></line><line stroke-width="1" stroke="#B35047" x1="0" x2="512" y1="160" y2="160"></line><line stroke-width="1" stroke="#B35047" x1="0" x2="512" y1="192" y2="192"></line><line stroke-width="1" stroke="#B35047" x1="0" x2="512" y1="224" y2="224"></line><line stroke-width="1" stroke="#B35047" x1="0" x2="512" y1="256" y2="256"></line><line stroke-width="1" stroke="#B35047" x1="0" x2="512" y1="288" y2="288"></line><line stroke-width="1" stroke="#B35047" x1="0" x2="512" y1="320" y2="320"></line><line stroke-width="1" stroke="#B35047" x1="0" x2="512" y1="352" y2="352"></line><line stroke-width="1" stroke="#B35047" x1="0" x2="512" y1="384" y2="384"></line><line stroke-width="1" stroke="#B35047" x1="0" x2="512" y1="416" y2="416"></line><line stroke-width="1" stroke="#B35047" x1="0" x2="512" y1="448" y2="448"></line><line stroke-width="1" stroke="#B35047" x1="0" x2="512" y1="480" y2="480"></line><rect x="0" y="0" width="512" height="512" fill="none" stroke-width="1" stroke="#B35047"></rect></g><path d="M 131.736,379.684c0.00,13.526, 11.447,20.291, 34.334,20.291c 20.032,0.00, 30.044-7.021, 30.044-21.067 c0.00-13.269-10.923-19.898-32.772-19.898C 142.269,359.008, 131.736,365.898, 131.736,379.684zM 426.674,0.00L 85.344,0.00 C 38.406,0.00,0.00,38.405,0.00,85.344l0.00,341.313 C0.00,473.625, 38.406,512.00, 85.344,512.00l 341.33,0.00 C 473.608,512.00, 512.00,473.625, 512.00,426.656L 512.00,85.344 C 512.00,38.405, 473.609,0.00, 426.674,0.00z M 237.864,204.494 c-3.642,1.302-8.844,2.729-15.606,4.293c 2.08,5.983, 3.123,11.576, 3.123,16.777c0.00,16.646-5.009,31.149-15.022,43.506 c-10.015,12.354-22.956,19.703-38.823,22.043c-10.402,1.563-15.604,7.156-15.604,16.779c0.00,3.381, 1.689,6.765, 5.072,10.145 c 4.422,4.943, 10.924,8.066, 19.509,9.367c 37.195,5.721, 55.793,21.197, 55.793,46.427c0.00,40.321-24.062,60.481-72.181,60.481 c-19.771,0.00-36.028-3.513-48.772-10.535c-16.129-8.844-24.188-22.76-24.188-41.75c0.00-21.852, 12.096-36.808, 36.282-44.869l0.00-0.78 c-8.842-5.462-13.263-13.785-13.263-24.972c0.00-14.566, 4.162-23.672, 12.484-27.311l0.00-0.781 c-8.323-2.862-15.737-9.366-22.24-19.512 c-7.282-10.926-10.925-22.63-10.925-35.115c0.00-18.729, 6.635-34.335, 19.896-46.82c 12.748-11.707, 27.964-17.558, 45.653-17.558 c 12.747,0.00, 24.579,3.119, 35.505,9.361c 12.485,0.00, 26.921-3.12, 43.313-9.361L 237.864,204.494L 237.864,204.494z M 301.089,339.497 l-44.093,0.00 c 0.521-5.201, 0.779-14.042, 0.779-26.532L 257.775,191.619 c0.00-12.227-0.261-20.682-0.779-25.359l 44.093,0.00 c-0.521,4.942-0.781,13.135-0.781,24.582l0.00,119.782 C 300.308,323.891, 300.569,333.516, 301.089,339.497z M 298.159,127.241 c-5.332,5.722-11.641,8.581-18.923,8.581c-7.543,0.00-13.979-2.859-19.313-8.581c-5.333-5.726-8.001-12.486-8.001-20.289 c0.00-8.067, 2.668-14.956, 8.001-20.683c 5.333-5.721, 11.77-8.584, 19.313-8.584c 7.282,0.00, 13.592,2.863, 18.923,8.584 c 5.333,5.728, 7.999,12.615, 7.999,20.683C 306.158,114.755, 303.492,121.516, 298.159,127.241z M 420.845,334.424 c-9.627,5.205-21.203,7.803-34.729,7.803c-18.985,0.00-32.124-6.76-39.405-20.287c-5.465-10.145-8.193-26.14-8.193-47.99l0.00-69.842 l 0.389,0.00 l0.00-0.781 l-5.853-0.391c-3.382,0.00-7.806,0.391-13.267,1.171L 319.787,166.26 l 19.117,0.00 l0.00-15.216 c0.00-7.285-0.389-13.14-1.17-17.56l 45.259,0.00 c-0.775,4.94-1.168,10.533-1.168,16.776l0.00,15.999 l 33.943,0.00 l0.00,37.846 c-1.299,0.00-3.705-0.129-7.218-0.389 c-3.512-0.261-6.828-0.393-9.949-0.393l-16.777,0.00 l0.00,72.572 c0.00,17.432, 5.725,26.145, 17.167,26.145c 8.063,0.00, 15.348-2.209, 21.854-6.632 L 420.845,334.424 L 420.845,334.424zM 160.608,200.203c-16.388,0.00-24.582,9.627-24.582,28.873c0.00,17.951, 8.194,26.924, 24.582,26.924 c 15.868,0.00, 23.801-9.104, 23.801-27.313c0.00-7.545-1.82-14.047-5.461-19.511C 174.525,203.195, 168.411,200.203, 160.608,200.203z" ></path></svg>