<?xml version="1.0" encoding="utf-8"?> <!-- Generator: IcoMoon --> <!DOCTYPE svg PUBLIC "-//W3C//DTD SVG 1.1//EN" "http://www.w3.org/Graphics/SVG/1.1/DTD/svg11.dtd"> <svg width="512" height="512" viewBox="0 0 512 512" data-tags="github, social" fill="#000000"><g class="svgGrid" id="svgGrid"><line stroke-width="1" stroke="#B35047" x1="32" x2="32" y1="0" y2="512"></line><line stroke-width="1" stroke="#B35047" x1="64" x2="64" y1="0" y2="512"></line><line stroke-width="1" stroke="#B35047" x1="96" x2="96" y1="0" y2="512"></line><line stroke-width="1" stroke="#B35047" x1="128" x2="128" y1="0" y2="512"></line><line stroke-width="1" stroke="#B35047" x1="160" x2="160" y1="0" y2="512"></line><line stroke-width="1" stroke="#B35047" x1="192" x2="192" y1="0" y2="512"></line><line stroke-width="1" stroke="#B35047" x1="224" x2="224" y1="0" y2="512"></line><line stroke-width="1" stroke="#B35047" x1="256" x2="256" y1="0" y2="512"></line><line stroke-width="1" stroke="#B35047" x1="288" x2="288" y1="0" y2="512"></line><line stroke-width="1" stroke="#B35047" x1="320" x2="320" y1="0" y2="512"></line><line stroke-width="1" stroke="#B35047" x1="352" x2="352" y1="0" y2="512"></line><line stroke-width="1" stroke="#B35047" x1="384" x2="384" y1="0" y2="512"></line><line stroke-width="1" stroke="#B35047" x1="416" x2="416" y1="0" y2="512"></line><line stroke-width="1" stroke="#B35047" x1="448" x2="448" y1="0" y2="512"></line><line stroke-width="1" stroke="#B35047" x1="480" x2="480" y1="0" y2="512"></line><line stroke-width="1" stroke="#B35047" x1="0" x2="512" y1="32" y2="32"></line><line stroke-width="1" stroke="#B35047" x1="0" x2="512" y1="64" y2="64"></line><line stroke-width="1" stroke="#B35047" x1="0" x2="512" y1="96" y2="96"></line><line stroke-width="1" stroke="#B35047" x1="0" x2="512" y1="128" y2="128"></line><line stroke-width="1" stroke="#B35047" x1="0" x2="512" y1="160" y2="160"></line><line stroke-width="1" stroke="#B35047" x1="0" x2="512" y1="192" y2="192"></line><line stroke-width="1" stroke="#B35047" x1="0" x2="512" y1="224" y2="224"></line><line stroke-width="1" stroke="#B35047" x1="0" x2="512" y1="256" y2="256"></line><line stroke-width="1" stroke="#B35047" x1="0" x2="512" y1="288" y2="288"></line><line stroke-width="1" stroke="#B35047" x1="0" x2="512" y1="320" y2="320"></line><line stroke-width="1" stroke="#B35047" x1="0" x2="512" y1="352" y2="352"></line><line stroke-width="1" stroke="#B35047" x1="0" x2="512" y1="384" y2="384"></line><line stroke-width="1" stroke="#B35047" x1="0" x2="512" y1="416" y2="416"></line><line stroke-width="1" stroke="#B35047" x1="0" x2="512" y1="448" y2="448"></line><line stroke-width="1" stroke="#B35047" x1="0" x2="512" y1="480" y2="480"></line><rect x="0" y="0" width="512" height="512" fill="none" stroke-width="1" stroke="#B35047"></rect></g><path d="M 424.598,77.953c 3.946-12.739, 9.222-41.029-5.26-77.244c0.00,0.00-25.548-8.113-83.339,30.565 c-22.645-5.656-46.731-8.453-70.859-8.453c-26.547,0.00-53.372,3.383-78.393,10.244c-59.63-40.683-85.956-32.348-85.956-32.348 C 83.604,43.69, 94.228,75.508, 97.46,83.411c-20.196,21.797-32.528,49.623-32.528,83.738c0.00,25.757, 2.933,48.86, 10.097,68.943 l 7.532,17.061c 20.129,37.527, 59.824,61.766, 130.437,69.377c-10.022,6.729-20.245,18.18-24.389,37.556 c-13.66,6.533-56.891,22.479-82.833-22.14c0.00,0.00-14.521-26.551-42.312-28.627c0.00,0.00-26.96-0.414-1.863,16.801 c0.00,0.00, 18.04,8.501, 30.488,40.443c0.00,0.00, 16.236,54.492, 94.59,37.008l0.00,56.28 c0.00,0.00-1.655,19.907-19.906,26.54 c0.00,0.00-10.781,7.473, 0.835,11.609c0.00,0.00, 50.589,4.149, 50.589-37.318l0.00-61.371 c0.00,0.00-2.007-24.338, 9.952-32.802l0.00,100.806 c0.00,0.00-0.827,24.056-13.267,33.176c0.00,0.00-8.301,14.923, 9.947,10.785c0.00,0.00, 34.833-4.979, 36.493-45.615l 0.789-102.014l 8.373,0.00 l 0.796,102.014c 1.658,40.636, 36.491,45.615, 36.491,45.615c 18.24,4.138, 9.949-10.785, 9.949-10.785 c-12.441-9.125-13.268-33.176-13.268-33.176L 304.452,367.38 c 11.948,9.312, 9.949,31.933, 9.949,31.933l0.00,61.369 c0.00,41.471, 50.592,37.316, 50.592,37.316c 11.605-4.139, 0.832-11.604, 0.832-11.604c-18.249-6.634-19.905-26.542-19.905-26.542 l0.00-80.442 c0.00-31.371-13.209-47.989-26.131-56.755c 75.307-7.469, 111.444-31.782, 128.094-69.564l 5.946-16.865 c 5.583-20.118, 7.262-43.271, 7.262-69.088C 461.092,130.114, 447.181,100.493, 424.598,77.953z M 264.535,308.643 c-82.092,0.00-148.627-12.355-148.627-91.684c0.00-18.991, 9.354-36.625, 25.371-51.259c 26.725-24.389, 71.947-11.475, 123.253-11.475 c 51.078-0.008, 96.148-13.053, 122.906,11.168l 0.01,0.008c 16.219,14.696, 25.706,32.441, 25.706,51.559 C 413.156,306.229, 346.615,308.643, 264.535,308.643zM 184.177,176.994c-17.079,0.00-30.924,19.924-30.924,44.506c0.00,24.589, 13.846,44.52, 30.924,44.52s 30.922-19.931, 30.922-44.52 C 215.099,196.918, 201.254,177.012, 184.177,176.994zM 350.095,176.994c-17.078,0.00-30.921,19.924-30.921,44.506c0.00,24.589, 13.843,44.52, 30.921,44.52 c 17.079,0.00, 30.922-19.931, 30.922-44.52C 381.018,196.918, 367.175,177.012, 350.095,176.994z" ></path></svg>