<?xml version="1.0" encoding="utf-8"?> <!-- Generator: IcoMoon --> <!DOCTYPE svg PUBLIC "-//W3C//DTD SVG 1.1//EN" "http://www.w3.org/Graphics/SVG/1.1/DTD/svg11.dtd"> <svg width="512" height="512" viewBox="0 0 512 512" data-tags="github, octacat, social" fill="#000000"><g class="svgGrid" id="svgGrid"><line stroke-width="1" stroke="#B35047" x1="32" x2="32" y1="0" y2="512"></line><line stroke-width="1" stroke="#B35047" x1="64" x2="64" y1="0" y2="512"></line><line stroke-width="1" stroke="#B35047" x1="96" x2="96" y1="0" y2="512"></line><line stroke-width="1" stroke="#B35047" x1="128" x2="128" y1="0" y2="512"></line><line stroke-width="1" stroke="#B35047" x1="160" x2="160" y1="0" y2="512"></line><line stroke-width="1" stroke="#B35047" x1="192" x2="192" y1="0" y2="512"></line><line stroke-width="1" stroke="#B35047" x1="224" x2="224" y1="0" y2="512"></line><line stroke-width="1" stroke="#B35047" x1="256" x2="256" y1="0" y2="512"></line><line stroke-width="1" stroke="#B35047" x1="288" x2="288" y1="0" y2="512"></line><line stroke-width="1" stroke="#B35047" x1="320" x2="320" y1="0" y2="512"></line><line stroke-width="1" stroke="#B35047" x1="352" x2="352" y1="0" y2="512"></line><line stroke-width="1" stroke="#B35047" x1="384" x2="384" y1="0" y2="512"></line><line stroke-width="1" stroke="#B35047" x1="416" x2="416" y1="0" y2="512"></line><line stroke-width="1" stroke="#B35047" x1="448" x2="448" y1="0" y2="512"></line><line stroke-width="1" stroke="#B35047" x1="480" x2="480" y1="0" y2="512"></line><line stroke-width="1" stroke="#B35047" x1="0" x2="512" y1="32" y2="32"></line><line stroke-width="1" stroke="#B35047" x1="0" x2="512" y1="64" y2="64"></line><line stroke-width="1" stroke="#B35047" x1="0" x2="512" y1="96" y2="96"></line><line stroke-width="1" stroke="#B35047" x1="0" x2="512" y1="128" y2="128"></line><line stroke-width="1" stroke="#B35047" x1="0" x2="512" y1="160" y2="160"></line><line stroke-width="1" stroke="#B35047" x1="0" x2="512" y1="192" y2="192"></line><line stroke-width="1" stroke="#B35047" x1="0" x2="512" y1="224" y2="224"></line><line stroke-width="1" stroke="#B35047" x1="0" x2="512" y1="256" y2="256"></line><line stroke-width="1" stroke="#B35047" x1="0" x2="512" y1="288" y2="288"></line><line stroke-width="1" stroke="#B35047" x1="0" x2="512" y1="320" y2="320"></line><line stroke-width="1" stroke="#B35047" x1="0" x2="512" y1="352" y2="352"></line><line stroke-width="1" stroke="#B35047" x1="0" x2="512" y1="384" y2="384"></line><line stroke-width="1" stroke="#B35047" x1="0" x2="512" y1="416" y2="416"></line><line stroke-width="1" stroke="#B35047" x1="0" x2="512" y1="448" y2="448"></line><line stroke-width="1" stroke="#B35047" x1="0" x2="512" y1="480" y2="480"></line><rect x="0" y="0" width="512" height="512" fill="none" stroke-width="1" stroke="#B35047"></rect></g><path d="M0.00,262.684c0.00-44.445, 13.867-82.578, 41.60-114.40c-1.60-4.089-3.022-8.978-4.267-14.667c-1.245-5.688-2.40-13.511-3.467-23.467 c-1.067-9.955-0.622-21.511, 1.333-34.666c 1.956-13.156, 5.511-26.578, 10.667-40.267c 0.889-0.356, 2.267-0.667, 4.133-0.934 s 6.089-0.045, 12.667,0.667c 6.578,0.711, 13.733,2.311, 21.467,4.80c 7.733,2.488, 18.044,7.11, 30.934,13.866 c 12.889,6.756, 26.444,15.378, 40.667,25.867C 180.089,72.194, 213.511,68.55, 256.00,68.55c 42.489,0.00, 75.822,3.645, 100.00,10.934 c 14.222-10.489, 27.733-19.156, 40.533-26.00c 12.80-6.845, 23.245-11.423, 31.334-13.733c 8.088-2.312, 15.155-3.911, 21.199-4.80 c 6.045-0.89, 10.40-1.067, 13.067-0.534l 4.00,0.801c 5.155,13.688, 8.666,27.11, 10.533,40.267c 1.866,13.155, 2.267,24.755, 1.199,34.80 c-1.066,10.044-2.178,17.822-3.333,23.333c-1.155,5.512-2.533,10.40-4.133,14.667c 27.733,32.00, 41.60,70.133, 41.60,114.40 c0.00,24.711-2.178,47.111-6.533,67.20c-4.355,20.088-10.40,37.511-18.134,52.267c-7.733,14.755-17.555,27.688-29.467,38.80 c-11.911,11.111-24.844,20.267-38.80,27.467c-13.955,7.199-29.866,13.021-47.733,17.467c-17.866,4.444-36.089,7.555-54.666,9.333 c-18.578,1.777-38.978,2.667-61.20,2.667c-22.222,0.00-42.578-0.89-61.067-2.667c-18.489-1.778-36.667-4.889-54.533-9.333 c-17.867-4.445-33.733-10.268-47.60-17.467c-13.867-7.20-26.711-16.355-38.533-27.467s-21.60-24.045-29.333-38.80 c-7.733-14.756-13.733-32.179-18.00-52.267C 2.133,309.795,0.00,287.395,0.00,262.684z M 68.267,329.884c0.00,15.11, 1.778,28.577, 5.333,40.399 c 3.555,11.822, 8.044,21.733, 13.467,29.733c 5.422,8.00, 13.022,14.756, 22.80,20.267c 9.778,5.512, 19.245,9.778, 28.40,12.80 c 9.156,3.022, 20.978,5.378, 35.467,7.067c 14.489,1.688, 27.422,2.711, 38.80,3.066s 25.778,0.533, 43.20,0.533 c 17.422,0.00, 31.866-0.178, 43.333-0.533s 24.444-1.378, 38.934-3.066c 14.489-1.689, 26.312-4.045, 35.467-7.067 c 9.155-3.021, 18.622-7.288, 28.40-12.80c 9.777-5.511, 17.377-12.267, 22.80-20.267c 5.422-8.00, 9.911-17.911, 13.467-29.733 c 3.555-11.822, 5.333-25.289, 5.333-40.399c0.00-25.778-10.667-49.156-32.00-70.134c-6.40-6.40-13.867-11.245-22.40-14.533 c-8.533-3.289-18.178-5.156-28.933-5.601c-10.756-0.444-21.022-0.355-30.801,0.267c-9.777,0.622-21.866,1.467-36.267,2.533 c-14.40,1.067-26.844,1.601-37.333,1.601c-10.489,0.00-22.934-0.533-37.333-1.601c-14.40-1.066-26.489-1.911-36.267-2.533 s-20.044-0.711-30.80-0.267c-10.756,0.444-20.355,2.312-28.80,5.601c-8.444,3.288-15.867,8.133-22.267,14.533 C 78.933,280.728, 68.267,304.105, 68.267,329.884z M 136.267,323.75c0.00-11.911, 2.489-22.00, 7.467-30.267s 11.022-12.40, 18.133-12.40 s 13.155,4.134, 18.133,12.40s 7.467,18.355, 7.467,30.267c0.00,11.733-2.489,21.778-7.467,30.134s-11.022,12.533-18.133,12.533 s-13.155-4.178-18.133-12.533S 136.267,335.483, 136.267,323.75z M 221.867,399.217c-0.355-1.422-0.267-2.80, 0.267-4.134 c 0.533-1.333, 1.422-2.178, 2.667-2.533c 3.022-1.244, 4.978-0.178, 5.867,3.20c 1.956,6.045, 5.245,10.934, 9.867,14.667s 9.689,5.60, 15.20,5.60 c 5.511,0.00, 10.577-1.866, 15.20-5.60c 4.622-3.733, 7.911-8.622, 9.866-14.667c 0.89-3.378, 2.845-4.444, 5.866-3.20 c 1.245,0.355, 2.134,1.20, 2.667,2.533c 0.533,1.334, 0.622,2.712, 0.267,4.134c-2.488,8.178-6.844,14.80-13.066,19.866 c-6.223,5.067-13.155,7.601-20.80,7.601s-14.578-2.533-20.80-7.601C 228.711,414.017, 224.355,407.395, 221.867,399.217z M 238.40,366.95 c0.00-2.312, 1.689-4.312, 5.067-6.00c 3.378-1.689, 7.378-2.533, 12.00-2.533s 8.622,0.844, 12.00,2.533c 3.378,1.688, 5.066,3.688, 5.066,6.00 c0.00,2.311-1.688,4.311-5.066,6.00c-3.378,1.688-7.378,2.533-12.00,2.533s-8.622-0.845-12.00-2.533C 240.089,371.261, 238.40,369.261, 238.40,366.95 z M 323.467,323.75c0.00-11.911, 2.488-22.00, 7.467-30.267c 4.978-8.267, 11.021-12.40, 18.133-12.40s 13.155,4.134, 18.134,12.40 c 4.978,8.267, 7.467,18.355, 7.467,30.267c0.00,11.733-2.489,21.778-7.467,30.134c-4.979,8.355-11.022,12.533-18.134,12.533 s-13.155-4.178-18.133-12.533C 325.955,345.528, 323.467,335.483, 323.467,323.75z" ></path></svg>