<?xml version="1.0" encoding="utf-8"?> <!-- Generator: IcoMoon.io --> <!DOCTYPE svg PUBLIC "-//W3C//DTD SVG 1.1//EN" "http://www.w3.org/Graphics/SVG/1.1/DTD/svg11.dtd"> <svg width="512" height="512" viewBox="0 0 512 512" xmlns="http://www.w3.org/2000/svg" xmlns:xlink="http://www.w3.org/1999/xlink" fill="#000000"><g class="svgGrid" id="svgGrid"><line stroke-width="1" stroke="#B35047" x1="32" x2="32" y1="0" y2="512"></line><line stroke-width="1" stroke="#B35047" x1="64" x2="64" y1="0" y2="512"></line><line stroke-width="1" stroke="#B35047" x1="96" x2="96" y1="0" y2="512"></line><line stroke-width="1" stroke="#B35047" x1="128" x2="128" y1="0" y2="512"></line><line stroke-width="1" stroke="#B35047" x1="160" x2="160" y1="0" y2="512"></line><line stroke-width="1" stroke="#B35047" x1="192" x2="192" y1="0" y2="512"></line><line stroke-width="1" stroke="#B35047" x1="224" x2="224" y1="0" y2="512"></line><line stroke-width="1" stroke="#B35047" x1="256" x2="256" y1="0" y2="512"></line><line stroke-width="1" stroke="#B35047" x1="288" x2="288" y1="0" y2="512"></line><line stroke-width="1" stroke="#B35047" x1="320" x2="320" y1="0" y2="512"></line><line stroke-width="1" stroke="#B35047" x1="352" x2="352" y1="0" y2="512"></line><line stroke-width="1" stroke="#B35047" x1="384" x2="384" y1="0" y2="512"></line><line stroke-width="1" stroke="#B35047" x1="416" x2="416" y1="0" y2="512"></line><line stroke-width="1" stroke="#B35047" x1="448" x2="448" y1="0" y2="512"></line><line stroke-width="1" stroke="#B35047" x1="480" x2="480" y1="0" y2="512"></line><line stroke-width="1" stroke="#B35047" x1="0" x2="512" y1="32" y2="32"></line><line stroke-width="1" stroke="#B35047" x1="0" x2="512" y1="64" y2="64"></line><line stroke-width="1" stroke="#B35047" x1="0" x2="512" y1="96" y2="96"></line><line stroke-width="1" stroke="#B35047" x1="0" x2="512" y1="128" y2="128"></line><line stroke-width="1" stroke="#B35047" x1="0" x2="512" y1="160" y2="160"></line><line stroke-width="1" stroke="#B35047" x1="0" x2="512" y1="192" y2="192"></line><line stroke-width="1" stroke="#B35047" x1="0" x2="512" y1="224" y2="224"></line><line stroke-width="1" stroke="#B35047" x1="0" x2="512" y1="256" y2="256"></line><line stroke-width="1" stroke="#B35047" x1="0" x2="512" y1="288" y2="288"></line><line stroke-width="1" stroke="#B35047" x1="0" x2="512" y1="320" y2="320"></line><line stroke-width="1" stroke="#B35047" x1="0" x2="512" y1="352" y2="352"></line><line stroke-width="1" stroke="#B35047" x1="0" x2="512" y1="384" y2="384"></line><line stroke-width="1" stroke="#B35047" x1="0" x2="512" y1="416" y2="416"></line><line stroke-width="1" stroke="#B35047" x1="0" x2="512" y1="448" y2="448"></line><line stroke-width="1" stroke="#B35047" x1="0" x2="512" y1="480" y2="480"></line><rect x="0" y="0" width="512" height="512" fill="none" stroke-width="1" stroke="#B35047"></rect></g><path d="M 240.00,32.00C 107.452,32.00,0.00,139.452,0.00,272.00c0.00,132.549, 107.452,240.00, 240.00,240.00c 132.549,0.00, 240.00-107.451, 240.00-240.00 C 480.00,139.452, 372.549,32.00, 240.00,32.00z M 375.795,352.00c 4.29-20.227, 6.998-41.696, 7.879-64.00l 63.723,0.00 c-1.668,22.098-6.812,43.557-15.34,64.00 L 375.795,352.00 z M 104.205,192.00c-4.29,20.227-6.998,41.696-7.879,64.00L 32.604,256.00 c 1.668-22.097, 6.811-43.557, 15.339-64.00L 104.205,192.00 z M 343.018,192.00 c 4.807,20.481, 7.699,41.927, 8.64,64.00L 256.00,256.00 l0.00-64.00 L 343.018,192.00 z M 256.00,160.00L 256.00,66.331 c 7.295,2.123, 14.522,5.685, 21.614,10.685 c 13.291,9.37, 26.006,23.804, 36.77,41.743c 7.441,12.401, 13.876,26.208, 19.248,41.242L 256.00,160.001 z M 165.616,118.758 c 10.764-17.939, 23.478-32.374, 36.77-41.743c 7.091-5.00, 14.319-8.562, 21.614-10.685L 224.00,160.00 l-77.632,0.00 C 151.741,144.967, 158.176,131.16, 165.616,118.758z M 224.00,192.00l0.00,64.00 l-95.657,0.00 c 0.94-22.073, 3.833-43.519, 8.639-64.00L 224.00,192.00 z M 47.944,352.00 c-8.528-20.443-13.671-41.902-15.339-64.00l 63.722,0.00 c 0.881,22.304, 3.589,43.773, 7.879,64.00L 47.944,352.00 z M 128.343,288.00L 224.00,288.00 l0.00,64.00 l-87.018,0.00 C 132.176,331.52, 129.283,310.073, 128.343,288.00z M 224.00,384.00l0.00,93.67 c-7.294-2.123-14.522-5.686-21.614-10.685 c-13.292-9.37-26.007-23.805-36.77-41.743c-7.441-12.402-13.875-26.209-19.249-41.242L 224.00,384.00 z M 314.384,425.242 c-10.764,17.938-23.479,32.373-36.77,41.743c-7.092,4.999-14.319,8.562-21.614,10.685L 256.00,384.00 l 77.633,0.00 C 328.26,399.033, 321.825,412.84, 314.384,425.242z M 256.00,352.00l0.00-64.00 l 95.657,0.00 c-0.94,22.073-3.833,43.52-8.64,64.00L 256.00,352.00 z M 383.674,256.00 c-0.881-22.304-3.589-43.773-7.879-64.00l 56.262,0.00 c 8.528,20.443, 13.672,41.903, 15.34,64.00L 383.674,256.00 z M 415.329,160.00l-47.95,0.00 c-9.319-29.381-22.188-55.147-37.658-75.714c 21.268,10.17, 40.529,23.808, 57.357,40.636C 397.818,135.661, 407.259,147.391, 415.329,160.00 z M 92.922,124.922c 16.829-16.829, 36.09-30.466, 57.357-40.636c-15.471,20.567-28.338,46.333-37.658,75.714L 64.672,160.00 C 72.741,147.391, 82.183,135.661, 92.922,124.922z M 64.672,384.00l 47.949,0.00 c 9.32,29.381, 22.188,55.147, 37.659,75.715 c-21.268-10.17-40.529-23.808-57.357-40.637C 82.183,408.339, 72.741,396.609, 64.672,384.00z M 387.078,419.078 c-16.828,16.829-36.09,30.467-57.357,40.637c 15.471-20.567, 28.339-46.334, 37.658-75.715l 47.95,0.00 C 407.259,396.609, 397.818,408.339, 387.078,419.078z" ></path></svg>