<?xml version="1.0" encoding="utf-8"?> <!-- Generator: IcoMoon.io --> <!DOCTYPE svg PUBLIC "-//W3C//DTD SVG 1.1//EN" "http://www.w3.org/Graphics/SVG/1.1/DTD/svg11.dtd"> <svg width="512" height="512" viewBox="0 0 512 512" xmlns="http://www.w3.org/2000/svg" xmlns:xlink="http://www.w3.org/1999/xlink" fill="#000000"><g class="svgGrid" id="svgGrid"><line stroke-width="1" stroke="#B35047" x1="32" x2="32" y1="0" y2="512"></line><line stroke-width="1" stroke="#B35047" x1="64" x2="64" y1="0" y2="512"></line><line stroke-width="1" stroke="#B35047" x1="96" x2="96" y1="0" y2="512"></line><line stroke-width="1" stroke="#B35047" x1="128" x2="128" y1="0" y2="512"></line><line stroke-width="1" stroke="#B35047" x1="160" x2="160" y1="0" y2="512"></line><line stroke-width="1" stroke="#B35047" x1="192" x2="192" y1="0" y2="512"></line><line stroke-width="1" stroke="#B35047" x1="224" x2="224" y1="0" y2="512"></line><line stroke-width="1" stroke="#B35047" x1="256" x2="256" y1="0" y2="512"></line><line stroke-width="1" stroke="#B35047" x1="288" x2="288" y1="0" y2="512"></line><line stroke-width="1" stroke="#B35047" x1="320" x2="320" y1="0" y2="512"></line><line stroke-width="1" stroke="#B35047" x1="352" x2="352" y1="0" y2="512"></line><line stroke-width="1" stroke="#B35047" x1="384" x2="384" y1="0" y2="512"></line><line stroke-width="1" stroke="#B35047" x1="416" x2="416" y1="0" y2="512"></line><line stroke-width="1" stroke="#B35047" x1="448" x2="448" y1="0" y2="512"></line><line stroke-width="1" stroke="#B35047" x1="480" x2="480" y1="0" y2="512"></line><line stroke-width="1" stroke="#B35047" x1="0" x2="512" y1="32" y2="32"></line><line stroke-width="1" stroke="#B35047" x1="0" x2="512" y1="64" y2="64"></line><line stroke-width="1" stroke="#B35047" x1="0" x2="512" y1="96" y2="96"></line><line stroke-width="1" stroke="#B35047" x1="0" x2="512" y1="128" y2="128"></line><line stroke-width="1" stroke="#B35047" x1="0" x2="512" y1="160" y2="160"></line><line stroke-width="1" stroke="#B35047" x1="0" x2="512" y1="192" y2="192"></line><line stroke-width="1" stroke="#B35047" x1="0" x2="512" y1="224" y2="224"></line><line stroke-width="1" stroke="#B35047" x1="0" x2="512" y1="256" y2="256"></line><line stroke-width="1" stroke="#B35047" x1="0" x2="512" y1="288" y2="288"></line><line stroke-width="1" stroke="#B35047" x1="0" x2="512" y1="320" y2="320"></line><line stroke-width="1" stroke="#B35047" x1="0" x2="512" y1="352" y2="352"></line><line stroke-width="1" stroke="#B35047" x1="0" x2="512" y1="384" y2="384"></line><line stroke-width="1" stroke="#B35047" x1="0" x2="512" y1="416" y2="416"></line><line stroke-width="1" stroke="#B35047" x1="0" x2="512" y1="448" y2="448"></line><line stroke-width="1" stroke="#B35047" x1="0" x2="512" y1="480" y2="480"></line><rect x="0" y="0" width="512" height="512" fill="none" stroke-width="1" stroke="#B35047"></rect></g><path d="M 394.767,32.00c0.00,0.00-100.478,0.00-133.97,0.00c-60.061,0.00-116.585,45.503-116.585,98.211c0.00,53.863, 40.941,97.333, 102.044,97.333 c 4.249,0.00, 8.378-0.085, 12.42-0.376c-3.964,7.593-6.80,16.144-6.80,25.021c0.00,14.969, 8.052,27.105, 18.234,37.012 c-7.693,0.00-15.121,0.224-23.226,0.224c-74.391-0.001-131.65,47.38-131.65,96.511c0.00,48.389, 62.771,78.656, 137.167,78.656 c 84.812,0.00, 131.653-48.122, 131.653-96.514c0.00-38.801-11.448-62.036-46.843-87.067c-12.108-8.571-35.266-29.418-35.266-41.672 c0.00-14.36, 4.098-21.434, 25.714-38.323c 22.156-17.312, 37.837-41.651, 37.837-69.958c0.00-33.703-15.011-66.549-43.187-77.386l 42.478,0.00 L 394.767,32.00z M 347.974,359.729c 1.063,4.486, 1.642,9.104, 1.642,13.814c0.00,39.10-25.195,69.655-97.487,69.655 c-51.421,0.00-88.558-32.552-88.558-71.65c0.00-38.321, 46.063-70.222, 97.482-69.666c 12.00,0.127, 23.184,2.058, 33.334,5.345 C 322.301,326.641, 342.325,337.607, 347.974,359.729z M 265.643,213.888c-34.519-1.032-67.318-38.613-73.276-83.93 c-5.958-45.333, 17.185-80.021, 51.694-78.995C 278.565,52.00, 311.379,88.37, 317.34,133.692 C 323.293,179.022, 300.145,214.921, 265.643,213.888z" ></path></svg>