<?xml version="1.0" encoding="utf-8"?> <!-- Generator: IcoMoon.io --> <!DOCTYPE svg PUBLIC "-//W3C//DTD SVG 1.1//EN" "http://www.w3.org/Graphics/SVG/1.1/DTD/svg11.dtd"> <svg width="512" height="512" viewBox="0 0 512 512" xmlns="http://www.w3.org/2000/svg" xmlns:xlink="http://www.w3.org/1999/xlink" fill="#000000"><g class="svgGrid" id="svgGrid"><line stroke-width="1" stroke="#B35047" x1="32" x2="32" y1="0" y2="512"></line><line stroke-width="1" stroke="#B35047" x1="64" x2="64" y1="0" y2="512"></line><line stroke-width="1" stroke="#B35047" x1="96" x2="96" y1="0" y2="512"></line><line stroke-width="1" stroke="#B35047" x1="128" x2="128" y1="0" y2="512"></line><line stroke-width="1" stroke="#B35047" x1="160" x2="160" y1="0" y2="512"></line><line stroke-width="1" stroke="#B35047" x1="192" x2="192" y1="0" y2="512"></line><line stroke-width="1" stroke="#B35047" x1="224" x2="224" y1="0" y2="512"></line><line stroke-width="1" stroke="#B35047" x1="256" x2="256" y1="0" y2="512"></line><line stroke-width="1" stroke="#B35047" x1="288" x2="288" y1="0" y2="512"></line><line stroke-width="1" stroke="#B35047" x1="320" x2="320" y1="0" y2="512"></line><line stroke-width="1" stroke="#B35047" x1="352" x2="352" y1="0" y2="512"></line><line stroke-width="1" stroke="#B35047" x1="384" x2="384" y1="0" y2="512"></line><line stroke-width="1" stroke="#B35047" x1="416" x2="416" y1="0" y2="512"></line><line stroke-width="1" stroke="#B35047" x1="448" x2="448" y1="0" y2="512"></line><line stroke-width="1" stroke="#B35047" x1="480" x2="480" y1="0" y2="512"></line><line stroke-width="1" stroke="#B35047" x1="0" x2="512" y1="32" y2="32"></line><line stroke-width="1" stroke="#B35047" x1="0" x2="512" y1="64" y2="64"></line><line stroke-width="1" stroke="#B35047" x1="0" x2="512" y1="96" y2="96"></line><line stroke-width="1" stroke="#B35047" x1="0" x2="512" y1="128" y2="128"></line><line stroke-width="1" stroke="#B35047" x1="0" x2="512" y1="160" y2="160"></line><line stroke-width="1" stroke="#B35047" x1="0" x2="512" y1="192" y2="192"></line><line stroke-width="1" stroke="#B35047" x1="0" x2="512" y1="224" y2="224"></line><line stroke-width="1" stroke="#B35047" x1="0" x2="512" y1="256" y2="256"></line><line stroke-width="1" stroke="#B35047" x1="0" x2="512" y1="288" y2="288"></line><line stroke-width="1" stroke="#B35047" x1="0" x2="512" y1="320" y2="320"></line><line stroke-width="1" stroke="#B35047" x1="0" x2="512" y1="352" y2="352"></line><line stroke-width="1" stroke="#B35047" x1="0" x2="512" y1="384" y2="384"></line><line stroke-width="1" stroke="#B35047" x1="0" x2="512" y1="416" y2="416"></line><line stroke-width="1" stroke="#B35047" x1="0" x2="512" y1="448" y2="448"></line><line stroke-width="1" stroke="#B35047" x1="0" x2="512" y1="480" y2="480"></line><rect x="0" y="0" width="512" height="512" fill="none" stroke-width="1" stroke="#B35047"></rect></g><path d="M 218.503,409.081 C 218.503,446.615 195.308,476.277 129.624,478.669 C 91.132,456.776 58.879,425.193 36.17,387.236 C 48.015,357.988 85.016,335.713 127.328,336.179 C 139.339,336.305 150.533,338.236 160.70,341.529 C 188.654,360.962 211.20,373.105 216.862,395.253 C 217.919,399.735 218.503,404.356 218.503,409.081 ZM 256.00,0.00C 182.03,0.00, 115.402,31.385, 68.667,81.549c 18.467-10.226, 40.269-16.319, 63.451-16.319c 33.534,0.00, 128.219,0.00, 128.219,0.00 L 231.685,95.30L 198.03,95.30 c 23.748,13.606, 36.376,41.624, 36.376,72.506c0.00,28.346-15.708,51.19-37.89,68.529 c-21.64,16.901-25.746,23.983-25.746,38.367c0.00,12.271, 25.861,30.549, 37.75,39.468c 41.409,31.056, 49.789,50.592, 49.789,89.435 c0.00,39.363-34.468,78.552-92.933,91.871C 193.55,506.145, 224.089,512.00, 256.00,512.00c 141.385,0.00, 256.00-114.615, 256.00-256.00S 397.385,0.00, 256.00,0.00z M 384.00,192.00l0.00,64.00 l-32.00,0.00 l0.00-64.00 l-64.00,0.00 l0.00-32.00 l 64.00,0.00 L 352.00,96.00 l 32.00,0.00 l0.00,64.00 l 64.00,0.00 l0.00,32.00 L 384.00,192.00 zM 182.884,169.736 C 188.845,215.124 168.961,244.331 134.417,243.303 C 99.854,242.262 67.014,210.557 61.047,165.182 C 55.083,119.788 78.256,85.055 112.812,86.084 C 147.357,87.121 176.922,124.355 182.884,169.736 ZM 110.443,321.034 C 73.103,321.034 41.379,333.918 19.022,352.966 C 6.771,323.056 0.00,290.321 0.00,256.00 C 0.00,227.617 4.628,200.316 13.156,174.802 C 16.843,224.523 51.832,262.898 109.641,262.898 C 113.898,262.898 118.023,262.677 122.078,262.387 C 118.103,270.002 115.267,278.482 115.267,287.378 C 115.267,302.363 123.511,310.913 133.701,320.825 C 126.00,320.825 118.566,321.034 110.443,321.034 Z" ></path></svg>