<?xml version="1.0" encoding="utf-8"?> <!-- Generator: IcoMoon --> <!DOCTYPE svg PUBLIC "-//W3C//DTD SVG 1.1//EN" "http://www.w3.org/Graphics/SVG/1.1/DTD/svg11.dtd"> <svg width="512" height="512" viewBox="0 0 512 512" data-tags="google plus, social" fill="#000000"><g class="svgGrid" id="svgGrid"><line stroke-width="1" stroke="#B35047" x1="32" x2="32" y1="0" y2="512"></line><line stroke-width="1" stroke="#B35047" x1="64" x2="64" y1="0" y2="512"></line><line stroke-width="1" stroke="#B35047" x1="96" x2="96" y1="0" y2="512"></line><line stroke-width="1" stroke="#B35047" x1="128" x2="128" y1="0" y2="512"></line><line stroke-width="1" stroke="#B35047" x1="160" x2="160" y1="0" y2="512"></line><line stroke-width="1" stroke="#B35047" x1="192" x2="192" y1="0" y2="512"></line><line stroke-width="1" stroke="#B35047" x1="224" x2="224" y1="0" y2="512"></line><line stroke-width="1" stroke="#B35047" x1="256" x2="256" y1="0" y2="512"></line><line stroke-width="1" stroke="#B35047" x1="288" x2="288" y1="0" y2="512"></line><line stroke-width="1" stroke="#B35047" x1="320" x2="320" y1="0" y2="512"></line><line stroke-width="1" stroke="#B35047" x1="352" x2="352" y1="0" y2="512"></line><line stroke-width="1" stroke="#B35047" x1="384" x2="384" y1="0" y2="512"></line><line stroke-width="1" stroke="#B35047" x1="416" x2="416" y1="0" y2="512"></line><line stroke-width="1" stroke="#B35047" x1="448" x2="448" y1="0" y2="512"></line><line stroke-width="1" stroke="#B35047" x1="480" x2="480" y1="0" y2="512"></line><line stroke-width="1" stroke="#B35047" x1="0" x2="512" y1="32" y2="32"></line><line stroke-width="1" stroke="#B35047" x1="0" x2="512" y1="64" y2="64"></line><line stroke-width="1" stroke="#B35047" x1="0" x2="512" y1="96" y2="96"></line><line stroke-width="1" stroke="#B35047" x1="0" x2="512" y1="128" y2="128"></line><line stroke-width="1" stroke="#B35047" x1="0" x2="512" y1="160" y2="160"></line><line stroke-width="1" stroke="#B35047" x1="0" x2="512" y1="192" y2="192"></line><line stroke-width="1" stroke="#B35047" x1="0" x2="512" y1="224" y2="224"></line><line stroke-width="1" stroke="#B35047" x1="0" x2="512" y1="256" y2="256"></line><line stroke-width="1" stroke="#B35047" x1="0" x2="512" y1="288" y2="288"></line><line stroke-width="1" stroke="#B35047" x1="0" x2="512" y1="320" y2="320"></line><line stroke-width="1" stroke="#B35047" x1="0" x2="512" y1="352" y2="352"></line><line stroke-width="1" stroke="#B35047" x1="0" x2="512" y1="384" y2="384"></line><line stroke-width="1" stroke="#B35047" x1="0" x2="512" y1="416" y2="416"></line><line stroke-width="1" stroke="#B35047" x1="0" x2="512" y1="448" y2="448"></line><line stroke-width="1" stroke="#B35047" x1="0" x2="512" y1="480" y2="480"></line><rect x="0" y="0" width="512" height="512" fill="none" stroke-width="1" stroke="#B35047"></rect></g><path d="M 279.533,32.00c0.00,0.00-100.478,0.00-133.97,0.00C 85.503,32.00, 28.978,77.503, 28.978,130.211c0.00,53.863, 40.941,97.333, 102.044,97.333 c 4.249,0.00, 8.378-0.085, 12.421-0.376c-3.965,7.593-6.801,16.144-6.801,25.021c0.00,14.969, 8.052,27.105, 18.234,37.012 c-7.693,0.00-15.121,0.224-23.226,0.224C 57.259,289.424,0.00,336.804,0.00,385.935c0.00,48.389, 62.771,78.657, 137.167,78.657 c 84.812,0.00, 131.653-48.122, 131.653-96.514c0.00-38.80-11.448-62.036-46.843-87.067c-12.108-8.572-35.265-29.418-35.265-41.672 c0.00-14.36, 4.098-21.434, 25.714-38.323c 22.156-17.312, 37.836-41.651, 37.836-69.958c0.00-33.703-15.01-66.549-43.186-77.386l 42.477,0.00 L 279.533,32.00z M 232.74,359.729c 1.063,4.486, 1.642,9.103, 1.642,13.814c0.00,39.10-25.196,69.655-97.487,69.655 c-51.421,0.00-88.558-32.552-88.558-71.65c0.00-38.321, 46.063-70.222, 97.482-69.666c 12.00,0.127, 23.184,2.058, 33.335,5.345 C 207.067,326.64, 227.092,337.608, 232.74,359.729z M 150.409,213.888c-34.519-1.032-67.318-38.613-73.276-83.93 c-5.958-45.333, 17.185-80.021, 51.694-78.995c 34.505,1.037, 67.319,37.407, 73.279,82.729 C 208.059,179.022, 184.911,214.921, 150.409,213.888zM 416.00,128.00L 416.00,32.00L 384.00,32.00L 384.00,128.00L 288.00,128.00L 288.00,160.00L 384.00,160.00L 384.00,256.00L 416.00,256.00L 416.00,160.00L 512.00,160.00L 512.00,128.00 z" ></path></svg>