<?xml version="1.0" encoding="utf-8"?> <!-- Generator: IcoMoon.io --> <!DOCTYPE svg PUBLIC "-//W3C//DTD SVG 1.1//EN" "http://www.w3.org/Graphics/SVG/1.1/DTD/svg11.dtd"> <svg width="512" height="512" viewBox="0 0 512 512" xmlns="http://www.w3.org/2000/svg" xmlns:xlink="http://www.w3.org/1999/xlink" fill="#000000"><g class="svgGrid" id="svgGrid"><line stroke-width="1" stroke="#B35047" x1="32" x2="32" y1="0" y2="512"></line><line stroke-width="1" stroke="#B35047" x1="64" x2="64" y1="0" y2="512"></line><line stroke-width="1" stroke="#B35047" x1="96" x2="96" y1="0" y2="512"></line><line stroke-width="1" stroke="#B35047" x1="128" x2="128" y1="0" y2="512"></line><line stroke-width="1" stroke="#B35047" x1="160" x2="160" y1="0" y2="512"></line><line stroke-width="1" stroke="#B35047" x1="192" x2="192" y1="0" y2="512"></line><line stroke-width="1" stroke="#B35047" x1="224" x2="224" y1="0" y2="512"></line><line stroke-width="1" stroke="#B35047" x1="256" x2="256" y1="0" y2="512"></line><line stroke-width="1" stroke="#B35047" x1="288" x2="288" y1="0" y2="512"></line><line stroke-width="1" stroke="#B35047" x1="320" x2="320" y1="0" y2="512"></line><line stroke-width="1" stroke="#B35047" x1="352" x2="352" y1="0" y2="512"></line><line stroke-width="1" stroke="#B35047" x1="384" x2="384" y1="0" y2="512"></line><line stroke-width="1" stroke="#B35047" x1="416" x2="416" y1="0" y2="512"></line><line stroke-width="1" stroke="#B35047" x1="448" x2="448" y1="0" y2="512"></line><line stroke-width="1" stroke="#B35047" x1="480" x2="480" y1="0" y2="512"></line><line stroke-width="1" stroke="#B35047" x1="0" x2="512" y1="32" y2="32"></line><line stroke-width="1" stroke="#B35047" x1="0" x2="512" y1="64" y2="64"></line><line stroke-width="1" stroke="#B35047" x1="0" x2="512" y1="96" y2="96"></line><line stroke-width="1" stroke="#B35047" x1="0" x2="512" y1="128" y2="128"></line><line stroke-width="1" stroke="#B35047" x1="0" x2="512" y1="160" y2="160"></line><line stroke-width="1" stroke="#B35047" x1="0" x2="512" y1="192" y2="192"></line><line stroke-width="1" stroke="#B35047" x1="0" x2="512" y1="224" y2="224"></line><line stroke-width="1" stroke="#B35047" x1="0" x2="512" y1="256" y2="256"></line><line stroke-width="1" stroke="#B35047" x1="0" x2="512" y1="288" y2="288"></line><line stroke-width="1" stroke="#B35047" x1="0" x2="512" y1="320" y2="320"></line><line stroke-width="1" stroke="#B35047" x1="0" x2="512" y1="352" y2="352"></line><line stroke-width="1" stroke="#B35047" x1="0" x2="512" y1="384" y2="384"></line><line stroke-width="1" stroke="#B35047" x1="0" x2="512" y1="416" y2="416"></line><line stroke-width="1" stroke="#B35047" x1="0" x2="512" y1="448" y2="448"></line><line stroke-width="1" stroke="#B35047" x1="0" x2="512" y1="480" y2="480"></line><rect x="0" y="0" width="512" height="512" fill="none" stroke-width="1" stroke="#B35047"></rect></g><path d="M 0.403,434.832c-0.122-1.266-0.226-2.535-0.292-3.815C 0.176,432.297, 0.281,433.566, 0.403,434.832zM 117.954,282.574c 46.005,1.369, 76.867-46.349, 68.931-106.599c-7.947-60.24-51.698-108.584-97.704-109.961 c-46.013-1.365-76.87,44.741-68.926,105.00C 28.196,231.248, 71.931,281.201, 117.954,282.574zM 512.00,128.00L 512.00,85.345 C 512.00,38.405, 473.609,0.00, 426.671,0.00L 85.343,0.00 C 39.205,0.00, 1.337,37.116, 0.061,82.963 c 29.181-25.693, 69.662-47.158, 111.437-47.158c 44.652,0.00, 178.622,0.00, 178.622,0.00l-39.974,33.809l-56.634,0.00 c 37.565,14.402, 57.578,58.062, 57.578,102.861c0.00,37.624-20.905,69.977-50.444,92.984c-28.822,22.451-34.286,31.854-34.286,50.939 c0.00,16.289, 30.873,44.00, 47.016,55.394c 47.191,33.269, 62.458,64.156, 62.458,115.728c0.00,8.214-1.021,16.415-3.033,24.48l 153.871,0.00 C 473.609,512.00, 512.00,473.625, 512.00,426.655L 512.00,160.001 l-96.00,0.00 L 416.00,256.00 l-32.00,0.00 l0.00-96.00 l-95.999,0.00 l0.00-32.00 L 384.00,128.00 L 384.00,32.00 l 32.00,0.00 l0.00,96.00 L 512.00,128.00 zM 92.943,382.968c 10.807,0.00, 20.711-0.295, 30.968-0.295c-13.573-13.167-24.313-29.30-24.313-49.19 c0.00-11.804, 3.782-23.168, 9.067-33.26c-5.391,0.385-10.895,0.497-16.563,0.497c-37.178,0.00-68.753-12.038-92.102-31.927l0.00,33.621 l 0.003,100.865C 26.723,390.592, 58.447,382.968, 92.943,382.968zM 1.71,443.629c-0.556-2.729-0.983-5.503-1.271-8.317C 0.726,438.126, 1.154,440.90, 1.71,443.629zM 227.725,476.423c-7.529-29.403-34.227-43.982-71.444-69.784c-13.536-4.366-28.447-6.937-44.447-7.104 c-44.809-0.482-86.554,17.471-110.108,44.186C 9.686,482.574, 44.243,512.00, 85.343,512.00l 143.222,0.00 c 0.908-5.564, 1.348-11.316, 1.348-17.216 C 229.913,488.517, 229.146,482.388, 227.725,476.423z" ></path></svg>