<?xml version="1.0" encoding="utf-8"?>
<!-- Generator: Adobe Illustrator 16.0.0, SVG Export Plug-In . SVG Version: 6.00 Build 0)  -->
<!DOCTYPE svg PUBLIC "-//W3C//DTD SVG 1.1//EN" "http://www.w3.org/Graphics/SVG/1.1/DTD/svg11.dtd">
<svg version="1.1" id="Layer_1" xmlns="http://www.w3.org/2000/svg" xmlns:xlink="http://www.w3.org/1999/xlink" x="0px" y="0px"
	 width="512px" height="512px" viewBox="0 0 512 512" enable-background="new 0 0 512 512" xml:space="preserve">
<g id="Grid_1_">
	<g id="Layer_1_1_">
		<g id="Grid">
			<g>
				<rect fill="none" stroke="#A9CCDB" stroke-miterlimit="10" width="512" height="512"/>
				<line fill="none" stroke="#A9CCDB" stroke-miterlimit="10" x1="0" y1="480" x2="512" y2="480"/>
				<line fill="none" stroke="#A9CCDB" stroke-miterlimit="10" x1="0" y1="448" x2="512" y2="448"/>
				<line fill="none" stroke="#A9CCDB" stroke-miterlimit="10" x1="0" y1="416" x2="512" y2="416"/>
				<line fill="none" stroke="#A9CCDB" stroke-miterlimit="10" x1="0" y1="384" x2="512" y2="384"/>
				<line fill="none" stroke="#A9CCDB" stroke-miterlimit="10" x1="0" y1="352" x2="512" y2="352"/>
				<line fill="none" stroke="#A9CCDB" stroke-miterlimit="10" x1="0" y1="320" x2="512" y2="320"/>
				<line fill="none" stroke="#A9CCDB" stroke-miterlimit="10" x1="0" y1="288" x2="512" y2="288"/>
				<line fill="none" stroke="#A9CCDB" stroke-miterlimit="10" x1="0" y1="256" x2="512" y2="256"/>
				<line fill="none" stroke="#A9CCDB" stroke-miterlimit="10" x1="0" y1="224" x2="512" y2="224"/>
				<line fill="none" stroke="#A9CCDB" stroke-miterlimit="10" x1="0" y1="192" x2="512" y2="192"/>
				<line fill="none" stroke="#A9CCDB" stroke-miterlimit="10" x1="0" y1="160" x2="512" y2="160"/>
				<line fill="none" stroke="#A9CCDB" stroke-miterlimit="10" x1="0" y1="128" x2="512" y2="128"/>
				<line fill="none" stroke="#A9CCDB" stroke-miterlimit="10" x1="0" y1="96" x2="512" y2="96"/>
				<line fill="none" stroke="#A9CCDB" stroke-miterlimit="10" x1="0" y1="64" x2="512" y2="64"/>
				<line fill="none" stroke="#A9CCDB" stroke-miterlimit="10" x1="0" y1="32" x2="512" y2="32"/>
				<line fill="none" stroke="#A9CCDB" stroke-miterlimit="10" x1="480" y1="0" x2="480" y2="512"/>
				<line fill="none" stroke="#A9CCDB" stroke-miterlimit="10" x1="448" y1="0" x2="448" y2="512"/>
				<line fill="none" stroke="#A9CCDB" stroke-miterlimit="10" x1="416" y1="0" x2="416" y2="512"/>
				<line fill="none" stroke="#A9CCDB" stroke-miterlimit="10" x1="384" y1="0" x2="384" y2="512"/>
				<line fill="none" stroke="#A9CCDB" stroke-miterlimit="10" x1="352" y1="0" x2="352" y2="512"/>
				<line fill="none" stroke="#A9CCDB" stroke-miterlimit="10" x1="320" y1="0" x2="320" y2="512"/>
				<line fill="none" stroke="#A9CCDB" stroke-miterlimit="10" x1="288" y1="0" x2="288" y2="512"/>
				<line fill="none" stroke="#A9CCDB" stroke-miterlimit="10" x1="256" y1="0" x2="256" y2="512"/>
				<line fill="none" stroke="#A9CCDB" stroke-miterlimit="10" x1="224" y1="0" x2="224" y2="512"/>
				<line fill="none" stroke="#A9CCDB" stroke-miterlimit="10" x1="192" y1="0" x2="192" y2="512"/>
				<line fill="none" stroke="#A9CCDB" stroke-miterlimit="10" x1="160" y1="0" x2="160" y2="512"/>
				<line fill="none" stroke="#A9CCDB" stroke-miterlimit="10" x1="128" y1="0" x2="128" y2="512"/>
				<line fill="none" stroke="#A9CCDB" stroke-miterlimit="10" x1="96" y1="0" x2="96" y2="512"/>
				<line fill="none" stroke="#A9CCDB" stroke-miterlimit="10" x1="64" y1="0" x2="64" y2="512"/>
				<line fill="none" stroke="#A9CCDB" stroke-miterlimit="10" x1="32" y1="0" x2="32" y2="512"/>
			</g>
		</g>
	</g>
</g>
<g>
	<path d="M0.403,434.832c-0.122-1.266-0.226-2.535-0.292-3.815C0.176,432.297,0.281,433.566,0.403,434.832z"/>
	<path d="M117.954,282.574c46.005,1.369,76.867-46.349,68.931-106.599c-7.947-60.24-51.698-108.584-97.704-109.961
		c-46.013-1.365-76.87,44.741-68.926,105C28.196,231.248,71.931,281.201,117.954,282.574z"/>
	<path d="M512,128V85.345C512,38.405,473.609,0,426.671,0H85.343C39.205,0,1.337,37.116,0.061,82.963
		c29.181-25.693,69.662-47.158,111.437-47.158c44.652,0,178.622,0,178.622,0l-39.974,33.809h-56.634
		c37.565,14.402,57.578,58.062,57.578,102.861c0,37.624-20.905,69.977-50.444,92.984c-28.822,22.451-34.286,31.854-34.286,50.939
		c0,16.289,30.873,44,47.016,55.394c47.191,33.269,62.458,64.156,62.458,115.728c0,8.214-1.021,16.415-3.033,24.48h153.871
		C473.609,512,512,473.625,512,426.655V160.001h-96V256h-32v-96h-95.999v-32H384V32h32v96H512z"/>
	<path d="M92.943,382.968c10.807,0,20.711-0.295,30.968-0.295c-13.573-13.167-24.313-29.3-24.313-49.19
		c0-11.804,3.782-23.168,9.067-33.26c-5.391,0.385-10.895,0.497-16.563,0.497c-37.178,0-68.753-12.038-92.102-31.927v33.621
		l0.003,100.865C26.723,390.592,58.447,382.968,92.943,382.968z"/>
	<path d="M1.71,443.629c-0.556-2.729-0.983-5.503-1.271-8.317C0.726,438.126,1.154,440.9,1.71,443.629z"/>
	<path d="M227.725,476.423c-7.529-29.403-34.227-43.982-71.444-69.784c-13.536-4.366-28.447-6.937-44.447-7.104
		c-44.809-0.482-86.554,17.471-110.108,44.186C9.686,482.574,44.243,512,85.343,512h143.222c0.908-5.564,1.348-11.316,1.348-17.216
		C229.913,488.517,229.146,482.388,227.725,476.423z"/>
</g>
</svg>
