<?xml version="1.0" encoding="utf-8"?> <!-- Generator: IcoMoon --> <!DOCTYPE svg PUBLIC "-//W3C//DTD SVG 1.1//EN" "http://www.w3.org/Graphics/SVG/1.1/DTD/svg11.dtd"> <svg width="512" height="512" viewBox="0 0 512 512" data-tags="gplus, google plus, social" fill="#000000"><g class="svgGrid" id="svgGrid"><line stroke-width="1" stroke="#B35047" x1="32" x2="32" y1="0" y2="512"></line><line stroke-width="1" stroke="#B35047" x1="64" x2="64" y1="0" y2="512"></line><line stroke-width="1" stroke="#B35047" x1="96" x2="96" y1="0" y2="512"></line><line stroke-width="1" stroke="#B35047" x1="128" x2="128" y1="0" y2="512"></line><line stroke-width="1" stroke="#B35047" x1="160" x2="160" y1="0" y2="512"></line><line stroke-width="1" stroke="#B35047" x1="192" x2="192" y1="0" y2="512"></line><line stroke-width="1" stroke="#B35047" x1="224" x2="224" y1="0" y2="512"></line><line stroke-width="1" stroke="#B35047" x1="256" x2="256" y1="0" y2="512"></line><line stroke-width="1" stroke="#B35047" x1="288" x2="288" y1="0" y2="512"></line><line stroke-width="1" stroke="#B35047" x1="320" x2="320" y1="0" y2="512"></line><line stroke-width="1" stroke="#B35047" x1="352" x2="352" y1="0" y2="512"></line><line stroke-width="1" stroke="#B35047" x1="384" x2="384" y1="0" y2="512"></line><line stroke-width="1" stroke="#B35047" x1="416" x2="416" y1="0" y2="512"></line><line stroke-width="1" stroke="#B35047" x1="448" x2="448" y1="0" y2="512"></line><line stroke-width="1" stroke="#B35047" x1="480" x2="480" y1="0" y2="512"></line><line stroke-width="1" stroke="#B35047" x1="0" x2="512" y1="32" y2="32"></line><line stroke-width="1" stroke="#B35047" x1="0" x2="512" y1="64" y2="64"></line><line stroke-width="1" stroke="#B35047" x1="0" x2="512" y1="96" y2="96"></line><line stroke-width="1" stroke="#B35047" x1="0" x2="512" y1="128" y2="128"></line><line stroke-width="1" stroke="#B35047" x1="0" x2="512" y1="160" y2="160"></line><line stroke-width="1" stroke="#B35047" x1="0" x2="512" y1="192" y2="192"></line><line stroke-width="1" stroke="#B35047" x1="0" x2="512" y1="224" y2="224"></line><line stroke-width="1" stroke="#B35047" x1="0" x2="512" y1="256" y2="256"></line><line stroke-width="1" stroke="#B35047" x1="0" x2="512" y1="288" y2="288"></line><line stroke-width="1" stroke="#B35047" x1="0" x2="512" y1="320" y2="320"></line><line stroke-width="1" stroke="#B35047" x1="0" x2="512" y1="352" y2="352"></line><line stroke-width="1" stroke="#B35047" x1="0" x2="512" y1="384" y2="384"></line><line stroke-width="1" stroke="#B35047" x1="0" x2="512" y1="416" y2="416"></line><line stroke-width="1" stroke="#B35047" x1="0" x2="512" y1="448" y2="448"></line><line stroke-width="1" stroke="#B35047" x1="0" x2="512" y1="480" y2="480"></line><rect x="0" y="0" width="512" height="512" fill="none" stroke-width="1" stroke="#B35047"></rect></g><path d="M 209.304,334.162c-2.208-1.536-4.496-3.129-6.858-4.798c-6.883-2.123-14.152-3.238-21.632-3.318 c-0.315-0.003-0.62-0.005-0.93-0.005c-34.69,0.00-65.121,21.302-65.121,45.585c0.00,26.444, 25.998,47.159, 59.187,47.159 c 24.12,0.00, 41.903-4.632, 52.854-13.766c 8.954-7.469, 13.307-17.872, 13.307-31.804c0.00-2.858-0.338-5.776-1.004-8.675 C 236.274,353.359, 226.928,346.426, 209.304,334.162zM 256.00,0.00C 114.615,0.00,0.00,114.615,0.00,256.00s 114.615,256.00, 256.00,256.00s 256.00-114.615, 256.00-256.00S 397.385,0.00, 256.00,0.00z M 256.812,429.536 c-20.807,17.217-49.387,26.317-82.65,26.317c-30.692,0.00-59.188-6.449-80.238-18.16C 70.113,424.447, 57.00,405.06, 57.00,383.102 c0.00-22.268, 12.208-44.534, 33.493-61.089c 21.139-16.442, 48.776-25.613, 77.959-25.898c-3.125-6.363-4.70-12.951-4.70-19.712 c0.00-3.209, 0.352-6.468, 1.051-9.76c-23.559-1.026-44.831-10.012-60.295-25.562c-16.037-16.127-24.869-38.143-24.869-61.991 c0.00-22.806, 11.474-45.612, 31.479-62.572c 19.325-16.383, 44.694-25.779, 69.603-25.779l 142.047,0.00 l-33.512,37.29l-32.309,0.00 c 9.861,13.337, 15.57,31.501, 15.57,51.737c0.00,23.887-11.835,46.484-33.324,63.629c-16.244,12.96-16.324,16.044-16.325,22.657 c 0.613,4.122, 11.704,16.779, 23.409,25.239c 29.697,21.444, 40.74,42.468, 40.74,77.566 C 287.018,391.536, 276.008,413.653, 256.812,429.536z M 384.00,192.00l0.00,64.00 l-32.00,0.00 l0.00-64.00 l-64.00,0.00 l0.00-32.00 l 64.00,0.00 L 352.00,96.00 l 32.00,0.00 l0.00,64.00 l 64.00,0.00 l0.00,32.00 L 384.00,192.00 zM 204.776,226.847c 8.643-9.826, 12.456-26.164, 10.20-43.705c-3.979-30.90-25.348-56.596-47.637-57.28 c-0.285-0.008-0.57-0.013-0.856-0.013c-7.519,0.00-14.24,3.124-19.438,9.033c-8.519,9.686-12.116,25.26-9.867,42.729 c 3.979,30.903, 25.792,57.573, 47.635,58.24C 192.491,236.091, 199.394,232.967, 204.776,226.847z" ></path></svg>