<?xml version="1.0" encoding="utf-8"?>
<!-- Generator: Adobe Illustrator 15.0.0, SVG Export Plug-In . SVG Version: 6.00 Build 0)  -->
<!DOCTYPE svg PUBLIC "-//W3C//DTD SVG 1.1//EN" "http://www.w3.org/Graphics/SVG/1.1/DTD/svg11.dtd">
<svg version="1.1" id="Layer_1" xmlns="http://www.w3.org/2000/svg" xmlns:xlink="http://www.w3.org/1999/xlink" x="0px" y="0px"
	 width="512px" height="512px" viewBox="0 0 512 512" enable-background="new 0 0 512 512" xml:space="preserve">
<g id="Grid_1_">
	<g id="Layer_1_1_">
		<g id="Grid">
			<g>
				<rect x="0" fill="none" stroke="#A9CCDB" stroke-miterlimit="10" width="512" height="512"/>
				<line fill="none" stroke="#A9CCDB" stroke-miterlimit="10" x1="0" y1="480" x2="512" y2="480"/>
				<line fill="none" stroke="#A9CCDB" stroke-miterlimit="10" x1="0" y1="448" x2="512" y2="448"/>
				<line fill="none" stroke="#A9CCDB" stroke-miterlimit="10" x1="0" y1="416" x2="512" y2="416"/>
				<line fill="none" stroke="#A9CCDB" stroke-miterlimit="10" x1="0" y1="384" x2="512" y2="384"/>
				<line fill="none" stroke="#A9CCDB" stroke-miterlimit="10" x1="0" y1="352" x2="512" y2="352"/>
				<line fill="none" stroke="#A9CCDB" stroke-miterlimit="10" x1="0" y1="320" x2="512" y2="320"/>
				<line fill="none" stroke="#A9CCDB" stroke-miterlimit="10" x1="0" y1="288" x2="512" y2="288"/>
				<line fill="none" stroke="#A9CCDB" stroke-miterlimit="10" x1="0" y1="256" x2="512" y2="256"/>
				<line fill="none" stroke="#A9CCDB" stroke-miterlimit="10" x1="0" y1="224" x2="512" y2="224"/>
				<line fill="none" stroke="#A9CCDB" stroke-miterlimit="10" x1="0" y1="192" x2="512" y2="192"/>
				<line fill="none" stroke="#A9CCDB" stroke-miterlimit="10" x1="0" y1="160" x2="512" y2="160"/>
				<line fill="none" stroke="#A9CCDB" stroke-miterlimit="10" x1="0" y1="128" x2="512" y2="128"/>
				<line fill="none" stroke="#A9CCDB" stroke-miterlimit="10" x1="0" y1="96" x2="512" y2="96"/>
				<line fill="none" stroke="#A9CCDB" stroke-miterlimit="10" x1="0" y1="64" x2="512" y2="64"/>
				<line fill="none" stroke="#A9CCDB" stroke-miterlimit="10" x1="0" y1="32" x2="512" y2="32"/>
				<line fill="none" stroke="#A9CCDB" stroke-miterlimit="10" x1="480" y1="0" x2="480" y2="512"/>
				<line fill="none" stroke="#A9CCDB" stroke-miterlimit="10" x1="448" y1="0" x2="448" y2="512"/>
				<line fill="none" stroke="#A9CCDB" stroke-miterlimit="10" x1="416" y1="0" x2="416" y2="512"/>
				<line fill="none" stroke="#A9CCDB" stroke-miterlimit="10" x1="384" y1="0" x2="384" y2="512"/>
				<line fill="none" stroke="#A9CCDB" stroke-miterlimit="10" x1="352" y1="0" x2="352" y2="512"/>
				<line fill="none" stroke="#A9CCDB" stroke-miterlimit="10" x1="320" y1="0" x2="320" y2="512"/>
				<line fill="none" stroke="#A9CCDB" stroke-miterlimit="10" x1="288" y1="0" x2="288" y2="512"/>
				<line fill="none" stroke="#A9CCDB" stroke-miterlimit="10" x1="256" y1="0" x2="256" y2="512"/>
				<line fill="none" stroke="#A9CCDB" stroke-miterlimit="10" x1="224" y1="0" x2="224" y2="512"/>
				<line fill="none" stroke="#A9CCDB" stroke-miterlimit="10" x1="192" y1="0" x2="192" y2="512"/>
				<line fill="none" stroke="#A9CCDB" stroke-miterlimit="10" x1="160" y1="0" x2="160" y2="512"/>
				<line fill="none" stroke="#A9CCDB" stroke-miterlimit="10" x1="128" y1="0" x2="128" y2="512"/>
				<line fill="none" stroke="#A9CCDB" stroke-miterlimit="10" x1="96" y1="0" x2="96" y2="512"/>
				<line fill="none" stroke="#A9CCDB" stroke-miterlimit="10" x1="64" y1="0" x2="64" y2="512"/>
				<line fill="none" stroke="#A9CCDB" stroke-miterlimit="10" x1="32" y1="0" x2="32" y2="512"/>
			</g>
		</g>
	</g>
</g>
<g>
	<path d="M156.281,406.639c-13.536-4.367-28.447-6.937-44.447-7.104c-45.917-0.494-88.626,18.364-111.831,46.178V480
		c0,17.6,14.398,32,32,32h196.562c0.908-5.564,1.348-11.316,1.348-17.216c0-6.267-0.767-12.396-2.188-18.361
		C220.196,447.02,193.498,432.44,156.281,406.639z"/>
	<path d="M186.885,175.975c-7.947-60.24-51.698-108.584-97.704-109.961c-46.013-1.365-76.87,44.741-68.926,105
		c7.941,60.234,51.676,110.187,97.699,111.56C163.959,283.943,194.821,236.225,186.885,175.975z"/>
	<path d="M0.003,403.279c26.72-12.687,58.444-20.311,92.94-20.311c10.807,0,20.711-0.295,30.968-0.295
		c-13.573-13.167-24.313-29.3-24.313-49.191c0-11.803,3.782-23.168,9.067-33.26c-5.391,0.385-10.895,0.498-16.563,0.498
		c-37.178,0-68.754-12.039-92.103-31.928L0.003,403.279L0.003,403.279z"/>
	<path d="M512,128V32c0-17.6-14.4-32-32-32H32.002c-17.602,0-32,14.4-32,32v51.014c29.184-25.722,69.693-42.209,111.495-42.209
		c44.652,0,178.622,0,178.622,0l-39.974,28.809h-56.634c37.565,14.402,57.578,58.062,57.578,102.861
		c0,37.624-20.905,69.977-50.444,92.984c-28.822,22.451-34.286,31.854-34.286,50.939c0,16.289,30.873,44,47.016,55.394
		c47.192,33.269,62.458,64.156,62.458,115.728c0,8.213-1.021,16.415-3.033,24.48H480c17.6,0,32-14.399,32-31.999v-320h-96V256h-32
		v-96h-95.999v-32H384V32h32v96H512z"/>
</g>
</svg>
