<?xml version="1.0" encoding="utf-8"?> <!-- Generator: IcoMoon.io --> <!DOCTYPE svg PUBLIC "-//W3C//DTD SVG 1.1//EN" "http://www.w3.org/Graphics/SVG/1.1/DTD/svg11.dtd"> <svg width="512" height="512" viewBox="0 0 512 512" xmlns="http://www.w3.org/2000/svg" xmlns:xlink="http://www.w3.org/1999/xlink" fill="#000000"><g class="svgGrid" id="svgGrid"><line stroke-width="1" stroke="#B35047" x1="32" x2="32" y1="0" y2="512"></line><line stroke-width="1" stroke="#B35047" x1="64" x2="64" y1="0" y2="512"></line><line stroke-width="1" stroke="#B35047" x1="96" x2="96" y1="0" y2="512"></line><line stroke-width="1" stroke="#B35047" x1="128" x2="128" y1="0" y2="512"></line><line stroke-width="1" stroke="#B35047" x1="160" x2="160" y1="0" y2="512"></line><line stroke-width="1" stroke="#B35047" x1="192" x2="192" y1="0" y2="512"></line><line stroke-width="1" stroke="#B35047" x1="224" x2="224" y1="0" y2="512"></line><line stroke-width="1" stroke="#B35047" x1="256" x2="256" y1="0" y2="512"></line><line stroke-width="1" stroke="#B35047" x1="288" x2="288" y1="0" y2="512"></line><line stroke-width="1" stroke="#B35047" x1="320" x2="320" y1="0" y2="512"></line><line stroke-width="1" stroke="#B35047" x1="352" x2="352" y1="0" y2="512"></line><line stroke-width="1" stroke="#B35047" x1="384" x2="384" y1="0" y2="512"></line><line stroke-width="1" stroke="#B35047" x1="416" x2="416" y1="0" y2="512"></line><line stroke-width="1" stroke="#B35047" x1="448" x2="448" y1="0" y2="512"></line><line stroke-width="1" stroke="#B35047" x1="480" x2="480" y1="0" y2="512"></line><line stroke-width="1" stroke="#B35047" x1="0" x2="512" y1="32" y2="32"></line><line stroke-width="1" stroke="#B35047" x1="0" x2="512" y1="64" y2="64"></line><line stroke-width="1" stroke="#B35047" x1="0" x2="512" y1="96" y2="96"></line><line stroke-width="1" stroke="#B35047" x1="0" x2="512" y1="128" y2="128"></line><line stroke-width="1" stroke="#B35047" x1="0" x2="512" y1="160" y2="160"></line><line stroke-width="1" stroke="#B35047" x1="0" x2="512" y1="192" y2="192"></line><line stroke-width="1" stroke="#B35047" x1="0" x2="512" y1="224" y2="224"></line><line stroke-width="1" stroke="#B35047" x1="0" x2="512" y1="256" y2="256"></line><line stroke-width="1" stroke="#B35047" x1="0" x2="512" y1="288" y2="288"></line><line stroke-width="1" stroke="#B35047" x1="0" x2="512" y1="320" y2="320"></line><line stroke-width="1" stroke="#B35047" x1="0" x2="512" y1="352" y2="352"></line><line stroke-width="1" stroke="#B35047" x1="0" x2="512" y1="384" y2="384"></line><line stroke-width="1" stroke="#B35047" x1="0" x2="512" y1="416" y2="416"></line><line stroke-width="1" stroke="#B35047" x1="0" x2="512" y1="448" y2="448"></line><line stroke-width="1" stroke="#B35047" x1="0" x2="512" y1="480" y2="480"></line><rect x="0" y="0" width="512" height="512" fill="none" stroke-width="1" stroke="#B35047"></rect></g><path d="M 256.00,512.00c 141.385,0.00, 256.00-114.615, 256.00-256.00S 397.385,0.00, 256.00,0.00S0.00,114.615,0.00,256.00S 114.615,512.00, 256.00,512.00z M 256.00,48.00 c 114.875,0.00, 208.00,93.125, 208.00,208.00s-93.125,208.00-208.00,208.00S 48.00,370.875, 48.00,256.00S 141.125,48.00, 256.00,48.00zM 96.00,256.00l0.00,32.00 c0.00,70.40, 57.60,128.00, 128.00,128.00l 64.00,0.00 c 70.40,0.00, 128.00-57.60, 128.00-128.00l0.00-32.00 L 96.00,256.00 z M 192.00,378.494 c-13.269-4.729-25.462-12.411-35.772-22.723C 138.025,337.57, 128.00,313.501, 128.00,288.00l 64.00,0.00 L 192.00,378.494 z M 288.00,384.00l-64.00,0.00 l0.00-96.00 l 64.00,0.00 L 288.00,384.00 z M 355.772,355.771c-10.312,10.312-22.505,17.994-35.772,22.723L 320.00,288.00 l 64.00,0.00 C 384.00,313.501, 373.976,337.57, 355.772,355.771z M 112.676,192.00 C 112.677,192.00, 112.676,192.00, 112.676,192.00c 4.884,0.00, 9.054-3.528, 9.862-8.345C 125.617,165.313, 141.372,152.00, 160.00,152.00 s 34.383,13.313, 37.462,31.655c 0.808,4.816, 4.978,8.345, 9.861,8.345c 4.884,0.00, 9.054-3.528, 9.862-8.344 c 0.541-3.218, 0.814-6.467, 0.814-9.656c0.00-31.981-26.019-58.00-58.00-58.00s-58.00,26.019-58.00,58.00c0.00,3.189, 0.274,6.438, 0.814,9.656 C 103.623,188.472, 107.793,192.00, 112.676,192.00z M 304.676,192.00C 304.677,192.00, 304.676,192.00, 304.676,192.00c 4.885,0.00, 9.056-3.528, 9.862-8.345 C 317.617,165.313, 333.372,152.00, 352.00,152.00s 34.383,13.313, 37.462,31.655c 0.808,4.816, 4.979,8.345, 9.861,8.345s 9.054-3.528, 9.861-8.344 c 0.541-3.218, 0.814-6.467, 0.814-9.656c0.00-31.981-26.019-58.00-58.00-58.00s-58.00,26.019-58.00,58.00c0.00,3.189, 0.272,6.438, 0.813,9.656 C 295.623,188.472, 299.793,192.00, 304.676,192.00z" ></path></svg>