<?xml version="1.0" encoding="utf-8"?> <!-- Generator: IcoMoon --> <!DOCTYPE svg PUBLIC "-//W3C//DTD SVG 1.1//EN" "http://www.w3.org/Graphics/SVG/1.1/DTD/svg11.dtd"> <svg width="512" height="512" viewBox="0 0 512 512" data-tags="IE, browser, internet explorer" fill="#000000"><g class="svgGrid" id="svgGrid"><line stroke-width="1" stroke="#B35047" x1="32" x2="32" y1="0" y2="512"></line><line stroke-width="1" stroke="#B35047" x1="64" x2="64" y1="0" y2="512"></line><line stroke-width="1" stroke="#B35047" x1="96" x2="96" y1="0" y2="512"></line><line stroke-width="1" stroke="#B35047" x1="128" x2="128" y1="0" y2="512"></line><line stroke-width="1" stroke="#B35047" x1="160" x2="160" y1="0" y2="512"></line><line stroke-width="1" stroke="#B35047" x1="192" x2="192" y1="0" y2="512"></line><line stroke-width="1" stroke="#B35047" x1="224" x2="224" y1="0" y2="512"></line><line stroke-width="1" stroke="#B35047" x1="256" x2="256" y1="0" y2="512"></line><line stroke-width="1" stroke="#B35047" x1="288" x2="288" y1="0" y2="512"></line><line stroke-width="1" stroke="#B35047" x1="320" x2="320" y1="0" y2="512"></line><line stroke-width="1" stroke="#B35047" x1="352" x2="352" y1="0" y2="512"></line><line stroke-width="1" stroke="#B35047" x1="384" x2="384" y1="0" y2="512"></line><line stroke-width="1" stroke="#B35047" x1="416" x2="416" y1="0" y2="512"></line><line stroke-width="1" stroke="#B35047" x1="448" x2="448" y1="0" y2="512"></line><line stroke-width="1" stroke="#B35047" x1="480" x2="480" y1="0" y2="512"></line><line stroke-width="1" stroke="#B35047" x1="0" x2="512" y1="32" y2="32"></line><line stroke-width="1" stroke="#B35047" x1="0" x2="512" y1="64" y2="64"></line><line stroke-width="1" stroke="#B35047" x1="0" x2="512" y1="96" y2="96"></line><line stroke-width="1" stroke="#B35047" x1="0" x2="512" y1="128" y2="128"></line><line stroke-width="1" stroke="#B35047" x1="0" x2="512" y1="160" y2="160"></line><line stroke-width="1" stroke="#B35047" x1="0" x2="512" y1="192" y2="192"></line><line stroke-width="1" stroke="#B35047" x1="0" x2="512" y1="224" y2="224"></line><line stroke-width="1" stroke="#B35047" x1="0" x2="512" y1="256" y2="256"></line><line stroke-width="1" stroke="#B35047" x1="0" x2="512" y1="288" y2="288"></line><line stroke-width="1" stroke="#B35047" x1="0" x2="512" y1="320" y2="320"></line><line stroke-width="1" stroke="#B35047" x1="0" x2="512" y1="352" y2="352"></line><line stroke-width="1" stroke="#B35047" x1="0" x2="512" y1="384" y2="384"></line><line stroke-width="1" stroke="#B35047" x1="0" x2="512" y1="416" y2="416"></line><line stroke-width="1" stroke="#B35047" x1="0" x2="512" y1="448" y2="448"></line><line stroke-width="1" stroke="#B35047" x1="0" x2="512" y1="480" y2="480"></line><rect x="0" y="0" width="512" height="512" fill="none" stroke-width="1" stroke="#B35047"></rect></g><path d="M 367.101,314.415l 118.025,0.00 c 0.91-8.185, 1.274-16.549, 1.274-25.098c0.00-40.112-10.767-77.734-29.562-110.133 c 19.44-51.654, 18.746-95.494-7.278-121.695c-24.748-24.64-91.145-20.64-166.206,12.599c-5.552-0.42-11.159-0.636-16.819-0.636 c-103.024,0.00-189.463,70.897-213.354,166.425C 85.50,194.50, 119.50,164.50, 164.92,142.653c-4.13,3.87-28.227,27.826-32.28,31.882 C 12.866,294.274-24.905,450.688, 15.737,491.337c 30.893,30.887, 86.879,25.671, 151.188-5.824 c 29.903,15.229, 63.75,23.815, 99.609,23.815c 96.567,0.00, 178.402-62.158, 208.045-148.724L 355.645,360.604 c-16.367,30.191-48.374,50.74-85.109,50.74c-36.734,0.00-68.742-20.549-85.108-50.74c-7.275-13.637-11.457-29.277-11.457-45.828l0.00-0.361 L 367.101,314.415 z M 174.151,256.402c 2.728-48.555, 43.10-87.292, 92.383-87.292c 49.283,0.00, 89.656,38.736, 92.383,87.292L 174.151,256.402 z M 448.483,81.904 c 16.763,16.94, 16.344,48.107, 2.006,87.011c-24.568-37.454-60.259-66.968-102.396-83.82 C 393.146,65.776, 429.796,63.217, 448.483,81.904z M 46.741,483.628c-21.391-21.398-14.942-66.309, 12.615-120.416 c 17.154,48.135, 50.578,88.545, 93.668,114.577C 105.309,499.448, 66.256,503.126, 46.741,483.628z" ></path></svg>