<?xml version="1.0" encoding="utf-8"?> <!-- Generator: IcoMoon.io --> <!DOCTYPE svg PUBLIC "-//W3C//DTD SVG 1.1//EN" "http://www.w3.org/Graphics/SVG/1.1/DTD/svg11.dtd"> <svg width="512" height="512" viewBox="0 0 512 512" xmlns="http://www.w3.org/2000/svg" xmlns:xlink="http://www.w3.org/1999/xlink" fill="#000000"><g class="svgGrid" id="svgGrid"><line stroke-width="1" stroke="#B35047" x1="32" x2="32" y1="0" y2="512"></line><line stroke-width="1" stroke="#B35047" x1="64" x2="64" y1="0" y2="512"></line><line stroke-width="1" stroke="#B35047" x1="96" x2="96" y1="0" y2="512"></line><line stroke-width="1" stroke="#B35047" x1="128" x2="128" y1="0" y2="512"></line><line stroke-width="1" stroke="#B35047" x1="160" x2="160" y1="0" y2="512"></line><line stroke-width="1" stroke="#B35047" x1="192" x2="192" y1="0" y2="512"></line><line stroke-width="1" stroke="#B35047" x1="224" x2="224" y1="0" y2="512"></line><line stroke-width="1" stroke="#B35047" x1="256" x2="256" y1="0" y2="512"></line><line stroke-width="1" stroke="#B35047" x1="288" x2="288" y1="0" y2="512"></line><line stroke-width="1" stroke="#B35047" x1="320" x2="320" y1="0" y2="512"></line><line stroke-width="1" stroke="#B35047" x1="352" x2="352" y1="0" y2="512"></line><line stroke-width="1" stroke="#B35047" x1="384" x2="384" y1="0" y2="512"></line><line stroke-width="1" stroke="#B35047" x1="416" x2="416" y1="0" y2="512"></line><line stroke-width="1" stroke="#B35047" x1="448" x2="448" y1="0" y2="512"></line><line stroke-width="1" stroke="#B35047" x1="480" x2="480" y1="0" y2="512"></line><line stroke-width="1" stroke="#B35047" x1="0" x2="512" y1="32" y2="32"></line><line stroke-width="1" stroke="#B35047" x1="0" x2="512" y1="64" y2="64"></line><line stroke-width="1" stroke="#B35047" x1="0" x2="512" y1="96" y2="96"></line><line stroke-width="1" stroke="#B35047" x1="0" x2="512" y1="128" y2="128"></line><line stroke-width="1" stroke="#B35047" x1="0" x2="512" y1="160" y2="160"></line><line stroke-width="1" stroke="#B35047" x1="0" x2="512" y1="192" y2="192"></line><line stroke-width="1" stroke="#B35047" x1="0" x2="512" y1="224" y2="224"></line><line stroke-width="1" stroke="#B35047" x1="0" x2="512" y1="256" y2="256"></line><line stroke-width="1" stroke="#B35047" x1="0" x2="512" y1="288" y2="288"></line><line stroke-width="1" stroke="#B35047" x1="0" x2="512" y1="320" y2="320"></line><line stroke-width="1" stroke="#B35047" x1="0" x2="512" y1="352" y2="352"></line><line stroke-width="1" stroke="#B35047" x1="0" x2="512" y1="384" y2="384"></line><line stroke-width="1" stroke="#B35047" x1="0" x2="512" y1="416" y2="416"></line><line stroke-width="1" stroke="#B35047" x1="0" x2="512" y1="448" y2="448"></line><line stroke-width="1" stroke="#B35047" x1="0" x2="512" y1="480" y2="480"></line><rect x="0" y="0" width="512" height="512" fill="none" stroke-width="1" stroke="#B35047"></rect></g><path d="M 427.00,0.00L 85.00,0.00 C 38.25,0.00,0.00,38.25,0.00,85.00l0.00,342.00 c0.00,46.75, 38.25,85.00, 85.00,85.00l 342.00,0.00 c 46.75,0.00, 85.00-38.25, 85.00-85.00L 512.00,85.00 C 512.00,38.25, 473.75,0.00, 427.00,0.00z M 163.90,224.00l 184.20,0.00 c 3.494,10.029, 5.40,20.795, 5.40,32.00c0.00,53.762-43.738,97.50-97.50,97.50c-53.762,0.00-97.50-43.738-97.50-97.50 C 158.50,244.795, 160.406,234.029, 163.90,224.00z M 448.00,224.025L 448.00,352.00 l0.00,64.00 c0.00,17.60-14.40,32.00-32.00,32.00L 96.00,448.00 c-17.60,0.00-32.00-14.40-32.00-32.00l0.00-64.00 L 64.00,224.025 L 64.00,224.00 l 50.054,0.00 c-2.321,10.301-3.554,21.008-3.554,32.00c0.00,80.229, 65.271,145.50, 145.50,145.50c 80.229,0.00, 145.50-65.271, 145.50-145.50 c0.00-10.992-1.232-21.699-3.554-32.00L 448.00,224.00 L 448.00,224.025 z M 448.00,112.00c0.00,8.80-7.20,16.00-16.00,16.00l-32.00,0.00 c-8.80,0.00-16.00-7.20-16.00-16.00L 384.00,80.00 c0.00-8.80, 7.20-16.00, 16.00-16.00l 32.00,0.00 c 8.80,0.00, 16.00,7.20, 16.00,16.00L 448.00,112.00 z" ></path></svg>