<?xml version="1.0" encoding="utf-8"?> <!-- Generator: IcoMoon.io --> <!DOCTYPE svg PUBLIC "-//W3C//DTD SVG 1.1//EN" "http://www.w3.org/Graphics/SVG/1.1/DTD/svg11.dtd"> <svg width="512" height="512" viewBox="0 0 512 512" xmlns="http://www.w3.org/2000/svg" xmlns:xlink="http://www.w3.org/1999/xlink" fill="#000000"><g class="svgGrid" id="svgGrid"><line stroke-width="1" stroke="#B35047" x1="32" x2="32" y1="0" y2="512"></line><line stroke-width="1" stroke="#B35047" x1="64" x2="64" y1="0" y2="512"></line><line stroke-width="1" stroke="#B35047" x1="96" x2="96" y1="0" y2="512"></line><line stroke-width="1" stroke="#B35047" x1="128" x2="128" y1="0" y2="512"></line><line stroke-width="1" stroke="#B35047" x1="160" x2="160" y1="0" y2="512"></line><line stroke-width="1" stroke="#B35047" x1="192" x2="192" y1="0" y2="512"></line><line stroke-width="1" stroke="#B35047" x1="224" x2="224" y1="0" y2="512"></line><line stroke-width="1" stroke="#B35047" x1="256" x2="256" y1="0" y2="512"></line><line stroke-width="1" stroke="#B35047" x1="288" x2="288" y1="0" y2="512"></line><line stroke-width="1" stroke="#B35047" x1="320" x2="320" y1="0" y2="512"></line><line stroke-width="1" stroke="#B35047" x1="352" x2="352" y1="0" y2="512"></line><line stroke-width="1" stroke="#B35047" x1="384" x2="384" y1="0" y2="512"></line><line stroke-width="1" stroke="#B35047" x1="416" x2="416" y1="0" y2="512"></line><line stroke-width="1" stroke="#B35047" x1="448" x2="448" y1="0" y2="512"></line><line stroke-width="1" stroke="#B35047" x1="480" x2="480" y1="0" y2="512"></line><line stroke-width="1" stroke="#B35047" x1="0" x2="512" y1="32" y2="32"></line><line stroke-width="1" stroke="#B35047" x1="0" x2="512" y1="64" y2="64"></line><line stroke-width="1" stroke="#B35047" x1="0" x2="512" y1="96" y2="96"></line><line stroke-width="1" stroke="#B35047" x1="0" x2="512" y1="128" y2="128"></line><line stroke-width="1" stroke="#B35047" x1="0" x2="512" y1="160" y2="160"></line><line stroke-width="1" stroke="#B35047" x1="0" x2="512" y1="192" y2="192"></line><line stroke-width="1" stroke="#B35047" x1="0" x2="512" y1="224" y2="224"></line><line stroke-width="1" stroke="#B35047" x1="0" x2="512" y1="256" y2="256"></line><line stroke-width="1" stroke="#B35047" x1="0" x2="512" y1="288" y2="288"></line><line stroke-width="1" stroke="#B35047" x1="0" x2="512" y1="320" y2="320"></line><line stroke-width="1" stroke="#B35047" x1="0" x2="512" y1="352" y2="352"></line><line stroke-width="1" stroke="#B35047" x1="0" x2="512" y1="384" y2="384"></line><line stroke-width="1" stroke="#B35047" x1="0" x2="512" y1="416" y2="416"></line><line stroke-width="1" stroke="#B35047" x1="0" x2="512" y1="448" y2="448"></line><line stroke-width="1" stroke="#B35047" x1="0" x2="512" y1="480" y2="480"></line><rect x="0" y="0" width="512" height="512" fill="none" stroke-width="1" stroke="#B35047"></rect></g><path d="M 133.002,138.339c 16.416-16.422, 43.001-16.422, 59.402-0.016l 3.913,3.934l 50.552-50.578l-3.937-3.94 c-28.812-28.85-69.257-38.939-106.21-30.261C 131.425,24.887, 103.178,0.016, 69.135,0.00C 31.31,0.00, 0.658,30.721, 0.65,68.579 c0.00,32.668, 22.795,60.00, 53.331,66.915c-11.569,38.725-2.121,82.417, 28.423,112.992l 113.913,113.95l 50.498-50.607L 132.91,197.886 C 116.569,181.525, 116.539,154.823, 133.002,138.339zM 511.356,68.579C 511.364,30.698, 480.697,0.00, 442.864,0.00c-34.617,0.00-63.239,25.722-67.841,59.119 c-38.537-11.332-81.892-1.748-112.32,28.704l-113.92,113.95l 50.551,50.586l 113.883-113.928c 16.47-16.483, 42.994-16.453, 59.342-0.092 c 16.40,16.415, 16.40,43.057-0.016,59.478l-3.897,3.918l 50.505,50.624l 3.929-3.964c 30.229-30.283, 39.839-73.378, 28.806-111.819 C 485.461,132.159, 511.356,103.394, 511.356,68.579zM 453.133,375.532c 9.051-37.229-0.988-78.162-30.054-107.25L 309.334,154.286l-50.551,50.561l 113.76,114.006 c 16.47,16.498, 16.432,43.048, 0.092,59.424c-16.401,16.407-43.002,16.407-59.418-0.015l-3.883-3.895l-50.497,50.623l 3.866,3.864 c 30.758,30.797, 74.809,40.219, 113.684,28.244C 382.703,488.439, 410.354,512.00, 443.516,512.00C 481.318,512.00, 512.00,481.325, 512.00,443.437 C 512.00,408.837, 486.41,380.209, 453.133,375.532zM 306.172,264.342L 192.404,378.338c-16.355,16.384-43.017,16.414-59.472-0.062c-16.409-16.452-16.416-43.049-0.022-59.485 l 3.904-3.887l-50.543-50.562l-3.867,3.856c-29.38,29.401-39.28,70.917-29.725,108.491C 22.48,383.819,0.00,411.006,0.00,443.437 C-0.008,481.31, 30.666,512.00, 68.491,512.00c 32.55-0.016, 59.794-22.709, 66.77-53.191c 37.351,9.276, 78.499-0.652, 107.672-29.878 l 113.745-113.98L 306.172,264.342z" ></path></svg>