<?xml version="1.0" encoding="utf-8"?> <!-- Generator: IcoMoon --> <!DOCTYPE svg PUBLIC "-//W3C//DTD SVG 1.1//EN" "http://www.w3.org/Graphics/SVG/1.1/DTD/svg11.dtd"> <svg width="512" height="512" viewBox="0 0 512 512" data-tags="lastfm, social" fill="#000000"><g class="svgGrid" id="svgGrid"><line stroke-width="1" stroke="#B35047" x1="32" x2="32" y1="0" y2="512"></line><line stroke-width="1" stroke="#B35047" x1="64" x2="64" y1="0" y2="512"></line><line stroke-width="1" stroke="#B35047" x1="96" x2="96" y1="0" y2="512"></line><line stroke-width="1" stroke="#B35047" x1="128" x2="128" y1="0" y2="512"></line><line stroke-width="1" stroke="#B35047" x1="160" x2="160" y1="0" y2="512"></line><line stroke-width="1" stroke="#B35047" x1="192" x2="192" y1="0" y2="512"></line><line stroke-width="1" stroke="#B35047" x1="224" x2="224" y1="0" y2="512"></line><line stroke-width="1" stroke="#B35047" x1="256" x2="256" y1="0" y2="512"></line><line stroke-width="1" stroke="#B35047" x1="288" x2="288" y1="0" y2="512"></line><line stroke-width="1" stroke="#B35047" x1="320" x2="320" y1="0" y2="512"></line><line stroke-width="1" stroke="#B35047" x1="352" x2="352" y1="0" y2="512"></line><line stroke-width="1" stroke="#B35047" x1="384" x2="384" y1="0" y2="512"></line><line stroke-width="1" stroke="#B35047" x1="416" x2="416" y1="0" y2="512"></line><line stroke-width="1" stroke="#B35047" x1="448" x2="448" y1="0" y2="512"></line><line stroke-width="1" stroke="#B35047" x1="480" x2="480" y1="0" y2="512"></line><line stroke-width="1" stroke="#B35047" x1="0" x2="512" y1="32" y2="32"></line><line stroke-width="1" stroke="#B35047" x1="0" x2="512" y1="64" y2="64"></line><line stroke-width="1" stroke="#B35047" x1="0" x2="512" y1="96" y2="96"></line><line stroke-width="1" stroke="#B35047" x1="0" x2="512" y1="128" y2="128"></line><line stroke-width="1" stroke="#B35047" x1="0" x2="512" y1="160" y2="160"></line><line stroke-width="1" stroke="#B35047" x1="0" x2="512" y1="192" y2="192"></line><line stroke-width="1" stroke="#B35047" x1="0" x2="512" y1="224" y2="224"></line><line stroke-width="1" stroke="#B35047" x1="0" x2="512" y1="256" y2="256"></line><line stroke-width="1" stroke="#B35047" x1="0" x2="512" y1="288" y2="288"></line><line stroke-width="1" stroke="#B35047" x1="0" x2="512" y1="320" y2="320"></line><line stroke-width="1" stroke="#B35047" x1="0" x2="512" y1="352" y2="352"></line><line stroke-width="1" stroke="#B35047" x1="0" x2="512" y1="384" y2="384"></line><line stroke-width="1" stroke="#B35047" x1="0" x2="512" y1="416" y2="416"></line><line stroke-width="1" stroke="#B35047" x1="0" x2="512" y1="448" y2="448"></line><line stroke-width="1" stroke="#B35047" x1="0" x2="512" y1="480" y2="480"></line><rect x="0" y="0" width="512" height="512" fill="none" stroke-width="1" stroke="#B35047"></rect></g><path d="M 426.671,0.00L 85.344,0.00 C 38.406,0.00,0.00,38.404,0.00,85.342l0.00,341.313 C0.00,473.625, 38.408,512.00, 85.344,512.00L 426.67,512.00 c 46.937,0.00, 85.33-38.375, 85.33-85.345L 512.00,85.343 C 512.00,38.404, 473.608,0.00, 426.671,0.00z M 371.342,371.531 c-39.999-0.157-61.313-19.721-76.124-54.189l-4.236-9.404l-36.513-83.25c-12.11-29.469-42.159-49.375-76.063-49.375 c-45.875,0.00-83.096,37.219-83.096,83.125s 37.222,83.125, 83.096,83.125c 32.00,0.00, 59.828-18.094, 73.717-44.625L 266.89,331.00 c-20.969,25.563-52.829,41.844-88.484,41.844C 115.218,372.844, 64.00,321.657, 64.00,258.439c0.00-63.188, 51.219-114.438, 114.405-114.438 c 47.688,0.00, 86.188,25.469, 105.75,70.594c 1.483,3.50, 20.688,48.406, 37.438,86.625c 10.375,23.656, 19.219,39.346, 47.906,40.313 c 28.188,0.969, 47.53-16.188, 47.53-37.876c0.00-21.188-14.751-26.281-39.657-34.563C 332.609,254.342, 309.50,239.53, 309.50,204.03 c0.00-34.626, 23.563-57.72, 61.842-57.72c 24.937,0.00, 42.938,11.094, 55.408,33.221L 402.28,192.03 c-9.221-12.906-19.393-18.001-32.313-18.001c-17.97,0.00-30.797,12.501-30.797,29.126c0.00,23.595, 21.107,27.157, 50.627,36.844 C 429.529,252.936, 448.00,267.717, 448.00,304.624C 447.997,343.374, 414.746,371.594, 371.342,371.531z" ></path></svg>