<?xml version="1.0" encoding="utf-8"?> <!-- Generator: IcoMoon --> <!DOCTYPE svg PUBLIC "-//W3C//DTD SVG 1.1//EN" "http://www.w3.org/Graphics/SVG/1.1/DTD/svg11.dtd"> <svg width="512" height="512" viewBox="0 0 512 512" data-tags="link, chain, unlink" fill="#000000"><g class="svgGrid" id="svgGrid"><line stroke-width="1" stroke="#B35047" x1="32" x2="32" y1="0" y2="512"></line><line stroke-width="1" stroke="#B35047" x1="64" x2="64" y1="0" y2="512"></line><line stroke-width="1" stroke="#B35047" x1="96" x2="96" y1="0" y2="512"></line><line stroke-width="1" stroke="#B35047" x1="128" x2="128" y1="0" y2="512"></line><line stroke-width="1" stroke="#B35047" x1="160" x2="160" y1="0" y2="512"></line><line stroke-width="1" stroke="#B35047" x1="192" x2="192" y1="0" y2="512"></line><line stroke-width="1" stroke="#B35047" x1="224" x2="224" y1="0" y2="512"></line><line stroke-width="1" stroke="#B35047" x1="256" x2="256" y1="0" y2="512"></line><line stroke-width="1" stroke="#B35047" x1="288" x2="288" y1="0" y2="512"></line><line stroke-width="1" stroke="#B35047" x1="320" x2="320" y1="0" y2="512"></line><line stroke-width="1" stroke="#B35047" x1="352" x2="352" y1="0" y2="512"></line><line stroke-width="1" stroke="#B35047" x1="384" x2="384" y1="0" y2="512"></line><line stroke-width="1" stroke="#B35047" x1="416" x2="416" y1="0" y2="512"></line><line stroke-width="1" stroke="#B35047" x1="448" x2="448" y1="0" y2="512"></line><line stroke-width="1" stroke="#B35047" x1="480" x2="480" y1="0" y2="512"></line><line stroke-width="1" stroke="#B35047" x1="0" x2="512" y1="32" y2="32"></line><line stroke-width="1" stroke="#B35047" x1="0" x2="512" y1="64" y2="64"></line><line stroke-width="1" stroke="#B35047" x1="0" x2="512" y1="96" y2="96"></line><line stroke-width="1" stroke="#B35047" x1="0" x2="512" y1="128" y2="128"></line><line stroke-width="1" stroke="#B35047" x1="0" x2="512" y1="160" y2="160"></line><line stroke-width="1" stroke="#B35047" x1="0" x2="512" y1="192" y2="192"></line><line stroke-width="1" stroke="#B35047" x1="0" x2="512" y1="224" y2="224"></line><line stroke-width="1" stroke="#B35047" x1="0" x2="512" y1="256" y2="256"></line><line stroke-width="1" stroke="#B35047" x1="0" x2="512" y1="288" y2="288"></line><line stroke-width="1" stroke="#B35047" x1="0" x2="512" y1="320" y2="320"></line><line stroke-width="1" stroke="#B35047" x1="0" x2="512" y1="352" y2="352"></line><line stroke-width="1" stroke="#B35047" x1="0" x2="512" y1="384" y2="384"></line><line stroke-width="1" stroke="#B35047" x1="0" x2="512" y1="416" y2="416"></line><line stroke-width="1" stroke="#B35047" x1="0" x2="512" y1="448" y2="448"></line><line stroke-width="1" stroke="#B35047" x1="0" x2="512" y1="480" y2="480"></line><rect x="0" y="0" width="512" height="512" fill="none" stroke-width="1" stroke="#B35047"></rect></g><path d="M 238.444,337.557c 2.28,4.524, 3.495,9.579, 3.495,14.848c0.00,8.808-3.372,17.029-9.496,23.154l-81.69,81.69 c-6.124,6.124-14.348,9.496-23.154,9.496s-17.03-3.372-23.154-9.496l-49.69-49.69c-6.124-6.125-9.496-14.348-9.496-23.154 s 3.372-17.03, 9.496-23.154l 81.69-81.691c 6.124-6.123, 14.348-9.496, 23.154-9.496c 5.269,0.00, 10.322,1.215, 14.848,3.494l 32.669-32.668 c-13.935-10.705-30.72-16.08-47.517-16.08c-19.993,0.00-39.986,7.583-55.154,22.751l-81.69,81.691 c-30.335,30.335-30.335,79.975,0.00,110.309l 49.69,49.691c 15.167,15.166, 35.16,22.75, 55.153,22.75 c 19.994,0.00, 39.987-7.584, 55.154-22.751l 81.69-81.69c 27.91-27.91, 30.119-72.149, 6.672-102.673L 238.444,337.557zM 489.248,72.442l-49.69-49.691C 424.391,7.583, 404.398,0.00, 384.404,0.00c-19.993,0.00-39.985,7.583-55.153,22.751l-81.691,81.691 c-27.91,27.91-30.119,72.149-6.671,102.671l 32.669-32.67c-2.279-4.525-3.494-9.58-3.494-14.847c0.00-8.808, 3.372-17.03, 9.496-23.154 l 81.691-81.691c 6.123-6.124, 14.347-9.497, 23.153-9.497c 8.808,0.00, 17.03,3.373, 23.154,9.497l 49.69,49.691 c 6.124,6.124, 9.496,14.347, 9.496,23.154c0.00,8.807-3.372,17.03-9.496,23.154l-81.69,81.691c-6.124,6.124-14.347,9.496-23.154,9.496 c-5.268,0.00-10.322-1.215-14.848-3.495l-32.669,32.669c 13.936,10.705, 30.72,16.08, 47.517,16.08c 19.994,0.00, 39.987-7.584, 55.154-22.752 l 81.69-81.69C 519.584,152.416, 519.584,102.777, 489.248,72.442zM 116.684,139.312L 20.687,43.315L 43.315,20.687L 139.312,116.684zM 192.00,0.00L 224.00,0.00L 224.00,96.00L 192.00,96.00zM0.00,192.00L 96.00,192.00L 96.00,224.00L0.00,224.00zM 395.316,372.688L 491.314,468.686L 468.686,491.314L 372.688,395.316zM 288.00,416.00L 320.00,416.00L 320.00,512.00L 288.00,512.00zM 416.00,288.00L 512.00,288.00L 512.00,320.00L 416.00,320.00z" ></path></svg>