<?xml version="1.0" encoding="utf-8"?>
<!-- Generator: Adobe Illustrator 15.0.0, SVG Export Plug-In . SVG Version: 6.00 Build 0)  -->
<!DOCTYPE svg PUBLIC "-//W3C//DTD SVG 1.1//EN" "http://www.w3.org/Graphics/SVG/1.1/DTD/svg11.dtd">
<svg version="1.1" id="Layer_1" xmlns="http://www.w3.org/2000/svg" xmlns:xlink="http://www.w3.org/1999/xlink" x="0px" y="0px"
	 width="512px" height="512px" viewBox="0 0 512 512" enable-background="new 0 0 512 512" xml:space="preserve">
<g id="Grid_1_">
	<g id="Layer_1_1_">
		<g id="Grid">
			<g>
				<rect x="0" fill="none" stroke="#A9CCDB" stroke-miterlimit="10" width="512" height="512"/>
				<line fill="none" stroke="#A9CCDB" stroke-miterlimit="10" x1="0" y1="480" x2="512" y2="480"/>
				<line fill="none" stroke="#A9CCDB" stroke-miterlimit="10" x1="0" y1="448" x2="512" y2="448"/>
				<line fill="none" stroke="#A9CCDB" stroke-miterlimit="10" x1="0" y1="416" x2="512" y2="416"/>
				<line fill="none" stroke="#A9CCDB" stroke-miterlimit="10" x1="0" y1="384" x2="512" y2="384"/>
				<line fill="none" stroke="#A9CCDB" stroke-miterlimit="10" x1="0" y1="352" x2="512" y2="352"/>
				<line fill="none" stroke="#A9CCDB" stroke-miterlimit="10" x1="0" y1="320" x2="512" y2="320"/>
				<line fill="none" stroke="#A9CCDB" stroke-miterlimit="10" x1="0" y1="288" x2="512" y2="288"/>
				<line fill="none" stroke="#A9CCDB" stroke-miterlimit="10" x1="0" y1="256" x2="512" y2="256"/>
				<line fill="none" stroke="#A9CCDB" stroke-miterlimit="10" x1="0" y1="224" x2="512" y2="224"/>
				<line fill="none" stroke="#A9CCDB" stroke-miterlimit="10" x1="0" y1="192" x2="512" y2="192"/>
				<line fill="none" stroke="#A9CCDB" stroke-miterlimit="10" x1="0" y1="160" x2="512" y2="160"/>
				<line fill="none" stroke="#A9CCDB" stroke-miterlimit="10" x1="0" y1="128" x2="512" y2="128"/>
				<line fill="none" stroke="#A9CCDB" stroke-miterlimit="10" x1="0" y1="96" x2="512" y2="96"/>
				<line fill="none" stroke="#A9CCDB" stroke-miterlimit="10" x1="0" y1="64" x2="512" y2="64"/>
				<line fill="none" stroke="#A9CCDB" stroke-miterlimit="10" x1="0" y1="32" x2="512" y2="32"/>
				<line fill="none" stroke="#A9CCDB" stroke-miterlimit="10" x1="480" y1="0" x2="480" y2="512"/>
				<line fill="none" stroke="#A9CCDB" stroke-miterlimit="10" x1="448" y1="0" x2="448" y2="512"/>
				<line fill="none" stroke="#A9CCDB" stroke-miterlimit="10" x1="416" y1="0" x2="416" y2="512"/>
				<line fill="none" stroke="#A9CCDB" stroke-miterlimit="10" x1="384" y1="0" x2="384" y2="512"/>
				<line fill="none" stroke="#A9CCDB" stroke-miterlimit="10" x1="352" y1="0" x2="352" y2="512"/>
				<line fill="none" stroke="#A9CCDB" stroke-miterlimit="10" x1="320" y1="0" x2="320" y2="512"/>
				<line fill="none" stroke="#A9CCDB" stroke-miterlimit="10" x1="288" y1="0" x2="288" y2="512"/>
				<line fill="none" stroke="#A9CCDB" stroke-miterlimit="10" x1="256" y1="0" x2="256" y2="512"/>
				<line fill="none" stroke="#A9CCDB" stroke-miterlimit="10" x1="224" y1="0" x2="224" y2="512"/>
				<line fill="none" stroke="#A9CCDB" stroke-miterlimit="10" x1="192" y1="0" x2="192" y2="512"/>
				<line fill="none" stroke="#A9CCDB" stroke-miterlimit="10" x1="160" y1="0" x2="160" y2="512"/>
				<line fill="none" stroke="#A9CCDB" stroke-miterlimit="10" x1="128" y1="0" x2="128" y2="512"/>
				<line fill="none" stroke="#A9CCDB" stroke-miterlimit="10" x1="96" y1="0" x2="96" y2="512"/>
				<line fill="none" stroke="#A9CCDB" stroke-miterlimit="10" x1="64" y1="0" x2="64" y2="512"/>
				<line fill="none" stroke="#A9CCDB" stroke-miterlimit="10" x1="32" y1="0" x2="32" y2="512"/>
			</g>
		</g>
	</g>
</g>
<path d="M512,256c-0.639-33.431-7.892-66.758-21.288-97.231c-13.352-30.5-32.731-58.129-56.521-80.96
	c-23.776-22.848-51.972-40.91-82.492-52.826C321.197,13.021,288.401,7.307,256,8c-32.405,0.641-64.666,7.687-94.167,20.678
	c-29.524,12.948-56.271,31.735-78.367,54.788c-22.112,23.041-39.58,50.354-51.093,79.899C20.816,192.896,15.309,224.625,16,256
	c0.643,31.38,7.482,62.574,20.067,91.103c12.544,28.55,30.738,54.414,53.055,75.774c22.305,21.377,48.736,38.252,77.307,49.36
	C194.988,483.389,225.652,488.688,256,488c30.354-0.645,60.481-7.277,88.038-19.457c27.575-12.141,52.558-29.74,73.183-51.322
	c20.641-21.57,36.922-47.118,47.627-74.715c6.517-16.729,10.94-34.2,13.271-51.899c0.623,0.036,1.249,0.06,1.881,0.06
	c17.673,0,32-14.326,32-32c0-0.898-0.047-1.786-0.119-2.666H512z M461.153,340.974c-11.736,26.601-28.742,50.7-49.589,70.59
	c-20.835,19.905-45.5,35.593-72.122,45.895C312.828,467.798,284.297,472.685,256,472c-28.302-0.649-56.298-6.868-81.91-18.237
	c-25.625-11.333-48.842-27.745-67.997-47.856c-19.169-20.099-34.264-43.882-44.161-69.529C51.997,310.736,47.318,283.271,48,256
	c0.651-27.276,6.664-54.206,17.627-78.845c10.929-24.65,26.749-46.985,46.123-65.405c19.365-18.434,42.265-32.935,66.937-42.428
	C203.356,59.792,229.755,55.319,256,56c26.25,0.653,52.114,6.459,75.781,17.017c23.676,10.525,45.128,25.751,62.812,44.391
	c17.698,18.629,31.605,40.647,40.695,64.344C444.412,205.448,448.679,230.781,448,256h0.119c-0.072,0.88-0.119,1.768-0.119,2.666
	c0,16.506,12.496,30.087,28.543,31.812C473.431,307.889,468.278,324.887,461.153,340.974z"/>
</svg>
