<?xml version="1.0" encoding="utf-8"?> <!-- Generator: IcoMoon.io --> <!DOCTYPE svg PUBLIC "-//W3C//DTD SVG 1.1//EN" "http://www.w3.org/Graphics/SVG/1.1/DTD/svg11.dtd"> <svg width="512" height="512" viewBox="0 0 512 512" xmlns="http://www.w3.org/2000/svg" xmlns:xlink="http://www.w3.org/1999/xlink" fill="#000000"><g class="svgGrid" id="svgGrid"><line stroke-width="1" stroke="#B35047" x1="32" x2="32" y1="0" y2="512"></line><line stroke-width="1" stroke="#B35047" x1="64" x2="64" y1="0" y2="512"></line><line stroke-width="1" stroke="#B35047" x1="96" x2="96" y1="0" y2="512"></line><line stroke-width="1" stroke="#B35047" x1="128" x2="128" y1="0" y2="512"></line><line stroke-width="1" stroke="#B35047" x1="160" x2="160" y1="0" y2="512"></line><line stroke-width="1" stroke="#B35047" x1="192" x2="192" y1="0" y2="512"></line><line stroke-width="1" stroke="#B35047" x1="224" x2="224" y1="0" y2="512"></line><line stroke-width="1" stroke="#B35047" x1="256" x2="256" y1="0" y2="512"></line><line stroke-width="1" stroke="#B35047" x1="288" x2="288" y1="0" y2="512"></line><line stroke-width="1" stroke="#B35047" x1="320" x2="320" y1="0" y2="512"></line><line stroke-width="1" stroke="#B35047" x1="352" x2="352" y1="0" y2="512"></line><line stroke-width="1" stroke="#B35047" x1="384" x2="384" y1="0" y2="512"></line><line stroke-width="1" stroke="#B35047" x1="416" x2="416" y1="0" y2="512"></line><line stroke-width="1" stroke="#B35047" x1="448" x2="448" y1="0" y2="512"></line><line stroke-width="1" stroke="#B35047" x1="480" x2="480" y1="0" y2="512"></line><line stroke-width="1" stroke="#B35047" x1="0" x2="512" y1="32" y2="32"></line><line stroke-width="1" stroke="#B35047" x1="0" x2="512" y1="64" y2="64"></line><line stroke-width="1" stroke="#B35047" x1="0" x2="512" y1="96" y2="96"></line><line stroke-width="1" stroke="#B35047" x1="0" x2="512" y1="128" y2="128"></line><line stroke-width="1" stroke="#B35047" x1="0" x2="512" y1="160" y2="160"></line><line stroke-width="1" stroke="#B35047" x1="0" x2="512" y1="192" y2="192"></line><line stroke-width="1" stroke="#B35047" x1="0" x2="512" y1="224" y2="224"></line><line stroke-width="1" stroke="#B35047" x1="0" x2="512" y1="256" y2="256"></line><line stroke-width="1" stroke="#B35047" x1="0" x2="512" y1="288" y2="288"></line><line stroke-width="1" stroke="#B35047" x1="0" x2="512" y1="320" y2="320"></line><line stroke-width="1" stroke="#B35047" x1="0" x2="512" y1="352" y2="352"></line><line stroke-width="1" stroke="#B35047" x1="0" x2="512" y1="384" y2="384"></line><line stroke-width="1" stroke="#B35047" x1="0" x2="512" y1="416" y2="416"></line><line stroke-width="1" stroke="#B35047" x1="0" x2="512" y1="448" y2="448"></line><line stroke-width="1" stroke="#B35047" x1="0" x2="512" y1="480" y2="480"></line><rect x="0" y="0" width="512" height="512" fill="none" stroke-width="1" stroke="#B35047"></rect></g><path d="M 256.00,32.00 C 397.385,32.00 512.00,146.615 512.00,288.00 C 512.00,384.396 458.712,468.333 379.996,512.00 L 132.004,512.00 C 53.288,468.333 0.00,384.396 0.00,288.00 C 0.00,146.615 114.615,32.00 256.00,32.00 Z M 400.957,432.957 C 439.676,394.237 461.00,342.758 461.00,288.00 L 416.00,288.00 L 416.00,256.00 L 458.519,256.00 C 455.012,233.501 447.824,211.927 437.237,192.00 L 384.00,192.00 L 384.00,160.00 L 416.142,160.00 C 411.423,154.119 406.366,148.452 400.957,143.043 C 377.846,119.933 350.187,103.024 320.00,93.144 L 320.00,128.00 L 288.00,128.00 L 288.00,85.48 C 277.509,83.846 266.82,83.00 256.00,83.00 C 245.18,83.00 234.491,83.845 224.00,85.48 L 224.00,128.00 L 192.00,128.00 L 192.00,93.144 C 161.814,103.024 134.154,119.932 111.043,143.043 C 105.634,148.452 100.577,154.119 95.858,160.00 L 128.00,160.00 L 128.00,192.00 L 74.762,192.00 C 64.175,211.927 56.986,233.501 53.48,256.00 L 96.00,256.00 L 96.00,288.00 L 51.00,288.00 C 51.00,342.758 72.324,394.237 111.043,432.957 C 116.398,438.312 122.005,443.321 127.823,448.00 L 224.00,448.00 L 242.286,192.00 L 269.714,192.00 L 288.00,448.00 L 384.177,448.00 C 389.995,443.321 395.603,438.311 400.957,432.957 Z" ></path></svg>