<?xml version="1.0" encoding="utf-8"?> <!-- Generator: IcoMoon.io --> <!DOCTYPE svg PUBLIC "-//W3C//DTD SVG 1.1//EN" "http://www.w3.org/Graphics/SVG/1.1/DTD/svg11.dtd"> <svg width="512" height="512" viewBox="0 0 512 512" xmlns="http://www.w3.org/2000/svg" xmlns:xlink="http://www.w3.org/1999/xlink" fill="#000000"><g class="svgGrid" id="svgGrid"><line stroke-width="1" stroke="#B35047" x1="32" x2="32" y1="0" y2="512"></line><line stroke-width="1" stroke="#B35047" x1="64" x2="64" y1="0" y2="512"></line><line stroke-width="1" stroke="#B35047" x1="96" x2="96" y1="0" y2="512"></line><line stroke-width="1" stroke="#B35047" x1="128" x2="128" y1="0" y2="512"></line><line stroke-width="1" stroke="#B35047" x1="160" x2="160" y1="0" y2="512"></line><line stroke-width="1" stroke="#B35047" x1="192" x2="192" y1="0" y2="512"></line><line stroke-width="1" stroke="#B35047" x1="224" x2="224" y1="0" y2="512"></line><line stroke-width="1" stroke="#B35047" x1="256" x2="256" y1="0" y2="512"></line><line stroke-width="1" stroke="#B35047" x1="288" x2="288" y1="0" y2="512"></line><line stroke-width="1" stroke="#B35047" x1="320" x2="320" y1="0" y2="512"></line><line stroke-width="1" stroke="#B35047" x1="352" x2="352" y1="0" y2="512"></line><line stroke-width="1" stroke="#B35047" x1="384" x2="384" y1="0" y2="512"></line><line stroke-width="1" stroke="#B35047" x1="416" x2="416" y1="0" y2="512"></line><line stroke-width="1" stroke="#B35047" x1="448" x2="448" y1="0" y2="512"></line><line stroke-width="1" stroke="#B35047" x1="480" x2="480" y1="0" y2="512"></line><line stroke-width="1" stroke="#B35047" x1="0" x2="512" y1="32" y2="32"></line><line stroke-width="1" stroke="#B35047" x1="0" x2="512" y1="64" y2="64"></line><line stroke-width="1" stroke="#B35047" x1="0" x2="512" y1="96" y2="96"></line><line stroke-width="1" stroke="#B35047" x1="0" x2="512" y1="128" y2="128"></line><line stroke-width="1" stroke="#B35047" x1="0" x2="512" y1="160" y2="160"></line><line stroke-width="1" stroke="#B35047" x1="0" x2="512" y1="192" y2="192"></line><line stroke-width="1" stroke="#B35047" x1="0" x2="512" y1="224" y2="224"></line><line stroke-width="1" stroke="#B35047" x1="0" x2="512" y1="256" y2="256"></line><line stroke-width="1" stroke="#B35047" x1="0" x2="512" y1="288" y2="288"></line><line stroke-width="1" stroke="#B35047" x1="0" x2="512" y1="320" y2="320"></line><line stroke-width="1" stroke="#B35047" x1="0" x2="512" y1="352" y2="352"></line><line stroke-width="1" stroke="#B35047" x1="0" x2="512" y1="384" y2="384"></line><line stroke-width="1" stroke="#B35047" x1="0" x2="512" y1="416" y2="416"></line><line stroke-width="1" stroke="#B35047" x1="0" x2="512" y1="448" y2="448"></line><line stroke-width="1" stroke="#B35047" x1="0" x2="512" y1="480" y2="480"></line><rect x="0" y="0" width="512" height="512" fill="none" stroke-width="1" stroke="#B35047"></rect></g><path d="M 449.18,32.00L 64.00,32.00 l0.00,64.00 L 17.18,96.00 C 8.38,96.00,0.00,102.264,0.00,111.064l0.00,32.00 C0.00,151.864, 8.38,160.00, 17.18,160.00L 64.00,160.00 l0.00,32.00 L 17.18,192.00 C 8.38,192.00,0.00,198.264,0.00,207.064l0.00,32.00 C0.00,247.864, 8.38,256.00, 17.18,256.00L 64.00,256.00 l0.00,32.00 L 17.18,288.00 C 8.38,288.00,0.00,294.264,0.00,303.064l0.00,32.00 C0.00,343.863, 8.38,352.00, 17.18,352.00L 64.00,352.00 l0.00,32.00 L 17.18,384.00 C 8.38,384.00,0.00,390.264,0.00,399.064l0.00,32.00 C0.00,439.864, 8.38,448.00, 17.18,448.00L 64.00,448.00 l0.00,64.00 l 385.18,0.00 c 17.674,0.00, 30.82-15.263, 30.82-32.936l0.00-416.00 C 480.00,45.391, 466.854,32.00, 449.18,32.00z M 160.00,480.00L 96.00,480.00 l0.00-32.00 l 17.18,0.00 c 8.80,0.00, 14.82-8.136, 14.82-16.936 l0.00-32.00 c0.00-8.801-6.021-15.064-14.82-15.064L 96.00,384.00 l0.00-32.00 l 17.18,0.00 c 8.80,0.00, 14.82-8.136, 14.82-16.936l0.00-32.00 c0.00-8.801-6.021-15.064-14.82-15.064L 96.00,288.00 l0.00-32.00 l 17.18,0.00 c 8.80,0.00, 14.82-8.136, 14.82-16.936l0.00-32.00 c0.00-8.801-6.021-15.064-14.82-15.064L 96.00,192.00 l0.00-32.00 l 17.18,0.00 c 8.80,0.00, 14.82-8.136, 14.82-16.936l0.00-32.00 C 128.00,102.263, 121.98,96.00, 113.18,96.00L 96.00,96.00 L 96.00,64.00 l 64.00,0.00 L 160.00,480.00 z" ></path></svg>