<?xml version="1.0" encoding="utf-8"?> <!-- Generator: IcoMoon --> <!DOCTYPE svg PUBLIC "-//W3C//DTD SVG 1.1//EN" "http://www.w3.org/Graphics/SVG/1.1/DTD/svg11.dtd"> <svg width="512" height="512" viewBox="0 0 512 512" data-tags="paypal, donate, _new" fill="#000000"><g class="svgGrid" id="svgGrid"><line stroke-width="1" stroke="#B35047" x1="32" x2="32" y1="0" y2="512"></line><line stroke-width="1" stroke="#B35047" x1="64" x2="64" y1="0" y2="512"></line><line stroke-width="1" stroke="#B35047" x1="96" x2="96" y1="0" y2="512"></line><line stroke-width="1" stroke="#B35047" x1="128" x2="128" y1="0" y2="512"></line><line stroke-width="1" stroke="#B35047" x1="160" x2="160" y1="0" y2="512"></line><line stroke-width="1" stroke="#B35047" x1="192" x2="192" y1="0" y2="512"></line><line stroke-width="1" stroke="#B35047" x1="224" x2="224" y1="0" y2="512"></line><line stroke-width="1" stroke="#B35047" x1="256" x2="256" y1="0" y2="512"></line><line stroke-width="1" stroke="#B35047" x1="288" x2="288" y1="0" y2="512"></line><line stroke-width="1" stroke="#B35047" x1="320" x2="320" y1="0" y2="512"></line><line stroke-width="1" stroke="#B35047" x1="352" x2="352" y1="0" y2="512"></line><line stroke-width="1" stroke="#B35047" x1="384" x2="384" y1="0" y2="512"></line><line stroke-width="1" stroke="#B35047" x1="416" x2="416" y1="0" y2="512"></line><line stroke-width="1" stroke="#B35047" x1="448" x2="448" y1="0" y2="512"></line><line stroke-width="1" stroke="#B35047" x1="480" x2="480" y1="0" y2="512"></line><line stroke-width="1" stroke="#B35047" x1="0" x2="512" y1="32" y2="32"></line><line stroke-width="1" stroke="#B35047" x1="0" x2="512" y1="64" y2="64"></line><line stroke-width="1" stroke="#B35047" x1="0" x2="512" y1="96" y2="96"></line><line stroke-width="1" stroke="#B35047" x1="0" x2="512" y1="128" y2="128"></line><line stroke-width="1" stroke="#B35047" x1="0" x2="512" y1="160" y2="160"></line><line stroke-width="1" stroke="#B35047" x1="0" x2="512" y1="192" y2="192"></line><line stroke-width="1" stroke="#B35047" x1="0" x2="512" y1="224" y2="224"></line><line stroke-width="1" stroke="#B35047" x1="0" x2="512" y1="256" y2="256"></line><line stroke-width="1" stroke="#B35047" x1="0" x2="512" y1="288" y2="288"></line><line stroke-width="1" stroke="#B35047" x1="0" x2="512" y1="320" y2="320"></line><line stroke-width="1" stroke="#B35047" x1="0" x2="512" y1="352" y2="352"></line><line stroke-width="1" stroke="#B35047" x1="0" x2="512" y1="384" y2="384"></line><line stroke-width="1" stroke="#B35047" x1="0" x2="512" y1="416" y2="416"></line><line stroke-width="1" stroke="#B35047" x1="0" x2="512" y1="448" y2="448"></line><line stroke-width="1" stroke="#B35047" x1="0" x2="512" y1="480" y2="480"></line><rect x="0" y="0" width="512" height="512" fill="none" stroke-width="1" stroke="#B35047"></rect></g><path d="M 324.171,32.00c 14.166,0.00, 28.459,2.902, 41.333,8.392c 13.542,5.774, 24.662,13.962, 33.052,24.336 c 16.799,20.771, 21.519,49.066, 14.025,84.109c-8.153,38.189-27.199,69.98-55.08,91.935c-27.178,21.401-61.499,32.714-99.254,32.714 l-94.135,0.00 l-25.895,0.00 l-5.401,25.325L 105.935,424.85L 82.986,424.85 l-6.971,0.00 L 39.723,424.85 L 125.311,32.00L 324.171,32.00 M 142.893,250.007l 40.039,0.00 l 61.879,0.00 c 23.718,0.00, 47.747-9.085, 67.659-25.582c 19.41-16.081, 33.137-37.761, 38.698-61.10c 6.951-26.262, 2.315-52.576-12.757-72.277 c-14.588-19.07-37.432-30.007-62.673-30.007l-64.566,0.00 l-25.575,0.00 l-5.638,24.946l-28.241,124.966L 142.893,250.007 M 324.171,0.00L 99.532,0.00 L0.00,456.85l 76.016,0.00 L 64.00,512.00l 131.83,0.00 l 32.282-151.363l 94.135,0.00 c 90.125,0.00, 165.469-55.539, 185.629-149.968 c 16.858-78.84-20.402-125.966-67.559-145.282c 12.849,6.288, 24.047,15.243, 32.251,26.241c 17.268,23.15, 22.118,54.686, 14.418,93.733 c-7.78,39.513-25.208,72.867-50.583,97.022c-4.641,4.851-9.611,9.373-14.902,13.54c-27.178,21.401-61.499,32.714-99.254,32.714 l-6.056,0.00 L 202.217,328.637 L 169.935,480.00l-66.212,0.00 l 5.043-23.15l 23.064,0.00 l 32.282-151.363l 94.135,0.00 c 90.125,0.00, 165.469-55.539, 185.629-149.968 C 466.737,48.602, 390.077,0.00, 324.171,0.00L 324.171,0.00z M 182.932,218.007l 28.241-124.966l 64.566,0.00 c 32.296,0.00, 53.801,27.769, 44.393,62.478 c-8.068,34.72-41.693,62.488-75.32,62.488L 182.932,218.007 L 182.932,218.007z" ></path></svg>