<?xml version="1.0" encoding="utf-8"?> <!-- Generator: IcoMoon.io --> <!DOCTYPE svg PUBLIC "-//W3C//DTD SVG 1.1//EN" "http://www.w3.org/Graphics/SVG/1.1/DTD/svg11.dtd"> <svg width="512" height="512" viewBox="0 0 512 512" xmlns="http://www.w3.org/2000/svg" xmlns:xlink="http://www.w3.org/1999/xlink" fill="#000000"><g class="svgGrid" id="svgGrid"><line stroke-width="1" stroke="#B35047" x1="32" x2="32" y1="0" y2="512"></line><line stroke-width="1" stroke="#B35047" x1="64" x2="64" y1="0" y2="512"></line><line stroke-width="1" stroke="#B35047" x1="96" x2="96" y1="0" y2="512"></line><line stroke-width="1" stroke="#B35047" x1="128" x2="128" y1="0" y2="512"></line><line stroke-width="1" stroke="#B35047" x1="160" x2="160" y1="0" y2="512"></line><line stroke-width="1" stroke="#B35047" x1="192" x2="192" y1="0" y2="512"></line><line stroke-width="1" stroke="#B35047" x1="224" x2="224" y1="0" y2="512"></line><line stroke-width="1" stroke="#B35047" x1="256" x2="256" y1="0" y2="512"></line><line stroke-width="1" stroke="#B35047" x1="288" x2="288" y1="0" y2="512"></line><line stroke-width="1" stroke="#B35047" x1="320" x2="320" y1="0" y2="512"></line><line stroke-width="1" stroke="#B35047" x1="352" x2="352" y1="0" y2="512"></line><line stroke-width="1" stroke="#B35047" x1="384" x2="384" y1="0" y2="512"></line><line stroke-width="1" stroke="#B35047" x1="416" x2="416" y1="0" y2="512"></line><line stroke-width="1" stroke="#B35047" x1="448" x2="448" y1="0" y2="512"></line><line stroke-width="1" stroke="#B35047" x1="480" x2="480" y1="0" y2="512"></line><line stroke-width="1" stroke="#B35047" x1="0" x2="512" y1="32" y2="32"></line><line stroke-width="1" stroke="#B35047" x1="0" x2="512" y1="64" y2="64"></line><line stroke-width="1" stroke="#B35047" x1="0" x2="512" y1="96" y2="96"></line><line stroke-width="1" stroke="#B35047" x1="0" x2="512" y1="128" y2="128"></line><line stroke-width="1" stroke="#B35047" x1="0" x2="512" y1="160" y2="160"></line><line stroke-width="1" stroke="#B35047" x1="0" x2="512" y1="192" y2="192"></line><line stroke-width="1" stroke="#B35047" x1="0" x2="512" y1="224" y2="224"></line><line stroke-width="1" stroke="#B35047" x1="0" x2="512" y1="256" y2="256"></line><line stroke-width="1" stroke="#B35047" x1="0" x2="512" y1="288" y2="288"></line><line stroke-width="1" stroke="#B35047" x1="0" x2="512" y1="320" y2="320"></line><line stroke-width="1" stroke="#B35047" x1="0" x2="512" y1="352" y2="352"></line><line stroke-width="1" stroke="#B35047" x1="0" x2="512" y1="384" y2="384"></line><line stroke-width="1" stroke="#B35047" x1="0" x2="512" y1="416" y2="416"></line><line stroke-width="1" stroke="#B35047" x1="0" x2="512" y1="448" y2="448"></line><line stroke-width="1" stroke="#B35047" x1="0" x2="512" y1="480" y2="480"></line><rect x="0" y="0" width="512" height="512" fill="none" stroke-width="1" stroke="#B35047"></rect></g><path d="M 160.00,448.00L 160.00,274.096 C 119.545,285.324, 109.704,291.00, 67.00,291.00c -36.944,0.00 -67.00-30.056 -67.00-67.00c0.00-36.943 30.056-67.00 67.00-67.00 c 51.986,0.00 75.975-19.361 102.855-57.545c 0.798-1.134 1.581-2.289 2.355-3.455L 128.00,96.00 L 128.00,0.00 l 320.00,0.00 l 0.00,96.00 l -28.502,0.00 c 2.151,31.831, 11.096,40.56, 22.042,51.223c 8.445,8.226, 18.956,18.464, 26.638,37.015C 476.243,203.715, 480.00,229.061, 480.00,264.00l 0.00,24.00 l 0.00,8.49 c 0.00,30.969, -25.634,56.163, -57.143,56.163c -5.235,0.00 -10.438-0.712 -15.45-2.095c -10.498,9.855, -24.501,15.482, -39.407,15.482 c -5.234,0.00 -10.438-0.712 -15.449-2.095c -10.499,9.855, -24.503,15.482, -39.408,15.482c -9.018,0.00 -17.55-2.071 -25.143-5.744L 288.00,448.00 c 0.00,35.347, -28.653,64.00, -64.00,64.00C 188.654,512.00, 160.00,483.347, 160.00,448.00z M 416.00,48.00c0.00-8.836 -7.163-16.00 -16.00-16.00s -16.00,7.164, -16.00,16.00s 7.163,16.00, 16.00,16.00 S 416.00,56.836, 416.00,48.00z M 256.00,445.00L 256.00,320.266 L 256.00,317.00 l 32.00,0.00 l 0.00,3.266 c 0.00,13.323, 11.279,24.163, 25.143,24.163c 8.685,0.00 16.645-4.234 21.293-11.327 l 8.122-12.394l 12.979,7.149c 3.781,2.083, 8.091,3.184, 12.463,3.184c 8.685,0.00 16.644-4.234 21.291-11.326l 8.122-12.395l 12.98,7.149 c 3.781,2.083, 8.091,3.184, 12.464,3.184c 13.863,0.00 25.143-10.84 25.143-24.163L 448.00,285.00 l0.00-24.00 c0.00-63.281 -19.103-76.044 -32.975-89.556 c -14.16-13.794 -29.992-29.245 -33.364-75.444L 214.474,96.00 c -4.132,7.878, -8.632,15.35, -13.545,22.329C 167.00,166.525, 131.156,192.00, 67.00,192.00 c -15.991,0.00, -29.00,15.01, -29.00,31.00s 13.009,30.00, 29.00,30.00c 42.83,0.00 52.706-6.207 93.00-18.48c 11.371-3.062 22.635-5.961 31.667-7.938L 192.00,445.00 c 0.00,17.645, 14.355,32.00, 32.00,32.00C 241.645,477.00, 256.00,462.645, 256.00,445.00z" ></path></svg>