<?xml version="1.0" encoding="utf-8"?> <!-- Generator: IcoMoon.io --> <!DOCTYPE svg PUBLIC "-//W3C//DTD SVG 1.1//EN" "http://www.w3.org/Graphics/SVG/1.1/DTD/svg11.dtd"> <svg width="512" height="512" viewBox="0 0 512 512" xmlns="http://www.w3.org/2000/svg" xmlns:xlink="http://www.w3.org/1999/xlink" fill="#000000"><g class="svgGrid" id="svgGrid"><line stroke-width="1" stroke="#B35047" x1="32" x2="32" y1="0" y2="512"></line><line stroke-width="1" stroke="#B35047" x1="64" x2="64" y1="0" y2="512"></line><line stroke-width="1" stroke="#B35047" x1="96" x2="96" y1="0" y2="512"></line><line stroke-width="1" stroke="#B35047" x1="128" x2="128" y1="0" y2="512"></line><line stroke-width="1" stroke="#B35047" x1="160" x2="160" y1="0" y2="512"></line><line stroke-width="1" stroke="#B35047" x1="192" x2="192" y1="0" y2="512"></line><line stroke-width="1" stroke="#B35047" x1="224" x2="224" y1="0" y2="512"></line><line stroke-width="1" stroke="#B35047" x1="256" x2="256" y1="0" y2="512"></line><line stroke-width="1" stroke="#B35047" x1="288" x2="288" y1="0" y2="512"></line><line stroke-width="1" stroke="#B35047" x1="320" x2="320" y1="0" y2="512"></line><line stroke-width="1" stroke="#B35047" x1="352" x2="352" y1="0" y2="512"></line><line stroke-width="1" stroke="#B35047" x1="384" x2="384" y1="0" y2="512"></line><line stroke-width="1" stroke="#B35047" x1="416" x2="416" y1="0" y2="512"></line><line stroke-width="1" stroke="#B35047" x1="448" x2="448" y1="0" y2="512"></line><line stroke-width="1" stroke="#B35047" x1="480" x2="480" y1="0" y2="512"></line><line stroke-width="1" stroke="#B35047" x1="0" x2="512" y1="32" y2="32"></line><line stroke-width="1" stroke="#B35047" x1="0" x2="512" y1="64" y2="64"></line><line stroke-width="1" stroke="#B35047" x1="0" x2="512" y1="96" y2="96"></line><line stroke-width="1" stroke="#B35047" x1="0" x2="512" y1="128" y2="128"></line><line stroke-width="1" stroke="#B35047" x1="0" x2="512" y1="160" y2="160"></line><line stroke-width="1" stroke="#B35047" x1="0" x2="512" y1="192" y2="192"></line><line stroke-width="1" stroke="#B35047" x1="0" x2="512" y1="224" y2="224"></line><line stroke-width="1" stroke="#B35047" x1="0" x2="512" y1="256" y2="256"></line><line stroke-width="1" stroke="#B35047" x1="0" x2="512" y1="288" y2="288"></line><line stroke-width="1" stroke="#B35047" x1="0" x2="512" y1="320" y2="320"></line><line stroke-width="1" stroke="#B35047" x1="0" x2="512" y1="352" y2="352"></line><line stroke-width="1" stroke="#B35047" x1="0" x2="512" y1="384" y2="384"></line><line stroke-width="1" stroke="#B35047" x1="0" x2="512" y1="416" y2="416"></line><line stroke-width="1" stroke="#B35047" x1="0" x2="512" y1="448" y2="448"></line><line stroke-width="1" stroke="#B35047" x1="0" x2="512" y1="480" y2="480"></line><rect x="0" y="0" width="512" height="512" fill="none" stroke-width="1" stroke="#B35047"></rect></g><path d="M 448.00,192.00L 274.096,192.00 C 285.324,151.545, 291.00,141.704, 291.00,99.00c0.00-36.944-30.056-67.00-67.00-67.00c-36.943,0.00-67.00,30.056-67.00,67.00 c0.00,51.986-19.361,75.975-57.545,102.855c-1.134,0.798-2.289,1.581-3.455,2.355L 96.00,160.00 L0.00,160.00 l0.00,320.00 l 96.00,0.00 l0.00-28.502 c 31.831,2.151, 40.56,11.096, 51.223,22.042c 8.226,8.445, 18.464,18.956, 37.015,26.638C 203.715,508.243, 229.061,512.00, 264.00,512.00l 24.00,0.00 l 8.49,0.00 c 30.969,0.00, 56.163-25.634, 56.163-57.143c0.00-5.235-0.712-10.438-2.095-15.45c 9.855-10.498, 15.482-24.501, 15.482-39.407 c0.00-5.234-0.712-10.438-2.095-15.449c 9.855-10.499, 15.482-24.503, 15.482-39.408c0.00-9.018-2.071-17.55-5.744-25.143L 448.00,320.00 c 35.347,0.00, 64.00-28.653, 64.00-64.00C 512.00,220.654, 483.347,192.00, 448.00,192.00z M 48.00,448.00c-8.836,0.00-16.00-7.163-16.00-16.00s 7.164-16.00, 16.00-16.00s 16.00,7.163, 16.00,16.00 S 56.836,448.00, 48.00,448.00z M 445.00,288.00L 320.266,288.00 L 317.00,288.00 l0.00,32.00 l 3.266,0.00 c 13.323,0.00, 24.163,11.279, 24.163,25.143c0.00,8.685-4.234,16.645-11.327,21.293 l-12.394,8.122l 7.149,12.979c 2.083,3.781, 3.184,8.091, 3.184,12.463c0.00,8.685-4.234,16.644-11.326,21.291l-12.395,8.122l 7.149,12.98 c 2.083,3.781, 3.184,8.091, 3.184,12.464c0.00,13.863-10.84,25.143-24.163,25.143L 285.00,480.00 l-24.00,0.00 c-63.281,0.00-76.044-19.103-89.556-32.975 c-13.794-14.16-29.245-29.992-75.444-33.364L 96.00,246.474 c 7.878-4.132, 15.35-8.632, 22.329-13.545C 166.525,199.00, 192.00,163.156, 192.00,99.00 c0.00-15.991, 15.01-29.00, 31.00-29.00s 30.00,13.009, 30.00,29.00c0.00,42.83-6.207,52.706-18.48,93.00c-3.062,11.371-5.961,22.635-7.938,31.667L 445.00,224.00 c 17.645,0.00, 32.00,14.355, 32.00,32.00C 477.00,273.645, 462.645,288.00, 445.00,288.00z" ></path></svg>