<?xml version="1.0" encoding="utf-8"?> <!-- Generator: IcoMoon --> <!DOCTYPE svg PUBLIC "-//W3C//DTD SVG 1.1//EN" "http://www.w3.org/Graphics/SVG/1.1/DTD/svg11.dtd"> <svg width="512" height="512" viewBox="0 0 512 512" data-tags="reddit, social" fill="#000000"><g class="svgGrid" id="svgGrid"><line stroke-width="1" stroke="#B35047" x1="32" x2="32" y1="0" y2="512"></line><line stroke-width="1" stroke="#B35047" x1="64" x2="64" y1="0" y2="512"></line><line stroke-width="1" stroke="#B35047" x1="96" x2="96" y1="0" y2="512"></line><line stroke-width="1" stroke="#B35047" x1="128" x2="128" y1="0" y2="512"></line><line stroke-width="1" stroke="#B35047" x1="160" x2="160" y1="0" y2="512"></line><line stroke-width="1" stroke="#B35047" x1="192" x2="192" y1="0" y2="512"></line><line stroke-width="1" stroke="#B35047" x1="224" x2="224" y1="0" y2="512"></line><line stroke-width="1" stroke="#B35047" x1="256" x2="256" y1="0" y2="512"></line><line stroke-width="1" stroke="#B35047" x1="288" x2="288" y1="0" y2="512"></line><line stroke-width="1" stroke="#B35047" x1="320" x2="320" y1="0" y2="512"></line><line stroke-width="1" stroke="#B35047" x1="352" x2="352" y1="0" y2="512"></line><line stroke-width="1" stroke="#B35047" x1="384" x2="384" y1="0" y2="512"></line><line stroke-width="1" stroke="#B35047" x1="416" x2="416" y1="0" y2="512"></line><line stroke-width="1" stroke="#B35047" x1="448" x2="448" y1="0" y2="512"></line><line stroke-width="1" stroke="#B35047" x1="480" x2="480" y1="0" y2="512"></line><line stroke-width="1" stroke="#B35047" x1="0" x2="512" y1="32" y2="32"></line><line stroke-width="1" stroke="#B35047" x1="0" x2="512" y1="64" y2="64"></line><line stroke-width="1" stroke="#B35047" x1="0" x2="512" y1="96" y2="96"></line><line stroke-width="1" stroke="#B35047" x1="0" x2="512" y1="128" y2="128"></line><line stroke-width="1" stroke="#B35047" x1="0" x2="512" y1="160" y2="160"></line><line stroke-width="1" stroke="#B35047" x1="0" x2="512" y1="192" y2="192"></line><line stroke-width="1" stroke="#B35047" x1="0" x2="512" y1="224" y2="224"></line><line stroke-width="1" stroke="#B35047" x1="0" x2="512" y1="256" y2="256"></line><line stroke-width="1" stroke="#B35047" x1="0" x2="512" y1="288" y2="288"></line><line stroke-width="1" stroke="#B35047" x1="0" x2="512" y1="320" y2="320"></line><line stroke-width="1" stroke="#B35047" x1="0" x2="512" y1="352" y2="352"></line><line stroke-width="1" stroke="#B35047" x1="0" x2="512" y1="384" y2="384"></line><line stroke-width="1" stroke="#B35047" x1="0" x2="512" y1="416" y2="416"></line><line stroke-width="1" stroke="#B35047" x1="0" x2="512" y1="448" y2="448"></line><line stroke-width="1" stroke="#B35047" x1="0" x2="512" y1="480" y2="480"></line><rect x="0" y="0" width="512" height="512" fill="none" stroke-width="1" stroke="#B35047"></rect></g><path d="M 511.999,250.961c0.00-32.207-26.201-58.405-58.404-58.405c-14.562,0.00-27.883,5.368-38.123,14.217 c-39.656-25.738-90.988-40.764-145.924-42.896l 29.022-94.637l 84.437,18.901c-0.002,0.229-0.033,0.448-0.033,0.676 c0.00,26.613, 21.654,48.267, 48.266,48.267c 26.612,0.00, 48.267-21.652, 48.267-48.267c0.00-26.613-21.652-48.265-48.267-48.265 c-20.00,0.00-37.19,12.229-44.506,29.601l-92.44-20.693c-4.685-1.049-9.383,1.681-10.789,6.271l-33.106,107.944 c-57.917,0.929-112.308,16.122-153.872,43.10c-10.237-8.848-23.563-14.217-38.123-14.217c-32.202,0.00-58.401,26.199-58.401,58.405 c0.00,21.122, 11.271,39.659, 28.113,49.918c-0.86,5.484-1.313,11.031-1.313,16.633c0.00,41.855, 24.355,80.934, 68.577,110.023 c 43.037,28.313, 100.078,43.91, 160.621,43.91c 60.537,0.00, 117.582-15.601, 160.619-43.91c 44.224-29.092, 68.576-68.168, 68.576-110.023 c0.00-5.602-0.451-11.146-1.313-16.633C 500.726,290.621, 511.999,272.082, 511.999,250.961z M 431.238,58.921 c 16.484,0.00, 29.896,13.41, 29.896,29.896c0.00,16.482-13.412,29.896-29.896,29.896c-16.481,0.00-29.896-13.414-29.896-29.896 C 401.341,72.332, 414.753,58.921, 431.238,58.921z M 18.367,250.961c0.00-22.076, 17.959-40.036, 40.033-40.036 c 8.359,0.00, 16.122,2.583, 22.549,6.978c-23.513,18.578-39.833,40.381-48.038,63.904C 24.036,274.459, 18.367,263.361, 18.367,250.961z M 255.999,453.076c-116.252,0.00-210.829-60.813-210.829-135.564c0.00-3.213, 0.187-6.396, 0.53-9.555 c 0.667-6.111, 1.956-12.115, 3.846-17.982c 7.062-21.914, 22.373-41.909, 43.751-58.577c 4.741-3.701, 9.792-7.229, 15.105-10.583 c 38.062-24.02, 90.179-38.86, 147.597-38.86c 57.414,0.00, 109.533,14.843, 147.592,38.86c 5.313,3.354, 10.367,6.884, 15.106,10.583 c 21.379,16.667, 36.691,36.663, 43.752,58.577c 1.892,5.867, 3.181,11.871, 3.847,17.982c 0.346,3.156, 0.528,6.342, 0.528,9.555 C 466.824,392.264, 372.249,453.076, 255.999,453.076z M 479.087,281.809c-8.203-23.522-24.527-45.328-48.039-63.905 c 6.426-4.395, 14.188-6.978, 22.547-6.978c 22.076,0.00, 40.035,17.959, 40.035,40.036C 493.63,263.361, 487.964,274.459, 479.087,281.809zM 325.974,376.256c-17.406,14.27-38.988,20.633-69.975,20.633c-30.989,0.00-52.57-6.363-69.979-20.633 c-4.117-3.375-10.194-2.771-13.568,1.344c-3.377,4.119-2.775,10.195, 1.344,13.572c 20.81,17.061, 46.93,25.004, 82.204,25.004 c 35.273,0.00, 61.393-7.943, 82.203-25.004c 4.117-3.377, 4.722-9.453, 1.345-13.572C 336.164,373.477, 330.091,372.881, 325.974,376.256zM 214.117,290.01c0.00-19.184-15.552-34.734-34.735-34.734c-19.188,0.00-34.74,15.551-34.74,34.734 c0.00,19.189, 15.554,34.742, 34.74,34.742C 198.566,324.75, 214.117,309.199, 214.117,290.01zM 334.261,255.275c-19.189,0.00-34.742,15.551-34.742,34.734c0.00,19.189, 15.553,34.742, 34.742,34.742 c 19.184,0.00, 34.738-15.553, 34.738-34.742C 368.999,270.826, 353.445,255.275, 334.261,255.275z" ></path></svg>