<?xml version="1.0" encoding="utf-8"?> <!-- Generator: IcoMoon.io --> <!DOCTYPE svg PUBLIC "-//W3C//DTD SVG 1.1//EN" "http://www.w3.org/Graphics/SVG/1.1/DTD/svg11.dtd"> <svg width="512" height="512" viewBox="0 0 512 512" xmlns="http://www.w3.org/2000/svg" xmlns:xlink="http://www.w3.org/1999/xlink" fill="#000000"><g class="svgGrid" id="svgGrid"><line stroke-width="1" stroke="#B35047" x1="32" x2="32" y1="0" y2="512"></line><line stroke-width="1" stroke="#B35047" x1="64" x2="64" y1="0" y2="512"></line><line stroke-width="1" stroke="#B35047" x1="96" x2="96" y1="0" y2="512"></line><line stroke-width="1" stroke="#B35047" x1="128" x2="128" y1="0" y2="512"></line><line stroke-width="1" stroke="#B35047" x1="160" x2="160" y1="0" y2="512"></line><line stroke-width="1" stroke="#B35047" x1="192" x2="192" y1="0" y2="512"></line><line stroke-width="1" stroke="#B35047" x1="224" x2="224" y1="0" y2="512"></line><line stroke-width="1" stroke="#B35047" x1="256" x2="256" y1="0" y2="512"></line><line stroke-width="1" stroke="#B35047" x1="288" x2="288" y1="0" y2="512"></line><line stroke-width="1" stroke="#B35047" x1="320" x2="320" y1="0" y2="512"></line><line stroke-width="1" stroke="#B35047" x1="352" x2="352" y1="0" y2="512"></line><line stroke-width="1" stroke="#B35047" x1="384" x2="384" y1="0" y2="512"></line><line stroke-width="1" stroke="#B35047" x1="416" x2="416" y1="0" y2="512"></line><line stroke-width="1" stroke="#B35047" x1="448" x2="448" y1="0" y2="512"></line><line stroke-width="1" stroke="#B35047" x1="480" x2="480" y1="0" y2="512"></line><line stroke-width="1" stroke="#B35047" x1="0" x2="512" y1="32" y2="32"></line><line stroke-width="1" stroke="#B35047" x1="0" x2="512" y1="64" y2="64"></line><line stroke-width="1" stroke="#B35047" x1="0" x2="512" y1="96" y2="96"></line><line stroke-width="1" stroke="#B35047" x1="0" x2="512" y1="128" y2="128"></line><line stroke-width="1" stroke="#B35047" x1="0" x2="512" y1="160" y2="160"></line><line stroke-width="1" stroke="#B35047" x1="0" x2="512" y1="192" y2="192"></line><line stroke-width="1" stroke="#B35047" x1="0" x2="512" y1="224" y2="224"></line><line stroke-width="1" stroke="#B35047" x1="0" x2="512" y1="256" y2="256"></line><line stroke-width="1" stroke="#B35047" x1="0" x2="512" y1="288" y2="288"></line><line stroke-width="1" stroke="#B35047" x1="0" x2="512" y1="320" y2="320"></line><line stroke-width="1" stroke="#B35047" x1="0" x2="512" y1="352" y2="352"></line><line stroke-width="1" stroke="#B35047" x1="0" x2="512" y1="384" y2="384"></line><line stroke-width="1" stroke="#B35047" x1="0" x2="512" y1="416" y2="416"></line><line stroke-width="1" stroke="#B35047" x1="0" x2="512" y1="448" y2="448"></line><line stroke-width="1" stroke="#B35047" x1="0" x2="512" y1="480" y2="480"></line><rect x="0" y="0" width="512" height="512" fill="none" stroke-width="1" stroke="#B35047"></rect></g><path d="M 128.00,320.00A32.00,32.00 2520.00 1,0 192.00,320A32.00,32.00 2520.00 1,0 128.00,320zM 320.00,320.00A32.00,32.00 2520.00 1,0 384.00,320A32.00,32.00 2520.00 1,0 320.00,320zM 321.556,388.389 C 329.797,381.896 341.744,383.312 348.238,391.555 C 354.732,399.798 353.314,411.744 345.071,418.238 C 322.123,436.317 287.16,448.00 256.00,448.00 C 224.839,448.00 189.876,436.317 166.928,418.239 C 158.685,411.744 157.268,399.798 163.762,391.555 C 170.257,383.314 182.203,381.896 190.445,388.389 C 203.656,398.798 229.806,410.00 256.00,410.00 C 282.194,410.00 308.344,398.798 321.556,388.389 ZM 512.00,256.00c0.00-35.346-28.654-64.00-64.00-64.00c-24.058,0.00-44.996,13.285-55.926,32.91c-32.896-17.997-72.976-29.623-116.64-32.304 l 38.191-85.763l 73.097,21.10C 393.298,146.614, 411.081,160.00, 432.00,160.00c 26.51,0.00, 48.00-21.49, 48.00-48.00s-21.49-48.00-48.00-48.00 c-18.28,0.00-34.171,10.221-42.277,25.257L 308.27,65.745c-9.112-2.629-18.769,1.861-22.626,10.526l-51.885,116.513 c-42.569,2.998-81.631,14.511-113.818,32.118C 109.009,205.277, 88.058,192.00, 64.00,192.00c-35.346,0.00-64.00,28.654-64.00,64.00 c0.00,26.156, 15.701,48.627, 38.186,58.551C 34.151,326.565, 32.00,339.103, 32.00,352.00c0.00,88.365, 100.288,160.00, 224.00,160.00 c 123.711,0.00, 224.00-71.635, 224.00-160.00c0.00-12.896-2.15-25.431-6.184-37.443C 496.301,304.632, 512.00,282.156, 512.00,256.00z M 432.00,94.00 c 9.941,0.00, 18.00,8.059, 18.00,18.00s-8.059,18.00-18.00,18.00s-18.00-8.059-18.00-18.00S 422.059,94.00, 432.00,94.00z M 32.00,256.00c0.00-17.645, 14.355-32.00, 32.00-32.00 c 12.754,0.00, 23.786,7.502, 28.923,18.323c-16.724,12.683-30.583,27.313-40.833,43.369C 40.328,280.957, 32.00,269.436, 32.00,256.00z M 256.00,474.00 c-102.725,0.00-186.00-54.621-186.00-122.00s 83.275-122.00, 186.00-122.00c 102.725,0.00, 186.00,54.621, 186.00,122.00S 358.725,474.00, 256.00,474.00z M 459.91,285.692 c-10.25-16.056-24.109-30.686-40.833-43.369C 424.215,231.502, 435.246,224.00, 448.00,224.00c 17.645,0.00, 32.00,14.355, 32.00,32.00 C 480.00,269.436, 471.672,280.957, 459.91,285.692z" ></path></svg>