<?xml version="1.0" encoding="utf-8"?> <!-- Generator: IcoMoon --> <!DOCTYPE svg PUBLIC "-//W3C//DTD SVG 1.1//EN" "http://www.w3.org/Graphics/SVG/1.1/DTD/svg11.dtd"> <svg width="512" height="512" viewBox="0 0 512 512" data-tags="remove, delete, trashcan, recycle bin" fill="#000000"><g class="svgGrid" id="svgGrid"><line stroke-width="1" stroke="#B35047" x1="32" x2="32" y1="0" y2="512"></line><line stroke-width="1" stroke="#B35047" x1="64" x2="64" y1="0" y2="512"></line><line stroke-width="1" stroke="#B35047" x1="96" x2="96" y1="0" y2="512"></line><line stroke-width="1" stroke="#B35047" x1="128" x2="128" y1="0" y2="512"></line><line stroke-width="1" stroke="#B35047" x1="160" x2="160" y1="0" y2="512"></line><line stroke-width="1" stroke="#B35047" x1="192" x2="192" y1="0" y2="512"></line><line stroke-width="1" stroke="#B35047" x1="224" x2="224" y1="0" y2="512"></line><line stroke-width="1" stroke="#B35047" x1="256" x2="256" y1="0" y2="512"></line><line stroke-width="1" stroke="#B35047" x1="288" x2="288" y1="0" y2="512"></line><line stroke-width="1" stroke="#B35047" x1="320" x2="320" y1="0" y2="512"></line><line stroke-width="1" stroke="#B35047" x1="352" x2="352" y1="0" y2="512"></line><line stroke-width="1" stroke="#B35047" x1="384" x2="384" y1="0" y2="512"></line><line stroke-width="1" stroke="#B35047" x1="416" x2="416" y1="0" y2="512"></line><line stroke-width="1" stroke="#B35047" x1="448" x2="448" y1="0" y2="512"></line><line stroke-width="1" stroke="#B35047" x1="480" x2="480" y1="0" y2="512"></line><line stroke-width="1" stroke="#B35047" x1="0" x2="512" y1="32" y2="32"></line><line stroke-width="1" stroke="#B35047" x1="0" x2="512" y1="64" y2="64"></line><line stroke-width="1" stroke="#B35047" x1="0" x2="512" y1="96" y2="96"></line><line stroke-width="1" stroke="#B35047" x1="0" x2="512" y1="128" y2="128"></line><line stroke-width="1" stroke="#B35047" x1="0" x2="512" y1="160" y2="160"></line><line stroke-width="1" stroke="#B35047" x1="0" x2="512" y1="192" y2="192"></line><line stroke-width="1" stroke="#B35047" x1="0" x2="512" y1="224" y2="224"></line><line stroke-width="1" stroke="#B35047" x1="0" x2="512" y1="256" y2="256"></line><line stroke-width="1" stroke="#B35047" x1="0" x2="512" y1="288" y2="288"></line><line stroke-width="1" stroke="#B35047" x1="0" x2="512" y1="320" y2="320"></line><line stroke-width="1" stroke="#B35047" x1="0" x2="512" y1="352" y2="352"></line><line stroke-width="1" stroke="#B35047" x1="0" x2="512" y1="384" y2="384"></line><line stroke-width="1" stroke="#B35047" x1="0" x2="512" y1="416" y2="416"></line><line stroke-width="1" stroke="#B35047" x1="0" x2="512" y1="448" y2="448"></line><line stroke-width="1" stroke="#B35047" x1="0" x2="512" y1="480" y2="480"></line><rect x="0" y="0" width="512" height="512" fill="none" stroke-width="1" stroke="#B35047"></rect></g><path d="M 144.00,432.00c 8.837,0.00, 16.00-7.163, 16.00-16.00c0.00-0.003,0.00-0.007,0.00-0.01L 160.00,192.009 c0.00-0.003,0.00-0.006,0.00-0.01c0.00-8.836-7.164-16.00-16.00-16.00 c-8.836,0.00-16.00,7.164-16.00,16.00l0.00,0.00 l0.00,224.00 C 128.00,424.837, 135.164,432.00, 144.00,432.00zM 240.00,432.00c 8.837,0.00, 16.00-7.163, 16.00-16.00c0.00-0.003,0.00-0.007,0.00-0.01L 256.00,192.009 c0.00-0.003,0.00-0.006,0.00-0.01c0.00-8.836-7.164-16.00-16.00-16.00 c-8.836,0.00-16.00,7.164-16.00,16.00l0.00,0.00 l0.00,224.00 C 224.00,424.837, 231.164,432.00, 240.00,432.00zM 336.00,432.00c 8.837,0.00, 16.00-7.163, 16.00-16.00c0.00-0.003,0.00-0.007,0.00-0.01L 352.00,192.009 c0.00-0.003,0.00-0.006,0.00-0.01c0.00-8.836-7.163-16.00-16.00-16.00 c-8.836,0.00-16.00,7.164-16.00,16.00l0.00,0.00 l0.00,224.00 C 320.00,424.837, 327.164,432.00, 336.00,432.00zM 351.987,64.54C 351.99,64.36, 352.00,64.181, 352.00,64.00L 352.00,32.00 c0.00-17.60-14.40-32.00-32.00-32.00L 160.00,0.00 c-17.60,0.00-32.00,14.40-32.00,32.00l0.00,32.00 c0.00,0.181, 0.011,0.36, 0.014,0.54L0.00,64.54 L0.00,96.00 l 32.00,0.00 l0.00,352.00 c0.00,35.20, 28.80,64.00, 64.00,64.00l 288.00,0.00 c 35.20,0.00, 64.00-28.80, 64.00-64.00L 448.00,96.00 l 32.00,0.00 L 480.00,64.54 L 351.987,64.54 z M 160.00,32.057 c 0.017-0.02, 0.038-0.041, 0.057-0.057l 159.885,0.00 c 0.02,0.017, 0.041,0.038, 0.058,0.058l0.00,31.885 c-0.017,0.02-0.038,0.041-0.058,0.057 L 160.057,64.00 c-0.02-0.017-0.041-0.038-0.057-0.057L 160.00,32.057 z M 416.00,448.00c0.00,8.477-3.348,16.493-9.428,22.572 C 400.493,476.652, 392.477,480.00, 384.00,480.00L 96.00,480.00 c-8.477,0.00-16.493-3.348-22.573-9.428C 67.348,464.493, 64.00,456.477, 64.00,448.00L 64.00,96.00 l 352.00,0.00 L 416.00,448.00 z" ></path></svg>