<?xml version="1.0" encoding="utf-8"?> <!-- Generator: IcoMoon --> <!DOCTYPE svg PUBLIC "-//W3C//DTD SVG 1.1//EN" "http://www.w3.org/Graphics/SVG/1.1/DTD/svg11.dtd"> <svg width="512" height="512" viewBox="0 0 512 512" data-tags="safari, browser, internet" fill="#000000"><g class="svgGrid" id="svgGrid"><line stroke-width="1" stroke="#B35047" x1="32" x2="32" y1="0" y2="512"></line><line stroke-width="1" stroke="#B35047" x1="64" x2="64" y1="0" y2="512"></line><line stroke-width="1" stroke="#B35047" x1="96" x2="96" y1="0" y2="512"></line><line stroke-width="1" stroke="#B35047" x1="128" x2="128" y1="0" y2="512"></line><line stroke-width="1" stroke="#B35047" x1="160" x2="160" y1="0" y2="512"></line><line stroke-width="1" stroke="#B35047" x1="192" x2="192" y1="0" y2="512"></line><line stroke-width="1" stroke="#B35047" x1="224" x2="224" y1="0" y2="512"></line><line stroke-width="1" stroke="#B35047" x1="256" x2="256" y1="0" y2="512"></line><line stroke-width="1" stroke="#B35047" x1="288" x2="288" y1="0" y2="512"></line><line stroke-width="1" stroke="#B35047" x1="320" x2="320" y1="0" y2="512"></line><line stroke-width="1" stroke="#B35047" x1="352" x2="352" y1="0" y2="512"></line><line stroke-width="1" stroke="#B35047" x1="384" x2="384" y1="0" y2="512"></line><line stroke-width="1" stroke="#B35047" x1="416" x2="416" y1="0" y2="512"></line><line stroke-width="1" stroke="#B35047" x1="448" x2="448" y1="0" y2="512"></line><line stroke-width="1" stroke="#B35047" x1="480" x2="480" y1="0" y2="512"></line><line stroke-width="1" stroke="#B35047" x1="0" x2="512" y1="32" y2="32"></line><line stroke-width="1" stroke="#B35047" x1="0" x2="512" y1="64" y2="64"></line><line stroke-width="1" stroke="#B35047" x1="0" x2="512" y1="96" y2="96"></line><line stroke-width="1" stroke="#B35047" x1="0" x2="512" y1="128" y2="128"></line><line stroke-width="1" stroke="#B35047" x1="0" x2="512" y1="160" y2="160"></line><line stroke-width="1" stroke="#B35047" x1="0" x2="512" y1="192" y2="192"></line><line stroke-width="1" stroke="#B35047" x1="0" x2="512" y1="224" y2="224"></line><line stroke-width="1" stroke="#B35047" x1="0" x2="512" y1="256" y2="256"></line><line stroke-width="1" stroke="#B35047" x1="0" x2="512" y1="288" y2="288"></line><line stroke-width="1" stroke="#B35047" x1="0" x2="512" y1="320" y2="320"></line><line stroke-width="1" stroke="#B35047" x1="0" x2="512" y1="352" y2="352"></line><line stroke-width="1" stroke="#B35047" x1="0" x2="512" y1="384" y2="384"></line><line stroke-width="1" stroke="#B35047" x1="0" x2="512" y1="416" y2="416"></line><line stroke-width="1" stroke="#B35047" x1="0" x2="512" y1="448" y2="448"></line><line stroke-width="1" stroke="#B35047" x1="0" x2="512" y1="480" y2="480"></line><rect x="0" y="0" width="512" height="512" fill="none" stroke-width="1" stroke="#B35047"></rect></g><path d="M 256.00,32.00c-12.032,0.00-23.854,0.896-35.412,2.606c-0.15-0.391-0.312-0.774-0.491-1.148c 6.413-5.001, 9.775-11.915, 8.317-18.776 C 226.547,5.90, 217.217,0.00, 205.197,0.00c-2.59,0.00-5.229,0.281-7.84,0.836c-15.084,3.207-25.073,14.311-22.741,25.281 c 1.417,6.669, 7.146,11.669, 15.082,13.692c-0.016,0.486-0.008,0.975, 0.021,1.467C 89.408,70.041, 16.00,162.445, 16.00,272.00 c0.00,132.549, 107.452,240.00, 240.00,240.00c 132.549,0.00, 240.00-107.451, 240.00-240.00C 496.00,139.452, 388.549,32.00, 256.00,32.00z M 182.441,24.454 c-1.353-6.363, 6.24-13.595, 16.579-15.792C 201.086,8.223, 203.165,8.00, 205.197,8.00c 8.018,0.00, 14.347,3.432, 15.392,8.345 c 0.798,3.755-1.535,7.805-5.693,10.952c-3.517-2.483-8.008-3.563-12.55-2.598c-4.522,0.961-8.174,3.754-10.379,7.428 C 186.875,30.902, 183.213,28.085, 182.441,24.454z M 384.693,400.693c-21.984,21.984-48.605,37.639-77.655,46.077l-21.198-34.384 l-5.373,39.979C 272.422,453.441, 264.254,454.00, 256.00,454.00c-48.614,0.00-94.318-18.932-128.693-53.307 c-21.984-21.983-37.639-48.605-46.077-77.654l 34.384-21.199l-39.98-5.373C 74.559,288.422, 74.00,280.254, 74.00,272.00 c0.00-48.614, 18.931-94.318, 53.307-128.693c 21.984-21.984, 48.606-37.639, 77.655-46.078l 21.198,34.385l 5.374-39.98 C 239.578,90.559, 247.746,90.00, 256.00,90.00c 48.614,0.00, 94.318,18.931, 128.693,53.307c 21.984,21.984, 37.639,48.606, 46.077,77.655 l-34.385,21.199l 39.98,5.373C 437.441,255.578, 438.00,263.746, 438.00,272.00C 438.00,320.614, 419.068,366.318, 384.693,400.693zM 380.451,147.549l-98.489,74.852c-7.322-3.829-15.438-6.031-23.708-6.363l-25.54-53.59l-1.534,59.332 c-6.642,3.268-12.552,7.832-17.438,13.475l-31.544-11.182l 23.046,24.269c-3.167,6.759-4.933,14.015-5.217,21.412l-53.579,25.533 l 59.369,1.534c 0.19,0.384, 0.387,0.763, 0.585,1.141l-74.852,98.49l 98.489-74.852c 7.322,3.828, 15.437,6.03, 23.708,6.362l 25.54,53.591 l 1.533-59.332c 6.643-3.269, 12.553-7.832, 17.439-13.476l 31.545,11.184l-23.047-24.27c 3.168-6.76, 4.934-14.015, 5.218-21.412 l 53.578-25.533l-59.368-1.535c-0.189-0.383-0.387-0.762-0.585-1.14L 380.451,147.549z M 256.051,222.267l0.00,1.724 L 256.051,222.267 L 256.051,222.267z M 246.021,225.049c 3.363-0.715, 6.722-1.059, 10.028-1.059c 2.072,0.00, 4.125,0.135, 6.147,0.398l 0.046,0.016 l-0.005-0.011c 4.366,0.572, 8.588,1.75, 12.566,3.448l-35.773,27.188l-27.19,35.776c-1.188-2.797-2.135-5.742-2.79-8.826 C 203.537,256.049, 220.09,230.561, 246.021,225.049z M 281.06,312.942L 281.06,312.942L 281.06,312.942 c-4.528,2.772-9.591,4.842-15.08,6.009c-3.363,0.715-6.722,1.059-10.027,1.059c-2.075,0.00-4.129-0.136-6.154-0.399l-0.039-0.015 l 0.005,0.01c-4.367-0.571-8.587-1.75-12.566-3.447l 35.772-27.188l 27.19-35.777c 1.188,2.797, 2.135,5.743, 2.79,8.827 C 307.296,282.462, 297.923,302.621, 281.06,312.942z" ></path></svg>