<?xml version="1.0" encoding="utf-8"?> <!-- Generator: IcoMoon.io --> <!DOCTYPE svg PUBLIC "-//W3C//DTD SVG 1.1//EN" "http://www.w3.org/Graphics/SVG/1.1/DTD/svg11.dtd"> <svg width="512" height="512" viewBox="0 0 512 512" xmlns="http://www.w3.org/2000/svg" xmlns:xlink="http://www.w3.org/1999/xlink" fill="#000000"><g class="svgGrid" id="svgGrid"><line stroke-width="1" stroke="#B35047" x1="32" x2="32" y1="0" y2="512"></line><line stroke-width="1" stroke="#B35047" x1="64" x2="64" y1="0" y2="512"></line><line stroke-width="1" stroke="#B35047" x1="96" x2="96" y1="0" y2="512"></line><line stroke-width="1" stroke="#B35047" x1="128" x2="128" y1="0" y2="512"></line><line stroke-width="1" stroke="#B35047" x1="160" x2="160" y1="0" y2="512"></line><line stroke-width="1" stroke="#B35047" x1="192" x2="192" y1="0" y2="512"></line><line stroke-width="1" stroke="#B35047" x1="224" x2="224" y1="0" y2="512"></line><line stroke-width="1" stroke="#B35047" x1="256" x2="256" y1="0" y2="512"></line><line stroke-width="1" stroke="#B35047" x1="288" x2="288" y1="0" y2="512"></line><line stroke-width="1" stroke="#B35047" x1="320" x2="320" y1="0" y2="512"></line><line stroke-width="1" stroke="#B35047" x1="352" x2="352" y1="0" y2="512"></line><line stroke-width="1" stroke="#B35047" x1="384" x2="384" y1="0" y2="512"></line><line stroke-width="1" stroke="#B35047" x1="416" x2="416" y1="0" y2="512"></line><line stroke-width="1" stroke="#B35047" x1="448" x2="448" y1="0" y2="512"></line><line stroke-width="1" stroke="#B35047" x1="480" x2="480" y1="0" y2="512"></line><line stroke-width="1" stroke="#B35047" x1="0" x2="512" y1="32" y2="32"></line><line stroke-width="1" stroke="#B35047" x1="0" x2="512" y1="64" y2="64"></line><line stroke-width="1" stroke="#B35047" x1="0" x2="512" y1="96" y2="96"></line><line stroke-width="1" stroke="#B35047" x1="0" x2="512" y1="128" y2="128"></line><line stroke-width="1" stroke="#B35047" x1="0" x2="512" y1="160" y2="160"></line><line stroke-width="1" stroke="#B35047" x1="0" x2="512" y1="192" y2="192"></line><line stroke-width="1" stroke="#B35047" x1="0" x2="512" y1="224" y2="224"></line><line stroke-width="1" stroke="#B35047" x1="0" x2="512" y1="256" y2="256"></line><line stroke-width="1" stroke="#B35047" x1="0" x2="512" y1="288" y2="288"></line><line stroke-width="1" stroke="#B35047" x1="0" x2="512" y1="320" y2="320"></line><line stroke-width="1" stroke="#B35047" x1="0" x2="512" y1="352" y2="352"></line><line stroke-width="1" stroke="#B35047" x1="0" x2="512" y1="384" y2="384"></line><line stroke-width="1" stroke="#B35047" x1="0" x2="512" y1="416" y2="416"></line><line stroke-width="1" stroke="#B35047" x1="0" x2="512" y1="448" y2="448"></line><line stroke-width="1" stroke="#B35047" x1="0" x2="512" y1="480" y2="480"></line><rect x="0" y="0" width="512" height="512" fill="none" stroke-width="1" stroke="#B35047"></rect></g><path d="M 445.387,354.577c-22.827-22.778-51.864-34.536-78.973-34.536l-14.556,0.00 l-31.952-32.004l 127.81-128.019 c 31.952-32.005, 31.952-96.014,0.00-128.019L 256.001,224.027L 64.285,32.00c-31.952,32.004-31.952,96.014,0.00,128.019l 127.811,128.017 l-31.953,32.004l-14.557,0.00 c-27.11,0.00-56.146,11.759-78.974,34.538c-40.811,40.721-46.325,101.242-12.315,135.175 C 69.282,504.704, 89.441,512.00, 110.795,512.00c 27.108,0.00, 56.145-11.757, 78.973-34.536c 26.792-26.732, 38.371-62.00, 33.542-92.674l 32.692-32.744 l 32.688,32.744c-4.828,30.674, 6.753,65.941, 33.542,92.674C 345.063,500.243, 374.098,512.00, 401.206,512.00 c 21.354,0.00, 41.512-7.296, 56.497-22.248C 491.713,455.819, 486.197,395.298, 445.387,354.577z M 176.512,422.769 c-3.849,8.941-9.505,17.173-16.813,24.463c-7.318,7.302-15.586,12.959-24.574,16.812c-8.066,3.458-16.48,5.284-24.331,5.284 c-7.573,0.00-18.306-1.701-26.431-9.806c-8.068-8.052-9.76-18.659-9.76-26.144c0.00-7.771, 1.821-16.105, 5.263-24.106 c 3.85-8.942, 9.507-17.173, 16.813-24.463c 7.317-7.303, 15.586-12.957, 24.575-16.812c 8.067-3.457, 16.48-5.284, 24.332-5.284 c 7.573,0.00, 18.306,1.70, 26.429,9.807c 8.067,8.049, 9.761,18.658, 9.761,26.142C 181.777,406.433, 179.957,414.77, 176.512,422.769z M 256.002,333.298c-24.957,0.00-45.188-20.266-45.188-45.263c0.00-24.996, 20.231-45.26, 45.188-45.26s 45.186,20.264, 45.186,45.26 C 301.188,313.034, 280.958,333.298, 256.002,333.298z M 427.636,459.521c-8.124,8.104-18.856,9.806-26.43,9.806 c-7.852,0.00-16.265-1.826-24.333-5.284c-8.986-3.853-17.254-9.51-24.571-16.812c-7.307-7.29-12.963-15.521-16.813-24.463 c-3.443-7.999-5.263-16.336-5.263-24.106c0.00-7.483, 1.692-18.094, 9.76-26.143c 8.123-8.104, 18.856-9.807, 26.43-9.807 c 7.85,0.00, 16.265,1.827, 24.33,5.284c 8.989,3.854, 17.258,9.509, 24.575,16.812c 7.305,7.29, 12.962,15.521, 16.813,24.463 c 3.442,7.999, 5.263,16.335, 5.263,24.106C 437.396,440.862, 435.702,451.47, 427.636,459.521z" ></path></svg>