<?xml version="1.0" encoding="utf-8"?> <!-- Generator: IcoMoon.io --> <!DOCTYPE svg PUBLIC "-//W3C//DTD SVG 1.1//EN" "http://www.w3.org/Graphics/SVG/1.1/DTD/svg11.dtd"> <svg width="512" height="512" viewBox="0 0 512 512" xmlns="http://www.w3.org/2000/svg" xmlns:xlink="http://www.w3.org/1999/xlink" fill="#000000"><g class="svgGrid" id="svgGrid"><line stroke-width="1" stroke="#B35047" x1="32" x2="32" y1="0" y2="512"></line><line stroke-width="1" stroke="#B35047" x1="64" x2="64" y1="0" y2="512"></line><line stroke-width="1" stroke="#B35047" x1="96" x2="96" y1="0" y2="512"></line><line stroke-width="1" stroke="#B35047" x1="128" x2="128" y1="0" y2="512"></line><line stroke-width="1" stroke="#B35047" x1="160" x2="160" y1="0" y2="512"></line><line stroke-width="1" stroke="#B35047" x1="192" x2="192" y1="0" y2="512"></line><line stroke-width="1" stroke="#B35047" x1="224" x2="224" y1="0" y2="512"></line><line stroke-width="1" stroke="#B35047" x1="256" x2="256" y1="0" y2="512"></line><line stroke-width="1" stroke="#B35047" x1="288" x2="288" y1="0" y2="512"></line><line stroke-width="1" stroke="#B35047" x1="320" x2="320" y1="0" y2="512"></line><line stroke-width="1" stroke="#B35047" x1="352" x2="352" y1="0" y2="512"></line><line stroke-width="1" stroke="#B35047" x1="384" x2="384" y1="0" y2="512"></line><line stroke-width="1" stroke="#B35047" x1="416" x2="416" y1="0" y2="512"></line><line stroke-width="1" stroke="#B35047" x1="448" x2="448" y1="0" y2="512"></line><line stroke-width="1" stroke="#B35047" x1="480" x2="480" y1="0" y2="512"></line><line stroke-width="1" stroke="#B35047" x1="0" x2="512" y1="32" y2="32"></line><line stroke-width="1" stroke="#B35047" x1="0" x2="512" y1="64" y2="64"></line><line stroke-width="1" stroke="#B35047" x1="0" x2="512" y1="96" y2="96"></line><line stroke-width="1" stroke="#B35047" x1="0" x2="512" y1="128" y2="128"></line><line stroke-width="1" stroke="#B35047" x1="0" x2="512" y1="160" y2="160"></line><line stroke-width="1" stroke="#B35047" x1="0" x2="512" y1="192" y2="192"></line><line stroke-width="1" stroke="#B35047" x1="0" x2="512" y1="224" y2="224"></line><line stroke-width="1" stroke="#B35047" x1="0" x2="512" y1="256" y2="256"></line><line stroke-width="1" stroke="#B35047" x1="0" x2="512" y1="288" y2="288"></line><line stroke-width="1" stroke="#B35047" x1="0" x2="512" y1="320" y2="320"></line><line stroke-width="1" stroke="#B35047" x1="0" x2="512" y1="352" y2="352"></line><line stroke-width="1" stroke="#B35047" x1="0" x2="512" y1="384" y2="384"></line><line stroke-width="1" stroke="#B35047" x1="0" x2="512" y1="416" y2="416"></line><line stroke-width="1" stroke="#B35047" x1="0" x2="512" y1="448" y2="448"></line><line stroke-width="1" stroke="#B35047" x1="0" x2="512" y1="480" y2="480"></line><rect x="0" y="0" width="512" height="512" fill="none" stroke-width="1" stroke="#B35047"></rect></g><path d="M 487.655,288.969c 1.406-10.40, 2.215-20.973, 2.215-31.736c0.00-129.155-105.271-233.872-235.103-233.872 c-12.904,0.00-25.555,1.06-37.866,3.08c-22.072-14.384-48.342-22.767-76.612-22.767C 62.766,3.674,0.00,66.482,0.00,143.98 c0.00,28.198, 8.299,54.394, 22.59,76.389c-1.925,12.017-2.909,24.323-2.909,36.859c0.00,129.176, 105.217,233.882, 235.085,233.882 c 14.657,0.00, 28.927-1.427, 42.796-3.933c 21.55,13.369, 46.934,21.148, 74.146,21.148C 449.21,508.326, 512.00,445.502, 512.00,368.012 C 511.997,338.719, 503.04,311.484, 487.655,288.969z M 276.74,429.596c-74.705,3.892-109.664-12.637-141.689-42.691 c-35.765-33.567-21.398-71.854, 7.74-73.801c 29.122-1.944, 46.607,33.013, 62.15,42.736c 15.524,9.688, 74.594,31.76, 105.794-3.908 c 33.976-38.828-22.594-58.92-64.059-65.002c-59.203-8.766-133.95-40.792-128.135-103.907c 5.816-63.074, 53.582-95.414, 103.85-99.976 c 64.077-5.817, 105.791,9.707, 138.785,37.86c 38.15,32.529, 17.508,68.894-6.799,71.82c-24.212,2.909-51.404-53.504-104.791-54.352 c-55.027-0.864-92.217,57.261-24.286,73.784c 67.966,16.505, 140.75,23.286, 166.961,85.417 C 418.49,359.713, 351.507,425.701, 276.74,429.596z" ></path></svg>