<?xml version="1.0" encoding="utf-8"?> <!-- Generator: IcoMoon --> <!DOCTYPE svg PUBLIC "-//W3C//DTD SVG 1.1//EN" "http://www.w3.org/Graphics/SVG/1.1/DTD/svg11.dtd"> <svg width="512" height="512" viewBox="0 0 512 512" data-tags="soundcloud, social" fill="#000000"><g class="svgGrid" id="svgGrid"><line stroke-width="1" stroke="#B35047" x1="32" x2="32" y1="0" y2="512"></line><line stroke-width="1" stroke="#B35047" x1="64" x2="64" y1="0" y2="512"></line><line stroke-width="1" stroke="#B35047" x1="96" x2="96" y1="0" y2="512"></line><line stroke-width="1" stroke="#B35047" x1="128" x2="128" y1="0" y2="512"></line><line stroke-width="1" stroke="#B35047" x1="160" x2="160" y1="0" y2="512"></line><line stroke-width="1" stroke="#B35047" x1="192" x2="192" y1="0" y2="512"></line><line stroke-width="1" stroke="#B35047" x1="224" x2="224" y1="0" y2="512"></line><line stroke-width="1" stroke="#B35047" x1="256" x2="256" y1="0" y2="512"></line><line stroke-width="1" stroke="#B35047" x1="288" x2="288" y1="0" y2="512"></line><line stroke-width="1" stroke="#B35047" x1="320" x2="320" y1="0" y2="512"></line><line stroke-width="1" stroke="#B35047" x1="352" x2="352" y1="0" y2="512"></line><line stroke-width="1" stroke="#B35047" x1="384" x2="384" y1="0" y2="512"></line><line stroke-width="1" stroke="#B35047" x1="416" x2="416" y1="0" y2="512"></line><line stroke-width="1" stroke="#B35047" x1="448" x2="448" y1="0" y2="512"></line><line stroke-width="1" stroke="#B35047" x1="480" x2="480" y1="0" y2="512"></line><line stroke-width="1" stroke="#B35047" x1="0" x2="512" y1="32" y2="32"></line><line stroke-width="1" stroke="#B35047" x1="0" x2="512" y1="64" y2="64"></line><line stroke-width="1" stroke="#B35047" x1="0" x2="512" y1="96" y2="96"></line><line stroke-width="1" stroke="#B35047" x1="0" x2="512" y1="128" y2="128"></line><line stroke-width="1" stroke="#B35047" x1="0" x2="512" y1="160" y2="160"></line><line stroke-width="1" stroke="#B35047" x1="0" x2="512" y1="192" y2="192"></line><line stroke-width="1" stroke="#B35047" x1="0" x2="512" y1="224" y2="224"></line><line stroke-width="1" stroke="#B35047" x1="0" x2="512" y1="256" y2="256"></line><line stroke-width="1" stroke="#B35047" x1="0" x2="512" y1="288" y2="288"></line><line stroke-width="1" stroke="#B35047" x1="0" x2="512" y1="320" y2="320"></line><line stroke-width="1" stroke="#B35047" x1="0" x2="512" y1="352" y2="352"></line><line stroke-width="1" stroke="#B35047" x1="0" x2="512" y1="384" y2="384"></line><line stroke-width="1" stroke="#B35047" x1="0" x2="512" y1="416" y2="416"></line><line stroke-width="1" stroke="#B35047" x1="0" x2="512" y1="448" y2="448"></line><line stroke-width="1" stroke="#B35047" x1="0" x2="512" y1="480" y2="480"></line><rect x="0" y="0" width="512" height="512" fill="none" stroke-width="1" stroke="#B35047"></rect></g><path d="M 426.686,0.00L 85.344,0.00 C 38.407,0.00, 0.001,38.403, 0.001,85.34l0.00,234.658 L 8.00,288.00l 16.00,0.00 l 8.00,32.00l-8.00,32.00L 8.00,352.00 l-8.00-31.998l0.00,106.652 C 0.001,473.623, 38.407,512.00, 85.344,512.00l 341.342,0.00 C 473.625,512.00, 512.00,473.623, 512.00,426.654L 512.00,320.553 C 512.00,355.592, 482.459,384.00, 446.007,384.00 c-1.177,0.00-182.777-0.088-182.945-0.105c-3.941-0.381-7.062-3.615-7.062-7.498L 256.00,175.04 c0.00-3.697, 1.309-5.606, 6.289-7.458 c 12.818-4.767, 27.267-7.582, 42.159-7.582c 60.854,0.00, 110.746,44.851, 115.999,102.029c 7.858-3.168, 16.489-4.928, 25.532-4.928 c 36.453,0.00, 66.021,28.412, 66.021,63.451L 512.00,85.341 C 512.00,38.403, 473.621,0.00, 426.686,0.00z M 88.00,384.00L 72.00,384.00 l-8.00-64.00l 8.00-64.00l 16.00,0.00 l 8.00,64.00L 88.00,384.00z M 152.00,384.00l-16.00,0.00 l-8.00-81.375L 136.00,224.00l 16.00,0.00 l 8.00,80.00L 152.00,384.00z M 216.00,384.00l-16.00,0.00 l-8.00-112.11L 200.00,160.00l 16.00,0.00 l 8.00,111.89L 216.00,384.00z" ></path></svg>