<?xml version="1.0" encoding="utf-8"?> <!-- Generator: IcoMoon.io --> <!DOCTYPE svg PUBLIC "-//W3C//DTD SVG 1.1//EN" "http://www.w3.org/Graphics/SVG/1.1/DTD/svg11.dtd"> <svg width="512" height="512" viewBox="0 0 512 512" xmlns="http://www.w3.org/2000/svg" xmlns:xlink="http://www.w3.org/1999/xlink" fill="#000000"><g class="svgGrid" id="svgGrid"><line stroke-width="1" stroke="#B35047" x1="32" x2="32" y1="0" y2="512"></line><line stroke-width="1" stroke="#B35047" x1="64" x2="64" y1="0" y2="512"></line><line stroke-width="1" stroke="#B35047" x1="96" x2="96" y1="0" y2="512"></line><line stroke-width="1" stroke="#B35047" x1="128" x2="128" y1="0" y2="512"></line><line stroke-width="1" stroke="#B35047" x1="160" x2="160" y1="0" y2="512"></line><line stroke-width="1" stroke="#B35047" x1="192" x2="192" y1="0" y2="512"></line><line stroke-width="1" stroke="#B35047" x1="224" x2="224" y1="0" y2="512"></line><line stroke-width="1" stroke="#B35047" x1="256" x2="256" y1="0" y2="512"></line><line stroke-width="1" stroke="#B35047" x1="288" x2="288" y1="0" y2="512"></line><line stroke-width="1" stroke="#B35047" x1="320" x2="320" y1="0" y2="512"></line><line stroke-width="1" stroke="#B35047" x1="352" x2="352" y1="0" y2="512"></line><line stroke-width="1" stroke="#B35047" x1="384" x2="384" y1="0" y2="512"></line><line stroke-width="1" stroke="#B35047" x1="416" x2="416" y1="0" y2="512"></line><line stroke-width="1" stroke="#B35047" x1="448" x2="448" y1="0" y2="512"></line><line stroke-width="1" stroke="#B35047" x1="480" x2="480" y1="0" y2="512"></line><line stroke-width="1" stroke="#B35047" x1="0" x2="512" y1="32" y2="32"></line><line stroke-width="1" stroke="#B35047" x1="0" x2="512" y1="64" y2="64"></line><line stroke-width="1" stroke="#B35047" x1="0" x2="512" y1="96" y2="96"></line><line stroke-width="1" stroke="#B35047" x1="0" x2="512" y1="128" y2="128"></line><line stroke-width="1" stroke="#B35047" x1="0" x2="512" y1="160" y2="160"></line><line stroke-width="1" stroke="#B35047" x1="0" x2="512" y1="192" y2="192"></line><line stroke-width="1" stroke="#B35047" x1="0" x2="512" y1="224" y2="224"></line><line stroke-width="1" stroke="#B35047" x1="0" x2="512" y1="256" y2="256"></line><line stroke-width="1" stroke="#B35047" x1="0" x2="512" y1="288" y2="288"></line><line stroke-width="1" stroke="#B35047" x1="0" x2="512" y1="320" y2="320"></line><line stroke-width="1" stroke="#B35047" x1="0" x2="512" y1="352" y2="352"></line><line stroke-width="1" stroke="#B35047" x1="0" x2="512" y1="384" y2="384"></line><line stroke-width="1" stroke="#B35047" x1="0" x2="512" y1="416" y2="416"></line><line stroke-width="1" stroke="#B35047" x1="0" x2="512" y1="448" y2="448"></line><line stroke-width="1" stroke="#B35047" x1="0" x2="512" y1="480" y2="480"></line><rect x="0" y="0" width="512" height="512" fill="none" stroke-width="1" stroke="#B35047"></rect></g><path d="M 352.00,144.00A48.00,48.00 1080.00 1,0 448.00,144A48.00,48.00 1080.00 1,0 352.00,144zM 479.196,64.804c-43.739-43.738-114.653-43.738-158.393,0.00c-17.789,17.789-28.342,40.073-31.661,63.196l0.00,0.00 L 186.795,283.114 c-13.753,0.705-27.388,4.208-39.983,10.508L 67.866,231.91c-18.275-14.287-44.671-11.051-58.956,7.224 c-14.286,18.275-11.051,44.671, 7.224,58.956l 77.967,60.946c-8.48,33.391, 0.336,70.269, 26.465,96.397 c 39.453,39.452, 103.416,39.452, 142.868,0.00c 24.233-24.233, 33.575-57.714, 28.038-89.083L 416.00,254.858l-0.001-0.001 c 23.124-3.319, 45.408-13.872, 63.197-31.661C 522.935,179.458, 522.935,108.543, 479.196,64.804z M 192.00,451.349 c-37.195,0.00-67.349-30.152-67.349-67.349c0.00-0.356, 0.021-0.707, 0.027-1.062l 33.456,26.152c 7.68,6.003, 16.791,8.912, 25.837,8.912 c 12.481,0.00, 24.836-5.54, 33.119-16.136c 14.286-18.275, 11.051-44.671-7.224-58.956l-31.75-24.818c 4.481-0.939, 9.124-1.44, 13.884-1.44 c 37.196,0.00, 67.349,30.152, 67.349,67.349S 229.196,451.349, 192.00,451.349z M 400.00,224.00c-44.183,0.00-80.00-35.817-80.00-80.00s 35.817-80.00, 80.00-80.00 s 80.00,35.817, 80.00,80.00S 444.183,224.00, 400.00,224.00z" ></path></svg>