<?xml version="1.0" encoding="utf-8"?> <!-- Generator: IcoMoon --> <!DOCTYPE svg PUBLIC "-//W3C//DTD SVG 1.1//EN" "http://www.w3.org/Graphics/SVG/1.1/DTD/svg11.dtd"> <svg width="512" height="512" viewBox="0 0 512 512" data-tags="stumbleupon, social" fill="#000000"><g class="svgGrid" id="svgGrid"><line stroke-width="1" stroke="#B35047" x1="32" x2="32" y1="0" y2="512"></line><line stroke-width="1" stroke="#B35047" x1="64" x2="64" y1="0" y2="512"></line><line stroke-width="1" stroke="#B35047" x1="96" x2="96" y1="0" y2="512"></line><line stroke-width="1" stroke="#B35047" x1="128" x2="128" y1="0" y2="512"></line><line stroke-width="1" stroke="#B35047" x1="160" x2="160" y1="0" y2="512"></line><line stroke-width="1" stroke="#B35047" x1="192" x2="192" y1="0" y2="512"></line><line stroke-width="1" stroke="#B35047" x1="224" x2="224" y1="0" y2="512"></line><line stroke-width="1" stroke="#B35047" x1="256" x2="256" y1="0" y2="512"></line><line stroke-width="1" stroke="#B35047" x1="288" x2="288" y1="0" y2="512"></line><line stroke-width="1" stroke="#B35047" x1="320" x2="320" y1="0" y2="512"></line><line stroke-width="1" stroke="#B35047" x1="352" x2="352" y1="0" y2="512"></line><line stroke-width="1" stroke="#B35047" x1="384" x2="384" y1="0" y2="512"></line><line stroke-width="1" stroke="#B35047" x1="416" x2="416" y1="0" y2="512"></line><line stroke-width="1" stroke="#B35047" x1="448" x2="448" y1="0" y2="512"></line><line stroke-width="1" stroke="#B35047" x1="480" x2="480" y1="0" y2="512"></line><line stroke-width="1" stroke="#B35047" x1="0" x2="512" y1="32" y2="32"></line><line stroke-width="1" stroke="#B35047" x1="0" x2="512" y1="64" y2="64"></line><line stroke-width="1" stroke="#B35047" x1="0" x2="512" y1="96" y2="96"></line><line stroke-width="1" stroke="#B35047" x1="0" x2="512" y1="128" y2="128"></line><line stroke-width="1" stroke="#B35047" x1="0" x2="512" y1="160" y2="160"></line><line stroke-width="1" stroke="#B35047" x1="0" x2="512" y1="192" y2="192"></line><line stroke-width="1" stroke="#B35047" x1="0" x2="512" y1="224" y2="224"></line><line stroke-width="1" stroke="#B35047" x1="0" x2="512" y1="256" y2="256"></line><line stroke-width="1" stroke="#B35047" x1="0" x2="512" y1="288" y2="288"></line><line stroke-width="1" stroke="#B35047" x1="0" x2="512" y1="320" y2="320"></line><line stroke-width="1" stroke="#B35047" x1="0" x2="512" y1="352" y2="352"></line><line stroke-width="1" stroke="#B35047" x1="0" x2="512" y1="384" y2="384"></line><line stroke-width="1" stroke="#B35047" x1="0" x2="512" y1="416" y2="416"></line><line stroke-width="1" stroke="#B35047" x1="0" x2="512" y1="448" y2="448"></line><line stroke-width="1" stroke="#B35047" x1="0" x2="512" y1="480" y2="480"></line><rect x="0" y="0" width="512" height="512" fill="none" stroke-width="1" stroke="#B35047"></rect></g><path d="M 426.675,0.00L 85.325,0.00 C 38.20,0.00,0.00,38.21,0.00,85.342l0.00,341.315 C0.00,473.79, 38.20,512.00, 85.325,512.00l 341.35,0.00 C 473.80,512.00, 512.00,473.79, 512.00,426.657 L 512.00,85.342 C 512.00,38.21, 473.80,0.00, 426.675,0.00z M 256.00,193.706c-8.484,0.00-15.359,6.876-15.359,15.36l0.00,93.868 c0.00,35.816-29.037,64.854-64.854,64.854c-35.818,0.00-64.854-29.036-64.854-64.854l0.00-42.668 l 49.493,0.00 l0.00,40.961 c0.00,8.483, 6.877,15.359, 15.36,15.359c 8.482,0.00, 15.359-6.876, 15.359-15.359l0.00-92.161 c0.00-35.817, 29.035-64.853, 64.854-64.853 c 35.815,0.00, 64.854,29.036, 64.854,64.853l0.00,18.774 l-29.014,9.386l-20.48-9.386l0.00-18.774 C 271.36,200.583, 264.484,193.706, 256.00,193.706z M 401.067,302.934c0.00,35.816-29.037,64.854-64.854,64.854c-35.818,0.00-64.854-29.036-64.854-64.854L 271.359,261.12 l 20.48,9.387l 29.014-9.387 l0.00,41.813 c0.00,8.482, 6.875,15.359, 15.359,15.359c 8.482,0.00, 15.36-6.877, 15.36-15.359l0.00-40.961 l 49.492,0.00 l0.00,40.961 L 401.067,302.933 z" ></path></svg>