<?xml version="1.0" encoding="utf-8"?> <!-- Generator: IcoMoon.io --> <!DOCTYPE svg PUBLIC "-//W3C//DTD SVG 1.1//EN" "http://www.w3.org/Graphics/SVG/1.1/DTD/svg11.dtd"> <svg width="512" height="512" viewBox="0 0 512 512" xmlns="http://www.w3.org/2000/svg" xmlns:xlink="http://www.w3.org/1999/xlink" fill="#000000"><g class="svgGrid" id="svgGrid"><line stroke-width="1" stroke="#B35047" x1="32" x2="32" y1="0" y2="512"></line><line stroke-width="1" stroke="#B35047" x1="64" x2="64" y1="0" y2="512"></line><line stroke-width="1" stroke="#B35047" x1="96" x2="96" y1="0" y2="512"></line><line stroke-width="1" stroke="#B35047" x1="128" x2="128" y1="0" y2="512"></line><line stroke-width="1" stroke="#B35047" x1="160" x2="160" y1="0" y2="512"></line><line stroke-width="1" stroke="#B35047" x1="192" x2="192" y1="0" y2="512"></line><line stroke-width="1" stroke="#B35047" x1="224" x2="224" y1="0" y2="512"></line><line stroke-width="1" stroke="#B35047" x1="256" x2="256" y1="0" y2="512"></line><line stroke-width="1" stroke="#B35047" x1="288" x2="288" y1="0" y2="512"></line><line stroke-width="1" stroke="#B35047" x1="320" x2="320" y1="0" y2="512"></line><line stroke-width="1" stroke="#B35047" x1="352" x2="352" y1="0" y2="512"></line><line stroke-width="1" stroke="#B35047" x1="384" x2="384" y1="0" y2="512"></line><line stroke-width="1" stroke="#B35047" x1="416" x2="416" y1="0" y2="512"></line><line stroke-width="1" stroke="#B35047" x1="448" x2="448" y1="0" y2="512"></line><line stroke-width="1" stroke="#B35047" x1="480" x2="480" y1="0" y2="512"></line><line stroke-width="1" stroke="#B35047" x1="0" x2="512" y1="32" y2="32"></line><line stroke-width="1" stroke="#B35047" x1="0" x2="512" y1="64" y2="64"></line><line stroke-width="1" stroke="#B35047" x1="0" x2="512" y1="96" y2="96"></line><line stroke-width="1" stroke="#B35047" x1="0" x2="512" y1="128" y2="128"></line><line stroke-width="1" stroke="#B35047" x1="0" x2="512" y1="160" y2="160"></line><line stroke-width="1" stroke="#B35047" x1="0" x2="512" y1="192" y2="192"></line><line stroke-width="1" stroke="#B35047" x1="0" x2="512" y1="224" y2="224"></line><line stroke-width="1" stroke="#B35047" x1="0" x2="512" y1="256" y2="256"></line><line stroke-width="1" stroke="#B35047" x1="0" x2="512" y1="288" y2="288"></line><line stroke-width="1" stroke="#B35047" x1="0" x2="512" y1="320" y2="320"></line><line stroke-width="1" stroke="#B35047" x1="0" x2="512" y1="352" y2="352"></line><line stroke-width="1" stroke="#B35047" x1="0" x2="512" y1="384" y2="384"></line><line stroke-width="1" stroke="#B35047" x1="0" x2="512" y1="416" y2="416"></line><line stroke-width="1" stroke="#B35047" x1="0" x2="512" y1="448" y2="448"></line><line stroke-width="1" stroke="#B35047" x1="0" x2="512" y1="480" y2="480"></line><rect x="0" y="0" width="512" height="512" fill="none" stroke-width="1" stroke="#B35047"></rect></g><path d="M 256.00,0.00C 114.615,0.00,0.00,114.615,0.00,256.00s 114.615,256.00, 256.00,256.00s 256.00-114.615, 256.00-256.00S 397.385,0.00, 256.00,0.00z M 160.00,256.00 c0.00-53.02, 42.98-96.00, 96.00-96.00s 96.00,42.98, 96.00,96.00s-42.98,96.00-96.00,96.00S 160.00,309.02, 160.00,256.00z M 462.99,341.738L 462.99,341.738l-88.71-36.745 C 380.539,289.901, 384.00,273.355, 384.00,256.00s-3.461-33.901-9.72-48.993l 61.063-25.293l 27.647-11.452C 473.944,196.673, 480.00,225.627, 480.00,256.00 C 480.00,286.373, 473.943,315.327, 462.99,341.738L 462.99,341.738z M 341.739,49.01L 341.739,49.01L 341.739,49.01l-36.745,88.71 C 289.902,131.461, 273.356,128.00, 256.00,128.00s-33.901,3.461-48.993,9.72l-17.23-41.599l-19.515-47.112C 196.673,38.057, 225.628,32.00, 256.00,32.00 C 286.373,32.00, 315.327,38.057, 341.739,49.01z M 49.01,170.262l 47.112,19.515l 41.599,17.23C 131.462,222.099, 128.00,238.645, 128.00,256.00 s 3.461,33.901, 9.72,48.993l-88.71,36.745C 38.057,315.327, 32.00,286.373, 32.00,256.00C 32.00,225.627, 38.057,196.673, 49.01,170.262z M 170.262,462.99l 11.452-27.647l 25.293-61.063C 222.099,380.539, 238.645,384.00, 256.00,384.00s 33.901-3.461, 48.993-9.72l 36.745,88.71l0.00,0.00l0.00,0.00 C 315.327,473.942, 286.373,480.00, 256.00,480.00C 225.628,480.00, 196.673,473.943, 170.262,462.99z" ></path></svg>