<?xml version="1.0" encoding="utf-8"?>
<!-- Generator: Adobe Illustrator 15.0.0, SVG Export Plug-In . SVG Version: 6.00 Build 0)  -->
<!DOCTYPE svg PUBLIC "-//W3C//DTD SVG 1.1 Basic//EN" "http://www.w3.org/Graphics/SVG/1.1/DTD/svg11-basic.dtd">
<svg version="1.1" baseProfile="basic" id="Layer_1"
	 xmlns="http://www.w3.org/2000/svg" xmlns:xlink="http://www.w3.org/1999/xlink" x="0px" y="0px" width="512px" height="512px"
	 viewBox="0 0 512 512" xml:space="preserve">
<g id="Layer_1_3_">
	<g id="Layer_1_2_">
		<g id="Grid_1_">
			<g id="Layer_1_1_">
				<g id="Grid">
					<g>
						<rect x="0" fill="none" stroke="#A9CCDB" stroke-miterlimit="10" width="512" height="512"/>
						<line fill="none" stroke="#A9CCDB" stroke-miterlimit="10" x1="0" y1="480" x2="512" y2="480"/>
						<line fill="none" stroke="#A9CCDB" stroke-miterlimit="10" x1="0" y1="448" x2="512" y2="448"/>
						<line fill="none" stroke="#A9CCDB" stroke-miterlimit="10" x1="0" y1="416" x2="512" y2="416"/>
						<line fill="none" stroke="#A9CCDB" stroke-miterlimit="10" x1="0" y1="384" x2="512" y2="384"/>
						<line fill="none" stroke="#A9CCDB" stroke-miterlimit="10" x1="0" y1="352" x2="512" y2="352"/>
						<line fill="none" stroke="#A9CCDB" stroke-miterlimit="10" x1="0" y1="320" x2="512" y2="320"/>
						<line fill="none" stroke="#A9CCDB" stroke-miterlimit="10" x1="0" y1="288" x2="512" y2="288"/>
						<line fill="none" stroke="#A9CCDB" stroke-miterlimit="10" x1="0" y1="256" x2="512" y2="256"/>
						<line fill="none" stroke="#A9CCDB" stroke-miterlimit="10" x1="0" y1="224" x2="512" y2="224"/>
						<line fill="none" stroke="#A9CCDB" stroke-miterlimit="10" x1="0" y1="192" x2="512" y2="192"/>
						<line fill="none" stroke="#A9CCDB" stroke-miterlimit="10" x1="0" y1="160" x2="512" y2="160"/>
						<line fill="none" stroke="#A9CCDB" stroke-miterlimit="10" x1="0" y1="128" x2="512" y2="128"/>
						<line fill="none" stroke="#A9CCDB" stroke-miterlimit="10" x1="0" y1="96" x2="512" y2="96"/>
						<line fill="none" stroke="#A9CCDB" stroke-miterlimit="10" x1="0" y1="64" x2="512" y2="64"/>
						<line fill="none" stroke="#A9CCDB" stroke-miterlimit="10" x1="0" y1="32" x2="512" y2="32"/>
						<line fill="none" stroke="#A9CCDB" stroke-miterlimit="10" x1="480" y1="0" x2="480" y2="512"/>
						<line fill="none" stroke="#A9CCDB" stroke-miterlimit="10" x1="448" y1="0" x2="448" y2="512"/>
						<line fill="none" stroke="#A9CCDB" stroke-miterlimit="10" x1="416" y1="0" x2="416" y2="512"/>
						<line fill="none" stroke="#A9CCDB" stroke-miterlimit="10" x1="384" y1="0" x2="384" y2="512"/>
						<line fill="none" stroke="#A9CCDB" stroke-miterlimit="10" x1="352" y1="0" x2="352" y2="512"/>
						<line fill="none" stroke="#A9CCDB" stroke-miterlimit="10" x1="320" y1="0" x2="320" y2="512"/>
						<line fill="none" stroke="#A9CCDB" stroke-miterlimit="10" x1="288" y1="0" x2="288" y2="512"/>
						<line fill="none" stroke="#A9CCDB" stroke-miterlimit="10" x1="256" y1="0" x2="256" y2="512"/>
						<line fill="none" stroke="#A9CCDB" stroke-miterlimit="10" x1="224" y1="0" x2="224" y2="512"/>
						<line fill="none" stroke="#A9CCDB" stroke-miterlimit="10" x1="192" y1="0" x2="192" y2="512"/>
						<line fill="none" stroke="#A9CCDB" stroke-miterlimit="10" x1="160" y1="0" x2="160" y2="512"/>
						<line fill="none" stroke="#A9CCDB" stroke-miterlimit="10" x1="128" y1="0" x2="128" y2="512"/>
						<line fill="none" stroke="#A9CCDB" stroke-miterlimit="10" x1="96" y1="0" x2="96" y2="512"/>
						<line fill="none" stroke="#A9CCDB" stroke-miterlimit="10" x1="64" y1="0" x2="64" y2="512"/>
						<line fill="none" stroke="#A9CCDB" stroke-miterlimit="10" x1="32" y1="0" x2="32" y2="512"/>
					</g>
				</g>
			</g>
		</g>
	</g>
</g>
<g>
	<path d="M144,432c8.837,0,16-7.163,16-16c0-0.003,0-0.007,0-0.01V192.009c0-0.003,0-0.006,0-0.01c0-8.836-7.164-16-16-16
		c-8.836,0-16,7.164-16,16v0v224C128,424.837,135.164,432,144,432z"/>
	<path d="M240,432c8.837,0,16-7.163,16-16c0-0.003,0-0.007,0-0.01V192.009c0-0.003,0-0.006,0-0.01c0-8.836-7.164-16-16-16
		c-8.836,0-16,7.164-16,16v0v224C224,424.837,231.164,432,240,432z"/>
	<path d="M336,432c8.837,0,16-7.163,16-16c0-0.003,0-0.007,0-0.01V192.009c0-0.003,0-0.006,0-0.01c0-8.836-7.163-16-16-16
		c-8.836,0-16,7.164-16,16v0v224C320,424.837,327.164,432,336,432z"/>
	<path d="M351.987,64.54C351.99,64.36,352,64.181,352,64V32c0-17.6-14.4-32-32-32H160c-17.6,0-32,14.4-32,32v32
		c0,0.181,0.011,0.36,0.014,0.54H0V96h32v352c0,35.2,28.8,64,64,64h288c35.2,0,64-28.8,64-64V96h32V64.54H351.987z M160,32.057
		c0.017-0.02,0.038-0.041,0.057-0.057h159.885c0.02,0.017,0.041,0.038,0.058,0.058v31.885c-0.017,0.02-0.038,0.041-0.058,0.057
		H160.057c-0.02-0.017-0.041-0.038-0.057-0.057V32.057z M416,448c0,8.477-3.348,16.493-9.428,22.572
		C400.493,476.652,392.477,480,384,480H96c-8.477,0-16.493-3.348-22.573-9.428C67.348,464.493,64,456.477,64,448V96h352V448z"/>
</g>
</svg>
