<?xml version="1.0" encoding="utf-8"?> <!-- Generator: IcoMoon --> <!DOCTYPE svg PUBLIC "-//W3C//DTD SVG 1.1//EN" "http://www.w3.org/Graphics/SVG/1.1/DTD/svg11.dtd"> <svg width="512" height="512" viewBox="0 0 512 512" data-tags="tumblr, social" fill="#000000"><g class="svgGrid" id="svgGrid"><line stroke-width="1" stroke="#B35047" x1="32" x2="32" y1="0" y2="512"></line><line stroke-width="1" stroke="#B35047" x1="64" x2="64" y1="0" y2="512"></line><line stroke-width="1" stroke="#B35047" x1="96" x2="96" y1="0" y2="512"></line><line stroke-width="1" stroke="#B35047" x1="128" x2="128" y1="0" y2="512"></line><line stroke-width="1" stroke="#B35047" x1="160" x2="160" y1="0" y2="512"></line><line stroke-width="1" stroke="#B35047" x1="192" x2="192" y1="0" y2="512"></line><line stroke-width="1" stroke="#B35047" x1="224" x2="224" y1="0" y2="512"></line><line stroke-width="1" stroke="#B35047" x1="256" x2="256" y1="0" y2="512"></line><line stroke-width="1" stroke="#B35047" x1="288" x2="288" y1="0" y2="512"></line><line stroke-width="1" stroke="#B35047" x1="320" x2="320" y1="0" y2="512"></line><line stroke-width="1" stroke="#B35047" x1="352" x2="352" y1="0" y2="512"></line><line stroke-width="1" stroke="#B35047" x1="384" x2="384" y1="0" y2="512"></line><line stroke-width="1" stroke="#B35047" x1="416" x2="416" y1="0" y2="512"></line><line stroke-width="1" stroke="#B35047" x1="448" x2="448" y1="0" y2="512"></line><line stroke-width="1" stroke="#B35047" x1="480" x2="480" y1="0" y2="512"></line><line stroke-width="1" stroke="#B35047" x1="0" x2="512" y1="32" y2="32"></line><line stroke-width="1" stroke="#B35047" x1="0" x2="512" y1="64" y2="64"></line><line stroke-width="1" stroke="#B35047" x1="0" x2="512" y1="96" y2="96"></line><line stroke-width="1" stroke="#B35047" x1="0" x2="512" y1="128" y2="128"></line><line stroke-width="1" stroke="#B35047" x1="0" x2="512" y1="160" y2="160"></line><line stroke-width="1" stroke="#B35047" x1="0" x2="512" y1="192" y2="192"></line><line stroke-width="1" stroke="#B35047" x1="0" x2="512" y1="224" y2="224"></line><line stroke-width="1" stroke="#B35047" x1="0" x2="512" y1="256" y2="256"></line><line stroke-width="1" stroke="#B35047" x1="0" x2="512" y1="288" y2="288"></line><line stroke-width="1" stroke="#B35047" x1="0" x2="512" y1="320" y2="320"></line><line stroke-width="1" stroke="#B35047" x1="0" x2="512" y1="352" y2="352"></line><line stroke-width="1" stroke="#B35047" x1="0" x2="512" y1="384" y2="384"></line><line stroke-width="1" stroke="#B35047" x1="0" x2="512" y1="416" y2="416"></line><line stroke-width="1" stroke="#B35047" x1="0" x2="512" y1="448" y2="448"></line><line stroke-width="1" stroke="#B35047" x1="0" x2="512" y1="480" y2="480"></line><rect x="0" y="0" width="512" height="512" fill="none" stroke-width="1" stroke="#B35047"></rect></g><path d="M 426.69,0.00L 85.344,0.00 C 38.405,0.00, 0.001,38.407, 0.001,85.343l0.00,341.313 C 0.001,473.625, 38.405,512.00, 85.344,512.00L 426.69,512.00 C 473.625,512.00, 512.00,473.625, 512.00,426.656L 512.00,85.342 C 511.996,38.407, 473.621,0.00, 426.69,0.00z M 365.858,412.344 c-15.076,7.094-28.764,12.094-41.00,14.969c-12.248,2.845-25.48,4.279-39.701,4.279c-16.156,0.00-25.688-2.029-38.094-6.094 c-12.404-4.094-23.00-9.936-31.75-17.436c-8.779-7.564-14.843-15.599-18.233-24.097c-3.392-8.502-5.078-20.846-5.078-37.002L 192.002,223.062 l-47.998,0.00 l0.00-50.033 c 13.872-4.50, 29.968-10.967, 39.842-19.375c 9.92-8.436, 17.859-18.529, 23.842-30.342 c 6.002-11.783, 10.125-26.813, 12.376-45.033l 50.25,0.00 L 270.314,160.00 L 352.00,160.00 l0.00,63.063 l-81.689,0.00 l0.00,90.594 c0.00,20.50-0.264,32.313, 1.908,38.125 c 2.156,5.78, 7.563,11.78, 13.451,15.25c 7.828,4.688, 16.752,7.03, 26.813,7.03c 17.893,0.00, 35.689-5.813, 53.375-17.438L 365.858,412.344 L 365.858,412.344z" ></path></svg>