<?xml version="1.0" encoding="utf-8"?> <!-- Generator: IcoMoon.io --> <!DOCTYPE svg PUBLIC "-//W3C//DTD SVG 1.1//EN" "http://www.w3.org/Graphics/SVG/1.1/DTD/svg11.dtd"> <svg width="512" height="512" viewBox="0 0 512 512" xmlns="http://www.w3.org/2000/svg" xmlns:xlink="http://www.w3.org/1999/xlink" fill="#000000"><g class="svgGrid" id="svgGrid"><line stroke-width="1" stroke="#B35047" x1="32" x2="32" y1="0" y2="512"></line><line stroke-width="1" stroke="#B35047" x1="64" x2="64" y1="0" y2="512"></line><line stroke-width="1" stroke="#B35047" x1="96" x2="96" y1="0" y2="512"></line><line stroke-width="1" stroke="#B35047" x1="128" x2="128" y1="0" y2="512"></line><line stroke-width="1" stroke="#B35047" x1="160" x2="160" y1="0" y2="512"></line><line stroke-width="1" stroke="#B35047" x1="192" x2="192" y1="0" y2="512"></line><line stroke-width="1" stroke="#B35047" x1="224" x2="224" y1="0" y2="512"></line><line stroke-width="1" stroke="#B35047" x1="256" x2="256" y1="0" y2="512"></line><line stroke-width="1" stroke="#B35047" x1="288" x2="288" y1="0" y2="512"></line><line stroke-width="1" stroke="#B35047" x1="320" x2="320" y1="0" y2="512"></line><line stroke-width="1" stroke="#B35047" x1="352" x2="352" y1="0" y2="512"></line><line stroke-width="1" stroke="#B35047" x1="384" x2="384" y1="0" y2="512"></line><line stroke-width="1" stroke="#B35047" x1="416" x2="416" y1="0" y2="512"></line><line stroke-width="1" stroke="#B35047" x1="448" x2="448" y1="0" y2="512"></line><line stroke-width="1" stroke="#B35047" x1="480" x2="480" y1="0" y2="512"></line><line stroke-width="1" stroke="#B35047" x1="0" x2="512" y1="32" y2="32"></line><line stroke-width="1" stroke="#B35047" x1="0" x2="512" y1="64" y2="64"></line><line stroke-width="1" stroke="#B35047" x1="0" x2="512" y1="96" y2="96"></line><line stroke-width="1" stroke="#B35047" x1="0" x2="512" y1="128" y2="128"></line><line stroke-width="1" stroke="#B35047" x1="0" x2="512" y1="160" y2="160"></line><line stroke-width="1" stroke="#B35047" x1="0" x2="512" y1="192" y2="192"></line><line stroke-width="1" stroke="#B35047" x1="0" x2="512" y1="224" y2="224"></line><line stroke-width="1" stroke="#B35047" x1="0" x2="512" y1="256" y2="256"></line><line stroke-width="1" stroke="#B35047" x1="0" x2="512" y1="288" y2="288"></line><line stroke-width="1" stroke="#B35047" x1="0" x2="512" y1="320" y2="320"></line><line stroke-width="1" stroke="#B35047" x1="0" x2="512" y1="352" y2="352"></line><line stroke-width="1" stroke="#B35047" x1="0" x2="512" y1="384" y2="384"></line><line stroke-width="1" stroke="#B35047" x1="0" x2="512" y1="416" y2="416"></line><line stroke-width="1" stroke="#B35047" x1="0" x2="512" y1="448" y2="448"></line><line stroke-width="1" stroke="#B35047" x1="0" x2="512" y1="480" y2="480"></line><rect x="0" y="0" width="512" height="512" fill="none" stroke-width="1" stroke="#B35047"></rect></g><path d="M 283.828,368.458c-40.972,19.059-79.079,18.858-104.67,17.01c-30.526-2.205-55.079-10.562-65.871-17.866 c-6.65-4.503-15.692-2.761-20.195,3.891c-4.502,6.651-2.76,15.693, 3.891,20.195c 17.349,11.743, 48.034,20.477, 80.081,22.79 c 5.433,0.392, 11.399,0.639, 17.823,0.639c 27.891,0.00, 63.313-2.658, 101.21-20.285c 7.282-3.389, 10.439-12.037, 7.052-19.32 C 299.761,368.229, 291.111,365.076, 283.828,368.458zM 445.474,346.908c 1.393-126.344, 14.381-365.103-227.485-345.806C-20.811,20.323, 42.507,272.586, 38.948,357.077 C 35.794,401.77, 20.959,456.401,0.00,512.00l 64.55,0.00 c 6.633-23.561, 11.512-46.86, 13.616-69.075c 3.891,2.714, 8.054,5.337, 12.497,7.85 c 7.229,4.259, 13.442,9.922, 20.02,15.917c 15.372,14.009, 32.795,29.887, 66.856,31.876c 2.286,0.131, 4.587,0.197, 6.838,0.197 c 34.448,0.00, 58.007-15.077, 76.939-27.191c 9.07-5.806, 16.909-10.82, 24.282-13.226c 20.955-6.56, 39.266-17.148, 52.952-30.626 c 2.138-2.104, 4.121-4.269, 5.981-6.474c 7.623,27.939, 18.059,59.379, 29.644,90.752L 512.00,512.00 C 478.913,460.888, 444.782,410.813, 445.474,346.908z M 62.055,278.176c0.00-0.008,0.00-0.015-0.001-0.023 c-2.373-41.231, 17.355-75.916, 44.063-77.468c 26.706-1.553, 50.28,30.614, 52.652,71.846c0.00,0.007, 0.002,0.015, 0.002,0.022 c 0.128,2.223, 0.184,4.423, 0.185,6.603c-8.462,2.128-16.096,5.218-22.936,8.815c-0.026-0.306-0.046-0.608-0.076-0.915 c0.00-0.004,0.00-0.009,0.00-0.013c-2.285-23.405-14.786-41.08-27.926-39.479c-13.14,1.602-21.94,21.875-19.656,45.279 c0.00,0.005, 0.002,0.009, 0.002,0.013c 0.996,10.204, 3.934,19.318, 8.021,26.222c-1.017,0.802-3.892,2.906-7.203,5.328 c-2.485,1.817-5.51,4.029-9.157,6.715C 70.084,318.074, 63.272,299.331, 62.055,278.176z M 332.63,380.089 c-0.95,21.793-29.454,42.296-55.791,50.522l-0.148,0.048c-10.95,3.551-20.714,9.80-31.052,16.415 c-17.366,11.112-35.323,22.604-61.261,22.604c-1.702,0.00-3.447-0.052-5.163-0.148c-23.758-1.389-34.871-11.516-48.94-24.338 c-7.421-6.763-15.095-13.757-24.988-19.562l-0.212-0.122c-21.353-12.052-34.606-27.041-35.454-40.097 c-0.421-6.49, 2.469-12.109, 8.591-16.70c 13.318-9.986, 22.239-16.511, 28.142-20.829c 6.555-4.794, 8.534-6.24, 10.00-7.632 c 1.048-0.993, 2.182-2.094, 3.402-3.281c 12.223-11.887, 32.68-31.781, 64.075-31.781c 19.202,0.00, 40.449,7.40, 63.085,21.951 c 10.662,6.939, 19.941,10.143, 31.69,14.20c 8.078,2.789, 17.234,5.951, 29.496,11.202l 0.198,0.082 C 319.74,357.325, 333.248,365.905, 332.63,380.089z M 326.323,328.903c-2.20-1.107-4.487-2.16-6.872-3.143 c-11.053-4.728-19.916-7.937-27.267-10.499c 4.058-7.947, 6.58-17.86, 6.812-28.621c0.00-0.005,0.00-0.011,0.00-0.015 c 0.563-26.187-12.644-47.448-29.498-47.488c-16.855-0.039-30.975,21.157-31.538,47.343c0.00,0.005,0.00,0.009,0.00,0.014 c-0.019,0.857-0.021,1.708-0.01,2.555c-10.381-4.776-20.59-8.245-30.583-10.38c-0.046-0.984-0.102-1.966-0.122-2.96 c0.00-0.008,0.00-0.018,0.00-0.025c-0.969-47.706, 28.301-87.195, 65.377-88.201c 37.075-1.007, 67.914,36.85, 68.886,84.555 c0.00,0.009,0.00,0.019,0.00,0.026C 341.945,293.637, 336.178,313.497, 326.323,328.903z" ></path></svg>