<?xml version="1.0" encoding="utf-8"?>
<!-- Generator: Adobe Illustrator 15.0.0, SVG Export Plug-In . SVG Version: 6.00 Build 0)  -->
<!DOCTYPE svg PUBLIC "-//W3C//DTD SVG 1.1//EN" "http://www.w3.org/Graphics/SVG/1.1/DTD/svg11.dtd">
<svg version="1.1" id="Layer_1" xmlns="http://www.w3.org/2000/svg" xmlns:xlink="http://www.w3.org/1999/xlink" x="0px" y="0px"
	 width="512px" height="512px" viewBox="0 0 512 512" enable-background="new 0 0 512 512" xml:space="preserve">
<g id="Grid_1_">
	<g id="Layer_1_1_">
		<g id="Grid">
			<g>
				<rect x="0" fill="none" stroke="#A9CCDB" stroke-miterlimit="10" width="512" height="512"/>
				<line fill="none" stroke="#A9CCDB" stroke-miterlimit="10" x1="0" y1="480" x2="512" y2="480"/>
				<line fill="none" stroke="#A9CCDB" stroke-miterlimit="10" x1="0" y1="448" x2="512" y2="448"/>
				<line fill="none" stroke="#A9CCDB" stroke-miterlimit="10" x1="0" y1="416" x2="512" y2="416"/>
				<line fill="none" stroke="#A9CCDB" stroke-miterlimit="10" x1="0" y1="384" x2="512" y2="384"/>
				<line fill="none" stroke="#A9CCDB" stroke-miterlimit="10" x1="0" y1="352" x2="512" y2="352"/>
				<line fill="none" stroke="#A9CCDB" stroke-miterlimit="10" x1="0" y1="320" x2="512" y2="320"/>
				<line fill="none" stroke="#A9CCDB" stroke-miterlimit="10" x1="0" y1="288" x2="512" y2="288"/>
				<line fill="none" stroke="#A9CCDB" stroke-miterlimit="10" x1="0" y1="256" x2="512" y2="256"/>
				<line fill="none" stroke="#A9CCDB" stroke-miterlimit="10" x1="0" y1="224" x2="512" y2="224"/>
				<line fill="none" stroke="#A9CCDB" stroke-miterlimit="10" x1="0" y1="192" x2="512" y2="192"/>
				<line fill="none" stroke="#A9CCDB" stroke-miterlimit="10" x1="0" y1="160" x2="512" y2="160"/>
				<line fill="none" stroke="#A9CCDB" stroke-miterlimit="10" x1="0" y1="128" x2="512" y2="128"/>
				<line fill="none" stroke="#A9CCDB" stroke-miterlimit="10" x1="0" y1="96" x2="512" y2="96"/>
				<line fill="none" stroke="#A9CCDB" stroke-miterlimit="10" x1="0" y1="64" x2="512" y2="64"/>
				<line fill="none" stroke="#A9CCDB" stroke-miterlimit="10" x1="0" y1="32" x2="512" y2="32"/>
				<line fill="none" stroke="#A9CCDB" stroke-miterlimit="10" x1="480" y1="0" x2="480" y2="512"/>
				<line fill="none" stroke="#A9CCDB" stroke-miterlimit="10" x1="448" y1="0" x2="448" y2="512"/>
				<line fill="none" stroke="#A9CCDB" stroke-miterlimit="10" x1="416" y1="0" x2="416" y2="512"/>
				<line fill="none" stroke="#A9CCDB" stroke-miterlimit="10" x1="384" y1="0" x2="384" y2="512"/>
				<line fill="none" stroke="#A9CCDB" stroke-miterlimit="10" x1="352" y1="0" x2="352" y2="512"/>
				<line fill="none" stroke="#A9CCDB" stroke-miterlimit="10" x1="320" y1="0" x2="320" y2="512"/>
				<line fill="none" stroke="#A9CCDB" stroke-miterlimit="10" x1="288" y1="0" x2="288" y2="512"/>
				<line fill="none" stroke="#A9CCDB" stroke-miterlimit="10" x1="256" y1="0" x2="256" y2="512"/>
				<line fill="none" stroke="#A9CCDB" stroke-miterlimit="10" x1="224" y1="0" x2="224" y2="512"/>
				<line fill="none" stroke="#A9CCDB" stroke-miterlimit="10" x1="192" y1="0" x2="192" y2="512"/>
				<line fill="none" stroke="#A9CCDB" stroke-miterlimit="10" x1="160" y1="0" x2="160" y2="512"/>
				<line fill="none" stroke="#A9CCDB" stroke-miterlimit="10" x1="128" y1="0" x2="128" y2="512"/>
				<line fill="none" stroke="#A9CCDB" stroke-miterlimit="10" x1="96" y1="0" x2="96" y2="512"/>
				<line fill="none" stroke="#A9CCDB" stroke-miterlimit="10" x1="64" y1="0" x2="64" y2="512"/>
				<line fill="none" stroke="#A9CCDB" stroke-miterlimit="10" x1="32" y1="0" x2="32" y2="512"/>
			</g>
		</g>
	</g>
</g>
<g>
	<path d="M238.444,337.557c2.28,4.524,3.495,9.579,3.495,14.848c0,8.808-3.372,17.029-9.496,23.154l-81.69,81.69
		c-6.124,6.124-14.348,9.496-23.154,9.496s-17.03-3.372-23.154-9.496l-49.69-49.69c-6.124-6.125-9.496-14.348-9.496-23.154
		s3.372-17.03,9.496-23.154l81.69-81.691c6.124-6.123,14.348-9.496,23.154-9.496c5.269,0,10.322,1.215,14.848,3.494l32.669-32.668
		c-13.935-10.705-30.72-16.08-47.517-16.08c-19.993,0-39.986,7.583-55.154,22.751l-81.69,81.691
		c-30.335,30.335-30.335,79.975,0,110.309l49.69,49.691c15.167,15.166,35.16,22.75,55.153,22.75
		c19.994,0,39.987-7.584,55.154-22.751l81.69-81.69c27.91-27.91,30.119-72.149,6.672-102.673L238.444,337.557z"/>
	<path d="M489.248,72.442l-49.69-49.691C424.391,7.583,404.398,0,384.404,0c-19.993,0-39.985,7.583-55.153,22.751l-81.691,81.691
		c-27.91,27.91-30.119,72.149-6.671,102.671l32.669-32.67c-2.279-4.525-3.494-9.58-3.494-14.847c0-8.808,3.372-17.03,9.496-23.154
		l81.691-81.691c6.123-6.124,14.347-9.497,23.153-9.497c8.808,0,17.03,3.373,23.154,9.497l49.69,49.691
		c6.124,6.124,9.496,14.347,9.496,23.154c0,8.807-3.372,17.03-9.496,23.154l-81.69,81.691c-6.124,6.124-14.347,9.496-23.154,9.496
		c-5.268,0-10.322-1.215-14.848-3.495l-32.669,32.669c13.936,10.705,30.72,16.08,47.517,16.08c19.994,0,39.987-7.584,55.154-22.752
		l81.69-81.69C519.584,152.416,519.584,102.777,489.248,72.442z"/>
	
		<rect x="12.119" y="63.999" transform="matrix(-0.7071 -0.7071 0.7071 -0.7071 79.9997 193.1353)" width="135.762" height="32.001"/>
	<rect x="192" width="32" height="96"/>
	<rect x="0" y="192" width="96" height="32"/>
	
		<rect x="364.119" y="416.006" transform="matrix(0.7071 0.7071 -0.7071 0.7071 432.0049 -178.9384)" width="135.763" height="32.001"/>
	<rect x="288" y="416" width="32" height="96"/>
	<rect x="416" y="288" width="96" height="32"/>
</g>
</svg>
