<?xml version="1.0" encoding="utf-8"?> <!-- Generator: IcoMoon.io --> <!DOCTYPE svg PUBLIC "-//W3C//DTD SVG 1.1//EN" "http://www.w3.org/Graphics/SVG/1.1/DTD/svg11.dtd"> <svg width="512" height="512" viewBox="0 0 512 512" xmlns="http://www.w3.org/2000/svg" xmlns:xlink="http://www.w3.org/1999/xlink" fill="#000000"><g class="svgGrid" id="svgGrid"><line stroke-width="1" stroke="#B35047" x1="32" x2="32" y1="0" y2="512"></line><line stroke-width="1" stroke="#B35047" x1="64" x2="64" y1="0" y2="512"></line><line stroke-width="1" stroke="#B35047" x1="96" x2="96" y1="0" y2="512"></line><line stroke-width="1" stroke="#B35047" x1="128" x2="128" y1="0" y2="512"></line><line stroke-width="1" stroke="#B35047" x1="160" x2="160" y1="0" y2="512"></line><line stroke-width="1" stroke="#B35047" x1="192" x2="192" y1="0" y2="512"></line><line stroke-width="1" stroke="#B35047" x1="224" x2="224" y1="0" y2="512"></line><line stroke-width="1" stroke="#B35047" x1="256" x2="256" y1="0" y2="512"></line><line stroke-width="1" stroke="#B35047" x1="288" x2="288" y1="0" y2="512"></line><line stroke-width="1" stroke="#B35047" x1="320" x2="320" y1="0" y2="512"></line><line stroke-width="1" stroke="#B35047" x1="352" x2="352" y1="0" y2="512"></line><line stroke-width="1" stroke="#B35047" x1="384" x2="384" y1="0" y2="512"></line><line stroke-width="1" stroke="#B35047" x1="416" x2="416" y1="0" y2="512"></line><line stroke-width="1" stroke="#B35047" x1="448" x2="448" y1="0" y2="512"></line><line stroke-width="1" stroke="#B35047" x1="480" x2="480" y1="0" y2="512"></line><line stroke-width="1" stroke="#B35047" x1="0" x2="512" y1="32" y2="32"></line><line stroke-width="1" stroke="#B35047" x1="0" x2="512" y1="64" y2="64"></line><line stroke-width="1" stroke="#B35047" x1="0" x2="512" y1="96" y2="96"></line><line stroke-width="1" stroke="#B35047" x1="0" x2="512" y1="128" y2="128"></line><line stroke-width="1" stroke="#B35047" x1="0" x2="512" y1="160" y2="160"></line><line stroke-width="1" stroke="#B35047" x1="0" x2="512" y1="192" y2="192"></line><line stroke-width="1" stroke="#B35047" x1="0" x2="512" y1="224" y2="224"></line><line stroke-width="1" stroke="#B35047" x1="0" x2="512" y1="256" y2="256"></line><line stroke-width="1" stroke="#B35047" x1="0" x2="512" y1="288" y2="288"></line><line stroke-width="1" stroke="#B35047" x1="0" x2="512" y1="320" y2="320"></line><line stroke-width="1" stroke="#B35047" x1="0" x2="512" y1="352" y2="352"></line><line stroke-width="1" stroke="#B35047" x1="0" x2="512" y1="384" y2="384"></line><line stroke-width="1" stroke="#B35047" x1="0" x2="512" y1="416" y2="416"></line><line stroke-width="1" stroke="#B35047" x1="0" x2="512" y1="448" y2="448"></line><line stroke-width="1" stroke="#B35047" x1="0" x2="512" y1="480" y2="480"></line><rect x="0" y="0" width="512" height="512" fill="none" stroke-width="1" stroke="#B35047"></rect></g><path d="M 424.00,512.00L 88.00,512.00 c-13.255,0.00-24.00-10.745-24.00-24.00c0.00-34.431, 14.534-76.102, 38.879-111.471c 20.346-29.559, 45.342-51.81, 72.339-64.805 c-11.899-10.822-22.147-24.013-30.254-39.061c-13.00-24.131-19.873-52.024-19.873-80.664c0.00-39.803, 13.102-77.411, 36.893-105.895 C 186.816,56.374, 220.205,40.00, 256.00,40.00s 69.184,16.374, 94.017,46.105c 23.79,28.484, 36.893,66.091, 36.893,105.895 c0.00,28.64-6.872,56.533-19.872,80.664c-8.107,15.048-18.355,28.239-30.255,39.061c 26.997,12.995, 51.993,35.246, 72.339,64.805 C 433.466,411.898, 448.00,453.569, 448.00,488.00C 448.00,501.255, 437.255,512.00, 424.00,512.00z M 115.037,464.00l 281.926,0.00 c-4.613-19.67-14.26-41.192-27.381-60.255c-20.727-30.113-46.588-49.811-72.819-55.463c-11.053-2.382-18.944-12.155-18.944-23.462 l0.00-17.146 c0.00-8.63, 4.633-16.595, 12.135-20.861c 29.739-16.916, 48.956-54.133, 48.956-94.813c0.00-57.346-37.192-104.00-82.909-104.00 c-45.716,0.00-82.909,46.654-82.909,104.00c0.00,40.68, 19.217,77.896, 48.957,94.813c 7.501,4.267, 12.134,12.231, 12.134,20.861l0.00,17.146 c0.00,11.307-7.892,21.08-18.944,23.462c-26.231,5.652-52.092,25.35-72.82,55.463C 129.296,422.808, 119.651,444.33, 115.037,464.00z" ></path></svg>