<?xml version="1.0" encoding="utf-8"?> <!-- Generator: IcoMoon.io --> <!DOCTYPE svg PUBLIC "-//W3C//DTD SVG 1.1//EN" "http://www.w3.org/Graphics/SVG/1.1/DTD/svg11.dtd"> <svg width="512" height="512" viewBox="0 0 512 512" xmlns="http://www.w3.org/2000/svg" xmlns:xlink="http://www.w3.org/1999/xlink" fill="#000000"><g class="svgGrid" id="svgGrid"><line stroke-width="1" stroke="#B35047" x1="32" x2="32" y1="0" y2="512"></line><line stroke-width="1" stroke="#B35047" x1="64" x2="64" y1="0" y2="512"></line><line stroke-width="1" stroke="#B35047" x1="96" x2="96" y1="0" y2="512"></line><line stroke-width="1" stroke="#B35047" x1="128" x2="128" y1="0" y2="512"></line><line stroke-width="1" stroke="#B35047" x1="160" x2="160" y1="0" y2="512"></line><line stroke-width="1" stroke="#B35047" x1="192" x2="192" y1="0" y2="512"></line><line stroke-width="1" stroke="#B35047" x1="224" x2="224" y1="0" y2="512"></line><line stroke-width="1" stroke="#B35047" x1="256" x2="256" y1="0" y2="512"></line><line stroke-width="1" stroke="#B35047" x1="288" x2="288" y1="0" y2="512"></line><line stroke-width="1" stroke="#B35047" x1="320" x2="320" y1="0" y2="512"></line><line stroke-width="1" stroke="#B35047" x1="352" x2="352" y1="0" y2="512"></line><line stroke-width="1" stroke="#B35047" x1="384" x2="384" y1="0" y2="512"></line><line stroke-width="1" stroke="#B35047" x1="416" x2="416" y1="0" y2="512"></line><line stroke-width="1" stroke="#B35047" x1="448" x2="448" y1="0" y2="512"></line><line stroke-width="1" stroke="#B35047" x1="480" x2="480" y1="0" y2="512"></line><line stroke-width="1" stroke="#B35047" x1="0" x2="512" y1="32" y2="32"></line><line stroke-width="1" stroke="#B35047" x1="0" x2="512" y1="64" y2="64"></line><line stroke-width="1" stroke="#B35047" x1="0" x2="512" y1="96" y2="96"></line><line stroke-width="1" stroke="#B35047" x1="0" x2="512" y1="128" y2="128"></line><line stroke-width="1" stroke="#B35047" x1="0" x2="512" y1="160" y2="160"></line><line stroke-width="1" stroke="#B35047" x1="0" x2="512" y1="192" y2="192"></line><line stroke-width="1" stroke="#B35047" x1="0" x2="512" y1="224" y2="224"></line><line stroke-width="1" stroke="#B35047" x1="0" x2="512" y1="256" y2="256"></line><line stroke-width="1" stroke="#B35047" x1="0" x2="512" y1="288" y2="288"></line><line stroke-width="1" stroke="#B35047" x1="0" x2="512" y1="320" y2="320"></line><line stroke-width="1" stroke="#B35047" x1="0" x2="512" y1="352" y2="352"></line><line stroke-width="1" stroke="#B35047" x1="0" x2="512" y1="384" y2="384"></line><line stroke-width="1" stroke="#B35047" x1="0" x2="512" y1="416" y2="416"></line><line stroke-width="1" stroke="#B35047" x1="0" x2="512" y1="448" y2="448"></line><line stroke-width="1" stroke="#B35047" x1="0" x2="512" y1="480" y2="480"></line><rect x="0" y="0" width="512" height="512" fill="none" stroke-width="1" stroke="#B35047"></rect></g><path d="M 367.497,402.687c-9.476-1.494-9.692-27.327-9.692-27.327s 27.844-27.328, 33.912-64.076 c 16.326,0.00, 26.407-39.069, 10.082-52.814c 0.681-14.47, 20.984-113.588-81.799-113.588c-102.782,0.00-82.479,99.118-81.799,113.588 c-16.327,13.745-6.244,52.814, 10.081,52.814c 6.067,36.748, 33.913,64.076, 33.913,64.076s-0.216,25.833-9.692,27.327 C 241.979,407.503, 128.00,457.345, 128.00,512.00l 192.00,0.00 l 192.00,0.00 C 512.00,457.345, 398.021,407.503, 367.497,402.687zM 172.027,411.405c 22.047-13.575, 48.813-26.154, 70.769-33.712c-7.876-11.216-16.647-26.468-22.165-44.531 c-7.703-6.283-13.972-15.266-17.999-26.301c-4.033-11.052-5.561-23.426-4.304-34.842c 0.902-8.196, 3.239-15.833, 6.825-22.544 c-2.175-23.293-3.707-69.017, 26.224-102.366c 11.607-12.933, 26.278-22.23, 43.85-27.843C 272.09,86.886, 255.647,48.881, 192.00,48.881 c-102.782,0.00-82.479,99.118-81.799,113.588c-16.327,13.745-6.244,52.814, 10.081,52.814c 6.067,36.748, 33.913,64.076, 33.913,64.076 s-0.216,25.833-9.692,27.327C 113.979,311.503,0.00,361.345,0.00,416.00l 164.798,0.00 C 167.153,414.463, 169.551,412.93, 172.027,411.405z" ></path></svg>