<?xml version="1.0" encoding="utf-8"?> <!-- Generator: IcoMoon.io --> <!DOCTYPE svg PUBLIC "-//W3C//DTD SVG 1.1//EN" "http://www.w3.org/Graphics/SVG/1.1/DTD/svg11.dtd"> <svg width="512" height="512" viewBox="0 0 512 512" xmlns="http://www.w3.org/2000/svg" xmlns:xlink="http://www.w3.org/1999/xlink" fill="#000000"><g class="svgGrid" id="svgGrid"><line stroke-width="1" stroke="#B35047" x1="32" x2="32" y1="0" y2="512"></line><line stroke-width="1" stroke="#B35047" x1="64" x2="64" y1="0" y2="512"></line><line stroke-width="1" stroke="#B35047" x1="96" x2="96" y1="0" y2="512"></line><line stroke-width="1" stroke="#B35047" x1="128" x2="128" y1="0" y2="512"></line><line stroke-width="1" stroke="#B35047" x1="160" x2="160" y1="0" y2="512"></line><line stroke-width="1" stroke="#B35047" x1="192" x2="192" y1="0" y2="512"></line><line stroke-width="1" stroke="#B35047" x1="224" x2="224" y1="0" y2="512"></line><line stroke-width="1" stroke="#B35047" x1="256" x2="256" y1="0" y2="512"></line><line stroke-width="1" stroke="#B35047" x1="288" x2="288" y1="0" y2="512"></line><line stroke-width="1" stroke="#B35047" x1="320" x2="320" y1="0" y2="512"></line><line stroke-width="1" stroke="#B35047" x1="352" x2="352" y1="0" y2="512"></line><line stroke-width="1" stroke="#B35047" x1="384" x2="384" y1="0" y2="512"></line><line stroke-width="1" stroke="#B35047" x1="416" x2="416" y1="0" y2="512"></line><line stroke-width="1" stroke="#B35047" x1="448" x2="448" y1="0" y2="512"></line><line stroke-width="1" stroke="#B35047" x1="480" x2="480" y1="0" y2="512"></line><line stroke-width="1" stroke="#B35047" x1="0" x2="512" y1="32" y2="32"></line><line stroke-width="1" stroke="#B35047" x1="0" x2="512" y1="64" y2="64"></line><line stroke-width="1" stroke="#B35047" x1="0" x2="512" y1="96" y2="96"></line><line stroke-width="1" stroke="#B35047" x1="0" x2="512" y1="128" y2="128"></line><line stroke-width="1" stroke="#B35047" x1="0" x2="512" y1="160" y2="160"></line><line stroke-width="1" stroke="#B35047" x1="0" x2="512" y1="192" y2="192"></line><line stroke-width="1" stroke="#B35047" x1="0" x2="512" y1="224" y2="224"></line><line stroke-width="1" stroke="#B35047" x1="0" x2="512" y1="256" y2="256"></line><line stroke-width="1" stroke="#B35047" x1="0" x2="512" y1="288" y2="288"></line><line stroke-width="1" stroke="#B35047" x1="0" x2="512" y1="320" y2="320"></line><line stroke-width="1" stroke="#B35047" x1="0" x2="512" y1="352" y2="352"></line><line stroke-width="1" stroke="#B35047" x1="0" x2="512" y1="384" y2="384"></line><line stroke-width="1" stroke="#B35047" x1="0" x2="512" y1="416" y2="416"></line><line stroke-width="1" stroke="#B35047" x1="0" x2="512" y1="448" y2="448"></line><line stroke-width="1" stroke="#B35047" x1="0" x2="512" y1="480" y2="480"></line><rect x="0" y="0" width="512" height="512" fill="none" stroke-width="1" stroke="#B35047"></rect></g><path d="M 206.115,255.957c-23.854-12.259-47.043-18.479-68.94-18.479c-2.978,0.00-5.976,0.09-8.974,0.354 c-27.94,2.312-53.461,9.684-69.875,15.414c-4.354,1.599-8.817,3.288-13.415,5.153L0.00,414.096 c 30.851-11.416, 58.146-16.969, 83.135-16.969c 40.423,0.00, 69.764,15.104, 93.996,30.652c 11.481-38.959, 39.022-133.045, 47.241-161.162 C 218.397,262.975, 212.334,259.332, 206.115,255.957zM 264.174,295.535l-45.223,157.074c 13.416,7.686, 58.549,32.025, 93.106,32.025c 27.896,0.00, 59.126-7.148, 95.417-21.896 l 43.178-150.988c-29.316,9.461-57.438,14.26-83.732,14.26C 318.945,326.01, 285.363,310.461, 264.174,295.535zM 146.411,184.395c 38.559,0.399, 67.076,15.104, 90.708,30.251l 46.376-158.672c-9.773-5.598-35.403-19.547-53.929-24.30 c-12.193-2.842-25.01-4.308-38.602-4.308c-25.898,0.488-54.194,6.973-86.444,19.90l-44.22,155.298 c 32.404-12.218, 60.322-18.17, 86.043-18.17C 146.366,184.395, 146.411,184.395, 146.411,184.395zM 512.00,99.062c-29.407,11.416-58.104,17.233-85.514,17.233c-45.843,0.00-79.646-15.901-101.547-31.183L 278.964,244.23 c 30.873,19.854, 64.145,29.939, 99.061,29.939c 28.474,0.00, 57.97-6.84, 87.731-20.344l-0.091-1.111l 1.867-0.443L 512.00,99.062z" ></path></svg>