<?xml version="1.0" encoding="utf-8"?>
<!-- Generator: Adobe Illustrator 15.0.0, SVG Export Plug-In . SVG Version: 6.00 Build 0)  -->
<!DOCTYPE svg PUBLIC "-//W3C//DTD SVG 1.1//EN" "http://www.w3.org/Graphics/SVG/1.1/DTD/svg11.dtd">
<svg version="1.1" id="Layer_1" xmlns="http://www.w3.org/2000/svg" xmlns:xlink="http://www.w3.org/1999/xlink" x="0px" y="0px"
	 width="512px" height="512px" viewBox="0 0 512 512" enable-background="new 0 0 512 512" xml:space="preserve">
<g id="Grid_1_">
	<g id="Layer_1_1_">
		<g id="Grid">
			<g>
				<rect x="0" fill="none" stroke="#A9CCDB" stroke-miterlimit="10" width="512" height="512"/>
				<line fill="none" stroke="#A9CCDB" stroke-miterlimit="10" x1="0" y1="480" x2="512" y2="480"/>
				<line fill="none" stroke="#A9CCDB" stroke-miterlimit="10" x1="0" y1="448" x2="512" y2="448"/>
				<line fill="none" stroke="#A9CCDB" stroke-miterlimit="10" x1="0" y1="416" x2="512" y2="416"/>
				<line fill="none" stroke="#A9CCDB" stroke-miterlimit="10" x1="0" y1="384" x2="512" y2="384"/>
				<line fill="none" stroke="#A9CCDB" stroke-miterlimit="10" x1="0" y1="352" x2="512" y2="352"/>
				<line fill="none" stroke="#A9CCDB" stroke-miterlimit="10" x1="0" y1="320" x2="512" y2="320"/>
				<line fill="none" stroke="#A9CCDB" stroke-miterlimit="10" x1="0" y1="288" x2="512" y2="288"/>
				<line fill="none" stroke="#A9CCDB" stroke-miterlimit="10" x1="0" y1="256" x2="512" y2="256"/>
				<line fill="none" stroke="#A9CCDB" stroke-miterlimit="10" x1="0" y1="224" x2="512" y2="224"/>
				<line fill="none" stroke="#A9CCDB" stroke-miterlimit="10" x1="0" y1="192" x2="512" y2="192"/>
				<line fill="none" stroke="#A9CCDB" stroke-miterlimit="10" x1="0" y1="160" x2="512" y2="160"/>
				<line fill="none" stroke="#A9CCDB" stroke-miterlimit="10" x1="0" y1="128" x2="512" y2="128"/>
				<line fill="none" stroke="#A9CCDB" stroke-miterlimit="10" x1="0" y1="96" x2="512" y2="96"/>
				<line fill="none" stroke="#A9CCDB" stroke-miterlimit="10" x1="0" y1="64" x2="512" y2="64"/>
				<line fill="none" stroke="#A9CCDB" stroke-miterlimit="10" x1="0" y1="32" x2="512" y2="32"/>
				<line fill="none" stroke="#A9CCDB" stroke-miterlimit="10" x1="480" y1="0" x2="480" y2="512"/>
				<line fill="none" stroke="#A9CCDB" stroke-miterlimit="10" x1="448" y1="0" x2="448" y2="512"/>
				<line fill="none" stroke="#A9CCDB" stroke-miterlimit="10" x1="416" y1="0" x2="416" y2="512"/>
				<line fill="none" stroke="#A9CCDB" stroke-miterlimit="10" x1="384" y1="0" x2="384" y2="512"/>
				<line fill="none" stroke="#A9CCDB" stroke-miterlimit="10" x1="352" y1="0" x2="352" y2="512"/>
				<line fill="none" stroke="#A9CCDB" stroke-miterlimit="10" x1="320" y1="0" x2="320" y2="512"/>
				<line fill="none" stroke="#A9CCDB" stroke-miterlimit="10" x1="288" y1="0" x2="288" y2="512"/>
				<line fill="none" stroke="#A9CCDB" stroke-miterlimit="10" x1="256" y1="0" x2="256" y2="512"/>
				<line fill="none" stroke="#A9CCDB" stroke-miterlimit="10" x1="224" y1="0" x2="224" y2="512"/>
				<line fill="none" stroke="#A9CCDB" stroke-miterlimit="10" x1="192" y1="0" x2="192" y2="512"/>
				<line fill="none" stroke="#A9CCDB" stroke-miterlimit="10" x1="160" y1="0" x2="160" y2="512"/>
				<line fill="none" stroke="#A9CCDB" stroke-miterlimit="10" x1="128" y1="0" x2="128" y2="512"/>
				<line fill="none" stroke="#A9CCDB" stroke-miterlimit="10" x1="96" y1="0" x2="96" y2="512"/>
				<line fill="none" stroke="#A9CCDB" stroke-miterlimit="10" x1="64" y1="0" x2="64" y2="512"/>
				<line fill="none" stroke="#A9CCDB" stroke-miterlimit="10" x1="32" y1="0" x2="32" y2="512"/>
			</g>
		</g>
	</g>
</g>
<g>
	<path d="M259.555,273.729l-60.828,176.742c18.164,5.343,37.372,8.262,57.269,8.262c23.608,0,46.251-4.077,67.321-11.492
		c-0.539-0.868-1.039-1.793-1.45-2.795L259.555,273.729z"/>
	<path d="M392.852,245.768c0-25.062-9.006-42.405-16.718-55.905c-10.273-16.708-19.912-30.843-19.912-47.55
		c0-18.631,14.13-35.979,34.045-35.979c0.896,0,1.753,0.108,2.624,0.165c-36.064-33.048-84.119-53.225-136.896-53.225
		c-70.82,0-133.129,36.34-169.376,91.371c4.757,0.153,9.242,0.244,13.044,0.244c21.197,0,54.028-2.576,54.028-2.576
		c10.928-0.639,12.213,15.416,1.299,16.707c0,0-10.985,1.282-23.198,1.928l73.816,219.589l44.371-133.05l-31.584-86.541
		c-10.92-0.645-21.262-1.926-21.262-1.926c-10.927-0.646-9.645-17.347,1.288-16.707c0,0,33.47,2.576,53.391,2.576
		c21.199,0,54.03-2.576,54.03-2.576c10.931-0.64,12.218,15.414,1.297,16.707c0,0-10.999,1.281-23.202,1.926l73.262,217.916
		l20.229-67.559C386.179,283.252,392.852,263.118,392.852,245.768z"/>
	<path d="M357.915,431.219c60.269-35.14,100.803-100.438,100.803-175.227c0-35.246-9.005-68.381-24.831-97.254
		c0.871,6.455,1.366,13.382,1.366,20.847c0,20.564-3.854,43.688-15.416,72.609L357.915,431.219z"/>
	<path d="M53.277,255.992c0,80.24,46.624,149.592,114.258,182.448L70.83,173.49C59.577,198.701,53.277,226.601,53.277,255.992z"/>
	<path d="M426.688,0H85.346C38.406,0,0,38.406,0,85.341v341.313C0,473.624,38.406,512,85.346,512h341.342
		C473.622,512,512,473.624,512,426.654V85.341C512,38.406,473.622,0,426.688,0z M255.993,481.48
		c-124.327,0-225.476-101.156-225.476-225.488c0-124.324,101.147-225.475,225.476-225.475
		c124.327,0,225.484,101.149,225.484,225.475C481.48,380.324,380.322,481.48,255.993,481.48z"/>
</g>
</svg>
