<?xml version="1.0" encoding="utf-8"?> <!-- Generator: IcoMoon.io --> <!DOCTYPE svg PUBLIC "-//W3C//DTD SVG 1.1//EN" "http://www.w3.org/Graphics/SVG/1.1/DTD/svg11.dtd"> <svg width="512" height="512" viewBox="0 0 512 512" xmlns="http://www.w3.org/2000/svg" xmlns:xlink="http://www.w3.org/1999/xlink" fill="#000000"><g class="svgGrid" id="svgGrid"><line stroke-width="1" stroke="#B35047" x1="32" x2="32" y1="0" y2="512"></line><line stroke-width="1" stroke="#B35047" x1="64" x2="64" y1="0" y2="512"></line><line stroke-width="1" stroke="#B35047" x1="96" x2="96" y1="0" y2="512"></line><line stroke-width="1" stroke="#B35047" x1="128" x2="128" y1="0" y2="512"></line><line stroke-width="1" stroke="#B35047" x1="160" x2="160" y1="0" y2="512"></line><line stroke-width="1" stroke="#B35047" x1="192" x2="192" y1="0" y2="512"></line><line stroke-width="1" stroke="#B35047" x1="224" x2="224" y1="0" y2="512"></line><line stroke-width="1" stroke="#B35047" x1="256" x2="256" y1="0" y2="512"></line><line stroke-width="1" stroke="#B35047" x1="288" x2="288" y1="0" y2="512"></line><line stroke-width="1" stroke="#B35047" x1="320" x2="320" y1="0" y2="512"></line><line stroke-width="1" stroke="#B35047" x1="352" x2="352" y1="0" y2="512"></line><line stroke-width="1" stroke="#B35047" x1="384" x2="384" y1="0" y2="512"></line><line stroke-width="1" stroke="#B35047" x1="416" x2="416" y1="0" y2="512"></line><line stroke-width="1" stroke="#B35047" x1="448" x2="448" y1="0" y2="512"></line><line stroke-width="1" stroke="#B35047" x1="480" x2="480" y1="0" y2="512"></line><line stroke-width="1" stroke="#B35047" x1="0" x2="512" y1="32" y2="32"></line><line stroke-width="1" stroke="#B35047" x1="0" x2="512" y1="64" y2="64"></line><line stroke-width="1" stroke="#B35047" x1="0" x2="512" y1="96" y2="96"></line><line stroke-width="1" stroke="#B35047" x1="0" x2="512" y1="128" y2="128"></line><line stroke-width="1" stroke="#B35047" x1="0" x2="512" y1="160" y2="160"></line><line stroke-width="1" stroke="#B35047" x1="0" x2="512" y1="192" y2="192"></line><line stroke-width="1" stroke="#B35047" x1="0" x2="512" y1="224" y2="224"></line><line stroke-width="1" stroke="#B35047" x1="0" x2="512" y1="256" y2="256"></line><line stroke-width="1" stroke="#B35047" x1="0" x2="512" y1="288" y2="288"></line><line stroke-width="1" stroke="#B35047" x1="0" x2="512" y1="320" y2="320"></line><line stroke-width="1" stroke="#B35047" x1="0" x2="512" y1="352" y2="352"></line><line stroke-width="1" stroke="#B35047" x1="0" x2="512" y1="384" y2="384"></line><line stroke-width="1" stroke="#B35047" x1="0" x2="512" y1="416" y2="416"></line><line stroke-width="1" stroke="#B35047" x1="0" x2="512" y1="448" y2="448"></line><line stroke-width="1" stroke="#B35047" x1="0" x2="512" y1="480" y2="480"></line><rect x="0" y="0" width="512" height="512" fill="none" stroke-width="1" stroke="#B35047"></rect></g><path d="M 259.371,272.352 L 318.386,429.823 C 318.775,430.748 319.252,431.598 319.761,432.40 C 299.805,439.241 278.359,443.00 256.002,443.00 C 237.155,443.00 218.966,440.31 201.758,435.381 L 259.371,272.352 ZM 448.00,255.997 C 448.00,324.982 409.612,385.212 352.53,417.626 L 411.173,252.49 C 422.129,225.813 425.775,204.48 425.775,185.515 C 425.775,178.629 425.306,172.241 424.481,166.286 C 439.47,192.917 448.00,223.482 448.00,255.997 ZM 64.00,255.996 C 64.00,228.884 69.972,203.147 80.626,179.893 L 172.215,424.285 C 108.161,393.98 64.00,330.009 64.00,255.996 ZM 95.582,153.284 C 129.911,102.523 188.924,69.00 256.004,69.00 C 305.988,69.00 351.50,87.613 385.658,118.098 C 384.83,118.049 384.023,117.947 383.17,117.947 C 364.31,117.947 350.927,133.948 350.927,151.135 C 350.927,166.546 360.058,179.583 369.787,194.993 C 377.087,207.446 385.614,223.447 385.614,246.564 C 385.614,262.565 379.296,281.139 371.006,307.014 L 351.85,369.33 L 282.46,168.321 C 294.018,167.732 304.434,166.546 304.434,166.546 C 314.781,165.352 313.563,150.544 303.211,151.135 C 303.211,151.135 272.109,153.511 252.036,153.511 C 233.169,153.511 201.469,151.135 201.469,151.135 C 191.114,150.545 189.899,165.95 200.25,166.546 C 200.25,166.546 210.045,167.729 220.389,168.321 L 250.30,248.146 L 208.278,370.874 L 138.361,168.321 C 149.932,167.73 160.337,166.546 160.337,166.546 C 170.674,165.352 169.453,150.544 159.108,151.135 C 159.108,151.135 128.015,153.511 107.938,153.511 C 104.335,153.511 100.087,153.425 95.582,153.284 ZM 426.00,0.00L 86.00,0.00 C 38.70,0.00,0.00,38.70,0.00,86.00l0.00,340.00 c0.00,47.30, 38.70,86.00, 86.00,86.00l 340.00,0.00 c 47.30,0.00, 86.00-38.70, 86.00-86.00L 512.00,86.00 C 512.00,38.70, 473.30,0.00, 426.00,0.00z M 480.00,256.00 c0.00,123.712-100.288,224.00-224.00,224.00S 32.00,379.712, 32.00,256.00S 132.288,32.00, 256.00,32.00S 480.00,132.288, 480.00,256.00z" ></path></svg>