<?xml version="1.0" encoding="utf-8"?> <!-- Generator: IcoMoon.io --> <!DOCTYPE svg PUBLIC "-//W3C//DTD SVG 1.1//EN" "http://www.w3.org/Graphics/SVG/1.1/DTD/svg11.dtd"> <svg width="512" height="512" viewBox="0 0 512 512" xmlns="http://www.w3.org/2000/svg" xmlns:xlink="http://www.w3.org/1999/xlink" fill="#000000"><g class="svgGrid" id="svgGrid"><line stroke-width="1" stroke="#B35047" x1="32" x2="32" y1="0" y2="512"></line><line stroke-width="1" stroke="#B35047" x1="64" x2="64" y1="0" y2="512"></line><line stroke-width="1" stroke="#B35047" x1="96" x2="96" y1="0" y2="512"></line><line stroke-width="1" stroke="#B35047" x1="128" x2="128" y1="0" y2="512"></line><line stroke-width="1" stroke="#B35047" x1="160" x2="160" y1="0" y2="512"></line><line stroke-width="1" stroke="#B35047" x1="192" x2="192" y1="0" y2="512"></line><line stroke-width="1" stroke="#B35047" x1="224" x2="224" y1="0" y2="512"></line><line stroke-width="1" stroke="#B35047" x1="256" x2="256" y1="0" y2="512"></line><line stroke-width="1" stroke="#B35047" x1="288" x2="288" y1="0" y2="512"></line><line stroke-width="1" stroke="#B35047" x1="320" x2="320" y1="0" y2="512"></line><line stroke-width="1" stroke="#B35047" x1="352" x2="352" y1="0" y2="512"></line><line stroke-width="1" stroke="#B35047" x1="384" x2="384" y1="0" y2="512"></line><line stroke-width="1" stroke="#B35047" x1="416" x2="416" y1="0" y2="512"></line><line stroke-width="1" stroke="#B35047" x1="448" x2="448" y1="0" y2="512"></line><line stroke-width="1" stroke="#B35047" x1="480" x2="480" y1="0" y2="512"></line><line stroke-width="1" stroke="#B35047" x1="0" x2="512" y1="32" y2="32"></line><line stroke-width="1" stroke="#B35047" x1="0" x2="512" y1="64" y2="64"></line><line stroke-width="1" stroke="#B35047" x1="0" x2="512" y1="96" y2="96"></line><line stroke-width="1" stroke="#B35047" x1="0" x2="512" y1="128" y2="128"></line><line stroke-width="1" stroke="#B35047" x1="0" x2="512" y1="160" y2="160"></line><line stroke-width="1" stroke="#B35047" x1="0" x2="512" y1="192" y2="192"></line><line stroke-width="1" stroke="#B35047" x1="0" x2="512" y1="224" y2="224"></line><line stroke-width="1" stroke="#B35047" x1="0" x2="512" y1="256" y2="256"></line><line stroke-width="1" stroke="#B35047" x1="0" x2="512" y1="288" y2="288"></line><line stroke-width="1" stroke="#B35047" x1="0" x2="512" y1="320" y2="320"></line><line stroke-width="1" stroke="#B35047" x1="0" x2="512" y1="352" y2="352"></line><line stroke-width="1" stroke="#B35047" x1="0" x2="512" y1="384" y2="384"></line><line stroke-width="1" stroke="#B35047" x1="0" x2="512" y1="416" y2="416"></line><line stroke-width="1" stroke="#B35047" x1="0" x2="512" y1="448" y2="448"></line><line stroke-width="1" stroke="#B35047" x1="0" x2="512" y1="480" y2="480"></line><rect x="0" y="0" width="512" height="512" fill="none" stroke-width="1" stroke="#B35047"></rect></g><path d="M 64.00,255.996c0.00,74.013, 44.161,137.984, 108.215,168.289L 80.626,179.893C 69.972,203.147, 64.00,228.884, 64.00,255.996zM 385.614,246.564c0.00-23.117-8.527-39.118-15.827-51.571c-9.729-15.41-18.86-28.447-18.86-43.858 c0.00-17.187, 13.383-33.188, 32.243-33.188c 0.852,0.00, 1.66,0.102, 2.488,0.151C 351.50,87.613, 305.988,69.00, 256.004,69.00 c-67.08,0.00-126.093,33.523-160.422,84.284c 4.505,0.141, 8.753,0.227, 12.356,0.227c 20.077,0.00, 51.17-2.376, 51.17-2.376 c 10.345-0.591, 11.566,14.217, 1.229,15.411c0.00,0.00-10.405,1.184-21.976,1.775l 69.917,202.553l 42.022-122.728l-29.911-79.825 c-10.344-0.592-20.139-1.775-20.139-1.775c-10.351-0.596-9.136-16.001, 1.219-15.411c0.00,0.00, 31.70,2.376, 50.567,2.376 c 20.073,0.00, 51.175-2.376, 51.175-2.376c 10.351-0.591, 11.57,14.217, 1.223,15.411c0.00,0.00-10.417,1.186-21.974,1.775L 351.85,369.33 l 19.156-62.316C 379.296,281.139, 385.614,262.564, 385.614,246.564zM 259.371,272.352l-57.613,163.029c 17.208,4.929, 35.397,7.619, 54.244,7.619c 22.358,0.00, 43.802-3.759, 63.759-10.60 c-0.509-0.801-0.987-1.652-1.375-2.577L 259.371,272.352zM 424.481,166.286c 0.826,5.955, 1.294,12.343, 1.294,19.229c0.00,18.965-3.646,40.298-14.601,66.975l-58.643,165.136 C 409.612,385.212, 448.00,324.982, 448.00,255.997C 448.00,223.482, 439.47,192.917, 424.481,166.286zM 256.00,0.00C 114.615,0.00,0.00,114.615,0.00,256.00s 114.615,256.00, 256.00,256.00s 256.00-114.615, 256.00-256.00S 397.385,0.00, 256.00,0.00z M 256.00,480.00 C 132.288,480.00, 32.00,379.712, 32.00,256.00S 132.288,32.00, 256.00,32.00s 224.00,100.288, 224.00,224.00S 379.712,480.00, 256.00,480.00z" ></path></svg>