<?xml version="1.0" encoding="utf-8"?> <!-- Generator: IcoMoon --> <!DOCTYPE svg PUBLIC "-//W3C//DTD SVG 1.1//EN" "http://www.w3.org/Graphics/SVG/1.1/DTD/svg11.dtd"> <svg width="512" height="512" viewBox="0 0 512 512" data-tags="yahoo, social" fill="#000000"><g class="svgGrid" id="svgGrid"><line stroke-width="1" stroke="#B35047" x1="32" x2="32" y1="0" y2="512"></line><line stroke-width="1" stroke="#B35047" x1="64" x2="64" y1="0" y2="512"></line><line stroke-width="1" stroke="#B35047" x1="96" x2="96" y1="0" y2="512"></line><line stroke-width="1" stroke="#B35047" x1="128" x2="128" y1="0" y2="512"></line><line stroke-width="1" stroke="#B35047" x1="160" x2="160" y1="0" y2="512"></line><line stroke-width="1" stroke="#B35047" x1="192" x2="192" y1="0" y2="512"></line><line stroke-width="1" stroke="#B35047" x1="224" x2="224" y1="0" y2="512"></line><line stroke-width="1" stroke="#B35047" x1="256" x2="256" y1="0" y2="512"></line><line stroke-width="1" stroke="#B35047" x1="288" x2="288" y1="0" y2="512"></line><line stroke-width="1" stroke="#B35047" x1="320" x2="320" y1="0" y2="512"></line><line stroke-width="1" stroke="#B35047" x1="352" x2="352" y1="0" y2="512"></line><line stroke-width="1" stroke="#B35047" x1="384" x2="384" y1="0" y2="512"></line><line stroke-width="1" stroke="#B35047" x1="416" x2="416" y1="0" y2="512"></line><line stroke-width="1" stroke="#B35047" x1="448" x2="448" y1="0" y2="512"></line><line stroke-width="1" stroke="#B35047" x1="480" x2="480" y1="0" y2="512"></line><line stroke-width="1" stroke="#B35047" x1="0" x2="512" y1="32" y2="32"></line><line stroke-width="1" stroke="#B35047" x1="0" x2="512" y1="64" y2="64"></line><line stroke-width="1" stroke="#B35047" x1="0" x2="512" y1="96" y2="96"></line><line stroke-width="1" stroke="#B35047" x1="0" x2="512" y1="128" y2="128"></line><line stroke-width="1" stroke="#B35047" x1="0" x2="512" y1="160" y2="160"></line><line stroke-width="1" stroke="#B35047" x1="0" x2="512" y1="192" y2="192"></line><line stroke-width="1" stroke="#B35047" x1="0" x2="512" y1="224" y2="224"></line><line stroke-width="1" stroke="#B35047" x1="0" x2="512" y1="256" y2="256"></line><line stroke-width="1" stroke="#B35047" x1="0" x2="512" y1="288" y2="288"></line><line stroke-width="1" stroke="#B35047" x1="0" x2="512" y1="320" y2="320"></line><line stroke-width="1" stroke="#B35047" x1="0" x2="512" y1="352" y2="352"></line><line stroke-width="1" stroke="#B35047" x1="0" x2="512" y1="384" y2="384"></line><line stroke-width="1" stroke="#B35047" x1="0" x2="512" y1="416" y2="416"></line><line stroke-width="1" stroke="#B35047" x1="0" x2="512" y1="448" y2="448"></line><line stroke-width="1" stroke="#B35047" x1="0" x2="512" y1="480" y2="480"></line><rect x="0" y="0" width="512" height="512" fill="none" stroke-width="1" stroke="#B35047"></rect></g><path d="M 426.656,0.00L 85.343,0.00 C 38.406,0.00,0.00,38.406,0.00,85.343l0.00,341.314 C0.00,473.624, 38.406,512.00, 85.343,512.00l 341.313,0.00 C 473.594,512.00, 512.00,473.624, 512.00,426.657L 512.00,85.343 C 512.00,38.406, 473.594,0.00, 426.656,0.00z M 373.315,197.969 c-9.407,2.531-95.377,68.938-101.032,85.25c-1.252,5.627, 0.125,60.221, 1.375,68.408c 5.655,1.248, 46.563,0.154, 54.063,1.402 l-0.906,16.877c-7.344-0.563-59.313-0.438-88.969-0.438c-15.064,0.00-63.50,1.654-78.374,1.218l 2.81-16.062 c 8.159-0.594, 41.939,1.499, 49.346-6.345c 3.688-3.905, 2.531-55.781, 1.281-64.564c-3.125-9.374-78.47-103.436-98.156-118.842L 64.00,164.873 l0.00-23.626 l 171.125,0.00 l0.00,23.626 L 183.53,164.873 c 22.999,33.499, 55.971,73.97, 70.033,93.406l 68.938-62.218L 281.53,196.061 l-5.779-23.627l 150.095,0.00 l-15.97,23.627l-27.688,0.00 C 378.594,196.844, 375.437,197.531, 373.315,197.969z M 418.593,370.781l-12.563-0.938l-11.654-1.001 l-0.125-25.248l 14.778,1.813l 13.25,0.655L 418.593,370.781z M 421.22,328.844L 398.218,327.00l-0.625-106.655 c 5.279,1.031, 45.938,4.874, 50.404,5.028L 421.22,328.844z" ></path></svg>