<?xml version="1.0" encoding="utf-8"?> <!-- Generator: IcoMoon.io --> <!DOCTYPE svg PUBLIC "-//W3C//DTD SVG 1.1//EN" "http://www.w3.org/Graphics/SVG/1.1/DTD/svg11.dtd"> <svg width="512" height="512" viewBox="0 0 512 512" xmlns="http://www.w3.org/2000/svg" xmlns:xlink="http://www.w3.org/1999/xlink" fill="#000000"><g class="svgGrid" id="svgGrid"><line stroke-width="1" stroke="#B35047" x1="32" x2="32" y1="0" y2="512"></line><line stroke-width="1" stroke="#B35047" x1="64" x2="64" y1="0" y2="512"></line><line stroke-width="1" stroke="#B35047" x1="96" x2="96" y1="0" y2="512"></line><line stroke-width="1" stroke="#B35047" x1="128" x2="128" y1="0" y2="512"></line><line stroke-width="1" stroke="#B35047" x1="160" x2="160" y1="0" y2="512"></line><line stroke-width="1" stroke="#B35047" x1="192" x2="192" y1="0" y2="512"></line><line stroke-width="1" stroke="#B35047" x1="224" x2="224" y1="0" y2="512"></line><line stroke-width="1" stroke="#B35047" x1="256" x2="256" y1="0" y2="512"></line><line stroke-width="1" stroke="#B35047" x1="288" x2="288" y1="0" y2="512"></line><line stroke-width="1" stroke="#B35047" x1="320" x2="320" y1="0" y2="512"></line><line stroke-width="1" stroke="#B35047" x1="352" x2="352" y1="0" y2="512"></line><line stroke-width="1" stroke="#B35047" x1="384" x2="384" y1="0" y2="512"></line><line stroke-width="1" stroke="#B35047" x1="416" x2="416" y1="0" y2="512"></line><line stroke-width="1" stroke="#B35047" x1="448" x2="448" y1="0" y2="512"></line><line stroke-width="1" stroke="#B35047" x1="480" x2="480" y1="0" y2="512"></line><line stroke-width="1" stroke="#B35047" x1="0" x2="512" y1="32" y2="32"></line><line stroke-width="1" stroke="#B35047" x1="0" x2="512" y1="64" y2="64"></line><line stroke-width="1" stroke="#B35047" x1="0" x2="512" y1="96" y2="96"></line><line stroke-width="1" stroke="#B35047" x1="0" x2="512" y1="128" y2="128"></line><line stroke-width="1" stroke="#B35047" x1="0" x2="512" y1="160" y2="160"></line><line stroke-width="1" stroke="#B35047" x1="0" x2="512" y1="192" y2="192"></line><line stroke-width="1" stroke="#B35047" x1="0" x2="512" y1="224" y2="224"></line><line stroke-width="1" stroke="#B35047" x1="0" x2="512" y1="256" y2="256"></line><line stroke-width="1" stroke="#B35047" x1="0" x2="512" y1="288" y2="288"></line><line stroke-width="1" stroke="#B35047" x1="0" x2="512" y1="320" y2="320"></line><line stroke-width="1" stroke="#B35047" x1="0" x2="512" y1="352" y2="352"></line><line stroke-width="1" stroke="#B35047" x1="0" x2="512" y1="384" y2="384"></line><line stroke-width="1" stroke="#B35047" x1="0" x2="512" y1="416" y2="416"></line><line stroke-width="1" stroke="#B35047" x1="0" x2="512" y1="448" y2="448"></line><line stroke-width="1" stroke="#B35047" x1="0" x2="512" y1="480" y2="480"></line><rect x="0" y="0" width="512" height="512" fill="none" stroke-width="1" stroke="#B35047"></rect></g><path d="M 304.438,326.734c-8.641,8.713-1.334,24.564-1.334,24.564l 65.045,108.609c0.00,0.00, 10.68,14.32, 19.932,14.32 c 9.295,0.00, 18.477-7.635, 18.477-7.635l 51.422-73.504c0.00,0.00, 5.18-9.273, 5.299-17.396c 0.186-11.553-17.227-14.717-17.227-14.717 l-121.744-39.096C 324.307,321.881, 312.379,318.715, 304.438,326.734zM 298.266,271.992c 6.23,10.564, 23.414,7.486, 23.414,7.486l 121.469-35.503c0.00,0.00, 16.553-6.733, 18.916-15.709 c 2.32-8.977-2.73-19.811-2.73-19.811l-58.049-68.376c0.00,0.00-5.031-8.646-15.469-9.516c-11.508-0.979-18.59,12.949-18.59,12.949 l-68.635,108.005C 298.592,251.519, 292.525,262.275, 298.266,271.992zM 240.877,229.884c 14.304-3.522, 16.574-24.302, 16.574-24.302l-0.972-172.935c0.00,0.00-2.157-21.333-11.743-27.116 c-15.035-9.121-19.491-4.359-23.798-3.722L 120.09,39.281c0.00,0.00-9.877,3.268-15.021,11.509c-7.345,11.676, 7.464,28.772, 7.464,28.772 L 217.355,222.44C 217.355,222.44, 227.70,233.138, 240.877,229.884zM 215.972,299.869c 0.361-13.338-16.015-21.35-16.015-21.35L 91.559,223.757c0.00,0.00-16.063-6.623-23.861-2.008 c-5.975,3.53-11.268,9.92-11.786,15.567l-7.06,86.906c0.00,0.00-1.058,15.057, 2.845,21.91c 5.527,9.721, 23.714,2.951, 23.714,2.951 l 126.548-27.971C 206.875,317.807, 215.496,317.51, 215.972,299.869zM 247.44,346.771c-10.863-5.578-23.862,5.975-23.862,5.975l-84.734,93.283c0.00,0.00-10.572,14.264-7.884,23.025 c 2.533,8.209, 6.727,12.289, 12.659,15.164l 85.096,26.863c0.00,0.00, 10.317,2.143, 18.129-0.121c 11.09-3.215, 9.047-20.576, 9.047-20.576 l 1.924-126.301C 257.814,364.084, 257.381,351.916, 247.44,346.771z" ></path></svg>